<?xml version="1.0" encoding="utf-8" standalone="no"?>
<!DOCTYPE svg PUBLIC "-//W3C//DTD SVG 1.1//EN"
  "http://www.w3.org/Graphics/SVG/1.1/DTD/svg11.dtd">
<svg xmlns:xlink="http://www.w3.org/1999/xlink" width="160.007978pt" height="141.16pt" viewBox="0 0 160.007978 141.16" xmlns="http://www.w3.org/2000/svg" version="1.1">
 <metadata>
  <rdf:RDF xmlns:dc="http://purl.org/dc/elements/1.1/" xmlns:cc="http://creativecommons.org/ns#" xmlns:rdf="http://www.w3.org/1999/02/22-rdf-syntax-ns#">
   <cc:Work>
    <dc:type rdf:resource="http://purl.org/dc/dcmitype/StillImage"/>
    <dc:date>2024-11-03T09:41:09.054376</dc:date>
    <dc:format>image/svg+xml</dc:format>
    <dc:creator>
     <cc:Agent>
      <dc:title>Matplotlib v3.9.2, https://matplotlib.org/</dc:title>
     </cc:Agent>
    </dc:creator>
   </cc:Work>
  </rdf:RDF>
 </metadata>
 <defs>
  <style type="text/css">*{stroke-linejoin: round; stroke-linecap: butt}</style>
 </defs>
 <g id="figure_1">
  <g id="patch_1">
   <path d="M 0 141.16 
L 160.007978 141.16 
L 160.007978 0 
L 0 0 
z
" style="fill: #ffffff"/>
  </g>
  <g id="axes_1">
   <g id="patch_2">
    <path d="M 42.828 100.48 
C 47.601656 100.48 52.180438 98.583406 55.555922 95.207922 
C 58.931406 91.832438 60.828 87.253656 60.828 82.48 
C 60.828 77.706344 58.931406 73.127562 55.555922 69.752078 
C 52.180438 66.376594 47.601656 64.48 42.828 64.48 
C 38.054344 64.48 33.475562 66.376594 30.100078 69.752078 
C 26.724594 73.127562 24.828 77.706344 24.828 82.48 
C 24.828 87.253656 26.724594 91.832438 30.100078 95.207922 
C 33.475562 98.583406 38.054344 100.48 42.828 100.48 
L 42.828 100.48 
z
" clip-path="url(#p077a071bb0)" style="fill: none; stroke: #000000; stroke-width: 2; stroke-linejoin: miter"/>
   </g>
   <g id="patch_3">
    <path d="M 150.828 73.48 
C 152.021016 73.48 153.16639 73.005571 154.009981 72.161981 
C 154.853571 71.31839 155.328 70.173016 155.328 68.98 
C 155.328 67.786984 154.853571 66.64161 154.009981 65.798019 
C 153.16639 64.954429 152.021016 64.48 150.828 64.48 
" clip-path="url(#p077a071bb0)" style="fill: none; stroke: #000000; stroke-width: 2; stroke-linejoin: miter"/>
   </g>
   <g id="patch_4">
    <path d="M 150.828 82.48 
C 152.021016 82.48 153.16639 82.005571 154.009981 81.161981 
C 154.853571 80.31839 155.328 79.173016 155.328 77.98 
C 155.328 76.786984 154.853571 75.64161 154.009981 74.798019 
C 153.16639 73.954429 152.021016 73.48 150.828 73.48 
" clip-path="url(#p077a071bb0)" style="fill: none; stroke: #000000; stroke-width: 2; stroke-linejoin: miter"/>
   </g>
   <g id="patch_5">
    <path d="M 150.828 91.48 
C 152.021016 91.48 153.16639 91.005571 154.009981 90.161981 
C 154.853571 89.31839 155.328 88.173016 155.328 86.98 
C 155.328 85.786984 154.853571 84.64161 154.009981 83.798019 
C 153.16639 82.954429 152.021016 82.48 150.828 82.48 
" clip-path="url(#p077a071bb0)" style="fill: none; stroke: #000000; stroke-width: 2; stroke-linejoin: miter"/>
   </g>
   <g id="patch_6">
    <path d="M 150.828 100.48 
C 152.021016 100.48 153.16639 100.005571 154.009981 99.161981 
C 154.853571 98.31839 155.328 97.173016 155.328 95.98 
C 155.328 94.786984 154.853571 93.64161 154.009981 92.798019 
C 153.16639 91.954429 152.021016 91.48 150.828 91.48 
" clip-path="url(#p077a071bb0)" style="fill: none; stroke: #000000; stroke-width: 2; stroke-linejoin: miter"/>
   </g>
   <g id="line2d_1">
    <path d="M 42.828 136.48 
L 42.828 100.48 
L 42.828 100.48 
M 42.828 64.48 
L 42.828 64.48 
L 42.828 28.48 
" clip-path="url(#p077a071bb0)" style="fill: none; stroke: #000000; stroke-width: 2; stroke-linecap: round"/>
   </g>
   <g id="line2d_2">
    <path d="M 51.828 82.48 
L 51.078 80.616503 
L 50.328 78.88 
L 49.578 77.388831 
L 48.828 76.244617 
L 48.078 75.525334 
L 47.328 75.28 
L 46.578 75.525334 
L 45.828 76.244617 
L 45.078 77.388831 
L 44.328 78.88 
L 43.578 80.616503 
L 42.828 82.48 
L 42.078 84.343497 
L 41.328 86.08 
L 40.578 87.571169 
L 39.828 88.715383 
L 39.078 89.434666 
L 38.328 89.68 
L 37.578 89.434666 
L 36.828 88.715383 
L 36.078 87.571169 
L 35.328 86.08 
L 34.578 84.343497 
L 33.828 82.48 
" clip-path="url(#p077a071bb0)" style="fill: none; stroke: #000000; stroke-width: 2; stroke-linecap: round"/>
   </g>
   <g id="line2d_3">
    <path d="M 42.828 28.48 
L 78.828 28.48 
L 81.828 19.48 
L 87.828 37.48 
L 93.828 19.48 
L 99.828 37.48 
L 105.828 19.48 
L 111.828 37.48 
L 114.828 28.48 
L 150.828 28.48 
" clip-path="url(#p077a071bb0)" style="fill: none; stroke: #000000; stroke-width: 2; stroke-linecap: round"/>
   </g>
   <g id="line2d_4">
    <path d="M 150.828 28.48 
L 150.828 64.48 
M 150.828 100.48 
L 150.828 136.48 
" clip-path="url(#p077a071bb0)" style="fill: none; stroke: #000000; stroke-width: 2; stroke-linecap: round"/>
   </g>
   <g id="line2d_5">
    <path d="M 150.828 136.48 
L 96.828 136.48 
L 42.828 136.48 
" clip-path="url(#p077a071bb0)" style="fill: none; stroke: #000000; stroke-width: 2; stroke-linecap: round"/>
   </g>
   <g id="text_1">
    <!-- Vs -->
    <g transform="translate(4.358 86.343125) scale(0.14 -0.14)">
     <defs>
      <path id="DejaVuSans-56" d="M 1831 0 
L 50 4666 
L 709 4666 
L 2188 738 
L 3669 4666 
L 4325 4666 
L 2547 0 
L 1831 0 
z
" transform="scale(0.015625)"/>
      <path id="DejaVuSans-73" d="M 2834 3397 
L 2834 2853 
Q 2591 2978 2328 3040 
Q 2066 3103 1784 3103 
Q 1356 3103 1142 2972 
Q 928 2841 928 2578 
Q 928 2378 1081 2264 
Q 1234 2150 1697 2047 
L 1894 2003 
Q 2506 1872 2764 1633 
Q 3022 1394 3022 966 
Q 3022 478 2636 193 
Q 2250 -91 1575 -91 
Q 1294 -91 989 -36 
Q 684 19 347 128 
L 347 722 
Q 666 556 975 473 
Q 1284 391 1588 391 
Q 1994 391 2212 530 
Q 2431 669 2431 922 
Q 2431 1156 2273 1281 
Q 2116 1406 1581 1522 
L 1381 1569 
Q 847 1681 609 1914 
Q 372 2147 372 2553 
Q 372 3047 722 3315 
Q 1072 3584 1716 3584 
Q 2034 3584 2315 3537 
Q 2597 3491 2834 3397 
z
" transform="scale(0.015625)"/>
     </defs>
     <use xlink:href="#DejaVuSans-56"/>
     <use xlink:href="#DejaVuSans-73" x="68.408203"/>
    </g>
   </g>
   <g id="text_2">
    <!-- 2Ω -->
    <g transform="translate(87.024719 12.968437) scale(0.14 -0.14)">
     <defs>
      <path id="DejaVuSans-32" d="M 1228 531 
L 3431 531 
L 3431 0 
L 469 0 
L 469 531 
Q 828 903 1448 1529 
Q 2069 2156 2228 2338 
Q 2531 2678 2651 2914 
Q 2772 3150 2772 3378 
Q 2772 3750 2511 3984 
Q 2250 4219 1831 4219 
Q 1534 4219 1204 4116 
Q 875 4013 500 3803 
L 500 4441 
Q 881 4594 1212 4672 
Q 1544 4750 1819 4750 
Q 2544 4750 2975 4387 
Q 3406 4025 3406 3419 
Q 3406 3131 3298 2873 
Q 3191 2616 2906 2266 
Q 2828 2175 2409 1742 
Q 1991 1309 1228 531 
z
" transform="scale(0.015625)"/>
      <path id="DejaVuSans-3a9" d="M 4647 556 
L 4647 0 
L 2772 0 
L 2772 556 
Q 3325 859 3634 1378 
Q 3944 1897 3944 2528 
Q 3944 3278 3531 3731 
Q 3119 4184 2444 4184 
Q 1769 4184 1355 3729 
Q 941 3275 941 2528 
Q 941 1897 1250 1378 
Q 1563 859 2119 556 
L 2119 0 
L 244 0 
L 244 556 
L 1241 556 
Q 747 991 519 1456 
Q 294 1922 294 2497 
Q 294 3491 894 4106 
Q 1491 4722 2444 4722 
Q 3391 4722 3994 4106 
Q 4594 3494 4594 2528 
Q 4594 1922 4372 1459 
Q 4150 997 3647 556 
L 4647 556 
z
" transform="scale(0.015625)"/>
     </defs>
     <use xlink:href="#DejaVuSans-32"/>
     <use xlink:href="#DejaVuSans-3a9" x="63.623047"/>
    </g>
   </g>
   <g id="text_3">
    <!-- 3H -->
    <g transform="translate(127.792063 86.343125) scale(0.14 -0.14)">
     <defs>
      <path id="DejaVuSans-33" d="M 2597 2516 
Q 3050 2419 3304 2112 
Q 3559 1806 3559 1356 
Q 3559 666 3084 287 
Q 2609 -91 1734 -91 
Q 1441 -91 1130 -33 
Q 819 25 488 141 
L 488 750 
Q 750 597 1062 519 
Q 1375 441 1716 441 
Q 2309 441 2620 675 
Q 2931 909 2931 1356 
Q 2931 1769 2642 2001 
Q 2353 2234 1838 2234 
L 1294 2234 
L 1294 2753 
L 1863 2753 
Q 2328 2753 2575 2939 
Q 2822 3125 2822 3475 
Q 2822 3834 2567 4026 
Q 2313 4219 1838 4219 
Q 1578 4219 1281 4162 
Q 984 4106 628 3988 
L 628 4550 
Q 988 4650 1302 4700 
Q 1616 4750 1894 4750 
Q 2613 4750 3031 4423 
Q 3450 4097 3450 3541 
Q 3450 3153 3228 2886 
Q 3006 2619 2597 2516 
z
" transform="scale(0.015625)"/>
      <path id="DejaVuSans-48" d="M 628 4666 
L 1259 4666 
L 1259 2753 
L 3553 2753 
L 3553 4666 
L 4184 4666 
L 4184 0 
L 3553 0 
L 3553 2222 
L 1259 2222 
L 1259 0 
L 628 0 
L 628 4666 
z
" transform="scale(0.015625)"/>
     </defs>
     <use xlink:href="#DejaVuSans-33"/>
     <use xlink:href="#DejaVuSans-48" x="63.623047"/>
    </g>
   </g>
  </g>
 </g>
 <defs>
  <clipPath id="p077a071bb0">
   <rect x="0" y="0" width="160.007978" height="141.16"/>
  </clipPath>
 </defs>
</svg>