<?xml version="1.0" encoding="utf-8" standalone="no"?>
<!DOCTYPE svg PUBLIC "-//W3C//DTD SVG 1.1//EN"
  "http://www.w3.org/Graphics/SVG/1.1/DTD/svg11.dtd">
<svg xmlns:xlink="http://www.w3.org/1999/xlink" width="200.196pt" height="203pt" viewBox="0 0 200.196 203" xmlns="http://www.w3.org/2000/svg" version="1.1">
 <metadata>
  <rdf:RDF xmlns:dc="http://purl.org/dc/elements/1.1/" xmlns:cc="http://creativecommons.org/ns#" xmlns:rdf="http://www.w3.org/1999/02/22-rdf-syntax-ns#">
   <cc:Work>
    <dc:type rdf:resource="http://purl.org/dc/dcmitype/StillImage"/>
    <dc:date>2025-05-14T19:10:16.208867</dc:date>
    <dc:format>image/svg+xml</dc:format>
    <dc:creator>
     <cc:Agent>
      <dc:title>Matplotlib v3.10.3, https://matplotlib.org/</dc:title>
     </cc:Agent>
    </dc:creator>
   </cc:Work>
  </rdf:RDF>
 </metadata>
 <defs>
  <style type="text/css">*{stroke-linejoin: round; stroke-linecap: butt}</style>
 </defs>
 <g id="figure_1">
  <g id="patch_1">
   <path d="M 0 203 
L 200.196 203 
L 200.196 0 
L 0 0 
z
" style="fill: #ffffff"/>
  </g>
  <g id="axes_1">
   <g id="patch_2">
    <path d="M 43.668 139.28 
C 48.441656 139.28 53.020438 137.383406 56.395922 134.007922 
C 59.771406 130.632438 61.668 126.053656 61.668 121.28 
C 61.668 116.506344 59.771406 111.927562 56.395922 108.552078 
C 53.020438 105.176594 48.441656 103.28 43.668 103.28 
C 38.894344 103.28 34.315562 105.176594 30.940078 108.552078 
C 27.564594 111.927562 25.668 116.506344 25.668 121.28 
C 25.668 126.053656 27.564594 130.632438 30.940078 134.007922 
C 34.315562 137.383406 38.894344 139.28 43.668 139.28 
L 43.668 139.28 
z
" clip-path="url(#p760c4ea91c)" style="fill: none; stroke: #000000; stroke-width: 2; stroke-linejoin: miter"/>
   </g>
   <g id="patch_3">
    <path d="M 160.668 78.98 
L 151.668 91.58 
L 142.668 78.98 
L 160.668 78.98 
z
" clip-path="url(#p760c4ea91c)" style="fill: none; stroke: #000000; stroke-width: 2; stroke-linecap: round"/>
   </g>
   <g id="line2d_1">
    <path d="M 43.668 67.28 
L 43.668 103.28 
L 43.668 103.28 
M 43.668 139.28 
L 43.668 139.28 
L 43.668 175.28 
" clip-path="url(#p760c4ea91c)" style="fill: none; stroke: #000000; stroke-width: 2; stroke-linecap: round"/>
   </g>
   <g id="line2d_2">
    <path d="M 40.068 112.28 
L 47.268 112.28 
" clip-path="url(#p760c4ea91c)" style="fill: none; stroke: #000000; stroke-width: 2; stroke-linecap: round"/>
   </g>
   <g id="line2d_3">
    <path d="M 43.668 126.68 
L 43.668 133.88 
" clip-path="url(#p760c4ea91c)" style="fill: none; stroke: #000000; stroke-width: 2; stroke-linecap: round"/>
   </g>
   <g id="line2d_4">
    <path d="M 40.068 130.28 
L 47.268 130.28 
" clip-path="url(#p760c4ea91c)" style="fill: none; stroke: #000000; stroke-width: 2; stroke-linecap: round"/>
   </g>
   <g id="line2d_5">
    <path d="M 43.668 175.28 
L 43.668 189.68 
L 34.668 189.68 
L 52.668 189.68 
M 37.368 194 
L 49.968 194 
M 41.868 198.32 
L 45.468 198.32 
" clip-path="url(#p760c4ea91c)" style="fill: none; stroke: #000000; stroke-width: 2; stroke-linecap: round"/>
   </g>
   <g id="line2d_6">
    <path d="M 43.668 31.28 
L 79.668 31.28 
L 82.668 22.28 
L 88.668 40.28 
L 94.668 22.28 
L 100.668 40.28 
L 106.668 22.28 
L 112.668 40.28 
L 115.668 31.28 
L 151.668 31.28 
" clip-path="url(#p760c4ea91c)" style="fill: none; stroke: #000000; stroke-width: 2; stroke-linecap: round"/>
   </g>
   <g id="line2d_7">
    <path d="M 151.668 31.28 
L 151.668 78.98 
M 160.668 91.58 
L 142.668 91.58 
M 151.668 91.58 
L 151.668 139.28 
" clip-path="url(#p760c4ea91c)" style="fill: none; stroke: #000000; stroke-width: 2; stroke-linecap: round"/>
   </g>
   <g id="line2d_8">
    <path d="M 151.668 139.28 
L 151.668 153.68 
L 142.668 153.68 
L 160.668 153.68 
M 145.368 158 
L 157.968 158 
M 149.868 162.32 
L 153.468 162.32 
" clip-path="url(#p760c4ea91c)" style="fill: none; stroke: #000000; stroke-width: 2; stroke-linecap: round"/>
   </g>
   <g id="line2d_9">
    <path d="M 43.668 67.28 
L 43.668 49.28 
L 43.668 31.28 
" clip-path="url(#p760c4ea91c)" style="fill: none; stroke: #000000; stroke-width: 2; stroke-linecap: round"/>
   </g>
   <g id="text_1">
    <!-- V1 -->
    <g transform="translate(3.583625 125.143125) scale(0.14 -0.14)">
     <defs>
      <path id="DejaVuSans-56" d="M 1831 0 
L 50 4666 
L 709 4666 
L 2188 738 
L 3669 4666 
L 4325 4666 
L 2547 0 
L 1831 0 
z
" transform="scale(0.015625)"/>
      <path id="DejaVuSans-31" d="M 794 531 
L 1825 531 
L 1825 4091 
L 703 3866 
L 703 4441 
L 1819 4666 
L 2450 4666 
L 2450 531 
L 3481 531 
L 3481 0 
L 794 0 
L 794 531 
z
" transform="scale(0.015625)"/>
     </defs>
     <use xlink:href="#DejaVuSans-56"/>
     <use xlink:href="#DejaVuSans-31" transform="translate(68.408203 0)"/>
    </g>
   </g>
   <g id="text_2">
    <!-- GND -->
    <g transform="translate(56.268 190.663125) scale(0.14 -0.14)">
     <defs>
      <path id="DejaVuSans-47" d="M 3809 666 
L 3809 1919 
L 2778 1919 
L 2778 2438 
L 4434 2438 
L 4434 434 
Q 4069 175 3628 42 
Q 3188 -91 2688 -91 
Q 1594 -91 976 548 
Q 359 1188 359 2328 
Q 359 3472 976 4111 
Q 1594 4750 2688 4750 
Q 3144 4750 3555 4637 
Q 3966 4525 4313 4306 
L 4313 3634 
Q 3963 3931 3569 4081 
Q 3175 4231 2741 4231 
Q 1884 4231 1454 3753 
Q 1025 3275 1025 2328 
Q 1025 1384 1454 906 
Q 1884 428 2741 428 
Q 3075 428 3337 486 
Q 3600 544 3809 666 
z
" transform="scale(0.015625)"/>
      <path id="DejaVuSans-4e" d="M 628 4666 
L 1478 4666 
L 3547 763 
L 3547 4666 
L 4159 4666 
L 4159 0 
L 3309 0 
L 1241 3903 
L 1241 0 
L 628 0 
L 628 4666 
z
" transform="scale(0.015625)"/>
      <path id="DejaVuSans-44" d="M 1259 4147 
L 1259 519 
L 2022 519 
Q 2988 519 3436 956 
Q 3884 1394 3884 2338 
Q 3884 3275 3436 3711 
Q 2988 4147 2022 4147 
L 1259 4147 
z
M 628 4666 
L 1925 4666 
Q 3281 4666 3915 4102 
Q 4550 3538 4550 2338 
Q 4550 1131 3912 565 
Q 3275 0 1925 0 
L 628 0 
L 628 4666 
z
" transform="scale(0.015625)"/>
     </defs>
     <use xlink:href="#DejaVuSans-47"/>
     <use xlink:href="#DejaVuSans-4e" transform="translate(77.490234 0)"/>
     <use xlink:href="#DejaVuSans-44" transform="translate(152.294922 0)"/>
    </g>
   </g>
   <g id="text_3">
    <!-- R1 -->
    <g transform="translate(88.350344 15.768438) scale(0.14 -0.14)">
     <defs>
      <path id="DejaVuSans-52" d="M 2841 2188 
Q 3044 2119 3236 1894 
Q 3428 1669 3622 1275 
L 4263 0 
L 3584 0 
L 2988 1197 
Q 2756 1666 2539 1819 
Q 2322 1972 1947 1972 
L 1259 1972 
L 1259 0 
L 628 0 
L 628 4666 
L 2053 4666 
Q 2853 4666 3247 4331 
Q 3641 3997 3641 3322 
Q 3641 2881 3436 2590 
Q 3231 2300 2841 2188 
z
M 1259 4147 
L 1259 2491 
L 2053 2491 
Q 2509 2491 2742 2702 
Q 2975 2913 2975 3322 
Q 2975 3731 2742 3939 
Q 2509 4147 2053 4147 
L 1259 4147 
z
" transform="scale(0.015625)"/>
     </defs>
     <use xlink:href="#DejaVuSans-52"/>
     <use xlink:href="#DejaVuSans-31" transform="translate(69.482422 0)"/>
    </g>
   </g>
   <g id="text_4">
    <!-- D1 -->
    <g transform="translate(119.3805 89.143125) scale(0.14 -0.14)">
     <use xlink:href="#DejaVuSans-44"/>
     <use xlink:href="#DejaVuSans-31" transform="translate(77.001953 0)"/>
    </g>
   </g>
   <g id="text_5">
    <!-- GND -->
    <g transform="translate(164.268 154.663125) scale(0.14 -0.14)">
     <use xlink:href="#DejaVuSans-47"/>
     <use xlink:href="#DejaVuSans-4e" transform="translate(77.490234 0)"/>
     <use xlink:href="#DejaVuSans-44" transform="translate(152.294922 0)"/>
    </g>
   </g>
   <g id="patch_4">
    <path d="M 43.668 33.98 
C 44.384048 33.98 45.070866 33.695511 45.577188 33.189188 
C 46.083511 32.682866 46.368 31.996048 46.368 31.28 
C 46.368 30.563952 46.083511 29.877134 45.577188 29.370812 
C 45.070866 28.864489 44.384048 28.58 43.668 28.58 
C 42.951952 28.58 42.265134 28.864489 41.758812 29.370812 
C 41.252489 29.877134 40.968 30.563952 40.968 31.28 
C 40.968 31.996048 41.252489 32.682866 41.758812 33.189188 
C 42.265134 33.695511 42.951952 33.98 43.668 33.98 
z
" clip-path="url(#p760c4ea91c)" style="stroke: #000000; stroke-width: 2; stroke-linejoin: miter"/>
   </g>
   <g id="text_6">
    <!-- N_in -->
    <g transform="translate(7.132375 34.948438) scale(0.14 -0.14)">
     <defs>
      <path id="DejaVuSans-5f" d="M 3263 -1063 
L 3263 -1509 
L -63 -1509 
L -63 -1063 
L 3263 -1063 
z
" transform="scale(0.015625)"/>
      <path id="DejaVuSans-69" d="M 603 3500 
L 1178 3500 
L 1178 0 
L 603 0 
L 603 3500 
z
M 603 4863 
L 1178 4863 
L 1178 4134 
L 603 4134 
L 603 4863 
z
" transform="scale(0.015625)"/>
      <path id="DejaVuSans-6e" d="M 3513 2113 
L 3513 0 
L 2938 0 
L 2938 2094 
Q 2938 2591 2744 2837 
Q 2550 3084 2163 3084 
Q 1697 3084 1428 2787 
Q 1159 2491 1159 1978 
L 1159 0 
L 581 0 
L 581 3500 
L 1159 3500 
L 1159 2956 
Q 1366 3272 1645 3428 
Q 1925 3584 2291 3584 
Q 2894 3584 3203 3211 
Q 3513 2838 3513 2113 
z
" transform="scale(0.015625)"/>
     </defs>
     <use xlink:href="#DejaVuSans-4e"/>
     <use xlink:href="#DejaVuSans-5f" transform="translate(74.804688 0)"/>
     <use xlink:href="#DejaVuSans-69" transform="translate(124.804688 0)"/>
     <use xlink:href="#DejaVuSans-6e" transform="translate(152.587891 0)"/>
    </g>
   </g>
   <g id="patch_5">
    <path d="M 151.668 33.98 
C 152.384048 33.98 153.070866 33.695511 153.577188 33.189188 
C 154.083511 32.682866 154.368 31.996048 154.368 31.28 
C 154.368 30.563952 154.083511 29.877134 153.577188 29.370812 
C 153.070866 28.864489 152.384048 28.58 151.668 28.58 
C 150.951952 28.58 150.265134 28.864489 149.758812 29.370812 
C 149.252489 29.877134 148.968 30.563952 148.968 31.28 
C 148.968 31.996048 149.252489 32.682866 149.758812 33.189188 
C 150.265134 33.695511 150.951952 33.98 151.668 33.98 
z
" clip-path="url(#p760c4ea91c)" style="stroke: #000000; stroke-width: 2; stroke-linejoin: miter"/>
   </g>
   <g id="text_7">
    <!-- N_out -->
    <g transform="translate(157.968 34.75375) scale(0.14 -0.14)">
     <defs>
      <path id="DejaVuSans-6f" d="M 1959 3097 
Q 1497 3097 1228 2736 
Q 959 2375 959 1747 
Q 959 1119 1226 758 
Q 1494 397 1959 397 
Q 2419 397 2687 759 
Q 2956 1122 2956 1747 
Q 2956 2369 2687 2733 
Q 2419 3097 1959 3097 
z
M 1959 3584 
Q 2709 3584 3137 3096 
Q 3566 2609 3566 1747 
Q 3566 888 3137 398 
Q 2709 -91 1959 -91 
Q 1206 -91 779 398 
Q 353 888 353 1747 
Q 353 2609 779 3096 
Q 1206 3584 1959 3584 
z
" transform="scale(0.015625)"/>
      <path id="DejaVuSans-75" d="M 544 1381 
L 544 3500 
L 1119 3500 
L 1119 1403 
Q 1119 906 1312 657 
Q 1506 409 1894 409 
Q 2359 409 2629 706 
Q 2900 1003 2900 1516 
L 2900 3500 
L 3475 3500 
L 3475 0 
L 2900 0 
L 2900 538 
Q 2691 219 2414 64 
Q 2138 -91 1772 -91 
Q 1169 -91 856 284 
Q 544 659 544 1381 
z
M 1991 3584 
L 1991 3584 
z
" transform="scale(0.015625)"/>
      <path id="DejaVuSans-74" d="M 1172 4494 
L 1172 3500 
L 2356 3500 
L 2356 3053 
L 1172 3053 
L 1172 1153 
Q 1172 725 1289 603 
Q 1406 481 1766 481 
L 2356 481 
L 2356 0 
L 1766 0 
Q 1100 0 847 248 
Q 594 497 594 1153 
L 594 3053 
L 172 3053 
L 172 3500 
L 594 3500 
L 594 4494 
L 1172 4494 
z
" transform="scale(0.015625)"/>
     </defs>
     <use xlink:href="#DejaVuSans-4e"/>
     <use xlink:href="#DejaVuSans-5f" transform="translate(74.804688 0)"/>
     <use xlink:href="#DejaVuSans-6f" transform="translate(124.804688 0)"/>
     <use xlink:href="#DejaVuSans-75" transform="translate(185.986328 0)"/>
     <use xlink:href="#DejaVuSans-74" transform="translate(249.365234 0)"/>
    </g>
   </g>
  </g>
 </g>
 <defs>
  <clipPath id="p760c4ea91c">
   <rect x="0" y="-0" width="200.196" height="203"/>
  </clipPath>
 </defs>
</svg>