<?xml version="1.0" encoding="utf-8" standalone="no"?>
<!DOCTYPE svg PUBLIC "-//W3C//DTD SVG 1.1//EN"
  "http://www.w3.org/Graphics/SVG/1.1/DTD/svg11.dtd">
<svg xmlns:xlink="http://www.w3.org/1999/xlink" width="483.672pt" height="164.2pt" viewBox="0 0 483.672 164.2" xmlns="http://www.w3.org/2000/svg" version="1.1">
 <metadata>
  <rdf:RDF xmlns:dc="http://purl.org/dc/elements/1.1/" xmlns:cc="http://creativecommons.org/ns#" xmlns:rdf="http://www.w3.org/1999/02/22-rdf-syntax-ns#">
   <cc:Work>
    <dc:type rdf:resource="http://purl.org/dc/dcmitype/StillImage"/>
    <dc:date>2024-12-22T10:09:59.710407</dc:date>
    <dc:format>image/svg+xml</dc:format>
    <dc:creator>
     <cc:Agent>
      <dc:title>Matplotlib v3.9.2, https://matplotlib.org/</dc:title>
     </cc:Agent>
    </dc:creator>
   </cc:Work>
  </rdf:RDF>
 </metadata>
 <defs>
  <style type="text/css">*{stroke-linejoin: round; stroke-linecap: butt}</style>
 </defs>
 <g id="figure_1">
  <g id="patch_1">
   <path d="M 0 164.2 
L 483.672 164.2 
L 483.672 0 
L 0 0 
z
" style="fill: #ffffff"/>
  </g>
  <g id="axes_1">
   <g id="patch_2">
    <path d="M 136.992 100.48 
C 141.765656 100.48 146.344438 98.583406 149.719922 95.207922 
C 153.095406 91.832438 154.992 87.253656 154.992 82.48 
C 154.992 77.706344 153.095406 73.127562 149.719922 69.752078 
C 146.344438 66.376594 141.765656 64.48 136.992 64.48 
C 132.218344 64.48 127.639562 66.376594 124.264078 69.752078 
C 120.888594 73.127562 118.992 77.706344 118.992 82.48 
C 118.992 87.253656 120.888594 91.832438 124.264078 95.207922 
C 127.639562 98.583406 132.218344 100.48 136.992 100.48 
L 136.992 100.48 
z
" clip-path="url(#pb30c5d0d3d)" style="fill: none; stroke: #000000; stroke-width: 2; stroke-linejoin: miter"/>
   </g>
   <g id="patch_3">
    <path d="M 289.992 28.48 
C 289.992 27.286984 289.517571 26.14161 288.673981 25.298019 
C 287.83039 24.454429 286.685016 23.98 285.492 23.98 
C 284.298984 23.98 283.15361 24.454429 282.310019 25.298019 
C 281.466429 26.14161 280.992 27.286984 280.992 28.48 
" clip-path="url(#pb30c5d0d3d)" style="fill: none; stroke: #000000; stroke-width: 2; stroke-linejoin: miter"/>
   </g>
   <g id="patch_4">
    <path d="M 298.992 28.48 
C 298.992 27.286984 298.517571 26.14161 297.673981 25.298019 
C 296.83039 24.454429 295.685016 23.98 294.492 23.98 
C 293.298984 23.98 292.15361 24.454429 291.310019 25.298019 
C 290.466429 26.14161 289.992 27.286984 289.992 28.48 
" clip-path="url(#pb30c5d0d3d)" style="fill: none; stroke: #000000; stroke-width: 2; stroke-linejoin: miter"/>
   </g>
   <g id="patch_5">
    <path d="M 307.992 28.48 
C 307.992 27.286984 307.517571 26.14161 306.673981 25.298019 
C 305.83039 24.454429 304.685016 23.98 303.492 23.98 
C 302.298984 23.98 301.15361 24.454429 300.310019 25.298019 
C 299.466429 26.14161 298.992 27.286984 298.992 28.48 
" clip-path="url(#pb30c5d0d3d)" style="fill: none; stroke: #000000; stroke-width: 2; stroke-linejoin: miter"/>
   </g>
   <g id="patch_6">
    <path d="M 316.992 28.48 
C 316.992 27.286984 316.517571 26.14161 315.673981 25.298019 
C 314.83039 24.454429 313.685016 23.98 312.492 23.98 
C 311.298984 23.98 310.15361 24.454429 309.310019 25.298019 
C 308.466429 26.14161 307.992 27.286984 307.992 28.48 
" clip-path="url(#pb30c5d0d3d)" style="fill: none; stroke: #000000; stroke-width: 2; stroke-linejoin: miter"/>
   </g>
   <g id="line2d_1">
    <path d="M 136.992 136.48 
L 136.992 150.88 
L 127.992 150.88 
L 145.992 150.88 
M 130.692 155.2 
L 143.292 155.2 
M 135.192 159.52 
L 138.792 159.52 
" clip-path="url(#pb30c5d0d3d)" style="fill: none; stroke: #000000; stroke-width: 2; stroke-linecap: round"/>
   </g>
   <g id="line2d_2">
    <path d="M 136.992 136.48 
L 136.992 100.48 
L 136.992 100.48 
M 136.992 64.48 
L 136.992 64.48 
L 136.992 28.48 
" clip-path="url(#pb30c5d0d3d)" style="fill: none; stroke: #000000; stroke-width: 2; stroke-linecap: round"/>
   </g>
   <g id="line2d_3">
    <path d="M 136.992 91.48 
L 136.992 82.48 
" clip-path="url(#pb30c5d0d3d)" style="fill: none; stroke: #000000; stroke-width: 2; stroke-linecap: round"/>
   </g>
   <g id="patch_7">
    <path d="M 134.292 82.48 
L 136.992 73.48 
L 139.692 82.48 
z
" clip-path="url(#pb30c5d0d3d)"/>
   </g>
   <g id="line2d_4">
    <path d="M 136.992 28.48 
L 172.992 28.48 
L 175.992 19.48 
L 181.992 37.48 
L 187.992 19.48 
L 193.992 37.48 
L 199.992 19.48 
L 205.992 37.48 
L 208.992 28.48 
L 244.992 28.48 
" clip-path="url(#pb30c5d0d3d)" style="fill: none; stroke: #000000; stroke-width: 2; stroke-linecap: round"/>
   </g>
   <g id="line2d_5">
    <path d="M 244.992 28.48 
L 244.992 79.24 
M 253.992 79.24 
L 235.992 79.24 
M 253.992 85.72 
L 235.992 85.72 
M 244.992 85.72 
L 244.992 136.48 
" clip-path="url(#pb30c5d0d3d)" style="fill: none; stroke: #000000; stroke-width: 2; stroke-linecap: round"/>
   </g>
   <g id="line2d_6">
    <path d="M 244.992 136.48 
L 244.992 150.88 
L 235.992 150.88 
L 253.992 150.88 
M 238.692 155.2 
L 251.292 155.2 
M 243.192 159.52 
L 246.792 159.52 
" clip-path="url(#pb30c5d0d3d)" style="fill: none; stroke: #000000; stroke-width: 2; stroke-linecap: round"/>
   </g>
   <g id="line2d_7">
    <path d="M 244.992 28.48 
L 280.992 28.48 
M 316.992 28.48 
L 352.992 28.48 
" clip-path="url(#pb30c5d0d3d)" style="fill: none; stroke: #000000; stroke-width: 2; stroke-linecap: round"/>
   </g>
   <g id="line2d_8">
    <path d="M 352.992 28.48 
L 352.992 79.24 
M 361.992 79.24 
L 343.992 79.24 
M 361.992 85.72 
L 343.992 85.72 
M 352.992 85.72 
L 352.992 136.48 
" clip-path="url(#pb30c5d0d3d)" style="fill: none; stroke: #000000; stroke-width: 2; stroke-linecap: round"/>
   </g>
   <g id="line2d_9">
    <path d="M 352.992 136.48 
L 352.992 150.88 
L 343.992 150.88 
L 361.992 150.88 
M 346.692 155.2 
L 359.292 155.2 
M 351.192 159.52 
L 354.792 159.52 
" clip-path="url(#pb30c5d0d3d)" style="fill: none; stroke: #000000; stroke-width: 2; stroke-linecap: round"/>
   </g>
   <g id="line2d_10">
    <path d="M 352.992 28.48 
L 406.992 28.48 
L 460.992 28.48 
" clip-path="url(#pb30c5d0d3d)" style="fill: none; stroke: #000000; stroke-width: 2; stroke-linecap: round"/>
   </g>
   <g id="line2d_11">
    <path d="M 460.992 28.48 
L 460.992 64.48 
L 478.992 82.48 
L 460.992 100.48 
L 442.992 82.48 
L 460.992 64.48 
M 460.992 100.48 
L 460.992 136.48 
" clip-path="url(#pb30c5d0d3d)" style="fill: none; stroke: #000000; stroke-width: 2; stroke-linecap: round"/>
   </g>
   <g id="line2d_12">
    <path d="M 460.992 73.48 
L 460.992 82.48 
" clip-path="url(#pb30c5d0d3d)" style="fill: none; stroke: #000000; stroke-width: 2; stroke-linecap: round"/>
   </g>
   <g id="patch_8">
    <path d="M 463.692 82.48 
L 460.992 91.48 
L 458.292 82.48 
z
" clip-path="url(#pb30c5d0d3d)"/>
   </g>
   <g id="line2d_13">
    <path d="M 460.992 136.48 
L 460.992 150.88 
L 451.992 150.88 
L 469.992 150.88 
M 454.692 155.2 
L 467.292 155.2 
M 459.192 159.52 
L 462.792 159.52 
" clip-path="url(#pb30c5d0d3d)" style="fill: none; stroke: #000000; stroke-width: 2; stroke-linecap: round"/>
   </g>
   <g id="text_1">
    <!-- $\frac{0.1}{s + 3} A$ -->
    <g transform="translate(80.672 86.4) scale(0.14 -0.14)">
     <defs>
      <path id="DejaVuSans-30" d="M 2034 4250 
Q 1547 4250 1301 3770 
Q 1056 3291 1056 2328 
Q 1056 1369 1301 889 
Q 1547 409 2034 409 
Q 2525 409 2770 889 
Q 3016 1369 3016 2328 
Q 3016 3291 2770 3770 
Q 2525 4250 2034 4250 
z
M 2034 4750 
Q 2819 4750 3233 4129 
Q 3647 3509 3647 2328 
Q 3647 1150 3233 529 
Q 2819 -91 2034 -91 
Q 1250 -91 836 529 
Q 422 1150 422 2328 
Q 422 3509 836 4129 
Q 1250 4750 2034 4750 
z
" transform="scale(0.015625)"/>
      <path id="DejaVuSans-2e" d="M 684 794 
L 1344 794 
L 1344 0 
L 684 0 
L 684 794 
z
" transform="scale(0.015625)"/>
      <path id="DejaVuSans-31" d="M 794 531 
L 1825 531 
L 1825 4091 
L 703 3866 
L 703 4441 
L 1819 4666 
L 2450 4666 
L 2450 531 
L 3481 531 
L 3481 0 
L 794 0 
L 794 531 
z
" transform="scale(0.015625)"/>
      <path id="DejaVuSans-Oblique-73" d="M 3200 3397 
L 3091 2853 
Q 2863 2978 2609 3040 
Q 2356 3103 2088 3103 
Q 1634 3103 1373 2948 
Q 1113 2794 1113 2528 
Q 1113 2219 1719 2053 
Q 1766 2041 1788 2034 
L 1972 1978 
Q 2547 1819 2739 1644 
Q 2931 1469 2931 1166 
Q 2931 609 2489 259 
Q 2047 -91 1331 -91 
Q 1053 -91 747 -37 
Q 441 16 72 128 
L 184 722 
Q 500 559 806 475 
Q 1113 391 1394 391 
Q 1816 391 2080 572 
Q 2344 753 2344 1031 
Q 2344 1331 1650 1516 
L 1591 1531 
L 1394 1581 
Q 956 1697 753 1886 
Q 550 2075 550 2369 
Q 550 2928 970 3256 
Q 1391 3584 2113 3584 
Q 2397 3584 2667 3537 
Q 2938 3491 3200 3397 
z
" transform="scale(0.015625)"/>
      <path id="DejaVuSans-2b" d="M 2944 4013 
L 2944 2272 
L 4684 2272 
L 4684 1741 
L 2944 1741 
L 2944 0 
L 2419 0 
L 2419 1741 
L 678 1741 
L 678 2272 
L 2419 2272 
L 2419 4013 
L 2944 4013 
z
" transform="scale(0.015625)"/>
      <path id="DejaVuSans-33" d="M 2597 2516 
Q 3050 2419 3304 2112 
Q 3559 1806 3559 1356 
Q 3559 666 3084 287 
Q 2609 -91 1734 -91 
Q 1441 -91 1130 -33 
Q 819 25 488 141 
L 488 750 
Q 750 597 1062 519 
Q 1375 441 1716 441 
Q 2309 441 2620 675 
Q 2931 909 2931 1356 
Q 2931 1769 2642 2001 
Q 2353 2234 1838 2234 
L 1294 2234 
L 1294 2753 
L 1863 2753 
Q 2328 2753 2575 2939 
Q 2822 3125 2822 3475 
Q 2822 3834 2567 4026 
Q 2313 4219 1838 4219 
Q 1578 4219 1281 4162 
Q 984 4106 628 3988 
L 628 4550 
Q 988 4650 1302 4700 
Q 1616 4750 1894 4750 
Q 2613 4750 3031 4423 
Q 3450 4097 3450 3541 
Q 3450 3153 3228 2886 
Q 3006 2619 2597 2516 
z
" transform="scale(0.015625)"/>
      <path id="DejaVuSans-Oblique-41" d="M 2356 4666 
L 3072 4666 
L 3938 0 
L 3278 0 
L 3084 1197 
L 984 1197 
L 325 0 
L -341 0 
L 2356 4666 
z
M 2584 4044 
L 1275 1722 
L 2988 1722 
L 2584 4044 
z
" transform="scale(0.015625)"/>
     </defs>
     <use xlink:href="#DejaVuSans-30" transform="translate(28 45.046875) scale(0.7)"/>
     <use xlink:href="#DejaVuSans-2e" transform="translate(72.536133 45.046875) scale(0.7)"/>
     <use xlink:href="#DejaVuSans-31" transform="translate(94.787109 45.046875) scale(0.7)"/>
     <use xlink:href="#DejaVuSans-Oblique-73" transform="translate(0 -39.151563) scale(0.7)"/>
     <use xlink:href="#DejaVuSans-2b" transform="translate(50.107422 -39.151563) scale(0.7)"/>
     <use xlink:href="#DejaVuSans-33" transform="translate(122.397461 -39.151563) scale(0.7)"/>
     <use xlink:href="#DejaVuSans-Oblique-41" transform="translate(179.433594 0.254687)"/>
     <path d="M 0 19.051563 
L 0 25.301563 
L 166.933594 25.301563 
L 166.933594 19.051563 
L 0 19.051563 
z
"/>
    </g>
   </g>
   <g id="text_2">
    <!-- $100 \Omega$ -->
    <g transform="translate(172.232 12.968437) scale(0.14 -0.14)">
     <defs>
      <path id="DejaVuSans-3a9" d="M 4647 556 
L 4647 0 
L 2772 0 
L 2772 556 
Q 3325 859 3634 1378 
Q 3944 1897 3944 2528 
Q 3944 3278 3531 3731 
Q 3119 4184 2444 4184 
Q 1769 4184 1355 3729 
Q 941 3275 941 2528 
Q 941 1897 1250 1378 
Q 1563 859 2119 556 
L 2119 0 
L 244 0 
L 244 556 
L 1241 556 
Q 747 991 519 1456 
Q 294 1922 294 2497 
Q 294 3491 894 4106 
Q 1491 4722 2444 4722 
Q 3391 4722 3994 4106 
Q 4594 3494 4594 2528 
Q 4594 1922 4372 1459 
Q 4150 997 3647 556 
L 4647 556 
z
" transform="scale(0.015625)"/>
     </defs>
     <use xlink:href="#DejaVuSans-31" transform="translate(0 0.78125)"/>
     <use xlink:href="#DejaVuSans-30" transform="translate(63.623047 0.78125)"/>
     <use xlink:href="#DejaVuSans-30" transform="translate(127.246094 0.78125)"/>
     <use xlink:href="#DejaVuSans-3a9" transform="translate(190.869141 0.78125)"/>
    </g>
   </g>
   <g id="text_3">
    <!-- $\frac{7}{s} \Omega$ -->
    <g transform="translate(213.632 87.17) scale(0.14 -0.14)">
     <defs>
      <path id="DejaVuSans-37" d="M 525 4666 
L 3525 4666 
L 3525 4397 
L 1831 0 
L 1172 0 
L 2766 4134 
L 525 4134 
L 525 4666 
z
" transform="scale(0.015625)"/>
     </defs>
     <use xlink:href="#DejaVuSans-37" transform="translate(0 43.965625) scale(0.7)"/>
     <use xlink:href="#DejaVuSans-Oblique-73" transform="translate(4 -26.484375) scale(0.7)"/>
     <use xlink:href="#DejaVuSans-3a9" transform="translate(57.036133 0.16875)"/>
     <path d="M 0 18.965625 
L 0 25.215625 
L 44.536133 25.215625 
L 44.536133 18.965625 
L 0 18.965625 
z
"/>
    </g>
   </g>
   <g id="text_4">
    <!-- $6s \Omega$ -->
    <g transform="translate(285.482 17.46846) scale(0.14 -0.14)">
     <defs>
      <path id="DejaVuSans-36" d="M 2113 2584 
Q 1688 2584 1439 2293 
Q 1191 2003 1191 1497 
Q 1191 994 1439 701 
Q 1688 409 2113 409 
Q 2538 409 2786 701 
Q 3034 994 3034 1497 
Q 3034 2003 2786 2293 
Q 2538 2584 2113 2584 
z
M 3366 4563 
L 3366 3988 
Q 3128 4100 2886 4159 
Q 2644 4219 2406 4219 
Q 1781 4219 1451 3797 
Q 1122 3375 1075 2522 
Q 1259 2794 1537 2939 
Q 1816 3084 2150 3084 
Q 2853 3084 3261 2657 
Q 3669 2231 3669 1497 
Q 3669 778 3244 343 
Q 2819 -91 2113 -91 
Q 1303 -91 875 529 
Q 447 1150 447 2328 
Q 447 3434 972 4092 
Q 1497 4750 2381 4750 
Q 2619 4750 2861 4703 
Q 3103 4656 3366 4563 
z
" transform="scale(0.015625)"/>
     </defs>
     <use xlink:href="#DejaVuSans-36" transform="translate(0 0.78125)"/>
     <use xlink:href="#DejaVuSans-Oblique-73" transform="translate(63.623047 0.78125)"/>
     <use xlink:href="#DejaVuSans-3a9" transform="translate(115.722656 0.78125)"/>
    </g>
   </g>
   <g id="text_5">
    <!-- $\frac{2}{s} \Omega$ -->
    <g transform="translate(321.632 87.24) scale(0.14 -0.14)">
     <defs>
      <path id="DejaVuSans-32" d="M 1228 531 
L 3431 531 
L 3431 0 
L 469 0 
L 469 531 
Q 828 903 1448 1529 
Q 2069 2156 2228 2338 
Q 2531 2678 2651 2914 
Q 2772 3150 2772 3378 
Q 2772 3750 2511 3984 
Q 2250 4219 1831 4219 
Q 1534 4219 1204 4116 
Q 875 4013 500 3803 
L 500 4441 
Q 881 4594 1212 4672 
Q 1544 4750 1819 4750 
Q 2544 4750 2975 4387 
Q 3406 4025 3406 3419 
Q 3406 3131 3298 2873 
Q 3191 2616 2906 2266 
Q 2828 2175 2409 1742 
Q 1991 1309 1228 531 
z
" transform="scale(0.015625)"/>
     </defs>
     <use xlink:href="#DejaVuSans-32" transform="translate(0 44.046875) scale(0.7)"/>
     <use xlink:href="#DejaVuSans-Oblique-73" transform="translate(4 -26.403125) scale(0.7)"/>
     <use xlink:href="#DejaVuSans-3a9" transform="translate(57.036133 0.25)"/>
     <path d="M 0 19.046875 
L 0 25.296875 
L 44.536133 25.296875 
L 44.536133 19.046875 
L 0 19.046875 
z
"/>
    </g>
   </g>
   <g id="text_6">
    <!-- $0.2V_2$ -->
    <g transform="translate(401.592 86.343125) scale(0.14 -0.14)">
     <defs>
      <path id="DejaVuSans-Oblique-56" d="M 1319 0 
L 500 4666 
L 1119 4666 
L 1797 653 
L 4063 4666 
L 4750 4666 
L 2053 0 
L 1319 0 
z
" transform="scale(0.015625)"/>
     </defs>
     <use xlink:href="#DejaVuSans-30" transform="translate(0 0.78125)"/>
     <use xlink:href="#DejaVuSans-2e" transform="translate(63.623047 0.78125)"/>
     <use xlink:href="#DejaVuSans-32" transform="translate(89.910156 0.78125)"/>
     <use xlink:href="#DejaVuSans-Oblique-56" transform="translate(153.533203 0.78125)"/>
     <use xlink:href="#DejaVuSans-32" transform="translate(221.941406 -15.625) scale(0.7)"/>
    </g>
   </g>
   <g id="patch_9">
    <path d="M 136.992 31.18 
C 137.708048 31.18 138.394866 30.895511 138.901188 30.389188 
C 139.407511 29.882866 139.692 29.196048 139.692 28.48 
C 139.692 27.763952 139.407511 27.077134 138.901188 26.570812 
C 138.394866 26.064489 137.708048 25.78 136.992 25.78 
C 136.275952 25.78 135.589134 26.064489 135.082812 26.570812 
C 134.576489 27.077134 134.292 27.763952 134.292 28.48 
C 134.292 29.196048 134.576489 29.882866 135.082812 30.389188 
C 135.589134 30.895511 136.275952 31.18 136.992 31.18 
z
" clip-path="url(#pb30c5d0d3d)" style="stroke: #000000; stroke-width: 2; stroke-linejoin: miter"/>
   </g>
   <g id="text_7">
    <!-- $V_1$ -->
    <g transform="translate(128.872 19.268438) scale(0.14 -0.14)">
     <use xlink:href="#DejaVuSans-Oblique-56" transform="translate(0 0.09375)"/>
     <use xlink:href="#DejaVuSans-31" transform="translate(68.408203 -16.3125) scale(0.7)"/>
    </g>
   </g>
   <g id="patch_10">
    <path d="M 244.992 31.18 
C 245.708048 31.18 246.394866 30.895511 246.901188 30.389188 
C 247.407511 29.882866 247.692 29.196048 247.692 28.48 
C 247.692 27.763952 247.407511 27.077134 246.901188 26.570812 
C 246.394866 26.064489 245.708048 25.78 244.992 25.78 
C 244.275952 25.78 243.589134 26.064489 243.082812 26.570812 
C 242.576489 27.077134 242.292 27.763952 242.292 28.48 
C 242.292 29.196048 242.576489 29.882866 243.082812 30.389188 
C 243.589134 30.895511 244.275952 31.18 244.992 31.18 
z
" clip-path="url(#pb30c5d0d3d)" style="stroke: #000000; stroke-width: 2; stroke-linejoin: miter"/>
   </g>
   <g id="text_8">
    <!-- $V_2$ -->
    <g transform="translate(236.872 19.268438) scale(0.14 -0.14)">
     <use xlink:href="#DejaVuSans-Oblique-56" transform="translate(0 0.09375)"/>
     <use xlink:href="#DejaVuSans-32" transform="translate(68.408203 -16.3125) scale(0.7)"/>
    </g>
   </g>
   <g id="patch_11">
    <path d="M 352.992 31.18 
C 353.708048 31.18 354.394866 30.895511 354.901188 30.389188 
C 355.407511 29.882866 355.692 29.196048 355.692 28.48 
C 355.692 27.763952 355.407511 27.077134 354.901188 26.570812 
C 354.394866 26.064489 353.708048 25.78 352.992 25.78 
C 352.275952 25.78 351.589134 26.064489 351.082812 26.570812 
C 350.576489 27.077134 350.292 27.763952 350.292 28.48 
C 350.292 29.196048 350.576489 29.882866 351.082812 30.389188 
C 351.589134 30.895511 352.275952 31.18 352.992 31.18 
z
" clip-path="url(#pb30c5d0d3d)" style="stroke: #000000; stroke-width: 2; stroke-linejoin: miter"/>
   </g>
   <g id="text_9">
    <!-- $V_3$ -->
    <g transform="translate(344.872 19.268438) scale(0.14 -0.14)">
     <use xlink:href="#DejaVuSans-Oblique-56" transform="translate(0 0.09375)"/>
     <use xlink:href="#DejaVuSans-33" transform="translate(68.408203 -16.3125) scale(0.7)"/>
    </g>
   </g>
  </g>
 </g>
 <defs>
  <clipPath id="pb30c5d0d3d">
   <rect x="0" y="-0" width="483.672" height="164.2"/>
  </clipPath>
 </defs>
</svg>