<?xml version="1.0" encoding="utf-8" standalone="no"?>
<!DOCTYPE svg PUBLIC "-//W3C//DTD SVG 1.1//EN"
  "http://www.w3.org/Graphics/SVG/1.1/DTD/svg11.dtd">
<svg xmlns:xlink="http://www.w3.org/1999/xlink" width="190.296pt" height="143.96pt" viewBox="0 0 190.296 143.96" xmlns="http://www.w3.org/2000/svg" version="1.1">
 <metadata>
  <rdf:RDF xmlns:dc="http://purl.org/dc/elements/1.1/" xmlns:cc="http://creativecommons.org/ns#" xmlns:rdf="http://www.w3.org/1999/02/22-rdf-syntax-ns#">
   <cc:Work>
    <dc:type rdf:resource="http://purl.org/dc/dcmitype/StillImage"/>
    <dc:date>2025-05-14T19:09:02.970354</dc:date>
    <dc:format>image/svg+xml</dc:format>
    <dc:creator>
     <cc:Agent>
      <dc:title>Matplotlib v3.10.3, https://matplotlib.org/</dc:title>
     </cc:Agent>
    </dc:creator>
   </cc:Work>
  </rdf:RDF>
 </metadata>
 <defs>
  <style type="text/css">*{stroke-linejoin: round; stroke-linecap: butt}</style>
 </defs>
 <g id="figure_1">
  <g id="patch_1">
   <path d="M 0 143.96 
L 190.296 143.96 
L 190.296 0 
L 0 0 
z
" style="fill: #ffffff"/>
  </g>
  <g id="axes_1">
   <g id="patch_2">
    <path d="M 68.616 103.28 
C 73.389656 103.28 77.968438 101.383406 81.343922 98.007922 
C 84.719406 94.632438 86.616 90.053656 86.616 85.28 
C 86.616 80.506344 84.719406 75.927562 81.343922 72.552078 
C 77.968438 69.176594 73.389656 67.28 68.616 67.28 
C 63.842344 67.28 59.263562 69.176594 55.888078 72.552078 
C 52.512594 75.927562 50.616 80.506344 50.616 85.28 
C 50.616 90.053656 52.512594 94.632438 55.888078 98.007922 
C 59.263562 101.383406 63.842344 103.28 68.616 103.28 
L 68.616 103.28 
z
" clip-path="url(#p10de508dc5)" style="fill: none; stroke: #000000; stroke-width: 2; stroke-linejoin: miter"/>
   </g>
   <g id="line2d_1">
    <path d="M 68.616 139.28 
L 68.616 103.28 
L 68.616 103.28 
M 68.616 67.28 
L 68.616 67.28 
L 68.616 31.28 
" clip-path="url(#p10de508dc5)" style="fill: none; stroke: #000000; stroke-width: 2; stroke-linecap: round"/>
   </g>
   <g id="line2d_2">
    <path d="M 77.616 85.28 
L 76.866 83.416503 
L 76.116 81.68 
L 75.366 80.188831 
L 74.616 79.044617 
L 73.866 78.325334 
L 73.116 78.08 
L 72.366 78.325334 
L 71.616 79.044617 
L 70.866 80.188831 
L 70.116 81.68 
L 69.366 83.416503 
L 68.616 85.28 
L 67.866 87.143497 
L 67.116 88.88 
L 66.366 90.371169 
L 65.616 91.515383 
L 64.866 92.234666 
L 64.116 92.48 
L 63.366 92.234666 
L 62.616 91.515383 
L 61.866 90.371169 
L 61.116 88.88 
L 60.366 87.143497 
L 59.616 85.28 
" clip-path="url(#p10de508dc5)" style="fill: none; stroke: #000000; stroke-width: 2; stroke-linecap: round"/>
   </g>
   <g id="line2d_3">
    <path d="M 68.616 31.28 
L 104.616 31.28 
L 107.616 22.28 
L 113.616 40.28 
L 119.616 22.28 
L 125.616 40.28 
L 131.616 22.28 
L 137.616 40.28 
L 140.616 31.28 
L 176.616 31.28 
" clip-path="url(#p10de508dc5)" style="fill: none; stroke: #000000; stroke-width: 2; stroke-linecap: round"/>
   </g>
   <g id="line2d_4">
    <path d="M 176.616 31.28 
L 176.616 82.04 
M 185.616 82.04 
L 167.616 82.04 
M 185.616 88.52 
L 167.616 88.52 
M 176.616 88.52 
L 176.616 139.28 
" clip-path="url(#p10de508dc5)" style="fill: none; stroke: #000000; stroke-width: 2; stroke-linecap: round"/>
   </g>
   <g id="line2d_5">
    <path d="M 176.616 139.28 
L 122.616 139.28 
L 68.616 139.28 
" clip-path="url(#p10de508dc5)" style="fill: none; stroke: #000000; stroke-width: 2; stroke-linecap: round"/>
   </g>
   <g id="text_1">
    <!-- 1 ∠ 0° -->
    <g transform="translate(0.750375 89.143125) scale(0.14 -0.14)">
     <defs>
      <path id="DejaVuSans-31" d="M 794 531 
L 1825 531 
L 1825 4091 
L 703 3866 
L 703 4441 
L 1819 4666 
L 2450 4666 
L 2450 531 
L 3481 531 
L 3481 0 
L 794 0 
L 794 531 
z
" transform="scale(0.015625)"/>
      <path id="DejaVuSans-20" transform="scale(0.015625)"/>
      <path id="DejaVuSans-2220" d="M 5028 631 
L 5028 0 
L 547 0 
L 3525 4666 
L 4281 4666 
L 1716 631 
L 5028 631 
z
" transform="scale(0.015625)"/>
      <path id="DejaVuSans-30" d="M 2034 4250 
Q 1547 4250 1301 3770 
Q 1056 3291 1056 2328 
Q 1056 1369 1301 889 
Q 1547 409 2034 409 
Q 2525 409 2770 889 
Q 3016 1369 3016 2328 
Q 3016 3291 2770 3770 
Q 2525 4250 2034 4250 
z
M 2034 4750 
Q 2819 4750 3233 4129 
Q 3647 3509 3647 2328 
Q 3647 1150 3233 529 
Q 2819 -91 2034 -91 
Q 1250 -91 836 529 
Q 422 1150 422 2328 
Q 422 3509 836 4129 
Q 1250 4750 2034 4750 
z
" transform="scale(0.015625)"/>
      <path id="DejaVuSans-b0" d="M 1600 4347 
Q 1350 4347 1178 4173 
Q 1006 4000 1006 3750 
Q 1006 3503 1178 3333 
Q 1350 3163 1600 3163 
Q 1850 3163 2022 3333 
Q 2194 3503 2194 3750 
Q 2194 3997 2020 4172 
Q 1847 4347 1600 4347 
z
M 1600 4750 
Q 1800 4750 1984 4673 
Q 2169 4597 2303 4453 
Q 2447 4313 2519 4134 
Q 2591 3956 2591 3750 
Q 2591 3338 2302 3052 
Q 2013 2766 1594 2766 
Q 1172 2766 890 3047 
Q 609 3328 609 3750 
Q 609 4169 896 4459 
Q 1184 4750 1600 4750 
z
" transform="scale(0.015625)"/>
     </defs>
     <use xlink:href="#DejaVuSans-31"/>
     <use xlink:href="#DejaVuSans-20" transform="translate(63.623047 0)"/>
     <use xlink:href="#DejaVuSans-2220" transform="translate(95.410156 0)"/>
     <use xlink:href="#DejaVuSans-20" transform="translate(185.058594 0)"/>
     <use xlink:href="#DejaVuSans-30" transform="translate(216.845703 0)"/>
     <use xlink:href="#DejaVuSans-b0" transform="translate(280.46875 0)"/>
    </g>
   </g>
   <g id="text_2">
    <!-- 2Ω -->
    <g transform="translate(112.812719 15.768437) scale(0.14 -0.14)">
     <defs>
      <path id="DejaVuSans-32" d="M 1228 531 
L 3431 531 
L 3431 0 
L 469 0 
L 469 531 
Q 828 903 1448 1529 
Q 2069 2156 2228 2338 
Q 2531 2678 2651 2914 
Q 2772 3150 2772 3378 
Q 2772 3750 2511 3984 
Q 2250 4219 1831 4219 
Q 1534 4219 1204 4116 
Q 875 4013 500 3803 
L 500 4441 
Q 881 4594 1212 4672 
Q 1544 4750 1819 4750 
Q 2544 4750 2975 4387 
Q 3406 4025 3406 3419 
Q 3406 3131 3298 2873 
Q 3191 2616 2906 2266 
Q 2828 2175 2409 1742 
Q 1991 1309 1228 531 
z
" transform="scale(0.015625)"/>
      <path id="DejaVuSans-3a9" d="M 4647 556 
L 4647 0 
L 2772 0 
L 2772 556 
Q 3325 859 3634 1378 
Q 3944 1897 3944 2528 
Q 3944 3278 3531 3731 
Q 3119 4184 2444 4184 
Q 1769 4184 1355 3729 
Q 941 3275 941 2528 
Q 941 1897 1250 1378 
Q 1563 859 2119 556 
L 2119 0 
L 244 0 
L 244 556 
L 1241 556 
Q 747 991 519 1456 
Q 294 1922 294 2497 
Q 294 3491 894 4106 
Q 1491 4722 2444 4722 
Q 3391 4722 3994 4106 
Q 4594 3494 4594 2528 
Q 4594 1922 4372 1459 
Q 4150 997 3647 556 
L 4647 556 
z
" transform="scale(0.015625)"/>
     </defs>
     <use xlink:href="#DejaVuSans-32"/>
     <use xlink:href="#DejaVuSans-3a9" transform="translate(63.623047 0)"/>
    </g>
   </g>
   <g id="text_3">
    <!-- 1/jw -->
    <g transform="translate(135.0535 89.143125) scale(0.14 -0.14)">
     <defs>
      <path id="DejaVuSans-2f" d="M 1625 4666 
L 2156 4666 
L 531 -594 
L 0 -594 
L 1625 4666 
z
" transform="scale(0.015625)"/>
      <path id="DejaVuSans-6a" d="M 603 3500 
L 1178 3500 
L 1178 -63 
Q 1178 -731 923 -1031 
Q 669 -1331 103 -1331 
L -116 -1331 
L -116 -844 
L 38 -844 
Q 366 -844 484 -692 
Q 603 -541 603 -63 
L 603 3500 
z
M 603 4863 
L 1178 4863 
L 1178 4134 
L 603 4134 
L 603 4863 
z
" transform="scale(0.015625)"/>
      <path id="DejaVuSans-77" d="M 269 3500 
L 844 3500 
L 1563 769 
L 2278 3500 
L 2956 3500 
L 3675 769 
L 4391 3500 
L 4966 3500 
L 4050 0 
L 3372 0 
L 2619 2869 
L 1863 0 
L 1184 0 
L 269 3500 
z
" transform="scale(0.015625)"/>
     </defs>
     <use xlink:href="#DejaVuSans-31"/>
     <use xlink:href="#DejaVuSans-2f" transform="translate(63.623047 0)"/>
     <use xlink:href="#DejaVuSans-6a" transform="translate(97.314453 0)"/>
     <use xlink:href="#DejaVuSans-77" transform="translate(125.097656 0)"/>
    </g>
   </g>
  </g>
 </g>
 <defs>
  <clipPath id="p10de508dc5">
   <rect x="0" y="0" width="190.296" height="143.96"/>
  </clipPath>
 </defs>
</svg>