<?xml version="1.0" encoding="utf-8" standalone="no"?>
<!DOCTYPE svg PUBLIC "-//W3C//DTD SVG 1.1//EN"
  "http://www.w3.org/Graphics/SVG/1.1/DTD/svg11.dtd">
<svg xmlns:xlink="http://www.w3.org/1999/xlink" width="458.628pt" height="186.96pt" viewBox="0 0 458.628 186.96" xmlns="http://www.w3.org/2000/svg" version="1.1">
 <metadata>
  <rdf:RDF xmlns:dc="http://purl.org/dc/elements/1.1/" xmlns:cc="http://creativecommons.org/ns#" xmlns:rdf="http://www.w3.org/1999/02/22-rdf-syntax-ns#">
   <cc:Work>
    <dc:type rdf:resource="http://purl.org/dc/dcmitype/StillImage"/>
    <dc:date>2025-05-14T19:10:30.671276</dc:date>
    <dc:format>image/svg+xml</dc:format>
    <dc:creator>
     <cc:Agent>
      <dc:title>Matplotlib v3.10.3, https://matplotlib.org/</dc:title>
     </cc:Agent>
    </dc:creator>
   </cc:Work>
  </rdf:RDF>
 </metadata>
 <defs>
  <style type="text/css">*{stroke-linejoin: round; stroke-linecap: butt}</style>
 </defs>
 <g id="figure_1">
  <g id="patch_1">
   <path d="M 0 186.96 
L 458.628 186.96 
L 458.628 0 
L 0 0 
z
" style="fill: #ffffff"/>
  </g>
  <g id="axes_1">
   <g id="patch_2">
    <path d="M 43.668 157.28 
C 48.441656 157.28 53.020438 155.383406 56.395922 152.007922 
C 59.771406 148.632438 61.668 144.053656 61.668 139.28 
C 61.668 134.506344 59.771406 129.927562 56.395922 126.552078 
C 53.020438 123.176594 48.441656 121.28 43.668 121.28 
C 38.894344 121.28 34.315562 123.176594 30.940078 126.552078 
C 27.564594 129.927562 25.668 134.506344 25.668 139.28 
C 25.668 144.053656 27.564594 148.632438 30.940078 152.007922 
C 34.315562 155.383406 38.894344 157.28 43.668 157.28 
L 43.668 157.28 
z
" clip-path="url(#pff8a93d89e)" style="fill: none; stroke: #000000; stroke-width: 2; stroke-linejoin: miter"/>
   </g>
   <g id="patch_3">
    <path d="M 151.668 85.28 
C 156.441656 85.28 161.020438 83.383406 164.395922 80.007922 
C 167.771406 76.632438 169.668 72.053656 169.668 67.28 
C 169.668 62.506344 167.771406 57.927562 164.395922 54.552078 
C 161.020438 51.176594 156.441656 49.28 151.668 49.28 
C 146.894344 49.28 142.315562 51.176594 138.940078 54.552078 
C 135.564594 57.927562 133.668 62.506344 133.668 67.28 
C 133.668 72.053656 135.564594 76.632438 138.940078 80.007922 
C 142.315562 83.383406 146.894344 85.28 151.668 85.28 
L 151.668 85.28 
z
" clip-path="url(#pff8a93d89e)" style="fill: none; stroke: #000000; stroke-width: 2; stroke-linejoin: miter"/>
   </g>
   <g id="patch_4">
    <path d="M 259.668 157.28 
C 264.441656 157.28 269.020438 155.383406 272.395922 152.007922 
C 275.771406 148.632438 277.668 144.053656 277.668 139.28 
C 277.668 134.506344 275.771406 129.927562 272.395922 126.552078 
C 269.020438 123.176594 264.441656 121.28 259.668 121.28 
C 254.894344 121.28 250.315562 123.176594 246.940078 126.552078 
C 243.564594 129.927562 241.668 134.506344 241.668 139.28 
C 241.668 144.053656 243.564594 148.632438 246.940078 152.007922 
C 250.315562 155.383406 254.894344 157.28 259.668 157.28 
L 259.668 157.28 
z
" clip-path="url(#pff8a93d89e)" style="fill: none; stroke: #000000; stroke-width: 2; stroke-linejoin: miter"/>
   </g>
   <g id="line2d_1">
    <path d="M 43.668 31.28 
L 43.668 49.28 
L 52.668 52.28 
L 34.668 58.28 
L 52.668 64.28 
L 34.668 70.28 
L 52.668 76.28 
L 34.668 82.28 
L 43.668 85.28 
L 43.668 103.28 
" clip-path="url(#pff8a93d89e)" style="fill: none; stroke: #000000; stroke-width: 2; stroke-linecap: round"/>
   </g>
   <g id="line2d_2">
    <path d="M 43.668 103.28 
L 43.668 121.28 
L 43.668 121.28 
M 43.668 157.28 
L 43.668 157.28 
L 43.668 175.28 
" clip-path="url(#pff8a93d89e)" style="fill: none; stroke: #000000; stroke-width: 2; stroke-linecap: round"/>
   </g>
   <g id="line2d_3">
    <path d="M 47.268 148.28 
L 40.068 148.28 
" clip-path="url(#pff8a93d89e)" style="fill: none; stroke: #000000; stroke-width: 2; stroke-linecap: round"/>
   </g>
   <g id="line2d_4">
    <path d="M 43.668 126.68 
L 43.668 133.88 
" clip-path="url(#pff8a93d89e)" style="fill: none; stroke: #000000; stroke-width: 2; stroke-linecap: round"/>
   </g>
   <g id="line2d_5">
    <path d="M 47.268 130.28 
L 40.068 130.28 
" clip-path="url(#pff8a93d89e)" style="fill: none; stroke: #000000; stroke-width: 2; stroke-linecap: round"/>
   </g>
   <g id="line2d_6">
    <path d="M 43.668 175.28 
L 97.668 175.28 
L 151.668 175.28 
" clip-path="url(#pff8a93d89e)" style="fill: none; stroke: #000000; stroke-width: 2; stroke-linecap: round"/>
   </g>
   <g id="line2d_7">
    <path d="M 43.668 31.28 
L 97.668 31.28 
L 151.668 31.28 
" clip-path="url(#pff8a93d89e)" style="fill: none; stroke: #000000; stroke-width: 2; stroke-linecap: round"/>
   </g>
   <g id="line2d_8">
    <path d="M 151.668 31.28 
L 151.668 49.28 
L 151.668 49.28 
M 151.668 85.28 
L 151.668 85.28 
L 151.668 103.28 
" clip-path="url(#pff8a93d89e)" style="fill: none; stroke: #000000; stroke-width: 2; stroke-linecap: round"/>
   </g>
   <g id="line2d_9">
    <path d="M 155.268 76.28 
L 148.068 76.28 
" clip-path="url(#pff8a93d89e)" style="fill: none; stroke: #000000; stroke-width: 2; stroke-linecap: round"/>
   </g>
   <g id="line2d_10">
    <path d="M 151.668 54.68 
L 151.668 61.88 
" clip-path="url(#pff8a93d89e)" style="fill: none; stroke: #000000; stroke-width: 2; stroke-linecap: round"/>
   </g>
   <g id="line2d_11">
    <path d="M 155.268 58.28 
L 148.068 58.28 
" clip-path="url(#pff8a93d89e)" style="fill: none; stroke: #000000; stroke-width: 2; stroke-linecap: round"/>
   </g>
   <g id="line2d_12">
    <path d="M 151.668 103.28 
L 151.668 121.28 
L 160.668 124.28 
L 142.668 130.28 
L 160.668 136.28 
L 142.668 142.28 
L 160.668 148.28 
L 142.668 154.28 
L 151.668 157.28 
L 151.668 175.28 
" clip-path="url(#pff8a93d89e)" style="fill: none; stroke: #000000; stroke-width: 2; stroke-linecap: round"/>
   </g>
   <g id="line2d_13">
    <path d="M 151.668 175.28 
L 205.668 175.28 
L 259.668 175.28 
" clip-path="url(#pff8a93d89e)" style="fill: none; stroke: #000000; stroke-width: 2; stroke-linecap: round"/>
   </g>
   <g id="line2d_14">
    <path d="M 259.668 175.28 
L 259.668 157.28 
L 259.668 157.28 
M 259.668 121.28 
L 259.668 121.28 
L 259.668 103.28 
" clip-path="url(#pff8a93d89e)" style="fill: none; stroke: #000000; stroke-width: 2; stroke-linecap: round"/>
   </g>
   <g id="line2d_15">
    <path d="M 259.668 148.28 
L 259.668 139.28 
" clip-path="url(#pff8a93d89e)" style="fill: none; stroke: #000000; stroke-width: 2; stroke-linecap: round"/>
   </g>
   <g id="patch_5">
    <path d="M 256.968 139.28 
L 259.668 130.28 
L 262.368 139.28 
z
" clip-path="url(#pff8a93d89e)"/>
   </g>
   <g id="line2d_16">
    <path d="M 259.668 103.28 
L 259.668 85.28 
L 250.668 82.28 
L 268.668 76.28 
L 250.668 70.28 
L 268.668 64.28 
L 250.668 58.28 
L 268.668 52.28 
L 259.668 49.28 
L 259.668 31.28 
" clip-path="url(#pff8a93d89e)" style="fill: none; stroke: #000000; stroke-width: 2; stroke-linecap: round"/>
   </g>
   <g id="line2d_17">
    <path d="M 259.668 31.28 
L 205.668 31.28 
L 151.668 31.28 
" clip-path="url(#pff8a93d89e)" style="fill: none; stroke: #000000; stroke-width: 2; stroke-linecap: round"/>
   </g>
   <g id="line2d_18">
    <path d="M 259.668 31.28 
L 313.668 31.28 
L 367.668 31.28 
" clip-path="url(#pff8a93d89e)" style="fill: none; stroke: #000000; stroke-width: 2; stroke-linecap: round"/>
   </g>
   <g id="line2d_19">
    <path d="M 367.668 31.28 
L 367.668 85.28 
L 376.668 88.28 
L 358.668 94.28 
L 376.668 100.28 
L 358.668 106.28 
L 376.668 112.28 
L 358.668 118.28 
L 367.668 121.28 
L 367.668 175.28 
" clip-path="url(#pff8a93d89e)" style="fill: none; stroke: #000000; stroke-width: 2; stroke-linecap: round"/>
   </g>
   <g id="line2d_20">
    <path d="M 367.668 175.28 
L 313.668 175.28 
L 259.668 175.28 
" clip-path="url(#pff8a93d89e)" style="fill: none; stroke: #000000; stroke-width: 2; stroke-linecap: round"/>
   </g>
   <g id="line2d_21">
    <path d="M 367.668 31.28 
L 385.668 31.28 
L 388.668 22.28 
L 394.668 40.28 
L 400.668 22.28 
L 406.668 40.28 
L 412.668 22.28 
L 418.668 40.28 
L 421.668 31.28 
L 439.668 31.28 
" clip-path="url(#pff8a93d89e)" style="fill: none; stroke: #000000; stroke-width: 2; stroke-linecap: round"/>
   </g>
   <g id="line2d_22">
    <path d="M 367.668 175.28 
L 403.668 175.28 
L 439.668 175.28 
" clip-path="url(#pff8a93d89e)" style="fill: none; stroke: #000000; stroke-width: 2; stroke-linecap: round"/>
   </g>
   <g id="text_1">
    <!-- R1 -->
    <g transform="translate(12.432688 71.143125) scale(0.14 -0.14)">
     <defs>
      <path id="DejaVuSans-52" d="M 2841 2188 
Q 3044 2119 3236 1894 
Q 3428 1669 3622 1275 
L 4263 0 
L 3584 0 
L 2988 1197 
Q 2756 1666 2539 1819 
Q 2322 1972 1947 1972 
L 1259 1972 
L 1259 0 
L 628 0 
L 628 4666 
L 2053 4666 
Q 2853 4666 3247 4331 
Q 3641 3997 3641 3322 
Q 3641 2881 3436 2590 
Q 3231 2300 2841 2188 
z
M 1259 4147 
L 1259 2491 
L 2053 2491 
Q 2509 2491 2742 2702 
Q 2975 2913 2975 3322 
Q 2975 3731 2742 3939 
Q 2509 4147 2053 4147 
L 1259 4147 
z
" transform="scale(0.015625)"/>
      <path id="DejaVuSans-31" d="M 794 531 
L 1825 531 
L 1825 4091 
L 703 3866 
L 703 4441 
L 1819 4666 
L 2450 4666 
L 2450 531 
L 3481 531 
L 3481 0 
L 794 0 
L 794 531 
z
" transform="scale(0.015625)"/>
     </defs>
     <use xlink:href="#DejaVuSans-52"/>
     <use xlink:href="#DejaVuSans-31" transform="translate(69.482422 0)"/>
    </g>
   </g>
   <g id="text_2">
    <!-- V1 -->
    <g transform="translate(3.583625 143.143125) scale(0.14 -0.14)">
     <defs>
      <path id="DejaVuSans-56" d="M 1831 0 
L 50 4666 
L 709 4666 
L 2188 738 
L 3669 4666 
L 4325 4666 
L 2547 0 
L 1831 0 
z
" transform="scale(0.015625)"/>
     </defs>
     <use xlink:href="#DejaVuSans-56"/>
     <use xlink:href="#DejaVuSans-31" transform="translate(68.408203 0)"/>
    </g>
   </g>
   <g id="patch_6">
    <path d="M 151.668 177.98 
C 152.384048 177.98 153.070866 177.695511 153.577188 177.189188 
C 154.083511 176.682866 154.368 175.996048 154.368 175.28 
C 154.368 174.563952 154.083511 173.877134 153.577188 173.370812 
C 153.070866 172.864489 152.384048 172.58 151.668 172.58 
C 150.951952 172.58 150.265134 172.864489 149.758812 173.370812 
C 149.252489 173.877134 148.968 174.563952 148.968 175.28 
C 148.968 175.996048 149.252489 176.682866 149.758812 177.189188 
C 150.265134 177.695511 150.951952 177.98 151.668 177.98 
z
" clip-path="url(#pff8a93d89e)" style="stroke: #000000; stroke-width: 2; stroke-linejoin: miter"/>
   </g>
   <g id="patch_7">
    <path d="M 151.668 33.98 
C 152.384048 33.98 153.070866 33.695511 153.577188 33.189188 
C 154.083511 32.682866 154.368 31.996048 154.368 31.28 
C 154.368 30.563952 154.083511 29.877134 153.577188 29.370812 
C 153.070866 28.864489 152.384048 28.58 151.668 28.58 
C 150.951952 28.58 150.265134 28.864489 149.758812 29.370812 
C 149.252489 29.877134 148.968 30.563952 148.968 31.28 
C 148.968 31.996048 149.252489 32.682866 149.758812 33.189188 
C 150.265134 33.695511 150.951952 33.98 151.668 33.98 
z
" clip-path="url(#pff8a93d89e)" style="stroke: #000000; stroke-width: 2; stroke-linejoin: miter"/>
   </g>
   <g id="text_3">
    <!-- V2 -->
    <g transform="translate(111.583625 71.143125) scale(0.14 -0.14)">
     <defs>
      <path id="DejaVuSans-32" d="M 1228 531 
L 3431 531 
L 3431 0 
L 469 0 
L 469 531 
Q 828 903 1448 1529 
Q 2069 2156 2228 2338 
Q 2531 2678 2651 2914 
Q 2772 3150 2772 3378 
Q 2772 3750 2511 3984 
Q 2250 4219 1831 4219 
Q 1534 4219 1204 4116 
Q 875 4013 500 3803 
L 500 4441 
Q 881 4594 1212 4672 
Q 1544 4750 1819 4750 
Q 2544 4750 2975 4387 
Q 3406 4025 3406 3419 
Q 3406 3131 3298 2873 
Q 3191 2616 2906 2266 
Q 2828 2175 2409 1742 
Q 1991 1309 1228 531 
z
" transform="scale(0.015625)"/>
     </defs>
     <use xlink:href="#DejaVuSans-56"/>
     <use xlink:href="#DejaVuSans-32" transform="translate(68.408203 0)"/>
    </g>
   </g>
   <g id="patch_8">
    <path d="M 151.668 177.98 
C 152.384048 177.98 153.070866 177.695511 153.577188 177.189188 
C 154.083511 176.682866 154.368 175.996048 154.368 175.28 
C 154.368 174.563952 154.083511 173.877134 153.577188 173.370812 
C 153.070866 172.864489 152.384048 172.58 151.668 172.58 
C 150.951952 172.58 150.265134 172.864489 149.758812 173.370812 
C 149.252489 173.877134 148.968 174.563952 148.968 175.28 
C 148.968 175.996048 149.252489 176.682866 149.758812 177.189188 
C 150.265134 177.695511 150.951952 177.98 151.668 177.98 
z
" clip-path="url(#pff8a93d89e)" style="stroke: #000000; stroke-width: 2; stroke-linejoin: miter"/>
   </g>
   <g id="text_4">
    <!-- R2 -->
    <g transform="translate(120.432687 144.493125) scale(0.14 -0.14)">
     <use xlink:href="#DejaVuSans-52"/>
     <use xlink:href="#DejaVuSans-32" transform="translate(69.482422 0)"/>
    </g>
   </g>
   <g id="patch_9">
    <path d="M 259.668 177.98 
C 260.384048 177.98 261.070866 177.695511 261.577188 177.189188 
C 262.083511 176.682866 262.368 175.996048 262.368 175.28 
C 262.368 174.563952 262.083511 173.877134 261.577188 173.370812 
C 261.070866 172.864489 260.384048 172.58 259.668 172.58 
C 258.951952 172.58 258.265134 172.864489 257.758812 173.370812 
C 257.252489 173.877134 256.968 174.563952 256.968 175.28 
C 256.968 175.996048 257.252489 176.682866 257.758812 177.189188 
C 258.265134 177.695511 258.951952 177.98 259.668 177.98 
z
" clip-path="url(#pff8a93d89e)" style="stroke: #000000; stroke-width: 2; stroke-linejoin: miter"/>
   </g>
   <g id="text_5">
    <!-- I1 -->
    <g transform="translate(225.0305 143.143125) scale(0.14 -0.14)">
     <defs>
      <path id="DejaVuSans-49" d="M 628 4666 
L 1259 4666 
L 1259 0 
L 628 0 
L 628 4666 
z
" transform="scale(0.015625)"/>
     </defs>
     <use xlink:href="#DejaVuSans-49"/>
     <use xlink:href="#DejaVuSans-31" transform="translate(29.492188 0)"/>
    </g>
   </g>
   <g id="patch_10">
    <path d="M 259.668 33.98 
C 260.384048 33.98 261.070866 33.695511 261.577188 33.189188 
C 262.083511 32.682866 262.368 31.996048 262.368 31.28 
C 262.368 30.563952 262.083511 29.877134 261.577188 29.370812 
C 261.070866 28.864489 260.384048 28.58 259.668 28.58 
C 258.951952 28.58 258.265134 28.864489 257.758812 29.370812 
C 257.252489 29.877134 256.968 30.563952 256.968 31.28 
C 256.968 31.996048 257.252489 32.682866 257.758812 33.189188 
C 258.265134 33.695511 258.951952 33.98 259.668 33.98 
z
" clip-path="url(#pff8a93d89e)" style="stroke: #000000; stroke-width: 2; stroke-linejoin: miter"/>
   </g>
   <g id="text_6">
    <!-- R3 -->
    <g transform="translate(228.432687 69.793125) scale(0.14 -0.14)">
     <defs>
      <path id="DejaVuSans-33" d="M 2597 2516 
Q 3050 2419 3304 2112 
Q 3559 1806 3559 1356 
Q 3559 666 3084 287 
Q 2609 -91 1734 -91 
Q 1441 -91 1130 -33 
Q 819 25 488 141 
L 488 750 
Q 750 597 1062 519 
Q 1375 441 1716 441 
Q 2309 441 2620 675 
Q 2931 909 2931 1356 
Q 2931 1769 2642 2001 
Q 2353 2234 1838 2234 
L 1294 2234 
L 1294 2753 
L 1863 2753 
Q 2328 2753 2575 2939 
Q 2822 3125 2822 3475 
Q 2822 3834 2567 4026 
Q 2313 4219 1838 4219 
Q 1578 4219 1281 4162 
Q 984 4106 628 3988 
L 628 4550 
Q 988 4650 1302 4700 
Q 1616 4750 1894 4750 
Q 2613 4750 3031 4423 
Q 3450 4097 3450 3541 
Q 3450 3153 3228 2886 
Q 3006 2619 2597 2516 
z
" transform="scale(0.015625)"/>
     </defs>
     <use xlink:href="#DejaVuSans-52"/>
     <use xlink:href="#DejaVuSans-33" transform="translate(69.482422 0)"/>
    </g>
   </g>
   <g id="patch_11">
    <path d="M 367.668 33.98 
C 368.384048 33.98 369.070866 33.695511 369.577188 33.189188 
C 370.083511 32.682866 370.368 31.996048 370.368 31.28 
C 370.368 30.563952 370.083511 29.877134 369.577188 29.370812 
C 369.070866 28.864489 368.384048 28.58 367.668 28.58 
C 366.951952 28.58 366.265134 28.864489 365.758812 29.370812 
C 365.252489 29.877134 364.968 30.563952 364.968 31.28 
C 364.968 31.996048 365.252489 32.682866 365.758812 33.189188 
C 366.265134 33.695511 366.951952 33.98 367.668 33.98 
z
" clip-path="url(#pff8a93d89e)" style="stroke: #000000; stroke-width: 2; stroke-linejoin: miter"/>
   </g>
   <g id="patch_12">
    <path d="M 367.668 177.98 
C 368.384048 177.98 369.070866 177.695511 369.577188 177.189188 
C 370.083511 176.682866 370.368 175.996048 370.368 175.28 
C 370.368 174.563952 370.083511 173.877134 369.577188 173.370812 
C 369.070866 172.864489 368.384048 172.58 367.668 172.58 
C 366.951952 172.58 366.265134 172.864489 365.758812 173.370812 
C 365.252489 173.877134 364.968 174.563952 364.968 175.28 
C 364.968 175.996048 365.252489 176.682866 365.758812 177.189188 
C 366.265134 177.695511 366.951952 177.98 367.668 177.98 
z
" clip-path="url(#pff8a93d89e)" style="stroke: #000000; stroke-width: 2; stroke-linejoin: miter"/>
   </g>
   <g id="text_7">
    <!-- R4 -->
    <g transform="translate(336.432688 108.493125) scale(0.14 -0.14)">
     <defs>
      <path id="DejaVuSans-34" d="M 2419 4116 
L 825 1625 
L 2419 1625 
L 2419 4116 
z
M 2253 4666 
L 3047 4666 
L 3047 1625 
L 3713 1625 
L 3713 1100 
L 3047 1100 
L 3047 0 
L 2419 0 
L 2419 1100 
L 313 1100 
L 313 1709 
L 2253 4666 
z
" transform="scale(0.015625)"/>
     </defs>
     <use xlink:href="#DejaVuSans-52"/>
     <use xlink:href="#DejaVuSans-34" transform="translate(69.482422 0)"/>
    </g>
   </g>
   <g id="patch_13">
    <path d="M 439.668 33.98 
C 440.384048 33.98 441.070866 33.695511 441.577188 33.189188 
C 442.083511 32.682866 442.368 31.996048 442.368 31.28 
C 442.368 30.563952 442.083511 29.877134 441.577188 29.370812 
C 441.070866 28.864489 440.384048 28.58 439.668 28.58 
C 438.951952 28.58 438.265134 28.864489 437.758812 29.370812 
C 437.252489 29.877134 436.968 30.563952 436.968 31.28 
C 436.968 31.996048 437.252489 32.682866 437.758812 33.189188 
C 438.265134 33.695511 438.951952 33.98 439.668 33.98 
z
" clip-path="url(#pff8a93d89e)" style="fill: #ffffff; stroke: #000000; stroke-width: 2; stroke-linejoin: miter"/>
   </g>
   <g id="text_8">
    <!-- R5 -->
    <g transform="translate(395.700344 15.768438) scale(0.14 -0.14)">
     <defs>
      <path id="DejaVuSans-35" d="M 691 4666 
L 3169 4666 
L 3169 4134 
L 1269 4134 
L 1269 2991 
Q 1406 3038 1543 3061 
Q 1681 3084 1819 3084 
Q 2600 3084 3056 2656 
Q 3513 2228 3513 1497 
Q 3513 744 3044 326 
Q 2575 -91 1722 -91 
Q 1428 -91 1123 -41 
Q 819 9 494 109 
L 494 744 
Q 775 591 1075 516 
Q 1375 441 1709 441 
Q 2250 441 2565 725 
Q 2881 1009 2881 1497 
Q 2881 1984 2565 2268 
Q 2250 2553 1709 2553 
Q 1456 2553 1204 2497 
Q 953 2441 691 2322 
L 691 4666 
z
" transform="scale(0.015625)"/>
     </defs>
     <use xlink:href="#DejaVuSans-52"/>
     <use xlink:href="#DejaVuSans-35" transform="translate(69.482422 0)"/>
    </g>
   </g>
   <g id="text_9">
    <!-- a -->
    <g transform="translate(445.968 35.143125) scale(0.14 -0.14)">
     <defs>
      <path id="DejaVuSans-61" d="M 2194 1759 
Q 1497 1759 1228 1600 
Q 959 1441 959 1056 
Q 959 750 1161 570 
Q 1363 391 1709 391 
Q 2188 391 2477 730 
Q 2766 1069 2766 1631 
L 2766 1759 
L 2194 1759 
z
M 3341 1997 
L 3341 0 
L 2766 0 
L 2766 531 
Q 2569 213 2275 61 
Q 1981 -91 1556 -91 
Q 1019 -91 701 211 
Q 384 513 384 1019 
Q 384 1609 779 1909 
Q 1175 2209 1959 2209 
L 2766 2209 
L 2766 2266 
Q 2766 2663 2505 2880 
Q 2244 3097 1772 3097 
Q 1472 3097 1187 3025 
Q 903 2953 641 2809 
L 641 3341 
Q 956 3463 1253 3523 
Q 1550 3584 1831 3584 
Q 2591 3584 2966 3190 
Q 3341 2797 3341 1997 
z
" transform="scale(0.015625)"/>
     </defs>
     <use xlink:href="#DejaVuSans-61"/>
    </g>
   </g>
   <g id="patch_14">
    <path d="M 439.668 177.98 
C 440.384048 177.98 441.070866 177.695511 441.577188 177.189188 
C 442.083511 176.682866 442.368 175.996048 442.368 175.28 
C 442.368 174.563952 442.083511 173.877134 441.577188 173.370812 
C 441.070866 172.864489 440.384048 172.58 439.668 172.58 
C 438.951952 172.58 438.265134 172.864489 437.758812 173.370812 
C 437.252489 173.877134 436.968 174.563952 436.968 175.28 
C 436.968 175.996048 437.252489 176.682866 437.758812 177.189188 
C 438.265134 177.695511 438.951952 177.98 439.668 177.98 
z
" clip-path="url(#pff8a93d89e)" style="fill: #ffffff; stroke: #000000; stroke-width: 2; stroke-linejoin: miter"/>
   </g>
   <g id="text_10">
    <!-- b -->
    <g transform="translate(445.968 179.143125) scale(0.14 -0.14)">
     <defs>
      <path id="DejaVuSans-62" d="M 3116 1747 
Q 3116 2381 2855 2742 
Q 2594 3103 2138 3103 
Q 1681 3103 1420 2742 
Q 1159 2381 1159 1747 
Q 1159 1113 1420 752 
Q 1681 391 2138 391 
Q 2594 391 2855 752 
Q 3116 1113 3116 1747 
z
M 1159 2969 
Q 1341 3281 1617 3432 
Q 1894 3584 2278 3584 
Q 2916 3584 3314 3078 
Q 3713 2572 3713 1747 
Q 3713 922 3314 415 
Q 2916 -91 2278 -91 
Q 1894 -91 1617 61 
Q 1341 213 1159 525 
L 1159 0 
L 581 0 
L 581 4863 
L 1159 4863 
L 1159 2969 
z
" transform="scale(0.015625)"/>
     </defs>
     <use xlink:href="#DejaVuSans-62"/>
    </g>
   </g>
  </g>
 </g>
 <defs>
  <clipPath id="pff8a93d89e">
   <rect x="0" y="0" width="458.628" height="186.96"/>
  </clipPath>
 </defs>
</svg>