<?xml version="1.0" encoding="utf-8" standalone="no"?>
<!DOCTYPE svg PUBLIC "-//W3C//DTD SVG 1.1//EN"
  "http://www.w3.org/Graphics/SVG/1.1/DTD/svg11.dtd">
<svg xmlns:xlink="http://www.w3.org/1999/xlink" width="410.76pt" height="44.96pt" viewBox="0 0 410.76 44.96" xmlns="http://www.w3.org/2000/svg" version="1.1">
 <metadata>
  <rdf:RDF xmlns:dc="http://purl.org/dc/elements/1.1/" xmlns:cc="http://creativecommons.org/ns#" xmlns:rdf="http://www.w3.org/1999/02/22-rdf-syntax-ns#">
   <cc:Work>
    <dc:type rdf:resource="http://purl.org/dc/dcmitype/StillImage"/>
    <dc:date>2025-05-14T19:09:59.800171</dc:date>
    <dc:format>image/svg+xml</dc:format>
    <dc:creator>
     <cc:Agent>
      <dc:title>Matplotlib v3.10.3, https://matplotlib.org/</dc:title>
     </cc:Agent>
    </dc:creator>
   </cc:Work>
  </rdf:RDF>
 </metadata>
 <defs>
  <style type="text/css">*{stroke-linejoin: round; stroke-linecap: butt}</style>
 </defs>
 <g id="figure_1">
  <g id="patch_1">
   <path d="M 0 44.96 
L 410.76 44.96 
L 410.76 0 
L 0 0 
z
" style="fill: #ffffff"/>
  </g>
  <g id="axes_1">
   <g id="patch_2">
    <path d="M 241.38 33.98 
C 242.096048 33.98 242.782866 33.695511 243.289188 33.189188 
C 243.795511 32.682866 244.08 31.996048 244.08 31.28 
C 244.08 30.563952 243.795511 29.877134 243.289188 29.370812 
C 242.782866 28.864489 242.096048 28.58 241.38 28.58 
C 240.663952 28.58 239.977134 28.864489 239.470812 29.370812 
C 238.964489 29.877134 238.68 30.563952 238.68 31.28 
C 238.68 31.996048 238.964489 32.682866 239.470812 33.189188 
C 239.977134 33.695511 240.663952 33.98 241.38 33.98 
z
" clip-path="url(#pdf84acc92f)" style="stroke: #000000; stroke-width: 2; stroke-linejoin: miter"/>
   </g>
   <g id="patch_3">
    <path d="M 259.38 33.98 
C 260.096048 33.98 260.782866 33.695511 261.289188 33.189188 
C 261.795511 32.682866 262.08 31.996048 262.08 31.28 
C 262.08 30.563952 261.795511 29.877134 261.289188 29.370812 
C 260.782866 28.864489 260.096048 28.58 259.38 28.58 
C 258.663952 28.58 257.977134 28.864489 257.470812 29.370812 
C 256.964489 29.877134 256.68 30.563952 256.68 31.28 
C 256.68 31.996048 256.964489 32.682866 257.470812 33.189188 
C 257.977134 33.695511 258.663952 33.98 259.38 33.98 
z
" clip-path="url(#pdf84acc92f)" style="stroke: #000000; stroke-width: 2; stroke-linejoin: miter"/>
   </g>
   <g id="patch_4">
    <path d="M 277.38 33.98 
C 278.096048 33.98 278.782866 33.695511 279.289188 33.189188 
C 279.795511 32.682866 280.08 31.996048 280.08 31.28 
C 280.08 30.563952 279.795511 29.877134 279.289188 29.370812 
C 278.782866 28.864489 278.096048 28.58 277.38 28.58 
C 276.663952 28.58 275.977134 28.864489 275.470812 29.370812 
C 274.964489 29.877134 274.68 30.563952 274.68 31.28 
C 274.68 31.996048 274.964489 32.682866 275.470812 33.189188 
C 275.977134 33.695511 276.663952 33.98 277.38 33.98 
z
" clip-path="url(#pdf84acc92f)" style="stroke: #000000; stroke-width: 2; stroke-linejoin: miter"/>
   </g>
   <g id="line2d_1">
    <path d="M 7.38 31.28 
L 43.38 31.28 
L 46.38 22.28 
L 52.38 40.28 
L 58.38 22.28 
L 64.38 40.28 
L 70.38 22.28 
L 76.38 40.28 
L 79.38 31.28 
L 115.38 31.28 
" clip-path="url(#pdf84acc92f)" style="fill: none; stroke: #000000; stroke-width: 2; stroke-linecap: round"/>
   </g>
   <g id="line2d_2">
    <path d="M 115.38 31.28 
L 151.38 31.28 
L 154.38 22.28 
L 160.38 40.28 
L 166.38 22.28 
L 172.38 40.28 
L 178.38 22.28 
L 184.38 40.28 
L 187.38 31.28 
L 223.38 31.28 
" clip-path="url(#pdf84acc92f)" style="fill: none; stroke: #000000; stroke-width: 2; stroke-linecap: round"/>
   </g>
   <g id="line2d_3">
    <path d="M 295.38 31.28 
L 331.38 31.28 
L 334.38 22.28 
L 340.38 40.28 
L 346.38 22.28 
L 352.38 40.28 
L 358.38 22.28 
L 364.38 40.28 
L 367.38 31.28 
L 403.38 31.28 
" clip-path="url(#pdf84acc92f)" style="fill: none; stroke: #000000; stroke-width: 2; stroke-linecap: round"/>
   </g>
   <g id="text_1">
    <!-- R1 -->
    <g transform="translate(52.062344 15.768437) scale(0.14 -0.14)">
     <defs>
      <path id="DejaVuSans-52" d="M 2841 2188 
Q 3044 2119 3236 1894 
Q 3428 1669 3622 1275 
L 4263 0 
L 3584 0 
L 2988 1197 
Q 2756 1666 2539 1819 
Q 2322 1972 1947 1972 
L 1259 1972 
L 1259 0 
L 628 0 
L 628 4666 
L 2053 4666 
Q 2853 4666 3247 4331 
Q 3641 3997 3641 3322 
Q 3641 2881 3436 2590 
Q 3231 2300 2841 2188 
z
M 1259 4147 
L 1259 2491 
L 2053 2491 
Q 2509 2491 2742 2702 
Q 2975 2913 2975 3322 
Q 2975 3731 2742 3939 
Q 2509 4147 2053 4147 
L 1259 4147 
z
" transform="scale(0.015625)"/>
      <path id="DejaVuSans-31" d="M 794 531 
L 1825 531 
L 1825 4091 
L 703 3866 
L 703 4441 
L 1819 4666 
L 2450 4666 
L 2450 531 
L 3481 531 
L 3481 0 
L 794 0 
L 794 531 
z
" transform="scale(0.015625)"/>
     </defs>
     <use xlink:href="#DejaVuSans-52"/>
     <use xlink:href="#DejaVuSans-31" transform="translate(69.482422 0)"/>
    </g>
   </g>
   <g id="text_2">
    <!-- R2 -->
    <g transform="translate(160.062344 15.768437) scale(0.14 -0.14)">
     <defs>
      <path id="DejaVuSans-32" d="M 1228 531 
L 3431 531 
L 3431 0 
L 469 0 
L 469 531 
Q 828 903 1448 1529 
Q 2069 2156 2228 2338 
Q 2531 2678 2651 2914 
Q 2772 3150 2772 3378 
Q 2772 3750 2511 3984 
Q 2250 4219 1831 4219 
Q 1534 4219 1204 4116 
Q 875 4013 500 3803 
L 500 4441 
Q 881 4594 1212 4672 
Q 1544 4750 1819 4750 
Q 2544 4750 2975 4387 
Q 3406 4025 3406 3419 
Q 3406 3131 3298 2873 
Q 3191 2616 2906 2266 
Q 2828 2175 2409 1742 
Q 1991 1309 1228 531 
z
" transform="scale(0.015625)"/>
     </defs>
     <use xlink:href="#DejaVuSans-52"/>
     <use xlink:href="#DejaVuSans-32" transform="translate(69.482422 0)"/>
    </g>
   </g>
   <g id="text_3">
    <!-- Rn -->
    <g transform="translate(340.079844 15.768437) scale(0.14 -0.14)">
     <defs>
      <path id="DejaVuSans-6e" d="M 3513 2113 
L 3513 0 
L 2938 0 
L 2938 2094 
Q 2938 2591 2744 2837 
Q 2550 3084 2163 3084 
Q 1697 3084 1428 2787 
Q 1159 2491 1159 1978 
L 1159 0 
L 581 0 
L 581 3500 
L 1159 3500 
L 1159 2956 
Q 1366 3272 1645 3428 
Q 1925 3584 2291 3584 
Q 2894 3584 3203 3211 
Q 3513 2838 3513 2113 
z
" transform="scale(0.015625)"/>
     </defs>
     <use xlink:href="#DejaVuSans-52"/>
     <use xlink:href="#DejaVuSans-6e" transform="translate(69.482422 0)"/>
    </g>
   </g>
   <g id="patch_5">
    <path d="M 7.38 33.98 
C 8.096048 33.98 8.782866 33.695511 9.289188 33.189188 
C 9.795511 32.682866 10.08 31.996048 10.08 31.28 
C 10.08 30.563952 9.795511 29.877134 9.289188 29.370812 
C 8.782866 28.864489 8.096048 28.58 7.38 28.58 
C 6.663952 28.58 5.977134 28.864489 5.470812 29.370812 
C 4.964489 29.877134 4.68 30.563952 4.68 31.28 
C 4.68 31.996048 4.964489 32.682866 5.470812 33.189188 
C 5.977134 33.695511 6.663952 33.98 7.38 33.98 
z
" clip-path="url(#pdf84acc92f)" style="stroke: #000000; stroke-width: 2; stroke-linejoin: miter"/>
   </g>
   <g id="patch_6">
    <path d="M 403.38 33.98 
C 404.096048 33.98 404.782866 33.695511 405.289188 33.189188 
C 405.795511 32.682866 406.08 31.996048 406.08 31.28 
C 406.08 30.563952 405.795511 29.877134 405.289188 29.370812 
C 404.782866 28.864489 404.096048 28.58 403.38 28.58 
C 402.663952 28.58 401.977134 28.864489 401.470812 29.370812 
C 400.964489 29.877134 400.68 30.563952 400.68 31.28 
C 400.68 31.996048 400.964489 32.682866 401.470812 33.189188 
C 401.977134 33.695511 402.663952 33.98 403.38 33.98 
z
" clip-path="url(#pdf84acc92f)" style="stroke: #000000; stroke-width: 2; stroke-linejoin: miter"/>
   </g>
  </g>
 </g>
 <defs>
  <clipPath id="pdf84acc92f">
   <rect x="0" y="0" width="410.76" height="44.96"/>
  </clipPath>
 </defs>
</svg>