<?xml version="1.0" encoding="utf-8" standalone="no"?>
<!DOCTYPE svg PUBLIC "-//W3C//DTD SVG 1.1//EN"
  "http://www.w3.org/Graphics/SVG/1.1/DTD/svg11.dtd">
<svg xmlns:xlink="http://www.w3.org/1999/xlink" width="455.316pt" height="194.76pt" viewBox="0 0 455.316 194.76" xmlns="http://www.w3.org/2000/svg" version="1.1">
 <metadata>
  <rdf:RDF xmlns:dc="http://purl.org/dc/elements/1.1/" xmlns:cc="http://creativecommons.org/ns#" xmlns:rdf="http://www.w3.org/1999/02/22-rdf-syntax-ns#">
   <cc:Work>
    <dc:type rdf:resource="http://purl.org/dc/dcmitype/StillImage"/>
    <dc:date>2025-01-04T12:43:14.674268</dc:date>
    <dc:format>image/svg+xml</dc:format>
    <dc:creator>
     <cc:Agent>
      <dc:title>Matplotlib v3.9.2, https://matplotlib.org/</dc:title>
     </cc:Agent>
    </dc:creator>
   </cc:Work>
  </rdf:RDF>
 </metadata>
 <defs>
  <style type="text/css">*{stroke-linejoin: round; stroke-linecap: butt}</style>
 </defs>
 <g id="figure_1">
  <g id="patch_1">
   <path d="M 0 194.76 
L 455.316 194.76 
L 455.316 0 
L 0 0 
z
" style="fill: #ffffff"/>
  </g>
  <g id="axes_1">
   <g id="patch_2">
    <path d="M 51.648 115.38 
C 56.421656 115.38 61.000438 113.483406 64.375922 110.107922 
C 67.751406 106.732438 69.648 102.153656 69.648 97.38 
C 69.648 92.606344 67.751406 88.027562 64.375922 84.652078 
C 61.000438 81.276594 56.421656 79.38 51.648 79.38 
C 46.874344 79.38 42.295562 81.276594 38.920078 84.652078 
C 35.544594 88.027562 33.648 92.606344 33.648 97.38 
C 33.648 102.153656 35.544594 106.732438 38.920078 110.107922 
C 42.295562 113.483406 46.874344 115.38 51.648 115.38 
L 51.648 115.38 
z
" clip-path="url(#p1492c2f311)" style="fill: none; stroke: #000000; stroke-width: 2; stroke-linejoin: miter"/>
   </g>
   <g id="patch_3">
    <path d="M 411.648 115.38 
C 416.421656 115.38 421.000438 113.483406 424.375922 110.107922 
C 427.751406 106.732438 429.648 102.153656 429.648 97.38 
C 429.648 92.606344 427.751406 88.027562 424.375922 84.652078 
C 421.000438 81.276594 416.421656 79.38 411.648 79.38 
C 406.874344 79.38 402.295562 81.276594 398.920078 84.652078 
C 395.544594 88.027562 393.648 92.606344 393.648 97.38 
C 393.648 102.153656 395.544594 106.732438 398.920078 110.107922 
C 402.295562 113.483406 406.874344 115.38 411.648 115.38 
L 411.648 115.38 
z
" clip-path="url(#p1492c2f311)" style="fill: none; stroke: #000000; stroke-width: 2; stroke-linejoin: miter"/>
   </g>
   <g id="patch_4">
    <path d="M 174.433071 77.57458 
C 172.877928 73.04198 170.799955 68.915328 168.286316 65.367727 
C 165.772678 61.820126 162.859021 58.901884 159.667564 56.735413 
C 156.476107 54.568942 153.052109 53.184965 149.539197 52.641536 
C 146.026284 52.098106 142.474274 52.402931 139.032163 53.543223 
C 135.590052 54.683516 132.306653 56.643105 129.319694 59.339792 
C 126.332736 62.036479 123.684577 65.432023 121.4863 69.383988 
C 119.288023 73.335954 117.570802 77.7883 116.406669 82.554262 
C 115.242536 87.320224 114.648 92.332217 114.648 97.38 
C 114.648 102.427783 115.242536 107.439776 116.406669 112.205738 
C 117.570802 116.9717 119.288023 121.424046 121.4863 125.376012 
C 123.684577 129.327977 126.332736 132.723521 129.319694 135.420208 
C 132.306653 138.116895 135.590052 140.076484 139.032163 141.216777 
C 142.474274 142.357069 146.026284 142.661894 149.539197 142.118464 
C 153.052109 141.575035 156.476107 140.191058 159.667564 138.024587 
C 162.859021 135.858116 165.772678 132.939874 168.286316 129.392273 
C 170.799955 125.844672 172.877928 121.71802 174.433071 117.18542 
" clip-path="url(#p1492c2f311)" style="fill: none; stroke: #000000; stroke-width: 2; stroke-linejoin: miter"/>
   </g>
   <g id="patch_5">
    <path d="M 178.552598 85.979287 
L 172.167079 79.086163 
L 174.575351 77.90576 
L 174.416908 77.582502 
L 174.449234 77.566658 
L 174.607677 77.889916 
L 177.015949 76.709513 
z
" clip-path="url(#p1492c2f311)" style="stroke: #000000; stroke-linejoin: miter"/>
   </g>
   <g id="patch_6">
    <path d="M 288.862929 117.18542 
C 290.418072 121.71802 292.496045 125.844672 295.009684 129.392273 
C 297.523322 132.939874 300.436979 135.858116 303.628436 138.024587 
C 306.819893 140.191058 310.243891 141.575035 313.756803 142.118464 
C 317.269716 142.661894 320.821726 142.357069 324.263837 141.216777 
C 327.705948 140.076484 330.989347 138.116895 333.976306 135.420208 
C 336.963264 132.723521 339.611423 129.327977 341.8097 125.376012 
C 344.007977 121.424046 345.725198 116.9717 346.889331 112.205738 
C 348.053464 107.439776 348.648 102.427783 348.648 97.38 
C 348.648 92.332217 348.053464 87.320224 346.889331 82.554262 
C 345.725198 77.7883 344.007977 73.335954 341.8097 69.383988 
C 339.611423 65.432023 336.963264 62.036479 333.976306 59.339792 
C 330.989347 56.643105 327.705948 54.683516 324.263837 53.543223 
C 320.821726 52.402931 317.269716 52.098106 313.756803 52.641536 
C 310.243891 53.184965 306.819893 54.568942 303.628436 56.735413 
C 300.436979 58.901884 297.523322 61.820126 295.009684 65.367727 
C 292.496045 68.915328 290.418072 73.04198 288.862929 77.57458 
" clip-path="url(#p1492c2f311)" style="fill: none; stroke: #000000; stroke-width: 2; stroke-linejoin: miter"/>
   </g>
   <g id="patch_7">
    <path d="M 284.444803 85.797596 
L 286.32605 76.59157 
L 288.68863 77.860956 
L 288.847073 77.566061 
L 288.878786 77.5831 
L 288.720342 77.877994 
L 291.082922 79.14738 
z
" clip-path="url(#p1492c2f311)" style="stroke: #000000; stroke-linejoin: miter"/>
   </g>
   <g id="line2d_1">
    <path d="M 51.648 187.38 
L 51.648 115.38 
L 51.648 115.38 
M 51.648 79.38 
L 51.648 79.38 
L 51.648 7.38 
" clip-path="url(#p1492c2f311)" style="fill: none; stroke: #000000; stroke-width: 2; stroke-linecap: round"/>
   </g>
   <g id="line2d_2">
    <path d="M 55.248 106.38 
L 48.048 106.38 
" clip-path="url(#p1492c2f311)" style="fill: none; stroke: #000000; stroke-width: 2; stroke-linecap: round"/>
   </g>
   <g id="line2d_3">
    <path d="M 51.648 91.98 
L 51.648 84.78 
" clip-path="url(#p1492c2f311)" style="fill: none; stroke: #000000; stroke-width: 2; stroke-linecap: round"/>
   </g>
   <g id="line2d_4">
    <path d="M 55.248 88.38 
L 48.048 88.38 
" clip-path="url(#p1492c2f311)" style="fill: none; stroke: #000000; stroke-width: 2; stroke-linecap: round"/>
   </g>
   <g id="line2d_5">
    <path d="M 51.648 7.38 
L 141.648 7.38 
L 231.648 7.38 
" clip-path="url(#p1492c2f311)" style="fill: none; stroke: #000000; stroke-width: 2; stroke-linecap: round"/>
   </g>
   <g id="line2d_6">
    <path d="M 231.648 7.38 
L 231.648 79.38 
L 240.648 82.38 
L 222.648 88.38 
L 240.648 94.38 
L 222.648 100.38 
L 240.648 106.38 
L 222.648 112.38 
L 231.648 115.38 
L 231.648 187.38 
" clip-path="url(#p1492c2f311)" style="fill: none; stroke: #000000; stroke-width: 2; stroke-linecap: round"/>
   </g>
   <g id="line2d_7">
    <path d="M 211.848 61.38 
L 211.848 122.58 
" clip-path="url(#p1492c2f311)" style="fill: none; stroke: #000000; stroke-width: 2; stroke-linecap: round"/>
   </g>
   <g id="patch_8">
    <path d="M 215.448 122.58 
L 211.848 133.38 
L 208.248 122.58 
z
" clip-path="url(#p1492c2f311)"/>
   </g>
   <g id="line2d_8">
    <path d="M 231.648 7.38 
L 321.648 7.38 
L 411.648 7.38 
" clip-path="url(#p1492c2f311)" style="fill: none; stroke: #000000; stroke-width: 2; stroke-linecap: round"/>
   </g>
   <g id="line2d_9">
    <path d="M 411.648 7.38 
L 411.648 79.38 
L 411.648 79.38 
M 411.648 115.38 
L 411.648 115.38 
L 411.648 187.38 
" clip-path="url(#p1492c2f311)" style="fill: none; stroke: #000000; stroke-width: 2; stroke-linecap: round"/>
   </g>
   <g id="line2d_10">
    <path d="M 411.648 97.38 
L 411.648 106.38 
" clip-path="url(#p1492c2f311)" style="fill: none; stroke: #000000; stroke-width: 2; stroke-linecap: round"/>
   </g>
   <g id="patch_9">
    <path d="M 408.948 97.38 
L 411.648 88.38 
L 414.348 97.38 
z
" clip-path="url(#p1492c2f311)"/>
   </g>
   <g id="line2d_11">
    <path d="M 411.648 187.38 
L 231.648 187.38 
L 51.648 187.38 
" clip-path="url(#p1492c2f311)" style="fill: none; stroke: #000000; stroke-width: 2; stroke-linecap: round"/>
   </g>
   <g id="text_1">
    <!-- 10V -->
    <g transform="translate(2.656125 101.243125) scale(0.14 -0.14)">
     <defs>
      <path id="DejaVuSans-31" d="M 794 531 
L 1825 531 
L 1825 4091 
L 703 3866 
L 703 4441 
L 1819 4666 
L 2450 4666 
L 2450 531 
L 3481 531 
L 3481 0 
L 794 0 
L 794 531 
z
" transform="scale(0.015625)"/>
      <path id="DejaVuSans-30" d="M 2034 4250 
Q 1547 4250 1301 3770 
Q 1056 3291 1056 2328 
Q 1056 1369 1301 889 
Q 1547 409 2034 409 
Q 2525 409 2770 889 
Q 3016 1369 3016 2328 
Q 3016 3291 2770 3770 
Q 2525 4250 2034 4250 
z
M 2034 4750 
Q 2819 4750 3233 4129 
Q 3647 3509 3647 2328 
Q 3647 1150 3233 529 
Q 2819 -91 2034 -91 
Q 1250 -91 836 529 
Q 422 1150 422 2328 
Q 422 3509 836 4129 
Q 1250 4750 2034 4750 
z
" transform="scale(0.015625)"/>
      <path id="DejaVuSans-56" d="M 1831 0 
L 50 4666 
L 709 4666 
L 2188 738 
L 3669 4666 
L 4325 4666 
L 2547 0 
L 1831 0 
z
" transform="scale(0.015625)"/>
     </defs>
     <use xlink:href="#DejaVuSans-31"/>
     <use xlink:href="#DejaVuSans-30" x="63.623047"/>
     <use xlink:href="#DejaVuSans-56" x="127.246094"/>
    </g>
   </g>
   <g id="text_2">
    <!-- 20Ω -->
    <g transform="translate(247.159562 83.122969) rotate(-270) scale(0.14 -0.14)">
     <defs>
      <path id="DejaVuSans-32" d="M 1228 531 
L 3431 531 
L 3431 0 
L 469 0 
L 469 531 
Q 828 903 1448 1529 
Q 2069 2156 2228 2338 
Q 2531 2678 2651 2914 
Q 2772 3150 2772 3378 
Q 2772 3750 2511 3984 
Q 2250 4219 1831 4219 
Q 1534 4219 1204 4116 
Q 875 4013 500 3803 
L 500 4441 
Q 881 4594 1212 4672 
Q 1544 4750 1819 4750 
Q 2544 4750 2975 4387 
Q 3406 4025 3406 3419 
Q 3406 3131 3298 2873 
Q 3191 2616 2906 2266 
Q 2828 2175 2409 1742 
Q 1991 1309 1228 531 
z
" transform="scale(0.015625)"/>
      <path id="DejaVuSans-3a9" d="M 4647 556 
L 4647 0 
L 2772 0 
L 2772 556 
Q 3325 859 3634 1378 
Q 3944 1897 3944 2528 
Q 3944 3278 3531 3731 
Q 3119 4184 2444 4184 
Q 1769 4184 1355 3729 
Q 941 3275 941 2528 
Q 941 1897 1250 1378 
Q 1563 859 2119 556 
L 2119 0 
L 244 0 
L 244 556 
L 1241 556 
Q 747 991 519 1456 
Q 294 1922 294 2497 
Q 294 3491 894 4106 
Q 1491 4722 2444 4722 
Q 3391 4722 3994 4106 
Q 4594 3494 4594 2528 
Q 4594 1922 4372 1459 
Q 4150 997 3647 556 
L 4647 556 
z
" transform="scale(0.015625)"/>
     </defs>
     <use xlink:href="#DejaVuSans-32"/>
     <use xlink:href="#DejaVuSans-30" x="63.623047"/>
     <use xlink:href="#DejaVuSans-3a9" x="127.246094"/>
    </g>
   </g>
   <g id="text_3">
    <!-- $I_2$ -->
    <g transform="translate(197.468 101.243125) scale(0.14 -0.14)">
     <defs>
      <path id="DejaVuSans-Oblique-49" d="M 1081 4666 
L 1716 4666 
L 806 0 
L 172 0 
L 1081 4666 
z
" transform="scale(0.015625)"/>
     </defs>
     <use xlink:href="#DejaVuSans-Oblique-49" transform="translate(0 0.09375)"/>
     <use xlink:href="#DejaVuSans-32" transform="translate(29.492188 -16.3125) scale(0.7)"/>
    </g>
   </g>
   <g id="text_4">
    <!-- 3A -->
    <g transform="translate(433.248 101.243125) scale(0.14 -0.14)">
     <defs>
      <path id="DejaVuSans-33" d="M 2597 2516 
Q 3050 2419 3304 2112 
Q 3559 1806 3559 1356 
Q 3559 666 3084 287 
Q 2609 -91 1734 -91 
Q 1441 -91 1130 -33 
Q 819 25 488 141 
L 488 750 
Q 750 597 1062 519 
Q 1375 441 1716 441 
Q 2309 441 2620 675 
Q 2931 909 2931 1356 
Q 2931 1769 2642 2001 
Q 2353 2234 1838 2234 
L 1294 2234 
L 1294 2753 
L 1863 2753 
Q 2328 2753 2575 2939 
Q 2822 3125 2822 3475 
Q 2822 3834 2567 4026 
Q 2313 4219 1838 4219 
Q 1578 4219 1281 4162 
Q 984 4106 628 3988 
L 628 4550 
Q 988 4650 1302 4700 
Q 1616 4750 1894 4750 
Q 2613 4750 3031 4423 
Q 3450 4097 3450 3541 
Q 3450 3153 3228 2886 
Q 3006 2619 2597 2516 
z
" transform="scale(0.015625)"/>
      <path id="DejaVuSans-41" d="M 2188 4044 
L 1331 1722 
L 3047 1722 
L 2188 4044 
z
M 1831 4666 
L 2547 4666 
L 4325 0 
L 3669 0 
L 3244 1197 
L 1141 1197 
L 716 0 
L 50 0 
L 1831 4666 
z
" transform="scale(0.015625)"/>
     </defs>
     <use xlink:href="#DejaVuSans-33"/>
     <use xlink:href="#DejaVuSans-41" x="63.623047"/>
    </g>
   </g>
   <g id="text_5">
    <!-- $I_1$ -->
    <g transform="translate(140.758 101.243125) scale(0.14 -0.14)">
     <use xlink:href="#DejaVuSans-Oblique-49" transform="translate(0 0.09375)"/>
     <use xlink:href="#DejaVuSans-31" transform="translate(29.492188 -16.3125) scale(0.7)"/>
    </g>
   </g>
   <g id="text_6">
    <!-- $I_3$ -->
    <g transform="translate(311.758 101.243125) scale(0.14 -0.14)">
     <use xlink:href="#DejaVuSans-Oblique-49" transform="translate(0 0.09375)"/>
     <use xlink:href="#DejaVuSans-33" transform="translate(29.492188 -16.3125) scale(0.7)"/>
    </g>
   </g>
   <g id="patch_10">
    <path d="M 231.648 10.08 
C 232.364048 10.08 233.050866 9.795511 233.557188 9.289188 
C 234.063511 8.782866 234.348 8.096048 234.348 7.38 
C 234.348 6.663952 234.063511 5.977134 233.557188 5.470812 
C 233.050866 4.964489 232.364048 4.68 231.648 4.68 
C 230.931952 4.68 230.245134 4.964489 229.738812 5.470812 
C 229.232489 5.977134 228.948 6.663952 228.948 7.38 
C 228.948 8.096048 229.232489 8.782866 229.738812 9.289188 
C 230.245134 9.795511 230.931952 10.08 231.648 10.08 
z
" clip-path="url(#p1492c2f311)" style="stroke: #000000; stroke-width: 2; stroke-linejoin: miter"/>
   </g>
   <g id="patch_11">
    <path d="M 231.648 190.08 
C 232.364048 190.08 233.050866 189.795511 233.557188 189.289188 
C 234.063511 188.782866 234.348 188.096048 234.348 187.38 
C 234.348 186.663952 234.063511 185.977134 233.557188 185.470812 
C 233.050866 184.964489 232.364048 184.68 231.648 184.68 
C 230.931952 184.68 230.245134 184.964489 229.738812 185.470812 
C 229.232489 185.977134 228.948 186.663952 228.948 187.38 
C 228.948 188.096048 229.232489 188.782866 229.738812 189.289188 
C 230.245134 189.795511 230.931952 190.08 231.648 190.08 
z
" clip-path="url(#p1492c2f311)" style="stroke: #000000; stroke-width: 2; stroke-linejoin: miter"/>
   </g>
  </g>
 </g>
 <defs>
  <clipPath id="p1492c2f311">
   <rect x="0" y="-0" width="455.316" height="194.76"/>
  </clipPath>
 </defs>
</svg>