<?xml version="1.0" encoding="utf-8" standalone="no"?>
<!DOCTYPE svg PUBLIC "-//W3C//DTD SVG 1.1//EN"
  "http://www.w3.org/Graphics/SVG/1.1/DTD/svg11.dtd">
<svg xmlns:xlink="http://www.w3.org/1999/xlink" width="311.316pt" height="146.66pt" viewBox="0 0 311.316 146.66" xmlns="http://www.w3.org/2000/svg" version="1.1">
 <metadata>
  <rdf:RDF xmlns:dc="http://purl.org/dc/elements/1.1/" xmlns:cc="http://creativecommons.org/ns#" xmlns:rdf="http://www.w3.org/1999/02/22-rdf-syntax-ns#">
   <cc:Work>
    <dc:type rdf:resource="http://purl.org/dc/dcmitype/StillImage"/>
    <dc:date>2025-05-14T19:10:33.446110</dc:date>
    <dc:format>image/svg+xml</dc:format>
    <dc:creator>
     <cc:Agent>
      <dc:title>Matplotlib v3.10.3, https://matplotlib.org/</dc:title>
     </cc:Agent>
    </dc:creator>
   </cc:Work>
  </rdf:RDF>
 </metadata>
 <defs>
  <style type="text/css">*{stroke-linejoin: round; stroke-linecap: butt}</style>
 </defs>
 <g id="figure_1">
  <g id="patch_1">
   <path d="M 0 146.66 
L 311.316 146.66 
L 311.316 0 
L 0 0 
z
" style="fill: #ffffff"/>
  </g>
  <g id="axes_1">
   <g id="patch_2">
    <path d="M 51.648 103.28 
C 56.421656 103.28 61.000438 101.383406 64.375922 98.007922 
C 67.751406 94.632438 69.648 90.053656 69.648 85.28 
C 69.648 80.506344 67.751406 75.927562 64.375922 72.552078 
C 61.000438 69.176594 56.421656 67.28 51.648 67.28 
C 46.874344 67.28 42.295562 69.176594 38.920078 72.552078 
C 35.544594 75.927562 33.648 80.506344 33.648 85.28 
C 33.648 90.053656 35.544594 94.632438 38.920078 98.007922 
C 42.295562 101.383406 46.874344 103.28 51.648 103.28 
L 51.648 103.28 
z
" clip-path="url(#pbbcb0ee43b)" style="fill: none; stroke: #000000; stroke-width: 2; stroke-linejoin: miter"/>
   </g>
   <g id="patch_3">
    <path d="M 267.648 103.28 
C 272.421656 103.28 277.000438 101.383406 280.375922 98.007922 
C 283.751406 94.632438 285.648 90.053656 285.648 85.28 
C 285.648 80.506344 283.751406 75.927562 280.375922 72.552078 
C 277.000438 69.176594 272.421656 67.28 267.648 67.28 
C 262.874344 67.28 258.295562 69.176594 254.920078 72.552078 
C 251.544594 75.927562 249.648 80.506344 249.648 85.28 
C 249.648 90.053656 251.544594 94.632438 254.920078 98.007922 
C 258.295562 101.383406 262.874344 103.28 267.648 103.28 
L 267.648 103.28 
z
" clip-path="url(#pbbcb0ee43b)" style="fill: none; stroke: #000000; stroke-width: 2; stroke-linejoin: miter"/>
   </g>
   <g id="patch_4">
    <path d="M 159.648 103.28 
C 164.421656 103.28 169.000438 101.383406 172.375922 98.007922 
C 175.751406 94.632438 177.648 90.053656 177.648 85.28 
C 177.648 80.506344 175.751406 75.927562 172.375922 72.552078 
C 169.000438 69.176594 164.421656 67.28 159.648 67.28 
C 154.874344 67.28 150.295562 69.176594 146.920078 72.552078 
C 143.544594 75.927562 141.648 80.506344 141.648 85.28 
C 141.648 90.053656 143.544594 94.632438 146.920078 98.007922 
C 150.295562 101.383406 154.874344 103.28 159.648 103.28 
L 159.648 103.28 
z
" clip-path="url(#pbbcb0ee43b)" style="fill: none; stroke: #000000; stroke-width: 2; stroke-linejoin: miter"/>
   </g>
   <g id="patch_5">
    <path d="M 80.581947 102.831439 
C 82.436544 105.480077 84.699281 107.818101 87.28582 109.758365 
C 89.872359 111.698629 92.750158 113.216723 95.811952 114.256062 
C 98.873746 115.295401 102.081015 115.842909 105.314212 115.878179 
C 108.54741 115.91345 111.765859 115.436038 114.849597 114.463739 
C 117.933336 113.49144 120.843568 112.036486 123.471818 110.153109 
C 126.100068 108.269731 128.41327 105.981625 130.325205 103.374075 
C 132.237139 100.766526 133.723752 97.872338 134.729631 94.799389 
C 135.735509 91.72644 136.248 88.51339 136.248 85.28 
C 136.248 82.04661 135.735509 78.83356 134.729631 75.760611 
C 133.723752 72.687662 132.237139 69.793474 130.325205 67.185925 
C 128.41327 64.578375 126.100068 62.290269 123.471818 60.406891 
C 120.843568 58.523514 117.933336 57.06856 114.849597 56.096261 
C 111.765859 55.123962 108.54741 54.64655 105.314212 54.681821 
C 102.081015 54.717091 98.873746 55.264599 95.811952 56.303938 
C 92.750158 57.343277 89.872359 58.861371 87.28582 60.801635 
C 84.699281 62.741899 82.436544 65.079923 80.581947 67.728561 
" clip-path="url(#pbbcb0ee43b)" style="fill: none; stroke: #ffa500; stroke-width: 2; stroke-linejoin: miter"/>
   </g>
   <g id="patch_6">
    <path d="M 85.950623 110.498702 
L 78.576724 104.67499 
L 80.77369 103.136658 
L 80.567203 102.841763 
L 80.596692 102.821115 
L 80.80318 103.116009 
L 83.000145 101.577677 
z
" clip-path="url(#pbbcb0ee43b)" style="fill: #ffa500; stroke: #ffa500; stroke-linejoin: miter"/>
   </g>
   <g id="patch_7">
    <path d="M 188.581947 102.831439 
C 190.436544 105.480077 192.699281 107.818101 195.28582 109.758365 
C 197.872359 111.698629 200.750158 113.216723 203.811952 114.256062 
C 206.873746 115.295401 210.081015 115.842909 213.314212 115.878179 
C 216.54741 115.91345 219.765859 115.436038 222.849597 114.463739 
C 225.933336 113.49144 228.843568 112.036486 231.471818 110.153109 
C 234.100068 108.269731 236.41327 105.981625 238.325205 103.374075 
C 240.237139 100.766526 241.723752 97.872338 242.729631 94.799389 
C 243.735509 91.72644 244.248 88.51339 244.248 85.28 
C 244.248 82.04661 243.735509 78.83356 242.729631 75.760611 
C 241.723752 72.687662 240.237139 69.793474 238.325205 67.185925 
C 236.41327 64.578375 234.100068 62.290269 231.471818 60.406891 
C 228.843568 58.523514 225.933336 57.06856 222.849597 56.096261 
C 219.765859 55.123962 216.54741 54.64655 213.314212 54.681821 
C 210.081015 54.717091 206.873746 55.264599 203.811952 56.303938 
C 200.750158 57.343277 197.872359 58.861371 195.28582 60.801635 
C 192.699281 62.741899 190.436544 65.079923 188.581947 67.728561 
" clip-path="url(#pbbcb0ee43b)" style="fill: none; stroke: #ffa500; stroke-width: 2; stroke-linejoin: miter"/>
   </g>
   <g id="patch_8">
    <path d="M 193.950623 110.498702 
L 186.576724 104.67499 
L 188.77369 103.136658 
L 188.567203 102.841763 
L 188.596692 102.821115 
L 188.80318 103.116009 
L 191.000145 101.577677 
z
" clip-path="url(#pbbcb0ee43b)" style="fill: #ffa500; stroke: #ffa500; stroke-linejoin: miter"/>
   </g>
   <g id="line2d_1">
    <path d="M 51.648 139.28 
L 51.648 103.28 
L 51.648 103.28 
M 51.648 67.28 
L 51.648 67.28 
L 51.648 31.28 
" clip-path="url(#pbbcb0ee43b)" style="fill: none; stroke: #000000; stroke-width: 2; stroke-linecap: round"/>
   </g>
   <g id="line2d_2">
    <path d="M 55.248 94.28 
L 48.048 94.28 
" clip-path="url(#pbbcb0ee43b)" style="fill: none; stroke: #000000; stroke-width: 2; stroke-linecap: round"/>
   </g>
   <g id="line2d_3">
    <path d="M 51.648 79.88 
L 51.648 72.68 
" clip-path="url(#pbbcb0ee43b)" style="fill: none; stroke: #000000; stroke-width: 2; stroke-linecap: round"/>
   </g>
   <g id="line2d_4">
    <path d="M 55.248 76.28 
L 48.048 76.28 
" clip-path="url(#pbbcb0ee43b)" style="fill: none; stroke: #000000; stroke-width: 2; stroke-linecap: round"/>
   </g>
   <g id="line2d_5">
    <path d="M 51.648 31.28 
L 87.648 31.28 
L 90.648 22.28 
L 96.648 40.28 
L 102.648 22.28 
L 108.648 40.28 
L 114.648 22.28 
L 120.648 40.28 
L 123.648 31.28 
L 159.648 31.28 
" clip-path="url(#pbbcb0ee43b)" style="fill: none; stroke: #000000; stroke-width: 2; stroke-linecap: round"/>
   </g>
   <g id="line2d_6">
    <path d="M 159.648 31.28 
L 195.648 31.28 
L 198.648 22.28 
L 204.648 40.28 
L 210.648 22.28 
L 216.648 40.28 
L 222.648 22.28 
L 228.648 40.28 
L 231.648 31.28 
L 267.648 31.28 
" clip-path="url(#pbbcb0ee43b)" style="fill: none; stroke: #000000; stroke-width: 2; stroke-linecap: round"/>
   </g>
   <g id="line2d_7">
    <path d="M 267.648 31.28 
L 267.648 67.28 
L 267.648 67.28 
M 267.648 103.28 
L 267.648 103.28 
L 267.648 139.28 
" clip-path="url(#pbbcb0ee43b)" style="fill: none; stroke: #000000; stroke-width: 2; stroke-linecap: round"/>
   </g>
   <g id="line2d_8">
    <path d="M 264.048 76.28 
L 271.248 76.28 
" clip-path="url(#pbbcb0ee43b)" style="fill: none; stroke: #000000; stroke-width: 2; stroke-linecap: round"/>
   </g>
   <g id="line2d_9">
    <path d="M 267.648 90.68 
L 267.648 97.88 
" clip-path="url(#pbbcb0ee43b)" style="fill: none; stroke: #000000; stroke-width: 2; stroke-linecap: round"/>
   </g>
   <g id="line2d_10">
    <path d="M 264.048 94.28 
L 271.248 94.28 
" clip-path="url(#pbbcb0ee43b)" style="fill: none; stroke: #000000; stroke-width: 2; stroke-linecap: round"/>
   </g>
   <g id="line2d_11">
    <path d="M 267.648 139.28 
L 213.648 139.28 
L 159.648 139.28 
" clip-path="url(#pbbcb0ee43b)" style="fill: none; stroke: #000000; stroke-width: 2; stroke-linecap: round"/>
   </g>
   <g id="line2d_12">
    <path d="M 159.648 139.28 
L 105.648 139.28 
L 51.648 139.28 
" clip-path="url(#pbbcb0ee43b)" style="fill: none; stroke: #000000; stroke-width: 2; stroke-linecap: round"/>
   </g>
   <g id="line2d_13">
    <path d="M 159.648 31.28 
L 159.648 67.28 
L 159.648 67.28 
M 159.648 103.28 
L 159.648 103.28 
L 159.648 139.28 
" clip-path="url(#pbbcb0ee43b)" style="fill: none; stroke: #000000; stroke-width: 2; stroke-linecap: round"/>
   </g>
   <g id="line2d_14">
    <path d="M 159.648 76.28 
L 159.648 85.28 
" clip-path="url(#pbbcb0ee43b)" style="fill: none; stroke: #000000; stroke-width: 2; stroke-linecap: round"/>
   </g>
   <g id="patch_9">
    <path d="M 162.348 85.28 
L 159.648 94.28 
L 156.948 85.28 
z
" clip-path="url(#pbbcb0ee43b)"/>
   </g>
   <g id="text_1">
    <!-- 21V -->
    <g transform="translate(2.656125 89.143125) scale(0.14 -0.14)">
     <defs>
      <path id="DejaVuSans-32" d="M 1228 531 
L 3431 531 
L 3431 0 
L 469 0 
L 469 531 
Q 828 903 1448 1529 
Q 2069 2156 2228 2338 
Q 2531 2678 2651 2914 
Q 2772 3150 2772 3378 
Q 2772 3750 2511 3984 
Q 2250 4219 1831 4219 
Q 1534 4219 1204 4116 
Q 875 4013 500 3803 
L 500 4441 
Q 881 4594 1212 4672 
Q 1544 4750 1819 4750 
Q 2544 4750 2975 4387 
Q 3406 4025 3406 3419 
Q 3406 3131 3298 2873 
Q 3191 2616 2906 2266 
Q 2828 2175 2409 1742 
Q 1991 1309 1228 531 
z
" transform="scale(0.015625)"/>
      <path id="DejaVuSans-31" d="M 794 531 
L 1825 531 
L 1825 4091 
L 703 3866 
L 703 4441 
L 1819 4666 
L 2450 4666 
L 2450 531 
L 3481 531 
L 3481 0 
L 794 0 
L 794 531 
z
" transform="scale(0.015625)"/>
      <path id="DejaVuSans-56" d="M 1831 0 
L 50 4666 
L 709 4666 
L 2188 738 
L 3669 4666 
L 4325 4666 
L 2547 0 
L 1831 0 
z
" transform="scale(0.015625)"/>
     </defs>
     <use xlink:href="#DejaVuSans-32"/>
     <use xlink:href="#DejaVuSans-31" transform="translate(63.623047 0)"/>
     <use xlink:href="#DejaVuSans-56" transform="translate(127.246094 0)"/>
    </g>
   </g>
   <g id="text_2">
    <!-- 6Ω -->
    <g transform="translate(95.844719 15.768437) scale(0.14 -0.14)">
     <defs>
      <path id="DejaVuSans-36" d="M 2113 2584 
Q 1688 2584 1439 2293 
Q 1191 2003 1191 1497 
Q 1191 994 1439 701 
Q 1688 409 2113 409 
Q 2538 409 2786 701 
Q 3034 994 3034 1497 
Q 3034 2003 2786 2293 
Q 2538 2584 2113 2584 
z
M 3366 4563 
L 3366 3988 
Q 3128 4100 2886 4159 
Q 2644 4219 2406 4219 
Q 1781 4219 1451 3797 
Q 1122 3375 1075 2522 
Q 1259 2794 1537 2939 
Q 1816 3084 2150 3084 
Q 2853 3084 3261 2657 
Q 3669 2231 3669 1497 
Q 3669 778 3244 343 
Q 2819 -91 2113 -91 
Q 1303 -91 875 529 
Q 447 1150 447 2328 
Q 447 3434 972 4092 
Q 1497 4750 2381 4750 
Q 2619 4750 2861 4703 
Q 3103 4656 3366 4563 
z
" transform="scale(0.015625)"/>
      <path id="DejaVuSans-3a9" d="M 4647 556 
L 4647 0 
L 2772 0 
L 2772 556 
Q 3325 859 3634 1378 
Q 3944 1897 3944 2528 
Q 3944 3278 3531 3731 
Q 3119 4184 2444 4184 
Q 1769 4184 1355 3729 
Q 941 3275 941 2528 
Q 941 1897 1250 1378 
Q 1563 859 2119 556 
L 2119 0 
L 244 0 
L 244 556 
L 1241 556 
Q 747 991 519 1456 
Q 294 1922 294 2497 
Q 294 3491 894 4106 
Q 1491 4722 2444 4722 
Q 3391 4722 3994 4106 
Q 4594 3494 4594 2528 
Q 4594 1922 4372 1459 
Q 4150 997 3647 556 
L 4647 556 
z
" transform="scale(0.015625)"/>
     </defs>
     <use xlink:href="#DejaVuSans-36"/>
     <use xlink:href="#DejaVuSans-3a9" transform="translate(63.623047 0)"/>
    </g>
   </g>
   <g id="text_3">
    <!-- 4Ω -->
    <g transform="translate(203.844719 15.768437) scale(0.14 -0.14)">
     <defs>
      <path id="DejaVuSans-34" d="M 2419 4116 
L 825 1625 
L 2419 1625 
L 2419 4116 
z
M 2253 4666 
L 3047 4666 
L 3047 1625 
L 3713 1625 
L 3713 1100 
L 3047 1100 
L 3047 0 
L 2419 0 
L 2419 1100 
L 313 1100 
L 313 1709 
L 2253 4666 
z
" transform="scale(0.015625)"/>
     </defs>
     <use xlink:href="#DejaVuSans-34"/>
     <use xlink:href="#DejaVuSans-3a9" transform="translate(63.623047 0)"/>
    </g>
   </g>
   <g id="text_4">
    <!-- 5V -->
    <g transform="translate(289.248 89.143125) scale(0.14 -0.14)">
     <defs>
      <path id="DejaVuSans-35" d="M 691 4666 
L 3169 4666 
L 3169 4134 
L 1269 4134 
L 1269 2991 
Q 1406 3038 1543 3061 
Q 1681 3084 1819 3084 
Q 2600 3084 3056 2656 
Q 3513 2228 3513 1497 
Q 3513 744 3044 326 
Q 2575 -91 1722 -91 
Q 1428 -91 1123 -41 
Q 819 9 494 109 
L 494 744 
Q 775 591 1075 516 
Q 1375 441 1709 441 
Q 2250 441 2565 725 
Q 2881 1009 2881 1497 
Q 2881 1984 2565 2268 
Q 2250 2553 1709 2553 
Q 1456 2553 1204 2497 
Q 953 2441 691 2322 
L 691 4666 
z
" transform="scale(0.015625)"/>
     </defs>
     <use xlink:href="#DejaVuSans-35"/>
     <use xlink:href="#DejaVuSans-56" transform="translate(63.623047 0)"/>
    </g>
   </g>
   <g id="text_5">
    <!-- 1A -->
    <g transform="translate(181.248 89.143125) scale(0.14 -0.14)">
     <defs>
      <path id="DejaVuSans-41" d="M 2188 4044 
L 1331 1722 
L 3047 1722 
L 2188 4044 
z
M 1831 4666 
L 2547 4666 
L 4325 0 
L 3669 0 
L 3244 1197 
L 1141 1197 
L 716 0 
L 50 0 
L 1831 4666 
z
" transform="scale(0.015625)"/>
     </defs>
     <use xlink:href="#DejaVuSans-31"/>
     <use xlink:href="#DejaVuSans-41" transform="translate(63.623047 0)"/>
    </g>
   </g>
   <g id="text_6">
    <!-- $i_1$ -->
    <g transform="translate(100.328 89.143125) scale(0.14 -0.14)">
     <defs>
      <path id="DejaVuSans-Oblique-69" d="M 1172 4863 
L 1747 4863 
L 1606 4134 
L 1031 4134 
L 1172 4863 
z
M 909 3500 
L 1484 3500 
L 800 0 
L 225 0 
L 909 3500 
z
" transform="scale(0.015625)"/>
     </defs>
     <use xlink:href="#DejaVuSans-Oblique-69" transform="translate(0 0.015625)"/>
     <use xlink:href="#DejaVuSans-31" transform="translate(27.783203 -16.390625) scale(0.7)"/>
    </g>
   </g>
   <g id="text_7">
    <!-- $i_2$ -->
    <g transform="translate(208.328 89.143125) scale(0.14 -0.14)">
     <use xlink:href="#DejaVuSans-Oblique-69" transform="translate(0 0.015625)"/>
     <use xlink:href="#DejaVuSans-32" transform="translate(27.783203 -16.390625) scale(0.7)"/>
    </g>
   </g>
   <g id="patch_10">
    <path d="M 159.648 33.98 
C 160.364048 33.98 161.050866 33.695511 161.557188 33.189188 
C 162.063511 32.682866 162.348 31.996048 162.348 31.28 
C 162.348 30.563952 162.063511 29.877134 161.557188 29.370812 
C 161.050866 28.864489 160.364048 28.58 159.648 28.58 
C 158.931952 28.58 158.245134 28.864489 157.738812 29.370812 
C 157.232489 29.877134 156.948 30.563952 156.948 31.28 
C 156.948 31.996048 157.232489 32.682866 157.738812 33.189188 
C 158.245134 33.695511 158.931952 33.98 159.648 33.98 
z
" clip-path="url(#pbbcb0ee43b)" style="stroke: #000000; stroke-width: 2; stroke-linejoin: miter"/>
   </g>
   <g id="patch_11">
    <path d="M 159.648 141.98 
C 160.364048 141.98 161.050866 141.695511 161.557188 141.189188 
C 162.063511 140.682866 162.348 139.996048 162.348 139.28 
C 162.348 138.563952 162.063511 137.877134 161.557188 137.370812 
C 161.050866 136.864489 160.364048 136.58 159.648 136.58 
C 158.931952 136.58 158.245134 136.864489 157.738812 137.370812 
C 157.232489 137.877134 156.948 138.563952 156.948 139.28 
C 156.948 139.996048 157.232489 140.682866 157.738812 141.189188 
C 158.245134 141.695511 158.931952 141.98 159.648 141.98 
z
" clip-path="url(#pbbcb0ee43b)" style="stroke: #000000; stroke-width: 2; stroke-linejoin: miter"/>
   </g>
  </g>
 </g>
 <defs>
  <clipPath id="pbbcb0ee43b">
   <rect x="0" y="0" width="311.316" height="146.66"/>
  </clipPath>
 </defs>
</svg>