<?xml version="1.0" encoding="utf-8" standalone="no"?>
<!DOCTYPE svg PUBLIC "-//W3C//DTD SVG 1.1//EN"
  "http://www.w3.org/Graphics/SVG/1.1/DTD/svg11.dtd">
<svg xmlns:xlink="http://www.w3.org/1999/xlink" width="215.400312pt" height="356.4pt" viewBox="0 0 215.400312 356.4" xmlns="http://www.w3.org/2000/svg" version="1.1">
 <metadata>
  <rdf:RDF xmlns:dc="http://purl.org/dc/elements/1.1/" xmlns:cc="http://creativecommons.org/ns#" xmlns:rdf="http://www.w3.org/1999/02/22-rdf-syntax-ns#">
   <cc:Work>
    <dc:type rdf:resource="http://purl.org/dc/dcmitype/StillImage"/>
    <dc:date>2024-10-28T15:23:29.875055</dc:date>
    <dc:format>image/svg+xml</dc:format>
    <dc:creator>
     <cc:Agent>
      <dc:title>Matplotlib v3.9.2, https://matplotlib.org/</dc:title>
     </cc:Agent>
    </dc:creator>
   </cc:Work>
  </rdf:RDF>
 </metadata>
 <defs>
  <style type="text/css">*{stroke-linejoin: round; stroke-linecap: butt}</style>
 </defs>
 <g id="figure_1">
  <g id="patch_1">
   <path d="M 0 356.4 
L 215.400312 356.4 
L 215.400312 0 
L 0 0 
z
" style="fill: #ffffff"/>
  </g>
  <g id="axes_1">
   <g id="patch_2">
    <path d="M 93.720313 112.68 
C 98.493968 112.68 103.07275 110.783406 106.448235 107.407922 
C 109.823719 104.032438 111.720313 99.453656 111.720313 94.68 
C 111.720313 89.906344 109.823719 85.327562 106.448235 81.952078 
C 103.07275 78.576594 98.493968 76.68 93.720313 76.68 
C 88.946657 76.68 84.367875 78.576594 80.99239 81.952078 
C 77.616906 85.327562 75.720313 89.906344 75.720313 94.68 
C 75.720313 99.453656 77.616906 104.032438 80.99239 107.407922 
C 84.367875 110.783406 88.946657 112.68 93.720313 112.68 
L 93.720313 112.68 
z
" clip-path="url(#pf667f238ae)" style="fill: none; stroke: #000000; stroke-width: 2; stroke-linejoin: miter"/>
   </g>
   <g id="patch_3">
    <path d="M 129.720313 112.68 
C 134.493968 112.68 139.07275 110.783406 142.448235 107.407922 
C 145.823719 104.032438 147.720313 99.453656 147.720313 94.68 
C 147.720313 89.906344 145.823719 85.327562 142.448235 81.952078 
C 139.07275 78.576594 134.493968 76.68 129.720313 76.68 
C 124.946657 76.68 120.367875 78.576594 116.99239 81.952078 
C 113.616906 85.327562 111.720313 89.906344 111.720313 94.68 
C 111.720313 99.453656 113.616906 104.032438 116.99239 107.407922 
C 120.367875 110.783406 124.946657 112.68 129.720313 112.68 
L 129.720313 112.68 
z
" clip-path="url(#pf667f238ae)" style="fill: none; stroke: #000000; stroke-width: 2; stroke-linejoin: miter"/>
   </g>
   <g id="line2d_1">
    <path d="M 93.720313 148.68 
L 93.720313 112.68 
L 93.720313 112.68 
M 93.720313 76.68 
L 93.720313 76.68 
L 93.720313 40.68 
" clip-path="url(#pf667f238ae)" style="fill: none; stroke: #000000; stroke-width: 2; stroke-linecap: round"/>
   </g>
   <g id="line2d_2">
    <path d="M 90.120313 85.68 
L 97.320313 85.68 
" clip-path="url(#pf667f238ae)" style="fill: none; stroke: #000000; stroke-width: 2; stroke-linecap: round"/>
   </g>
   <g id="line2d_3">
    <path d="M 93.720313 107.28 
L 93.720313 100.08 
" clip-path="url(#pf667f238ae)" style="fill: none; stroke: #000000; stroke-width: 2; stroke-linecap: round"/>
   </g>
   <g id="line2d_4">
    <path d="M 90.120313 103.68 
L 97.320313 103.68 
" clip-path="url(#pf667f238ae)" style="fill: none; stroke: #000000; stroke-width: 2; stroke-linecap: round"/>
   </g>
   <g id="line2d_5">
    <path d="M 129.720313 148.68 
L 129.720313 112.68 
L 129.720313 112.68 
M 129.720313 76.68 
L 129.720313 76.68 
L 129.720313 40.68 
" clip-path="url(#pf667f238ae)" style="fill: none; stroke: #000000; stroke-width: 2; stroke-linecap: round"/>
   </g>
   <g id="line2d_6">
    <path d="M 126.120313 85.68 
L 133.320312 85.68 
" clip-path="url(#pf667f238ae)" style="fill: none; stroke: #000000; stroke-width: 2; stroke-linecap: round"/>
   </g>
   <g id="line2d_7">
    <path d="M 129.720313 107.28 
L 129.720313 100.08 
" clip-path="url(#pf667f238ae)" style="fill: none; stroke: #000000; stroke-width: 2; stroke-linecap: round"/>
   </g>
   <g id="line2d_8">
    <path d="M 126.120313 103.68 
L 133.320312 103.68 
" clip-path="url(#pf667f238ae)" style="fill: none; stroke: #000000; stroke-width: 2; stroke-linecap: round"/>
   </g>
   <g id="line2d_9">
    <path d="M 129.720313 148.68 
M 133.320312 157.32 
L 145.920312 177.48 
M 129.720313 184.68 
" clip-path="url(#pf667f238ae)" style="fill: none; stroke: #000000; stroke-width: 2; stroke-linecap: round"/>
   </g>
   <g id="line2d_10">
    <path d="M 93.720313 148.68 
M 97.320312 157.32 
L 109.920312 177.48 
M 93.720312 184.68 
" clip-path="url(#pf667f238ae)" style="fill: none; stroke: #000000; stroke-width: 2; stroke-linecap: round"/>
   </g>
   <g id="line2d_11">
    <path d="M 102.720313 166.68 
L 136.920312 166.68 
" clip-path="url(#pf667f238ae)" style="fill: none; stroke-dasharray: 2,3.3; stroke-dashoffset: 0; stroke: #000000; stroke-width: 2"/>
   </g>
   <g id="line2d_12">
    <path d="M 93.720313 40.68 
L 93.720313 22.68 
L 93.720313 4.68 
" clip-path="url(#pf667f238ae)" style="fill: none; stroke: #000000; stroke-width: 2; stroke-linecap: round"/>
   </g>
   <g id="line2d_13">
    <path d="M 93.720313 4.68 
L 57.720313 4.68 
L 21.720313 4.68 
" clip-path="url(#pf667f238ae)" style="fill: none; stroke: #000000; stroke-width: 2; stroke-linecap: round"/>
   </g>
   <g id="line2d_14">
    <path d="M 21.720313 4.68 
L 21.720313 40.68 
L 21.720312 76.68 
" clip-path="url(#pf667f238ae)" style="fill: none; stroke: #000000; stroke-width: 2; stroke-linecap: round"/>
   </g>
   <g id="line2d_15">
    <path d="M 21.720312 76.68 
L 21.720312 91.08 
L 12.720312 91.08 
L 30.720312 91.08 
M 15.420312 95.4 
L 28.020312 95.4 
M 19.920312 99.72 
L 23.520312 99.72 
" clip-path="url(#pf667f238ae)" style="fill: none; stroke: #000000; stroke-width: 2; stroke-linecap: round"/>
   </g>
   <g id="line2d_16">
    <path d="M 129.720313 40.68 
L 129.720313 22.68 
L 129.720313 4.68 
" clip-path="url(#pf667f238ae)" style="fill: none; stroke: #000000; stroke-width: 2; stroke-linecap: round"/>
   </g>
   <g id="line2d_17">
    <path d="M 129.720313 4.68 
L 165.720313 4.68 
L 201.720313 4.68 
" clip-path="url(#pf667f238ae)" style="fill: none; stroke: #000000; stroke-width: 2; stroke-linecap: round"/>
   </g>
   <g id="line2d_18">
    <path d="M 201.720313 4.68 
L 201.720313 40.68 
L 201.720312 76.68 
" clip-path="url(#pf667f238ae)" style="fill: none; stroke: #000000; stroke-width: 2; stroke-linecap: round"/>
   </g>
   <g id="line2d_19">
    <path d="M 201.720312 76.68 
L 201.720312 91.08 
L 192.720312 91.08 
L 210.720312 91.08 
M 195.420312 95.4 
L 208.020312 95.4 
M 199.920312 99.72 
L 203.520312 99.72 
" clip-path="url(#pf667f238ae)" style="fill: none; stroke: #000000; stroke-width: 2; stroke-linecap: round"/>
   </g>
   <g id="line2d_20">
    <path d="M 93.720313 184.68 
L 93.720313 220.68 
L 102.720313 223.68 
L 84.720313 229.68 
L 102.720312 235.68 
L 84.720312 241.68 
L 102.720312 247.68 
L 84.720312 253.68 
L 93.720312 256.68 
L 93.720312 292.68 
" clip-path="url(#pf667f238ae)" style="fill: none; stroke: #000000; stroke-width: 2; stroke-linecap: round"/>
   </g>
   <g id="line2d_21">
    <path d="M 93.720313 292.68 
L 93.720313 310.68 
L 93.720313 328.68 
" clip-path="url(#pf667f238ae)" style="fill: none; stroke: #000000; stroke-width: 2; stroke-linecap: round"/>
   </g>
   <g id="line2d_22">
    <path d="M 93.720313 328.68 
L 93.720313 343.08 
L 84.720313 343.08 
L 102.720313 343.08 
M 87.420312 347.4 
L 100.020313 347.4 
M 91.920312 351.72 
L 95.520313 351.72 
" clip-path="url(#pf667f238ae)" style="fill: none; stroke: #000000; stroke-width: 2; stroke-linecap: round"/>
   </g>
   <g id="line2d_23">
    <path d="M 129.720313 184.68 
L 129.720313 220.68 
L 138.720313 223.68 
L 120.720313 229.68 
L 138.720313 235.68 
L 120.720313 241.68 
L 138.720312 247.68 
L 120.720312 253.68 
L 129.720312 256.68 
L 129.720312 292.68 
" clip-path="url(#pf667f238ae)" style="fill: none; stroke: #000000; stroke-width: 2; stroke-linecap: round"/>
   </g>
   <g id="line2d_24">
    <path d="M 129.720313 292.68 
L 129.720313 310.68 
L 129.720313 328.68 
" clip-path="url(#pf667f238ae)" style="fill: none; stroke: #000000; stroke-width: 2; stroke-linecap: round"/>
   </g>
   <g id="line2d_25">
    <path d="M 129.720313 328.68 
L 129.720313 343.08 
L 120.720313 343.08 
L 138.720313 343.08 
M 123.420312 347.4 
L 136.020312 347.4 
M 127.920312 351.72 
L 131.520312 351.72 
" clip-path="url(#pf667f238ae)" style="fill: none; stroke: #000000; stroke-width: 2; stroke-linecap: round"/>
   </g>
   <g id="text_1">
    <!-- V1 -->
    <g transform="translate(53.635938 98.543125) scale(0.14 -0.14)">
     <defs>
      <path id="DejaVuSans-56" d="M 1831 0 
L 50 4666 
L 709 4666 
L 2188 738 
L 3669 4666 
L 4325 4666 
L 2547 0 
L 1831 0 
z
" transform="scale(0.015625)"/>
      <path id="DejaVuSans-31" d="M 794 531 
L 1825 531 
L 1825 4091 
L 703 3866 
L 703 4441 
L 1819 4666 
L 2450 4666 
L 2450 531 
L 3481 531 
L 3481 0 
L 794 0 
L 794 531 
z
" transform="scale(0.015625)"/>
     </defs>
     <use xlink:href="#DejaVuSans-56"/>
     <use xlink:href="#DejaVuSans-31" x="68.408203"/>
    </g>
   </g>
   <g id="text_2">
    <!-- V2 -->
    <g transform="translate(151.320312 98.543125) scale(0.14 -0.14)">
     <defs>
      <path id="DejaVuSans-32" d="M 1228 531 
L 3431 531 
L 3431 0 
L 469 0 
L 469 531 
Q 828 903 1448 1529 
Q 2069 2156 2228 2338 
Q 2531 2678 2651 2914 
Q 2772 3150 2772 3378 
Q 2772 3750 2511 3984 
Q 2250 4219 1831 4219 
Q 1534 4219 1204 4116 
Q 875 4013 500 3803 
L 500 4441 
Q 881 4594 1212 4672 
Q 1544 4750 1819 4750 
Q 2544 4750 2975 4387 
Q 3406 4025 3406 3419 
Q 3406 3131 3298 2873 
Q 3191 2616 2906 2266 
Q 2828 2175 2409 1742 
Q 1991 1309 1228 531 
z
" transform="scale(0.015625)"/>
     </defs>
     <use xlink:href="#DejaVuSans-56"/>
     <use xlink:href="#DejaVuSans-32" x="68.408203"/>
    </g>
   </g>
   <g id="patch_4">
    <path d="M 129.720313 157.32 
C 130.86599 157.32 131.964898 156.864818 132.775014 156.054701 
C 133.58513 155.244585 134.040312 154.145677 134.040312 153 
C 134.040312 151.854323 133.58513 150.755415 132.775014 149.945299 
C 131.964898 149.135182 130.86599 148.68 129.720313 148.68 
C 128.574635 148.68 127.475727 149.135182 126.665611 149.945299 
C 125.855495 150.755415 125.400313 151.854323 125.400313 153 
C 125.400313 154.145677 125.855495 155.244585 126.665611 156.054701 
C 127.475727 156.864818 128.574635 157.32 129.720313 157.32 
z
" clip-path="url(#pf667f238ae)" style="fill: #ffffff; stroke: #000000; stroke-width: 2; stroke-linejoin: miter"/>
   </g>
   <g id="patch_5">
    <path d="M 129.720313 184.68 
C 130.86599 184.68 131.964898 184.224818 132.775014 183.414701 
C 133.58513 182.604585 134.040312 181.505677 134.040312 180.36 
C 134.040312 179.214323 133.58513 178.115415 132.775014 177.305299 
C 131.964898 176.495182 130.86599 176.04 129.720313 176.04 
C 128.574635 176.04 127.475727 176.495182 126.665611 177.305299 
C 125.855495 178.115415 125.400313 179.214323 125.400313 180.36 
C 125.400313 181.505677 125.855495 182.604585 126.665611 183.414701 
C 127.475727 184.224818 128.574635 184.68 129.720313 184.68 
z
" clip-path="url(#pf667f238ae)" style="fill: #ffffff; stroke: #000000; stroke-width: 2; stroke-linejoin: miter"/>
   </g>
   <g id="patch_6">
    <path d="M 93.720313 157.32 
C 94.86599 157.32 95.964898 156.864818 96.775014 156.054701 
C 97.58513 155.244585 98.040312 154.145677 98.040312 153 
C 98.040312 151.854323 97.58513 150.755415 96.775014 149.945299 
C 95.964898 149.135182 94.86599 148.68 93.720313 148.68 
C 92.574635 148.68 91.475727 149.135182 90.665611 149.945299 
C 89.855495 150.755415 89.400313 151.854323 89.400313 153 
C 89.400313 154.145677 89.855495 155.244585 90.665611 156.054701 
C 91.475727 156.864818 92.574635 157.32 93.720313 157.32 
z
" clip-path="url(#pf667f238ae)" style="fill: #ffffff; stroke: #000000; stroke-width: 2; stroke-linejoin: miter"/>
   </g>
   <g id="patch_7">
    <path d="M 93.720312 184.68 
C 94.86599 184.68 95.964898 184.224818 96.775014 183.414701 
C 97.58513 182.604585 98.040312 181.505677 98.040312 180.36 
C 98.040312 179.214323 97.58513 178.115415 96.775014 177.305299 
C 95.964898 176.495182 94.86599 176.04 93.720312 176.04 
C 92.574635 176.04 91.475727 176.495182 90.665611 177.305299 
C 89.855495 178.115415 89.400312 179.214323 89.400312 180.36 
C 89.400312 181.505677 89.855495 182.604585 90.665611 183.414701 
C 91.475727 184.224818 92.574635 184.68 93.720312 184.68 
z
" clip-path="url(#pf667f238ae)" style="fill: #ffffff; stroke: #000000; stroke-width: 2; stroke-linejoin: miter"/>
   </g>
   <g id="text_3">
    <!-- DPST switch -->
    <g transform="translate(0 170.543125) scale(0.14 -0.14)">
     <defs>
      <path id="DejaVuSans-44" d="M 1259 4147 
L 1259 519 
L 2022 519 
Q 2988 519 3436 956 
Q 3884 1394 3884 2338 
Q 3884 3275 3436 3711 
Q 2988 4147 2022 4147 
L 1259 4147 
z
M 628 4666 
L 1925 4666 
Q 3281 4666 3915 4102 
Q 4550 3538 4550 2338 
Q 4550 1131 3912 565 
Q 3275 0 1925 0 
L 628 0 
L 628 4666 
z
" transform="scale(0.015625)"/>
      <path id="DejaVuSans-50" d="M 1259 4147 
L 1259 2394 
L 2053 2394 
Q 2494 2394 2734 2622 
Q 2975 2850 2975 3272 
Q 2975 3691 2734 3919 
Q 2494 4147 2053 4147 
L 1259 4147 
z
M 628 4666 
L 2053 4666 
Q 2838 4666 3239 4311 
Q 3641 3956 3641 3272 
Q 3641 2581 3239 2228 
Q 2838 1875 2053 1875 
L 1259 1875 
L 1259 0 
L 628 0 
L 628 4666 
z
" transform="scale(0.015625)"/>
      <path id="DejaVuSans-53" d="M 3425 4513 
L 3425 3897 
Q 3066 4069 2747 4153 
Q 2428 4238 2131 4238 
Q 1616 4238 1336 4038 
Q 1056 3838 1056 3469 
Q 1056 3159 1242 3001 
Q 1428 2844 1947 2747 
L 2328 2669 
Q 3034 2534 3370 2195 
Q 3706 1856 3706 1288 
Q 3706 609 3251 259 
Q 2797 -91 1919 -91 
Q 1588 -91 1214 -16 
Q 841 59 441 206 
L 441 856 
Q 825 641 1194 531 
Q 1563 422 1919 422 
Q 2459 422 2753 634 
Q 3047 847 3047 1241 
Q 3047 1584 2836 1778 
Q 2625 1972 2144 2069 
L 1759 2144 
Q 1053 2284 737 2584 
Q 422 2884 422 3419 
Q 422 4038 858 4394 
Q 1294 4750 2059 4750 
Q 2388 4750 2728 4690 
Q 3069 4631 3425 4513 
z
" transform="scale(0.015625)"/>
      <path id="DejaVuSans-54" d="M -19 4666 
L 3928 4666 
L 3928 4134 
L 2272 4134 
L 2272 0 
L 1638 0 
L 1638 4134 
L -19 4134 
L -19 4666 
z
" transform="scale(0.015625)"/>
      <path id="DejaVuSans-20" transform="scale(0.015625)"/>
      <path id="DejaVuSans-73" d="M 2834 3397 
L 2834 2853 
Q 2591 2978 2328 3040 
Q 2066 3103 1784 3103 
Q 1356 3103 1142 2972 
Q 928 2841 928 2578 
Q 928 2378 1081 2264 
Q 1234 2150 1697 2047 
L 1894 2003 
Q 2506 1872 2764 1633 
Q 3022 1394 3022 966 
Q 3022 478 2636 193 
Q 2250 -91 1575 -91 
Q 1294 -91 989 -36 
Q 684 19 347 128 
L 347 722 
Q 666 556 975 473 
Q 1284 391 1588 391 
Q 1994 391 2212 530 
Q 2431 669 2431 922 
Q 2431 1156 2273 1281 
Q 2116 1406 1581 1522 
L 1381 1569 
Q 847 1681 609 1914 
Q 372 2147 372 2553 
Q 372 3047 722 3315 
Q 1072 3584 1716 3584 
Q 2034 3584 2315 3537 
Q 2597 3491 2834 3397 
z
" transform="scale(0.015625)"/>
      <path id="DejaVuSans-77" d="M 269 3500 
L 844 3500 
L 1563 769 
L 2278 3500 
L 2956 3500 
L 3675 769 
L 4391 3500 
L 4966 3500 
L 4050 0 
L 3372 0 
L 2619 2869 
L 1863 0 
L 1184 0 
L 269 3500 
z
" transform="scale(0.015625)"/>
      <path id="DejaVuSans-69" d="M 603 3500 
L 1178 3500 
L 1178 0 
L 603 0 
L 603 3500 
z
M 603 4863 
L 1178 4863 
L 1178 4134 
L 603 4134 
L 603 4863 
z
" transform="scale(0.015625)"/>
      <path id="DejaVuSans-74" d="M 1172 4494 
L 1172 3500 
L 2356 3500 
L 2356 3053 
L 1172 3053 
L 1172 1153 
Q 1172 725 1289 603 
Q 1406 481 1766 481 
L 2356 481 
L 2356 0 
L 1766 0 
Q 1100 0 847 248 
Q 594 497 594 1153 
L 594 3053 
L 172 3053 
L 172 3500 
L 594 3500 
L 594 4494 
L 1172 4494 
z
" transform="scale(0.015625)"/>
      <path id="DejaVuSans-63" d="M 3122 3366 
L 3122 2828 
Q 2878 2963 2633 3030 
Q 2388 3097 2138 3097 
Q 1578 3097 1268 2742 
Q 959 2388 959 1747 
Q 959 1106 1268 751 
Q 1578 397 2138 397 
Q 2388 397 2633 464 
Q 2878 531 3122 666 
L 3122 134 
Q 2881 22 2623 -34 
Q 2366 -91 2075 -91 
Q 1284 -91 818 406 
Q 353 903 353 1747 
Q 353 2603 823 3093 
Q 1294 3584 2113 3584 
Q 2378 3584 2631 3529 
Q 2884 3475 3122 3366 
z
" transform="scale(0.015625)"/>
      <path id="DejaVuSans-68" d="M 3513 2113 
L 3513 0 
L 2938 0 
L 2938 2094 
Q 2938 2591 2744 2837 
Q 2550 3084 2163 3084 
Q 1697 3084 1428 2787 
Q 1159 2491 1159 1978 
L 1159 0 
L 581 0 
L 581 4863 
L 1159 4863 
L 1159 2956 
Q 1366 3272 1645 3428 
Q 1925 3584 2291 3584 
Q 2894 3584 3203 3211 
Q 3513 2838 3513 2113 
z
" transform="scale(0.015625)"/>
     </defs>
     <use xlink:href="#DejaVuSans-44"/>
     <use xlink:href="#DejaVuSans-50" x="77.001953"/>
     <use xlink:href="#DejaVuSans-53" x="137.304688"/>
     <use xlink:href="#DejaVuSans-54" x="200.78125"/>
     <use xlink:href="#DejaVuSans-20" x="261.865234"/>
     <use xlink:href="#DejaVuSans-73" x="293.652344"/>
     <use xlink:href="#DejaVuSans-77" x="345.751953"/>
     <use xlink:href="#DejaVuSans-69" x="427.539062"/>
     <use xlink:href="#DejaVuSans-74" x="455.322266"/>
     <use xlink:href="#DejaVuSans-63" x="494.53125"/>
     <use xlink:href="#DejaVuSans-68" x="549.511719"/>
    </g>
   </g>
   <g id="text_4">
    <!-- R1 -->
    <g transform="translate(62.485 242.543125) scale(0.14 -0.14)">
     <defs>
      <path id="DejaVuSans-52" d="M 2841 2188 
Q 3044 2119 3236 1894 
Q 3428 1669 3622 1275 
L 4263 0 
L 3584 0 
L 2988 1197 
Q 2756 1666 2539 1819 
Q 2322 1972 1947 1972 
L 1259 1972 
L 1259 0 
L 628 0 
L 628 4666 
L 2053 4666 
Q 2853 4666 3247 4331 
Q 3641 3997 3641 3322 
Q 3641 2881 3436 2590 
Q 3231 2300 2841 2188 
z
M 1259 4147 
L 1259 2491 
L 2053 2491 
Q 2509 2491 2742 2702 
Q 2975 2913 2975 3322 
Q 2975 3731 2742 3939 
Q 2509 4147 2053 4147 
L 1259 4147 
z
" transform="scale(0.015625)"/>
     </defs>
     <use xlink:href="#DejaVuSans-52"/>
     <use xlink:href="#DejaVuSans-31" x="69.482422"/>
    </g>
   </g>
   <g id="text_5">
    <!-- R2 -->
    <g transform="translate(142.320312 242.543125) scale(0.14 -0.14)">
     <use xlink:href="#DejaVuSans-52"/>
     <use xlink:href="#DejaVuSans-32" x="69.482422"/>
    </g>
   </g>
  </g>
 </g>
 <defs>
  <clipPath id="pf667f238ae">
   <rect x="2.832312" y="0" width="212.568" height="356.4"/>
  </clipPath>
 </defs>
</svg>