<?xml version="1.0" encoding="utf-8" standalone="no"?>
<!DOCTYPE svg PUBLIC "-//W3C//DTD SVG 1.1//EN"
  "http://www.w3.org/Graphics/SVG/1.1/DTD/svg11.dtd">
<svg xmlns:xlink="http://www.w3.org/1999/xlink" width="471.216pt" height="268.7pt" viewBox="0 0 471.216 268.7" xmlns="http://www.w3.org/2000/svg" version="1.1">
 <metadata>
  <rdf:RDF xmlns:dc="http://purl.org/dc/elements/1.1/" xmlns:cc="http://creativecommons.org/ns#" xmlns:rdf="http://www.w3.org/1999/02/22-rdf-syntax-ns#">
   <cc:Work>
    <dc:type rdf:resource="http://purl.org/dc/dcmitype/StillImage"/>
    <dc:date>2025-05-14T19:10:18.815837</dc:date>
    <dc:format>image/svg+xml</dc:format>
    <dc:creator>
     <cc:Agent>
      <dc:title>Matplotlib v3.10.3, https://matplotlib.org/</dc:title>
     </cc:Agent>
    </dc:creator>
   </cc:Work>
  </rdf:RDF>
 </metadata>
 <defs>
  <style type="text/css">*{stroke-linejoin: round; stroke-linecap: butt}</style>
 </defs>
 <g id="figure_1">
  <g id="patch_1">
   <path d="M 0 268.7 
L 471.216 268.7 
L 471.216 0 
L 0 0 
z
" style="fill: #ffffff"/>
  </g>
  <g id="axes_1">
   <g id="line2d_1">
    <path d="M 34.668 240.98 
L 34.668 255.38 
L 25.668 255.38 
L 43.668 255.38 
M 28.368 259.7 
L 40.968 259.7 
M 32.868 264.02 
L 36.468 264.02 
" clip-path="url(#pf173952864)" style="fill: none; stroke: #000000; stroke-width: 2; stroke-linecap: round"/>
   </g>
   <g id="line2d_2">
    <path d="M 34.668 240.98 
L 34.668 204.98 
L 25.668 201.98 
L 43.668 195.98 
L 25.668 189.98 
L 43.668 183.98 
L 25.668 177.98 
L 43.668 171.98 
L 34.668 168.98 
L 34.668 132.98 
" clip-path="url(#pf173952864)" style="fill: none; stroke: #000000; stroke-width: 2; stroke-linecap: round"/>
   </g>
   <g id="line2d_3">
    <path d="M 34.668 132.98 
L 52.668 132.98 
L 70.668 132.98 
" clip-path="url(#pf173952864)" style="fill: none; stroke: #000000; stroke-width: 2; stroke-linecap: round"/>
   </g>
   <g id="line2d_4">
    <path d="M 70.668 132.98 
L 70.668 96.98 
L 61.668 93.98 
L 79.668 87.98 
L 61.668 81.98 
L 79.668 75.98 
L 61.668 69.98 
L 79.668 63.98 
L 70.668 60.98 
L 70.668 24.98 
" clip-path="url(#pf173952864)" style="fill: none; stroke: #000000; stroke-width: 2; stroke-linecap: round"/>
   </g>
   <g id="line2d_5">
    <path d="M 70.668 132.98 
L 106.668 132.98 
L 109.668 123.98 
L 115.668 141.98 
L 121.668 123.98 
L 127.668 141.98 
L 133.668 123.98 
L 139.668 141.98 
L 142.668 132.98 
L 178.668 132.98 
" clip-path="url(#pf173952864)" style="fill: none; stroke: #000000; stroke-width: 2; stroke-linecap: round"/>
   </g>
   <g id="line2d_6">
    <path d="M 178.668 132.98 
L 178.668 96.98 
L 169.668 93.98 
L 187.668 87.98 
L 169.668 81.98 
L 187.668 75.98 
L 169.668 69.98 
L 187.668 63.98 
L 178.668 60.98 
L 178.668 24.98 
" clip-path="url(#pf173952864)" style="fill: none; stroke: #000000; stroke-width: 2; stroke-linecap: round"/>
   </g>
   <g id="line2d_7">
    <path d="M 178.668 132.98 
L 214.668 132.98 
L 217.668 123.98 
L 223.668 141.98 
L 229.668 123.98 
L 235.668 141.98 
L 241.668 123.98 
L 247.668 141.98 
L 250.668 132.98 
L 286.668 132.98 
" clip-path="url(#pf173952864)" style="fill: none; stroke: #000000; stroke-width: 2; stroke-linecap: round"/>
   </g>
   <g id="line2d_8">
    <path d="M 286.668 132.98 
L 286.668 96.98 
L 277.668 93.98 
L 295.668 87.98 
L 277.668 81.98 
L 295.668 75.98 
L 277.668 69.98 
L 295.668 63.98 
L 286.668 60.98 
L 286.668 24.98 
" clip-path="url(#pf173952864)" style="fill: none; stroke: #000000; stroke-width: 2; stroke-linecap: round"/>
   </g>
   <g id="line2d_9">
    <path d="M 286.668 132.98 
L 322.668 132.98 
L 325.668 123.98 
L 331.668 141.98 
L 337.668 123.98 
L 343.668 141.98 
L 349.668 123.98 
L 355.668 141.98 
L 358.668 132.98 
L 394.668 132.98 
" clip-path="url(#pf173952864)" style="fill: none; stroke: #000000; stroke-width: 2; stroke-linecap: round"/>
   </g>
   <g id="line2d_10">
    <path d="M 394.668 132.98 
L 394.668 96.98 
L 385.668 93.98 
L 403.668 87.98 
L 385.668 81.98 
L 403.668 75.98 
L 385.668 69.98 
L 403.668 63.98 
L 394.668 60.98 
L 394.668 24.98 
" clip-path="url(#pf173952864)" style="fill: none; stroke: #000000; stroke-width: 2; stroke-linecap: round"/>
   </g>
   <g id="line2d_11">
    <path d="M 394.668 132.98 
L 412.668 132.98 
L 430.668 132.98 
" clip-path="url(#pf173952864)" style="fill: none; stroke: #000000; stroke-width: 2; stroke-linecap: round"/>
   </g>
   <g id="text_1">
    <!-- 2R -->
    <g transform="translate(3.432687 190.843125) scale(0.14 -0.14)">
     <defs>
      <path id="DejaVuSans-32" d="M 1228 531 
L 3431 531 
L 3431 0 
L 469 0 
L 469 531 
Q 828 903 1448 1529 
Q 2069 2156 2228 2338 
Q 2531 2678 2651 2914 
Q 2772 3150 2772 3378 
Q 2772 3750 2511 3984 
Q 2250 4219 1831 4219 
Q 1534 4219 1204 4116 
Q 875 4013 500 3803 
L 500 4441 
Q 881 4594 1212 4672 
Q 1544 4750 1819 4750 
Q 2544 4750 2975 4387 
Q 3406 4025 3406 3419 
Q 3406 3131 3298 2873 
Q 3191 2616 2906 2266 
Q 2828 2175 2409 1742 
Q 1991 1309 1228 531 
z
" transform="scale(0.015625)"/>
      <path id="DejaVuSans-52" d="M 2841 2188 
Q 3044 2119 3236 1894 
Q 3428 1669 3622 1275 
L 4263 0 
L 3584 0 
L 2988 1197 
Q 2756 1666 2539 1819 
Q 2322 1972 1947 1972 
L 1259 1972 
L 1259 0 
L 628 0 
L 628 4666 
L 2053 4666 
Q 2853 4666 3247 4331 
Q 3641 3997 3641 3322 
Q 3641 2881 3436 2590 
Q 3231 2300 2841 2188 
z
M 1259 4147 
L 1259 2491 
L 2053 2491 
Q 2509 2491 2742 2702 
Q 2975 2913 2975 3322 
Q 2975 3731 2742 3939 
Q 2509 4147 2053 4147 
L 1259 4147 
z
" transform="scale(0.015625)"/>
     </defs>
     <use xlink:href="#DejaVuSans-32"/>
     <use xlink:href="#DejaVuSans-52" transform="translate(63.623047 0)"/>
    </g>
   </g>
   <g id="patch_2">
    <path d="M 70.668 27.68 
C 71.384048 27.68 72.070866 27.395511 72.577188 26.889188 
C 73.083511 26.382866 73.368 25.696048 73.368 24.98 
C 73.368 24.263952 73.083511 23.577134 72.577188 23.070812 
C 72.070866 22.564489 71.384048 22.28 70.668 22.28 
C 69.951952 22.28 69.265134 22.564489 68.758812 23.070812 
C 68.252489 23.577134 67.968 24.263952 67.968 24.98 
C 67.968 25.696048 68.252489 26.382866 68.758812 26.889188 
C 69.265134 27.395511 69.951952 27.68 70.668 27.68 
z
" clip-path="url(#pf173952864)" style="stroke: #000000; stroke-width: 2; stroke-linejoin: miter"/>
   </g>
   <g id="text_2">
    <!-- 2R -->
    <g transform="translate(39.432688 81.493125) scale(0.14 -0.14)">
     <use xlink:href="#DejaVuSans-32"/>
     <use xlink:href="#DejaVuSans-52" transform="translate(63.623047 0)"/>
    </g>
   </g>
   <g id="text_3">
    <!-- Vb0 -->
    <g transform="translate(56.981906 15.768438) scale(0.14 -0.14)">
     <defs>
      <path id="DejaVuSans-56" d="M 1831 0 
L 50 4666 
L 709 4666 
L 2188 738 
L 3669 4666 
L 4325 4666 
L 2547 0 
L 1831 0 
z
" transform="scale(0.015625)"/>
      <path id="DejaVuSans-62" d="M 3116 1747 
Q 3116 2381 2855 2742 
Q 2594 3103 2138 3103 
Q 1681 3103 1420 2742 
Q 1159 2381 1159 1747 
Q 1159 1113 1420 752 
Q 1681 391 2138 391 
Q 2594 391 2855 752 
Q 3116 1113 3116 1747 
z
M 1159 2969 
Q 1341 3281 1617 3432 
Q 1894 3584 2278 3584 
Q 2916 3584 3314 3078 
Q 3713 2572 3713 1747 
Q 3713 922 3314 415 
Q 2916 -91 2278 -91 
Q 1894 -91 1617 61 
Q 1341 213 1159 525 
L 1159 0 
L 581 0 
L 581 4863 
L 1159 4863 
L 1159 2969 
z
" transform="scale(0.015625)"/>
      <path id="DejaVuSans-30" d="M 2034 4250 
Q 1547 4250 1301 3770 
Q 1056 3291 1056 2328 
Q 1056 1369 1301 889 
Q 1547 409 2034 409 
Q 2525 409 2770 889 
Q 3016 1369 3016 2328 
Q 3016 3291 2770 3770 
Q 2525 4250 2034 4250 
z
M 2034 4750 
Q 2819 4750 3233 4129 
Q 3647 3509 3647 2328 
Q 3647 1150 3233 529 
Q 2819 -91 2034 -91 
Q 1250 -91 836 529 
Q 422 1150 422 2328 
Q 422 3509 836 4129 
Q 1250 4750 2034 4750 
z
" transform="scale(0.015625)"/>
     </defs>
     <use xlink:href="#DejaVuSans-56"/>
     <use xlink:href="#DejaVuSans-62" transform="translate(68.408203 0)"/>
     <use xlink:href="#DejaVuSans-30" transform="translate(131.884766 0)"/>
    </g>
   </g>
   <g id="text_4">
    <!-- R -->
    <g transform="translate(119.804094 156.217813) scale(0.14 -0.14)">
     <use xlink:href="#DejaVuSans-52"/>
    </g>
   </g>
   <g id="patch_3">
    <path d="M 178.668 27.68 
C 179.384048 27.68 180.070866 27.395511 180.577188 26.889188 
C 181.083511 26.382866 181.368 25.696048 181.368 24.98 
C 181.368 24.263952 181.083511 23.577134 180.577188 23.070812 
C 180.070866 22.564489 179.384048 22.28 178.668 22.28 
C 177.951952 22.28 177.265134 22.564489 176.758812 23.070812 
C 176.252489 23.577134 175.968 24.263952 175.968 24.98 
C 175.968 25.696048 176.252489 26.382866 176.758812 26.889188 
C 177.265134 27.395511 177.951952 27.68 178.668 27.68 
z
" clip-path="url(#pf173952864)" style="stroke: #000000; stroke-width: 2; stroke-linejoin: miter"/>
   </g>
   <g id="text_5">
    <!-- 2R -->
    <g transform="translate(147.432687 81.493125) scale(0.14 -0.14)">
     <use xlink:href="#DejaVuSans-32"/>
     <use xlink:href="#DejaVuSans-52" transform="translate(63.623047 0)"/>
    </g>
   </g>
   <g id="text_6">
    <!-- Vb1 -->
    <g transform="translate(164.981906 15.768438) scale(0.14 -0.14)">
     <defs>
      <path id="DejaVuSans-31" d="M 794 531 
L 1825 531 
L 1825 4091 
L 703 3866 
L 703 4441 
L 1819 4666 
L 2450 4666 
L 2450 531 
L 3481 531 
L 3481 0 
L 794 0 
L 794 531 
z
" transform="scale(0.015625)"/>
     </defs>
     <use xlink:href="#DejaVuSans-56"/>
     <use xlink:href="#DejaVuSans-62" transform="translate(68.408203 0)"/>
     <use xlink:href="#DejaVuSans-31" transform="translate(131.884766 0)"/>
    </g>
   </g>
   <g id="text_7">
    <!-- R -->
    <g transform="translate(227.804094 156.217813) scale(0.14 -0.14)">
     <use xlink:href="#DejaVuSans-52"/>
    </g>
   </g>
   <g id="patch_4">
    <path d="M 286.668 27.68 
C 287.384048 27.68 288.070866 27.395511 288.577188 26.889188 
C 289.083511 26.382866 289.368 25.696048 289.368 24.98 
C 289.368 24.263952 289.083511 23.577134 288.577188 23.070812 
C 288.070866 22.564489 287.384048 22.28 286.668 22.28 
C 285.951952 22.28 285.265134 22.564489 284.758812 23.070812 
C 284.252489 23.577134 283.968 24.263952 283.968 24.98 
C 283.968 25.696048 284.252489 26.382866 284.758812 26.889188 
C 285.265134 27.395511 285.951952 27.68 286.668 27.68 
z
" clip-path="url(#pf173952864)" style="stroke: #000000; stroke-width: 2; stroke-linejoin: miter"/>
   </g>
   <g id="text_8">
    <!-- 2R -->
    <g transform="translate(255.432687 81.493125) scale(0.14 -0.14)">
     <use xlink:href="#DejaVuSans-32"/>
     <use xlink:href="#DejaVuSans-52" transform="translate(63.623047 0)"/>
    </g>
   </g>
   <g id="text_9">
    <!-- Vb2 -->
    <g transform="translate(272.981906 15.768438) scale(0.14 -0.14)">
     <use xlink:href="#DejaVuSans-56"/>
     <use xlink:href="#DejaVuSans-62" transform="translate(68.408203 0)"/>
     <use xlink:href="#DejaVuSans-32" transform="translate(131.884766 0)"/>
    </g>
   </g>
   <g id="text_10">
    <!-- R -->
    <g transform="translate(335.804094 156.217813) scale(0.14 -0.14)">
     <use xlink:href="#DejaVuSans-52"/>
    </g>
   </g>
   <g id="patch_5">
    <path d="M 394.668 27.68 
C 395.384048 27.68 396.070866 27.395511 396.577188 26.889188 
C 397.083511 26.382866 397.368 25.696048 397.368 24.98 
C 397.368 24.263952 397.083511 23.577134 396.577188 23.070812 
C 396.070866 22.564489 395.384048 22.28 394.668 22.28 
C 393.951952 22.28 393.265134 22.564489 392.758812 23.070812 
C 392.252489 23.577134 391.968 24.263952 391.968 24.98 
C 391.968 25.696048 392.252489 26.382866 392.758812 26.889188 
C 393.265134 27.395511 393.951952 27.68 394.668 27.68 
z
" clip-path="url(#pf173952864)" style="stroke: #000000; stroke-width: 2; stroke-linejoin: miter"/>
   </g>
   <g id="text_11">
    <!-- 2R -->
    <g transform="translate(363.432687 81.493125) scale(0.14 -0.14)">
     <use xlink:href="#DejaVuSans-32"/>
     <use xlink:href="#DejaVuSans-52" transform="translate(63.623047 0)"/>
    </g>
   </g>
   <g id="text_12">
    <!-- Vb3 -->
    <g transform="translate(380.981906 15.768438) scale(0.14 -0.14)">
     <defs>
      <path id="DejaVuSans-33" d="M 2597 2516 
Q 3050 2419 3304 2112 
Q 3559 1806 3559 1356 
Q 3559 666 3084 287 
Q 2609 -91 1734 -91 
Q 1441 -91 1130 -33 
Q 819 25 488 141 
L 488 750 
Q 750 597 1062 519 
Q 1375 441 1716 441 
Q 2309 441 2620 675 
Q 2931 909 2931 1356 
Q 2931 1769 2642 2001 
Q 2353 2234 1838 2234 
L 1294 2234 
L 1294 2753 
L 1863 2753 
Q 2328 2753 2575 2939 
Q 2822 3125 2822 3475 
Q 2822 3834 2567 4026 
Q 2313 4219 1838 4219 
Q 1578 4219 1281 4162 
Q 984 4106 628 3988 
L 628 4550 
Q 988 4650 1302 4700 
Q 1616 4750 1894 4750 
Q 2613 4750 3031 4423 
Q 3450 4097 3450 3541 
Q 3450 3153 3228 2886 
Q 3006 2619 2597 2516 
z
" transform="scale(0.015625)"/>
     </defs>
     <use xlink:href="#DejaVuSans-56"/>
     <use xlink:href="#DejaVuSans-62" transform="translate(68.408203 0)"/>
     <use xlink:href="#DejaVuSans-33" transform="translate(131.884766 0)"/>
    </g>
   </g>
   <g id="patch_6">
    <path d="M 430.668 135.68 
C 431.384048 135.68 432.070866 135.395511 432.577188 134.889188 
C 433.083511 134.382866 433.368 133.696048 433.368 132.98 
C 433.368 132.263952 433.083511 131.577134 432.577188 131.070812 
C 432.070866 130.564489 431.384048 130.28 430.668 130.28 
C 429.951952 130.28 429.265134 130.564489 428.758812 131.070812 
C 428.252489 131.577134 427.968 132.263952 427.968 132.98 
C 427.968 133.696048 428.252489 134.382866 428.758812 134.889188 
C 429.265134 135.395511 429.951952 135.68 430.668 135.68 
z
" clip-path="url(#pf173952864)" style="stroke: #000000; stroke-width: 2; stroke-linejoin: miter"/>
   </g>
   <g id="text_13">
    <!-- Vout -->
    <g transform="translate(436.968 136.843125) scale(0.14 -0.14)">
     <defs>
      <path id="DejaVuSans-6f" d="M 1959 3097 
Q 1497 3097 1228 2736 
Q 959 2375 959 1747 
Q 959 1119 1226 758 
Q 1494 397 1959 397 
Q 2419 397 2687 759 
Q 2956 1122 2956 1747 
Q 2956 2369 2687 2733 
Q 2419 3097 1959 3097 
z
M 1959 3584 
Q 2709 3584 3137 3096 
Q 3566 2609 3566 1747 
Q 3566 888 3137 398 
Q 2709 -91 1959 -91 
Q 1206 -91 779 398 
Q 353 888 353 1747 
Q 353 2609 779 3096 
Q 1206 3584 1959 3584 
z
" transform="scale(0.015625)"/>
      <path id="DejaVuSans-75" d="M 544 1381 
L 544 3500 
L 1119 3500 
L 1119 1403 
Q 1119 906 1312 657 
Q 1506 409 1894 409 
Q 2359 409 2629 706 
Q 2900 1003 2900 1516 
L 2900 3500 
L 3475 3500 
L 3475 0 
L 2900 0 
L 2900 538 
Q 2691 219 2414 64 
Q 2138 -91 1772 -91 
Q 1169 -91 856 284 
Q 544 659 544 1381 
z
M 1991 3584 
L 1991 3584 
z
" transform="scale(0.015625)"/>
      <path id="DejaVuSans-74" d="M 1172 4494 
L 1172 3500 
L 2356 3500 
L 2356 3053 
L 1172 3053 
L 1172 1153 
Q 1172 725 1289 603 
Q 1406 481 1766 481 
L 2356 481 
L 2356 0 
L 1766 0 
Q 1100 0 847 248 
Q 594 497 594 1153 
L 594 3053 
L 172 3053 
L 172 3500 
L 594 3500 
L 594 4494 
L 1172 4494 
z
" transform="scale(0.015625)"/>
     </defs>
     <use xlink:href="#DejaVuSans-56"/>
     <use xlink:href="#DejaVuSans-6f" transform="translate(60.658203 0)"/>
     <use xlink:href="#DejaVuSans-75" transform="translate(121.839844 0)"/>
     <use xlink:href="#DejaVuSans-74" transform="translate(185.21875 0)"/>
    </g>
   </g>
  </g>
 </g>
 <defs>
  <clipPath id="pf173952864">
   <rect x="0" y="0" width="471.216" height="268.7"/>
  </clipPath>
 </defs>
</svg>