<?xml version="1.0" encoding="utf-8" standalone="no"?>
<!DOCTYPE svg PUBLIC "-//W3C//DTD SVG 1.1//EN"
  "http://www.w3.org/Graphics/SVG/1.1/DTD/svg11.dtd">
<svg xmlns:xlink="http://www.w3.org/1999/xlink" width="185.795978pt" height="141.16pt" viewBox="0 0 185.795978 141.16" xmlns="http://www.w3.org/2000/svg" version="1.1">
 <metadata>
  <rdf:RDF xmlns:dc="http://purl.org/dc/elements/1.1/" xmlns:cc="http://creativecommons.org/ns#" xmlns:rdf="http://www.w3.org/1999/02/22-rdf-syntax-ns#">
   <cc:Work>
    <dc:type rdf:resource="http://purl.org/dc/dcmitype/StillImage"/>
    <dc:date>2024-11-03T09:41:09.114130</dc:date>
    <dc:format>image/svg+xml</dc:format>
    <dc:creator>
     <cc:Agent>
      <dc:title>Matplotlib v3.9.2, https://matplotlib.org/</dc:title>
     </cc:Agent>
    </dc:creator>
   </cc:Work>
  </rdf:RDF>
 </metadata>
 <defs>
  <style type="text/css">*{stroke-linejoin: round; stroke-linecap: butt}</style>
 </defs>
 <g id="figure_1">
  <g id="patch_1">
   <path d="M 0 141.16 
L 185.795978 141.16 
L 185.795978 0 
L 0 0 
z
" style="fill: #ffffff"/>
  </g>
  <g id="axes_1">
   <g id="patch_2">
    <path d="M 68.616 100.48 
C 73.389656 100.48 77.968438 98.583406 81.343922 95.207922 
C 84.719406 91.832438 86.616 87.253656 86.616 82.48 
C 86.616 77.706344 84.719406 73.127562 81.343922 69.752078 
C 77.968438 66.376594 73.389656 64.48 68.616 64.48 
C 63.842344 64.48 59.263562 66.376594 55.888078 69.752078 
C 52.512594 73.127562 50.616 77.706344 50.616 82.48 
C 50.616 87.253656 52.512594 91.832438 55.888078 95.207922 
C 59.263562 98.583406 63.842344 100.48 68.616 100.48 
L 68.616 100.48 
z
" clip-path="url(#pa29c9ddd39)" style="fill: none; stroke: #000000; stroke-width: 2; stroke-linejoin: miter"/>
   </g>
   <g id="patch_3">
    <path d="M 176.616 73.48 
C 177.809016 73.48 178.95439 73.005571 179.797981 72.161981 
C 180.641571 71.31839 181.116 70.173016 181.116 68.98 
C 181.116 67.786984 180.641571 66.64161 179.797981 65.798019 
C 178.95439 64.954429 177.809016 64.48 176.616 64.48 
" clip-path="url(#pa29c9ddd39)" style="fill: none; stroke: #000000; stroke-width: 2; stroke-linejoin: miter"/>
   </g>
   <g id="patch_4">
    <path d="M 176.616 82.48 
C 177.809016 82.48 178.95439 82.005571 179.797981 81.161981 
C 180.641571 80.31839 181.116 79.173016 181.116 77.98 
C 181.116 76.786984 180.641571 75.64161 179.797981 74.798019 
C 178.95439 73.954429 177.809016 73.48 176.616 73.48 
" clip-path="url(#pa29c9ddd39)" style="fill: none; stroke: #000000; stroke-width: 2; stroke-linejoin: miter"/>
   </g>
   <g id="patch_5">
    <path d="M 176.616 91.48 
C 177.809016 91.48 178.95439 91.005571 179.797981 90.161981 
C 180.641571 89.31839 181.116 88.173016 181.116 86.98 
C 181.116 85.786984 180.641571 84.64161 179.797981 83.798019 
C 178.95439 82.954429 177.809016 82.48 176.616 82.48 
" clip-path="url(#pa29c9ddd39)" style="fill: none; stroke: #000000; stroke-width: 2; stroke-linejoin: miter"/>
   </g>
   <g id="patch_6">
    <path d="M 176.616 100.48 
C 177.809016 100.48 178.95439 100.005571 179.797981 99.161981 
C 180.641571 98.31839 181.116 97.173016 181.116 95.98 
C 181.116 94.786984 180.641571 93.64161 179.797981 92.798019 
C 178.95439 91.954429 177.809016 91.48 176.616 91.48 
" clip-path="url(#pa29c9ddd39)" style="fill: none; stroke: #000000; stroke-width: 2; stroke-linejoin: miter"/>
   </g>
   <g id="line2d_1">
    <path d="M 68.616 136.48 
L 68.616 100.48 
L 68.616 100.48 
M 68.616 64.48 
L 68.616 64.48 
L 68.616 28.48 
" clip-path="url(#pa29c9ddd39)" style="fill: none; stroke: #000000; stroke-width: 2; stroke-linecap: round"/>
   </g>
   <g id="line2d_2">
    <path d="M 77.616 82.48 
L 76.866 80.616503 
L 76.116 78.88 
L 75.366 77.388831 
L 74.616 76.244617 
L 73.866 75.525334 
L 73.116 75.28 
L 72.366 75.525334 
L 71.616 76.244617 
L 70.866 77.388831 
L 70.116 78.88 
L 69.366 80.616503 
L 68.616 82.48 
L 67.866 84.343497 
L 67.116 86.08 
L 66.366 87.571169 
L 65.616 88.715383 
L 64.866 89.434666 
L 64.116 89.68 
L 63.366 89.434666 
L 62.616 88.715383 
L 61.866 87.571169 
L 61.116 86.08 
L 60.366 84.343497 
L 59.616 82.48 
" clip-path="url(#pa29c9ddd39)" style="fill: none; stroke: #000000; stroke-width: 2; stroke-linecap: round"/>
   </g>
   <g id="line2d_3">
    <path d="M 68.616 28.48 
L 104.616 28.48 
L 107.616 19.48 
L 113.616 37.48 
L 119.616 19.48 
L 125.616 37.48 
L 131.616 19.48 
L 137.616 37.48 
L 140.616 28.48 
L 176.616 28.48 
" clip-path="url(#pa29c9ddd39)" style="fill: none; stroke: #000000; stroke-width: 2; stroke-linecap: round"/>
   </g>
   <g id="line2d_4">
    <path d="M 176.616 28.48 
L 176.616 64.48 
M 176.616 100.48 
L 176.616 136.48 
" clip-path="url(#pa29c9ddd39)" style="fill: none; stroke: #000000; stroke-width: 2; stroke-linecap: round"/>
   </g>
   <g id="line2d_5">
    <path d="M 176.616 136.48 
L 122.616 136.48 
L 68.616 136.48 
" clip-path="url(#pa29c9ddd39)" style="fill: none; stroke: #000000; stroke-width: 2; stroke-linecap: round"/>
   </g>
   <g id="text_1">
    <!-- 3 ∠ 0° -->
    <g transform="translate(0.750375 86.343125) scale(0.14 -0.14)">
     <defs>
      <path id="DejaVuSans-33" d="M 2597 2516 
Q 3050 2419 3304 2112 
Q 3559 1806 3559 1356 
Q 3559 666 3084 287 
Q 2609 -91 1734 -91 
Q 1441 -91 1130 -33 
Q 819 25 488 141 
L 488 750 
Q 750 597 1062 519 
Q 1375 441 1716 441 
Q 2309 441 2620 675 
Q 2931 909 2931 1356 
Q 2931 1769 2642 2001 
Q 2353 2234 1838 2234 
L 1294 2234 
L 1294 2753 
L 1863 2753 
Q 2328 2753 2575 2939 
Q 2822 3125 2822 3475 
Q 2822 3834 2567 4026 
Q 2313 4219 1838 4219 
Q 1578 4219 1281 4162 
Q 984 4106 628 3988 
L 628 4550 
Q 988 4650 1302 4700 
Q 1616 4750 1894 4750 
Q 2613 4750 3031 4423 
Q 3450 4097 3450 3541 
Q 3450 3153 3228 2886 
Q 3006 2619 2597 2516 
z
" transform="scale(0.015625)"/>
      <path id="DejaVuSans-20" transform="scale(0.015625)"/>
      <path id="DejaVuSans-2220" d="M 5028 631 
L 5028 0 
L 547 0 
L 3525 4666 
L 4281 4666 
L 1716 631 
L 5028 631 
z
" transform="scale(0.015625)"/>
      <path id="DejaVuSans-30" d="M 2034 4250 
Q 1547 4250 1301 3770 
Q 1056 3291 1056 2328 
Q 1056 1369 1301 889 
Q 1547 409 2034 409 
Q 2525 409 2770 889 
Q 3016 1369 3016 2328 
Q 3016 3291 2770 3770 
Q 2525 4250 2034 4250 
z
M 2034 4750 
Q 2819 4750 3233 4129 
Q 3647 3509 3647 2328 
Q 3647 1150 3233 529 
Q 2819 -91 2034 -91 
Q 1250 -91 836 529 
Q 422 1150 422 2328 
Q 422 3509 836 4129 
Q 1250 4750 2034 4750 
z
" transform="scale(0.015625)"/>
      <path id="DejaVuSans-b0" d="M 1600 4347 
Q 1350 4347 1178 4173 
Q 1006 4000 1006 3750 
Q 1006 3503 1178 3333 
Q 1350 3163 1600 3163 
Q 1850 3163 2022 3333 
Q 2194 3503 2194 3750 
Q 2194 3997 2020 4172 
Q 1847 4347 1600 4347 
z
M 1600 4750 
Q 1800 4750 1984 4673 
Q 2169 4597 2303 4453 
Q 2447 4313 2519 4134 
Q 2591 3956 2591 3750 
Q 2591 3338 2302 3052 
Q 2013 2766 1594 2766 
Q 1172 2766 890 3047 
Q 609 3328 609 3750 
Q 609 4169 896 4459 
Q 1184 4750 1600 4750 
z
" transform="scale(0.015625)"/>
     </defs>
     <use xlink:href="#DejaVuSans-33"/>
     <use xlink:href="#DejaVuSans-20" x="63.623047"/>
     <use xlink:href="#DejaVuSans-2220" x="95.410156"/>
     <use xlink:href="#DejaVuSans-20" x="185.058594"/>
     <use xlink:href="#DejaVuSans-30" x="216.845703"/>
     <use xlink:href="#DejaVuSans-b0" x="280.46875"/>
    </g>
   </g>
   <g id="text_2">
    <!-- 2Ω -->
    <g transform="translate(112.812719 12.968437) scale(0.14 -0.14)">
     <defs>
      <path id="DejaVuSans-32" d="M 1228 531 
L 3431 531 
L 3431 0 
L 469 0 
L 469 531 
Q 828 903 1448 1529 
Q 2069 2156 2228 2338 
Q 2531 2678 2651 2914 
Q 2772 3150 2772 3378 
Q 2772 3750 2511 3984 
Q 2250 4219 1831 4219 
Q 1534 4219 1204 4116 
Q 875 4013 500 3803 
L 500 4441 
Q 881 4594 1212 4672 
Q 1544 4750 1819 4750 
Q 2544 4750 2975 4387 
Q 3406 4025 3406 3419 
Q 3406 3131 3298 2873 
Q 3191 2616 2906 2266 
Q 2828 2175 2409 1742 
Q 1991 1309 1228 531 
z
" transform="scale(0.015625)"/>
      <path id="DejaVuSans-3a9" d="M 4647 556 
L 4647 0 
L 2772 0 
L 2772 556 
Q 3325 859 3634 1378 
Q 3944 1897 3944 2528 
Q 3944 3278 3531 3731 
Q 3119 4184 2444 4184 
Q 1769 4184 1355 3729 
Q 941 3275 941 2528 
Q 941 1897 1250 1378 
Q 1563 859 2119 556 
L 2119 0 
L 244 0 
L 244 556 
L 1241 556 
Q 747 991 519 1456 
Q 294 1922 294 2497 
Q 294 3491 894 4106 
Q 1491 4722 2444 4722 
Q 3391 4722 3994 4106 
Q 4594 3494 4594 2528 
Q 4594 1922 4372 1459 
Q 4150 997 3647 556 
L 4647 556 
z
" transform="scale(0.015625)"/>
     </defs>
     <use xlink:href="#DejaVuSans-32"/>
     <use xlink:href="#DejaVuSans-3a9" x="63.623047"/>
    </g>
   </g>
   <g id="text_3">
    <!-- 3jw -->
    <g transform="translate(148.76975 86.343125) scale(0.14 -0.14)">
     <defs>
      <path id="DejaVuSans-6a" d="M 603 3500 
L 1178 3500 
L 1178 -63 
Q 1178 -731 923 -1031 
Q 669 -1331 103 -1331 
L -116 -1331 
L -116 -844 
L 38 -844 
Q 366 -844 484 -692 
Q 603 -541 603 -63 
L 603 3500 
z
M 603 4863 
L 1178 4863 
L 1178 4134 
L 603 4134 
L 603 4863 
z
" transform="scale(0.015625)"/>
      <path id="DejaVuSans-77" d="M 269 3500 
L 844 3500 
L 1563 769 
L 2278 3500 
L 2956 3500 
L 3675 769 
L 4391 3500 
L 4966 3500 
L 4050 0 
L 3372 0 
L 2619 2869 
L 1863 0 
L 1184 0 
L 269 3500 
z
" transform="scale(0.015625)"/>
     </defs>
     <use xlink:href="#DejaVuSans-33"/>
     <use xlink:href="#DejaVuSans-6a" x="63.623047"/>
     <use xlink:href="#DejaVuSans-77" x="91.40625"/>
    </g>
   </g>
  </g>
 </g>
 <defs>
  <clipPath id="pa29c9ddd39">
   <rect x="0" y="0" width="185.795978" height="141.16"/>
  </clipPath>
 </defs>
</svg>