<?xml version="1.0" encoding="utf-8" standalone="no"?>
<!DOCTYPE svg PUBLIC "-//W3C//DTD SVG 1.1//EN"
  "http://www.w3.org/Graphics/SVG/1.1/DTD/svg11.dtd">
<svg xmlns:xlink="http://www.w3.org/1999/xlink" width="390.348pt" height="177.8pt" viewBox="0 0 390.348 177.8" xmlns="http://www.w3.org/2000/svg" version="1.1">
 <metadata>
  <rdf:RDF xmlns:dc="http://purl.org/dc/elements/1.1/" xmlns:cc="http://creativecommons.org/ns#" xmlns:rdf="http://www.w3.org/1999/02/22-rdf-syntax-ns#">
   <cc:Work>
    <dc:type rdf:resource="http://purl.org/dc/dcmitype/StillImage"/>
    <dc:date>2025-05-14T19:10:36.138063</dc:date>
    <dc:format>image/svg+xml</dc:format>
    <dc:creator>
     <cc:Agent>
      <dc:title>Matplotlib v3.10.3, https://matplotlib.org/</dc:title>
     </cc:Agent>
    </dc:creator>
   </cc:Work>
  </rdf:RDF>
 </metadata>
 <defs>
  <style type="text/css">*{stroke-linejoin: round; stroke-linecap: butt}</style>
 </defs>
 <g id="figure_1">
  <g id="patch_1">
   <path d="M 0 177.8 
L 390.348 177.8 
L 390.348 0 
L 0 0 
z
" style="fill: #ffffff"/>
  </g>
  <g id="axes_1">
   <g id="patch_2">
    <path d="M 43.668 114.08 
C 48.441656 114.08 53.020438 112.183406 56.395922 108.807922 
C 59.771406 105.432438 61.668 100.853656 61.668 96.08 
C 61.668 91.306344 59.771406 86.727562 56.395922 83.352078 
C 53.020438 79.976594 48.441656 78.08 43.668 78.08 
C 38.894344 78.08 34.315562 79.976594 30.940078 83.352078 
C 27.564594 86.727562 25.668 91.306344 25.668 96.08 
C 25.668 100.853656 27.564594 105.432438 30.940078 108.807922 
C 34.315562 112.183406 38.894344 114.08 43.668 114.08 
L 43.668 114.08 
z
" clip-path="url(#p4331c87b9f)" style="fill: none; stroke: #000000; stroke-width: 2; stroke-linejoin: miter"/>
   </g>
   <g id="patch_3">
    <path d="M 205.668 60.08 
C 210.441656 60.08 215.020438 58.183406 218.395922 54.807922 
C 221.771406 51.432438 223.668 46.853656 223.668 42.08 
C 223.668 37.306344 221.771406 32.727562 218.395922 29.352078 
C 215.020438 25.976594 210.441656 24.08 205.668 24.08 
C 200.894344 24.08 196.315562 25.976594 192.940078 29.352078 
C 189.564594 32.727562 187.668 37.306344 187.668 42.08 
C 187.668 46.853656 189.564594 51.432438 192.940078 54.807922 
C 196.315562 58.183406 200.894344 60.08 205.668 60.08 
L 205.668 60.08 
z
" clip-path="url(#p4331c87b9f)" style="fill: none; stroke: #000000; stroke-width: 2; stroke-linejoin: miter"/>
   </g>
   <g id="patch_4">
    <path d="M 367.668 114.08 
C 372.441656 114.08 377.020438 112.183406 380.395922 108.807922 
C 383.771406 105.432438 385.668 100.853656 385.668 96.08 
C 385.668 91.306344 383.771406 86.727562 380.395922 83.352078 
C 377.020438 79.976594 372.441656 78.08 367.668 78.08 
C 362.894344 78.08 358.315562 79.976594 354.940078 83.352078 
C 351.564594 86.727562 349.668 91.306344 349.668 96.08 
C 349.668 100.853656 351.564594 105.432438 354.940078 108.807922 
C 358.315562 112.183406 362.894344 114.08 367.668 114.08 
L 367.668 114.08 
z
" clip-path="url(#p4331c87b9f)" style="fill: none; stroke: #000000; stroke-width: 2; stroke-linejoin: miter"/>
   </g>
   <g id="line2d_1">
    <path d="M 43.668 150.08 
L 43.668 114.08 
L 43.668 114.08 
M 43.668 78.08 
L 43.668 78.08 
L 43.668 42.08 
" clip-path="url(#p4331c87b9f)" style="fill: none; stroke: #000000; stroke-width: 2; stroke-linecap: round"/>
   </g>
   <g id="line2d_2">
    <path d="M 43.668 105.08 
L 43.668 96.08 
" clip-path="url(#p4331c87b9f)" style="fill: none; stroke: #000000; stroke-width: 2; stroke-linecap: round"/>
   </g>
   <g id="patch_5">
    <path d="M 40.968 96.08 
L 43.668 87.08 
L 46.368 96.08 
z
" clip-path="url(#p4331c87b9f)"/>
   </g>
   <g id="line2d_3">
    <path d="M 43.668 42.08 
L 97.668 42.08 
L 151.668 42.08 
" clip-path="url(#p4331c87b9f)" style="fill: none; stroke: #000000; stroke-width: 2; stroke-linecap: round"/>
   </g>
   <g id="line2d_4">
    <path d="M 151.668 42.08 
L 187.668 42.08 
L 187.668 42.08 
M 223.668 42.08 
L 223.668 42.08 
L 259.668 42.08 
" clip-path="url(#p4331c87b9f)" style="fill: none; stroke: #000000; stroke-width: 2; stroke-linecap: round"/>
   </g>
   <g id="line2d_5">
    <path d="M 214.668 38.48 
L 214.668 45.68 
" clip-path="url(#p4331c87b9f)" style="fill: none; stroke: #000000; stroke-width: 2; stroke-linecap: round"/>
   </g>
   <g id="line2d_6">
    <path d="M 193.068 42.08 
L 200.268 42.08 
" clip-path="url(#p4331c87b9f)" style="fill: none; stroke: #000000; stroke-width: 2; stroke-linecap: round"/>
   </g>
   <g id="line2d_7">
    <path d="M 196.668 38.48 
L 196.668 45.68 
" clip-path="url(#p4331c87b9f)" style="fill: none; stroke: #000000; stroke-width: 2; stroke-linecap: round"/>
   </g>
   <g id="line2d_8">
    <path d="M 230.868 29.48 
L 169.668 29.48 
" clip-path="url(#p4331c87b9f)" style="fill: none; stroke: #ffa500; stroke-width: 2; stroke-linecap: round"/>
   </g>
   <g id="patch_6">
    <path d="M 230.868 25.88 
L 241.668 29.48 
L 230.868 33.08 
z
" clip-path="url(#p4331c87b9f)" style="fill: #ffa500"/>
   </g>
   <g id="line2d_9">
    <path d="M 259.668 42.08 
L 313.668 42.08 
L 367.668 42.08 
" clip-path="url(#p4331c87b9f)" style="fill: none; stroke: #000000; stroke-width: 2; stroke-linecap: round"/>
   </g>
   <g id="line2d_10">
    <path d="M 367.668 42.08 
L 367.668 78.08 
L 367.668 78.08 
M 367.668 114.08 
L 367.668 114.08 
L 367.668 150.08 
" clip-path="url(#p4331c87b9f)" style="fill: none; stroke: #000000; stroke-width: 2; stroke-linecap: round"/>
   </g>
   <g id="line2d_11">
    <path d="M 367.668 87.08 
L 367.668 96.08 
" clip-path="url(#p4331c87b9f)" style="fill: none; stroke: #000000; stroke-width: 2; stroke-linecap: round"/>
   </g>
   <g id="patch_7">
    <path d="M 370.368 96.08 
L 367.668 105.08 
L 364.968 96.08 
z
" clip-path="url(#p4331c87b9f)"/>
   </g>
   <g id="line2d_12">
    <path d="M 367.668 150.08 
L 313.668 150.08 
L 259.668 150.08 
" clip-path="url(#p4331c87b9f)" style="fill: none; stroke: #000000; stroke-width: 2; stroke-linecap: round"/>
   </g>
   <g id="line2d_13">
    <path d="M 259.668 150.08 
L 232.668 150.08 
L 205.668 150.08 
" clip-path="url(#p4331c87b9f)" style="fill: none; stroke: #000000; stroke-width: 2; stroke-linecap: round"/>
   </g>
   <g id="line2d_14">
    <path d="M 205.668 150.08 
L 205.668 164.48 
L 196.668 164.48 
L 214.668 164.48 
M 199.368 168.8 
L 211.968 168.8 
M 203.868 173.12 
L 207.468 173.12 
" clip-path="url(#p4331c87b9f)" style="fill: none; stroke: #000000; stroke-width: 2; stroke-linecap: round"/>
   </g>
   <g id="line2d_15">
    <path d="M 205.668 150.08 
L 178.668 150.08 
L 151.668 150.08 
" clip-path="url(#p4331c87b9f)" style="fill: none; stroke: #000000; stroke-width: 2; stroke-linecap: round"/>
   </g>
   <g id="line2d_16">
    <path d="M 151.668 150.08 
L 97.668 150.08 
L 43.668 150.08 
" clip-path="url(#p4331c87b9f)" style="fill: none; stroke: #000000; stroke-width: 2; stroke-linecap: round"/>
   </g>
   <g id="line2d_17">
    <path d="M 151.668 42.08 
L 151.668 78.08 
L 160.668 81.08 
L 142.668 87.08 
L 160.668 93.08 
L 142.668 99.08 
L 160.668 105.08 
L 142.668 111.08 
L 151.668 114.08 
L 151.668 150.08 
" clip-path="url(#p4331c87b9f)" style="fill: none; stroke: #000000; stroke-width: 2; stroke-linecap: round"/>
   </g>
   <g id="line2d_18">
    <path d="M 166.068 60.08 
L 166.068 121.28 
" clip-path="url(#p4331c87b9f)" style="fill: none; stroke: #ffa500; stroke-width: 2; stroke-linecap: round"/>
   </g>
   <g id="patch_8">
    <path d="M 169.668 121.28 
L 166.068 132.08 
L 162.468 121.28 
z
" clip-path="url(#p4331c87b9f)" style="fill: #ffa500"/>
   </g>
   <g id="line2d_19">
    <path d="M 259.668 42.08 
L 259.668 78.08 
L 268.668 81.08 
L 250.668 87.08 
L 268.668 93.08 
L 250.668 99.08 
L 268.668 105.08 
L 250.668 111.08 
L 259.668 114.08 
L 259.668 150.08 
" clip-path="url(#p4331c87b9f)" style="fill: none; stroke: #000000; stroke-width: 2; stroke-linecap: round"/>
   </g>
   <g id="line2d_20">
    <path d="M 274.068 60.08 
L 274.068 121.28 
" clip-path="url(#p4331c87b9f)" style="fill: none; stroke: #ffa500; stroke-width: 2; stroke-linecap: round"/>
   </g>
   <g id="patch_9">
    <path d="M 277.668 121.28 
L 274.068 132.08 
L 270.468 121.28 
z
" clip-path="url(#p4331c87b9f)" style="fill: #ffa500"/>
   </g>
   <g id="text_1">
    <!-- 3A -->
    <g transform="translate(3.583625 99.943125) scale(0.14 -0.14)">
     <defs>
      <path id="DejaVuSans-33" d="M 2597 2516 
Q 3050 2419 3304 2112 
Q 3559 1806 3559 1356 
Q 3559 666 3084 287 
Q 2609 -91 1734 -91 
Q 1441 -91 1130 -33 
Q 819 25 488 141 
L 488 750 
Q 750 597 1062 519 
Q 1375 441 1716 441 
Q 2309 441 2620 675 
Q 2931 909 2931 1356 
Q 2931 1769 2642 2001 
Q 2353 2234 1838 2234 
L 1294 2234 
L 1294 2753 
L 1863 2753 
Q 2328 2753 2575 2939 
Q 2822 3125 2822 3475 
Q 2822 3834 2567 4026 
Q 2313 4219 1838 4219 
Q 1578 4219 1281 4162 
Q 984 4106 628 3988 
L 628 4550 
Q 988 4650 1302 4700 
Q 1616 4750 1894 4750 
Q 2613 4750 3031 4423 
Q 3450 4097 3450 3541 
Q 3450 3153 3228 2886 
Q 3006 2619 2597 2516 
z
" transform="scale(0.015625)"/>
      <path id="DejaVuSans-41" d="M 2188 4044 
L 1331 1722 
L 3047 1722 
L 2188 4044 
z
M 1831 4666 
L 2547 4666 
L 4325 0 
L 3669 0 
L 3244 1197 
L 1141 1197 
L 716 0 
L 50 0 
L 1831 4666 
z
" transform="scale(0.015625)"/>
     </defs>
     <use xlink:href="#DejaVuSans-33"/>
     <use xlink:href="#DejaVuSans-41" transform="translate(63.623047 0)"/>
    </g>
   </g>
   <g id="text_2">
    <!-- 2V -->
    <g transform="translate(196.425813 17.568437) scale(0.14 -0.14)">
     <defs>
      <path id="DejaVuSans-32" d="M 1228 531 
L 3431 531 
L 3431 0 
L 469 0 
L 469 531 
Q 828 903 1448 1529 
Q 2069 2156 2228 2338 
Q 2531 2678 2651 2914 
Q 2772 3150 2772 3378 
Q 2772 3750 2511 3984 
Q 2250 4219 1831 4219 
Q 1534 4219 1204 4116 
Q 875 4013 500 3803 
L 500 4441 
Q 881 4594 1212 4672 
Q 1544 4750 1819 4750 
Q 2544 4750 2975 4387 
Q 3406 4025 3406 3419 
Q 3406 3131 3298 2873 
Q 3191 2616 2906 2266 
Q 2828 2175 2409 1742 
Q 1991 1309 1228 531 
z
" transform="scale(0.015625)"/>
      <path id="DejaVuSans-56" d="M 1831 0 
L 50 4666 
L 709 4666 
L 2188 738 
L 3669 4666 
L 4325 4666 
L 2547 0 
L 1831 0 
z
" transform="scale(0.015625)"/>
     </defs>
     <use xlink:href="#DejaVuSans-32"/>
     <use xlink:href="#DejaVuSans-56" transform="translate(63.623047 0)"/>
    </g>
   </g>
   <g id="text_3">
    <!-- I2 -->
    <g style="fill: #ffa500" transform="translate(199.14925 15.768437) scale(0.14 -0.14)">
     <defs>
      <path id="DejaVuSans-49" d="M 628 4666 
L 1259 4666 
L 1259 0 
L 628 0 
L 628 4666 
z
" transform="scale(0.015625)"/>
     </defs>
     <use xlink:href="#DejaVuSans-49"/>
     <use xlink:href="#DejaVuSans-32" transform="translate(29.492188 0)"/>
    </g>
   </g>
   <g id="text_4">
    <!-- 2A -->
    <g transform="translate(327.583625 99.943125) scale(0.14 -0.14)">
     <use xlink:href="#DejaVuSans-32"/>
     <use xlink:href="#DejaVuSans-41" transform="translate(63.623047 0)"/>
    </g>
   </g>
   <g id="text_5">
    <!-- 2Ω -->
    <g transform="translate(119.461438 99.943125) scale(0.14 -0.14)">
     <defs>
      <path id="DejaVuSans-3a9" d="M 4647 556 
L 4647 0 
L 2772 0 
L 2772 556 
Q 3325 859 3634 1378 
Q 3944 1897 3944 2528 
Q 3944 3278 3531 3731 
Q 3119 4184 2444 4184 
Q 1769 4184 1355 3729 
Q 941 3275 941 2528 
Q 941 1897 1250 1378 
Q 1563 859 2119 556 
L 2119 0 
L 244 0 
L 244 556 
L 1241 556 
Q 747 991 519 1456 
Q 294 1922 294 2497 
Q 294 3491 894 4106 
Q 1491 4722 2444 4722 
Q 3391 4722 3994 4106 
Q 4594 3494 4594 2528 
Q 4594 1922 4372 1459 
Q 4150 997 3647 556 
L 4647 556 
z
" transform="scale(0.015625)"/>
     </defs>
     <use xlink:href="#DejaVuSans-32"/>
     <use xlink:href="#DejaVuSans-3a9" transform="translate(63.623047 0)"/>
    </g>
   </g>
   <g id="text_6">
    <!-- I1 -->
    <g style="fill: #ffa500" transform="translate(176.868 99.943125) scale(0.14 -0.14)">
     <defs>
      <path id="DejaVuSans-31" d="M 794 531 
L 1825 531 
L 1825 4091 
L 703 3866 
L 703 4441 
L 1819 4666 
L 2450 4666 
L 2450 531 
L 3481 531 
L 3481 0 
L 794 0 
L 794 531 
z
" transform="scale(0.015625)"/>
     </defs>
     <use xlink:href="#DejaVuSans-49"/>
     <use xlink:href="#DejaVuSans-31" transform="translate(29.492188 0)"/>
    </g>
   </g>
   <g id="text_7">
    <!-- 1Ω -->
    <g transform="translate(227.461438 99.943125) scale(0.14 -0.14)">
     <use xlink:href="#DejaVuSans-31"/>
     <use xlink:href="#DejaVuSans-3a9" transform="translate(63.623047 0)"/>
    </g>
   </g>
   <g id="text_8">
    <!-- I3 -->
    <g style="fill: #ffa500" transform="translate(284.868 99.943125) scale(0.14 -0.14)">
     <use xlink:href="#DejaVuSans-49"/>
     <use xlink:href="#DejaVuSans-33" transform="translate(29.492188 0)"/>
    </g>
   </g>
   <g id="patch_10">
    <path d="M 151.668 44.78 
C 152.384048 44.78 153.070866 44.495511 153.577188 43.989188 
C 154.083511 43.482866 154.368 42.796048 154.368 42.08 
C 154.368 41.363952 154.083511 40.677134 153.577188 40.170812 
C 153.070866 39.664489 152.384048 39.38 151.668 39.38 
C 150.951952 39.38 150.265134 39.664489 149.758812 40.170812 
C 149.252489 40.677134 148.968 41.363952 148.968 42.08 
C 148.968 42.796048 149.252489 43.482866 149.758812 43.989188 
C 150.265134 44.495511 150.951952 44.78 151.668 44.78 
z
" clip-path="url(#p4331c87b9f)" style="stroke: #000000; stroke-width: 2; stroke-linejoin: miter"/>
   </g>
   <g id="text_9">
    <!-- N1 -->
    <g transform="translate(141.977375 32.868437) scale(0.14 -0.14)">
     <defs>
      <path id="DejaVuSans-4e" d="M 628 4666 
L 1478 4666 
L 3547 763 
L 3547 4666 
L 4159 4666 
L 4159 0 
L 3309 0 
L 1241 3903 
L 1241 0 
L 628 0 
L 628 4666 
z
" transform="scale(0.015625)"/>
     </defs>
     <use xlink:href="#DejaVuSans-4e"/>
     <use xlink:href="#DejaVuSans-31" transform="translate(74.804688 0)"/>
    </g>
   </g>
   <g id="patch_11">
    <path d="M 259.668 44.78 
C 260.384048 44.78 261.070866 44.495511 261.577188 43.989188 
C 262.083511 43.482866 262.368 42.796048 262.368 42.08 
C 262.368 41.363952 262.083511 40.677134 261.577188 40.170812 
C 261.070866 39.664489 260.384048 39.38 259.668 39.38 
C 258.951952 39.38 258.265134 39.664489 257.758812 40.170812 
C 257.252489 40.677134 256.968 41.363952 256.968 42.08 
C 256.968 42.796048 257.252489 43.482866 257.758812 43.989188 
C 258.265134 44.495511 258.951952 44.78 259.668 44.78 
z
" clip-path="url(#p4331c87b9f)" style="stroke: #000000; stroke-width: 2; stroke-linejoin: miter"/>
   </g>
   <g id="text_10">
    <!-- N2 -->
    <g transform="translate(249.977375 32.868437) scale(0.14 -0.14)">
     <use xlink:href="#DejaVuSans-4e"/>
     <use xlink:href="#DejaVuSans-32" transform="translate(74.804688 0)"/>
    </g>
   </g>
   <g id="patch_12">
    <path d="M 259.668 152.78 
C 260.384048 152.78 261.070866 152.495511 261.577188 151.989188 
C 262.083511 151.482866 262.368 150.796048 262.368 150.08 
C 262.368 149.363952 262.083511 148.677134 261.577188 148.170812 
C 261.070866 147.664489 260.384048 147.38 259.668 147.38 
C 258.951952 147.38 258.265134 147.664489 257.758812 148.170812 
C 257.252489 148.677134 256.968 149.363952 256.968 150.08 
C 256.968 150.796048 257.252489 151.482866 257.758812 151.989188 
C 258.265134 152.495511 258.951952 152.78 259.668 152.78 
z
" clip-path="url(#p4331c87b9f)" style="stroke: #000000; stroke-width: 2; stroke-linejoin: miter"/>
   </g>
   <g id="patch_13">
    <path d="M 205.668 152.78 
C 206.384048 152.78 207.070866 152.495511 207.577188 151.989188 
C 208.083511 151.482866 208.368 150.796048 208.368 150.08 
C 208.368 149.363952 208.083511 148.677134 207.577188 148.170812 
C 207.070866 147.664489 206.384048 147.38 205.668 147.38 
C 204.951952 147.38 204.265134 147.664489 203.758812 148.170812 
C 203.252489 148.677134 202.968 149.363952 202.968 150.08 
C 202.968 150.796048 203.252489 151.482866 203.758812 151.989188 
C 204.265134 152.495511 204.951952 152.78 205.668 152.78 
z
" clip-path="url(#p4331c87b9f)" style="stroke: #000000; stroke-width: 2; stroke-linejoin: miter"/>
   </g>
   <g id="patch_14">
    <path d="M 151.668 152.78 
C 152.384048 152.78 153.070866 152.495511 153.577188 151.989188 
C 154.083511 151.482866 154.368 150.796048 154.368 150.08 
C 154.368 149.363952 154.083511 148.677134 153.577188 148.170812 
C 153.070866 147.664489 152.384048 147.38 151.668 147.38 
C 150.951952 147.38 150.265134 147.664489 149.758812 148.170812 
C 149.252489 148.677134 148.968 149.363952 148.968 150.08 
C 148.968 150.796048 149.252489 151.482866 149.758812 151.989188 
C 150.265134 152.495511 150.951952 152.78 151.668 152.78 
z
" clip-path="url(#p4331c87b9f)" style="stroke: #000000; stroke-width: 2; stroke-linejoin: miter"/>
   </g>
  </g>
 </g>
 <defs>
  <clipPath id="p4331c87b9f">
   <rect x="0" y="0" width="390.348" height="177.8"/>
  </clipPath>
 </defs>
</svg>