<?xml version="1.0" encoding="utf-8" standalone="no"?>
<!DOCTYPE svg PUBLIC "-//W3C//DTD SVG 1.1//EN"
  "http://www.w3.org/Graphics/SVG/1.1/DTD/svg11.dtd">
<svg xmlns:xlink="http://www.w3.org/1999/xlink" width="207.646884pt" height="141.16pt" viewBox="0 0 207.646884 141.16" xmlns="http://www.w3.org/2000/svg" version="1.1">
 <metadata>
  <rdf:RDF xmlns:dc="http://purl.org/dc/elements/1.1/" xmlns:cc="http://creativecommons.org/ns#" xmlns:rdf="http://www.w3.org/1999/02/22-rdf-syntax-ns#">
   <cc:Work>
    <dc:type rdf:resource="http://purl.org/dc/dcmitype/StillImage"/>
    <dc:date>2024-12-17T07:46:30.335460</dc:date>
    <dc:format>image/svg+xml</dc:format>
    <dc:creator>
     <cc:Agent>
      <dc:title>Matplotlib v3.9.2, https://matplotlib.org/</dc:title>
     </cc:Agent>
    </dc:creator>
   </cc:Work>
  </rdf:RDF>
 </metadata>
 <defs>
  <style type="text/css">*{stroke-linejoin: round; stroke-linecap: butt}</style>
 </defs>
 <g id="figure_1">
  <g id="patch_1">
   <path d="M 0 141.16 
L 207.646884 141.16 
L 207.646884 0 
L 0 0 
z
" style="fill: #ffffff"/>
  </g>
  <g id="axes_1">
   <g id="patch_2">
    <path d="M 69.708 100.48 
C 74.481656 100.48 79.060438 98.583406 82.435922 95.207922 
C 85.811406 91.832438 87.708 87.253656 87.708 82.48 
C 87.708 77.706344 85.811406 73.127562 82.435922 69.752078 
C 79.060438 66.376594 74.481656 64.48 69.708 64.48 
C 64.934344 64.48 60.355562 66.376594 56.980078 69.752078 
C 53.604594 73.127562 51.708 77.706344 51.708 82.48 
C 51.708 87.253656 53.604594 91.832438 56.980078 95.207922 
C 60.355562 98.583406 64.934344 100.48 69.708 100.48 
L 69.708 100.48 
z
" clip-path="url(#pf1fd4be118)" style="fill: none; stroke: #000000; stroke-width: 2; stroke-linejoin: miter"/>
   </g>
   <g id="line2d_1">
    <path d="M 69.708 136.48 
L 69.708 100.48 
L 69.708 100.48 
M 69.708 64.48 
L 69.708 64.48 
L 69.708 28.48 
" clip-path="url(#pf1fd4be118)" style="fill: none; stroke: #000000; stroke-width: 2; stroke-linecap: round"/>
   </g>
   <g id="line2d_2">
    <path d="M 73.308 91.48 
L 66.108 91.48 
" clip-path="url(#pf1fd4be118)" style="fill: none; stroke: #000000; stroke-width: 2; stroke-linecap: round"/>
   </g>
   <g id="line2d_3">
    <path d="M 69.708 77.08 
L 69.708 69.88 
" clip-path="url(#pf1fd4be118)" style="fill: none; stroke: #000000; stroke-width: 2; stroke-linecap: round"/>
   </g>
   <g id="line2d_4">
    <path d="M 73.308 73.48 
L 66.108 73.48 
" clip-path="url(#pf1fd4be118)" style="fill: none; stroke: #000000; stroke-width: 2; stroke-linecap: round"/>
   </g>
   <g id="line2d_5">
    <path d="M 69.708 28.48 
L 105.708 28.48 
L 108.708 19.48 
L 114.708 37.48 
L 120.708 19.48 
L 126.708 37.48 
L 132.708 19.48 
L 138.708 37.48 
L 141.708 28.48 
L 177.708 28.48 
" clip-path="url(#pf1fd4be118)" style="fill: none; stroke: #000000; stroke-width: 2; stroke-linecap: round"/>
   </g>
   <g id="line2d_6">
    <path d="M 177.708 28.48 
L 177.708 64.48 
L 180.672187 64.61407 
L 183.663107 65.02176 
L 186.429917 65.694001 
L 188.740568 66.599538 
L 189.662308 67.124567 
L 190.401271 67.687547 
L 190.941881 68.279767 
L 191.272744 68.891902 
L 191.386884 69.514207 
L 191.281898 70.13672 
L 190.959996 70.749478 
L 190.427965 71.342723 
L 189.697018 71.907106 
L 188.782564 72.433888 
L 186.483691 73.343825 
L 183.72415 74.021342 
L 180.73538 74.43474 
L 177.768043 74.574472 
L 175.071006 74.453942 
L 172.870465 74.108382 
L 171.350976 73.591898 
L 170.889011 73.290537 
L 170.639977 72.972928 
L 170.609122 72.648923 
L 170.797097 72.328509 
L 171.19994 72.021597 
L 172.611915 71.486292 
L 174.726626 71.113029 
L 177.366716 70.958236 
L 180.310764 71.060019 
L 183.311858 71.434963 
L 186.1183 72.076748 
L 188.494719 72.956671 
L 189.457494 73.471402 
L 190.241808 74.026057 
L 190.831131 74.612102 
L 191.213041 75.220342 
L 191.379487 75.841113 
L 191.326962 76.464487 
L 191.056572 77.080482 
L 190.574017 77.679271 
L 189.889468 78.25139 
L 189.017355 78.787935 
L 186.787529 79.722621 
L 184.071553 80.43006 
L 181.097211 80.876046 
L 178.113956 81.048297 
L 175.37199 80.95749 
L 173.101277 80.636365 
L 171.492258 80.136977 
L 170.980569 79.840936 
L 170.67988 79.526332 
L 170.596529 79.202952 
L 170.732275 78.880768 
L 171.084254 78.569731 
L 171.645048 78.279551 
L 173.341648 77.798228 
L 175.679782 77.502289 
L 178.463355 77.441678 
L 181.458913 77.646602 
L 184.415224 78.124998 
L 187.084345 78.861866 
L 189.242422 79.820531 
L 190.071138 80.366371 
L 190.70846 80.945713 
L 191.140955 81.549502 
L 191.359505 82.168169 
L 191.359505 82.791831 
L 191.140955 83.410498 
L 190.70846 84.014287 
L 190.071138 84.593629 
L 189.242422 85.139469 
L 188.23978 85.64346 
L 185.800473 86.497065 
L 182.957798 87.107979 
L 179.950165 87.450087 
L 177.029822 87.519821 
L 174.441691 87.336457 
L 172.402837 86.940496 
L 171.084254 86.390269 
L 170.732275 86.079232 
L 170.596529 85.757048 
L 170.67988 85.433668 
L 170.980569 85.119064 
L 171.492258 84.823023 
L 173.101277 84.323635 
L 175.37199 84.00251 
L 178.113956 83.911703 
L 181.097211 84.083954 
L 184.071553 84.52994 
L 186.787529 85.237379 
L 189.017355 86.172065 
L 189.889468 86.70861 
L 190.574017 87.280729 
L 191.056572 87.879518 
L 191.326962 88.495513 
L 191.379487 89.118887 
L 191.213041 89.739658 
L 190.831131 90.347898 
L 190.241808 90.933943 
L 189.457494 91.488598 
L 188.494719 92.003329 
L 186.1183 92.883252 
L 183.311858 93.525037 
L 180.310764 93.899981 
L 177.366716 94.001764 
L 174.726626 93.846971 
L 172.611915 93.473708 
L 171.19994 92.938403 
L 170.797097 92.631491 
L 170.609122 92.311077 
L 170.639977 91.987072 
L 170.889011 91.669463 
L 171.350976 91.368102 
L 172.870465 90.851618 
L 175.071006 90.506058 
L 177.768043 90.385528 
L 180.73538 90.52526 
L 183.72415 90.938658 
L 186.483691 91.616175 
L 188.782564 92.526112 
L 189.697018 93.052894 
L 190.427965 93.617277 
L 190.959996 94.210522 
L 191.281898 94.82328 
L 191.386884 95.445793 
L 191.272744 96.068098 
L 190.941881 96.680233 
L 190.401271 97.272453 
L 189.662308 97.835433 
L 188.740568 98.360462 
L 186.429917 99.265999 
L 183.663107 99.93824 
L 180.672187 100.34593 
L 177.708 100.48 
L 177.708 136.48 
L 177.708 136.48 
" clip-path="url(#pf1fd4be118)" style="fill: none; stroke: #000000; stroke-width: 2; stroke-linecap: round"/>
   </g>
   <g id="line2d_7">
    <path d="M 177.708 136.48 
L 123.708 136.48 
L 69.708 136.48 
" clip-path="url(#pf1fd4be118)" style="fill: none; stroke: #000000; stroke-width: 2; stroke-linecap: round"/>
   </g>
   <g id="text_1">
    <!-- $A e^{j \omega t}$ -->
    <g transform="translate(14.088 86.343125) scale(0.14 -0.14)">
     <defs>
      <path id="DejaVuSans-Oblique-41" d="M 2356 4666 
L 3072 4666 
L 3938 0 
L 3278 0 
L 3084 1197 
L 984 1197 
L 325 0 
L -341 0 
L 2356 4666 
z
M 2584 4044 
L 1275 1722 
L 2988 1722 
L 2584 4044 
z
" transform="scale(0.015625)"/>
      <path id="DejaVuSans-Oblique-65" d="M 3078 2063 
Q 3088 2113 3092 2166 
Q 3097 2219 3097 2272 
Q 3097 2653 2873 2875 
Q 2650 3097 2266 3097 
Q 1838 3097 1509 2826 
Q 1181 2556 1013 2059 
L 3078 2063 
z
M 3578 1613 
L 903 1613 
Q 884 1494 878 1425 
Q 872 1356 872 1306 
Q 872 872 1139 634 
Q 1406 397 1894 397 
Q 2269 397 2603 481 
Q 2938 566 3225 728 
L 3116 159 
Q 2806 34 2476 -28 
Q 2147 -91 1806 -91 
Q 1078 -91 686 257 
Q 294 606 294 1247 
Q 294 1794 489 2264 
Q 684 2734 1063 3103 
Q 1306 3334 1642 3459 
Q 1978 3584 2356 3584 
Q 2950 3584 3301 3228 
Q 3653 2872 3653 2272 
Q 3653 2128 3634 1964 
Q 3616 1800 3578 1613 
z
" transform="scale(0.015625)"/>
      <path id="DejaVuSans-Oblique-6a" d="M 928 3500 
L 1503 3500 
L 813 -63 
L 809 -78 
Q 694 -675 544 -897 
Q 403 -1106 132 -1218 
Q -138 -1331 -506 -1331 
L -722 -1331 
L -628 -844 
L -481 -844 
Q -144 -844 -1 -703 
Q 141 -563 238 -63 
L 928 3500 
z
M 1197 4863 
L 1772 4863 
L 1631 4134 
L 1056 4134 
L 1197 4863 
z
" transform="scale(0.015625)"/>
      <path id="DejaVuSans-Oblique-3c9" d="M 1369 -91 
Q 72 -91 434 1766 
Q 575 2500 1256 3500 
L 1875 3500 
Q 1231 2500 1088 1750 
Q 819 397 1519 397 
Q 2166 397 2478 2078 
L 3009 2078 
Q 2669 388 3316 397 
Q 4013 403 4275 1750 
Q 4419 2500 4169 3500 
L 4788 3500 
Q 5075 2500 4934 1766 
Q 4578 -94 3278 -91 
Q 2428 -88 2503 844 
Q 2194 -91 1369 -91 
z
" transform="scale(0.015625)"/>
      <path id="DejaVuSans-Oblique-74" d="M 2706 3500 
L 2619 3053 
L 1472 3053 
L 1100 1153 
Q 1081 1047 1072 975 
Q 1063 903 1063 863 
Q 1063 663 1183 572 
Q 1303 481 1569 481 
L 2150 481 
L 2053 0 
L 1503 0 
Q 991 0 739 200 
Q 488 400 488 806 
Q 488 878 497 964 
Q 506 1050 525 1153 
L 897 3053 
L 409 3053 
L 500 3500 
L 978 3500 
L 1172 4494 
L 1747 4494 
L 1556 3500 
L 2706 3500 
z
" transform="scale(0.015625)"/>
     </defs>
     <use xlink:href="#DejaVuSans-Oblique-41" transform="translate(0 0.529687)"/>
     <use xlink:href="#DejaVuSans-Oblique-65" transform="translate(68.408203 0.529687)"/>
     <use xlink:href="#DejaVuSans-Oblique-6a" transform="translate(134.581536 38.810937) scale(0.7)"/>
     <use xlink:href="#DejaVuSans-Oblique-3c9" transform="translate(154.029779 38.810937) scale(0.7)"/>
     <use xlink:href="#DejaVuSans-Oblique-74" transform="translate(212.647943 38.810937) scale(0.7)"/>
    </g>
   </g>
   <g id="text_2">
    <!-- R -->
    <g transform="translate(118.844094 12.968437) scale(0.14 -0.14)">
     <defs>
      <path id="DejaVuSans-52" d="M 2841 2188 
Q 3044 2119 3236 1894 
Q 3428 1669 3622 1275 
L 4263 0 
L 3584 0 
L 2988 1197 
Q 2756 1666 2539 1819 
Q 2322 1972 1947 1972 
L 1259 1972 
L 1259 0 
L 628 0 
L 628 4666 
L 2053 4666 
Q 2853 4666 3247 4331 
Q 3641 3997 3641 3322 
Q 3641 2881 3436 2590 
Q 3231 2300 2841 2188 
z
M 1259 4147 
L 1259 2491 
L 2053 2491 
Q 2509 2491 2742 2702 
Q 2975 2913 2975 3322 
Q 2975 3731 2742 3939 
Q 2509 4147 2053 4147 
L 1259 4147 
z
" transform="scale(0.015625)"/>
     </defs>
     <use xlink:href="#DejaVuSans-52"/>
    </g>
   </g>
   <g id="text_3">
    <!-- L -->
    <g transform="translate(194.986884 86.343125) scale(0.14 -0.14)">
     <defs>
      <path id="DejaVuSans-4c" d="M 628 4666 
L 1259 4666 
L 1259 531 
L 3531 531 
L 3531 0 
L 628 0 
L 628 4666 
z
" transform="scale(0.015625)"/>
     </defs>
     <use xlink:href="#DejaVuSans-4c"/>
    </g>
   </g>
  </g>
 </g>
 <defs>
  <clipPath id="pf1fd4be118">
   <rect x="0" y="0" width="207.646884" height="141.16"/>
  </clipPath>
 </defs>
</svg>