<?xml version="1.0" encoding="utf-8" standalone="no"?>
<!DOCTYPE svg PUBLIC "-//W3C//DTD SVG 1.1//EN"
  "http://www.w3.org/Graphics/SVG/1.1/DTD/svg11.dtd">
<svg xmlns:xlink="http://www.w3.org/1999/xlink" width="368.868pt" height="153.009095pt" viewBox="0 0 368.868 153.009095" xmlns="http://www.w3.org/2000/svg" version="1.1">
 <metadata>
  <rdf:RDF xmlns:dc="http://purl.org/dc/elements/1.1/" xmlns:cc="http://creativecommons.org/ns#" xmlns:rdf="http://www.w3.org/1999/02/22-rdf-syntax-ns#">
   <cc:Work>
    <dc:type rdf:resource="http://purl.org/dc/dcmitype/StillImage"/>
    <dc:date>2024-12-29T11:56:30.827799</dc:date>
    <dc:format>image/svg+xml</dc:format>
    <dc:creator>
     <cc:Agent>
      <dc:title>Matplotlib v3.9.2, https://matplotlib.org/</dc:title>
     </cc:Agent>
    </dc:creator>
   </cc:Work>
  </rdf:RDF>
 </metadata>
 <defs>
  <style type="text/css">*{stroke-linejoin: round; stroke-linecap: butt}</style>
 </defs>
 <g id="figure_1">
  <g id="patch_1">
   <path d="M 0 153.009095 
L 368.868 153.009095 
L 368.868 0 
L 0 0 
z
" style="fill: #ffffff"/>
  </g>
  <g id="axes_1">
   <g id="patch_2">
    <path d="M 90.526455 32.905185 
C 90.73603 30.23093 90.407489 27.522804 89.583284 25.130731 
C 88.75908 22.738658 87.476308 20.770303 85.900718 19.48 
" clip-path="url(#pc312871b21)" style="fill: none; stroke: #000000; stroke-width: 2; stroke-linejoin: miter"/>
   </g>
   <g id="patch_3">
    <path d="M 89.433698 42.201178 
L 87.802889 32.947506 
L 90.466549 33.260622 
L 90.508578 32.903084 
L 90.544332 32.907287 
L 90.502303 33.264825 
L 93.165962 33.577942 
z
" clip-path="url(#pc312871b21)" style="stroke: #000000; stroke-linejoin: miter"/>
   </g>
   <g id="patch_4">
    <path d="M 130.188 100.629095 
L 139.188 88.029095 
L 148.188 100.629095 
L 130.188 100.629095 
z
" clip-path="url(#pc312871b21)" style="fill: none; stroke: #000000; stroke-width: 2; stroke-linecap: round"/>
   </g>
   <g id="patch_5">
    <path d="M 184.188 40.329095 
C 184.188 39.136078 183.713571 37.990704 182.869981 37.147114 
C 182.02639 36.303524 180.881016 35.829095 179.688 35.829095 
C 178.494984 35.829095 177.34961 36.303524 176.506019 37.147114 
C 175.662429 37.990704 175.188 39.136078 175.188 40.329095 
" clip-path="url(#pc312871b21)" style="fill: none; stroke: #000000; stroke-width: 2; stroke-linejoin: miter"/>
   </g>
   <g id="patch_6">
    <path d="M 193.188 40.329095 
C 193.188 39.136078 192.713571 37.990704 191.869981 37.147114 
C 191.02639 36.303524 189.881016 35.829095 188.688 35.829095 
C 187.494984 35.829095 186.34961 36.303524 185.506019 37.147114 
C 184.662429 37.990704 184.188 39.136078 184.188 40.329095 
" clip-path="url(#pc312871b21)" style="fill: none; stroke: #000000; stroke-width: 2; stroke-linejoin: miter"/>
   </g>
   <g id="patch_7">
    <path d="M 202.188 40.329095 
C 202.188 39.136078 201.713571 37.990704 200.869981 37.147114 
C 200.02639 36.303524 198.881016 35.829095 197.688 35.829095 
C 196.494984 35.829095 195.34961 36.303524 194.506019 37.147114 
C 193.662429 37.990704 193.188 39.136078 193.188 40.329095 
" clip-path="url(#pc312871b21)" style="fill: none; stroke: #000000; stroke-width: 2; stroke-linejoin: miter"/>
   </g>
   <g id="patch_8">
    <path d="M 211.188 40.329095 
C 211.188 39.136078 210.713571 37.990704 209.869981 37.147114 
C 209.02639 36.303524 207.881016 35.829095 206.688 35.829095 
C 205.494984 35.829095 204.34961 36.303524 203.506019 37.147114 
C 202.662429 37.990704 202.188 39.136078 202.188 40.329095 
" clip-path="url(#pc312871b21)" style="fill: none; stroke: #000000; stroke-width: 2; stroke-linejoin: miter"/>
   </g>
   <g id="line2d_1">
    <path d="M 31.188 148.329095 
L 31.188 97.704095 
M 31.188 90.954095 
L 31.188 40.329095 
" clip-path="url(#pc312871b21)" style="fill: none; stroke: #000000; stroke-width: 2; stroke-linecap: round"/>
   </g>
   <g id="line2d_2">
    <path d="M 44.688 90.954095 
L 17.688 90.954095 
" clip-path="url(#pc312871b21)" style="fill: none; stroke: #000000; stroke-width: 2; stroke-linecap: round"/>
   </g>
   <g id="line2d_3">
    <path d="M 37.938 97.704095 
L 24.438 97.704095 
" clip-path="url(#pc312871b21)" style="fill: none; stroke: #000000; stroke-width: 2; stroke-linecap: round"/>
   </g>
   <g id="line2d_4">
    <path d="M 31.188 40.329095 
L 67.188 40.329095 
M 75.828 36.729095 
L 95.988 24.129095 
M 103.188 40.329095 
L 139.188 40.329095 
" clip-path="url(#pc312871b21)" style="fill: none; stroke: #000000; stroke-width: 2; stroke-linecap: round"/>
   </g>
   <g id="line2d_5">
    <path d="M 139.188 40.329095 
L 139.188 88.029095 
M 130.188 88.029095 
L 148.188 88.029095 
M 139.188 100.629095 
L 139.188 148.329095 
" clip-path="url(#pc312871b21)" style="fill: none; stroke: #000000; stroke-width: 2; stroke-linecap: round"/>
   </g>
   <g id="line2d_6">
    <path d="M 139.188 40.329095 
L 175.188 40.329095 
M 211.188 40.329095 
L 247.188 40.329095 
" clip-path="url(#pc312871b21)" style="fill: none; stroke: #000000; stroke-width: 2; stroke-linecap: round"/>
   </g>
   <g id="line2d_7">
    <path d="M 247.188 40.329095 
L 247.188 91.089095 
M 256.188 91.089095 
L 238.188 91.089095 
M 256.188 97.569095 
L 238.188 97.569095 
M 247.188 97.569095 
L 247.188 148.329095 
" clip-path="url(#pc312871b21)" style="fill: none; stroke: #000000; stroke-width: 2; stroke-linecap: round"/>
   </g>
   <g id="line2d_8">
    <path d="M 247.188 40.329095 
L 301.188 40.329095 
L 355.188 40.329095 
" clip-path="url(#pc312871b21)" style="fill: none; stroke: #000000; stroke-width: 2; stroke-linecap: round"/>
   </g>
   <g id="line2d_9">
    <path d="M 355.188 40.329095 
L 355.188 76.329095 
L 364.188 79.329095 
L 346.188 85.329095 
L 364.188 91.329095 
L 346.188 97.329095 
L 364.188 103.329095 
L 346.188 109.329095 
L 355.188 112.329095 
L 355.188 148.329095 
" clip-path="url(#pc312871b21)" style="fill: none; stroke: #000000; stroke-width: 2; stroke-linecap: round"/>
   </g>
   <g id="line2d_10">
    <path d="M 355.188 148.329095 
L 193.188 148.329095 
L 31.188 148.329095 
" clip-path="url(#pc312871b21)" style="fill: none; stroke: #000000; stroke-width: 2; stroke-linecap: round"/>
   </g>
   <g id="text_1">
    <!-- E -->
    <g transform="translate(5.24175 98.19222) scale(0.14 -0.14)">
     <defs>
      <path id="DejaVuSans-45" d="M 628 4666 
L 3578 4666 
L 3578 4134 
L 1259 4134 
L 1259 2753 
L 3481 2753 
L 3481 2222 
L 1259 2222 
L 1259 531 
L 3634 531 
L 3634 0 
L 628 0 
L 628 4666 
z
" transform="scale(0.015625)"/>
     </defs>
     <use xlink:href="#DejaVuSans-45"/>
    </g>
   </g>
   <g id="patch_9">
    <path d="M 71.508 44.649095 
C 72.653677 44.649095 73.752585 44.193912 74.562701 43.383796 
C 75.372818 42.57368 75.828 41.474772 75.828 40.329095 
C 75.828 39.183417 75.372818 38.08451 74.562701 37.274393 
C 73.752585 36.464277 72.653677 36.009095 71.508 36.009095 
C 70.362323 36.009095 69.263415 36.464277 68.453299 37.274393 
C 67.643182 38.08451 67.188 39.183417 67.188 40.329095 
C 67.188 41.474772 67.643182 42.57368 68.453299 43.383796 
C 69.263415 44.193912 70.362323 44.649095 71.508 44.649095 
z
" clip-path="url(#pc312871b21)" style="fill: #ffffff; stroke: #000000; stroke-width: 2; stroke-linejoin: miter"/>
   </g>
   <g id="patch_10">
    <path d="M 98.868 44.649095 
C 100.013677 44.649095 101.112585 44.193912 101.922701 43.383796 
C 102.732818 42.57368 103.188 41.474772 103.188 40.329095 
C 103.188 39.183417 102.732818 38.08451 101.922701 37.274393 
C 101.112585 36.464277 100.013677 36.009095 98.868 36.009095 
C 97.722323 36.009095 96.623415 36.464277 95.813299 37.274393 
C 95.003182 38.08451 94.548 39.183417 94.548 40.329095 
C 94.548 41.474772 95.003182 42.57368 95.813299 43.383796 
C 96.623415 44.193912 97.722323 44.649095 98.868 44.649095 
z
" clip-path="url(#pc312871b21)" style="fill: #ffffff; stroke: #000000; stroke-width: 2; stroke-linejoin: miter"/>
   </g>
   <g id="text_2">
    <!-- S -->
    <g transform="translate(80.744094 12.968437) scale(0.14 -0.14)">
     <defs>
      <path id="DejaVuSans-53" d="M 3425 4513 
L 3425 3897 
Q 3066 4069 2747 4153 
Q 2428 4238 2131 4238 
Q 1616 4238 1336 4038 
Q 1056 3838 1056 3469 
Q 1056 3159 1242 3001 
Q 1428 2844 1947 2747 
L 2328 2669 
Q 3034 2534 3370 2195 
Q 3706 1856 3706 1288 
Q 3706 609 3251 259 
Q 2797 -91 1919 -91 
Q 1588 -91 1214 -16 
Q 841 59 441 206 
L 441 856 
Q 825 641 1194 531 
Q 1563 422 1919 422 
Q 2459 422 2753 634 
Q 3047 847 3047 1241 
Q 3047 1584 2836 1778 
Q 2625 1972 2144 2069 
L 1759 2144 
Q 1053 2284 737 2584 
Q 422 2884 422 3419 
Q 422 4038 858 4394 
Q 1294 4750 2059 4750 
Q 2388 4750 2728 4690 
Q 3069 4631 3425 4513 
z
" transform="scale(0.015625)"/>
     </defs>
     <use xlink:href="#DejaVuSans-53"/>
    </g>
   </g>
   <g id="text_3">
    <!-- D -->
    <g transform="translate(115.808 98.19222) scale(0.14 -0.14)">
     <defs>
      <path id="DejaVuSans-44" d="M 1259 4147 
L 1259 519 
L 2022 519 
Q 2988 519 3436 956 
Q 3884 1394 3884 2338 
Q 3884 3275 3436 3711 
Q 2988 4147 2022 4147 
L 1259 4147 
z
M 628 4666 
L 1925 4666 
Q 3281 4666 3915 4102 
Q 4550 3538 4550 2338 
Q 4550 1131 3912 565 
Q 3275 0 1925 0 
L 628 0 
L 628 4666 
z
" transform="scale(0.015625)"/>
     </defs>
     <use xlink:href="#DejaVuSans-44"/>
    </g>
   </g>
   <g id="text_4">
    <!-- L -->
    <g transform="translate(189.287687 29.317555) scale(0.14 -0.14)">
     <defs>
      <path id="DejaVuSans-4c" d="M 628 4666 
L 1259 4666 
L 1259 531 
L 3531 531 
L 3531 0 
L 628 0 
L 628 4666 
z
" transform="scale(0.015625)"/>
     </defs>
     <use xlink:href="#DejaVuSans-4c"/>
    </g>
   </g>
   <g id="text_5">
    <!-- C -->
    <g transform="translate(224.812062 98.19222) scale(0.14 -0.14)">
     <defs>
      <path id="DejaVuSans-43" d="M 4122 4306 
L 4122 3641 
Q 3803 3938 3442 4084 
Q 3081 4231 2675 4231 
Q 1875 4231 1450 3742 
Q 1025 3253 1025 2328 
Q 1025 1406 1450 917 
Q 1875 428 2675 428 
Q 3081 428 3442 575 
Q 3803 722 4122 1019 
L 4122 359 
Q 3791 134 3420 21 
Q 3050 -91 2638 -91 
Q 1578 -91 968 557 
Q 359 1206 359 2328 
Q 359 3453 968 4101 
Q 1578 4750 2638 4750 
Q 3056 4750 3426 4639 
Q 3797 4528 4122 4306 
z
" transform="scale(0.015625)"/>
     </defs>
     <use xlink:href="#DejaVuSans-43"/>
    </g>
   </g>
   <g id="text_6">
    <!-- RL -->
    <g transform="translate(325.059563 98.19222) scale(0.14 -0.14)">
     <defs>
      <path id="DejaVuSans-52" d="M 2841 2188 
Q 3044 2119 3236 1894 
Q 3428 1669 3622 1275 
L 4263 0 
L 3584 0 
L 2988 1197 
Q 2756 1666 2539 1819 
Q 2322 1972 1947 1972 
L 1259 1972 
L 1259 0 
L 628 0 
L 628 4666 
L 2053 4666 
Q 2853 4666 3247 4331 
Q 3641 3997 3641 3322 
Q 3641 2881 3436 2590 
Q 3231 2300 2841 2188 
z
M 1259 4147 
L 1259 2491 
L 2053 2491 
Q 2509 2491 2742 2702 
Q 2975 2913 2975 3322 
Q 2975 3731 2742 3939 
Q 2509 4147 2053 4147 
L 1259 4147 
z
" transform="scale(0.015625)"/>
     </defs>
     <use xlink:href="#DejaVuSans-52"/>
     <use xlink:href="#DejaVuSans-4c" x="69.482422"/>
    </g>
   </g>
  </g>
 </g>
 <defs>
  <clipPath id="pc312871b21">
   <rect x="0" y="0" width="368.868" height="153.009095"/>
  </clipPath>
 </defs>
</svg>