<?xml version="1.0" encoding="utf-8" standalone="no"?>
<!DOCTYPE svg PUBLIC "-//W3C//DTD SVG 1.1//EN"
  "http://www.w3.org/Graphics/SVG/1.1/DTD/svg11.dtd">
<svg xmlns:xlink="http://www.w3.org/1999/xlink" width="213.106884pt" height="143.96pt" viewBox="0 0 213.106884 143.96" xmlns="http://www.w3.org/2000/svg" version="1.1">
 <metadata>
  <rdf:RDF xmlns:dc="http://purl.org/dc/elements/1.1/" xmlns:cc="http://creativecommons.org/ns#" xmlns:rdf="http://www.w3.org/1999/02/22-rdf-syntax-ns#">
   <cc:Work>
    <dc:type rdf:resource="http://purl.org/dc/dcmitype/StillImage"/>
    <dc:date>2025-05-14T19:10:02.814635</dc:date>
    <dc:format>image/svg+xml</dc:format>
    <dc:creator>
     <cc:Agent>
      <dc:title>Matplotlib v3.10.3, https://matplotlib.org/</dc:title>
     </cc:Agent>
    </dc:creator>
   </cc:Work>
  </rdf:RDF>
 </metadata>
 <defs>
  <style type="text/css">*{stroke-linejoin: round; stroke-linecap: butt}</style>
 </defs>
 <g id="figure_1">
  <g id="patch_1">
   <path d="M 0 143.96 
L 213.106884 143.96 
L 213.106884 0 
L 0 0 
z
" style="fill: #ffffff"/>
  </g>
  <g id="axes_1">
   <g id="patch_2">
    <path d="M 75.168 103.28 
C 79.941656 103.28 84.520438 101.383406 87.895922 98.007922 
C 91.271406 94.632438 93.168 90.053656 93.168 85.28 
C 93.168 80.506344 91.271406 75.927562 87.895922 72.552078 
C 84.520438 69.176594 79.941656 67.28 75.168 67.28 
C 70.394344 67.28 65.815562 69.176594 62.440078 72.552078 
C 59.064594 75.927562 57.168 80.506344 57.168 85.28 
C 57.168 90.053656 59.064594 94.632438 62.440078 98.007922 
C 65.815562 101.383406 70.394344 103.28 75.168 103.28 
L 75.168 103.28 
z
" clip-path="url(#p49a22f46c5)" style="fill: none; stroke: #000000; stroke-width: 2; stroke-linejoin: miter"/>
   </g>
   <g id="line2d_1">
    <path d="M 75.168 139.28 
L 75.168 103.28 
L 75.168 103.28 
M 75.168 67.28 
L 75.168 67.28 
L 75.168 31.28 
" clip-path="url(#p49a22f46c5)" style="fill: none; stroke: #000000; stroke-width: 2; stroke-linecap: round"/>
   </g>
   <g id="line2d_2">
    <path d="M 78.768 94.28 
L 71.568 94.28 
" clip-path="url(#p49a22f46c5)" style="fill: none; stroke: #000000; stroke-width: 2; stroke-linecap: round"/>
   </g>
   <g id="line2d_3">
    <path d="M 75.168 79.88 
L 75.168 72.68 
" clip-path="url(#p49a22f46c5)" style="fill: none; stroke: #000000; stroke-width: 2; stroke-linecap: round"/>
   </g>
   <g id="line2d_4">
    <path d="M 78.768 76.28 
L 71.568 76.28 
" clip-path="url(#p49a22f46c5)" style="fill: none; stroke: #000000; stroke-width: 2; stroke-linecap: round"/>
   </g>
   <g id="line2d_5">
    <path d="M 75.168 31.28 
L 111.168 31.28 
L 114.168 22.28 
L 120.168 40.28 
L 126.168 22.28 
L 132.168 40.28 
L 138.168 22.28 
L 144.168 40.28 
L 147.168 31.28 
L 183.168 31.28 
" clip-path="url(#p49a22f46c5)" style="fill: none; stroke: #000000; stroke-width: 2; stroke-linecap: round"/>
   </g>
   <g id="line2d_6">
    <path d="M 183.168 31.28 
L 183.168 67.28 
L 186.132187 67.41407 
L 189.123107 67.82176 
L 191.889917 68.494001 
L 194.200568 69.399538 
L 195.122308 69.924567 
L 195.861271 70.487547 
L 196.401881 71.079767 
L 196.732744 71.691902 
L 196.846884 72.314207 
L 196.741898 72.93672 
L 196.419996 73.549478 
L 195.887965 74.142723 
L 195.157018 74.707106 
L 194.242564 75.233888 
L 191.943691 76.143825 
L 189.18415 76.821342 
L 186.19538 77.23474 
L 183.228043 77.374472 
L 180.531006 77.253942 
L 178.330465 76.908382 
L 176.810976 76.391898 
L 176.349011 76.090537 
L 176.099977 75.772928 
L 176.069122 75.448923 
L 176.257097 75.128509 
L 176.65994 74.821597 
L 178.071915 74.286292 
L 180.186626 73.913029 
L 182.826716 73.758236 
L 185.770764 73.860019 
L 188.771858 74.234963 
L 191.5783 74.876748 
L 193.954719 75.756671 
L 194.917494 76.271402 
L 195.701808 76.826057 
L 196.291131 77.412102 
L 196.673041 78.020342 
L 196.839487 78.641113 
L 196.786962 79.264487 
L 196.516572 79.880482 
L 196.034017 80.479271 
L 195.349468 81.05139 
L 194.477355 81.587935 
L 192.247529 82.522621 
L 189.531553 83.23006 
L 186.557211 83.676046 
L 183.573956 83.848297 
L 180.83199 83.75749 
L 178.561277 83.436365 
L 176.952258 82.936977 
L 176.440569 82.640936 
L 176.13988 82.326332 
L 176.056529 82.002952 
L 176.192275 81.680768 
L 176.544254 81.369731 
L 177.105048 81.079551 
L 178.801648 80.598228 
L 181.139782 80.302289 
L 183.923355 80.241678 
L 186.918913 80.446602 
L 189.875224 80.924998 
L 192.544345 81.661866 
L 194.702422 82.620531 
L 195.531138 83.166371 
L 196.16846 83.745713 
L 196.600955 84.349502 
L 196.819505 84.968169 
L 196.819505 85.591831 
L 196.600955 86.210498 
L 196.16846 86.814287 
L 195.531138 87.393629 
L 194.702422 87.939469 
L 193.69978 88.44346 
L 191.260473 89.297065 
L 188.417798 89.907979 
L 185.410165 90.250087 
L 182.489822 90.319821 
L 179.901691 90.136457 
L 177.862837 89.740496 
L 176.544254 89.190269 
L 176.192275 88.879232 
L 176.056529 88.557048 
L 176.13988 88.233668 
L 176.440569 87.919064 
L 176.952258 87.623023 
L 178.561277 87.123635 
L 180.83199 86.80251 
L 183.573956 86.711703 
L 186.557211 86.883954 
L 189.531553 87.32994 
L 192.247529 88.037379 
L 194.477355 88.972065 
L 195.349468 89.50861 
L 196.034017 90.080729 
L 196.516572 90.679518 
L 196.786962 91.295513 
L 196.839487 91.918887 
L 196.673041 92.539658 
L 196.291131 93.147898 
L 195.701808 93.733943 
L 194.917494 94.288598 
L 193.954719 94.803329 
L 191.5783 95.683252 
L 188.771858 96.325037 
L 185.770764 96.699981 
L 182.826716 96.801764 
L 180.186626 96.646971 
L 178.071915 96.273708 
L 176.65994 95.738403 
L 176.257097 95.431491 
L 176.069122 95.111077 
L 176.099977 94.787072 
L 176.349011 94.469463 
L 176.810976 94.168102 
L 178.330465 93.651618 
L 180.531006 93.306058 
L 183.228043 93.185528 
L 186.19538 93.32526 
L 189.18415 93.738658 
L 191.943691 94.416175 
L 194.242564 95.326112 
L 195.157018 95.852894 
L 195.887965 96.417277 
L 196.419996 97.010522 
L 196.741898 97.62328 
L 196.846884 98.245793 
L 196.732744 98.868098 
L 196.401881 99.480233 
L 195.861271 100.072453 
L 195.122308 100.635433 
L 194.200568 101.160462 
L 191.889917 102.065999 
L 189.123107 102.73824 
L 186.132187 103.14593 
L 183.168 103.28 
L 183.168 139.28 
L 183.168 139.28 
" clip-path="url(#p49a22f46c5)" style="fill: none; stroke: #000000; stroke-width: 2; stroke-linecap: round"/>
   </g>
   <g id="line2d_7">
    <path d="M 183.168 139.28 
L 129.168 139.28 
L 75.168 139.28 
" clip-path="url(#p49a22f46c5)" style="fill: none; stroke: #000000; stroke-width: 2; stroke-linecap: round"/>
   </g>
   <g id="text_1">
    <!-- $A e^{j Ω t}$ -->
    <g transform="translate(20.248 89.143125) scale(0.14 -0.14)">
     <defs>
      <path id="DejaVuSans-Oblique-41" d="M 2356 4666 
L 3072 4666 
L 3938 0 
L 3278 0 
L 3084 1197 
L 984 1197 
L 325 0 
L -341 0 
L 2356 4666 
z
M 2584 4044 
L 1275 1722 
L 2988 1722 
L 2584 4044 
z
" transform="scale(0.015625)"/>
      <path id="DejaVuSans-Oblique-65" d="M 3078 2063 
Q 3088 2113 3092 2166 
Q 3097 2219 3097 2272 
Q 3097 2653 2873 2875 
Q 2650 3097 2266 3097 
Q 1838 3097 1509 2826 
Q 1181 2556 1013 2059 
L 3078 2063 
z
M 3578 1613 
L 903 1613 
Q 884 1494 878 1425 
Q 872 1356 872 1306 
Q 872 872 1139 634 
Q 1406 397 1894 397 
Q 2269 397 2603 481 
Q 2938 566 3225 728 
L 3116 159 
Q 2806 34 2476 -28 
Q 2147 -91 1806 -91 
Q 1078 -91 686 257 
Q 294 606 294 1247 
Q 294 1794 489 2264 
Q 684 2734 1063 3103 
Q 1306 3334 1642 3459 
Q 1978 3584 2356 3584 
Q 2950 3584 3301 3228 
Q 3653 2872 3653 2272 
Q 3653 2128 3634 1964 
Q 3616 1800 3578 1613 
z
" transform="scale(0.015625)"/>
      <path id="DejaVuSans-Oblique-6a" d="M 928 3500 
L 1503 3500 
L 813 -63 
L 809 -78 
Q 694 -675 544 -897 
Q 403 -1106 132 -1218 
Q -138 -1331 -506 -1331 
L -722 -1331 
L -628 -844 
L -481 -844 
Q -144 -844 -1 -703 
Q 141 -563 238 -63 
L 928 3500 
z
M 1197 4863 
L 1772 4863 
L 1631 4134 
L 1056 4134 
L 1197 4863 
z
" transform="scale(0.015625)"/>
      <path id="DejaVuSans-3a9" d="M 4647 556 
L 4647 0 
L 2772 0 
L 2772 556 
Q 3325 859 3634 1378 
Q 3944 1897 3944 2528 
Q 3944 3278 3531 3731 
Q 3119 4184 2444 4184 
Q 1769 4184 1355 3729 
Q 941 3275 941 2528 
Q 941 1897 1250 1378 
Q 1563 859 2119 556 
L 2119 0 
L 244 0 
L 244 556 
L 1241 556 
Q 747 991 519 1456 
Q 294 1922 294 2497 
Q 294 3491 894 4106 
Q 1491 4722 2444 4722 
Q 3391 4722 3994 4106 
Q 4594 3494 4594 2528 
Q 4594 1922 4372 1459 
Q 4150 997 3647 556 
L 4647 556 
z
" transform="scale(0.015625)"/>
      <path id="DejaVuSans-Oblique-74" d="M 2706 3500 
L 2619 3053 
L 1472 3053 
L 1100 1153 
Q 1081 1047 1072 975 
Q 1063 903 1063 863 
Q 1063 663 1183 572 
Q 1303 481 1569 481 
L 2150 481 
L 2053 0 
L 1503 0 
Q 991 0 739 200 
Q 488 400 488 806 
Q 488 878 497 964 
Q 506 1050 525 1153 
L 897 3053 
L 409 3053 
L 500 3500 
L 978 3500 
L 1172 4494 
L 1747 4494 
L 1556 3500 
L 2706 3500 
z
" transform="scale(0.015625)"/>
     </defs>
     <use xlink:href="#DejaVuSans-Oblique-41" transform="translate(0 0.529687)"/>
     <use xlink:href="#DejaVuSans-Oblique-65" transform="translate(68.408203 0.529687)"/>
     <use xlink:href="#DejaVuSans-Oblique-6a" transform="translate(134.581536 38.810937) scale(0.7)"/>
     <use xlink:href="#DejaVuSans-3a9" transform="translate(154.029779 38.810937) scale(0.7)"/>
     <use xlink:href="#DejaVuSans-Oblique-74" transform="translate(207.52099 38.810937) scale(0.7)"/>
    </g>
   </g>
   <g id="text_2">
    <!-- R -->
    <g transform="translate(124.304094 15.768437) scale(0.14 -0.14)">
     <defs>
      <path id="DejaVuSans-52" d="M 2841 2188 
Q 3044 2119 3236 1894 
Q 3428 1669 3622 1275 
L 4263 0 
L 3584 0 
L 2988 1197 
Q 2756 1666 2539 1819 
Q 2322 1972 1947 1972 
L 1259 1972 
L 1259 0 
L 628 0 
L 628 4666 
L 2053 4666 
Q 2853 4666 3247 4331 
Q 3641 3997 3641 3322 
Q 3641 2881 3436 2590 
Q 3231 2300 2841 2188 
z
M 1259 4147 
L 1259 2491 
L 2053 2491 
Q 2509 2491 2742 2702 
Q 2975 2913 2975 3322 
Q 2975 3731 2742 3939 
Q 2509 4147 2053 4147 
L 1259 4147 
z
" transform="scale(0.015625)"/>
     </defs>
     <use xlink:href="#DejaVuSans-52"/>
    </g>
   </g>
   <g id="text_3">
    <!-- L -->
    <g transform="translate(200.446884 89.143125) scale(0.14 -0.14)">
     <defs>
      <path id="DejaVuSans-4c" d="M 628 4666 
L 1259 4666 
L 1259 531 
L 3531 531 
L 3531 0 
L 628 0 
L 628 4666 
z
" transform="scale(0.015625)"/>
     </defs>
     <use xlink:href="#DejaVuSans-4c"/>
    </g>
   </g>
  </g>
 </g>
 <defs>
  <clipPath id="p49a22f46c5">
   <rect x="0" y="0" width="213.106884" height="143.96"/>
  </clipPath>
 </defs>
</svg>