<?xml version="1.0" encoding="utf-8" standalone="no"?>
<!DOCTYPE svg PUBLIC "-//W3C//DTD SVG 1.1//EN"
  "http://www.w3.org/Graphics/SVG/1.1/DTD/svg11.dtd">
<svg xmlns:xlink="http://www.w3.org/1999/xlink" width="795.029532pt" height="243.627532pt" viewBox="0 0 795.029532 243.627532" xmlns="http://www.w3.org/2000/svg" version="1.1">
 <metadata>
  <rdf:RDF xmlns:dc="http://purl.org/dc/elements/1.1/" xmlns:cc="http://creativecommons.org/ns#" xmlns:rdf="http://www.w3.org/1999/02/22-rdf-syntax-ns#">
   <cc:Work>
    <dc:type rdf:resource="http://purl.org/dc/dcmitype/StillImage"/>
    <dc:date>2024-11-07T00:12:05.088012</dc:date>
    <dc:format>image/svg+xml</dc:format>
    <dc:creator>
     <cc:Agent>
      <dc:title>Matplotlib v3.9.2, https://matplotlib.org/</dc:title>
     </cc:Agent>
    </dc:creator>
   </cc:Work>
  </rdf:RDF>
 </metadata>
 <defs>
  <style type="text/css">*{stroke-linejoin: round; stroke-linecap: butt}</style>
 </defs>
 <g id="figure_1">
  <g id="patch_1">
   <path d="M 0 243.627532 
L 795.029532 243.627532 
L 795.029532 0 
L 0 0 
z
" style="fill: #ffffff"/>
  </g>
  <g id="axes_1">
   <g id="patch_2">
    <path d="M 130.446 87.88 
C 132.354826 87.88 134.187425 87.120913 135.537169 85.771169 
C 136.886913 84.421425 137.646 82.588826 137.646 80.68 
C 137.646 78.771174 136.886913 76.938575 135.537169 75.588831 
C 134.187425 74.239087 132.354826 73.48 130.446 73.48 
" clip-path="url(#p52f33ce812)" style="fill: none; stroke: #000000; stroke-width: 2; stroke-linejoin: miter"/>
   </g>
   <g id="patch_3">
    <path d="M 130.446 102.28 
C 132.354826 102.28 134.187425 101.520913 135.537169 100.171169 
C 136.886913 98.821425 137.646 96.988826 137.646 95.08 
C 137.646 93.171174 136.886913 91.338575 135.537169 89.988831 
C 134.187425 88.639087 132.354826 87.88 130.446 87.88 
" clip-path="url(#p52f33ce812)" style="fill: none; stroke: #000000; stroke-width: 2; stroke-linejoin: miter"/>
   </g>
   <g id="patch_4">
    <path d="M 130.446 116.68 
C 132.354826 116.68 134.187425 115.920913 135.537169 114.571169 
C 136.886913 113.221425 137.646 111.388826 137.646 109.48 
C 137.646 107.571174 136.886913 105.738575 135.537169 104.388831 
C 134.187425 103.039087 132.354826 102.28 130.446 102.28 
" clip-path="url(#p52f33ce812)" style="fill: none; stroke: #000000; stroke-width: 2; stroke-linejoin: miter"/>
   </g>
   <g id="patch_5">
    <path d="M 130.446 131.08 
C 132.354826 131.08 134.187425 130.320913 135.537169 128.971169 
C 136.886913 127.621425 137.646 125.788826 137.646 123.88 
C 137.646 121.971174 136.886913 120.138575 135.537169 118.788831 
C 134.187425 117.439087 132.354826 116.68 130.446 116.68 
" clip-path="url(#p52f33ce812)" style="fill: none; stroke: #000000; stroke-width: 2; stroke-linejoin: miter"/>
   </g>
   <g id="patch_6">
    <path d="M 166.446 73.48 
C 164.537174 73.48 162.704575 74.239087 161.354831 75.588831 
C 160.005087 76.938575 159.246 78.771174 159.246 80.68 
C 159.246 82.588826 160.005087 84.421425 161.354831 85.771169 
C 162.704575 87.120913 164.537174 87.88 166.446 87.88 
" clip-path="url(#p52f33ce812)" style="fill: none; stroke: #000000; stroke-width: 2; stroke-linejoin: miter"/>
   </g>
   <g id="patch_7">
    <path d="M 166.446 87.88 
C 164.537174 87.88 162.704575 88.639087 161.354831 89.988831 
C 160.005087 91.338575 159.246 93.171174 159.246 95.08 
C 159.246 96.988826 160.005087 98.821425 161.354831 100.171169 
C 162.704575 101.520913 164.537174 102.28 166.446 102.28 
" clip-path="url(#p52f33ce812)" style="fill: none; stroke: #000000; stroke-width: 2; stroke-linejoin: miter"/>
   </g>
   <g id="patch_8">
    <path d="M 166.446 102.28 
C 164.537174 102.28 162.704575 103.039087 161.354831 104.388831 
C 160.005087 105.738575 159.246 107.571174 159.246 109.48 
C 159.246 111.388826 160.005087 113.221425 161.354831 114.571169 
C 162.704575 115.920913 164.537174 116.68 166.446 116.68 
" clip-path="url(#p52f33ce812)" style="fill: none; stroke: #000000; stroke-width: 2; stroke-linejoin: miter"/>
   </g>
   <g id="patch_9">
    <path d="M 166.446 116.68 
C 164.537174 116.68 162.704575 117.439087 161.354831 118.788831 
C 160.005087 120.138575 159.246 121.971174 159.246 123.88 
C 159.246 125.788826 160.005087 127.621425 161.354831 128.971169 
C 162.704575 130.320913 164.537174 131.08 166.446 131.08 
" clip-path="url(#p52f33ce812)" style="fill: none; stroke: #000000; stroke-width: 2; stroke-linejoin: miter"/>
   </g>
   <g id="patch_10">
    <path d="M 261.4435 55.754578 
L 276.717007 53.208993 
L 274.171422 68.4825 
L 261.4435 55.754578 
z
" clip-path="url(#p52f33ce812)" style="fill: none; stroke: #000000; stroke-width: 2; stroke-linecap: round"/>
   </g>
   <g id="patch_11">
    <path d="M 350.538954 46.845032 
L 353.084539 62.118539 
L 337.811032 59.572954 
L 350.538954 46.845032 
z
" clip-path="url(#p52f33ce812)" style="fill: none; stroke: #000000; stroke-width: 2; stroke-linecap: round"/>
   </g>
   <g id="patch_12">
    <path d="M 337.811032 132.12211 
L 353.084539 129.576526 
L 350.538954 144.850032 
L 337.811032 132.12211 
z
" clip-path="url(#p52f33ce812)" style="fill: none; stroke: #000000; stroke-width: 2; stroke-linecap: round"/>
   </g>
   <g id="patch_13">
    <path d="M 274.171422 123.212565 
L 276.717007 138.486071 
L 261.4435 135.940487 
L 274.171422 123.212565 
z
" clip-path="url(#p52f33ce812)" style="fill: none; stroke: #000000; stroke-width: 2; stroke-linecap: round"/>
   </g>
   <g id="line2d_1">
    <path d="M 22.446 73.48 
L 76.446 73.48 
L 130.446 73.48 
" clip-path="url(#p52f33ce812)" style="fill: none; stroke: #000000; stroke-width: 2; stroke-linecap: round"/>
   </g>
   <g id="line2d_2">
    <path d="M 144.846 73.48 
L 144.846 131.08 
" clip-path="url(#p52f33ce812)" style="fill: none; stroke: #000000; stroke-width: 2; stroke-linecap: round"/>
   </g>
   <g id="line2d_3">
    <path d="M 152.046 73.48 
L 152.046 131.08 
" clip-path="url(#p52f33ce812)" style="fill: none; stroke: #000000; stroke-width: 2; stroke-linecap: round"/>
   </g>
   <g id="line2d_4">
    <path d="M 166.446 73.48 
L 184.446 73.48 
L 202.446 73.48 
" clip-path="url(#p52f33ce812)" style="fill: none; stroke: #000000; stroke-width: 2; stroke-linecap: round"/>
   </g>
   <g id="line2d_5">
    <path d="M 202.446 73.48 
L 202.446 46.48 
L 202.446 19.48 
" clip-path="url(#p52f33ce812)" style="fill: none; stroke: #000000; stroke-width: 2; stroke-linecap: round"/>
   </g>
   <g id="line2d_6">
    <path d="M 202.446 19.48 
L 256.446 19.48 
L 310.446 19.48 
" clip-path="url(#p52f33ce812)" style="fill: none; stroke: #000000; stroke-width: 2; stroke-linecap: round"/>
   </g>
   <g id="line2d_7">
    <path d="M 234.078468 95.847532 
L 267.807461 62.118539 
M 270.353046 46.845032 
L 283.080968 59.572954 
M 276.717007 53.208993 
L 310.446 19.48 
" clip-path="url(#p52f33ce812)" style="fill: none; stroke: #000000; stroke-width: 2; stroke-linecap: round"/>
   </g>
   <g id="line2d_8">
    <path d="M 310.446 19.48 
L 344.174993 53.208993 
M 359.4485 55.754578 
L 346.720578 68.4825 
M 353.084539 62.118539 
L 386.813532 95.847532 
" clip-path="url(#p52f33ce812)" style="fill: none; stroke: #000000; stroke-width: 2; stroke-linecap: round"/>
   </g>
   <g id="line2d_9">
    <path d="M 386.813532 95.847532 
L 353.084539 129.576526 
M 346.720578 123.212565 
L 359.4485 135.940487 
M 344.174993 138.486071 
L 310.446 172.215065 
" clip-path="url(#p52f33ce812)" style="fill: none; stroke: #000000; stroke-width: 2; stroke-linecap: round"/>
   </g>
   <g id="line2d_10">
    <path d="M 310.446 172.215065 
L 276.717007 138.486071 
M 283.080968 132.12211 
L 270.353046 144.850032 
M 267.807461 129.576526 
L 234.078468 95.847532 
" clip-path="url(#p52f33ce812)" style="fill: none; stroke: #000000; stroke-width: 2; stroke-linecap: round"/>
   </g>
   <g id="line2d_11">
    <path d="M 22.446 131.08 
L 76.446 131.08 
L 130.446 131.08 
" clip-path="url(#p52f33ce812)" style="fill: none; stroke: #000000; stroke-width: 2; stroke-linecap: round"/>
   </g>
   <g id="line2d_12">
    <path d="M 166.446 131.08 
L 184.446 131.08 
L 202.446 131.08 
" clip-path="url(#p52f33ce812)" style="fill: none; stroke: #000000; stroke-width: 2; stroke-linecap: round"/>
   </g>
   <g id="line2d_13">
    <path d="M 202.446 131.08 
L 202.446 158.08 
L 202.446 185.08 
" clip-path="url(#p52f33ce812)" style="fill: none; stroke: #000000; stroke-width: 2; stroke-linecap: round"/>
   </g>
   <g id="line2d_14">
    <path d="M 202.446 185.08 
L 256.446 185.08 
L 310.446 185.08 
" clip-path="url(#p52f33ce812)" style="fill: none; stroke: #000000; stroke-width: 2; stroke-linecap: round"/>
   </g>
   <g id="line2d_15">
    <path d="M 310.446 185.08 
L 310.446 178.647532 
L 310.446 172.215065 
" clip-path="url(#p52f33ce812)" style="fill: none; stroke: #000000; stroke-width: 2; stroke-linecap: round"/>
   </g>
   <g id="line2d_16">
    <path d="M 234.078468 95.847532 
L 227.328468 95.847532 
L 220.578468 95.847532 
" clip-path="url(#p52f33ce812)" style="fill: none; stroke: #000000; stroke-width: 2; stroke-linecap: round"/>
   </g>
   <g id="line2d_17">
    <path d="M 220.578468 95.847532 
L 220.578468 166.047532 
L 220.578468 236.247532 
" clip-path="url(#p52f33ce812)" style="fill: none; stroke: #000000; stroke-width: 2; stroke-linecap: round"/>
   </g>
   <g id="line2d_18">
    <path d="M 386.813532 95.847532 
L 440.813532 95.847532 
L 494.813532 95.847532 
" clip-path="url(#p52f33ce812)" style="fill: none; stroke: #000000; stroke-width: 2; stroke-linecap: round"/>
   </g>
   <g id="line2d_19">
    <path d="M 494.813532 95.847532 
L 548.813532 95.847532 
L 602.813532 95.847532 
" clip-path="url(#p52f33ce812)" style="fill: none; stroke: #000000; stroke-width: 2; stroke-linecap: round"/>
   </g>
   <g id="line2d_20">
    <path d="M 602.813532 95.847532 
L 620.813532 95.847532 
L 638.813532 95.847532 
" clip-path="url(#p52f33ce812)" style="fill: none; stroke: #000000; stroke-width: 2; stroke-linecap: round"/>
   </g>
   <g id="line2d_21">
    <path d="M 638.813532 95.847532 
L 638.813532 77.847532 
L 674.813532 77.847532 
L 674.813532 113.847532 
L 638.813532 113.847532 
L 638.813532 95.847532 
" clip-path="url(#p52f33ce812)" style="fill: none; stroke: #000000; stroke-width: 2; stroke-linecap: round"/>
   </g>
   <g id="line2d_22">
    <path d="M 674.813532 95.847532 
L 692.813532 95.847532 
L 710.813532 95.847532 
" clip-path="url(#p52f33ce812)" style="fill: none; stroke: #000000; stroke-width: 2; stroke-linecap: round"/>
   </g>
   <g id="line2d_23">
    <path d="M 710.813532 95.847532 
L 737.813532 95.847532 
L 764.813532 95.847532 
" clip-path="url(#p52f33ce812)" style="fill: none; stroke: #000000; stroke-width: 2; stroke-linecap: round"/>
   </g>
   <g id="line2d_24">
    <path d="M 764.813532 236.247532 
L 737.813532 236.247532 
L 710.813532 236.247532 
" clip-path="url(#p52f33ce812)" style="fill: none; stroke: #000000; stroke-width: 2; stroke-linecap: round"/>
   </g>
   <g id="line2d_25">
    <path d="M 710.813532 236.247532 
L 683.813532 236.247532 
L 656.813532 236.247532 
" clip-path="url(#p52f33ce812)" style="fill: none; stroke: #000000; stroke-width: 2; stroke-linecap: round"/>
   </g>
   <g id="line2d_26">
    <path d="M 656.813532 236.247532 
L 629.813532 236.247532 
L 602.813532 236.247532 
" clip-path="url(#p52f33ce812)" style="fill: none; stroke: #000000; stroke-width: 2; stroke-linecap: round"/>
   </g>
   <g id="line2d_27">
    <path d="M 602.813532 236.247532 
L 548.813532 236.247532 
L 494.813532 236.247532 
" clip-path="url(#p52f33ce812)" style="fill: none; stroke: #000000; stroke-width: 2; stroke-linecap: round"/>
   </g>
   <g id="line2d_28">
    <path d="M 494.813532 236.247532 
L 440.813532 236.247532 
L 386.813532 236.247532 
" clip-path="url(#p52f33ce812)" style="fill: none; stroke: #000000; stroke-width: 2; stroke-linecap: round"/>
   </g>
   <g id="line2d_29">
    <path d="M 386.813532 236.247532 
L 303.696 236.247532 
L 220.578468 236.247532 
" clip-path="url(#p52f33ce812)" style="fill: none; stroke: #000000; stroke-width: 2; stroke-linecap: round"/>
   </g>
   <g id="line2d_30">
    <path d="M 494.813532 95.847532 
L 494.813532 162.807532 
M 503.813532 162.807532 
L 485.813532 162.807532 
M 503.813532 169.287532 
L 485.813532 169.287532 
M 494.813532 169.287532 
L 494.813532 236.247532 
" clip-path="url(#p52f33ce812)" style="fill: none; stroke: #000000; stroke-width: 2; stroke-linecap: round"/>
   </g>
   <g id="line2d_31">
    <path d="M 602.813532 95.847532 
L 602.813532 162.807532 
M 611.813532 162.807532 
L 593.813532 162.807532 
M 611.813532 169.287532 
L 593.813532 169.287532 
M 602.813532 169.287532 
L 602.813532 236.247532 
" clip-path="url(#p52f33ce812)" style="fill: none; stroke: #000000; stroke-width: 2; stroke-linecap: round"/>
   </g>
   <g id="line2d_32">
    <path d="M 656.813532 236.247532 
L 656.813532 175.047532 
L 656.813532 113.847532 
" clip-path="url(#p52f33ce812)" style="fill: none; stroke: #000000; stroke-width: 2; stroke-linecap: round"/>
   </g>
   <g id="line2d_33">
    <path d="M 710.813532 95.847532 
L 710.813532 162.807532 
M 719.813532 162.807532 
L 701.813532 162.807532 
M 719.813532 169.287532 
L 701.813532 169.287532 
M 710.813532 169.287532 
L 710.813532 236.247532 
" clip-path="url(#p52f33ce812)" style="fill: none; stroke: #000000; stroke-width: 2; stroke-linecap: round"/>
   </g>
   <g id="text_1">
    <!-- Transformer -->
    <g transform="translate(106.447094 145.317813) scale(0.14 -0.14)">
     <defs>
      <path id="DejaVuSans-54" d="M -19 4666 
L 3928 4666 
L 3928 4134 
L 2272 4134 
L 2272 0 
L 1638 0 
L 1638 4134 
L -19 4134 
L -19 4666 
z
" transform="scale(0.015625)"/>
      <path id="DejaVuSans-72" d="M 2631 2963 
Q 2534 3019 2420 3045 
Q 2306 3072 2169 3072 
Q 1681 3072 1420 2755 
Q 1159 2438 1159 1844 
L 1159 0 
L 581 0 
L 581 3500 
L 1159 3500 
L 1159 2956 
Q 1341 3275 1631 3429 
Q 1922 3584 2338 3584 
Q 2397 3584 2469 3576 
Q 2541 3569 2628 3553 
L 2631 2963 
z
" transform="scale(0.015625)"/>
      <path id="DejaVuSans-61" d="M 2194 1759 
Q 1497 1759 1228 1600 
Q 959 1441 959 1056 
Q 959 750 1161 570 
Q 1363 391 1709 391 
Q 2188 391 2477 730 
Q 2766 1069 2766 1631 
L 2766 1759 
L 2194 1759 
z
M 3341 1997 
L 3341 0 
L 2766 0 
L 2766 531 
Q 2569 213 2275 61 
Q 1981 -91 1556 -91 
Q 1019 -91 701 211 
Q 384 513 384 1019 
Q 384 1609 779 1909 
Q 1175 2209 1959 2209 
L 2766 2209 
L 2766 2266 
Q 2766 2663 2505 2880 
Q 2244 3097 1772 3097 
Q 1472 3097 1187 3025 
Q 903 2953 641 2809 
L 641 3341 
Q 956 3463 1253 3523 
Q 1550 3584 1831 3584 
Q 2591 3584 2966 3190 
Q 3341 2797 3341 1997 
z
" transform="scale(0.015625)"/>
      <path id="DejaVuSans-6e" d="M 3513 2113 
L 3513 0 
L 2938 0 
L 2938 2094 
Q 2938 2591 2744 2837 
Q 2550 3084 2163 3084 
Q 1697 3084 1428 2787 
Q 1159 2491 1159 1978 
L 1159 0 
L 581 0 
L 581 3500 
L 1159 3500 
L 1159 2956 
Q 1366 3272 1645 3428 
Q 1925 3584 2291 3584 
Q 2894 3584 3203 3211 
Q 3513 2838 3513 2113 
z
" transform="scale(0.015625)"/>
      <path id="DejaVuSans-73" d="M 2834 3397 
L 2834 2853 
Q 2591 2978 2328 3040 
Q 2066 3103 1784 3103 
Q 1356 3103 1142 2972 
Q 928 2841 928 2578 
Q 928 2378 1081 2264 
Q 1234 2150 1697 2047 
L 1894 2003 
Q 2506 1872 2764 1633 
Q 3022 1394 3022 966 
Q 3022 478 2636 193 
Q 2250 -91 1575 -91 
Q 1294 -91 989 -36 
Q 684 19 347 128 
L 347 722 
Q 666 556 975 473 
Q 1284 391 1588 391 
Q 1994 391 2212 530 
Q 2431 669 2431 922 
Q 2431 1156 2273 1281 
Q 2116 1406 1581 1522 
L 1381 1569 
Q 847 1681 609 1914 
Q 372 2147 372 2553 
Q 372 3047 722 3315 
Q 1072 3584 1716 3584 
Q 2034 3584 2315 3537 
Q 2597 3491 2834 3397 
z
" transform="scale(0.015625)"/>
      <path id="DejaVuSans-66" d="M 2375 4863 
L 2375 4384 
L 1825 4384 
Q 1516 4384 1395 4259 
Q 1275 4134 1275 3809 
L 1275 3500 
L 2222 3500 
L 2222 3053 
L 1275 3053 
L 1275 0 
L 697 0 
L 697 3053 
L 147 3053 
L 147 3500 
L 697 3500 
L 697 3744 
Q 697 4328 969 4595 
Q 1241 4863 1831 4863 
L 2375 4863 
z
" transform="scale(0.015625)"/>
      <path id="DejaVuSans-6f" d="M 1959 3097 
Q 1497 3097 1228 2736 
Q 959 2375 959 1747 
Q 959 1119 1226 758 
Q 1494 397 1959 397 
Q 2419 397 2687 759 
Q 2956 1122 2956 1747 
Q 2956 2369 2687 2733 
Q 2419 3097 1959 3097 
z
M 1959 3584 
Q 2709 3584 3137 3096 
Q 3566 2609 3566 1747 
Q 3566 888 3137 398 
Q 2709 -91 1959 -91 
Q 1206 -91 779 398 
Q 353 888 353 1747 
Q 353 2609 779 3096 
Q 1206 3584 1959 3584 
z
" transform="scale(0.015625)"/>
      <path id="DejaVuSans-6d" d="M 3328 2828 
Q 3544 3216 3844 3400 
Q 4144 3584 4550 3584 
Q 5097 3584 5394 3201 
Q 5691 2819 5691 2113 
L 5691 0 
L 5113 0 
L 5113 2094 
Q 5113 2597 4934 2840 
Q 4756 3084 4391 3084 
Q 3944 3084 3684 2787 
Q 3425 2491 3425 1978 
L 3425 0 
L 2847 0 
L 2847 2094 
Q 2847 2600 2669 2842 
Q 2491 3084 2119 3084 
Q 1678 3084 1418 2786 
Q 1159 2488 1159 1978 
L 1159 0 
L 581 0 
L 581 3500 
L 1159 3500 
L 1159 2956 
Q 1356 3278 1631 3431 
Q 1906 3584 2284 3584 
Q 2666 3584 2933 3390 
Q 3200 3197 3328 2828 
z
" transform="scale(0.015625)"/>
      <path id="DejaVuSans-65" d="M 3597 1894 
L 3597 1613 
L 953 1613 
Q 991 1019 1311 708 
Q 1631 397 2203 397 
Q 2534 397 2845 478 
Q 3156 559 3463 722 
L 3463 178 
Q 3153 47 2828 -22 
Q 2503 -91 2169 -91 
Q 1331 -91 842 396 
Q 353 884 353 1716 
Q 353 2575 817 3079 
Q 1281 3584 2069 3584 
Q 2775 3584 3186 3129 
Q 3597 2675 3597 1894 
z
M 3022 2063 
Q 3016 2534 2758 2815 
Q 2500 3097 2075 3097 
Q 1594 3097 1305 2825 
Q 1016 2553 972 2059 
L 3022 2063 
z
" transform="scale(0.015625)"/>
     </defs>
     <use xlink:href="#DejaVuSans-54"/>
     <use xlink:href="#DejaVuSans-72" x="46.333984"/>
     <use xlink:href="#DejaVuSans-61" x="87.447266"/>
     <use xlink:href="#DejaVuSans-6e" x="148.726562"/>
     <use xlink:href="#DejaVuSans-73" x="212.105469"/>
     <use xlink:href="#DejaVuSans-66" x="264.205078"/>
     <use xlink:href="#DejaVuSans-6f" x="299.410156"/>
     <use xlink:href="#DejaVuSans-72" x="360.591797"/>
     <use xlink:href="#DejaVuSans-6d" x="399.955078"/>
     <use xlink:href="#DejaVuSans-65" x="497.367188"/>
     <use xlink:href="#DejaVuSans-72" x="558.890625"/>
    </g>
   </g>
   <g id="text_2">
    <!-- Rectifier -->
    <g transform="translate(281.458344 12.968438) scale(0.14 -0.14)">
     <defs>
      <path id="DejaVuSans-52" d="M 2841 2188 
Q 3044 2119 3236 1894 
Q 3428 1669 3622 1275 
L 4263 0 
L 3584 0 
L 2988 1197 
Q 2756 1666 2539 1819 
Q 2322 1972 1947 1972 
L 1259 1972 
L 1259 0 
L 628 0 
L 628 4666 
L 2053 4666 
Q 2853 4666 3247 4331 
Q 3641 3997 3641 3322 
Q 3641 2881 3436 2590 
Q 3231 2300 2841 2188 
z
M 1259 4147 
L 1259 2491 
L 2053 2491 
Q 2509 2491 2742 2702 
Q 2975 2913 2975 3322 
Q 2975 3731 2742 3939 
Q 2509 4147 2053 4147 
L 1259 4147 
z
" transform="scale(0.015625)"/>
      <path id="DejaVuSans-63" d="M 3122 3366 
L 3122 2828 
Q 2878 2963 2633 3030 
Q 2388 3097 2138 3097 
Q 1578 3097 1268 2742 
Q 959 2388 959 1747 
Q 959 1106 1268 751 
Q 1578 397 2138 397 
Q 2388 397 2633 464 
Q 2878 531 3122 666 
L 3122 134 
Q 2881 22 2623 -34 
Q 2366 -91 2075 -91 
Q 1284 -91 818 406 
Q 353 903 353 1747 
Q 353 2603 823 3093 
Q 1294 3584 2113 3584 
Q 2378 3584 2631 3529 
Q 2884 3475 3122 3366 
z
" transform="scale(0.015625)"/>
      <path id="DejaVuSans-74" d="M 1172 4494 
L 1172 3500 
L 2356 3500 
L 2356 3053 
L 1172 3053 
L 1172 1153 
Q 1172 725 1289 603 
Q 1406 481 1766 481 
L 2356 481 
L 2356 0 
L 1766 0 
Q 1100 0 847 248 
Q 594 497 594 1153 
L 594 3053 
L 172 3053 
L 172 3500 
L 594 3500 
L 594 4494 
L 1172 4494 
z
" transform="scale(0.015625)"/>
      <path id="DejaVuSans-69" d="M 603 3500 
L 1178 3500 
L 1178 0 
L 603 0 
L 603 3500 
z
M 603 4863 
L 1178 4863 
L 1178 4134 
L 603 4134 
L 603 4863 
z
" transform="scale(0.015625)"/>
     </defs>
     <use xlink:href="#DejaVuSans-52"/>
     <use xlink:href="#DejaVuSans-65" x="64.982422"/>
     <use xlink:href="#DejaVuSans-63" x="126.505859"/>
     <use xlink:href="#DejaVuSans-74" x="181.486328"/>
     <use xlink:href="#DejaVuSans-69" x="220.695312"/>
     <use xlink:href="#DejaVuSans-66" x="248.478516"/>
     <use xlink:href="#DejaVuSans-69" x="283.683594"/>
     <use xlink:href="#DejaVuSans-65" x="311.466797"/>
     <use xlink:href="#DejaVuSans-72" x="372.990234"/>
    </g>
   </g>
   <g id="text_3">
    <!-- AC IN -->
    <g transform="translate(3.365531 106.143125) scale(0.14 -0.14)">
     <defs>
      <path id="DejaVuSans-41" d="M 2188 4044 
L 1331 1722 
L 3047 1722 
L 2188 4044 
z
M 1831 4666 
L 2547 4666 
L 4325 0 
L 3669 0 
L 3244 1197 
L 1141 1197 
L 716 0 
L 50 0 
L 1831 4666 
z
" transform="scale(0.015625)"/>
      <path id="DejaVuSans-43" d="M 4122 4306 
L 4122 3641 
Q 3803 3938 3442 4084 
Q 3081 4231 2675 4231 
Q 1875 4231 1450 3742 
Q 1025 3253 1025 2328 
Q 1025 1406 1450 917 
Q 1875 428 2675 428 
Q 3081 428 3442 575 
Q 3803 722 4122 1019 
L 4122 359 
Q 3791 134 3420 21 
Q 3050 -91 2638 -91 
Q 1578 -91 968 557 
Q 359 1206 359 2328 
Q 359 3453 968 4101 
Q 1578 4750 2638 4750 
Q 3056 4750 3426 4639 
Q 3797 4528 4122 4306 
z
" transform="scale(0.015625)"/>
      <path id="DejaVuSans-20" transform="scale(0.015625)"/>
      <path id="DejaVuSans-49" d="M 628 4666 
L 1259 4666 
L 1259 0 
L 628 0 
L 628 4666 
z
" transform="scale(0.015625)"/>
      <path id="DejaVuSans-4e" d="M 628 4666 
L 1478 4666 
L 3547 763 
L 3547 4666 
L 4159 4666 
L 4159 0 
L 3309 0 
L 1241 3903 
L 1241 0 
L 628 0 
L 628 4666 
z
" transform="scale(0.015625)"/>
     </defs>
     <use xlink:href="#DejaVuSans-41"/>
     <use xlink:href="#DejaVuSans-43" x="66.658203"/>
     <use xlink:href="#DejaVuSans-20" x="136.482422"/>
     <use xlink:href="#DejaVuSans-49" x="168.269531"/>
     <use xlink:href="#DejaVuSans-4e" x="197.761719"/>
    </g>
   </g>
   <g id="patch_14">
    <path d="M 386.813532 98.547532 
C 387.529581 98.547532 388.216398 98.263043 388.722721 97.756721 
C 389.229043 97.250398 389.513532 96.563581 389.513532 95.847532 
C 389.513532 95.131484 389.229043 94.444667 388.722721 93.938344 
C 388.216398 93.432021 387.529581 93.147532 386.813532 93.147532 
C 386.097484 93.147532 385.410667 93.432021 384.904344 93.938344 
C 384.398021 94.444667 384.113532 95.131484 384.113532 95.847532 
C 384.113532 96.563581 384.398021 97.250398 384.904344 97.756721 
C 385.410667 98.263043 386.097484 98.547532 386.813532 98.547532 
z
" clip-path="url(#p52f33ce812)" style="stroke: #000000; stroke-width: 2; stroke-linejoin: miter"/>
   </g>
   <g id="patch_15">
    <path d="M 494.813532 98.547532 
C 495.529581 98.547532 496.216398 98.263043 496.722721 97.756721 
C 497.229043 97.250398 497.513532 96.563581 497.513532 95.847532 
C 497.513532 95.131484 497.229043 94.444667 496.722721 93.938344 
C 496.216398 93.432021 495.529581 93.147532 494.813532 93.147532 
C 494.097484 93.147532 493.410667 93.432021 492.904344 93.938344 
C 492.398021 94.444667 492.113532 95.131484 492.113532 95.847532 
C 492.113532 96.563581 492.398021 97.250398 492.904344 97.756721 
C 493.410667 98.263043 494.097484 98.547532 494.813532 98.547532 
z
" clip-path="url(#p52f33ce812)" style="stroke: #000000; stroke-width: 2; stroke-linejoin: miter"/>
   </g>
   <g id="patch_16">
    <path d="M 602.813532 98.547532 
C 603.529581 98.547532 604.216398 98.263043 604.722721 97.756721 
C 605.229043 97.250398 605.513532 96.563581 605.513532 95.847532 
C 605.513532 95.131484 605.229043 94.444667 604.722721 93.938344 
C 604.216398 93.432021 603.529581 93.147532 602.813532 93.147532 
C 602.097484 93.147532 601.410667 93.432021 600.904344 93.938344 
C 600.398021 94.444667 600.113532 95.131484 600.113532 95.847532 
C 600.113532 96.563581 600.398021 97.250398 600.904344 97.756721 
C 601.410667 98.263043 602.097484 98.547532 602.813532 98.547532 
z
" clip-path="url(#p52f33ce812)" style="stroke: #000000; stroke-width: 2; stroke-linejoin: miter"/>
   </g>
   <g id="text_4">
    <!-- Regulator -->
    <g transform="translate(622.937907 99.710657) scale(0.14 -0.14)">
     <defs>
      <path id="DejaVuSans-67" d="M 2906 1791 
Q 2906 2416 2648 2759 
Q 2391 3103 1925 3103 
Q 1463 3103 1205 2759 
Q 947 2416 947 1791 
Q 947 1169 1205 825 
Q 1463 481 1925 481 
Q 2391 481 2648 825 
Q 2906 1169 2906 1791 
z
M 3481 434 
Q 3481 -459 3084 -895 
Q 2688 -1331 1869 -1331 
Q 1566 -1331 1297 -1286 
Q 1028 -1241 775 -1147 
L 775 -588 
Q 1028 -725 1275 -790 
Q 1522 -856 1778 -856 
Q 2344 -856 2625 -561 
Q 2906 -266 2906 331 
L 2906 616 
Q 2728 306 2450 153 
Q 2172 0 1784 0 
Q 1141 0 747 490 
Q 353 981 353 1791 
Q 353 2603 747 3093 
Q 1141 3584 1784 3584 
Q 2172 3584 2450 3431 
Q 2728 3278 2906 2969 
L 2906 3500 
L 3481 3500 
L 3481 434 
z
" transform="scale(0.015625)"/>
      <path id="DejaVuSans-75" d="M 544 1381 
L 544 3500 
L 1119 3500 
L 1119 1403 
Q 1119 906 1312 657 
Q 1506 409 1894 409 
Q 2359 409 2629 706 
Q 2900 1003 2900 1516 
L 2900 3500 
L 3475 3500 
L 3475 0 
L 2900 0 
L 2900 538 
Q 2691 219 2414 64 
Q 2138 -91 1772 -91 
Q 1169 -91 856 284 
Q 544 659 544 1381 
z
M 1991 3584 
L 1991 3584 
z
" transform="scale(0.015625)"/>
      <path id="DejaVuSans-6c" d="M 603 4863 
L 1178 4863 
L 1178 0 
L 603 0 
L 603 4863 
z
" transform="scale(0.015625)"/>
     </defs>
     <use xlink:href="#DejaVuSans-52"/>
     <use xlink:href="#DejaVuSans-65" x="64.982422"/>
     <use xlink:href="#DejaVuSans-67" x="126.505859"/>
     <use xlink:href="#DejaVuSans-75" x="189.982422"/>
     <use xlink:href="#DejaVuSans-6c" x="253.361328"/>
     <use xlink:href="#DejaVuSans-61" x="281.144531"/>
     <use xlink:href="#DejaVuSans-74" x="342.423828"/>
     <use xlink:href="#DejaVuSans-6f" x="381.632812"/>
     <use xlink:href="#DejaVuSans-72" x="442.814453"/>
    </g>
   </g>
   <g id="patch_17">
    <path d="M 710.813532 98.547532 
C 711.529581 98.547532 712.216398 98.263043 712.722721 97.756721 
C 713.229043 97.250398 713.513532 96.563581 713.513532 95.847532 
C 713.513532 95.131484 713.229043 94.444667 712.722721 93.938344 
C 712.216398 93.432021 711.529581 93.147532 710.813532 93.147532 
C 710.097484 93.147532 709.410667 93.432021 708.904344 93.938344 
C 708.398021 94.444667 708.113532 95.131484 708.113532 95.847532 
C 708.113532 96.563581 708.398021 97.250398 708.904344 97.756721 
C 709.410667 98.263043 710.097484 98.547532 710.813532 98.547532 
z
" clip-path="url(#p52f33ce812)" style="stroke: #000000; stroke-width: 2; stroke-linejoin: miter"/>
   </g>
   <g id="text_5">
    <!-- + -->
    <g transform="translate(758.947751 134.810657) scale(0.14 -0.14)">
     <defs>
      <path id="DejaVuSans-2b" d="M 2944 4013 
L 2944 2272 
L 4684 2272 
L 4684 1741 
L 2944 1741 
L 2944 0 
L 2419 0 
L 2419 1741 
L 678 1741 
L 678 2272 
L 2419 2272 
L 2419 4013 
L 2944 4013 
z
" transform="scale(0.015625)"/>
     </defs>
     <use xlink:href="#DejaVuSans-2b"/>
    </g>
   </g>
   <g id="text_6">
    <!-- DC OUT -->
    <g transform="translate(737.40197 169.910657) scale(0.14 -0.14)">
     <defs>
      <path id="DejaVuSans-44" d="M 1259 4147 
L 1259 519 
L 2022 519 
Q 2988 519 3436 956 
Q 3884 1394 3884 2338 
Q 3884 3275 3436 3711 
Q 2988 4147 2022 4147 
L 1259 4147 
z
M 628 4666 
L 1925 4666 
Q 3281 4666 3915 4102 
Q 4550 3538 4550 2338 
Q 4550 1131 3912 565 
Q 3275 0 1925 0 
L 628 0 
L 628 4666 
z
" transform="scale(0.015625)"/>
      <path id="DejaVuSans-4f" d="M 2522 4238 
Q 1834 4238 1429 3725 
Q 1025 3213 1025 2328 
Q 1025 1447 1429 934 
Q 1834 422 2522 422 
Q 3209 422 3611 934 
Q 4013 1447 4013 2328 
Q 4013 3213 3611 3725 
Q 3209 4238 2522 4238 
z
M 2522 4750 
Q 3503 4750 4090 4092 
Q 4678 3434 4678 2328 
Q 4678 1225 4090 567 
Q 3503 -91 2522 -91 
Q 1538 -91 948 565 
Q 359 1222 359 2328 
Q 359 3434 948 4092 
Q 1538 4750 2522 4750 
z
" transform="scale(0.015625)"/>
      <path id="DejaVuSans-55" d="M 556 4666 
L 1191 4666 
L 1191 1831 
Q 1191 1081 1462 751 
Q 1734 422 2344 422 
Q 2950 422 3222 751 
Q 3494 1081 3494 1831 
L 3494 4666 
L 4128 4666 
L 4128 1753 
Q 4128 841 3676 375 
Q 3225 -91 2344 -91 
Q 1459 -91 1007 375 
Q 556 841 556 1753 
L 556 4666 
z
" transform="scale(0.015625)"/>
     </defs>
     <use xlink:href="#DejaVuSans-44"/>
     <use xlink:href="#DejaVuSans-43" x="77.001953"/>
     <use xlink:href="#DejaVuSans-20" x="146.826172"/>
     <use xlink:href="#DejaVuSans-4f" x="178.613281"/>
     <use xlink:href="#DejaVuSans-55" x="257.324219"/>
     <use xlink:href="#DejaVuSans-54" x="330.517578"/>
    </g>
   </g>
   <g id="text_7">
    <!-- – -->
    <g transform="translate(761.313532 205.010657) scale(0.14 -0.14)">
     <defs>
      <path id="DejaVuSans-2013" d="M 313 1978 
L 2888 1978 
L 2888 1528 
L 313 1528 
L 313 1978 
z
" transform="scale(0.015625)"/>
     </defs>
     <use xlink:href="#DejaVuSans-2013"/>
    </g>
   </g>
   <g id="patch_18">
    <path d="M 710.813532 238.947532 
C 711.529581 238.947532 712.216398 238.663043 712.722721 238.156721 
C 713.229043 237.650398 713.513532 236.963581 713.513532 236.247532 
C 713.513532 235.531484 713.229043 234.844667 712.722721 234.338344 
C 712.216398 233.832021 711.529581 233.547532 710.813532 233.547532 
C 710.097484 233.547532 709.410667 233.832021 708.904344 234.338344 
C 708.398021 234.844667 708.113532 235.531484 708.113532 236.247532 
C 708.113532 236.963581 708.398021 237.650398 708.904344 238.156721 
C 709.410667 238.663043 710.097484 238.947532 710.813532 238.947532 
z
" clip-path="url(#p52f33ce812)" style="stroke: #000000; stroke-width: 2; stroke-linejoin: miter"/>
   </g>
   <g id="patch_19">
    <path d="M 656.813532 238.947532 
C 657.529581 238.947532 658.216398 238.663043 658.722721 238.156721 
C 659.229043 237.650398 659.513532 236.963581 659.513532 236.247532 
C 659.513532 235.531484 659.229043 234.844667 658.722721 234.338344 
C 658.216398 233.832021 657.529581 233.547532 656.813532 233.547532 
C 656.097484 233.547532 655.410667 233.832021 654.904344 234.338344 
C 654.398021 234.844667 654.113532 235.531484 654.113532 236.247532 
C 654.113532 236.963581 654.398021 237.650398 654.904344 238.156721 
C 655.410667 238.663043 656.097484 238.947532 656.813532 238.947532 
z
" clip-path="url(#p52f33ce812)" style="stroke: #000000; stroke-width: 2; stroke-linejoin: miter"/>
   </g>
   <g id="patch_20">
    <path d="M 602.813532 238.947532 
C 603.529581 238.947532 604.216398 238.663043 604.722721 238.156721 
C 605.229043 237.650398 605.513532 236.963581 605.513532 236.247532 
C 605.513532 235.531484 605.229043 234.844667 604.722721 234.338344 
C 604.216398 233.832021 603.529581 233.547532 602.813532 233.547532 
C 602.097484 233.547532 601.410667 233.832021 600.904344 234.338344 
C 600.398021 234.844667 600.113532 235.531484 600.113532 236.247532 
C 600.113532 236.963581 600.398021 237.650398 600.904344 238.156721 
C 601.410667 238.663043 602.097484 238.947532 602.813532 238.947532 
z
" clip-path="url(#p52f33ce812)" style="stroke: #000000; stroke-width: 2; stroke-linejoin: miter"/>
   </g>
   <g id="patch_21">
    <path d="M 494.813532 238.947532 
C 495.529581 238.947532 496.216398 238.663043 496.722721 238.156721 
C 497.229043 237.650398 497.513532 236.963581 497.513532 236.247532 
C 497.513532 235.531484 497.229043 234.844667 496.722721 234.338344 
C 496.216398 233.832021 495.529581 233.547532 494.813532 233.547532 
C 494.097484 233.547532 493.410667 233.832021 492.904344 234.338344 
C 492.398021 234.844667 492.113532 235.531484 492.113532 236.247532 
C 492.113532 236.963581 492.398021 237.650398 492.904344 238.156721 
C 493.410667 238.663043 494.097484 238.947532 494.813532 238.947532 
z
" clip-path="url(#p52f33ce812)" style="stroke: #000000; stroke-width: 2; stroke-linejoin: miter"/>
   </g>
   <g id="text_8">
    <!-- Filter -->
    <g transform="translate(447.53947 169.910657) scale(0.14 -0.14)">
     <defs>
      <path id="DejaVuSans-46" d="M 628 4666 
L 3309 4666 
L 3309 4134 
L 1259 4134 
L 1259 2759 
L 3109 2759 
L 3109 2228 
L 1259 2228 
L 1259 0 
L 628 0 
L 628 4666 
z
" transform="scale(0.015625)"/>
     </defs>
     <use xlink:href="#DejaVuSans-46"/>
     <use xlink:href="#DejaVuSans-69" x="50.269531"/>
     <use xlink:href="#DejaVuSans-6c" x="78.052734"/>
     <use xlink:href="#DejaVuSans-74" x="105.835938"/>
     <use xlink:href="#DejaVuSans-65" x="145.044922"/>
     <use xlink:href="#DejaVuSans-72" x="206.568359"/>
    </g>
   </g>
   <g id="text_9">
    <!-- C1 -->
    <g transform="translate(571.530095 169.910657) scale(0.14 -0.14)">
     <defs>
      <path id="DejaVuSans-31" d="M 794 531 
L 1825 531 
L 1825 4091 
L 703 3866 
L 703 4441 
L 1819 4666 
L 2450 4666 
L 2450 531 
L 3481 531 
L 3481 0 
L 794 0 
L 794 531 
z
" transform="scale(0.015625)"/>
     </defs>
     <use xlink:href="#DejaVuSans-43"/>
     <use xlink:href="#DejaVuSans-31" x="69.824219"/>
    </g>
   </g>
   <g id="text_10">
    <!-- C2 -->
    <g transform="translate(679.530095 169.910657) scale(0.14 -0.14)">
     <defs>
      <path id="DejaVuSans-32" d="M 1228 531 
L 3431 531 
L 3431 0 
L 469 0 
L 469 531 
Q 828 903 1448 1529 
Q 2069 2156 2228 2338 
Q 2531 2678 2651 2914 
Q 2772 3150 2772 3378 
Q 2772 3750 2511 3984 
Q 2250 4219 1831 4219 
Q 1534 4219 1204 4116 
Q 875 4013 500 3803 
L 500 4441 
Q 881 4594 1212 4672 
Q 1544 4750 1819 4750 
Q 2544 4750 2975 4387 
Q 3406 4025 3406 3419 
Q 3406 3131 3298 2873 
Q 3191 2616 2906 2266 
Q 2828 2175 2409 1742 
Q 1991 1309 1228 531 
z
" transform="scale(0.015625)"/>
     </defs>
     <use xlink:href="#DejaVuSans-43"/>
     <use xlink:href="#DejaVuSans-32" x="69.824219"/>
    </g>
   </g>
  </g>
 </g>
 <defs>
  <clipPath id="p52f33ce812">
   <rect x="0" y="0" width="795.029532" height="243.627532"/>
  </clipPath>
 </defs>
</svg>