<?xml version="1.0" encoding="utf-8" standalone="no"?>
<!DOCTYPE svg PUBLIC "-//W3C//DTD SVG 1.1//EN"
  "http://www.w3.org/Graphics/SVG/1.1/DTD/svg11.dtd">
<svg xmlns:xlink="http://www.w3.org/1999/xlink" width="246.0925pt" height="356.4pt" viewBox="0 0 246.0925 356.4" xmlns="http://www.w3.org/2000/svg" version="1.1">
 <metadata>
  <rdf:RDF xmlns:dc="http://purl.org/dc/elements/1.1/" xmlns:cc="http://creativecommons.org/ns#" xmlns:rdf="http://www.w3.org/1999/02/22-rdf-syntax-ns#">
   <cc:Work>
    <dc:type rdf:resource="http://purl.org/dc/dcmitype/StillImage"/>
    <dc:date>2024-11-19T07:53:49.146793</dc:date>
    <dc:format>image/svg+xml</dc:format>
    <dc:creator>
     <cc:Agent>
      <dc:title>Matplotlib v3.9.2, https://matplotlib.org/</dc:title>
     </cc:Agent>
    </dc:creator>
   </cc:Work>
  </rdf:RDF>
 </metadata>
 <defs>
  <style type="text/css">*{stroke-linejoin: round; stroke-linecap: butt}</style>
 </defs>
 <g id="figure_1">
  <g id="patch_1">
   <path d="M 0 356.4 
L 246.0925 356.4 
L 246.0925 0 
L 0 0 
z
" style="fill: #ffffff"/>
  </g>
  <g id="axes_1">
   <g id="patch_2">
    <path d="M 110.0125 112.68 
C 114.786156 112.68 119.364938 110.783406 122.740422 107.407922 
C 126.115906 104.032438 128.0125 99.453656 128.0125 94.68 
C 128.0125 89.906344 126.115906 85.327562 122.740422 81.952078 
C 119.364938 78.576594 114.786156 76.68 110.0125 76.68 
C 105.238844 76.68 100.660062 78.576594 97.284578 81.952078 
C 93.909094 85.327562 92.0125 89.906344 92.0125 94.68 
C 92.0125 99.453656 93.909094 104.032438 97.284578 107.407922 
C 100.660062 110.783406 105.238844 112.68 110.0125 112.68 
L 110.0125 112.68 
z
" clip-path="url(#p99d9667c52)" style="fill: none; stroke: #000000; stroke-width: 2; stroke-linejoin: miter"/>
   </g>
   <g id="patch_3">
    <path d="M 160.4125 112.68 
C 165.186156 112.68 169.764938 110.783406 173.140422 107.407922 
C 176.515906 104.032438 178.4125 99.453656 178.4125 94.68 
C 178.4125 89.906344 176.515906 85.327562 173.140422 81.952078 
C 169.764938 78.576594 165.186156 76.68 160.4125 76.68 
C 155.638844 76.68 151.060062 78.576594 147.684578 81.952078 
C 144.309094 85.327562 142.4125 89.906344 142.4125 94.68 
C 142.4125 99.453656 144.309094 104.032438 147.684578 107.407922 
C 151.060062 110.783406 155.638844 112.68 160.4125 112.68 
L 160.4125 112.68 
z
" clip-path="url(#p99d9667c52)" style="fill: none; stroke: #000000; stroke-width: 2; stroke-linejoin: miter"/>
   </g>
   <g id="line2d_1">
    <path d="M 110.0125 148.68 
L 110.0125 112.68 
L 110.0125 112.68 
M 110.0125 76.68 
L 110.0125 76.68 
L 110.0125 40.68 
" clip-path="url(#p99d9667c52)" style="fill: none; stroke: #000000; stroke-width: 2; stroke-linecap: round"/>
   </g>
   <g id="line2d_2">
    <path d="M 106.4125 85.68 
L 113.6125 85.68 
" clip-path="url(#p99d9667c52)" style="fill: none; stroke: #000000; stroke-width: 2; stroke-linecap: round"/>
   </g>
   <g id="line2d_3">
    <path d="M 110.0125 107.28 
L 110.0125 100.08 
" clip-path="url(#p99d9667c52)" style="fill: none; stroke: #000000; stroke-width: 2; stroke-linecap: round"/>
   </g>
   <g id="line2d_4">
    <path d="M 106.4125 103.68 
L 113.6125 103.68 
" clip-path="url(#p99d9667c52)" style="fill: none; stroke: #000000; stroke-width: 2; stroke-linecap: round"/>
   </g>
   <g id="line2d_5">
    <path d="M 160.4125 148.68 
L 160.4125 112.68 
L 160.4125 112.68 
M 160.4125 76.68 
L 160.4125 76.68 
L 160.4125 40.68 
" clip-path="url(#p99d9667c52)" style="fill: none; stroke: #000000; stroke-width: 2; stroke-linecap: round"/>
   </g>
   <g id="line2d_6">
    <path d="M 156.8125 85.68 
L 164.0125 85.68 
" clip-path="url(#p99d9667c52)" style="fill: none; stroke: #000000; stroke-width: 2; stroke-linecap: round"/>
   </g>
   <g id="line2d_7">
    <path d="M 160.4125 107.28 
L 160.4125 100.08 
" clip-path="url(#p99d9667c52)" style="fill: none; stroke: #000000; stroke-width: 2; stroke-linecap: round"/>
   </g>
   <g id="line2d_8">
    <path d="M 156.8125 103.68 
L 164.0125 103.68 
" clip-path="url(#p99d9667c52)" style="fill: none; stroke: #000000; stroke-width: 2; stroke-linecap: round"/>
   </g>
   <g id="line2d_9">
    <path d="M 160.4125 148.68 
M 164.0125 157.32 
L 169.4125 173.88 
M 174.8125 184.68 
" clip-path="url(#p99d9667c52)" style="fill: none; stroke: #000000; stroke-width: 2; stroke-linecap: round"/>
   </g>
   <g id="line2d_10">
    <path d="M 110.0125 148.68 
M 113.6125 157.32 
L 119.0125 173.88 
M 124.4125 184.68 
" clip-path="url(#p99d9667c52)" style="fill: none; stroke: #000000; stroke-width: 2; stroke-linecap: round"/>
   </g>
   <g id="line2d_11">
    <path d="M 119.0125 166.68 
L 167.6125 166.68 
" clip-path="url(#p99d9667c52)" style="fill: none; stroke-dasharray: 2,3.3; stroke-dashoffset: 0; stroke: #000000; stroke-width: 2"/>
   </g>
   <g id="line2d_12">
    <path d="M 110.0125 40.68 
L 110.0125 22.68 
L 110.0125 4.68 
" clip-path="url(#p99d9667c52)" style="fill: none; stroke: #000000; stroke-width: 2; stroke-linecap: round"/>
   </g>
   <g id="line2d_13">
    <path d="M 110.0125 4.68 
L 74.0125 4.68 
L 38.0125 4.68 
" clip-path="url(#p99d9667c52)" style="fill: none; stroke: #000000; stroke-width: 2; stroke-linecap: round"/>
   </g>
   <g id="line2d_14">
    <path d="M 38.0125 4.68 
L 38.0125 40.68 
L 38.0125 76.68 
" clip-path="url(#p99d9667c52)" style="fill: none; stroke: #000000; stroke-width: 2; stroke-linecap: round"/>
   </g>
   <g id="line2d_15">
    <path d="M 38.0125 76.68 
L 38.0125 91.08 
L 29.0125 91.08 
L 47.0125 91.08 
M 31.7125 95.4 
L 44.3125 95.4 
M 36.2125 99.72 
L 39.8125 99.72 
" clip-path="url(#p99d9667c52)" style="fill: none; stroke: #000000; stroke-width: 2; stroke-linecap: round"/>
   </g>
   <g id="line2d_16">
    <path d="M 160.4125 40.68 
L 160.4125 22.68 
L 160.4125 4.68 
" clip-path="url(#p99d9667c52)" style="fill: none; stroke: #000000; stroke-width: 2; stroke-linecap: round"/>
   </g>
   <g id="line2d_17">
    <path d="M 160.4125 4.68 
L 196.4125 4.68 
L 232.4125 4.68 
" clip-path="url(#p99d9667c52)" style="fill: none; stroke: #000000; stroke-width: 2; stroke-linecap: round"/>
   </g>
   <g id="line2d_18">
    <path d="M 232.4125 4.68 
L 232.4125 40.68 
L 232.4125 76.68 
" clip-path="url(#p99d9667c52)" style="fill: none; stroke: #000000; stroke-width: 2; stroke-linecap: round"/>
   </g>
   <g id="line2d_19">
    <path d="M 232.4125 76.68 
L 232.4125 91.08 
L 223.4125 91.08 
L 241.4125 91.08 
M 226.1125 95.4 
L 238.7125 95.4 
M 230.6125 99.72 
L 234.2125 99.72 
" clip-path="url(#p99d9667c52)" style="fill: none; stroke: #000000; stroke-width: 2; stroke-linecap: round"/>
   </g>
   <g id="line2d_20">
    <path d="M 95.6125 184.68 
L 95.6125 220.68 
L 104.6125 223.68 
L 86.6125 229.68 
L 104.6125 235.68 
L 86.6125 241.68 
L 104.6125 247.68 
L 86.6125 253.68 
L 95.6125 256.68 
L 95.6125 292.68 
" clip-path="url(#p99d9667c52)" style="fill: none; stroke: #000000; stroke-width: 2; stroke-linecap: round"/>
   </g>
   <g id="line2d_21">
    <path d="M 95.6125 292.68 
L 95.6125 310.68 
L 95.6125 328.68 
" clip-path="url(#p99d9667c52)" style="fill: none; stroke: #000000; stroke-width: 2; stroke-linecap: round"/>
   </g>
   <g id="line2d_22">
    <path d="M 95.6125 328.68 
L 95.6125 343.08 
L 86.6125 343.08 
L 104.6125 343.08 
M 89.3125 347.4 
L 101.9125 347.4 
M 93.8125 351.72 
L 97.4125 351.72 
" clip-path="url(#p99d9667c52)" style="fill: none; stroke: #000000; stroke-width: 2; stroke-linecap: round"/>
   </g>
   <g id="line2d_23">
    <path d="M 124.4125 184.68 
L 124.4125 220.68 
L 133.4125 223.68 
L 115.4125 229.68 
L 133.4125 235.68 
L 115.4125 241.68 
L 133.4125 247.68 
L 115.4125 253.68 
L 124.4125 256.68 
L 124.4125 292.68 
" clip-path="url(#p99d9667c52)" style="fill: none; stroke: #000000; stroke-width: 2; stroke-linecap: round"/>
   </g>
   <g id="line2d_24">
    <path d="M 124.4125 292.68 
L 124.4125 310.68 
L 124.4125 328.68 
" clip-path="url(#p99d9667c52)" style="fill: none; stroke: #000000; stroke-width: 2; stroke-linecap: round"/>
   </g>
   <g id="line2d_25">
    <path d="M 124.4125 328.68 
L 124.4125 343.08 
L 115.4125 343.08 
L 133.4125 343.08 
M 118.1125 347.4 
L 130.7125 347.4 
M 122.6125 351.72 
L 126.2125 351.72 
" clip-path="url(#p99d9667c52)" style="fill: none; stroke: #000000; stroke-width: 2; stroke-linecap: round"/>
   </g>
   <g id="line2d_26">
    <path d="M 146.0125 184.68 
L 146.0125 220.68 
L 155.0125 223.68 
L 137.0125 229.68 
L 155.0125 235.68 
L 137.0125 241.68 
L 155.0125 247.68 
L 137.0125 253.68 
L 146.0125 256.68 
L 146.0125 292.68 
" clip-path="url(#p99d9667c52)" style="fill: none; stroke: #000000; stroke-width: 2; stroke-linecap: round"/>
   </g>
   <g id="line2d_27">
    <path d="M 146.0125 292.68 
L 146.0125 310.68 
L 146.0125 328.68 
" clip-path="url(#p99d9667c52)" style="fill: none; stroke: #000000; stroke-width: 2; stroke-linecap: round"/>
   </g>
   <g id="line2d_28">
    <path d="M 146.0125 328.68 
L 146.0125 343.08 
L 137.0125 343.08 
L 155.0125 343.08 
M 139.7125 347.4 
L 152.3125 347.4 
M 144.2125 351.72 
L 147.8125 351.72 
" clip-path="url(#p99d9667c52)" style="fill: none; stroke: #000000; stroke-width: 2; stroke-linecap: round"/>
   </g>
   <g id="line2d_29">
    <path d="M 174.8125 184.68 
L 174.8125 220.68 
L 183.8125 223.68 
L 165.8125 229.68 
L 183.8125 235.68 
L 165.8125 241.68 
L 183.8125 247.68 
L 165.8125 253.68 
L 174.8125 256.68 
L 174.8125 292.68 
" clip-path="url(#p99d9667c52)" style="fill: none; stroke: #000000; stroke-width: 2; stroke-linecap: round"/>
   </g>
   <g id="line2d_30">
    <path d="M 174.8125 292.68 
L 174.8125 310.68 
L 174.8125 328.68 
" clip-path="url(#p99d9667c52)" style="fill: none; stroke: #000000; stroke-width: 2; stroke-linecap: round"/>
   </g>
   <g id="line2d_31">
    <path d="M 174.8125 328.68 
L 174.8125 343.08 
L 165.8125 343.08 
L 183.8125 343.08 
M 168.5125 347.4 
L 181.1125 347.4 
M 173.0125 351.72 
L 176.6125 351.72 
" clip-path="url(#p99d9667c52)" style="fill: none; stroke: #000000; stroke-width: 2; stroke-linecap: round"/>
   </g>
   <g id="text_1">
    <!-- V1 -->
    <g transform="translate(69.928125 98.543125) scale(0.14 -0.14)">
     <defs>
      <path id="DejaVuSans-56" d="M 1831 0 
L 50 4666 
L 709 4666 
L 2188 738 
L 3669 4666 
L 4325 4666 
L 2547 0 
L 1831 0 
z
" transform="scale(0.015625)"/>
      <path id="DejaVuSans-31" d="M 794 531 
L 1825 531 
L 1825 4091 
L 703 3866 
L 703 4441 
L 1819 4666 
L 2450 4666 
L 2450 531 
L 3481 531 
L 3481 0 
L 794 0 
L 794 531 
z
" transform="scale(0.015625)"/>
     </defs>
     <use xlink:href="#DejaVuSans-56"/>
     <use xlink:href="#DejaVuSans-31" x="68.408203"/>
    </g>
   </g>
   <g id="text_2">
    <!-- V2 -->
    <g transform="translate(182.0125 98.543125) scale(0.14 -0.14)">
     <defs>
      <path id="DejaVuSans-32" d="M 1228 531 
L 3431 531 
L 3431 0 
L 469 0 
L 469 531 
Q 828 903 1448 1529 
Q 2069 2156 2228 2338 
Q 2531 2678 2651 2914 
Q 2772 3150 2772 3378 
Q 2772 3750 2511 3984 
Q 2250 4219 1831 4219 
Q 1534 4219 1204 4116 
Q 875 4013 500 3803 
L 500 4441 
Q 881 4594 1212 4672 
Q 1544 4750 1819 4750 
Q 2544 4750 2975 4387 
Q 3406 4025 3406 3419 
Q 3406 3131 3298 2873 
Q 3191 2616 2906 2266 
Q 2828 2175 2409 1742 
Q 1991 1309 1228 531 
z
" transform="scale(0.015625)"/>
     </defs>
     <use xlink:href="#DejaVuSans-56"/>
     <use xlink:href="#DejaVuSans-32" x="68.408203"/>
    </g>
   </g>
   <g id="patch_4">
    <path d="M 160.4125 157.32 
C 161.558177 157.32 162.657085 156.864818 163.467201 156.054701 
C 164.277318 155.244585 164.7325 154.145677 164.7325 153 
C 164.7325 151.854323 164.277318 150.755415 163.467201 149.945299 
C 162.657085 149.135182 161.558177 148.68 160.4125 148.68 
C 159.266823 148.68 158.167915 149.135182 157.357799 149.945299 
C 156.547682 150.755415 156.0925 151.854323 156.0925 153 
C 156.0925 154.145677 156.547682 155.244585 157.357799 156.054701 
C 158.167915 156.864818 159.266823 157.32 160.4125 157.32 
z
" clip-path="url(#p99d9667c52)" style="fill: #ffffff; stroke: #000000; stroke-width: 2; stroke-linejoin: miter"/>
   </g>
   <g id="patch_5">
    <path d="M 146.0125 184.68 
C 147.158177 184.68 148.257085 184.224818 149.067201 183.414701 
C 149.877318 182.604585 150.3325 181.505677 150.3325 180.36 
C 150.3325 179.214323 149.877318 178.115415 149.067201 177.305299 
C 148.257085 176.495182 147.158177 176.04 146.0125 176.04 
C 144.866823 176.04 143.767915 176.495182 142.957799 177.305299 
C 142.147682 178.115415 141.6925 179.214323 141.6925 180.36 
C 141.6925 181.505677 142.147682 182.604585 142.957799 183.414701 
C 143.767915 184.224818 144.866823 184.68 146.0125 184.68 
z
" clip-path="url(#p99d9667c52)" style="fill: #ffffff; stroke: #000000; stroke-width: 2; stroke-linejoin: miter"/>
   </g>
   <g id="patch_6">
    <path d="M 174.8125 184.68 
C 175.958177 184.68 177.057085 184.224818 177.867201 183.414701 
C 178.677318 182.604585 179.1325 181.505677 179.1325 180.36 
C 179.1325 179.214323 178.677318 178.115415 177.867201 177.305299 
C 177.057085 176.495182 175.958177 176.04 174.8125 176.04 
C 173.666823 176.04 172.567915 176.495182 171.757799 177.305299 
C 170.947682 178.115415 170.4925 179.214323 170.4925 180.36 
C 170.4925 181.505677 170.947682 182.604585 171.757799 183.414701 
C 172.567915 184.224818 173.666823 184.68 174.8125 184.68 
z
" clip-path="url(#p99d9667c52)" style="fill: #ffffff; stroke: #000000; stroke-width: 2; stroke-linejoin: miter"/>
   </g>
   <g id="patch_7">
    <path d="M 110.0125 157.32 
C 111.158177 157.32 112.257085 156.864818 113.067201 156.054701 
C 113.877318 155.244585 114.3325 154.145677 114.3325 153 
C 114.3325 151.854323 113.877318 150.755415 113.067201 149.945299 
C 112.257085 149.135182 111.158177 148.68 110.0125 148.68 
C 108.866823 148.68 107.767915 149.135182 106.957799 149.945299 
C 106.147682 150.755415 105.6925 151.854323 105.6925 153 
C 105.6925 154.145677 106.147682 155.244585 106.957799 156.054701 
C 107.767915 156.864818 108.866823 157.32 110.0125 157.32 
z
" clip-path="url(#p99d9667c52)" style="fill: #ffffff; stroke: #000000; stroke-width: 2; stroke-linejoin: miter"/>
   </g>
   <g id="patch_8">
    <path d="M 95.6125 184.68 
C 96.758177 184.68 97.857085 184.224818 98.667201 183.414701 
C 99.477318 182.604585 99.9325 181.505677 99.9325 180.36 
C 99.9325 179.214323 99.477318 178.115415 98.667201 177.305299 
C 97.857085 176.495182 96.758177 176.04 95.6125 176.04 
C 94.466823 176.04 93.367915 176.495182 92.557799 177.305299 
C 91.747682 178.115415 91.2925 179.214323 91.2925 180.36 
C 91.2925 181.505677 91.747682 182.604585 92.557799 183.414701 
C 93.367915 184.224818 94.466823 184.68 95.6125 184.68 
z
" clip-path="url(#p99d9667c52)" style="fill: #ffffff; stroke: #000000; stroke-width: 2; stroke-linejoin: miter"/>
   </g>
   <g id="patch_9">
    <path d="M 124.4125 184.68 
C 125.558177 184.68 126.657085 184.224818 127.467201 183.414701 
C 128.277318 182.604585 128.7325 181.505677 128.7325 180.36 
C 128.7325 179.214323 128.277318 178.115415 127.467201 177.305299 
C 126.657085 176.495182 125.558177 176.04 124.4125 176.04 
C 123.266823 176.04 122.167915 176.495182 121.357799 177.305299 
C 120.547682 178.115415 120.0925 179.214323 120.0925 180.36 
C 120.0925 181.505677 120.547682 182.604585 121.357799 183.414701 
C 122.167915 184.224818 123.266823 184.68 124.4125 184.68 
z
" clip-path="url(#p99d9667c52)" style="fill: #ffffff; stroke: #000000; stroke-width: 2; stroke-linejoin: miter"/>
   </g>
   <g id="text_3">
    <!-- DPDT switch -->
    <g transform="translate(0 170.543125) scale(0.14 -0.14)">
     <defs>
      <path id="DejaVuSans-44" d="M 1259 4147 
L 1259 519 
L 2022 519 
Q 2988 519 3436 956 
Q 3884 1394 3884 2338 
Q 3884 3275 3436 3711 
Q 2988 4147 2022 4147 
L 1259 4147 
z
M 628 4666 
L 1925 4666 
Q 3281 4666 3915 4102 
Q 4550 3538 4550 2338 
Q 4550 1131 3912 565 
Q 3275 0 1925 0 
L 628 0 
L 628 4666 
z
" transform="scale(0.015625)"/>
      <path id="DejaVuSans-50" d="M 1259 4147 
L 1259 2394 
L 2053 2394 
Q 2494 2394 2734 2622 
Q 2975 2850 2975 3272 
Q 2975 3691 2734 3919 
Q 2494 4147 2053 4147 
L 1259 4147 
z
M 628 4666 
L 2053 4666 
Q 2838 4666 3239 4311 
Q 3641 3956 3641 3272 
Q 3641 2581 3239 2228 
Q 2838 1875 2053 1875 
L 1259 1875 
L 1259 0 
L 628 0 
L 628 4666 
z
" transform="scale(0.015625)"/>
      <path id="DejaVuSans-54" d="M -19 4666 
L 3928 4666 
L 3928 4134 
L 2272 4134 
L 2272 0 
L 1638 0 
L 1638 4134 
L -19 4134 
L -19 4666 
z
" transform="scale(0.015625)"/>
      <path id="DejaVuSans-20" transform="scale(0.015625)"/>
      <path id="DejaVuSans-73" d="M 2834 3397 
L 2834 2853 
Q 2591 2978 2328 3040 
Q 2066 3103 1784 3103 
Q 1356 3103 1142 2972 
Q 928 2841 928 2578 
Q 928 2378 1081 2264 
Q 1234 2150 1697 2047 
L 1894 2003 
Q 2506 1872 2764 1633 
Q 3022 1394 3022 966 
Q 3022 478 2636 193 
Q 2250 -91 1575 -91 
Q 1294 -91 989 -36 
Q 684 19 347 128 
L 347 722 
Q 666 556 975 473 
Q 1284 391 1588 391 
Q 1994 391 2212 530 
Q 2431 669 2431 922 
Q 2431 1156 2273 1281 
Q 2116 1406 1581 1522 
L 1381 1569 
Q 847 1681 609 1914 
Q 372 2147 372 2553 
Q 372 3047 722 3315 
Q 1072 3584 1716 3584 
Q 2034 3584 2315 3537 
Q 2597 3491 2834 3397 
z
" transform="scale(0.015625)"/>
      <path id="DejaVuSans-77" d="M 269 3500 
L 844 3500 
L 1563 769 
L 2278 3500 
L 2956 3500 
L 3675 769 
L 4391 3500 
L 4966 3500 
L 4050 0 
L 3372 0 
L 2619 2869 
L 1863 0 
L 1184 0 
L 269 3500 
z
" transform="scale(0.015625)"/>
      <path id="DejaVuSans-69" d="M 603 3500 
L 1178 3500 
L 1178 0 
L 603 0 
L 603 3500 
z
M 603 4863 
L 1178 4863 
L 1178 4134 
L 603 4134 
L 603 4863 
z
" transform="scale(0.015625)"/>
      <path id="DejaVuSans-74" d="M 1172 4494 
L 1172 3500 
L 2356 3500 
L 2356 3053 
L 1172 3053 
L 1172 1153 
Q 1172 725 1289 603 
Q 1406 481 1766 481 
L 2356 481 
L 2356 0 
L 1766 0 
Q 1100 0 847 248 
Q 594 497 594 1153 
L 594 3053 
L 172 3053 
L 172 3500 
L 594 3500 
L 594 4494 
L 1172 4494 
z
" transform="scale(0.015625)"/>
      <path id="DejaVuSans-63" d="M 3122 3366 
L 3122 2828 
Q 2878 2963 2633 3030 
Q 2388 3097 2138 3097 
Q 1578 3097 1268 2742 
Q 959 2388 959 1747 
Q 959 1106 1268 751 
Q 1578 397 2138 397 
Q 2388 397 2633 464 
Q 2878 531 3122 666 
L 3122 134 
Q 2881 22 2623 -34 
Q 2366 -91 2075 -91 
Q 1284 -91 818 406 
Q 353 903 353 1747 
Q 353 2603 823 3093 
Q 1294 3584 2113 3584 
Q 2378 3584 2631 3529 
Q 2884 3475 3122 3366 
z
" transform="scale(0.015625)"/>
      <path id="DejaVuSans-68" d="M 3513 2113 
L 3513 0 
L 2938 0 
L 2938 2094 
Q 2938 2591 2744 2837 
Q 2550 3084 2163 3084 
Q 1697 3084 1428 2787 
Q 1159 2491 1159 1978 
L 1159 0 
L 581 0 
L 581 4863 
L 1159 4863 
L 1159 2956 
Q 1366 3272 1645 3428 
Q 1925 3584 2291 3584 
Q 2894 3584 3203 3211 
Q 3513 2838 3513 2113 
z
" transform="scale(0.015625)"/>
     </defs>
     <use xlink:href="#DejaVuSans-44"/>
     <use xlink:href="#DejaVuSans-50" x="77.001953"/>
     <use xlink:href="#DejaVuSans-44" x="137.304688"/>
     <use xlink:href="#DejaVuSans-54" x="214.306641"/>
     <use xlink:href="#DejaVuSans-20" x="275.390625"/>
     <use xlink:href="#DejaVuSans-73" x="307.177734"/>
     <use xlink:href="#DejaVuSans-77" x="359.277344"/>
     <use xlink:href="#DejaVuSans-69" x="441.064453"/>
     <use xlink:href="#DejaVuSans-74" x="468.847656"/>
     <use xlink:href="#DejaVuSans-63" x="508.056641"/>
     <use xlink:href="#DejaVuSans-68" x="563.037109"/>
    </g>
   </g>
  </g>
 </g>
 <defs>
  <clipPath id="p99d9667c52">
   <rect x="4.7245" y="0" width="241.368" height="356.4"/>
  </clipPath>
 </defs>
</svg>