<?xml version="1.0" encoding="utf-8" standalone="no"?>
<!DOCTYPE svg PUBLIC "-//W3C//DTD SVG 1.1//EN"
  "http://www.w3.org/Graphics/SVG/1.1/DTD/svg11.dtd">
<svg xmlns:xlink="http://www.w3.org/1999/xlink" width="243.768pt" height="263.2pt" viewBox="0 0 243.768 263.2" xmlns="http://www.w3.org/2000/svg" version="1.1">
 <metadata>
  <rdf:RDF xmlns:dc="http://purl.org/dc/elements/1.1/" xmlns:cc="http://creativecommons.org/ns#" xmlns:rdf="http://www.w3.org/1999/02/22-rdf-syntax-ns#">
   <cc:Work>
    <dc:type rdf:resource="http://purl.org/dc/dcmitype/StillImage"/>
    <dc:date>2024-11-19T07:50:41.185874</dc:date>
    <dc:format>image/svg+xml</dc:format>
    <dc:creator>
     <cc:Agent>
      <dc:title>Matplotlib v3.9.2, https://matplotlib.org/</dc:title>
     </cc:Agent>
    </dc:creator>
   </cc:Work>
  </rdf:RDF>
 </metadata>
 <defs>
  <style type="text/css">*{stroke-linejoin: round; stroke-linecap: butt}</style>
 </defs>
 <g id="figure_1">
  <g id="patch_1">
   <path d="M 0 263.2 
L 243.768 263.2 
L 243.768 0 
L 0 0 
z
" style="fill: #ffffff"/>
  </g>
  <g id="axes_1">
   <g id="patch_2">
    <path d="M 35.688 91.48 
C 40.461656 91.48 45.040438 89.583406 48.415922 86.207922 
C 51.791406 82.832438 53.688 78.253656 53.688 73.48 
C 53.688 68.706344 51.791406 64.127562 48.415922 60.752078 
C 45.040438 57.376594 40.461656 55.48 35.688 55.48 
C 30.914344 55.48 26.335562 57.376594 22.960078 60.752078 
C 19.584594 64.127562 17.688 68.706344 17.688 73.48 
C 17.688 78.253656 19.584594 82.832438 22.960078 86.207922 
C 26.335562 89.583406 30.914344 91.48 35.688 91.48 
L 35.688 91.48 
z
" clip-path="url(#p2e91cf3acf)" style="fill: none; stroke: #000000; stroke-width: 2; stroke-linejoin: miter"/>
   </g>
   <g id="line2d_1">
    <path d="M 35.688 127.48 
L 35.688 91.48 
L 35.688 91.48 
M 35.688 55.48 
L 35.688 55.48 
L 35.688 19.48 
" clip-path="url(#p2e91cf3acf)" style="fill: none; stroke: #000000; stroke-width: 2; stroke-linecap: round"/>
   </g>
   <g id="line2d_2">
    <path d="M 39.288 82.48 
L 32.088 82.48 
" clip-path="url(#p2e91cf3acf)" style="fill: none; stroke: #000000; stroke-width: 2; stroke-linecap: round"/>
   </g>
   <g id="line2d_3">
    <path d="M 35.688 68.08 
L 35.688 60.88 
" clip-path="url(#p2e91cf3acf)" style="fill: none; stroke: #000000; stroke-width: 2; stroke-linecap: round"/>
   </g>
   <g id="line2d_4">
    <path d="M 39.288 64.48 
L 32.088 64.48 
" clip-path="url(#p2e91cf3acf)" style="fill: none; stroke: #000000; stroke-width: 2; stroke-linecap: round"/>
   </g>
   <g id="line2d_5">
    <path d="M 35.688 19.48 
L 71.688 19.48 
L 107.688 19.48 
" clip-path="url(#p2e91cf3acf)" style="fill: none; stroke: #000000; stroke-width: 2; stroke-linecap: round"/>
   </g>
   <g id="line2d_6">
    <path d="M 107.688 19.48 
M 111.288 28.12 
L 116.688 44.68 
M 122.088 55.48 
" clip-path="url(#p2e91cf3acf)" style="fill: none; stroke: #000000; stroke-width: 2; stroke-linecap: round"/>
   </g>
   <g id="line2d_7">
    <path d="M 122.088 51.16 
L 176.088 51.16 
L 230.088 51.16 
" clip-path="url(#p2e91cf3acf)" style="fill: none; stroke: #000000; stroke-width: 2; stroke-linecap: round"/>
   </g>
   <g id="line2d_8">
    <path d="M 230.088 51.16 
L 230.088 87.16 
L 239.088 90.16 
L 221.088 96.16 
L 239.088 102.16 
L 221.088 108.16 
L 239.088 114.16 
L 221.088 120.16 
L 230.088 123.16 
L 230.088 159.16 
" clip-path="url(#p2e91cf3acf)" style="fill: none; stroke: #000000; stroke-width: 2; stroke-linecap: round"/>
   </g>
   <g id="line2d_9">
    <path d="M 230.088 159.16 
L 230.088 177.16 
L 230.088 195.16 
" clip-path="url(#p2e91cf3acf)" style="fill: none; stroke: #000000; stroke-width: 2; stroke-linecap: round"/>
   </g>
   <g id="line2d_10">
    <path d="M 230.088 195.16 
L 230.088 209.56 
L 221.088 209.56 
L 239.088 209.56 
M 223.788 213.88 
L 236.388 213.88 
M 228.288 218.2 
L 231.888 218.2 
" clip-path="url(#p2e91cf3acf)" style="fill: none; stroke: #000000; stroke-width: 2; stroke-linecap: round"/>
   </g>
   <g id="line2d_11">
    <path d="M 93.288 51.16 
L 93.288 87.16 
L 102.288 90.16 
L 84.288 96.16 
L 102.288 102.16 
L 84.288 108.16 
L 102.288 114.16 
L 84.288 120.16 
L 93.288 123.16 
L 93.288 159.16 
" clip-path="url(#p2e91cf3acf)" style="fill: none; stroke: #000000; stroke-width: 2; stroke-linecap: round"/>
   </g>
   <g id="line2d_12">
    <path d="M 93.288 159.16 
L 93.288 177.16 
L 93.288 195.16 
" clip-path="url(#p2e91cf3acf)" style="fill: none; stroke: #000000; stroke-width: 2; stroke-linecap: round"/>
   </g>
   <g id="line2d_13">
    <path d="M 93.288 195.16 
L 93.288 209.56 
L 84.288 209.56 
L 102.288 209.56 
M 86.988 213.88 
L 99.588 213.88 
M 91.488 218.2 
L 95.088 218.2 
" clip-path="url(#p2e91cf3acf)" style="fill: none; stroke: #000000; stroke-width: 2; stroke-linecap: round"/>
   </g>
   <g id="line2d_14">
    <path d="M 35.688 127.48 
L 35.688 181.48 
L 35.688 235.48 
" clip-path="url(#p2e91cf3acf)" style="fill: none; stroke: #000000; stroke-width: 2; stroke-linecap: round"/>
   </g>
   <g id="line2d_15">
    <path d="M 35.688 235.48 
L 35.688 249.88 
L 26.688 249.88 
L 44.688 249.88 
M 29.388 254.2 
L 41.988 254.2 
M 33.888 258.52 
L 37.488 258.52 
" clip-path="url(#p2e91cf3acf)" style="fill: none; stroke: #000000; stroke-width: 2; stroke-linecap: round"/>
   </g>
   <g id="text_1">
    <!-- V -->
    <g transform="translate(4.511125 77.343125) scale(0.14 -0.14)">
     <defs>
      <path id="DejaVuSans-56" d="M 1831 0 
L 50 4666 
L 709 4666 
L 2188 738 
L 3669 4666 
L 4325 4666 
L 2547 0 
L 1831 0 
z
" transform="scale(0.015625)"/>
     </defs>
     <use xlink:href="#DejaVuSans-56"/>
    </g>
   </g>
   <g id="patch_3">
    <path d="M 107.688 28.12 
C 108.833677 28.12 109.932585 27.664818 110.742701 26.854701 
C 111.552818 26.044585 112.008 24.945677 112.008 23.8 
C 112.008 22.654323 111.552818 21.555415 110.742701 20.745299 
C 109.932585 19.935182 108.833677 19.48 107.688 19.48 
C 106.542323 19.48 105.443415 19.935182 104.633299 20.745299 
C 103.823182 21.555415 103.368 22.654323 103.368 23.8 
C 103.368 24.945677 103.823182 26.044585 104.633299 26.854701 
C 105.443415 27.664818 106.542323 28.12 107.688 28.12 
z
" clip-path="url(#p2e91cf3acf)" style="fill: #ffffff; stroke: #000000; stroke-width: 2; stroke-linejoin: miter"/>
   </g>
   <g id="patch_4">
    <path d="M 93.288 55.48 
C 94.433677 55.48 95.532585 55.024818 96.342701 54.214701 
C 97.152818 53.404585 97.608 52.305677 97.608 51.16 
C 97.608 50.014323 97.152818 48.915415 96.342701 48.105299 
C 95.532585 47.295182 94.433677 46.84 93.288 46.84 
C 92.142323 46.84 91.043415 47.295182 90.233299 48.105299 
C 89.423182 48.915415 88.968 50.014323 88.968 51.16 
C 88.968 52.305677 89.423182 53.404585 90.233299 54.214701 
C 91.043415 55.024818 92.142323 55.48 93.288 55.48 
z
" clip-path="url(#p2e91cf3acf)" style="fill: #ffffff; stroke: #000000; stroke-width: 2; stroke-linejoin: miter"/>
   </g>
   <g id="patch_5">
    <path d="M 122.088 55.48 
C 123.233677 55.48 124.332585 55.024818 125.142701 54.214701 
C 125.952818 53.404585 126.408 52.305677 126.408 51.16 
C 126.408 50.014323 125.952818 48.915415 125.142701 48.105299 
C 124.332585 47.295182 123.233677 46.84 122.088 46.84 
C 120.942323 46.84 119.843415 47.295182 119.033299 48.105299 
C 118.223182 48.915415 117.768 50.014323 117.768 51.16 
C 117.768 52.305677 118.223182 53.404585 119.033299 54.214701 
C 119.843415 55.024818 120.942323 55.48 122.088 55.48 
z
" clip-path="url(#p2e91cf3acf)" style="fill: #ffffff; stroke: #000000; stroke-width: 2; stroke-linejoin: miter"/>
   </g>
   <g id="text_2">
    <!-- SPDT Switch -->
    <g transform="translate(63.9905 12.968437) scale(0.14 -0.14)">
     <defs>
      <path id="DejaVuSans-53" d="M 3425 4513 
L 3425 3897 
Q 3066 4069 2747 4153 
Q 2428 4238 2131 4238 
Q 1616 4238 1336 4038 
Q 1056 3838 1056 3469 
Q 1056 3159 1242 3001 
Q 1428 2844 1947 2747 
L 2328 2669 
Q 3034 2534 3370 2195 
Q 3706 1856 3706 1288 
Q 3706 609 3251 259 
Q 2797 -91 1919 -91 
Q 1588 -91 1214 -16 
Q 841 59 441 206 
L 441 856 
Q 825 641 1194 531 
Q 1563 422 1919 422 
Q 2459 422 2753 634 
Q 3047 847 3047 1241 
Q 3047 1584 2836 1778 
Q 2625 1972 2144 2069 
L 1759 2144 
Q 1053 2284 737 2584 
Q 422 2884 422 3419 
Q 422 4038 858 4394 
Q 1294 4750 2059 4750 
Q 2388 4750 2728 4690 
Q 3069 4631 3425 4513 
z
" transform="scale(0.015625)"/>
      <path id="DejaVuSans-50" d="M 1259 4147 
L 1259 2394 
L 2053 2394 
Q 2494 2394 2734 2622 
Q 2975 2850 2975 3272 
Q 2975 3691 2734 3919 
Q 2494 4147 2053 4147 
L 1259 4147 
z
M 628 4666 
L 2053 4666 
Q 2838 4666 3239 4311 
Q 3641 3956 3641 3272 
Q 3641 2581 3239 2228 
Q 2838 1875 2053 1875 
L 1259 1875 
L 1259 0 
L 628 0 
L 628 4666 
z
" transform="scale(0.015625)"/>
      <path id="DejaVuSans-44" d="M 1259 4147 
L 1259 519 
L 2022 519 
Q 2988 519 3436 956 
Q 3884 1394 3884 2338 
Q 3884 3275 3436 3711 
Q 2988 4147 2022 4147 
L 1259 4147 
z
M 628 4666 
L 1925 4666 
Q 3281 4666 3915 4102 
Q 4550 3538 4550 2338 
Q 4550 1131 3912 565 
Q 3275 0 1925 0 
L 628 0 
L 628 4666 
z
" transform="scale(0.015625)"/>
      <path id="DejaVuSans-54" d="M -19 4666 
L 3928 4666 
L 3928 4134 
L 2272 4134 
L 2272 0 
L 1638 0 
L 1638 4134 
L -19 4134 
L -19 4666 
z
" transform="scale(0.015625)"/>
      <path id="DejaVuSans-20" transform="scale(0.015625)"/>
      <path id="DejaVuSans-77" d="M 269 3500 
L 844 3500 
L 1563 769 
L 2278 3500 
L 2956 3500 
L 3675 769 
L 4391 3500 
L 4966 3500 
L 4050 0 
L 3372 0 
L 2619 2869 
L 1863 0 
L 1184 0 
L 269 3500 
z
" transform="scale(0.015625)"/>
      <path id="DejaVuSans-69" d="M 603 3500 
L 1178 3500 
L 1178 0 
L 603 0 
L 603 3500 
z
M 603 4863 
L 1178 4863 
L 1178 4134 
L 603 4134 
L 603 4863 
z
" transform="scale(0.015625)"/>
      <path id="DejaVuSans-74" d="M 1172 4494 
L 1172 3500 
L 2356 3500 
L 2356 3053 
L 1172 3053 
L 1172 1153 
Q 1172 725 1289 603 
Q 1406 481 1766 481 
L 2356 481 
L 2356 0 
L 1766 0 
Q 1100 0 847 248 
Q 594 497 594 1153 
L 594 3053 
L 172 3053 
L 172 3500 
L 594 3500 
L 594 4494 
L 1172 4494 
z
" transform="scale(0.015625)"/>
      <path id="DejaVuSans-63" d="M 3122 3366 
L 3122 2828 
Q 2878 2963 2633 3030 
Q 2388 3097 2138 3097 
Q 1578 3097 1268 2742 
Q 959 2388 959 1747 
Q 959 1106 1268 751 
Q 1578 397 2138 397 
Q 2388 397 2633 464 
Q 2878 531 3122 666 
L 3122 134 
Q 2881 22 2623 -34 
Q 2366 -91 2075 -91 
Q 1284 -91 818 406 
Q 353 903 353 1747 
Q 353 2603 823 3093 
Q 1294 3584 2113 3584 
Q 2378 3584 2631 3529 
Q 2884 3475 3122 3366 
z
" transform="scale(0.015625)"/>
      <path id="DejaVuSans-68" d="M 3513 2113 
L 3513 0 
L 2938 0 
L 2938 2094 
Q 2938 2591 2744 2837 
Q 2550 3084 2163 3084 
Q 1697 3084 1428 2787 
Q 1159 2491 1159 1978 
L 1159 0 
L 581 0 
L 581 4863 
L 1159 4863 
L 1159 2956 
Q 1366 3272 1645 3428 
Q 1925 3584 2291 3584 
Q 2894 3584 3203 3211 
Q 3513 2838 3513 2113 
z
" transform="scale(0.015625)"/>
     </defs>
     <use xlink:href="#DejaVuSans-53"/>
     <use xlink:href="#DejaVuSans-50" x="63.476562"/>
     <use xlink:href="#DejaVuSans-44" x="123.779297"/>
     <use xlink:href="#DejaVuSans-54" x="200.78125"/>
     <use xlink:href="#DejaVuSans-20" x="261.865234"/>
     <use xlink:href="#DejaVuSans-53" x="293.652344"/>
     <use xlink:href="#DejaVuSans-77" x="357.128906"/>
     <use xlink:href="#DejaVuSans-69" x="438.916016"/>
     <use xlink:href="#DejaVuSans-74" x="466.699219"/>
     <use xlink:href="#DejaVuSans-63" x="505.908203"/>
     <use xlink:href="#DejaVuSans-68" x="560.888672"/>
    </g>
   </g>
   <g id="text_3">
    <!-- R1 -->
    <g transform="translate(198.852688 109.023125) scale(0.14 -0.14)">
     <defs>
      <path id="DejaVuSans-52" d="M 2841 2188 
Q 3044 2119 3236 1894 
Q 3428 1669 3622 1275 
L 4263 0 
L 3584 0 
L 2988 1197 
Q 2756 1666 2539 1819 
Q 2322 1972 1947 1972 
L 1259 1972 
L 1259 0 
L 628 0 
L 628 4666 
L 2053 4666 
Q 2853 4666 3247 4331 
Q 3641 3997 3641 3322 
Q 3641 2881 3436 2590 
Q 3231 2300 2841 2188 
z
M 1259 4147 
L 1259 2491 
L 2053 2491 
Q 2509 2491 2742 2702 
Q 2975 2913 2975 3322 
Q 2975 3731 2742 3939 
Q 2509 4147 2053 4147 
L 1259 4147 
z
" transform="scale(0.015625)"/>
      <path id="DejaVuSans-31" d="M 794 531 
L 1825 531 
L 1825 4091 
L 703 3866 
L 703 4441 
L 1819 4666 
L 2450 4666 
L 2450 531 
L 3481 531 
L 3481 0 
L 794 0 
L 794 531 
z
" transform="scale(0.015625)"/>
     </defs>
     <use xlink:href="#DejaVuSans-52"/>
     <use xlink:href="#DejaVuSans-31" x="69.482422"/>
    </g>
   </g>
   <g id="text_4">
    <!-- R2 -->
    <g transform="translate(62.052687 109.023125) scale(0.14 -0.14)">
     <defs>
      <path id="DejaVuSans-32" d="M 1228 531 
L 3431 531 
L 3431 0 
L 469 0 
L 469 531 
Q 828 903 1448 1529 
Q 2069 2156 2228 2338 
Q 2531 2678 2651 2914 
Q 2772 3150 2772 3378 
Q 2772 3750 2511 3984 
Q 2250 4219 1831 4219 
Q 1534 4219 1204 4116 
Q 875 4013 500 3803 
L 500 4441 
Q 881 4594 1212 4672 
Q 1544 4750 1819 4750 
Q 2544 4750 2975 4387 
Q 3406 4025 3406 3419 
Q 3406 3131 3298 2873 
Q 3191 2616 2906 2266 
Q 2828 2175 2409 1742 
Q 1991 1309 1228 531 
z
" transform="scale(0.015625)"/>
     </defs>
     <use xlink:href="#DejaVuSans-52"/>
     <use xlink:href="#DejaVuSans-32" x="69.482422"/>
    </g>
   </g>
  </g>
 </g>
 <defs>
  <clipPath id="p2e91cf3acf">
   <rect x="0" y="0" width="243.768" height="263.2"/>
  </clipPath>
 </defs>
</svg>