<?xml version="1.0" encoding="utf-8" standalone="no"?>
<!DOCTYPE svg PUBLIC "-//W3C//DTD SVG 1.1//EN"
  "http://www.w3.org/Graphics/SVG/1.1/DTD/svg11.dtd">
<svg xmlns:xlink="http://www.w3.org/1999/xlink" width="182.736pt" height="136.659978pt" viewBox="0 0 182.736 136.659978" xmlns="http://www.w3.org/2000/svg" version="1.1">
 <metadata>
  <rdf:RDF xmlns:dc="http://purl.org/dc/elements/1.1/" xmlns:cc="http://creativecommons.org/ns#" xmlns:rdf="http://www.w3.org/1999/02/22-rdf-syntax-ns#">
   <cc:Work>
    <dc:type rdf:resource="http://purl.org/dc/dcmitype/StillImage"/>
    <dc:date>2024-11-14T09:36:02.136734</dc:date>
    <dc:format>image/svg+xml</dc:format>
    <dc:creator>
     <cc:Agent>
      <dc:title>Matplotlib v3.9.2, https://matplotlib.org/</dc:title>
     </cc:Agent>
    </dc:creator>
   </cc:Work>
  </rdf:RDF>
 </metadata>
 <defs>
  <style type="text/css">*{stroke-linejoin: round; stroke-linecap: butt}</style>
 </defs>
 <g id="figure_1">
  <g id="patch_1">
   <path d="M 0 136.659978 
L 182.736 136.659978 
L 182.736 0 
L 0 0 
z
" style="fill: #ffffff"/>
  </g>
  <g id="axes_1">
   <g id="patch_2">
    <path d="M 61.056 95.979978 
C 65.829656 95.979978 70.408438 94.083384 73.783922 90.7079 
C 77.159406 87.332415 79.056 82.753634 79.056 77.979978 
C 79.056 73.206322 77.159406 68.62754 73.783922 65.252056 
C 70.408438 61.876571 65.829656 59.979978 61.056 59.979978 
C 56.282344 59.979978 51.703562 61.876571 48.328078 65.252056 
C 44.952594 68.62754 43.056 73.206322 43.056 77.979978 
C 43.056 82.753634 44.952594 87.332415 48.328078 90.7079 
C 51.703562 94.083384 56.282344 95.979978 61.056 95.979978 
L 61.056 95.979978 
z
" clip-path="url(#p06adea729e)" style="fill: none; stroke: #000000; stroke-width: 2; stroke-linejoin: miter"/>
   </g>
   <g id="patch_3">
    <path d="M 106.056 23.979978 
C 106.056 22.786961 105.581571 21.641587 104.737981 20.797997 
C 103.89439 19.954407 102.749016 19.479978 101.556 19.479978 
C 100.362984 19.479978 99.21761 19.954407 98.374019 20.797997 
C 97.530429 21.641587 97.056 22.786961 97.056 23.979978 
" clip-path="url(#p06adea729e)" style="fill: none; stroke: #000000; stroke-width: 2; stroke-linejoin: miter"/>
   </g>
   <g id="patch_4">
    <path d="M 115.056 23.979978 
C 115.056 22.786961 114.581571 21.641587 113.737981 20.797997 
C 112.89439 19.954407 111.749016 19.479978 110.556 19.479978 
C 109.362984 19.479978 108.21761 19.954407 107.374019 20.797997 
C 106.530429 21.641587 106.056 22.786961 106.056 23.979978 
" clip-path="url(#p06adea729e)" style="fill: none; stroke: #000000; stroke-width: 2; stroke-linejoin: miter"/>
   </g>
   <g id="patch_5">
    <path d="M 124.056 23.979978 
C 124.056 22.786961 123.581571 21.641587 122.737981 20.797997 
C 121.89439 19.954407 120.749016 19.479978 119.556 19.479978 
C 118.362984 19.479978 117.21761 19.954407 116.374019 20.797997 
C 115.530429 21.641587 115.056 22.786961 115.056 23.979978 
" clip-path="url(#p06adea729e)" style="fill: none; stroke: #000000; stroke-width: 2; stroke-linejoin: miter"/>
   </g>
   <g id="patch_6">
    <path d="M 133.056 23.979978 
C 133.056 22.786961 132.581571 21.641587 131.737981 20.797997 
C 130.89439 19.954407 129.749016 19.479978 128.556 19.479978 
C 127.362984 19.479978 126.21761 19.954407 125.374019 20.797997 
C 124.530429 21.641587 124.056 22.786961 124.056 23.979978 
" clip-path="url(#p06adea729e)" style="fill: none; stroke: #000000; stroke-width: 2; stroke-linejoin: miter"/>
   </g>
   <g id="line2d_1">
    <path d="M 61.056 131.979978 
L 61.056 95.979978 
L 61.056 95.979978 
M 61.056 59.979978 
L 61.056 59.979978 
L 61.056 23.979978 
" clip-path="url(#p06adea729e)" style="fill: none; stroke: #000000; stroke-width: 2; stroke-linecap: round"/>
   </g>
   <g id="line2d_2">
    <path d="M 64.656 86.979978 
L 57.456 86.979978 
" clip-path="url(#p06adea729e)" style="fill: none; stroke: #000000; stroke-width: 2; stroke-linecap: round"/>
   </g>
   <g id="line2d_3">
    <path d="M 61.056 72.579978 
L 61.056 65.379978 
" clip-path="url(#p06adea729e)" style="fill: none; stroke: #000000; stroke-width: 2; stroke-linecap: round"/>
   </g>
   <g id="line2d_4">
    <path d="M 64.656 68.979978 
L 57.456 68.979978 
" clip-path="url(#p06adea729e)" style="fill: none; stroke: #000000; stroke-width: 2; stroke-linecap: round"/>
   </g>
   <g id="line2d_5">
    <path d="M 61.056 23.979978 
L 97.056 23.979978 
M 133.056 23.979978 
L 169.056 23.979978 
" clip-path="url(#p06adea729e)" style="fill: none; stroke: #000000; stroke-width: 2; stroke-linecap: round"/>
   </g>
   <g id="line2d_6">
    <path d="M 169.056 23.979978 
L 169.056 59.979978 
L 178.056 62.979978 
L 160.056 68.979978 
L 178.056 74.979978 
L 160.056 80.979978 
L 178.056 86.979978 
L 160.056 92.979978 
L 169.056 95.979978 
L 169.056 131.979978 
" clip-path="url(#p06adea729e)" style="fill: none; stroke: #000000; stroke-width: 2; stroke-linecap: round"/>
   </g>
   <g id="line2d_7">
    <path d="M 169.056 131.979978 
L 115.056 131.979978 
L 61.056 131.979978 
" clip-path="url(#p06adea729e)" style="fill: none; stroke: #000000; stroke-width: 2; stroke-linecap: round"/>
   </g>
   <g id="text_1">
    <!-- $v_s(t)$ -->
    <g transform="translate(9.216 81.843103) scale(0.14 -0.14)">
     <defs>
      <path id="DejaVuSans-Oblique-76" d="M 459 3500 
L 1069 3500 
L 1581 525 
L 3256 3500 
L 3866 3500 
L 1875 0 
L 1100 0 
L 459 3500 
z
" transform="scale(0.015625)"/>
      <path id="DejaVuSans-Oblique-73" d="M 3200 3397 
L 3091 2853 
Q 2863 2978 2609 3040 
Q 2356 3103 2088 3103 
Q 1634 3103 1373 2948 
Q 1113 2794 1113 2528 
Q 1113 2219 1719 2053 
Q 1766 2041 1788 2034 
L 1972 1978 
Q 2547 1819 2739 1644 
Q 2931 1469 2931 1166 
Q 2931 609 2489 259 
Q 2047 -91 1331 -91 
Q 1053 -91 747 -37 
Q 441 16 72 128 
L 184 722 
Q 500 559 806 475 
Q 1113 391 1394 391 
Q 1816 391 2080 572 
Q 2344 753 2344 1031 
Q 2344 1331 1650 1516 
L 1591 1531 
L 1394 1581 
Q 956 1697 753 1886 
Q 550 2075 550 2369 
Q 550 2928 970 3256 
Q 1391 3584 2113 3584 
Q 2397 3584 2667 3537 
Q 2938 3491 3200 3397 
z
" transform="scale(0.015625)"/>
      <path id="DejaVuSans-28" d="M 1984 4856 
Q 1566 4138 1362 3434 
Q 1159 2731 1159 2009 
Q 1159 1288 1364 580 
Q 1569 -128 1984 -844 
L 1484 -844 
Q 1016 -109 783 600 
Q 550 1309 550 2009 
Q 550 2706 781 3412 
Q 1013 4119 1484 4856 
L 1984 4856 
z
" transform="scale(0.015625)"/>
      <path id="DejaVuSans-Oblique-74" d="M 2706 3500 
L 2619 3053 
L 1472 3053 
L 1100 1153 
Q 1081 1047 1072 975 
Q 1063 903 1063 863 
Q 1063 663 1183 572 
Q 1303 481 1569 481 
L 2150 481 
L 2053 0 
L 1503 0 
Q 991 0 739 200 
Q 488 400 488 806 
Q 488 878 497 964 
Q 506 1050 525 1153 
L 897 3053 
L 409 3053 
L 500 3500 
L 978 3500 
L 1172 4494 
L 1747 4494 
L 1556 3500 
L 2706 3500 
z
" transform="scale(0.015625)"/>
      <path id="DejaVuSans-29" d="M 513 4856 
L 1013 4856 
Q 1481 4119 1714 3412 
Q 1947 2706 1947 2009 
Q 1947 1309 1714 600 
Q 1481 -109 1013 -844 
L 513 -844 
Q 928 -128 1133 580 
Q 1338 1288 1338 2009 
Q 1338 2731 1133 3434 
Q 928 4138 513 4856 
z
" transform="scale(0.015625)"/>
     </defs>
     <use xlink:href="#DejaVuSans-Oblique-76" transform="translate(0 0.125)"/>
     <use xlink:href="#DejaVuSans-Oblique-73" transform="translate(59.179688 -16.28125) scale(0.7)"/>
     <use xlink:href="#DejaVuSans-28" transform="translate(98.383789 0.125)"/>
     <use xlink:href="#DejaVuSans-Oblique-74" transform="translate(137.397461 0.125)"/>
     <use xlink:href="#DejaVuSans-29" transform="translate(176.606445 0.125)"/>
    </g>
   </g>
   <g id="text_2">
    <!-- 2H -->
    <g transform="translate(105.338031 12.968437) scale(0.14 -0.14)">
     <defs>
      <path id="DejaVuSans-32" d="M 1228 531 
L 3431 531 
L 3431 0 
L 469 0 
L 469 531 
Q 828 903 1448 1529 
Q 2069 2156 2228 2338 
Q 2531 2678 2651 2914 
Q 2772 3150 2772 3378 
Q 2772 3750 2511 3984 
Q 2250 4219 1831 4219 
Q 1534 4219 1204 4116 
Q 875 4013 500 3803 
L 500 4441 
Q 881 4594 1212 4672 
Q 1544 4750 1819 4750 
Q 2544 4750 2975 4387 
Q 3406 4025 3406 3419 
Q 3406 3131 3298 2873 
Q 3191 2616 2906 2266 
Q 2828 2175 2409 1742 
Q 1991 1309 1228 531 
z
" transform="scale(0.015625)"/>
      <path id="DejaVuSans-48" d="M 628 4666 
L 1259 4666 
L 1259 2753 
L 3553 2753 
L 3553 4666 
L 4184 4666 
L 4184 0 
L 3553 0 
L 3553 2222 
L 1259 2222 
L 1259 0 
L 628 0 
L 628 4666 
z
" transform="scale(0.015625)"/>
     </defs>
     <use xlink:href="#DejaVuSans-32"/>
     <use xlink:href="#DejaVuSans-48" x="63.623047"/>
    </g>
   </g>
   <g id="text_3">
    <!-- $4\Omega$ -->
    <g transform="translate(136.716 81.843103) scale(0.14 -0.14)">
     <defs>
      <path id="DejaVuSans-34" d="M 2419 4116 
L 825 1625 
L 2419 1625 
L 2419 4116 
z
M 2253 4666 
L 3047 4666 
L 3047 1625 
L 3713 1625 
L 3713 1100 
L 3047 1100 
L 3047 0 
L 2419 0 
L 2419 1100 
L 313 1100 
L 313 1709 
L 2253 4666 
z
" transform="scale(0.015625)"/>
      <path id="DejaVuSans-3a9" d="M 4647 556 
L 4647 0 
L 2772 0 
L 2772 556 
Q 3325 859 3634 1378 
Q 3944 1897 3944 2528 
Q 3944 3278 3531 3731 
Q 3119 4184 2444 4184 
Q 1769 4184 1355 3729 
Q 941 3275 941 2528 
Q 941 1897 1250 1378 
Q 1563 859 2119 556 
L 2119 0 
L 244 0 
L 244 556 
L 1241 556 
Q 747 991 519 1456 
Q 294 1922 294 2497 
Q 294 3491 894 4106 
Q 1491 4722 2444 4722 
Q 3391 4722 3994 4106 
Q 4594 3494 4594 2528 
Q 4594 1922 4372 1459 
Q 4150 997 3647 556 
L 4647 556 
z
" transform="scale(0.015625)"/>
     </defs>
     <use xlink:href="#DejaVuSans-34" transform="translate(0 0.21875)"/>
     <use xlink:href="#DejaVuSans-3a9" transform="translate(63.623047 0.21875)"/>
    </g>
   </g>
  </g>
 </g>
 <defs>
  <clipPath id="p06adea729e">
   <rect x="0" y="0" width="182.736" height="136.659978"/>
  </clipPath>
 </defs>
</svg>