<?xml version="1.0" encoding="utf-8" standalone="no"?>
<!DOCTYPE svg PUBLIC "-//W3C//DTD SVG 1.1//EN"
  "http://www.w3.org/Graphics/SVG/1.1/DTD/svg11.dtd">
<svg xmlns:xlink="http://www.w3.org/1999/xlink" width="248.438884pt" height="251.96pt" viewBox="0 0 248.438884 251.96" xmlns="http://www.w3.org/2000/svg" version="1.1">
 <metadata>
  <rdf:RDF xmlns:dc="http://purl.org/dc/elements/1.1/" xmlns:cc="http://creativecommons.org/ns#" xmlns:rdf="http://www.w3.org/1999/02/22-rdf-syntax-ns#">
   <cc:Work>
    <dc:type rdf:resource="http://purl.org/dc/dcmitype/StillImage"/>
    <dc:date>2025-05-14T19:10:02.740480</dc:date>
    <dc:format>image/svg+xml</dc:format>
    <dc:creator>
     <cc:Agent>
      <dc:title>Matplotlib v3.10.3, https://matplotlib.org/</dc:title>
     </cc:Agent>
    </dc:creator>
   </cc:Work>
  </rdf:RDF>
 </metadata>
 <defs>
  <style type="text/css">*{stroke-linejoin: round; stroke-linecap: butt}</style>
 </defs>
 <g id="figure_1">
  <g id="patch_1">
   <path d="M 0 251.96 
L 248.438884 251.96 
L 248.438884 0 
L 0 0 
z
" style="fill: #ffffff"/>
  </g>
  <g id="axes_1">
   <g id="patch_2">
    <path d="M 110.5 211.28 
C 115.273656 211.28 119.852438 209.383406 123.227922 206.007922 
C 126.603406 202.632438 128.5 198.053656 128.5 193.28 
C 128.5 188.506344 126.603406 183.927562 123.227922 180.552078 
C 119.852438 177.176594 115.273656 175.28 110.5 175.28 
C 105.726344 175.28 101.147562 177.176594 97.772078 180.552078 
C 94.396594 183.927562 92.5 188.506344 92.5 193.28 
C 92.5 198.053656 94.396594 202.632438 97.772078 206.007922 
C 101.147562 209.383406 105.726344 211.28 110.5 211.28 
L 110.5 211.28 
z
" clip-path="url(#pba87d92875)" style="fill: none; stroke: #000000; stroke-width: 2; stroke-linejoin: miter"/>
   </g>
   <g id="patch_3">
    <path d="M 110.5 103.28 
C 115.273656 103.28 119.852438 101.383406 123.227922 98.007922 
C 126.603406 94.632438 128.5 90.053656 128.5 85.28 
C 128.5 80.506344 126.603406 75.927562 123.227922 72.552078 
C 119.852438 69.176594 115.273656 67.28 110.5 67.28 
C 105.726344 67.28 101.147562 69.176594 97.772078 72.552078 
C 94.396594 75.927562 92.5 80.506344 92.5 85.28 
C 92.5 90.053656 94.396594 94.632438 97.772078 98.007922 
C 101.147562 101.383406 105.726344 103.28 110.5 103.28 
L 110.5 103.28 
z
" clip-path="url(#pba87d92875)" style="fill: none; stroke: #000000; stroke-width: 2; stroke-linejoin: miter"/>
   </g>
   <g id="line2d_1">
    <path d="M 110.5 247.28 
L 110.5 211.28 
L 110.5 211.28 
M 110.5 175.28 
L 110.5 175.28 
L 110.5 139.28 
" clip-path="url(#pba87d92875)" style="fill: none; stroke: #000000; stroke-width: 2; stroke-linecap: round"/>
   </g>
   <g id="line2d_2">
    <path d="M 114.1 202.28 
L 106.9 202.28 
" clip-path="url(#pba87d92875)" style="fill: none; stroke: #000000; stroke-width: 2; stroke-linecap: round"/>
   </g>
   <g id="line2d_3">
    <path d="M 110.5 187.88 
L 110.5 180.68 
" clip-path="url(#pba87d92875)" style="fill: none; stroke: #000000; stroke-width: 2; stroke-linecap: round"/>
   </g>
   <g id="line2d_4">
    <path d="M 114.1 184.28 
L 106.9 184.28 
" clip-path="url(#pba87d92875)" style="fill: none; stroke: #000000; stroke-width: 2; stroke-linecap: round"/>
   </g>
   <g id="line2d_5">
    <path d="M 110.5 139.28 
L 110.5 103.28 
L 110.5 103.28 
M 110.5 67.28 
L 110.5 67.28 
L 110.5 31.28 
" clip-path="url(#pba87d92875)" style="fill: none; stroke: #000000; stroke-width: 2; stroke-linecap: round"/>
   </g>
   <g id="line2d_6">
    <path d="M 114.1 94.28 
L 106.9 94.28 
" clip-path="url(#pba87d92875)" style="fill: none; stroke: #000000; stroke-width: 2; stroke-linecap: round"/>
   </g>
   <g id="line2d_7">
    <path d="M 110.5 79.88 
L 110.5 72.68 
" clip-path="url(#pba87d92875)" style="fill: none; stroke: #000000; stroke-width: 2; stroke-linecap: round"/>
   </g>
   <g id="line2d_8">
    <path d="M 114.1 76.28 
L 106.9 76.28 
" clip-path="url(#pba87d92875)" style="fill: none; stroke: #000000; stroke-width: 2; stroke-linecap: round"/>
   </g>
   <g id="line2d_9">
    <path d="M 110.5 31.28 
L 146.5 31.28 
L 149.5 22.28 
L 155.5 40.28 
L 161.5 22.28 
L 167.5 40.28 
L 173.5 22.28 
L 179.5 40.28 
L 182.5 31.28 
L 218.5 31.28 
" clip-path="url(#pba87d92875)" style="fill: none; stroke: #000000; stroke-width: 2; stroke-linecap: round"/>
   </g>
   <g id="line2d_10">
    <path d="M 218.5 31.28 
L 218.5 67.28 
L 221.464187 67.41407 
L 224.455107 67.82176 
L 227.221917 68.494001 
L 229.532568 69.399538 
L 230.454308 69.924567 
L 231.193271 70.487547 
L 231.733881 71.079767 
L 232.064744 71.691902 
L 232.178884 72.314207 
L 232.073898 72.93672 
L 231.751996 73.549478 
L 231.219965 74.142723 
L 230.489018 74.707106 
L 229.574564 75.233888 
L 227.275691 76.143825 
L 224.51615 76.821342 
L 221.52738 77.23474 
L 218.560043 77.374472 
L 215.863006 77.253942 
L 213.662465 76.908382 
L 212.142976 76.391898 
L 211.681011 76.090537 
L 211.431977 75.772928 
L 211.401122 75.448923 
L 211.589097 75.128509 
L 211.99194 74.821597 
L 213.403915 74.286292 
L 215.518626 73.913029 
L 218.158716 73.758236 
L 221.102764 73.860019 
L 224.103858 74.234963 
L 226.9103 74.876748 
L 229.286719 75.756671 
L 230.249494 76.271402 
L 231.033808 76.826057 
L 231.623131 77.412102 
L 232.005041 78.020342 
L 232.171487 78.641113 
L 232.118962 79.264487 
L 231.848572 79.880482 
L 231.366017 80.479271 
L 230.681468 81.05139 
L 229.809355 81.587935 
L 227.579529 82.522621 
L 224.863553 83.23006 
L 221.889211 83.676046 
L 218.905956 83.848297 
L 216.16399 83.75749 
L 213.893277 83.436365 
L 212.284258 82.936977 
L 211.772569 82.640936 
L 211.47188 82.326332 
L 211.388529 82.002952 
L 211.524275 81.680768 
L 211.876254 81.369731 
L 212.437048 81.079551 
L 214.133648 80.598228 
L 216.471782 80.302289 
L 219.255355 80.241678 
L 222.250913 80.446602 
L 225.207224 80.924998 
L 227.876345 81.661866 
L 230.034422 82.620531 
L 230.863138 83.166371 
L 231.50046 83.745713 
L 231.932955 84.349502 
L 232.151505 84.968169 
L 232.151505 85.591831 
L 231.932955 86.210498 
L 231.50046 86.814287 
L 230.863138 87.393629 
L 230.034422 87.939469 
L 229.03178 88.44346 
L 226.592473 89.297065 
L 223.749798 89.907979 
L 220.742165 90.250087 
L 217.821822 90.319821 
L 215.233691 90.136457 
L 213.194837 89.740496 
L 211.876254 89.190269 
L 211.524275 88.879232 
L 211.388529 88.557048 
L 211.47188 88.233668 
L 211.772569 87.919064 
L 212.284258 87.623023 
L 213.893277 87.123635 
L 216.16399 86.80251 
L 218.905956 86.711703 
L 221.889211 86.883954 
L 224.863553 87.32994 
L 227.579529 88.037379 
L 229.809355 88.972065 
L 230.681468 89.50861 
L 231.366017 90.080729 
L 231.848572 90.679518 
L 232.118962 91.295513 
L 232.171487 91.918887 
L 232.005041 92.539658 
L 231.623131 93.147898 
L 231.033808 93.733943 
L 230.249494 94.288598 
L 229.286719 94.803329 
L 226.9103 95.683252 
L 224.103858 96.325037 
L 221.102764 96.699981 
L 218.158716 96.801764 
L 215.518626 96.646971 
L 213.403915 96.273708 
L 211.99194 95.738403 
L 211.589097 95.431491 
L 211.401122 95.111077 
L 211.431977 94.787072 
L 211.681011 94.469463 
L 212.142976 94.168102 
L 213.662465 93.651618 
L 215.863006 93.306058 
L 218.560043 93.185528 
L 221.52738 93.32526 
L 224.51615 93.738658 
L 227.275691 94.416175 
L 229.574564 95.326112 
L 230.489018 95.852894 
L 231.219965 96.417277 
L 231.751996 97.010522 
L 232.073898 97.62328 
L 232.178884 98.245793 
L 232.064744 98.868098 
L 231.733881 99.480233 
L 231.193271 100.072453 
L 230.454308 100.635433 
L 229.532568 101.160462 
L 227.221917 102.065999 
L 224.455107 102.73824 
L 221.464187 103.14593 
L 218.5 103.28 
L 218.5 139.28 
L 218.5 139.28 
" clip-path="url(#pba87d92875)" style="fill: none; stroke: #000000; stroke-width: 2; stroke-linecap: round"/>
   </g>
   <g id="line2d_11">
    <path d="M 218.5 139.28 
L 218.5 193.28 
L 218.5 247.28 
" clip-path="url(#pba87d92875)" style="fill: none; stroke: #000000; stroke-width: 2; stroke-linecap: round"/>
   </g>
   <g id="line2d_12">
    <path d="M 218.5 247.28 
L 164.5 247.28 
L 110.5 247.28 
" clip-path="url(#pba87d92875)" style="fill: none; stroke: #000000; stroke-width: 2; stroke-linecap: round"/>
   </g>
   <g id="text_1">
    <!-- $jAsin(Ω t + Θ)$ -->
    <g transform="translate(0 197.13) scale(0.14 -0.14)">
     <defs>
      <path id="DejaVuSans-Oblique-6a" d="M 928 3500 
L 1503 3500 
L 813 -63 
L 809 -78 
Q 694 -675 544 -897 
Q 403 -1106 132 -1218 
Q -138 -1331 -506 -1331 
L -722 -1331 
L -628 -844 
L -481 -844 
Q -144 -844 -1 -703 
Q 141 -563 238 -63 
L 928 3500 
z
M 1197 4863 
L 1772 4863 
L 1631 4134 
L 1056 4134 
L 1197 4863 
z
" transform="scale(0.015625)"/>
      <path id="DejaVuSans-Oblique-41" d="M 2356 4666 
L 3072 4666 
L 3938 0 
L 3278 0 
L 3084 1197 
L 984 1197 
L 325 0 
L -341 0 
L 2356 4666 
z
M 2584 4044 
L 1275 1722 
L 2988 1722 
L 2584 4044 
z
" transform="scale(0.015625)"/>
      <path id="DejaVuSans-Oblique-73" d="M 3200 3397 
L 3091 2853 
Q 2863 2978 2609 3040 
Q 2356 3103 2088 3103 
Q 1634 3103 1373 2948 
Q 1113 2794 1113 2528 
Q 1113 2219 1719 2053 
Q 1766 2041 1788 2034 
L 1972 1978 
Q 2547 1819 2739 1644 
Q 2931 1469 2931 1166 
Q 2931 609 2489 259 
Q 2047 -91 1331 -91 
Q 1053 -91 747 -37 
Q 441 16 72 128 
L 184 722 
Q 500 559 806 475 
Q 1113 391 1394 391 
Q 1816 391 2080 572 
Q 2344 753 2344 1031 
Q 2344 1331 1650 1516 
L 1591 1531 
L 1394 1581 
Q 956 1697 753 1886 
Q 550 2075 550 2369 
Q 550 2928 970 3256 
Q 1391 3584 2113 3584 
Q 2397 3584 2667 3537 
Q 2938 3491 3200 3397 
z
" transform="scale(0.015625)"/>
      <path id="DejaVuSans-Oblique-69" d="M 1172 4863 
L 1747 4863 
L 1606 4134 
L 1031 4134 
L 1172 4863 
z
M 909 3500 
L 1484 3500 
L 800 0 
L 225 0 
L 909 3500 
z
" transform="scale(0.015625)"/>
      <path id="DejaVuSans-Oblique-6e" d="M 3566 2113 
L 3156 0 
L 2578 0 
L 2988 2091 
Q 3016 2238 3031 2350 
Q 3047 2463 3047 2528 
Q 3047 2791 2881 2937 
Q 2716 3084 2419 3084 
Q 1956 3084 1622 2776 
Q 1288 2469 1184 1941 
L 800 0 
L 225 0 
L 903 3500 
L 1478 3500 
L 1363 2950 
Q 1603 3253 1940 3418 
Q 2278 3584 2650 3584 
Q 3113 3584 3367 3334 
Q 3622 3084 3622 2631 
Q 3622 2519 3608 2391 
Q 3594 2263 3566 2113 
z
" transform="scale(0.015625)"/>
      <path id="DejaVuSans-28" d="M 1984 4856 
Q 1566 4138 1362 3434 
Q 1159 2731 1159 2009 
Q 1159 1288 1364 580 
Q 1569 -128 1984 -844 
L 1484 -844 
Q 1016 -109 783 600 
Q 550 1309 550 2009 
Q 550 2706 781 3412 
Q 1013 4119 1484 4856 
L 1984 4856 
z
" transform="scale(0.015625)"/>
      <path id="DejaVuSans-3a9" d="M 4647 556 
L 4647 0 
L 2772 0 
L 2772 556 
Q 3325 859 3634 1378 
Q 3944 1897 3944 2528 
Q 3944 3278 3531 3731 
Q 3119 4184 2444 4184 
Q 1769 4184 1355 3729 
Q 941 3275 941 2528 
Q 941 1897 1250 1378 
Q 1563 859 2119 556 
L 2119 0 
L 244 0 
L 244 556 
L 1241 556 
Q 747 991 519 1456 
Q 294 1922 294 2497 
Q 294 3491 894 4106 
Q 1491 4722 2444 4722 
Q 3391 4722 3994 4106 
Q 4594 3494 4594 2528 
Q 4594 1922 4372 1459 
Q 4150 997 3647 556 
L 4647 556 
z
" transform="scale(0.015625)"/>
      <path id="DejaVuSans-Oblique-74" d="M 2706 3500 
L 2619 3053 
L 1472 3053 
L 1100 1153 
Q 1081 1047 1072 975 
Q 1063 903 1063 863 
Q 1063 663 1183 572 
Q 1303 481 1569 481 
L 2150 481 
L 2053 0 
L 1503 0 
Q 991 0 739 200 
Q 488 400 488 806 
Q 488 878 497 964 
Q 506 1050 525 1153 
L 897 3053 
L 409 3053 
L 500 3500 
L 978 3500 
L 1172 4494 
L 1747 4494 
L 1556 3500 
L 2706 3500 
z
" transform="scale(0.015625)"/>
      <path id="DejaVuSans-2b" d="M 2944 4013 
L 2944 2272 
L 4684 2272 
L 4684 1741 
L 2944 1741 
L 2944 0 
L 2419 0 
L 2419 1741 
L 678 1741 
L 678 2272 
L 2419 2272 
L 2419 4013 
L 2944 4013 
z
" transform="scale(0.015625)"/>
      <path id="DejaVuSans-398" d="M 1416 2750 
L 3622 2750 
L 3622 2219 
L 1416 2219 
L 1416 2750 
z
M 2522 4238 
Q 1834 4238 1431 3725 
Q 1025 3213 1025 2328 
Q 1025 1447 1429 934 
Q 1834 422 2522 422 
Q 3209 422 3613 934 
Q 4013 1447 4013 2328 
Q 4013 3213 3613 3725 
Q 3209 4238 2522 4238 
z
M 2522 4750 
Q 3503 4750 4090 4092 
Q 4678 3434 4678 2328 
Q 4678 1225 4091 569 
Q 3503 -91 2522 -91 
Q 1538 -91 950 566 
Q 359 1222 359 2328 
Q 359 3434 950 4094 
Q 1538 4750 2522 4750 
z
" transform="scale(0.015625)"/>
      <path id="DejaVuSans-29" d="M 513 4856 
L 1013 4856 
Q 1481 4119 1714 3412 
Q 1947 2706 1947 2009 
Q 1947 1309 1714 600 
Q 1481 -109 1013 -844 
L 513 -844 
Q 928 -128 1133 580 
Q 1338 1288 1338 2009 
Q 1338 2731 1133 3434 
Q 928 4138 513 4856 
z
" transform="scale(0.015625)"/>
     </defs>
     <use xlink:href="#DejaVuSans-Oblique-6a" transform="translate(0 0.015625)"/>
     <use xlink:href="#DejaVuSans-Oblique-41" transform="translate(27.783203 0.015625)"/>
     <use xlink:href="#DejaVuSans-Oblique-73" transform="translate(96.191406 0.015625)"/>
     <use xlink:href="#DejaVuSans-Oblique-69" transform="translate(148.291016 0.015625)"/>
     <use xlink:href="#DejaVuSans-Oblique-6e" transform="translate(176.074219 0.015625)"/>
     <use xlink:href="#DejaVuSans-28" transform="translate(239.453125 0.015625)"/>
     <use xlink:href="#DejaVuSans-3a9" transform="translate(278.466797 0.015625)"/>
     <use xlink:href="#DejaVuSans-Oblique-74" transform="translate(354.882812 0.015625)"/>
     <use xlink:href="#DejaVuSans-2b" transform="translate(413.574219 0.015625)"/>
     <use xlink:href="#DejaVuSans-398" transform="translate(516.845703 0.015625)"/>
     <use xlink:href="#DejaVuSans-29" transform="translate(595.556641 0.015625)"/>
    </g>
   </g>
   <g id="text_2">
    <!-- $Acos(Ω t + Θ)$ -->
    <g transform="translate(0.42 89.143125) scale(0.14 -0.14)">
     <defs>
      <path id="DejaVuSans-Oblique-63" d="M 3431 3366 
L 3316 2797 
Q 3109 2947 2876 3022 
Q 2644 3097 2394 3097 
Q 2119 3097 1870 3000 
Q 1622 2903 1453 2725 
Q 1184 2453 1037 2087 
Q 891 1722 891 1331 
Q 891 859 1127 628 
Q 1363 397 1844 397 
Q 2081 397 2348 469 
Q 2616 541 2906 684 
L 2797 116 
Q 2547 13 2283 -39 
Q 2019 -91 1741 -91 
Q 1044 -91 669 257 
Q 294 606 294 1253 
Q 294 1797 489 2255 
Q 684 2713 1069 3078 
Q 1331 3328 1684 3456 
Q 2038 3584 2456 3584 
Q 2700 3584 2940 3529 
Q 3181 3475 3431 3366 
z
" transform="scale(0.015625)"/>
      <path id="DejaVuSans-Oblique-6f" d="M 1625 -91 
Q 1009 -91 651 289 
Q 294 669 294 1325 
Q 294 1706 417 2101 
Q 541 2497 738 2766 
Q 1047 3184 1428 3384 
Q 1809 3584 2291 3584 
Q 2888 3584 3255 3212 
Q 3622 2841 3622 2241 
Q 3622 1825 3500 1412 
Q 3378 1000 3181 728 
Q 2875 309 2494 109 
Q 2113 -91 1625 -91 
z
M 891 1344 
Q 891 869 1089 633 
Q 1288 397 1691 397 
Q 2269 397 2648 901 
Q 3028 1406 3028 2181 
Q 3028 2634 2825 2865 
Q 2622 3097 2228 3097 
Q 1903 3097 1650 2945 
Q 1397 2794 1197 2484 
Q 1050 2253 970 1956 
Q 891 1659 891 1344 
z
" transform="scale(0.015625)"/>
     </defs>
     <use xlink:href="#DejaVuSans-Oblique-41" transform="translate(0 0.125)"/>
     <use xlink:href="#DejaVuSans-Oblique-63" transform="translate(68.408203 0.125)"/>
     <use xlink:href="#DejaVuSans-Oblique-6f" transform="translate(123.388672 0.125)"/>
     <use xlink:href="#DejaVuSans-Oblique-73" transform="translate(184.570312 0.125)"/>
     <use xlink:href="#DejaVuSans-28" transform="translate(236.669922 0.125)"/>
     <use xlink:href="#DejaVuSans-3a9" transform="translate(275.683594 0.125)"/>
     <use xlink:href="#DejaVuSans-Oblique-74" transform="translate(352.099609 0.125)"/>
     <use xlink:href="#DejaVuSans-2b" transform="translate(410.791016 0.125)"/>
     <use xlink:href="#DejaVuSans-398" transform="translate(514.0625 0.125)"/>
     <use xlink:href="#DejaVuSans-29" transform="translate(592.773438 0.125)"/>
    </g>
   </g>
   <g id="text_3">
    <!-- R -->
    <g transform="translate(159.636094 15.768437) scale(0.14 -0.14)">
     <defs>
      <path id="DejaVuSans-52" d="M 2841 2188 
Q 3044 2119 3236 1894 
Q 3428 1669 3622 1275 
L 4263 0 
L 3584 0 
L 2988 1197 
Q 2756 1666 2539 1819 
Q 2322 1972 1947 1972 
L 1259 1972 
L 1259 0 
L 628 0 
L 628 4666 
L 2053 4666 
Q 2853 4666 3247 4331 
Q 3641 3997 3641 3322 
Q 3641 2881 3436 2590 
Q 3231 2300 2841 2188 
z
M 1259 4147 
L 1259 2491 
L 2053 2491 
Q 2509 2491 2742 2702 
Q 2975 2913 2975 3322 
Q 2975 3731 2742 3939 
Q 2509 4147 2053 4147 
L 1259 4147 
z
" transform="scale(0.015625)"/>
     </defs>
     <use xlink:href="#DejaVuSans-52"/>
    </g>
   </g>
   <g id="text_4">
    <!-- L -->
    <g transform="translate(235.778884 89.143125) scale(0.14 -0.14)">
     <defs>
      <path id="DejaVuSans-4c" d="M 628 4666 
L 1259 4666 
L 1259 531 
L 3531 531 
L 3531 0 
L 628 0 
L 628 4666 
z
" transform="scale(0.015625)"/>
     </defs>
     <use xlink:href="#DejaVuSans-4c"/>
    </g>
   </g>
  </g>
 </g>
 <defs>
  <clipPath id="pba87d92875">
   <rect x="2.908" y="-0" width="245.530884" height="251.96"/>
  </clipPath>
 </defs>
</svg>