<?xml version="1.0" encoding="utf-8" standalone="no"?>
<!DOCTYPE svg PUBLIC "-//W3C//DTD SVG 1.1//EN"
  "http://www.w3.org/Graphics/SVG/1.1/DTD/svg11.dtd">
<svg xmlns:xlink="http://www.w3.org/1999/xlink" width="353.34pt" height="403.2pt" viewBox="0 0 353.34 403.2" xmlns="http://www.w3.org/2000/svg" version="1.1">
 <metadata>
  <rdf:RDF xmlns:dc="http://purl.org/dc/elements/1.1/" xmlns:cc="http://creativecommons.org/ns#" xmlns:rdf="http://www.w3.org/1999/02/22-rdf-syntax-ns#">
   <cc:Work>
    <dc:type rdf:resource="http://purl.org/dc/dcmitype/StillImage"/>
    <dc:date>2024-12-17T07:46:50.962539</dc:date>
    <dc:format>image/svg+xml</dc:format>
    <dc:creator>
     <cc:Agent>
      <dc:title>Matplotlib v3.9.2, https://matplotlib.org/</dc:title>
     </cc:Agent>
    </dc:creator>
   </cc:Work>
  </rdf:RDF>
 </metadata>
 <defs>
  <style type="text/css">*{stroke-linejoin: round; stroke-linecap: butt}</style>
 </defs>
 <g id="figure_1">
  <g id="patch_1">
   <path d="M 0 403.2 
L 353.34 403.2 
L 353.34 0 
L 0 0 
z
" style="fill: #ffffff"/>
  </g>
  <g id="axes_1">
   <g id="patch_2">
    <path d="M 46.776 314.28 
C 51.549656 314.28 56.128438 312.383406 59.503922 309.007922 
C 62.879406 305.632438 64.776 301.053656 64.776 296.28 
C 64.776 291.506344 62.879406 286.927562 59.503922 283.552078 
C 56.128438 280.176594 51.549656 278.28 46.776 278.28 
C 42.002344 278.28 37.423562 280.176594 34.048078 283.552078 
C 30.672594 286.927562 28.776 291.506344 28.776 296.28 
C 28.776 301.053656 30.672594 305.632438 34.048078 309.007922 
C 37.423562 312.383406 42.002344 314.28 46.776 314.28 
L 46.776 314.28 
z
" clip-path="url(#p2f6acbc25d)" style="fill: none; stroke: #000000; stroke-width: 2; stroke-linejoin: miter"/>
   </g>
   <g id="patch_3">
    <path d="M 253.776 76.68 
C 258.549656 76.68 263.128438 74.783406 266.503922 71.407922 
C 269.879406 68.032438 271.776 63.453656 271.776 58.68 
C 271.776 53.906344 269.879406 49.327562 266.503922 45.952078 
C 263.128438 42.576594 258.549656 40.68 253.776 40.68 
C 249.002344 40.68 244.423562 42.576594 241.048078 45.952078 
C 237.672594 49.327562 235.776 53.906344 235.776 58.68 
C 235.776 63.453656 237.672594 68.032438 241.048078 71.407922 
C 244.423562 74.783406 249.002344 76.68 253.776 76.68 
L 253.776 76.68 
z
" clip-path="url(#p2f6acbc25d)" style="fill: none; stroke: #000000; stroke-width: 2; stroke-linejoin: miter"/>
   </g>
   <g id="line2d_1">
    <path d="M 46.776 350.28 
L 46.776 314.28 
L 46.776 314.28 
M 46.776 278.28 
L 46.776 278.28 
L 46.776 242.28 
" clip-path="url(#p2f6acbc25d)" style="fill: none; stroke: #000000; stroke-width: 2; stroke-linecap: round"/>
   </g>
   <g id="line2d_2">
    <path d="M 50.376 305.28 
L 43.176 305.28 
" clip-path="url(#p2f6acbc25d)" style="fill: none; stroke: #000000; stroke-width: 2; stroke-linecap: round"/>
   </g>
   <g id="line2d_3">
    <path d="M 46.776 290.88 
L 46.776 283.68 
" clip-path="url(#p2f6acbc25d)" style="fill: none; stroke: #000000; stroke-width: 2; stroke-linecap: round"/>
   </g>
   <g id="line2d_4">
    <path d="M 50.376 287.28 
L 43.176 287.28 
" clip-path="url(#p2f6acbc25d)" style="fill: none; stroke: #000000; stroke-width: 2; stroke-linecap: round"/>
   </g>
   <g id="line2d_5">
    <path d="M 46.776 242.28 
L 64.776 242.28 
L 82.776 242.28 
" clip-path="url(#p2f6acbc25d)" style="fill: none; stroke: #000000; stroke-width: 2; stroke-linecap: round"/>
   </g>
   <g id="line2d_6">
    <path d="M 82.776 242.28 
L 118.776 242.28 
L 121.776 233.28 
L 127.776 251.28 
L 133.776 233.28 
L 139.776 251.28 
L 145.776 233.28 
L 151.776 251.28 
L 154.776 242.28 
L 190.776 242.28 
" clip-path="url(#p2f6acbc25d)" style="fill: none; stroke: #000000; stroke-width: 2; stroke-linecap: round"/>
   </g>
   <g id="line2d_7">
    <path d="M 190.776 242.28 
L 208.776 242.28 
L 226.776 242.28 
" clip-path="url(#p2f6acbc25d)" style="fill: none; stroke: #000000; stroke-width: 2; stroke-linecap: round"/>
   </g>
   <g id="line2d_8">
    <path d="M 226.776 242.28 
L 239.976 242.28 
" clip-path="url(#p2f6acbc25d)" style="fill: none; stroke: #000000; stroke-width: 2; stroke-linecap: round"/>
   </g>
   <g id="line2d_9">
    <path d="M 239.976 229.08 
L 239.976 255.48 
" clip-path="url(#p2f6acbc25d)" style="fill: none; stroke: #000000; stroke-width: 2; stroke-linecap: round"/>
   </g>
   <g id="line2d_10">
    <path d="M 239.976 235.68 
L 253.836 223.8 
L 253.836 217.2 
" clip-path="url(#p2f6acbc25d)" style="fill: none; stroke: #000000; stroke-width: 2; stroke-linecap: round"/>
   </g>
   <g id="line2d_11">
    <path d="M 239.976 248.88 
L 253.836 260.76 
L 253.836 267.36 
" clip-path="url(#p2f6acbc25d)" style="fill: none; stroke: #000000; stroke-width: 2; stroke-linecap: round"/>
   </g>
   <g id="line2d_12">
    <path d="M 239.976 248.88 
L 247.002691 254.902878 
" clip-path="url(#p2f6acbc25d)" style="fill: none; stroke: #000000; stroke-width: 2; stroke-linecap: round"/>
   </g>
   <g id="patch_4">
    <path d="M 249.34554 252.169554 
L 253.836 260.76 
L 244.659842 257.636201 
z
" clip-path="url(#p2f6acbc25d)"/>
   </g>
   <g id="line2d_13">
    <path d="M 253.776 267.48 
L 253.776 321.48 
L 253.776 375.48 
" clip-path="url(#p2f6acbc25d)" style="fill: none; stroke: #000000; stroke-width: 2; stroke-linecap: round"/>
   </g>
   <g id="line2d_14">
    <path d="M 253.776 375.48 
L 253.776 389.88 
L 244.776 389.88 
L 262.776 389.88 
M 247.476 394.2 
L 260.076 394.2 
M 251.976 398.52 
L 255.576 398.52 
" clip-path="url(#p2f6acbc25d)" style="fill: none; stroke: #000000; stroke-width: 2; stroke-linecap: round"/>
   </g>
   <g id="line2d_15">
    <path d="M 253.776 220.68 
L 253.776 184.68 
L 244.776 181.68 
L 262.776 175.68 
L 244.776 169.68 
L 262.776 163.68 
L 244.776 157.68 
L 262.776 151.68 
L 253.776 148.68 
L 253.776 112.68 
" clip-path="url(#p2f6acbc25d)" style="fill: none; stroke: #000000; stroke-width: 2; stroke-linecap: round"/>
   </g>
   <g id="line2d_16">
    <path d="M 253.776 112.68 
L 253.776 76.68 
L 253.776 76.68 
M 253.776 40.68 
L 253.776 40.68 
L 253.776 4.68 
" clip-path="url(#p2f6acbc25d)" style="fill: none; stroke: #000000; stroke-width: 2; stroke-linecap: round"/>
   </g>
   <g id="line2d_17">
    <path d="M 250.176 49.68 
L 257.376 49.68 
" clip-path="url(#p2f6acbc25d)" style="fill: none; stroke: #000000; stroke-width: 2; stroke-linecap: round"/>
   </g>
   <g id="line2d_18">
    <path d="M 253.776 71.28 
L 253.776 64.08 
" clip-path="url(#p2f6acbc25d)" style="fill: none; stroke: #000000; stroke-width: 2; stroke-linecap: round"/>
   </g>
   <g id="line2d_19">
    <path d="M 250.176 67.68 
L 257.376 67.68 
" clip-path="url(#p2f6acbc25d)" style="fill: none; stroke: #000000; stroke-width: 2; stroke-linecap: round"/>
   </g>
   <g id="line2d_20">
    <path d="M 253.776 4.68 
L 217.776 4.68 
L 181.776 4.68 
" clip-path="url(#p2f6acbc25d)" style="fill: none; stroke: #000000; stroke-width: 2; stroke-linecap: round"/>
   </g>
   <g id="line2d_21">
    <path d="M 181.776 4.68 
L 181.776 22.68 
L 181.776 40.68 
" clip-path="url(#p2f6acbc25d)" style="fill: none; stroke: #000000; stroke-width: 2; stroke-linecap: round"/>
   </g>
   <g id="line2d_22">
    <path d="M 181.776 40.68 
L 181.776 55.08 
L 172.776 55.08 
L 190.776 55.08 
M 175.476 59.4 
L 188.076 59.4 
M 179.976 63.72 
L 183.576 63.72 
" clip-path="url(#p2f6acbc25d)" style="fill: none; stroke: #000000; stroke-width: 2; stroke-linecap: round"/>
   </g>
   <g id="line2d_23">
    <path d="M 46.776 350.28 
L 46.776 364.68 
L 37.776 364.68 
L 55.776 364.68 
M 40.476 369 
L 53.076 369 
M 44.976 373.32 
L 48.576 373.32 
" clip-path="url(#p2f6acbc25d)" style="fill: none; stroke: #000000; stroke-width: 2; stroke-linecap: round"/>
   </g>
   <g id="text_1">
    <!-- Vin -->
    <g transform="translate(3.15225 300.143125) scale(0.14 -0.14)">
     <defs>
      <path id="DejaVuSans-56" d="M 1831 0 
L 50 4666 
L 709 4666 
L 2188 738 
L 3669 4666 
L 4325 4666 
L 2547 0 
L 1831 0 
z
" transform="scale(0.015625)"/>
      <path id="DejaVuSans-69" d="M 603 3500 
L 1178 3500 
L 1178 0 
L 603 0 
L 603 3500 
z
M 603 4863 
L 1178 4863 
L 1178 4134 
L 603 4134 
L 603 4863 
z
" transform="scale(0.015625)"/>
      <path id="DejaVuSans-6e" d="M 3513 2113 
L 3513 0 
L 2938 0 
L 2938 2094 
Q 2938 2591 2744 2837 
Q 2550 3084 2163 3084 
Q 1697 3084 1428 2787 
Q 1159 2491 1159 1978 
L 1159 0 
L 581 0 
L 581 3500 
L 1159 3500 
L 1159 2956 
Q 1366 3272 1645 3428 
Q 1925 3584 2291 3584 
Q 2894 3584 3203 3211 
Q 3513 2838 3513 2113 
z
" transform="scale(0.015625)"/>
     </defs>
     <use xlink:href="#DejaVuSans-56"/>
     <use xlink:href="#DejaVuSans-69" x="66.158203"/>
     <use xlink:href="#DejaVuSans-6e" x="93.941406"/>
    </g>
   </g>
   <g id="text_2">
    <!-- Rb -->
    <g transform="translate(127.468187 226.768438) scale(0.14 -0.14)">
     <defs>
      <path id="DejaVuSans-52" d="M 2841 2188 
Q 3044 2119 3236 1894 
Q 3428 1669 3622 1275 
L 4263 0 
L 3584 0 
L 2988 1197 
Q 2756 1666 2539 1819 
Q 2322 1972 1947 1972 
L 1259 1972 
L 1259 0 
L 628 0 
L 628 4666 
L 2053 4666 
Q 2853 4666 3247 4331 
Q 3641 3997 3641 3322 
Q 3641 2881 3436 2590 
Q 3231 2300 2841 2188 
z
M 1259 4147 
L 1259 2491 
L 2053 2491 
Q 2509 2491 2742 2702 
Q 2975 2913 2975 3322 
Q 2975 3731 2742 3939 
Q 2509 4147 2053 4147 
L 1259 4147 
z
" transform="scale(0.015625)"/>
      <path id="DejaVuSans-62" d="M 3116 1747 
Q 3116 2381 2855 2742 
Q 2594 3103 2138 3103 
Q 1681 3103 1420 2742 
Q 1159 2381 1159 1747 
Q 1159 1113 1420 752 
Q 1681 391 2138 391 
Q 2594 391 2855 752 
Q 3116 1113 3116 1747 
z
M 1159 2969 
Q 1341 3281 1617 3432 
Q 1894 3584 2278 3584 
Q 2916 3584 3314 3078 
Q 3713 2572 3713 1747 
Q 3713 922 3314 415 
Q 2916 -91 2278 -91 
Q 1894 -91 1617 61 
Q 1341 213 1159 525 
L 1159 0 
L 581 0 
L 581 4863 
L 1159 4863 
L 1159 2969 
z
" transform="scale(0.015625)"/>
     </defs>
     <use xlink:href="#DejaVuSans-52"/>
     <use xlink:href="#DejaVuSans-62" x="69.482422"/>
    </g>
   </g>
   <g id="text_3">
    <!-- BJT Transistor -->
    <g transform="translate(257.436 246.443125) scale(0.14 -0.14)">
     <defs>
      <path id="DejaVuSans-42" d="M 1259 2228 
L 1259 519 
L 2272 519 
Q 2781 519 3026 730 
Q 3272 941 3272 1375 
Q 3272 1813 3026 2020 
Q 2781 2228 2272 2228 
L 1259 2228 
z
M 1259 4147 
L 1259 2741 
L 2194 2741 
Q 2656 2741 2882 2914 
Q 3109 3088 3109 3444 
Q 3109 3797 2882 3972 
Q 2656 4147 2194 4147 
L 1259 4147 
z
M 628 4666 
L 2241 4666 
Q 2963 4666 3353 4366 
Q 3744 4066 3744 3513 
Q 3744 3084 3544 2831 
Q 3344 2578 2956 2516 
Q 3422 2416 3680 2098 
Q 3938 1781 3938 1306 
Q 3938 681 3513 340 
Q 3088 0 2303 0 
L 628 0 
L 628 4666 
z
" transform="scale(0.015625)"/>
      <path id="DejaVuSans-4a" d="M 628 4666 
L 1259 4666 
L 1259 325 
Q 1259 -519 939 -900 
Q 619 -1281 -91 -1281 
L -331 -1281 
L -331 -750 
L -134 -750 
Q 284 -750 456 -515 
Q 628 -281 628 325 
L 628 4666 
z
" transform="scale(0.015625)"/>
      <path id="DejaVuSans-54" d="M -19 4666 
L 3928 4666 
L 3928 4134 
L 2272 4134 
L 2272 0 
L 1638 0 
L 1638 4134 
L -19 4134 
L -19 4666 
z
" transform="scale(0.015625)"/>
      <path id="DejaVuSans-20" transform="scale(0.015625)"/>
      <path id="DejaVuSans-72" d="M 2631 2963 
Q 2534 3019 2420 3045 
Q 2306 3072 2169 3072 
Q 1681 3072 1420 2755 
Q 1159 2438 1159 1844 
L 1159 0 
L 581 0 
L 581 3500 
L 1159 3500 
L 1159 2956 
Q 1341 3275 1631 3429 
Q 1922 3584 2338 3584 
Q 2397 3584 2469 3576 
Q 2541 3569 2628 3553 
L 2631 2963 
z
" transform="scale(0.015625)"/>
      <path id="DejaVuSans-61" d="M 2194 1759 
Q 1497 1759 1228 1600 
Q 959 1441 959 1056 
Q 959 750 1161 570 
Q 1363 391 1709 391 
Q 2188 391 2477 730 
Q 2766 1069 2766 1631 
L 2766 1759 
L 2194 1759 
z
M 3341 1997 
L 3341 0 
L 2766 0 
L 2766 531 
Q 2569 213 2275 61 
Q 1981 -91 1556 -91 
Q 1019 -91 701 211 
Q 384 513 384 1019 
Q 384 1609 779 1909 
Q 1175 2209 1959 2209 
L 2766 2209 
L 2766 2266 
Q 2766 2663 2505 2880 
Q 2244 3097 1772 3097 
Q 1472 3097 1187 3025 
Q 903 2953 641 2809 
L 641 3341 
Q 956 3463 1253 3523 
Q 1550 3584 1831 3584 
Q 2591 3584 2966 3190 
Q 3341 2797 3341 1997 
z
" transform="scale(0.015625)"/>
      <path id="DejaVuSans-73" d="M 2834 3397 
L 2834 2853 
Q 2591 2978 2328 3040 
Q 2066 3103 1784 3103 
Q 1356 3103 1142 2972 
Q 928 2841 928 2578 
Q 928 2378 1081 2264 
Q 1234 2150 1697 2047 
L 1894 2003 
Q 2506 1872 2764 1633 
Q 3022 1394 3022 966 
Q 3022 478 2636 193 
Q 2250 -91 1575 -91 
Q 1294 -91 989 -36 
Q 684 19 347 128 
L 347 722 
Q 666 556 975 473 
Q 1284 391 1588 391 
Q 1994 391 2212 530 
Q 2431 669 2431 922 
Q 2431 1156 2273 1281 
Q 2116 1406 1581 1522 
L 1381 1569 
Q 847 1681 609 1914 
Q 372 2147 372 2553 
Q 372 3047 722 3315 
Q 1072 3584 1716 3584 
Q 2034 3584 2315 3537 
Q 2597 3491 2834 3397 
z
" transform="scale(0.015625)"/>
      <path id="DejaVuSans-74" d="M 1172 4494 
L 1172 3500 
L 2356 3500 
L 2356 3053 
L 1172 3053 
L 1172 1153 
Q 1172 725 1289 603 
Q 1406 481 1766 481 
L 2356 481 
L 2356 0 
L 1766 0 
Q 1100 0 847 248 
Q 594 497 594 1153 
L 594 3053 
L 172 3053 
L 172 3500 
L 594 3500 
L 594 4494 
L 1172 4494 
z
" transform="scale(0.015625)"/>
      <path id="DejaVuSans-6f" d="M 1959 3097 
Q 1497 3097 1228 2736 
Q 959 2375 959 1747 
Q 959 1119 1226 758 
Q 1494 397 1959 397 
Q 2419 397 2687 759 
Q 2956 1122 2956 1747 
Q 2956 2369 2687 2733 
Q 2419 3097 1959 3097 
z
M 1959 3584 
Q 2709 3584 3137 3096 
Q 3566 2609 3566 1747 
Q 3566 888 3137 398 
Q 2709 -91 1959 -91 
Q 1206 -91 779 398 
Q 353 888 353 1747 
Q 353 2609 779 3096 
Q 1206 3584 1959 3584 
z
" transform="scale(0.015625)"/>
     </defs>
     <use xlink:href="#DejaVuSans-42"/>
     <use xlink:href="#DejaVuSans-4a" x="68.603516"/>
     <use xlink:href="#DejaVuSans-54" x="98.095703"/>
     <use xlink:href="#DejaVuSans-20" x="159.179688"/>
     <use xlink:href="#DejaVuSans-54" x="190.966797"/>
     <use xlink:href="#DejaVuSans-72" x="237.300781"/>
     <use xlink:href="#DejaVuSans-61" x="278.414062"/>
     <use xlink:href="#DejaVuSans-6e" x="339.693359"/>
     <use xlink:href="#DejaVuSans-73" x="403.072266"/>
     <use xlink:href="#DejaVuSans-69" x="455.171875"/>
     <use xlink:href="#DejaVuSans-73" x="482.955078"/>
     <use xlink:href="#DejaVuSans-74" x="535.054688"/>
     <use xlink:href="#DejaVuSans-6f" x="574.263672"/>
     <use xlink:href="#DejaVuSans-72" x="635.445312"/>
    </g>
   </g>
   <g id="text_4">
    <!-- Rc -->
    <g transform="translate(266.376 170.543125) scale(0.14 -0.14)">
     <defs>
      <path id="DejaVuSans-63" d="M 3122 3366 
L 3122 2828 
Q 2878 2963 2633 3030 
Q 2388 3097 2138 3097 
Q 1578 3097 1268 2742 
Q 959 2388 959 1747 
Q 959 1106 1268 751 
Q 1578 397 2138 397 
Q 2388 397 2633 464 
Q 2878 531 3122 666 
L 3122 134 
Q 2881 22 2623 -34 
Q 2366 -91 2075 -91 
Q 1284 -91 818 406 
Q 353 903 353 1747 
Q 353 2603 823 3093 
Q 1294 3584 2113 3584 
Q 2378 3584 2631 3529 
Q 2884 3475 3122 3366 
z
" transform="scale(0.015625)"/>
     </defs>
     <use xlink:href="#DejaVuSans-52"/>
     <use xlink:href="#DejaVuSans-63" x="69.482422"/>
    </g>
   </g>
   <g id="text_5">
    <!-- +Vcc -->
    <g transform="translate(275.376 62.543125) scale(0.14 -0.14)">
     <defs>
      <path id="DejaVuSans-2b" d="M 2944 4013 
L 2944 2272 
L 4684 2272 
L 4684 1741 
L 2944 1741 
L 2944 0 
L 2419 0 
L 2419 1741 
L 678 1741 
L 678 2272 
L 2419 2272 
L 2419 4013 
L 2944 4013 
z
" transform="scale(0.015625)"/>
     </defs>
     <use xlink:href="#DejaVuSans-2b"/>
     <use xlink:href="#DejaVuSans-56" x="83.789062"/>
     <use xlink:href="#DejaVuSans-63" x="152.197266"/>
     <use xlink:href="#DejaVuSans-63" x="207.177734"/>
    </g>
   </g>
  </g>
 </g>
 <defs>
  <clipPath id="p2f6acbc25d">
   <rect x="0" y="0" width="353.34" height="403.2"/>
  </clipPath>
 </defs>
</svg>