<?xml version="1.0" encoding="utf-8" standalone="no"?>
<!DOCTYPE svg PUBLIC "-//W3C//DTD SVG 1.1//EN"
  "http://www.w3.org/Graphics/SVG/1.1/DTD/svg11.dtd">
<svg xmlns:xlink="http://www.w3.org/1999/xlink" width="160.007978pt" height="143.96pt" viewBox="0 0 160.007978 143.96" xmlns="http://www.w3.org/2000/svg" version="1.1">
 <metadata>
  <rdf:RDF xmlns:dc="http://purl.org/dc/elements/1.1/" xmlns:cc="http://creativecommons.org/ns#" xmlns:rdf="http://www.w3.org/1999/02/22-rdf-syntax-ns#">
   <cc:Work>
    <dc:type rdf:resource="http://purl.org/dc/dcmitype/StillImage"/>
    <dc:date>2025-05-14T19:09:03.127632</dc:date>
    <dc:format>image/svg+xml</dc:format>
    <dc:creator>
     <cc:Agent>
      <dc:title>Matplotlib v3.10.3, https://matplotlib.org/</dc:title>
     </cc:Agent>
    </dc:creator>
   </cc:Work>
  </rdf:RDF>
 </metadata>
 <defs>
  <style type="text/css">*{stroke-linejoin: round; stroke-linecap: butt}</style>
 </defs>
 <g id="figure_1">
  <g id="patch_1">
   <path d="M 0 143.96 
L 160.007978 143.96 
L 160.007978 0 
L 0 0 
z
" style="fill: #ffffff"/>
  </g>
  <g id="axes_1">
   <g id="patch_2">
    <path d="M 42.828 103.28 
C 47.601656 103.28 52.180438 101.383406 55.555922 98.007922 
C 58.931406 94.632438 60.828 90.053656 60.828 85.28 
C 60.828 80.506344 58.931406 75.927562 55.555922 72.552078 
C 52.180438 69.176594 47.601656 67.28 42.828 67.28 
C 38.054344 67.28 33.475562 69.176594 30.100078 72.552078 
C 26.724594 75.927562 24.828 80.506344 24.828 85.28 
C 24.828 90.053656 26.724594 94.632438 30.100078 98.007922 
C 33.475562 101.383406 38.054344 103.28 42.828 103.28 
L 42.828 103.28 
z
" clip-path="url(#pd56f5ae74a)" style="fill: none; stroke: #000000; stroke-width: 2; stroke-linejoin: miter"/>
   </g>
   <g id="patch_3">
    <path d="M 150.828 76.28 
C 152.021016 76.28 153.16639 75.805571 154.009981 74.961981 
C 154.853571 74.11839 155.328 72.973016 155.328 71.78 
C 155.328 70.586984 154.853571 69.44161 154.009981 68.598019 
C 153.16639 67.754429 152.021016 67.28 150.828 67.28 
" clip-path="url(#pd56f5ae74a)" style="fill: none; stroke: #000000; stroke-width: 2; stroke-linejoin: miter"/>
   </g>
   <g id="patch_4">
    <path d="M 150.828 85.28 
C 152.021016 85.28 153.16639 84.805571 154.009981 83.961981 
C 154.853571 83.11839 155.328 81.973016 155.328 80.78 
C 155.328 79.586984 154.853571 78.44161 154.009981 77.598019 
C 153.16639 76.754429 152.021016 76.28 150.828 76.28 
" clip-path="url(#pd56f5ae74a)" style="fill: none; stroke: #000000; stroke-width: 2; stroke-linejoin: miter"/>
   </g>
   <g id="patch_5">
    <path d="M 150.828 94.28 
C 152.021016 94.28 153.16639 93.805571 154.009981 92.961981 
C 154.853571 92.11839 155.328 90.973016 155.328 89.78 
C 155.328 88.586984 154.853571 87.44161 154.009981 86.598019 
C 153.16639 85.754429 152.021016 85.28 150.828 85.28 
" clip-path="url(#pd56f5ae74a)" style="fill: none; stroke: #000000; stroke-width: 2; stroke-linejoin: miter"/>
   </g>
   <g id="patch_6">
    <path d="M 150.828 103.28 
C 152.021016 103.28 153.16639 102.805571 154.009981 101.961981 
C 154.853571 101.11839 155.328 99.973016 155.328 98.78 
C 155.328 97.586984 154.853571 96.44161 154.009981 95.598019 
C 153.16639 94.754429 152.021016 94.28 150.828 94.28 
" clip-path="url(#pd56f5ae74a)" style="fill: none; stroke: #000000; stroke-width: 2; stroke-linejoin: miter"/>
   </g>
   <g id="line2d_1">
    <path d="M 42.828 139.28 
L 42.828 103.28 
L 42.828 103.28 
M 42.828 67.28 
L 42.828 67.28 
L 42.828 31.28 
" clip-path="url(#pd56f5ae74a)" style="fill: none; stroke: #000000; stroke-width: 2; stroke-linecap: round"/>
   </g>
   <g id="line2d_2">
    <path d="M 51.828 85.28 
L 51.078 83.416503 
L 50.328 81.68 
L 49.578 80.188831 
L 48.828 79.044617 
L 48.078 78.325334 
L 47.328 78.08 
L 46.578 78.325334 
L 45.828 79.044617 
L 45.078 80.188831 
L 44.328 81.68 
L 43.578 83.416503 
L 42.828 85.28 
L 42.078 87.143497 
L 41.328 88.88 
L 40.578 90.371169 
L 39.828 91.515383 
L 39.078 92.234666 
L 38.328 92.48 
L 37.578 92.234666 
L 36.828 91.515383 
L 36.078 90.371169 
L 35.328 88.88 
L 34.578 87.143497 
L 33.828 85.28 
" clip-path="url(#pd56f5ae74a)" style="fill: none; stroke: #000000; stroke-width: 2; stroke-linecap: round"/>
   </g>
   <g id="line2d_3">
    <path d="M 42.828 31.28 
L 78.828 31.28 
L 81.828 22.28 
L 87.828 40.28 
L 93.828 22.28 
L 99.828 40.28 
L 105.828 22.28 
L 111.828 40.28 
L 114.828 31.28 
L 150.828 31.28 
" clip-path="url(#pd56f5ae74a)" style="fill: none; stroke: #000000; stroke-width: 2; stroke-linecap: round"/>
   </g>
   <g id="line2d_4">
    <path d="M 150.828 31.28 
L 150.828 67.28 
M 150.828 103.28 
L 150.828 139.28 
" clip-path="url(#pd56f5ae74a)" style="fill: none; stroke: #000000; stroke-width: 2; stroke-linecap: round"/>
   </g>
   <g id="line2d_5">
    <path d="M 150.828 139.28 
L 96.828 139.28 
L 42.828 139.28 
" clip-path="url(#pd56f5ae74a)" style="fill: none; stroke: #000000; stroke-width: 2; stroke-linecap: round"/>
   </g>
   <g id="text_1">
    <!-- Vs -->
    <g transform="translate(4.358 89.143125) scale(0.14 -0.14)">
     <defs>
      <path id="DejaVuSans-56" d="M 1831 0 
L 50 4666 
L 709 4666 
L 2188 738 
L 3669 4666 
L 4325 4666 
L 2547 0 
L 1831 0 
z
" transform="scale(0.015625)"/>
      <path id="DejaVuSans-73" d="M 2834 3397 
L 2834 2853 
Q 2591 2978 2328 3040 
Q 2066 3103 1784 3103 
Q 1356 3103 1142 2972 
Q 928 2841 928 2578 
Q 928 2378 1081 2264 
Q 1234 2150 1697 2047 
L 1894 2003 
Q 2506 1872 2764 1633 
Q 3022 1394 3022 966 
Q 3022 478 2636 193 
Q 2250 -91 1575 -91 
Q 1294 -91 989 -36 
Q 684 19 347 128 
L 347 722 
Q 666 556 975 473 
Q 1284 391 1588 391 
Q 1994 391 2212 530 
Q 2431 669 2431 922 
Q 2431 1156 2273 1281 
Q 2116 1406 1581 1522 
L 1381 1569 
Q 847 1681 609 1914 
Q 372 2147 372 2553 
Q 372 3047 722 3315 
Q 1072 3584 1716 3584 
Q 2034 3584 2315 3537 
Q 2597 3491 2834 3397 
z
" transform="scale(0.015625)"/>
     </defs>
     <use xlink:href="#DejaVuSans-56"/>
     <use xlink:href="#DejaVuSans-73" transform="translate(68.408203 0)"/>
    </g>
   </g>
   <g id="text_2">
    <!-- 2Ω -->
    <g transform="translate(87.024719 15.768437) scale(0.14 -0.14)">
     <defs>
      <path id="DejaVuSans-32" d="M 1228 531 
L 3431 531 
L 3431 0 
L 469 0 
L 469 531 
Q 828 903 1448 1529 
Q 2069 2156 2228 2338 
Q 2531 2678 2651 2914 
Q 2772 3150 2772 3378 
Q 2772 3750 2511 3984 
Q 2250 4219 1831 4219 
Q 1534 4219 1204 4116 
Q 875 4013 500 3803 
L 500 4441 
Q 881 4594 1212 4672 
Q 1544 4750 1819 4750 
Q 2544 4750 2975 4387 
Q 3406 4025 3406 3419 
Q 3406 3131 3298 2873 
Q 3191 2616 2906 2266 
Q 2828 2175 2409 1742 
Q 1991 1309 1228 531 
z
" transform="scale(0.015625)"/>
      <path id="DejaVuSans-3a9" d="M 4647 556 
L 4647 0 
L 2772 0 
L 2772 556 
Q 3325 859 3634 1378 
Q 3944 1897 3944 2528 
Q 3944 3278 3531 3731 
Q 3119 4184 2444 4184 
Q 1769 4184 1355 3729 
Q 941 3275 941 2528 
Q 941 1897 1250 1378 
Q 1563 859 2119 556 
L 2119 0 
L 244 0 
L 244 556 
L 1241 556 
Q 747 991 519 1456 
Q 294 1922 294 2497 
Q 294 3491 894 4106 
Q 1491 4722 2444 4722 
Q 3391 4722 3994 4106 
Q 4594 3494 4594 2528 
Q 4594 1922 4372 1459 
Q 4150 997 3647 556 
L 4647 556 
z
" transform="scale(0.015625)"/>
     </defs>
     <use xlink:href="#DejaVuSans-32"/>
     <use xlink:href="#DejaVuSans-3a9" transform="translate(63.623047 0)"/>
    </g>
   </g>
   <g id="text_3">
    <!-- 3H -->
    <g transform="translate(127.792063 89.143125) scale(0.14 -0.14)">
     <defs>
      <path id="DejaVuSans-33" d="M 2597 2516 
Q 3050 2419 3304 2112 
Q 3559 1806 3559 1356 
Q 3559 666 3084 287 
Q 2609 -91 1734 -91 
Q 1441 -91 1130 -33 
Q 819 25 488 141 
L 488 750 
Q 750 597 1062 519 
Q 1375 441 1716 441 
Q 2309 441 2620 675 
Q 2931 909 2931 1356 
Q 2931 1769 2642 2001 
Q 2353 2234 1838 2234 
L 1294 2234 
L 1294 2753 
L 1863 2753 
Q 2328 2753 2575 2939 
Q 2822 3125 2822 3475 
Q 2822 3834 2567 4026 
Q 2313 4219 1838 4219 
Q 1578 4219 1281 4162 
Q 984 4106 628 3988 
L 628 4550 
Q 988 4650 1302 4700 
Q 1616 4750 1894 4750 
Q 2613 4750 3031 4423 
Q 3450 4097 3450 3541 
Q 3450 3153 3228 2886 
Q 3006 2619 2597 2516 
z
" transform="scale(0.015625)"/>
      <path id="DejaVuSans-48" d="M 628 4666 
L 1259 4666 
L 1259 2753 
L 3553 2753 
L 3553 4666 
L 4184 4666 
L 4184 0 
L 3553 0 
L 3553 2222 
L 1259 2222 
L 1259 0 
L 628 0 
L 628 4666 
z
" transform="scale(0.015625)"/>
     </defs>
     <use xlink:href="#DejaVuSans-33"/>
     <use xlink:href="#DejaVuSans-48" transform="translate(63.623047 0)"/>
    </g>
   </g>
  </g>
 </g>
 <defs>
  <clipPath id="pd56f5ae74a">
   <rect x="0" y="0" width="160.007978" height="143.96"/>
  </clipPath>
 </defs>
</svg>