<?xml version="1.0" encoding="utf-8" standalone="no"?>
<!DOCTYPE svg PUBLIC "-//W3C//DTD SVG 1.1//EN"
  "http://www.w3.org/Graphics/SVG/1.1/DTD/svg11.dtd">
<svg xmlns:xlink="http://www.w3.org/1999/xlink" width="472.368pt" height="148.36pt" viewBox="0 0 472.368 148.36" xmlns="http://www.w3.org/2000/svg" version="1.1">
 <metadata>
  <rdf:RDF xmlns:dc="http://purl.org/dc/elements/1.1/" xmlns:cc="http://creativecommons.org/ns#" xmlns:rdf="http://www.w3.org/1999/02/22-rdf-syntax-ns#">
   <cc:Work>
    <dc:type rdf:resource="http://purl.org/dc/dcmitype/StillImage"/>
    <dc:date>2024-11-19T07:53:48.755341</dc:date>
    <dc:format>image/svg+xml</dc:format>
    <dc:creator>
     <cc:Agent>
      <dc:title>Matplotlib v3.9.2, https://matplotlib.org/</dc:title>
     </cc:Agent>
    </dc:creator>
   </cc:Work>
  </rdf:RDF>
 </metadata>
 <defs>
  <style type="text/css">*{stroke-linejoin: round; stroke-linecap: butt}</style>
 </defs>
 <g id="figure_1">
  <g id="patch_1">
   <path d="M 0 148.36 
L 472.368 148.36 
L 472.368 0 
L 0 0 
z
" style="fill: #ffffff"/>
  </g>
  <g id="axes_1">
   <g id="patch_2">
    <path d="M 35.688 107.68 
C 40.461656 107.68 45.040438 105.783406 48.415922 102.407922 
C 51.791406 99.032438 53.688 94.453656 53.688 89.68 
C 53.688 84.906344 51.791406 80.327562 48.415922 76.952078 
C 45.040438 73.576594 40.461656 71.68 35.688 71.68 
C 30.914344 71.68 26.335562 73.576594 22.960078 76.952078 
C 19.584594 80.327562 17.688 84.906344 17.688 89.68 
C 17.688 94.453656 19.584594 99.032438 22.960078 102.407922 
C 26.335562 105.783406 30.914344 107.68 35.688 107.68 
L 35.688 107.68 
z
" clip-path="url(#p08c15f1d80)" style="fill: none; stroke: #000000; stroke-width: 2; stroke-linejoin: miter"/>
   </g>
   <g id="line2d_1">
    <path d="M 35.688 143.68 
L 35.688 107.68 
L 35.688 107.68 
M 35.688 71.68 
L 35.688 71.68 
L 35.688 35.68 
" clip-path="url(#p08c15f1d80)" style="fill: none; stroke: #000000; stroke-width: 2; stroke-linecap: round"/>
   </g>
   <g id="line2d_2">
    <path d="M 39.288 98.68 
L 32.088 98.68 
" clip-path="url(#p08c15f1d80)" style="fill: none; stroke: #000000; stroke-width: 2; stroke-linecap: round"/>
   </g>
   <g id="line2d_3">
    <path d="M 35.688 84.28 
L 35.688 77.08 
" clip-path="url(#p08c15f1d80)" style="fill: none; stroke: #000000; stroke-width: 2; stroke-linecap: round"/>
   </g>
   <g id="line2d_4">
    <path d="M 39.288 80.68 
L 32.088 80.68 
" clip-path="url(#p08c15f1d80)" style="fill: none; stroke: #000000; stroke-width: 2; stroke-linecap: round"/>
   </g>
   <g id="line2d_5">
    <path d="M 35.688 35.68 
L 89.688 35.68 
L 143.688 35.68 
" clip-path="url(#p08c15f1d80)" style="fill: none; stroke: #000000; stroke-width: 2; stroke-linecap: round"/>
   </g>
   <g id="line2d_6">
    <path d="M 143.688 35.68 
L 179.688 35.68 
M 188.328 32.08 
L 208.488 19.48 
M 215.688 35.68 
L 251.688 35.68 
" clip-path="url(#p08c15f1d80)" style="fill: none; stroke: #000000; stroke-width: 2; stroke-linecap: round"/>
   </g>
   <g id="line2d_7">
    <path d="M 251.688 35.68 
L 305.688 35.68 
L 359.688 35.68 
" clip-path="url(#p08c15f1d80)" style="fill: none; stroke: #000000; stroke-width: 2; stroke-linecap: round"/>
   </g>
   <g id="line2d_8">
    <path d="M 359.688 35.68 
L 395.688 35.68 
L 398.688 26.68 
L 404.688 44.68 
L 410.688 26.68 
L 416.688 44.68 
L 422.688 26.68 
L 428.688 44.68 
L 431.688 35.68 
L 467.688 35.68 
" clip-path="url(#p08c15f1d80)" style="fill: none; stroke: #000000; stroke-width: 2; stroke-linecap: round"/>
   </g>
   <g id="line2d_9">
    <path d="M 467.688 35.68 
L 467.688 89.68 
L 467.688 143.68 
" clip-path="url(#p08c15f1d80)" style="fill: none; stroke: #000000; stroke-width: 2; stroke-linecap: round"/>
   </g>
   <g id="line2d_10">
    <path d="M 467.688 143.68 
L 251.688 143.68 
L 35.688 143.68 
" clip-path="url(#p08c15f1d80)" style="fill: none; stroke: #000000; stroke-width: 2; stroke-linecap: round"/>
   </g>
   <g id="line2d_11">
    <path d="M 35.688 143.68 
L 35.688 143.68 
L 35.688 143.68 
" clip-path="url(#p08c15f1d80)" style="fill: none; stroke: #000000; stroke-width: 2; stroke-linecap: round"/>
   </g>
   <g id="text_1">
    <!-- V -->
    <g transform="translate(4.511125 93.543125) scale(0.14 -0.14)">
     <defs>
      <path id="DejaVuSans-56" d="M 1831 0 
L 50 4666 
L 709 4666 
L 2188 738 
L 3669 4666 
L 4325 4666 
L 2547 0 
L 1831 0 
z
" transform="scale(0.015625)"/>
     </defs>
     <use xlink:href="#DejaVuSans-56"/>
    </g>
   </g>
   <g id="patch_3">
    <path d="M 184.008 40 
C 185.153677 40 186.252585 39.544818 187.062701 38.734701 
C 187.872818 37.924585 188.328 36.825677 188.328 35.68 
C 188.328 34.534323 187.872818 33.435415 187.062701 32.625299 
C 186.252585 31.815182 185.153677 31.36 184.008 31.36 
C 182.862323 31.36 181.763415 31.815182 180.953299 32.625299 
C 180.143182 33.435415 179.688 34.534323 179.688 35.68 
C 179.688 36.825677 180.143182 37.924585 180.953299 38.734701 
C 181.763415 39.544818 182.862323 40 184.008 40 
z
" clip-path="url(#p08c15f1d80)" style="fill: #ffffff; stroke: #000000; stroke-width: 2; stroke-linejoin: miter"/>
   </g>
   <g id="patch_4">
    <path d="M 211.368 40 
C 212.513677 40 213.612585 39.544818 214.422701 38.734701 
C 215.232818 37.924585 215.688 36.825677 215.688 35.68 
C 215.688 34.534323 215.232818 33.435415 214.422701 32.625299 
C 213.612585 31.815182 212.513677 31.36 211.368 31.36 
C 210.222323 31.36 209.123415 31.815182 208.313299 32.625299 
C 207.503182 33.435415 207.048 34.534323 207.048 35.68 
C 207.048 36.825677 207.503182 37.924585 208.313299 38.734701 
C 209.123415 39.544818 210.222323 40 211.368 40 
z
" clip-path="url(#p08c15f1d80)" style="fill: #ffffff; stroke: #000000; stroke-width: 2; stroke-linejoin: miter"/>
   </g>
   <g id="text_2">
    <!-- SPST Switch -->
    <g transform="translate(154.936594 12.968437) scale(0.14 -0.14)">
     <defs>
      <path id="DejaVuSans-53" d="M 3425 4513 
L 3425 3897 
Q 3066 4069 2747 4153 
Q 2428 4238 2131 4238 
Q 1616 4238 1336 4038 
Q 1056 3838 1056 3469 
Q 1056 3159 1242 3001 
Q 1428 2844 1947 2747 
L 2328 2669 
Q 3034 2534 3370 2195 
Q 3706 1856 3706 1288 
Q 3706 609 3251 259 
Q 2797 -91 1919 -91 
Q 1588 -91 1214 -16 
Q 841 59 441 206 
L 441 856 
Q 825 641 1194 531 
Q 1563 422 1919 422 
Q 2459 422 2753 634 
Q 3047 847 3047 1241 
Q 3047 1584 2836 1778 
Q 2625 1972 2144 2069 
L 1759 2144 
Q 1053 2284 737 2584 
Q 422 2884 422 3419 
Q 422 4038 858 4394 
Q 1294 4750 2059 4750 
Q 2388 4750 2728 4690 
Q 3069 4631 3425 4513 
z
" transform="scale(0.015625)"/>
      <path id="DejaVuSans-50" d="M 1259 4147 
L 1259 2394 
L 2053 2394 
Q 2494 2394 2734 2622 
Q 2975 2850 2975 3272 
Q 2975 3691 2734 3919 
Q 2494 4147 2053 4147 
L 1259 4147 
z
M 628 4666 
L 2053 4666 
Q 2838 4666 3239 4311 
Q 3641 3956 3641 3272 
Q 3641 2581 3239 2228 
Q 2838 1875 2053 1875 
L 1259 1875 
L 1259 0 
L 628 0 
L 628 4666 
z
" transform="scale(0.015625)"/>
      <path id="DejaVuSans-54" d="M -19 4666 
L 3928 4666 
L 3928 4134 
L 2272 4134 
L 2272 0 
L 1638 0 
L 1638 4134 
L -19 4134 
L -19 4666 
z
" transform="scale(0.015625)"/>
      <path id="DejaVuSans-20" transform="scale(0.015625)"/>
      <path id="DejaVuSans-77" d="M 269 3500 
L 844 3500 
L 1563 769 
L 2278 3500 
L 2956 3500 
L 3675 769 
L 4391 3500 
L 4966 3500 
L 4050 0 
L 3372 0 
L 2619 2869 
L 1863 0 
L 1184 0 
L 269 3500 
z
" transform="scale(0.015625)"/>
      <path id="DejaVuSans-69" d="M 603 3500 
L 1178 3500 
L 1178 0 
L 603 0 
L 603 3500 
z
M 603 4863 
L 1178 4863 
L 1178 4134 
L 603 4134 
L 603 4863 
z
" transform="scale(0.015625)"/>
      <path id="DejaVuSans-74" d="M 1172 4494 
L 1172 3500 
L 2356 3500 
L 2356 3053 
L 1172 3053 
L 1172 1153 
Q 1172 725 1289 603 
Q 1406 481 1766 481 
L 2356 481 
L 2356 0 
L 1766 0 
Q 1100 0 847 248 
Q 594 497 594 1153 
L 594 3053 
L 172 3053 
L 172 3500 
L 594 3500 
L 594 4494 
L 1172 4494 
z
" transform="scale(0.015625)"/>
      <path id="DejaVuSans-63" d="M 3122 3366 
L 3122 2828 
Q 2878 2963 2633 3030 
Q 2388 3097 2138 3097 
Q 1578 3097 1268 2742 
Q 959 2388 959 1747 
Q 959 1106 1268 751 
Q 1578 397 2138 397 
Q 2388 397 2633 464 
Q 2878 531 3122 666 
L 3122 134 
Q 2881 22 2623 -34 
Q 2366 -91 2075 -91 
Q 1284 -91 818 406 
Q 353 903 353 1747 
Q 353 2603 823 3093 
Q 1294 3584 2113 3584 
Q 2378 3584 2631 3529 
Q 2884 3475 3122 3366 
z
" transform="scale(0.015625)"/>
      <path id="DejaVuSans-68" d="M 3513 2113 
L 3513 0 
L 2938 0 
L 2938 2094 
Q 2938 2591 2744 2837 
Q 2550 3084 2163 3084 
Q 1697 3084 1428 2787 
Q 1159 2491 1159 1978 
L 1159 0 
L 581 0 
L 581 4863 
L 1159 4863 
L 1159 2956 
Q 1366 3272 1645 3428 
Q 1925 3584 2291 3584 
Q 2894 3584 3203 3211 
Q 3513 2838 3513 2113 
z
" transform="scale(0.015625)"/>
     </defs>
     <use xlink:href="#DejaVuSans-53"/>
     <use xlink:href="#DejaVuSans-50" x="63.476562"/>
     <use xlink:href="#DejaVuSans-53" x="123.779297"/>
     <use xlink:href="#DejaVuSans-54" x="187.255859"/>
     <use xlink:href="#DejaVuSans-20" x="248.339844"/>
     <use xlink:href="#DejaVuSans-53" x="280.126953"/>
     <use xlink:href="#DejaVuSans-77" x="343.603516"/>
     <use xlink:href="#DejaVuSans-69" x="425.390625"/>
     <use xlink:href="#DejaVuSans-74" x="453.173828"/>
     <use xlink:href="#DejaVuSans-63" x="492.382812"/>
     <use xlink:href="#DejaVuSans-68" x="547.363281"/>
    </g>
   </g>
   <g id="text_3">
    <!-- R -->
    <g transform="translate(408.824094 20.168437) scale(0.14 -0.14)">
     <defs>
      <path id="DejaVuSans-52" d="M 2841 2188 
Q 3044 2119 3236 1894 
Q 3428 1669 3622 1275 
L 4263 0 
L 3584 0 
L 2988 1197 
Q 2756 1666 2539 1819 
Q 2322 1972 1947 1972 
L 1259 1972 
L 1259 0 
L 628 0 
L 628 4666 
L 2053 4666 
Q 2853 4666 3247 4331 
Q 3641 3997 3641 3322 
Q 3641 2881 3436 2590 
Q 3231 2300 2841 2188 
z
M 1259 4147 
L 1259 2491 
L 2053 2491 
Q 2509 2491 2742 2702 
Q 2975 2913 2975 3322 
Q 2975 3731 2742 3939 
Q 2509 4147 2053 4147 
L 1259 4147 
z
" transform="scale(0.015625)"/>
     </defs>
     <use xlink:href="#DejaVuSans-52"/>
    </g>
   </g>
  </g>
 </g>
 <defs>
  <clipPath id="p08c15f1d80">
   <rect x="0" y="0" width="472.368" height="148.36"/>
  </clipPath>
 </defs>
</svg>