<?xml version="1.0" encoding="utf-8" standalone="no"?>
<!DOCTYPE svg PUBLIC "-//W3C//DTD SVG 1.1//EN"
  "http://www.w3.org/Graphics/SVG/1.1/DTD/svg11.dtd">
<svg xmlns:xlink="http://www.w3.org/1999/xlink" width="303.336pt" height="249.16pt" viewBox="0 0 303.336 249.16" xmlns="http://www.w3.org/2000/svg" version="1.1">
 <metadata>
  <rdf:RDF xmlns:dc="http://purl.org/dc/elements/1.1/" xmlns:cc="http://creativecommons.org/ns#" xmlns:rdf="http://www.w3.org/1999/02/22-rdf-syntax-ns#">
   <cc:Work>
    <dc:type rdf:resource="http://purl.org/dc/dcmitype/StillImage"/>
    <dc:date>2024-12-17T07:46:50.827624</dc:date>
    <dc:format>image/svg+xml</dc:format>
    <dc:creator>
     <cc:Agent>
      <dc:title>Matplotlib v3.9.2, https://matplotlib.org/</dc:title>
     </cc:Agent>
    </dc:creator>
   </cc:Work>
  </rdf:RDF>
 </metadata>
 <defs>
  <style type="text/css">*{stroke-linejoin: round; stroke-linecap: butt}</style>
 </defs>
 <g id="figure_1">
  <g id="patch_1">
   <path d="M 0 249.16 
L 303.336 249.16 
L 303.336 0 
L 0 0 
z
" style="fill: #ffffff"/>
  </g>
  <g id="axes_1">
   <g id="patch_2">
    <path d="M 43.668 100.48 
C 48.441656 100.48 53.020438 98.583406 56.395922 95.207922 
C 59.771406 91.832438 61.668 87.253656 61.668 82.48 
C 61.668 77.706344 59.771406 73.127562 56.395922 69.752078 
C 53.020438 66.376594 48.441656 64.48 43.668 64.48 
C 38.894344 64.48 34.315562 66.376594 30.940078 69.752078 
C 27.564594 73.127562 25.668 77.706344 25.668 82.48 
C 25.668 87.253656 27.564594 91.832438 30.940078 95.207922 
C 34.315562 98.583406 38.894344 100.48 43.668 100.48 
L 43.668 100.48 
z
" clip-path="url(#p70e59c0751)" style="fill: none; stroke: #000000; stroke-width: 2; stroke-linejoin: miter"/>
   </g>
   <g id="patch_3">
    <path d="M 160.668 76.18 
L 151.668 88.78 
L 142.668 76.18 
L 160.668 76.18 
z
" clip-path="url(#p70e59c0751)" style="fill: none; stroke: #000000; stroke-width: 2; stroke-linecap: round"/>
   </g>
   <g id="patch_4">
    <path d="M 259.668 100.48 
C 264.441656 100.48 269.020438 98.583406 272.395922 95.207922 
C 275.771406 91.832438 277.668 87.253656 277.668 82.48 
C 277.668 77.706344 275.771406 73.127562 272.395922 69.752078 
C 269.020438 66.376594 264.441656 64.48 259.668 64.48 
C 254.894344 64.48 250.315562 66.376594 246.940078 69.752078 
C 243.564594 73.127562 241.668 77.706344 241.668 82.48 
C 241.668 87.253656 243.564594 91.832438 246.940078 95.207922 
C 250.315562 98.583406 254.894344 100.48 259.668 100.48 
L 259.668 100.48 
z
" clip-path="url(#p70e59c0751)" style="fill: none; stroke: #000000; stroke-width: 2; stroke-linejoin: miter"/>
   </g>
   <g id="line2d_1">
    <path d="M 43.668 136.48 
L 43.668 100.48 
L 43.668 100.48 
M 43.668 64.48 
L 43.668 64.48 
L 43.668 28.48 
" clip-path="url(#p70e59c0751)" style="fill: none; stroke: #000000; stroke-width: 2; stroke-linecap: round"/>
   </g>
   <g id="line2d_2">
    <path d="M 47.268 91.48 
L 40.068 91.48 
" clip-path="url(#p70e59c0751)" style="fill: none; stroke: #000000; stroke-width: 2; stroke-linecap: round"/>
   </g>
   <g id="line2d_3">
    <path d="M 43.668 77.08 
L 43.668 69.88 
" clip-path="url(#p70e59c0751)" style="fill: none; stroke: #000000; stroke-width: 2; stroke-linecap: round"/>
   </g>
   <g id="line2d_4">
    <path d="M 47.268 73.48 
L 40.068 73.48 
" clip-path="url(#p70e59c0751)" style="fill: none; stroke: #000000; stroke-width: 2; stroke-linecap: round"/>
   </g>
   <g id="line2d_5">
    <path d="M 43.668 28.48 
L 79.668 28.48 
L 82.668 19.48 
L 88.668 37.48 
L 94.668 19.48 
L 100.668 37.48 
L 106.668 19.48 
L 112.668 37.48 
L 115.668 28.48 
L 151.668 28.48 
" clip-path="url(#p70e59c0751)" style="fill: none; stroke: #000000; stroke-width: 2; stroke-linecap: round"/>
   </g>
   <g id="line2d_6">
    <path d="M 151.668 28.48 
L 151.668 76.18 
M 160.668 88.78 
L 142.668 88.78 
M 151.668 88.78 
L 151.668 136.48 
" clip-path="url(#p70e59c0751)" style="fill: none; stroke: #000000; stroke-width: 2; stroke-linecap: round"/>
   </g>
   <g id="line2d_7">
    <path d="M 151.668 136.48 
L 151.668 172.48 
L 160.668 175.48 
L 142.668 181.48 
L 160.668 187.48 
L 142.668 193.48 
L 160.668 199.48 
L 142.668 205.48 
L 151.668 208.48 
L 151.668 244.48 
" clip-path="url(#p70e59c0751)" style="fill: none; stroke: #000000; stroke-width: 2; stroke-linecap: round"/>
   </g>
   <g id="line2d_8">
    <path d="M 151.668 28.48 
L 187.668 28.48 
L 190.668 19.48 
L 196.668 37.48 
L 202.668 19.48 
L 208.668 37.48 
L 214.668 19.48 
L 220.668 37.48 
L 223.668 28.48 
L 259.668 28.48 
" clip-path="url(#p70e59c0751)" style="fill: none; stroke: #000000; stroke-width: 2; stroke-linecap: round"/>
   </g>
   <g id="line2d_9">
    <path d="M 259.668 28.48 
L 259.668 64.48 
L 259.668 64.48 
M 259.668 100.48 
L 259.668 100.48 
L 259.668 136.48 
" clip-path="url(#p70e59c0751)" style="fill: none; stroke: #000000; stroke-width: 2; stroke-linecap: round"/>
   </g>
   <g id="line2d_10">
    <path d="M 256.068 73.48 
L 263.268 73.48 
" clip-path="url(#p70e59c0751)" style="fill: none; stroke: #000000; stroke-width: 2; stroke-linecap: round"/>
   </g>
   <g id="line2d_11">
    <path d="M 259.668 87.88 
L 259.668 95.08 
" clip-path="url(#p70e59c0751)" style="fill: none; stroke: #000000; stroke-width: 2; stroke-linecap: round"/>
   </g>
   <g id="line2d_12">
    <path d="M 256.068 91.48 
L 263.268 91.48 
" clip-path="url(#p70e59c0751)" style="fill: none; stroke: #000000; stroke-width: 2; stroke-linecap: round"/>
   </g>
   <g id="line2d_13">
    <path d="M 259.668 136.48 
L 259.668 190.48 
L 259.668 244.48 
" clip-path="url(#p70e59c0751)" style="fill: none; stroke: #000000; stroke-width: 2; stroke-linecap: round"/>
   </g>
   <g id="line2d_14">
    <path d="M 259.668 244.48 
L 151.668 244.48 
L 43.668 244.48 
" clip-path="url(#p70e59c0751)" style="fill: none; stroke: #000000; stroke-width: 2; stroke-linecap: round"/>
   </g>
   <g id="line2d_15">
    <path d="M 43.668 136.48 
L 43.668 190.48 
L 43.668 244.48 
" clip-path="url(#p70e59c0751)" style="fill: none; stroke: #000000; stroke-width: 2; stroke-linecap: round"/>
   </g>
   <g id="text_1">
    <!-- V1 -->
    <g transform="translate(3.583625 86.343125) scale(0.14 -0.14)">
     <defs>
      <path id="DejaVuSans-56" d="M 1831 0 
L 50 4666 
L 709 4666 
L 2188 738 
L 3669 4666 
L 4325 4666 
L 2547 0 
L 1831 0 
z
" transform="scale(0.015625)"/>
      <path id="DejaVuSans-31" d="M 794 531 
L 1825 531 
L 1825 4091 
L 703 3866 
L 703 4441 
L 1819 4666 
L 2450 4666 
L 2450 531 
L 3481 531 
L 3481 0 
L 794 0 
L 794 531 
z
" transform="scale(0.015625)"/>
     </defs>
     <use xlink:href="#DejaVuSans-56"/>
     <use xlink:href="#DejaVuSans-31" x="68.408203"/>
    </g>
   </g>
   <g id="patch_5">
    <path d="M 151.668 31.18 
C 152.384048 31.18 153.070866 30.895511 153.577188 30.389188 
C 154.083511 29.882866 154.368 29.196048 154.368 28.48 
C 154.368 27.763952 154.083511 27.077134 153.577188 26.570812 
C 153.070866 26.064489 152.384048 25.78 151.668 25.78 
C 150.951952 25.78 150.265134 26.064489 149.758812 26.570812 
C 149.252489 27.077134 148.968 27.763952 148.968 28.48 
C 148.968 29.196048 149.252489 29.882866 149.758812 30.389188 
C 150.265134 30.895511 150.951952 31.18 151.668 31.18 
z
" clip-path="url(#p70e59c0751)" style="stroke: #000000; stroke-width: 2; stroke-linejoin: miter"/>
   </g>
   <g id="text_2">
    <!-- R1 -->
    <g transform="translate(89.700344 12.968437) scale(0.14 -0.14)">
     <defs>
      <path id="DejaVuSans-52" d="M 2841 2188 
Q 3044 2119 3236 1894 
Q 3428 1669 3622 1275 
L 4263 0 
L 3584 0 
L 2988 1197 
Q 2756 1666 2539 1819 
Q 2322 1972 1947 1972 
L 1259 1972 
L 1259 0 
L 628 0 
L 628 4666 
L 2053 4666 
Q 2853 4666 3247 4331 
Q 3641 3997 3641 3322 
Q 3641 2881 3436 2590 
Q 3231 2300 2841 2188 
z
M 1259 4147 
L 1259 2491 
L 2053 2491 
Q 2509 2491 2742 2702 
Q 2975 2913 2975 3322 
Q 2975 3731 2742 3939 
Q 2509 4147 2053 4147 
L 1259 4147 
z
" transform="scale(0.015625)"/>
     </defs>
     <use xlink:href="#DejaVuSans-52"/>
     <use xlink:href="#DejaVuSans-31" x="69.482422"/>
    </g>
   </g>
   <g id="text_3">
    <!-- D -->
    <g transform="translate(146.278 21.968437) scale(0.14 -0.14)">
     <defs>
      <path id="DejaVuSans-44" d="M 1259 4147 
L 1259 519 
L 2022 519 
Q 2988 519 3436 956 
Q 3884 1394 3884 2338 
Q 3884 3275 3436 3711 
Q 2988 4147 2022 4147 
L 1259 4147 
z
M 628 4666 
L 1925 4666 
Q 3281 4666 3915 4102 
Q 4550 3538 4550 2338 
Q 4550 1131 3912 565 
Q 3275 0 1925 0 
L 628 0 
L 628 4666 
z
" transform="scale(0.015625)"/>
     </defs>
     <use xlink:href="#DejaVuSans-44"/>
    </g>
   </g>
   <g id="text_4">
    <!-- R3 -->
    <g transform="translate(120.432688 194.343125) scale(0.14 -0.14)">
     <defs>
      <path id="DejaVuSans-33" d="M 2597 2516 
Q 3050 2419 3304 2112 
Q 3559 1806 3559 1356 
Q 3559 666 3084 287 
Q 2609 -91 1734 -91 
Q 1441 -91 1130 -33 
Q 819 25 488 141 
L 488 750 
Q 750 597 1062 519 
Q 1375 441 1716 441 
Q 2309 441 2620 675 
Q 2931 909 2931 1356 
Q 2931 1769 2642 2001 
Q 2353 2234 1838 2234 
L 1294 2234 
L 1294 2753 
L 1863 2753 
Q 2328 2753 2575 2939 
Q 2822 3125 2822 3475 
Q 2822 3834 2567 4026 
Q 2313 4219 1838 4219 
Q 1578 4219 1281 4162 
Q 984 4106 628 3988 
L 628 4550 
Q 988 4650 1302 4700 
Q 1616 4750 1894 4750 
Q 2613 4750 3031 4423 
Q 3450 4097 3450 3541 
Q 3450 3153 3228 2886 
Q 3006 2619 2597 2516 
z
" transform="scale(0.015625)"/>
     </defs>
     <use xlink:href="#DejaVuSans-52"/>
     <use xlink:href="#DejaVuSans-33" x="69.482422"/>
    </g>
   </g>
   <g id="text_5">
    <!-- R2 -->
    <g transform="translate(196.350344 12.968437) scale(0.14 -0.14)">
     <defs>
      <path id="DejaVuSans-32" d="M 1228 531 
L 3431 531 
L 3431 0 
L 469 0 
L 469 531 
Q 828 903 1448 1529 
Q 2069 2156 2228 2338 
Q 2531 2678 2651 2914 
Q 2772 3150 2772 3378 
Q 2772 3750 2511 3984 
Q 2250 4219 1831 4219 
Q 1534 4219 1204 4116 
Q 875 4013 500 3803 
L 500 4441 
Q 881 4594 1212 4672 
Q 1544 4750 1819 4750 
Q 2544 4750 2975 4387 
Q 3406 4025 3406 3419 
Q 3406 3131 3298 2873 
Q 3191 2616 2906 2266 
Q 2828 2175 2409 1742 
Q 1991 1309 1228 531 
z
" transform="scale(0.015625)"/>
     </defs>
     <use xlink:href="#DejaVuSans-52"/>
     <use xlink:href="#DejaVuSans-32" x="69.482422"/>
    </g>
   </g>
   <g id="text_6">
    <!-- V2 -->
    <g transform="translate(281.268 86.343125) scale(0.14 -0.14)">
     <use xlink:href="#DejaVuSans-56"/>
     <use xlink:href="#DejaVuSans-32" x="68.408203"/>
    </g>
   </g>
  </g>
 </g>
 <defs>
  <clipPath id="p70e59c0751">
   <rect x="0" y="-0" width="303.336" height="249.16"/>
  </clipPath>
 </defs>
</svg>