<?xml version="1.0" encoding="utf-8" standalone="no"?>
<!DOCTYPE svg PUBLIC "-//W3C//DTD SVG 1.1//EN"
  "http://www.w3.org/Graphics/SVG/1.1/DTD/svg11.dtd">
<svg xmlns:xlink="http://www.w3.org/1999/xlink" width="248.018884pt" height="143.96pt" viewBox="0 0 248.018884 143.96" xmlns="http://www.w3.org/2000/svg" version="1.1">
 <metadata>
  <rdf:RDF xmlns:dc="http://purl.org/dc/elements/1.1/" xmlns:cc="http://creativecommons.org/ns#" xmlns:rdf="http://www.w3.org/1999/02/22-rdf-syntax-ns#">
   <cc:Work>
    <dc:type rdf:resource="http://purl.org/dc/dcmitype/StillImage"/>
    <dc:date>2025-05-14T19:10:02.655715</dc:date>
    <dc:format>image/svg+xml</dc:format>
    <dc:creator>
     <cc:Agent>
      <dc:title>Matplotlib v3.10.3, https://matplotlib.org/</dc:title>
     </cc:Agent>
    </dc:creator>
   </cc:Work>
  </rdf:RDF>
 </metadata>
 <defs>
  <style type="text/css">*{stroke-linejoin: round; stroke-linecap: butt}</style>
 </defs>
 <g id="figure_1">
  <g id="patch_1">
   <path d="M 0 143.96 
L 248.018884 143.96 
L 248.018884 0 
L 0 0 
z
" style="fill: #ffffff"/>
  </g>
  <g id="axes_1">
   <g id="patch_2">
    <path d="M 110.08 103.28 
C 114.853656 103.28 119.432438 101.383406 122.807922 98.007922 
C 126.183406 94.632438 128.08 90.053656 128.08 85.28 
C 128.08 80.506344 126.183406 75.927562 122.807922 72.552078 
C 119.432438 69.176594 114.853656 67.28 110.08 67.28 
C 105.306344 67.28 100.727562 69.176594 97.352078 72.552078 
C 93.976594 75.927562 92.08 80.506344 92.08 85.28 
C 92.08 90.053656 93.976594 94.632438 97.352078 98.007922 
C 100.727562 101.383406 105.306344 103.28 110.08 103.28 
L 110.08 103.28 
z
" clip-path="url(#p6d8f4c5ef8)" style="fill: none; stroke: #000000; stroke-width: 2; stroke-linejoin: miter"/>
   </g>
   <g id="line2d_1">
    <path d="M 110.08 139.28 
L 110.08 103.28 
L 110.08 103.28 
M 110.08 67.28 
L 110.08 67.28 
L 110.08 31.28 
" clip-path="url(#p6d8f4c5ef8)" style="fill: none; stroke: #000000; stroke-width: 2; stroke-linecap: round"/>
   </g>
   <g id="line2d_2">
    <path d="M 113.68 94.28 
L 106.48 94.28 
" clip-path="url(#p6d8f4c5ef8)" style="fill: none; stroke: #000000; stroke-width: 2; stroke-linecap: round"/>
   </g>
   <g id="line2d_3">
    <path d="M 110.08 79.88 
L 110.08 72.68 
" clip-path="url(#p6d8f4c5ef8)" style="fill: none; stroke: #000000; stroke-width: 2; stroke-linecap: round"/>
   </g>
   <g id="line2d_4">
    <path d="M 113.68 76.28 
L 106.48 76.28 
" clip-path="url(#p6d8f4c5ef8)" style="fill: none; stroke: #000000; stroke-width: 2; stroke-linecap: round"/>
   </g>
   <g id="line2d_5">
    <path d="M 110.08 31.28 
L 146.08 31.28 
L 149.08 22.28 
L 155.08 40.28 
L 161.08 22.28 
L 167.08 40.28 
L 173.08 22.28 
L 179.08 40.28 
L 182.08 31.28 
L 218.08 31.28 
" clip-path="url(#p6d8f4c5ef8)" style="fill: none; stroke: #000000; stroke-width: 2; stroke-linecap: round"/>
   </g>
   <g id="line2d_6">
    <path d="M 218.08 31.28 
L 218.08 67.28 
L 221.044187 67.41407 
L 224.035107 67.82176 
L 226.801917 68.494001 
L 229.112568 69.399538 
L 230.034308 69.924567 
L 230.773271 70.487547 
L 231.313881 71.079767 
L 231.644744 71.691902 
L 231.758884 72.314207 
L 231.653898 72.93672 
L 231.331996 73.549478 
L 230.799965 74.142723 
L 230.069018 74.707106 
L 229.154564 75.233888 
L 226.855691 76.143825 
L 224.09615 76.821342 
L 221.10738 77.23474 
L 218.140043 77.374472 
L 215.443006 77.253942 
L 213.242465 76.908382 
L 211.722976 76.391898 
L 211.261011 76.090537 
L 211.011977 75.772928 
L 210.981122 75.448923 
L 211.169097 75.128509 
L 211.57194 74.821597 
L 212.983915 74.286292 
L 215.098626 73.913029 
L 217.738716 73.758236 
L 220.682764 73.860019 
L 223.683858 74.234963 
L 226.4903 74.876748 
L 228.866719 75.756671 
L 229.829494 76.271402 
L 230.613808 76.826057 
L 231.203131 77.412102 
L 231.585041 78.020342 
L 231.751487 78.641113 
L 231.698962 79.264487 
L 231.428572 79.880482 
L 230.946017 80.479271 
L 230.261468 81.05139 
L 229.389355 81.587935 
L 227.159529 82.522621 
L 224.443553 83.23006 
L 221.469211 83.676046 
L 218.485956 83.848297 
L 215.74399 83.75749 
L 213.473277 83.436365 
L 211.864258 82.936977 
L 211.352569 82.640936 
L 211.05188 82.326332 
L 210.968529 82.002952 
L 211.104275 81.680768 
L 211.456254 81.369731 
L 212.017048 81.079551 
L 213.713648 80.598228 
L 216.051782 80.302289 
L 218.835355 80.241678 
L 221.830913 80.446602 
L 224.787224 80.924998 
L 227.456345 81.661866 
L 229.614422 82.620531 
L 230.443138 83.166371 
L 231.08046 83.745713 
L 231.512955 84.349502 
L 231.731505 84.968169 
L 231.731505 85.591831 
L 231.512955 86.210498 
L 231.08046 86.814287 
L 230.443138 87.393629 
L 229.614422 87.939469 
L 228.61178 88.44346 
L 226.172473 89.297065 
L 223.329798 89.907979 
L 220.322165 90.250087 
L 217.401822 90.319821 
L 214.813691 90.136457 
L 212.774837 89.740496 
L 211.456254 89.190269 
L 211.104275 88.879232 
L 210.968529 88.557048 
L 211.05188 88.233668 
L 211.352569 87.919064 
L 211.864258 87.623023 
L 213.473277 87.123635 
L 215.74399 86.80251 
L 218.485956 86.711703 
L 221.469211 86.883954 
L 224.443553 87.32994 
L 227.159529 88.037379 
L 229.389355 88.972065 
L 230.261468 89.50861 
L 230.946017 90.080729 
L 231.428572 90.679518 
L 231.698962 91.295513 
L 231.751487 91.918887 
L 231.585041 92.539658 
L 231.203131 93.147898 
L 230.613808 93.733943 
L 229.829494 94.288598 
L 228.866719 94.803329 
L 226.4903 95.683252 
L 223.683858 96.325037 
L 220.682764 96.699981 
L 217.738716 96.801764 
L 215.098626 96.646971 
L 212.983915 96.273708 
L 211.57194 95.738403 
L 211.169097 95.431491 
L 210.981122 95.111077 
L 211.011977 94.787072 
L 211.261011 94.469463 
L 211.722976 94.168102 
L 213.242465 93.651618 
L 215.443006 93.306058 
L 218.140043 93.185528 
L 221.10738 93.32526 
L 224.09615 93.738658 
L 226.855691 94.416175 
L 229.154564 95.326112 
L 230.069018 95.852894 
L 230.799965 96.417277 
L 231.331996 97.010522 
L 231.653898 97.62328 
L 231.758884 98.245793 
L 231.644744 98.868098 
L 231.313881 99.480233 
L 230.773271 100.072453 
L 230.034308 100.635433 
L 229.112568 101.160462 
L 226.801917 102.065999 
L 224.035107 102.73824 
L 221.044187 103.14593 
L 218.08 103.28 
L 218.08 139.28 
L 218.08 139.28 
" clip-path="url(#p6d8f4c5ef8)" style="fill: none; stroke: #000000; stroke-width: 2; stroke-linecap: round"/>
   </g>
   <g id="line2d_7">
    <path d="M 218.08 139.28 
L 164.08 139.28 
L 110.08 139.28 
" clip-path="url(#p6d8f4c5ef8)" style="fill: none; stroke: #000000; stroke-width: 2; stroke-linecap: round"/>
   </g>
   <g id="text_1">
    <!-- $Acos(Ω t + Θ)$ -->
    <g transform="translate(0 89.143125) scale(0.14 -0.14)">
     <defs>
      <path id="DejaVuSans-Oblique-41" d="M 2356 4666 
L 3072 4666 
L 3938 0 
L 3278 0 
L 3084 1197 
L 984 1197 
L 325 0 
L -341 0 
L 2356 4666 
z
M 2584 4044 
L 1275 1722 
L 2988 1722 
L 2584 4044 
z
" transform="scale(0.015625)"/>
      <path id="DejaVuSans-Oblique-63" d="M 3431 3366 
L 3316 2797 
Q 3109 2947 2876 3022 
Q 2644 3097 2394 3097 
Q 2119 3097 1870 3000 
Q 1622 2903 1453 2725 
Q 1184 2453 1037 2087 
Q 891 1722 891 1331 
Q 891 859 1127 628 
Q 1363 397 1844 397 
Q 2081 397 2348 469 
Q 2616 541 2906 684 
L 2797 116 
Q 2547 13 2283 -39 
Q 2019 -91 1741 -91 
Q 1044 -91 669 257 
Q 294 606 294 1253 
Q 294 1797 489 2255 
Q 684 2713 1069 3078 
Q 1331 3328 1684 3456 
Q 2038 3584 2456 3584 
Q 2700 3584 2940 3529 
Q 3181 3475 3431 3366 
z
" transform="scale(0.015625)"/>
      <path id="DejaVuSans-Oblique-6f" d="M 1625 -91 
Q 1009 -91 651 289 
Q 294 669 294 1325 
Q 294 1706 417 2101 
Q 541 2497 738 2766 
Q 1047 3184 1428 3384 
Q 1809 3584 2291 3584 
Q 2888 3584 3255 3212 
Q 3622 2841 3622 2241 
Q 3622 1825 3500 1412 
Q 3378 1000 3181 728 
Q 2875 309 2494 109 
Q 2113 -91 1625 -91 
z
M 891 1344 
Q 891 869 1089 633 
Q 1288 397 1691 397 
Q 2269 397 2648 901 
Q 3028 1406 3028 2181 
Q 3028 2634 2825 2865 
Q 2622 3097 2228 3097 
Q 1903 3097 1650 2945 
Q 1397 2794 1197 2484 
Q 1050 2253 970 1956 
Q 891 1659 891 1344 
z
" transform="scale(0.015625)"/>
      <path id="DejaVuSans-Oblique-73" d="M 3200 3397 
L 3091 2853 
Q 2863 2978 2609 3040 
Q 2356 3103 2088 3103 
Q 1634 3103 1373 2948 
Q 1113 2794 1113 2528 
Q 1113 2219 1719 2053 
Q 1766 2041 1788 2034 
L 1972 1978 
Q 2547 1819 2739 1644 
Q 2931 1469 2931 1166 
Q 2931 609 2489 259 
Q 2047 -91 1331 -91 
Q 1053 -91 747 -37 
Q 441 16 72 128 
L 184 722 
Q 500 559 806 475 
Q 1113 391 1394 391 
Q 1816 391 2080 572 
Q 2344 753 2344 1031 
Q 2344 1331 1650 1516 
L 1591 1531 
L 1394 1581 
Q 956 1697 753 1886 
Q 550 2075 550 2369 
Q 550 2928 970 3256 
Q 1391 3584 2113 3584 
Q 2397 3584 2667 3537 
Q 2938 3491 3200 3397 
z
" transform="scale(0.015625)"/>
      <path id="DejaVuSans-28" d="M 1984 4856 
Q 1566 4138 1362 3434 
Q 1159 2731 1159 2009 
Q 1159 1288 1364 580 
Q 1569 -128 1984 -844 
L 1484 -844 
Q 1016 -109 783 600 
Q 550 1309 550 2009 
Q 550 2706 781 3412 
Q 1013 4119 1484 4856 
L 1984 4856 
z
" transform="scale(0.015625)"/>
      <path id="DejaVuSans-3a9" d="M 4647 556 
L 4647 0 
L 2772 0 
L 2772 556 
Q 3325 859 3634 1378 
Q 3944 1897 3944 2528 
Q 3944 3278 3531 3731 
Q 3119 4184 2444 4184 
Q 1769 4184 1355 3729 
Q 941 3275 941 2528 
Q 941 1897 1250 1378 
Q 1563 859 2119 556 
L 2119 0 
L 244 0 
L 244 556 
L 1241 556 
Q 747 991 519 1456 
Q 294 1922 294 2497 
Q 294 3491 894 4106 
Q 1491 4722 2444 4722 
Q 3391 4722 3994 4106 
Q 4594 3494 4594 2528 
Q 4594 1922 4372 1459 
Q 4150 997 3647 556 
L 4647 556 
z
" transform="scale(0.015625)"/>
      <path id="DejaVuSans-Oblique-74" d="M 2706 3500 
L 2619 3053 
L 1472 3053 
L 1100 1153 
Q 1081 1047 1072 975 
Q 1063 903 1063 863 
Q 1063 663 1183 572 
Q 1303 481 1569 481 
L 2150 481 
L 2053 0 
L 1503 0 
Q 991 0 739 200 
Q 488 400 488 806 
Q 488 878 497 964 
Q 506 1050 525 1153 
L 897 3053 
L 409 3053 
L 500 3500 
L 978 3500 
L 1172 4494 
L 1747 4494 
L 1556 3500 
L 2706 3500 
z
" transform="scale(0.015625)"/>
      <path id="DejaVuSans-2b" d="M 2944 4013 
L 2944 2272 
L 4684 2272 
L 4684 1741 
L 2944 1741 
L 2944 0 
L 2419 0 
L 2419 1741 
L 678 1741 
L 678 2272 
L 2419 2272 
L 2419 4013 
L 2944 4013 
z
" transform="scale(0.015625)"/>
      <path id="DejaVuSans-398" d="M 1416 2750 
L 3622 2750 
L 3622 2219 
L 1416 2219 
L 1416 2750 
z
M 2522 4238 
Q 1834 4238 1431 3725 
Q 1025 3213 1025 2328 
Q 1025 1447 1429 934 
Q 1834 422 2522 422 
Q 3209 422 3613 934 
Q 4013 1447 4013 2328 
Q 4013 3213 3613 3725 
Q 3209 4238 2522 4238 
z
M 2522 4750 
Q 3503 4750 4090 4092 
Q 4678 3434 4678 2328 
Q 4678 1225 4091 569 
Q 3503 -91 2522 -91 
Q 1538 -91 950 566 
Q 359 1222 359 2328 
Q 359 3434 950 4094 
Q 1538 4750 2522 4750 
z
" transform="scale(0.015625)"/>
      <path id="DejaVuSans-29" d="M 513 4856 
L 1013 4856 
Q 1481 4119 1714 3412 
Q 1947 2706 1947 2009 
Q 1947 1309 1714 600 
Q 1481 -109 1013 -844 
L 513 -844 
Q 928 -128 1133 580 
Q 1338 1288 1338 2009 
Q 1338 2731 1133 3434 
Q 928 4138 513 4856 
z
" transform="scale(0.015625)"/>
     </defs>
     <use xlink:href="#DejaVuSans-Oblique-41" transform="translate(0 0.125)"/>
     <use xlink:href="#DejaVuSans-Oblique-63" transform="translate(68.408203 0.125)"/>
     <use xlink:href="#DejaVuSans-Oblique-6f" transform="translate(123.388672 0.125)"/>
     <use xlink:href="#DejaVuSans-Oblique-73" transform="translate(184.570312 0.125)"/>
     <use xlink:href="#DejaVuSans-28" transform="translate(236.669922 0.125)"/>
     <use xlink:href="#DejaVuSans-3a9" transform="translate(275.683594 0.125)"/>
     <use xlink:href="#DejaVuSans-Oblique-74" transform="translate(352.099609 0.125)"/>
     <use xlink:href="#DejaVuSans-2b" transform="translate(410.791016 0.125)"/>
     <use xlink:href="#DejaVuSans-398" transform="translate(514.0625 0.125)"/>
     <use xlink:href="#DejaVuSans-29" transform="translate(592.773438 0.125)"/>
    </g>
   </g>
   <g id="text_2">
    <!-- R -->
    <g transform="translate(159.216094 15.768437) scale(0.14 -0.14)">
     <defs>
      <path id="DejaVuSans-52" d="M 2841 2188 
Q 3044 2119 3236 1894 
Q 3428 1669 3622 1275 
L 4263 0 
L 3584 0 
L 2988 1197 
Q 2756 1666 2539 1819 
Q 2322 1972 1947 1972 
L 1259 1972 
L 1259 0 
L 628 0 
L 628 4666 
L 2053 4666 
Q 2853 4666 3247 4331 
Q 3641 3997 3641 3322 
Q 3641 2881 3436 2590 
Q 3231 2300 2841 2188 
z
M 1259 4147 
L 1259 2491 
L 2053 2491 
Q 2509 2491 2742 2702 
Q 2975 2913 2975 3322 
Q 2975 3731 2742 3939 
Q 2509 4147 2053 4147 
L 1259 4147 
z
" transform="scale(0.015625)"/>
     </defs>
     <use xlink:href="#DejaVuSans-52"/>
    </g>
   </g>
   <g id="text_3">
    <!-- L -->
    <g transform="translate(235.358884 89.143125) scale(0.14 -0.14)">
     <defs>
      <path id="DejaVuSans-4c" d="M 628 4666 
L 1259 4666 
L 1259 531 
L 3531 531 
L 3531 0 
L 628 0 
L 628 4666 
z
" transform="scale(0.015625)"/>
     </defs>
     <use xlink:href="#DejaVuSans-4c"/>
    </g>
   </g>
  </g>
 </g>
 <defs>
  <clipPath id="p6d8f4c5ef8">
   <rect x="2.488" y="0" width="245.530884" height="143.96"/>
  </clipPath>
 </defs>
</svg>