<?xml version="1.0" encoding="utf-8" standalone="no"?>
<!DOCTYPE svg PUBLIC "-//W3C//DTD SVG 1.1//EN"
  "http://www.w3.org/Graphics/SVG/1.1/DTD/svg11.dtd">
<svg xmlns:xlink="http://www.w3.org/1999/xlink" width="368.868pt" height="141.16pt" viewBox="0 0 368.868 141.16" xmlns="http://www.w3.org/2000/svg" version="1.1">
 <metadata>
  <rdf:RDF xmlns:dc="http://purl.org/dc/elements/1.1/" xmlns:cc="http://creativecommons.org/ns#" xmlns:rdf="http://www.w3.org/1999/02/22-rdf-syntax-ns#">
   <cc:Work>
    <dc:type rdf:resource="http://purl.org/dc/dcmitype/StillImage"/>
    <dc:date>2025-01-07T11:57:41.131666</dc:date>
    <dc:format>image/svg+xml</dc:format>
    <dc:creator>
     <cc:Agent>
      <dc:title>Matplotlib v3.9.2, https://matplotlib.org/</dc:title>
     </cc:Agent>
    </dc:creator>
   </cc:Work>
  </rdf:RDF>
 </metadata>
 <defs>
  <style type="text/css">*{stroke-linejoin: round; stroke-linecap: butt}</style>
 </defs>
 <g id="figure_1">
  <g id="patch_1">
   <path d="M 0 141.16 
L 368.868 141.16 
L 368.868 0 
L 0 0 
z
" style="fill: #ffffff"/>
  </g>
  <g id="axes_1">
   <g id="patch_2">
    <path d="M 76.188 28.48 
C 76.188 27.286984 75.713571 26.14161 74.869981 25.298019 
C 74.02639 24.454429 72.881016 23.98 71.688 23.98 
C 70.494984 23.98 69.34961 24.454429 68.506019 25.298019 
C 67.662429 26.14161 67.188 27.286984 67.188 28.48 
" clip-path="url(#p337679d1fd)" style="fill: none; stroke: #000000; stroke-width: 2; stroke-linejoin: miter"/>
   </g>
   <g id="patch_3">
    <path d="M 85.188 28.48 
C 85.188 27.286984 84.713571 26.14161 83.869981 25.298019 
C 83.02639 24.454429 81.881016 23.98 80.688 23.98 
C 79.494984 23.98 78.34961 24.454429 77.506019 25.298019 
C 76.662429 26.14161 76.188 27.286984 76.188 28.48 
" clip-path="url(#p337679d1fd)" style="fill: none; stroke: #000000; stroke-width: 2; stroke-linejoin: miter"/>
   </g>
   <g id="patch_4">
    <path d="M 94.188 28.48 
C 94.188 27.286984 93.713571 26.14161 92.869981 25.298019 
C 92.02639 24.454429 90.881016 23.98 89.688 23.98 
C 88.494984 23.98 87.34961 24.454429 86.506019 25.298019 
C 85.662429 26.14161 85.188 27.286984 85.188 28.48 
" clip-path="url(#p337679d1fd)" style="fill: none; stroke: #000000; stroke-width: 2; stroke-linejoin: miter"/>
   </g>
   <g id="patch_5">
    <path d="M 103.188 28.48 
C 103.188 27.286984 102.713571 26.14161 101.869981 25.298019 
C 101.02639 24.454429 99.881016 23.98 98.688 23.98 
C 97.494984 23.98 96.34961 24.454429 95.506019 25.298019 
C 94.662429 26.14161 94.188 27.286984 94.188 28.48 
" clip-path="url(#p337679d1fd)" style="fill: none; stroke: #000000; stroke-width: 2; stroke-linejoin: miter"/>
   </g>
   <g id="patch_6">
    <path d="M 141.211909 87.818455 
C 143.886165 88.02803 146.594291 87.699489 148.986364 86.875284 
C 151.378437 86.05108 153.346792 84.768308 154.637095 83.192718 
" clip-path="url(#p337679d1fd)" style="fill: none; stroke: #000000; stroke-width: 2; stroke-linejoin: miter"/>
   </g>
   <g id="patch_7">
    <path d="M 158.027949 74.490923 
L 157.275968 83.85706 
L 154.776994 82.883277 
L 154.653866 83.199253 
L 154.620323 83.186182 
L 154.74345 82.870206 
L 152.244476 81.896424 
z
" clip-path="url(#p337679d1fd)" style="stroke: #000000; stroke-linejoin: miter"/>
   </g>
   <g id="patch_8">
    <path d="M 186.888 19.48 
L 199.488 28.48 
L 186.888 37.48 
L 186.888 19.48 
z
" clip-path="url(#p337679d1fd)" style="fill: none; stroke: #000000; stroke-width: 2; stroke-linecap: round"/>
   </g>
   <g id="line2d_1">
    <path d="M 31.188 136.48 
L 31.188 85.855 
M 31.188 79.105 
L 31.188 28.48 
" clip-path="url(#p337679d1fd)" style="fill: none; stroke: #000000; stroke-width: 2; stroke-linecap: round"/>
   </g>
   <g id="line2d_2">
    <path d="M 44.688 79.105 
L 17.688 79.105 
" clip-path="url(#p337679d1fd)" style="fill: none; stroke: #000000; stroke-width: 2; stroke-linecap: round"/>
   </g>
   <g id="line2d_3">
    <path d="M 37.938 85.855 
L 24.438 85.855 
" clip-path="url(#p337679d1fd)" style="fill: none; stroke: #000000; stroke-width: 2; stroke-linecap: round"/>
   </g>
   <g id="line2d_4">
    <path d="M 31.188 28.48 
L 67.188 28.48 
M 103.188 28.48 
L 139.188 28.48 
" clip-path="url(#p337679d1fd)" style="fill: none; stroke: #000000; stroke-width: 2; stroke-linecap: round"/>
   </g>
   <g id="line2d_5">
    <path d="M 139.188 28.48 
L 139.188 64.48 
M 142.788 73.12 
L 155.388 93.28 
M 139.188 100.48 
L 139.188 136.48 
" clip-path="url(#p337679d1fd)" style="fill: none; stroke: #000000; stroke-width: 2; stroke-linecap: round"/>
   </g>
   <g id="line2d_6">
    <path d="M 139.188 28.48 
L 186.888 28.48 
M 199.488 19.48 
L 199.488 37.48 
M 199.488 28.48 
L 247.188 28.48 
" clip-path="url(#p337679d1fd)" style="fill: none; stroke: #000000; stroke-width: 2; stroke-linecap: round"/>
   </g>
   <g id="line2d_7">
    <path d="M 247.188 28.48 
L 247.188 79.24 
M 256.188 79.24 
L 238.188 79.24 
M 256.188 85.72 
L 238.188 85.72 
M 247.188 85.72 
L 247.188 136.48 
" clip-path="url(#p337679d1fd)" style="fill: none; stroke: #000000; stroke-width: 2; stroke-linecap: round"/>
   </g>
   <g id="line2d_8">
    <path d="M 247.188 28.48 
L 301.188 28.48 
L 355.188 28.48 
" clip-path="url(#p337679d1fd)" style="fill: none; stroke: #000000; stroke-width: 2; stroke-linecap: round"/>
   </g>
   <g id="line2d_9">
    <path d="M 355.188 28.48 
L 355.188 64.48 
L 364.188 67.48 
L 346.188 73.48 
L 364.188 79.48 
L 346.188 85.48 
L 364.188 91.48 
L 346.188 97.48 
L 355.188 100.48 
L 355.188 136.48 
" clip-path="url(#p337679d1fd)" style="fill: none; stroke: #000000; stroke-width: 2; stroke-linecap: round"/>
   </g>
   <g id="line2d_10">
    <path d="M 355.188 136.48 
L 193.188 136.48 
L 31.188 136.48 
" clip-path="url(#p337679d1fd)" style="fill: none; stroke: #000000; stroke-width: 2; stroke-linecap: round"/>
   </g>
   <g id="text_1">
    <!-- E -->
    <g transform="translate(5.24175 86.343125) scale(0.14 -0.14)">
     <defs>
      <path id="DejaVuSans-45" d="M 628 4666 
L 3578 4666 
L 3578 4134 
L 1259 4134 
L 1259 2753 
L 3481 2753 
L 3481 2222 
L 1259 2222 
L 1259 531 
L 3634 531 
L 3634 0 
L 628 0 
L 628 4666 
z
" transform="scale(0.015625)"/>
     </defs>
     <use xlink:href="#DejaVuSans-45"/>
    </g>
   </g>
   <g id="text_2">
    <!-- L -->
    <g transform="translate(81.287688 17.46846) scale(0.14 -0.14)">
     <defs>
      <path id="DejaVuSans-4c" d="M 628 4666 
L 1259 4666 
L 1259 531 
L 3531 531 
L 3531 0 
L 628 0 
L 628 4666 
z
" transform="scale(0.015625)"/>
     </defs>
     <use xlink:href="#DejaVuSans-4c"/>
    </g>
   </g>
   <g id="patch_9">
    <path d="M 139.188 73.12 
C 140.333677 73.12 141.432585 72.664818 142.242701 71.854701 
C 143.052818 71.044585 143.508 69.945677 143.508 68.8 
C 143.508 67.654323 143.052818 66.555415 142.242701 65.745299 
C 141.432585 64.935182 140.333677 64.48 139.188 64.48 
C 138.042323 64.48 136.943415 64.935182 136.133299 65.745299 
C 135.323182 66.555415 134.868 67.654323 134.868 68.8 
C 134.868 69.945677 135.323182 71.044585 136.133299 71.854701 
C 136.943415 72.664818 138.042323 73.12 139.188 73.12 
z
" clip-path="url(#p337679d1fd)" style="fill: #ffffff; stroke: #000000; stroke-width: 2; stroke-linejoin: miter"/>
   </g>
   <g id="patch_10">
    <path d="M 139.188 100.48 
C 140.333677 100.48 141.432585 100.024818 142.242701 99.214701 
C 143.052818 98.404585 143.508 97.305677 143.508 96.16 
C 143.508 95.014323 143.052818 93.915415 142.242701 93.105299 
C 141.432585 92.295182 140.333677 91.84 139.188 91.84 
C 138.042323 91.84 136.943415 92.295182 136.133299 93.105299 
C 135.323182 93.915415 134.868 95.014323 134.868 96.16 
C 134.868 97.305677 135.323182 98.404585 136.133299 99.214701 
C 136.943415 100.024818 138.042323 100.48 139.188 100.48 
z
" clip-path="url(#p337679d1fd)" style="fill: #ffffff; stroke: #000000; stroke-width: 2; stroke-linejoin: miter"/>
   </g>
   <g id="text_3">
    <!-- S -->
    <g transform="translate(122.380188 86.343125) scale(0.14 -0.14)">
     <defs>
      <path id="DejaVuSans-53" d="M 3425 4513 
L 3425 3897 
Q 3066 4069 2747 4153 
Q 2428 4238 2131 4238 
Q 1616 4238 1336 4038 
Q 1056 3838 1056 3469 
Q 1056 3159 1242 3001 
Q 1428 2844 1947 2747 
L 2328 2669 
Q 3034 2534 3370 2195 
Q 3706 1856 3706 1288 
Q 3706 609 3251 259 
Q 2797 -91 1919 -91 
Q 1588 -91 1214 -16 
Q 841 59 441 206 
L 441 856 
Q 825 641 1194 531 
Q 1563 422 1919 422 
Q 2459 422 2753 634 
Q 3047 847 3047 1241 
Q 3047 1584 2836 1778 
Q 2625 1972 2144 2069 
L 1759 2144 
Q 1053 2284 737 2584 
Q 422 2884 422 3419 
Q 422 4038 858 4394 
Q 1294 4750 2059 4750 
Q 2388 4750 2728 4690 
Q 3069 4631 3425 4513 
z
" transform="scale(0.015625)"/>
     </defs>
     <use xlink:href="#DejaVuSans-53"/>
    </g>
   </g>
   <g id="text_4">
    <!-- D -->
    <g transform="translate(187.798 12.968437) scale(0.14 -0.14)">
     <defs>
      <path id="DejaVuSans-44" d="M 1259 4147 
L 1259 519 
L 2022 519 
Q 2988 519 3436 956 
Q 3884 1394 3884 2338 
Q 3884 3275 3436 3711 
Q 2988 4147 2022 4147 
L 1259 4147 
z
M 628 4666 
L 1925 4666 
Q 3281 4666 3915 4102 
Q 4550 3538 4550 2338 
Q 4550 1131 3912 565 
Q 3275 0 1925 0 
L 628 0 
L 628 4666 
z
" transform="scale(0.015625)"/>
     </defs>
     <use xlink:href="#DejaVuSans-44"/>
    </g>
   </g>
   <g id="text_5">
    <!-- C -->
    <g transform="translate(224.812062 86.343125) scale(0.14 -0.14)">
     <defs>
      <path id="DejaVuSans-43" d="M 4122 4306 
L 4122 3641 
Q 3803 3938 3442 4084 
Q 3081 4231 2675 4231 
Q 1875 4231 1450 3742 
Q 1025 3253 1025 2328 
Q 1025 1406 1450 917 
Q 1875 428 2675 428 
Q 3081 428 3442 575 
Q 3803 722 4122 1019 
L 4122 359 
Q 3791 134 3420 21 
Q 3050 -91 2638 -91 
Q 1578 -91 968 557 
Q 359 1206 359 2328 
Q 359 3453 968 4101 
Q 1578 4750 2638 4750 
Q 3056 4750 3426 4639 
Q 3797 4528 4122 4306 
z
" transform="scale(0.015625)"/>
     </defs>
     <use xlink:href="#DejaVuSans-43"/>
    </g>
   </g>
   <g id="text_6">
    <!-- RL -->
    <g transform="translate(325.059563 86.343125) scale(0.14 -0.14)">
     <defs>
      <path id="DejaVuSans-52" d="M 2841 2188 
Q 3044 2119 3236 1894 
Q 3428 1669 3622 1275 
L 4263 0 
L 3584 0 
L 2988 1197 
Q 2756 1666 2539 1819 
Q 2322 1972 1947 1972 
L 1259 1972 
L 1259 0 
L 628 0 
L 628 4666 
L 2053 4666 
Q 2853 4666 3247 4331 
Q 3641 3997 3641 3322 
Q 3641 2881 3436 2590 
Q 3231 2300 2841 2188 
z
M 1259 4147 
L 1259 2491 
L 2053 2491 
Q 2509 2491 2742 2702 
Q 2975 2913 2975 3322 
Q 2975 3731 2742 3939 
Q 2509 4147 2053 4147 
L 1259 4147 
z
" transform="scale(0.015625)"/>
     </defs>
     <use xlink:href="#DejaVuSans-52"/>
     <use xlink:href="#DejaVuSans-4c" x="69.482422"/>
    </g>
   </g>
  </g>
 </g>
 <defs>
  <clipPath id="p337679d1fd">
   <rect x="0" y="0" width="368.868" height="141.16"/>
  </clipPath>
 </defs>
</svg>