<?xml version="1.0" encoding="utf-8" standalone="no"?>
<!DOCTYPE svg PUBLIC "-//W3C//DTD SVG 1.1//EN"
  "http://www.w3.org/Graphics/SVG/1.1/DTD/svg11.dtd">
<svg xmlns:xlink="http://www.w3.org/1999/xlink" width="544.94pt" height="153.36pt" viewBox="0 0 544.94 153.36" xmlns="http://www.w3.org/2000/svg" version="1.1">
 <metadata>
  <rdf:RDF xmlns:dc="http://purl.org/dc/elements/1.1/" xmlns:cc="http://creativecommons.org/ns#" xmlns:rdf="http://www.w3.org/1999/02/22-rdf-syntax-ns#">
   <cc:Work>
    <dc:type rdf:resource="http://purl.org/dc/dcmitype/StillImage"/>
    <dc:date>2024-11-24T19:31:04.171955</dc:date>
    <dc:format>image/svg+xml</dc:format>
    <dc:creator>
     <cc:Agent>
      <dc:title>Matplotlib v3.9.2, https://matplotlib.org/</dc:title>
     </cc:Agent>
    </dc:creator>
   </cc:Work>
  </rdf:RDF>
 </metadata>
 <defs>
  <style type="text/css">*{stroke-linejoin: round; stroke-linecap: butt}</style>
 </defs>
 <g id="figure_1">
  <g id="patch_1">
   <path d="M 0 153.36 
L 544.94 153.36 
L 544.94 0 
L 0 0 
z
" style="fill: #ffffff"/>
  </g>
  <g id="axes_1">
   <g id="patch_2">
    <path d="M 75.92 94.68 
C 80.693656 94.68 85.272438 92.783406 88.647922 89.407922 
C 92.023406 86.032438 93.92 81.453656 93.92 76.68 
C 93.92 71.906344 92.023406 67.327562 88.647922 63.952078 
C 85.272438 60.576594 80.693656 58.68 75.92 58.68 
C 71.146344 58.68 66.567562 60.576594 63.192078 63.952078 
C 59.816594 67.327562 57.92 71.906344 57.92 76.68 
C 57.92 81.453656 59.816594 86.032438 63.192078 89.407922 
C 66.567562 92.783406 71.146344 94.68 75.92 94.68 
L 75.92 94.68 
z
" clip-path="url(#p5c44105626)" style="fill: none; stroke: #000000; stroke-width: 2; stroke-linejoin: miter"/>
   </g>
   <g id="patch_3">
    <path d="M 75.92 94.68 
C 80.693656 94.68 85.272438 92.783406 88.647922 89.407922 
C 92.023406 86.032438 93.92 81.453656 93.92 76.68 
C 93.92 71.906344 92.023406 67.327562 88.647922 63.952078 
C 85.272438 60.576594 80.693656 58.68 75.92 58.68 
C 71.146344 58.68 66.567562 60.576594 63.192078 63.952078 
C 59.816594 67.327562 57.92 71.906344 57.92 76.68 
C 57.92 81.453656 59.816594 86.032438 63.192078 89.407922 
C 66.567562 92.783406 71.146344 94.68 75.92 94.68 
L 75.92 94.68 
z
" clip-path="url(#p5c44105626)" style="fill: none; stroke: #000000; stroke-width: 2; stroke-linejoin: miter"/>
   </g>
   <g id="patch_4">
    <path d="M 363.92 58.68 
C 368.693656 58.68 373.272438 56.783406 376.647922 53.407922 
C 380.023406 50.032438 381.92 45.453656 381.92 40.68 
C 381.92 35.906344 380.023406 31.327562 376.647922 27.952078 
C 373.272438 24.576594 368.693656 22.68 363.92 22.68 
C 359.146344 22.68 354.567562 24.576594 351.192078 27.952078 
C 347.816594 31.327562 345.92 35.906344 345.92 40.68 
C 345.92 45.453656 347.816594 50.032438 351.192078 53.407922 
C 354.567562 56.783406 359.146344 58.68 363.92 58.68 
L 363.92 58.68 
z
" clip-path="url(#p5c44105626)" style="fill: none; stroke: #000000; stroke-width: 2; stroke-linejoin: miter"/>
   </g>
   <g id="patch_5">
    <path d="M 363.92 58.68 
C 368.693656 58.68 373.272438 56.783406 376.647922 53.407922 
C 380.023406 50.032438 381.92 45.453656 381.92 40.68 
C 381.92 35.906344 380.023406 31.327562 376.647922 27.952078 
C 373.272438 24.576594 368.693656 22.68 363.92 22.68 
C 359.146344 22.68 354.567562 24.576594 351.192078 27.952078 
C 347.816594 31.327562 345.92 35.906344 345.92 40.68 
C 345.92 45.453656 347.816594 50.032438 351.192078 53.407922 
C 354.567562 56.783406 359.146344 58.68 363.92 58.68 
L 363.92 58.68 
z
" clip-path="url(#p5c44105626)" style="fill: none; stroke: #000000; stroke-width: 2; stroke-linejoin: miter"/>
   </g>
   <g id="patch_6">
    <path d="M 363.92 103.68 
C 365.113016 103.68 366.25839 103.205571 367.101981 102.361981 
C 367.945571 101.51839 368.42 100.373016 368.42 99.18 
C 368.42 97.986984 367.945571 96.84161 367.101981 95.998019 
C 366.25839 95.154429 365.113016 94.68 363.92 94.68 
" clip-path="url(#p5c44105626)" style="fill: none; stroke: #000000; stroke-width: 2; stroke-linejoin: miter"/>
   </g>
   <g id="patch_7">
    <path d="M 363.92 112.68 
C 365.113016 112.68 366.25839 112.205571 367.101981 111.361981 
C 367.945571 110.51839 368.42 109.373016 368.42 108.18 
C 368.42 106.986984 367.945571 105.84161 367.101981 104.998019 
C 366.25839 104.154429 365.113016 103.68 363.92 103.68 
" clip-path="url(#p5c44105626)" style="fill: none; stroke: #000000; stroke-width: 2; stroke-linejoin: miter"/>
   </g>
   <g id="patch_8">
    <path d="M 363.92 121.68 
C 365.113016 121.68 366.25839 121.205571 367.101981 120.361981 
C 367.945571 119.51839 368.42 118.373016 368.42 117.18 
C 368.42 115.986984 367.945571 114.84161 367.101981 113.998019 
C 366.25839 113.154429 365.113016 112.68 363.92 112.68 
" clip-path="url(#p5c44105626)" style="fill: none; stroke: #000000; stroke-width: 2; stroke-linejoin: miter"/>
   </g>
   <g id="patch_9">
    <path d="M 363.92 130.68 
C 365.113016 130.68 366.25839 130.205571 367.101981 129.361981 
C 367.945571 128.51839 368.42 127.373016 368.42 126.18 
C 368.42 124.986984 367.945571 123.84161 367.101981 122.998019 
C 366.25839 122.154429 365.113016 121.68 363.92 121.68 
" clip-path="url(#p5c44105626)" style="fill: none; stroke: #000000; stroke-width: 2; stroke-linejoin: miter"/>
   </g>
   <g id="line2d_1">
    <path d="M 75.92 148.68 
L 75.92 94.68 
L 75.92 94.68 
M 75.92 58.68 
L 75.92 58.68 
L 75.92 4.68 
" clip-path="url(#p5c44105626)" style="fill: none; stroke: #000000; stroke-width: 2; stroke-linecap: round"/>
   </g>
   <g id="line2d_2">
    <path d="M 84.92 76.68 
L 84.17 74.816503 
L 83.42 73.08 
L 82.67 71.588831 
L 81.92 70.444617 
L 81.17 69.725334 
L 80.42 69.48 
L 79.67 69.725334 
L 78.92 70.444617 
L 78.17 71.588831 
L 77.42 73.08 
L 76.67 74.816503 
L 75.92 76.68 
L 75.17 78.543497 
L 74.42 80.28 
L 73.67 81.771169 
L 72.92 82.915383 
L 72.17 83.634666 
L 71.42 83.88 
L 70.67 83.634666 
L 69.92 82.915383 
L 69.17 81.771169 
L 68.42 80.28 
L 67.67 78.543497 
L 66.92 76.68 
" clip-path="url(#p5c44105626)" style="fill: none; stroke: #000000; stroke-width: 2; stroke-linecap: round"/>
   </g>
   <g id="line2d_3">
    <path d="M 75.92 148.68 
L 75.92 94.68 
L 75.92 94.68 
M 75.92 58.68 
L 75.92 58.68 
L 75.92 4.68 
" clip-path="url(#p5c44105626)" style="fill: none; stroke: #000000; stroke-width: 2; stroke-linecap: round"/>
   </g>
   <g id="line2d_4">
    <path d="M 75.92 85.68 
L 75.92 76.68 
" clip-path="url(#p5c44105626)" style="fill: none; stroke: #000000; stroke-width: 2; stroke-linecap: round"/>
   </g>
   <g id="patch_10">
    <path d="M 73.22 76.68 
L 75.92 67.68 
L 78.62 76.68 
z
" clip-path="url(#p5c44105626)"/>
   </g>
   <g id="line2d_5">
    <path d="M 75.92 4.68 
L 147.92 4.68 
L 219.92 4.68 
" clip-path="url(#p5c44105626)" style="fill: none; stroke: #000000; stroke-width: 2; stroke-linecap: round"/>
   </g>
   <g id="line2d_6">
    <path d="M 219.92 4.68 
L 291.92 4.68 
L 363.92 4.68 
" clip-path="url(#p5c44105626)" style="fill: none; stroke: #000000; stroke-width: 2; stroke-linecap: round"/>
   </g>
   <g id="line2d_7">
    <path d="M 363.92 4.68 
L 435.92 4.68 
L 507.92 4.68 
" clip-path="url(#p5c44105626)" style="fill: none; stroke: #000000; stroke-width: 2; stroke-linecap: round"/>
   </g>
   <g id="line2d_8">
    <path d="M 507.92 4.68 
L 507.92 58.68 
L 516.92 61.68 
L 498.92 67.68 
L 516.92 73.68 
L 498.92 79.68 
L 516.92 85.68 
L 498.92 91.68 
L 507.92 94.68 
L 507.92 148.68 
" clip-path="url(#p5c44105626)" style="fill: none; stroke: #000000; stroke-width: 2; stroke-linecap: round"/>
   </g>
   <g id="line2d_9">
    <path d="M 507.92 148.68 
L 291.92 148.68 
L 75.92 148.68 
" clip-path="url(#p5c44105626)" style="fill: none; stroke: #000000; stroke-width: 2; stroke-linecap: round"/>
   </g>
   <g id="line2d_10">
    <path d="M 219.92 4.68 
L 219.92 73.44 
M 228.92 73.44 
L 210.92 73.44 
M 228.92 79.92 
L 210.92 79.92 
M 219.92 79.92 
L 219.92 148.68 
" clip-path="url(#p5c44105626)" style="fill: none; stroke: #000000; stroke-width: 2; stroke-linecap: round"/>
   </g>
   <g id="line2d_11">
    <path d="M 363.92 4.68 
L 363.92 22.68 
L 363.92 22.68 
M 363.92 58.68 
L 363.92 58.68 
L 363.92 76.68 
" clip-path="url(#p5c44105626)" style="fill: none; stroke: #000000; stroke-width: 2; stroke-linecap: round"/>
   </g>
   <g id="line2d_12">
    <path d="M 367.52 49.68 
L 360.32 49.68 
" clip-path="url(#p5c44105626)" style="fill: none; stroke: #000000; stroke-width: 2; stroke-linecap: round"/>
   </g>
   <g id="line2d_13">
    <path d="M 363.92 28.08 
L 363.92 35.28 
" clip-path="url(#p5c44105626)" style="fill: none; stroke: #000000; stroke-width: 2; stroke-linecap: round"/>
   </g>
   <g id="line2d_14">
    <path d="M 367.52 31.68 
L 360.32 31.68 
" clip-path="url(#p5c44105626)" style="fill: none; stroke: #000000; stroke-width: 2; stroke-linecap: round"/>
   </g>
   <g id="line2d_15">
    <path d="M 363.92 4.68 
L 363.92 22.68 
L 363.92 22.68 
M 363.92 58.68 
L 363.92 58.68 
L 363.92 76.68 
" clip-path="url(#p5c44105626)" style="fill: none; stroke: #000000; stroke-width: 2; stroke-linecap: round"/>
   </g>
   <g id="line2d_16">
    <path d="M 354.92 40.68 
L 355.67 42.543497 
L 356.42 44.28 
L 357.17 45.771169 
L 357.92 46.915383 
L 358.67 47.634666 
L 359.42 47.88 
L 360.17 47.634666 
L 360.92 46.915383 
L 361.67 45.771169 
L 362.42 44.28 
L 363.17 42.543497 
L 363.92 40.68 
L 364.67 38.816503 
L 365.42 37.08 
L 366.17 35.588831 
L 366.92 34.444617 
L 367.67 33.725334 
L 368.42 33.48 
L 369.17 33.725334 
L 369.92 34.444617 
L 370.67 35.588831 
L 371.42 37.08 
L 372.17 38.816503 
L 372.92 40.68 
" clip-path="url(#p5c44105626)" style="fill: none; stroke: #000000; stroke-width: 2; stroke-linecap: round"/>
   </g>
   <g id="line2d_17">
    <path d="M 363.92 76.68 
L 363.92 94.68 
M 363.92 130.68 
L 363.92 148.68 
" clip-path="url(#p5c44105626)" style="fill: none; stroke: #000000; stroke-width: 2; stroke-linecap: round"/>
   </g>
   <g id="text_1">
    <!-- $5sin(2t)$ -->
    <g transform="translate(0 80.543125) scale(0.14 -0.14)">
     <defs>
      <path id="DejaVuSans-35" d="M 691 4666 
L 3169 4666 
L 3169 4134 
L 1269 4134 
L 1269 2991 
Q 1406 3038 1543 3061 
Q 1681 3084 1819 3084 
Q 2600 3084 3056 2656 
Q 3513 2228 3513 1497 
Q 3513 744 3044 326 
Q 2575 -91 1722 -91 
Q 1428 -91 1123 -41 
Q 819 9 494 109 
L 494 744 
Q 775 591 1075 516 
Q 1375 441 1709 441 
Q 2250 441 2565 725 
Q 2881 1009 2881 1497 
Q 2881 1984 2565 2268 
Q 2250 2553 1709 2553 
Q 1456 2553 1204 2497 
Q 953 2441 691 2322 
L 691 4666 
z
" transform="scale(0.015625)"/>
      <path id="DejaVuSans-Oblique-73" d="M 3200 3397 
L 3091 2853 
Q 2863 2978 2609 3040 
Q 2356 3103 2088 3103 
Q 1634 3103 1373 2948 
Q 1113 2794 1113 2528 
Q 1113 2219 1719 2053 
Q 1766 2041 1788 2034 
L 1972 1978 
Q 2547 1819 2739 1644 
Q 2931 1469 2931 1166 
Q 2931 609 2489 259 
Q 2047 -91 1331 -91 
Q 1053 -91 747 -37 
Q 441 16 72 128 
L 184 722 
Q 500 559 806 475 
Q 1113 391 1394 391 
Q 1816 391 2080 572 
Q 2344 753 2344 1031 
Q 2344 1331 1650 1516 
L 1591 1531 
L 1394 1581 
Q 956 1697 753 1886 
Q 550 2075 550 2369 
Q 550 2928 970 3256 
Q 1391 3584 2113 3584 
Q 2397 3584 2667 3537 
Q 2938 3491 3200 3397 
z
" transform="scale(0.015625)"/>
      <path id="DejaVuSans-Oblique-69" d="M 1172 4863 
L 1747 4863 
L 1606 4134 
L 1031 4134 
L 1172 4863 
z
M 909 3500 
L 1484 3500 
L 800 0 
L 225 0 
L 909 3500 
z
" transform="scale(0.015625)"/>
      <path id="DejaVuSans-Oblique-6e" d="M 3566 2113 
L 3156 0 
L 2578 0 
L 2988 2091 
Q 3016 2238 3031 2350 
Q 3047 2463 3047 2528 
Q 3047 2791 2881 2937 
Q 2716 3084 2419 3084 
Q 1956 3084 1622 2776 
Q 1288 2469 1184 1941 
L 800 0 
L 225 0 
L 903 3500 
L 1478 3500 
L 1363 2950 
Q 1603 3253 1940 3418 
Q 2278 3584 2650 3584 
Q 3113 3584 3367 3334 
Q 3622 3084 3622 2631 
Q 3622 2519 3608 2391 
Q 3594 2263 3566 2113 
z
" transform="scale(0.015625)"/>
      <path id="DejaVuSans-28" d="M 1984 4856 
Q 1566 4138 1362 3434 
Q 1159 2731 1159 2009 
Q 1159 1288 1364 580 
Q 1569 -128 1984 -844 
L 1484 -844 
Q 1016 -109 783 600 
Q 550 1309 550 2009 
Q 550 2706 781 3412 
Q 1013 4119 1484 4856 
L 1984 4856 
z
" transform="scale(0.015625)"/>
      <path id="DejaVuSans-32" d="M 1228 531 
L 3431 531 
L 3431 0 
L 469 0 
L 469 531 
Q 828 903 1448 1529 
Q 2069 2156 2228 2338 
Q 2531 2678 2651 2914 
Q 2772 3150 2772 3378 
Q 2772 3750 2511 3984 
Q 2250 4219 1831 4219 
Q 1534 4219 1204 4116 
Q 875 4013 500 3803 
L 500 4441 
Q 881 4594 1212 4672 
Q 1544 4750 1819 4750 
Q 2544 4750 2975 4387 
Q 3406 4025 3406 3419 
Q 3406 3131 3298 2873 
Q 3191 2616 2906 2266 
Q 2828 2175 2409 1742 
Q 1991 1309 1228 531 
z
" transform="scale(0.015625)"/>
      <path id="DejaVuSans-Oblique-74" d="M 2706 3500 
L 2619 3053 
L 1472 3053 
L 1100 1153 
Q 1081 1047 1072 975 
Q 1063 903 1063 863 
Q 1063 663 1183 572 
Q 1303 481 1569 481 
L 2150 481 
L 2053 0 
L 1503 0 
Q 991 0 739 200 
Q 488 400 488 806 
Q 488 878 497 964 
Q 506 1050 525 1153 
L 897 3053 
L 409 3053 
L 500 3500 
L 978 3500 
L 1172 4494 
L 1747 4494 
L 1556 3500 
L 2706 3500 
z
" transform="scale(0.015625)"/>
      <path id="DejaVuSans-29" d="M 513 4856 
L 1013 4856 
Q 1481 4119 1714 3412 
Q 1947 2706 1947 2009 
Q 1947 1309 1714 600 
Q 1481 -109 1013 -844 
L 513 -844 
Q 928 -128 1133 580 
Q 1338 1288 1338 2009 
Q 1338 2731 1133 3434 
Q 928 4138 513 4856 
z
" transform="scale(0.015625)"/>
     </defs>
     <use xlink:href="#DejaVuSans-35" transform="translate(0 0.015625)"/>
     <use xlink:href="#DejaVuSans-Oblique-73" transform="translate(63.623047 0.015625)"/>
     <use xlink:href="#DejaVuSans-Oblique-69" transform="translate(115.722656 0.015625)"/>
     <use xlink:href="#DejaVuSans-Oblique-6e" transform="translate(143.505859 0.015625)"/>
     <use xlink:href="#DejaVuSans-28" transform="translate(206.884766 0.015625)"/>
     <use xlink:href="#DejaVuSans-32" transform="translate(245.898438 0.015625)"/>
     <use xlink:href="#DejaVuSans-Oblique-74" transform="translate(309.521484 0.015625)"/>
     <use xlink:href="#DejaVuSans-29" transform="translate(348.730469 0.015625)"/>
    </g>
   </g>
   <g id="text_2">
    <!-- 8Ω -->
    <g transform="translate(520.52 80.543125) scale(0.14 -0.14)">
     <defs>
      <path id="DejaVuSans-38" d="M 2034 2216 
Q 1584 2216 1326 1975 
Q 1069 1734 1069 1313 
Q 1069 891 1326 650 
Q 1584 409 2034 409 
Q 2484 409 2743 651 
Q 3003 894 3003 1313 
Q 3003 1734 2745 1975 
Q 2488 2216 2034 2216 
z
M 1403 2484 
Q 997 2584 770 2862 
Q 544 3141 544 3541 
Q 544 4100 942 4425 
Q 1341 4750 2034 4750 
Q 2731 4750 3128 4425 
Q 3525 4100 3525 3541 
Q 3525 3141 3298 2862 
Q 3072 2584 2669 2484 
Q 3125 2378 3379 2068 
Q 3634 1759 3634 1313 
Q 3634 634 3220 271 
Q 2806 -91 2034 -91 
Q 1263 -91 848 271 
Q 434 634 434 1313 
Q 434 1759 690 2068 
Q 947 2378 1403 2484 
z
M 1172 3481 
Q 1172 3119 1398 2916 
Q 1625 2713 2034 2713 
Q 2441 2713 2670 2916 
Q 2900 3119 2900 3481 
Q 2900 3844 2670 4047 
Q 2441 4250 2034 4250 
Q 1625 4250 1398 4047 
Q 1172 3844 1172 3481 
z
" transform="scale(0.015625)"/>
      <path id="DejaVuSans-3a9" d="M 4647 556 
L 4647 0 
L 2772 0 
L 2772 556 
Q 3325 859 3634 1378 
Q 3944 1897 3944 2528 
Q 3944 3278 3531 3731 
Q 3119 4184 2444 4184 
Q 1769 4184 1355 3729 
Q 941 3275 941 2528 
Q 941 1897 1250 1378 
Q 1563 859 2119 556 
L 2119 0 
L 244 0 
L 244 556 
L 1241 556 
Q 747 991 519 1456 
Q 294 1922 294 2497 
Q 294 3491 894 4106 
Q 1491 4722 2444 4722 
Q 3391 4722 3994 4106 
Q 4594 3494 4594 2528 
Q 4594 1922 4372 1459 
Q 4150 997 3647 556 
L 4647 556 
z
" transform="scale(0.015625)"/>
     </defs>
     <use xlink:href="#DejaVuSans-38"/>
     <use xlink:href="#DejaVuSans-3a9" x="63.623047"/>
    </g>
   </g>
   <g id="text_3">
    <!-- + -->
    <g transform="translate(483.588438 44.543125) scale(0.14 -0.14)">
     <defs>
      <path id="DejaVuSans-2b" d="M 2944 4013 
L 2944 2272 
L 4684 2272 
L 4684 1741 
L 2944 1741 
L 2944 0 
L 2419 0 
L 2419 1741 
L 678 1741 
L 678 2272 
L 2419 2272 
L 2419 4013 
L 2944 4013 
z
" transform="scale(0.015625)"/>
     </defs>
     <use xlink:href="#DejaVuSans-2b"/>
    </g>
   </g>
   <g id="text_4">
    <!-- $v_o$ -->
    <g transform="translate(480.62 80.543125) scale(0.14 -0.14)">
     <defs>
      <path id="DejaVuSans-Oblique-76" d="M 459 3500 
L 1069 3500 
L 1581 525 
L 3256 3500 
L 3866 3500 
L 1875 0 
L 1100 0 
L 459 3500 
z
" transform="scale(0.015625)"/>
      <path id="DejaVuSans-Oblique-6f" d="M 1625 -91 
Q 1009 -91 651 289 
Q 294 669 294 1325 
Q 294 1706 417 2101 
Q 541 2497 738 2766 
Q 1047 3184 1428 3384 
Q 1809 3584 2291 3584 
Q 2888 3584 3255 3212 
Q 3622 2841 3622 2241 
Q 3622 1825 3500 1412 
Q 3378 1000 3181 728 
Q 2875 309 2494 109 
Q 2113 -91 1625 -91 
z
M 891 1344 
Q 891 869 1089 633 
Q 1288 397 1691 397 
Q 2269 397 2648 901 
Q 3028 1406 3028 2181 
Q 3028 2634 2825 2865 
Q 2622 3097 2228 3097 
Q 1903 3097 1650 2945 
Q 1397 2794 1197 2484 
Q 1050 2253 970 1956 
Q 891 1659 891 1344 
z
" transform="scale(0.015625)"/>
     </defs>
     <use xlink:href="#DejaVuSans-Oblique-76" transform="translate(0 0.3125)"/>
     <use xlink:href="#DejaVuSans-Oblique-6f" transform="translate(59.179688 -16.09375) scale(0.7)"/>
    </g>
   </g>
   <g id="text_5">
    <!-- - -->
    <g transform="translate(490.269063 116.543125) scale(0.14 -0.14)">
     <defs>
      <path id="DejaVuSans-2d" d="M 313 2009 
L 1997 2009 
L 1997 1497 
L 313 1497 
L 313 2009 
z
" transform="scale(0.015625)"/>
     </defs>
     <use xlink:href="#DejaVuSans-2d"/>
    </g>
   </g>
   <g id="text_6">
    <!-- $\frac{1}{8}$F -->
    <g transform="translate(191.22 80.46) scale(0.14 -0.14)">
     <defs>
      <path id="DejaVuSans-31" d="M 794 531 
L 1825 531 
L 1825 4091 
L 703 3866 
L 703 4441 
L 1819 4666 
L 2450 4666 
L 2450 531 
L 3481 531 
L 3481 0 
L 794 0 
L 794 531 
z
" transform="scale(0.015625)"/>
      <path id="DejaVuSans-46" d="M 628 4666 
L 3309 4666 
L 3309 4134 
L 1259 4134 
L 1259 2759 
L 3109 2759 
L 3109 2228 
L 1259 2228 
L 1259 0 
L 628 0 
L 628 4666 
z
" transform="scale(0.015625)"/>
     </defs>
     <use xlink:href="#DejaVuSans-31" transform="translate(0 43.965625) scale(0.7)"/>
     <use xlink:href="#DejaVuSans-38" transform="translate(0 -39.2375) scale(0.7)"/>
     <use xlink:href="#DejaVuSans-46" transform="translate(57.036133 0.16875)"/>
     <path d="M 0 18.965625 
L 0 25.215625 
L 44.536133 25.215625 
L 44.536133 18.965625 
L 0 18.965625 
z
"/>
    </g>
   </g>
   <g id="text_7">
    <!-- $40cos(8t)$ -->
    <g transform="translate(275.54 44.543125) scale(0.14 -0.14)">
     <defs>
      <path id="DejaVuSans-34" d="M 2419 4116 
L 825 1625 
L 2419 1625 
L 2419 4116 
z
M 2253 4666 
L 3047 4666 
L 3047 1625 
L 3713 1625 
L 3713 1100 
L 3047 1100 
L 3047 0 
L 2419 0 
L 2419 1100 
L 313 1100 
L 313 1709 
L 2253 4666 
z
" transform="scale(0.015625)"/>
      <path id="DejaVuSans-30" d="M 2034 4250 
Q 1547 4250 1301 3770 
Q 1056 3291 1056 2328 
Q 1056 1369 1301 889 
Q 1547 409 2034 409 
Q 2525 409 2770 889 
Q 3016 1369 3016 2328 
Q 3016 3291 2770 3770 
Q 2525 4250 2034 4250 
z
M 2034 4750 
Q 2819 4750 3233 4129 
Q 3647 3509 3647 2328 
Q 3647 1150 3233 529 
Q 2819 -91 2034 -91 
Q 1250 -91 836 529 
Q 422 1150 422 2328 
Q 422 3509 836 4129 
Q 1250 4750 2034 4750 
z
" transform="scale(0.015625)"/>
      <path id="DejaVuSans-Oblique-63" d="M 3431 3366 
L 3316 2797 
Q 3109 2947 2876 3022 
Q 2644 3097 2394 3097 
Q 2119 3097 1870 3000 
Q 1622 2903 1453 2725 
Q 1184 2453 1037 2087 
Q 891 1722 891 1331 
Q 891 859 1127 628 
Q 1363 397 1844 397 
Q 2081 397 2348 469 
Q 2616 541 2906 684 
L 2797 116 
Q 2547 13 2283 -39 
Q 2019 -91 1741 -91 
Q 1044 -91 669 257 
Q 294 606 294 1253 
Q 294 1797 489 2255 
Q 684 2713 1069 3078 
Q 1331 3328 1684 3456 
Q 2038 3584 2456 3584 
Q 2700 3584 2940 3529 
Q 3181 3475 3431 3366 
z
" transform="scale(0.015625)"/>
     </defs>
     <use xlink:href="#DejaVuSans-34" transform="translate(0 0.125)"/>
     <use xlink:href="#DejaVuSans-30" transform="translate(63.623047 0.125)"/>
     <use xlink:href="#DejaVuSans-Oblique-63" transform="translate(127.246094 0.125)"/>
     <use xlink:href="#DejaVuSans-Oblique-6f" transform="translate(182.226562 0.125)"/>
     <use xlink:href="#DejaVuSans-Oblique-73" transform="translate(243.408203 0.125)"/>
     <use xlink:href="#DejaVuSans-28" transform="translate(295.507812 0.125)"/>
     <use xlink:href="#DejaVuSans-38" transform="translate(334.521484 0.125)"/>
     <use xlink:href="#DejaVuSans-Oblique-74" transform="translate(398.144531 0.125)"/>
     <use xlink:href="#DejaVuSans-29" transform="translate(437.353516 0.125)"/>
    </g>
   </g>
   <g id="text_8">
    <!-- 1H -->
    <g transform="translate(340.884062 116.543125) scale(0.14 -0.14)">
     <defs>
      <path id="DejaVuSans-48" d="M 628 4666 
L 1259 4666 
L 1259 2753 
L 3553 2753 
L 3553 4666 
L 4184 4666 
L 4184 0 
L 3553 0 
L 3553 2222 
L 1259 2222 
L 1259 0 
L 628 0 
L 628 4666 
z
" transform="scale(0.015625)"/>
     </defs>
     <use xlink:href="#DejaVuSans-31"/>
     <use xlink:href="#DejaVuSans-48" x="63.623047"/>
    </g>
   </g>
  </g>
 </g>
 <defs>
  <clipPath id="p5c44105626">
   <rect x="1.172" y="0" width="543.768" height="153.36"/>
  </clipPath>
 </defs>
</svg>