<?xml version="1.0" encoding="utf-8" standalone="no"?>
<!DOCTYPE svg PUBLIC "-//W3C//DTD SVG 1.1//EN"
  "http://www.w3.org/Graphics/SVG/1.1/DTD/svg11.dtd">
<svg xmlns:xlink="http://www.w3.org/1999/xlink" width="198.539978pt" height="145.76pt" viewBox="0 0 198.539978 145.76" xmlns="http://www.w3.org/2000/svg" version="1.1">
 <metadata>
  <rdf:RDF xmlns:dc="http://purl.org/dc/elements/1.1/" xmlns:cc="http://creativecommons.org/ns#" xmlns:rdf="http://www.w3.org/1999/02/22-rdf-syntax-ns#">
   <cc:Work>
    <dc:type rdf:resource="http://purl.org/dc/dcmitype/StillImage"/>
    <dc:date>2025-05-14T19:09:38.931737</dc:date>
    <dc:format>image/svg+xml</dc:format>
    <dc:creator>
     <cc:Agent>
      <dc:title>Matplotlib v3.10.3, https://matplotlib.org/</dc:title>
     </cc:Agent>
    </dc:creator>
   </cc:Work>
  </rdf:RDF>
 </metadata>
 <defs>
  <style type="text/css">*{stroke-linejoin: round; stroke-linecap: butt}</style>
 </defs>
 <g id="figure_1">
  <g id="patch_1">
   <path d="M 0 145.76 
L 198.539978 145.76 
L 198.539978 0 
L 0 0 
z
" style="fill: #ffffff"/>
  </g>
  <g id="axes_1">
   <g id="patch_2">
    <path d="M 126.18 78.08 
C 127.373016 78.08 128.51839 77.605571 129.361981 76.761981 
C 130.205571 75.91839 130.68 74.773016 130.68 73.58 
C 130.68 72.386984 130.205571 71.24161 129.361981 70.398019 
C 128.51839 69.554429 127.373016 69.08 126.18 69.08 
" clip-path="url(#p5c778be5d1)" style="fill: none; stroke: #000000; stroke-width: 2; stroke-linejoin: miter"/>
   </g>
   <g id="patch_3">
    <path d="M 126.18 87.08 
C 127.373016 87.08 128.51839 86.605571 129.361981 85.761981 
C 130.205571 84.91839 130.68 83.773016 130.68 82.58 
C 130.68 81.386984 130.205571 80.24161 129.361981 79.398019 
C 128.51839 78.554429 127.373016 78.08 126.18 78.08 
" clip-path="url(#p5c778be5d1)" style="fill: none; stroke: #000000; stroke-width: 2; stroke-linejoin: miter"/>
   </g>
   <g id="patch_4">
    <path d="M 126.18 96.08 
C 127.373016 96.08 128.51839 95.605571 129.361981 94.761981 
C 130.205571 93.91839 130.68 92.773016 130.68 91.58 
C 130.68 90.386984 130.205571 89.24161 129.361981 88.398019 
C 128.51839 87.554429 127.373016 87.08 126.18 87.08 
" clip-path="url(#p5c778be5d1)" style="fill: none; stroke: #000000; stroke-width: 2; stroke-linejoin: miter"/>
   </g>
   <g id="patch_5">
    <path d="M 126.18 105.08 
C 127.373016 105.08 128.51839 104.605571 129.361981 103.761981 
C 130.205571 102.91839 130.68 101.773016 130.68 100.58 
C 130.68 99.386984 130.205571 98.24161 129.361981 97.398019 
C 128.51839 96.554429 127.373016 96.08 126.18 96.08 
" clip-path="url(#p5c778be5d1)" style="fill: none; stroke: #000000; stroke-width: 2; stroke-linejoin: miter"/>
   </g>
   <g id="line2d_1">
    <path d="M 18.18 33.08 
L 72.18 33.08 
L 126.18 33.08 
" clip-path="url(#p5c778be5d1)" style="fill: none; stroke: #000000; stroke-width: 2; stroke-linecap: round"/>
   </g>
   <g id="line2d_2">
    <path d="M 66.78 33.08 
L 66.78 33.08 
" clip-path="url(#p5c778be5d1)" style="fill: none; stroke: #000000; stroke-width: 4; stroke-linecap: round"/>
   </g>
   <g id="patch_6">
    <path d="M 66.78 30.38 
L 75.78 33.08 
L 66.78 35.78 
z
" clip-path="url(#p5c778be5d1)"/>
   </g>
   <g id="line2d_3">
    <path d="M 126.18 33.08 
L 126.18 69.08 
M 126.18 105.08 
L 126.18 141.08 
" clip-path="url(#p5c778be5d1)" style="fill: none; stroke: #000000; stroke-width: 2; stroke-linecap: round"/>
   </g>
   <g id="line2d_4">
    <path d="M 126.18 141.08 
L 72.18 141.08 
L 18.18 141.08 
" clip-path="url(#p5c778be5d1)" style="fill: none; stroke: #000000; stroke-width: 2; stroke-linecap: round"/>
   </g>
   <g id="line2d_5">
    <path d="M 18.18 141.08 
L 18.18 90.455 
M 18.18 83.705 
L 18.18 33.08 
" clip-path="url(#p5c778be5d1)" style="fill: none; stroke: #000000; stroke-width: 2; stroke-linecap: round"/>
   </g>
   <g id="line2d_6">
    <path d="M 31.68 83.705 
L 4.68 83.705 
" clip-path="url(#p5c778be5d1)" style="fill: none; stroke: #000000; stroke-width: 2; stroke-linecap: round"/>
   </g>
   <g id="line2d_7">
    <path d="M 24.93 90.455 
L 11.43 90.455 
" clip-path="url(#p5c778be5d1)" style="fill: none; stroke: #000000; stroke-width: 2; stroke-linecap: round"/>
   </g>
   <g id="line2d_8">
    <path d="M 136.079978 51.08 
L 136.079978 112.28 
" clip-path="url(#p5c778be5d1)" style="fill: none; stroke: #000000; stroke-width: 2; stroke-linecap: round"/>
   </g>
   <g id="patch_7">
    <path d="M 139.679978 112.28 
L 136.079978 123.08 
L 132.479978 112.28 
z
" clip-path="url(#p5c778be5d1)"/>
   </g>
   <g id="text_1">
    <!-- $ i_t $ -->
    <g transform="translate(67.22 15.768438) scale(0.14 -0.14)">
     <defs>
      <path id="DejaVuSans-Oblique-69" d="M 1172 4863 
L 1747 4863 
L 1606 4134 
L 1031 4134 
L 1172 4863 
z
M 909 3500 
L 1484 3500 
L 800 0 
L 225 0 
L 909 3500 
z
" transform="scale(0.015625)"/>
      <path id="DejaVuSans-Oblique-74" d="M 2706 3500 
L 2619 3053 
L 1472 3053 
L 1100 1153 
Q 1081 1047 1072 975 
Q 1063 903 1063 863 
Q 1063 663 1183 572 
Q 1303 481 1569 481 
L 2150 481 
L 2053 0 
L 1503 0 
Q 991 0 739 200 
Q 488 400 488 806 
Q 488 878 497 964 
Q 506 1050 525 1153 
L 897 3053 
L 409 3053 
L 500 3500 
L 978 3500 
L 1172 4494 
L 1747 4494 
L 1556 3500 
L 2706 3500 
z
" transform="scale(0.015625)"/>
     </defs>
     <use xlink:href="#DejaVuSans-Oblique-69" transform="translate(0 0.015625)"/>
     <use xlink:href="#DejaVuSans-Oblique-74" transform="translate(27.783203 -16.390625) scale(0.7)"/>
    </g>
   </g>
   <g id="text_2">
    <!-- L -->
    <g transform="translate(114.779375 90.943125) scale(0.14 -0.14)">
     <defs>
      <path id="DejaVuSans-4c" d="M 628 4666 
L 1259 4666 
L 1259 531 
L 3531 531 
L 3531 0 
L 628 0 
L 628 4666 
z
" transform="scale(0.015625)"/>
     </defs>
     <use xlink:href="#DejaVuSans-4c"/>
    </g>
   </g>
   <g id="text_3">
    <!-- $i(0) = I_0$ -->
    <g transform="translate(146.879978 90.943125) scale(0.14 -0.14)">
     <defs>
      <path id="DejaVuSans-28" d="M 1984 4856 
Q 1566 4138 1362 3434 
Q 1159 2731 1159 2009 
Q 1159 1288 1364 580 
Q 1569 -128 1984 -844 
L 1484 -844 
Q 1016 -109 783 600 
Q 550 1309 550 2009 
Q 550 2706 781 3412 
Q 1013 4119 1484 4856 
L 1984 4856 
z
" transform="scale(0.015625)"/>
      <path id="DejaVuSans-30" d="M 2034 4250 
Q 1547 4250 1301 3770 
Q 1056 3291 1056 2328 
Q 1056 1369 1301 889 
Q 1547 409 2034 409 
Q 2525 409 2770 889 
Q 3016 1369 3016 2328 
Q 3016 3291 2770 3770 
Q 2525 4250 2034 4250 
z
M 2034 4750 
Q 2819 4750 3233 4129 
Q 3647 3509 3647 2328 
Q 3647 1150 3233 529 
Q 2819 -91 2034 -91 
Q 1250 -91 836 529 
Q 422 1150 422 2328 
Q 422 3509 836 4129 
Q 1250 4750 2034 4750 
z
" transform="scale(0.015625)"/>
      <path id="DejaVuSans-29" d="M 513 4856 
L 1013 4856 
Q 1481 4119 1714 3412 
Q 1947 2706 1947 2009 
Q 1947 1309 1714 600 
Q 1481 -109 1013 -844 
L 513 -844 
Q 928 -128 1133 580 
Q 1338 1288 1338 2009 
Q 1338 2731 1133 3434 
Q 928 4138 513 4856 
z
" transform="scale(0.015625)"/>
      <path id="DejaVuSans-3d" d="M 678 2906 
L 4684 2906 
L 4684 2381 
L 678 2381 
L 678 2906 
z
M 678 1631 
L 4684 1631 
L 4684 1100 
L 678 1100 
L 678 1631 
z
" transform="scale(0.015625)"/>
      <path id="DejaVuSans-Oblique-49" d="M 1081 4666 
L 1716 4666 
L 806 0 
L 172 0 
L 1081 4666 
z
" transform="scale(0.015625)"/>
     </defs>
     <use xlink:href="#DejaVuSans-Oblique-69" transform="translate(0 0.015625)"/>
     <use xlink:href="#DejaVuSans-28" transform="translate(27.783203 0.015625)"/>
     <use xlink:href="#DejaVuSans-30" transform="translate(66.796875 0.015625)"/>
     <use xlink:href="#DejaVuSans-29" transform="translate(130.419922 0.015625)"/>
     <use xlink:href="#DejaVuSans-3d" transform="translate(188.916016 0.015625)"/>
     <use xlink:href="#DejaVuSans-Oblique-49" transform="translate(292.1875 0.015625)"/>
     <use xlink:href="#DejaVuSans-30" transform="translate(321.679688 -16.390625) scale(0.7)"/>
    </g>
   </g>
  </g>
 </g>
 <defs>
  <clipPath id="p5c778be5d1">
   <rect x="0" y="0" width="197.423978" height="145.76"/>
  </clipPath>
 </defs>
</svg>