<?xml version="1.0" encoding="utf-8" standalone="no"?>
<!DOCTYPE svg PUBLIC "-//W3C//DTD SVG 1.1//EN"
  "http://www.w3.org/Graphics/SVG/1.1/DTD/svg11.dtd">
<svg xmlns:xlink="http://www.w3.org/1999/xlink" width="465.624pt" height="142.78pt" viewBox="0 0 465.624 142.78" xmlns="http://www.w3.org/2000/svg" version="1.1">
 <metadata>
  <rdf:RDF xmlns:dc="http://purl.org/dc/elements/1.1/" xmlns:cc="http://creativecommons.org/ns#" xmlns:rdf="http://www.w3.org/1999/02/22-rdf-syntax-ns#">
   <cc:Work>
    <dc:type rdf:resource="http://purl.org/dc/dcmitype/StillImage"/>
    <dc:date>2024-12-22T09:47:39.148766</dc:date>
    <dc:format>image/svg+xml</dc:format>
    <dc:creator>
     <cc:Agent>
      <dc:title>Matplotlib v3.9.2, https://matplotlib.org/</dc:title>
     </cc:Agent>
    </dc:creator>
   </cc:Work>
  </rdf:RDF>
 </metadata>
 <defs>
  <style type="text/css">*{stroke-linejoin: round; stroke-linecap: butt}</style>
 </defs>
 <g id="figure_1">
  <g id="patch_1">
   <path d="M 0 142.78 
L 465.624 142.78 
L 465.624 0 
L 0 0 
z
" style="fill: #ffffff"/>
  </g>
  <g id="axes_1">
   <g id="patch_2">
    <path d="M 124.812 102.1 
C 129.585656 102.1 134.164438 100.203406 137.539922 96.827922 
C 140.915406 93.452438 142.812 88.873656 142.812 84.1 
C 142.812 79.326344 140.915406 74.747562 137.539922 71.372078 
C 134.164438 67.996594 129.585656 66.1 124.812 66.1 
C 120.038344 66.1 115.459562 67.996594 112.084078 71.372078 
C 108.708594 74.747562 106.812 79.326344 106.812 84.1 
C 106.812 88.873656 108.708594 93.452438 112.084078 96.827922 
C 115.459562 100.203406 120.038344 102.1 124.812 102.1 
L 124.812 102.1 
z
" clip-path="url(#pf9f711b226)" style="fill: none; stroke: #000000; stroke-width: 2; stroke-linejoin: miter"/>
   </g>
   <g id="patch_3">
    <path d="M 277.812 30.1 
C 277.812 28.906984 277.337571 27.76161 276.493981 26.918019 
C 275.65039 26.074429 274.505016 25.6 273.312 25.6 
C 272.118984 25.6 270.97361 26.074429 270.130019 26.918019 
C 269.286429 27.76161 268.812 28.906984 268.812 30.1 
" clip-path="url(#pf9f711b226)" style="fill: none; stroke: #000000; stroke-width: 2; stroke-linejoin: miter"/>
   </g>
   <g id="patch_4">
    <path d="M 286.812 30.1 
C 286.812 28.906984 286.337571 27.76161 285.493981 26.918019 
C 284.65039 26.074429 283.505016 25.6 282.312 25.6 
C 281.118984 25.6 279.97361 26.074429 279.130019 26.918019 
C 278.286429 27.76161 277.812 28.906984 277.812 30.1 
" clip-path="url(#pf9f711b226)" style="fill: none; stroke: #000000; stroke-width: 2; stroke-linejoin: miter"/>
   </g>
   <g id="patch_5">
    <path d="M 295.812 30.1 
C 295.812 28.906984 295.337571 27.76161 294.493981 26.918019 
C 293.65039 26.074429 292.505016 25.6 291.312 25.6 
C 290.118984 25.6 288.97361 26.074429 288.130019 26.918019 
C 287.286429 27.76161 286.812 28.906984 286.812 30.1 
" clip-path="url(#pf9f711b226)" style="fill: none; stroke: #000000; stroke-width: 2; stroke-linejoin: miter"/>
   </g>
   <g id="patch_6">
    <path d="M 304.812 30.1 
C 304.812 28.906984 304.337571 27.76161 303.493981 26.918019 
C 302.65039 26.074429 301.505016 25.6 300.312 25.6 
C 299.118984 25.6 297.97361 26.074429 297.130019 26.918019 
C 296.286429 27.76161 295.812 28.906984 295.812 30.1 
" clip-path="url(#pf9f711b226)" style="fill: none; stroke: #000000; stroke-width: 2; stroke-linejoin: miter"/>
   </g>
   <g id="patch_7">
    <path d="M 340.812 102.1 
C 345.585656 102.1 350.164438 100.203406 353.539922 96.827922 
C 356.915406 93.452438 358.812 88.873656 358.812 84.1 
C 358.812 79.326344 356.915406 74.747562 353.539922 71.372078 
C 350.164438 67.996594 345.585656 66.1 340.812 66.1 
C 336.038344 66.1 331.459562 67.996594 328.084078 71.372078 
C 324.708594 74.747562 322.812 79.326344 322.812 84.1 
C 322.812 88.873656 324.708594 93.452438 328.084078 96.827922 
C 331.459562 100.203406 336.038344 102.1 340.812 102.1 
L 340.812 102.1 
z
" clip-path="url(#pf9f711b226)" style="fill: none; stroke: #000000; stroke-width: 2; stroke-linejoin: miter"/>
   </g>
   <g id="patch_8">
    <path d="M 212.474864 68.179943 
C 210.704051 64.099207 208.414526 60.418057 205.698951 57.285469 
C 202.983376 54.152882 199.878884 51.611696 196.511117 49.764755 
C 193.14335 47.917813 189.558362 46.790373 185.90124 46.428063 
C 182.244117 46.065753 178.564871 46.473527 175.012403 47.634883 
C 171.459935 48.796238 168.082825 50.695294 165.017747 53.255194 
C 161.952669 55.815093 159.241537 59.00083 156.994073 62.683476 
C 154.746609 66.366121 152.993547 70.495315 151.805834 74.903947 
C 150.618121 79.312578 150.012 83.940359 150.012 88.6 
C 150.012 93.259641 150.618121 97.887422 151.805834 102.296053 
C 152.993547 106.704685 154.746609 110.833879 156.994073 114.516524 
C 159.241537 118.19917 161.952669 121.384907 165.017747 123.944806 
C 168.082825 126.504706 171.459935 128.403762 175.012403 129.565117 
C 178.564871 130.726473 182.244117 131.134247 185.90124 130.771937 
C 189.558362 130.409627 193.14335 129.282187 196.511117 127.435245 
C 199.878884 125.588304 202.983376 123.047118 205.698951 119.914531 
C 208.414526 116.781943 210.704051 113.100793 212.474864 109.020057 
" clip-path="url(#pf9f711b226)" style="fill: none; stroke: #ff0000; stroke-width: 2; stroke-linejoin: miter"/>
   </g>
   <g id="patch_9">
    <path d="M 216.993345 76.377072 
L 210.284096 69.798625 
L 212.632888 68.503906 
L 212.459101 68.188632 
L 212.490628 68.171253 
L 212.664416 68.486527 
L 215.013209 67.191809 
z
" clip-path="url(#pf9f711b226)" style="fill: #ff0000; stroke: #ff0000; stroke-linejoin: miter"/>
   </g>
   <g id="patch_10">
    <path d="M 312.117562 63.229921 
C 310.455855 58.542532 308.246047 54.28021 305.58039 50.620894 
C 302.914732 46.961577 299.830843 43.956904 296.457463 41.732309 
C 293.084084 39.507715 289.468818 38.094592 285.76259 37.551933 
C 282.056362 37.009274 278.311474 37.344737 274.684262 38.544317 
C 271.057049 39.743898 267.598699 41.790668 264.453584 44.599182 
C 261.308469 47.407697 258.520973 50.938322 256.207463 55.043667 
C 253.893954 59.149012 252.087079 63.771143 250.86227 68.717104 
C 249.63746 73.663064 249.012 78.863056 249.012 84.1 
C 249.012 89.336944 249.63746 94.536936 250.86227 99.482896 
C 252.087079 104.428857 253.893954 109.050988 256.207463 113.156333 
C 258.520973 117.261678 261.308469 120.792303 264.453584 123.600818 
C 267.598699 126.409332 271.057049 128.456102 274.684262 129.655683 
C 278.311474 130.855263 282.056362 131.190726 285.76259 130.648067 
C 289.468818 130.105408 293.084084 128.692285 296.457463 126.467691 
C 299.830843 124.243096 302.914732 121.238423 305.58039 117.579106 
C 308.246047 113.91979 310.455855 109.657468 312.117562 104.970079 
" clip-path="url(#pf9f711b226)" style="fill: none; stroke: #008000; stroke-width: 2; stroke-linejoin: miter"/>
   </g>
   <g id="patch_11">
    <path d="M 316.291578 71.6077 
L 309.861434 64.756186 
L 312.26199 63.56017 
L 312.101451 63.237948 
L 312.133673 63.221894 
L 312.294212 63.544116 
L 314.694768 62.3481 
z
" clip-path="url(#pf9f711b226)" style="fill: #008000; stroke: #008000; stroke-linejoin: miter"/>
   </g>
   <g id="line2d_1">
    <path d="M 124.812 138.1 
L 124.812 102.1 
L 124.812 102.1 
M 124.812 66.1 
L 124.812 66.1 
L 124.812 30.1 
" clip-path="url(#pf9f711b226)" style="fill: none; stroke: #000000; stroke-width: 2; stroke-linecap: round"/>
   </g>
   <g id="line2d_2">
    <path d="M 128.412 93.1 
L 121.212 93.1 
" clip-path="url(#pf9f711b226)" style="fill: none; stroke: #000000; stroke-width: 2; stroke-linecap: round"/>
   </g>
   <g id="line2d_3">
    <path d="M 124.812 78.7 
L 124.812 71.5 
" clip-path="url(#pf9f711b226)" style="fill: none; stroke: #000000; stroke-width: 2; stroke-linecap: round"/>
   </g>
   <g id="line2d_4">
    <path d="M 128.412 75.1 
L 121.212 75.1 
" clip-path="url(#pf9f711b226)" style="fill: none; stroke: #000000; stroke-width: 2; stroke-linecap: round"/>
   </g>
   <g id="line2d_5">
    <path d="M 124.812 30.1 
L 175.572 30.1 
M 175.572 21.1 
L 175.572 39.1 
M 182.052 21.1 
L 182.052 39.1 
M 182.052 30.1 
L 232.812 30.1 
" clip-path="url(#pf9f711b226)" style="fill: none; stroke: #000000; stroke-width: 2; stroke-linecap: round"/>
   </g>
   <g id="line2d_6">
    <path d="M 232.812 30.1 
L 268.812 30.1 
M 304.812 30.1 
L 340.812 30.1 
" clip-path="url(#pf9f711b226)" style="fill: none; stroke: #000000; stroke-width: 2; stroke-linecap: round"/>
   </g>
   <g id="line2d_7">
    <path d="M 340.812 30.1 
L 340.812 66.1 
L 340.812 66.1 
M 340.812 102.1 
L 340.812 102.1 
L 340.812 138.1 
" clip-path="url(#pf9f711b226)" style="fill: none; stroke: #000000; stroke-width: 2; stroke-linecap: round"/>
   </g>
   <g id="line2d_8">
    <path d="M 337.212 75.1 
L 344.412 75.1 
" clip-path="url(#pf9f711b226)" style="fill: none; stroke: #000000; stroke-width: 2; stroke-linecap: round"/>
   </g>
   <g id="line2d_9">
    <path d="M 340.812 89.5 
L 340.812 96.7 
" clip-path="url(#pf9f711b226)" style="fill: none; stroke: #000000; stroke-width: 2; stroke-linecap: round"/>
   </g>
   <g id="line2d_10">
    <path d="M 337.212 93.1 
L 344.412 93.1 
" clip-path="url(#pf9f711b226)" style="fill: none; stroke: #000000; stroke-width: 2; stroke-linecap: round"/>
   </g>
   <g id="line2d_11">
    <path d="M 340.812 138.1 
L 286.812 138.1 
L 232.812 138.1 
" clip-path="url(#pf9f711b226)" style="fill: none; stroke: #000000; stroke-width: 2; stroke-linecap: round"/>
   </g>
   <g id="line2d_12">
    <path d="M 232.812 138.1 
L 232.812 102.1 
L 223.812 99.1 
L 241.812 93.1 
L 223.812 87.1 
L 241.812 81.1 
L 223.812 75.1 
L 241.812 69.1 
L 232.812 66.1 
L 232.812 30.1 
" clip-path="url(#pf9f711b226)" style="fill: none; stroke: #000000; stroke-width: 2; stroke-linecap: round"/>
   </g>
   <g id="line2d_13">
    <path d="M 232.812 138.1 
L 178.812 138.1 
L 124.812 138.1 
" clip-path="url(#pf9f711b226)" style="fill: none; stroke: #000000; stroke-width: 2; stroke-linecap: round"/>
   </g>
   <g id="text_1">
    <!-- $\frac{4}{s + 2} V$ -->
    <g transform="translate(68.492 87.88) scale(0.14 -0.14)">
     <defs>
      <path id="DejaVuSans-34" d="M 2419 4116 
L 825 1625 
L 2419 1625 
L 2419 4116 
z
M 2253 4666 
L 3047 4666 
L 3047 1625 
L 3713 1625 
L 3713 1100 
L 3047 1100 
L 3047 0 
L 2419 0 
L 2419 1100 
L 313 1100 
L 313 1709 
L 2253 4666 
z
" transform="scale(0.015625)"/>
      <path id="DejaVuSans-Oblique-73" d="M 3200 3397 
L 3091 2853 
Q 2863 2978 2609 3040 
Q 2356 3103 2088 3103 
Q 1634 3103 1373 2948 
Q 1113 2794 1113 2528 
Q 1113 2219 1719 2053 
Q 1766 2041 1788 2034 
L 1972 1978 
Q 2547 1819 2739 1644 
Q 2931 1469 2931 1166 
Q 2931 609 2489 259 
Q 2047 -91 1331 -91 
Q 1053 -91 747 -37 
Q 441 16 72 128 
L 184 722 
Q 500 559 806 475 
Q 1113 391 1394 391 
Q 1816 391 2080 572 
Q 2344 753 2344 1031 
Q 2344 1331 1650 1516 
L 1591 1531 
L 1394 1581 
Q 956 1697 753 1886 
Q 550 2075 550 2369 
Q 550 2928 970 3256 
Q 1391 3584 2113 3584 
Q 2397 3584 2667 3537 
Q 2938 3491 3200 3397 
z
" transform="scale(0.015625)"/>
      <path id="DejaVuSans-2b" d="M 2944 4013 
L 2944 2272 
L 4684 2272 
L 4684 1741 
L 2944 1741 
L 2944 0 
L 2419 0 
L 2419 1741 
L 678 1741 
L 678 2272 
L 2419 2272 
L 2419 4013 
L 2944 4013 
z
" transform="scale(0.015625)"/>
      <path id="DejaVuSans-32" d="M 1228 531 
L 3431 531 
L 3431 0 
L 469 0 
L 469 531 
Q 828 903 1448 1529 
Q 2069 2156 2228 2338 
Q 2531 2678 2651 2914 
Q 2772 3150 2772 3378 
Q 2772 3750 2511 3984 
Q 2250 4219 1831 4219 
Q 1534 4219 1204 4116 
Q 875 4013 500 3803 
L 500 4441 
Q 881 4594 1212 4672 
Q 1544 4750 1819 4750 
Q 2544 4750 2975 4387 
Q 3406 4025 3406 3419 
Q 3406 3131 3298 2873 
Q 3191 2616 2906 2266 
Q 2828 2175 2409 1742 
Q 1991 1309 1228 531 
z
" transform="scale(0.015625)"/>
      <path id="DejaVuSans-Oblique-56" d="M 1319 0 
L 500 4666 
L 1119 4666 
L 1797 653 
L 4063 4666 
L 4750 4666 
L 2053 0 
L 1319 0 
z
" transform="scale(0.015625)"/>
     </defs>
     <use xlink:href="#DejaVuSans-34" transform="translate(61 43.965625) scale(0.7)"/>
     <use xlink:href="#DejaVuSans-Oblique-73" transform="translate(0 -39.2375) scale(0.7)"/>
     <use xlink:href="#DejaVuSans-2b" transform="translate(50.107422 -39.2375) scale(0.7)"/>
     <use xlink:href="#DejaVuSans-32" transform="translate(122.397461 -39.2375) scale(0.7)"/>
     <use xlink:href="#DejaVuSans-Oblique-56" transform="translate(179.433594 0.16875)"/>
     <path d="M 0 18.965625 
L 0 25.215625 
L 166.933594 25.215625 
L 166.933594 18.965625 
L 0 18.965625 
z
"/>
    </g>
   </g>
   <g id="text_2">
    <!-- $\frac{3}{s} Z$ -->
    <g transform="translate(169.992 13.58) scale(0.14 -0.14)">
     <defs>
      <path id="DejaVuSans-33" d="M 2597 2516 
Q 3050 2419 3304 2112 
Q 3559 1806 3559 1356 
Q 3559 666 3084 287 
Q 2609 -91 1734 -91 
Q 1441 -91 1130 -33 
Q 819 25 488 141 
L 488 750 
Q 750 597 1062 519 
Q 1375 441 1716 441 
Q 2309 441 2620 675 
Q 2931 909 2931 1356 
Q 2931 1769 2642 2001 
Q 2353 2234 1838 2234 
L 1294 2234 
L 1294 2753 
L 1863 2753 
Q 2328 2753 2575 2939 
Q 2822 3125 2822 3475 
Q 2822 3834 2567 4026 
Q 2313 4219 1838 4219 
Q 1578 4219 1281 4162 
Q 984 4106 628 3988 
L 628 4550 
Q 988 4650 1302 4700 
Q 1616 4750 1894 4750 
Q 2613 4750 3031 4423 
Q 3450 4097 3450 3541 
Q 3450 3153 3228 2886 
Q 3006 2619 2597 2516 
z
" transform="scale(0.015625)"/>
      <path id="DejaVuSans-Oblique-5a" d="M 838 4666 
L 4500 4666 
L 4409 4184 
L 794 531 
L 3769 531 
L 3669 0 
L -141 0 
L -50 481 
L 3566 4134 
L 738 4134 
L 838 4666 
z
" transform="scale(0.015625)"/>
     </defs>
     <use xlink:href="#DejaVuSans-33" transform="translate(0 45.046875) scale(0.7)"/>
     <use xlink:href="#DejaVuSans-Oblique-73" transform="translate(4 -26.398438) scale(0.7)"/>
     <use xlink:href="#DejaVuSans-Oblique-5a" transform="translate(57.036133 0.254687)"/>
     <path d="M 0 19.051563 
L 0 25.301563 
L 44.536133 25.301563 
L 44.536133 19.051563 
L 0 19.051563 
z
"/>
    </g>
   </g>
   <g id="text_3">
    <!-- 4s Z -->
    <g transform="translate(271.692 19.08846) scale(0.14 -0.14)">
     <defs>
      <path id="DejaVuSans-73" d="M 2834 3397 
L 2834 2853 
Q 2591 2978 2328 3040 
Q 2066 3103 1784 3103 
Q 1356 3103 1142 2972 
Q 928 2841 928 2578 
Q 928 2378 1081 2264 
Q 1234 2150 1697 2047 
L 1894 2003 
Q 2506 1872 2764 1633 
Q 3022 1394 3022 966 
Q 3022 478 2636 193 
Q 2250 -91 1575 -91 
Q 1294 -91 989 -36 
Q 684 19 347 128 
L 347 722 
Q 666 556 975 473 
Q 1284 391 1588 391 
Q 1994 391 2212 530 
Q 2431 669 2431 922 
Q 2431 1156 2273 1281 
Q 2116 1406 1581 1522 
L 1381 1569 
Q 847 1681 609 1914 
Q 372 2147 372 2553 
Q 372 3047 722 3315 
Q 1072 3584 1716 3584 
Q 2034 3584 2315 3537 
Q 2597 3491 2834 3397 
z
" transform="scale(0.015625)"/>
      <path id="DejaVuSans-20" transform="scale(0.015625)"/>
      <path id="DejaVuSans-5a" d="M 359 4666 
L 4025 4666 
L 4025 4184 
L 1075 531 
L 4097 531 
L 4097 0 
L 288 0 
L 288 481 
L 3238 4134 
L 359 4134 
L 359 4666 
z
" transform="scale(0.015625)"/>
     </defs>
     <use xlink:href="#DejaVuSans-34"/>
     <use xlink:href="#DejaVuSans-73" x="63.623047"/>
     <use xlink:href="#DejaVuSans-20" x="115.722656"/>
     <use xlink:href="#DejaVuSans-5a" x="147.509766"/>
    </g>
   </g>
   <g id="text_4">
    <!-- $\frac{2}{s + 1} V$ -->
    <g transform="translate(362.412 88.02) scale(0.14 -0.14)">
     <defs>
      <path id="DejaVuSans-31" d="M 794 531 
L 1825 531 
L 1825 4091 
L 703 3866 
L 703 4441 
L 1819 4666 
L 2450 4666 
L 2450 531 
L 3481 531 
L 3481 0 
L 794 0 
L 794 531 
z
" transform="scale(0.015625)"/>
     </defs>
     <use xlink:href="#DejaVuSans-32" transform="translate(61 44.046875) scale(0.7)"/>
     <use xlink:href="#DejaVuSans-Oblique-73" transform="translate(0 -38.2375) scale(0.7)"/>
     <use xlink:href="#DejaVuSans-2b" transform="translate(50.107422 -38.2375) scale(0.7)"/>
     <use xlink:href="#DejaVuSans-31" transform="translate(122.397461 -38.2375) scale(0.7)"/>
     <use xlink:href="#DejaVuSans-Oblique-56" transform="translate(179.433594 0.25)"/>
     <path d="M 0 19.046875 
L 0 25.296875 
L 166.933594 25.296875 
L 166.933594 19.046875 
L 0 19.046875 
z
"/>
    </g>
   </g>
   <g id="text_5">
    <!-- $10\Omega$ -->
    <g transform="translate(191.652 87.963125) scale(0.14 -0.14)">
     <defs>
      <path id="DejaVuSans-30" d="M 2034 4250 
Q 1547 4250 1301 3770 
Q 1056 3291 1056 2328 
Q 1056 1369 1301 889 
Q 1547 409 2034 409 
Q 2525 409 2770 889 
Q 3016 1369 3016 2328 
Q 3016 3291 2770 3770 
Q 2525 4250 2034 4250 
z
M 2034 4750 
Q 2819 4750 3233 4129 
Q 3647 3509 3647 2328 
Q 3647 1150 3233 529 
Q 2819 -91 2034 -91 
Q 1250 -91 836 529 
Q 422 1150 422 2328 
Q 422 3509 836 4129 
Q 1250 4750 2034 4750 
z
" transform="scale(0.015625)"/>
      <path id="DejaVuSans-3a9" d="M 4647 556 
L 4647 0 
L 2772 0 
L 2772 556 
Q 3325 859 3634 1378 
Q 3944 1897 3944 2528 
Q 3944 3278 3531 3731 
Q 3119 4184 2444 4184 
Q 1769 4184 1355 3729 
Q 941 3275 941 2528 
Q 941 1897 1250 1378 
Q 1563 859 2119 556 
L 2119 0 
L 244 0 
L 244 556 
L 1241 556 
Q 747 991 519 1456 
Q 294 1922 294 2497 
Q 294 3491 894 4106 
Q 1491 4722 2444 4722 
Q 3391 4722 3994 4106 
Q 4594 3494 4594 2528 
Q 4594 1922 4372 1459 
Q 4150 997 3647 556 
L 4647 556 
z
" transform="scale(0.015625)"/>
     </defs>
     <use xlink:href="#DejaVuSans-31" transform="translate(0 0.78125)"/>
     <use xlink:href="#DejaVuSans-30" transform="translate(63.623047 0.78125)"/>
     <use xlink:href="#DejaVuSans-3a9" transform="translate(127.246094 0.78125)"/>
    </g>
   </g>
   <g id="text_6">
    <!-- $I_1$ -->
    <g style="fill: #ff0000" transform="translate(177.922 92.463125) scale(0.14 -0.14)">
     <defs>
      <path id="DejaVuSans-Oblique-49" d="M 1081 4666 
L 1716 4666 
L 806 0 
L 172 0 
L 1081 4666 
z
" transform="scale(0.015625)"/>
     </defs>
     <use xlink:href="#DejaVuSans-Oblique-49" transform="translate(0 0.09375)"/>
     <use xlink:href="#DejaVuSans-31" transform="translate(29.492188 -16.3125) scale(0.7)"/>
    </g>
   </g>
   <g id="text_7">
    <!-- $I_2$ -->
    <g style="fill: #008000" transform="translate(276.922 87.963125) scale(0.14 -0.14)">
     <use xlink:href="#DejaVuSans-Oblique-49" transform="translate(0 0.09375)"/>
     <use xlink:href="#DejaVuSans-32" transform="translate(29.492188 -16.3125) scale(0.7)"/>
    </g>
   </g>
  </g>
 </g>
 <defs>
  <clipPath id="pf9f711b226">
   <rect x="0" y="1.62" width="465.624" height="141.16"/>
  </clipPath>
 </defs>
</svg>