<?xml version="1.0" encoding="utf-8" standalone="no"?>
<!DOCTYPE svg PUBLIC "-//W3C//DTD SVG 1.1//EN"
  "http://www.w3.org/Graphics/SVG/1.1/DTD/svg11.dtd">
<svg xmlns:xlink="http://www.w3.org/1999/xlink" width="327.109941pt" height="232.36pt" viewBox="0 0 327.109941 232.36" xmlns="http://www.w3.org/2000/svg" version="1.1">
 <metadata>
  <rdf:RDF xmlns:dc="http://purl.org/dc/elements/1.1/" xmlns:cc="http://creativecommons.org/ns#" xmlns:rdf="http://www.w3.org/1999/02/22-rdf-syntax-ns#">
   <cc:Work>
    <dc:type rdf:resource="http://purl.org/dc/dcmitype/StillImage"/>
    <dc:date>2025-05-14T19:11:02.492637</dc:date>
    <dc:format>image/svg+xml</dc:format>
    <dc:creator>
     <cc:Agent>
      <dc:title>Matplotlib v3.10.3, https://matplotlib.org/</dc:title>
     </cc:Agent>
    </dc:creator>
   </cc:Work>
  </rdf:RDF>
 </metadata>
 <defs>
  <style type="text/css">*{stroke-linejoin: round; stroke-linecap: butt}</style>
 </defs>
 <g id="figure_1">
  <g id="patch_1">
   <path d="M 0 232.36 
L 327.109941 232.36 
L 327.109941 0 
L 0 0 
z
" style="fill: #ffffff"/>
  </g>
  <g id="axes_1">
   <g id="line2d_1">
    <path d="M 42.276 227.68 
L 42.276 183.805 
M 42.276 163.555 
L 42.276 119.68 
" clip-path="url(#pefe28c5929)" style="fill: none; stroke: #000000; stroke-width: 2; stroke-linecap: round"/>
   </g>
   <g id="line2d_2">
    <path d="M 55.776 163.555 
L 28.776 163.555 
" clip-path="url(#pefe28c5929)" style="fill: none; stroke: #000000; stroke-width: 2; stroke-linecap: round"/>
   </g>
   <g id="line2d_3">
    <path d="M 49.026 170.305 
L 35.526 170.305 
" clip-path="url(#pefe28c5929)" style="fill: none; stroke: #000000; stroke-width: 2; stroke-linecap: round"/>
   </g>
   <g id="line2d_4">
    <path d="M 55.776 177.055 
L 28.776 177.055 
" clip-path="url(#pefe28c5929)" style="fill: none; stroke: #000000; stroke-width: 2; stroke-linecap: round"/>
   </g>
   <g id="line2d_5">
    <path d="M 49.026 183.805 
L 35.526 183.805 
" clip-path="url(#pefe28c5929)" style="fill: none; stroke: #000000; stroke-width: 2; stroke-linecap: round"/>
   </g>
   <g id="line2d_6">
    <path d="M 42.276 119.68 
L 42.276 65.68 
L 42.276 11.68 
" clip-path="url(#pefe28c5929)" style="fill: none; stroke: #000000; stroke-width: 2; stroke-linecap: round"/>
   </g>
   <g id="line2d_7">
    <path d="M 42.276 11.68 
L 132.276 11.68 
L 222.276 11.68 
" clip-path="url(#pefe28c5929)" style="fill: none; stroke: #000000; stroke-width: 2; stroke-linecap: round"/>
   </g>
   <g id="line2d_8">
    <path d="M 222.276 11.68 
L 194.6984 34.820354 
L 198.185355 43.643117 
L 182.018912 33.711042 
L 188.992822 51.356568 
L 172.826378 41.424494 
L 179.800289 59.070019 
L 163.633845 49.137945 
L 167.1208 57.960708 
L 139.5432 81.101062 
" clip-path="url(#pefe28c5929)" style="fill: none; stroke: #000000; stroke-width: 2; stroke-linecap: round"/>
   </g>
   <g id="line2d_9">
    <path d="M 139.5432 81.101062 
L 162.683554 108.678662 
L 171.506317 105.191707 
L 161.574243 121.35815 
L 179.219768 114.38424 
L 169.287694 130.550684 
L 186.93322 123.576773 
L 177.001145 139.743217 
L 185.823908 136.256262 
L 208.964262 163.833862 
" clip-path="url(#pefe28c5929)" style="fill: none; stroke: #000000; stroke-width: 2; stroke-linecap: round"/>
   </g>
   <g id="line2d_10">
    <path d="M 208.964262 163.833862 
L 236.541862 140.693508 
L 233.054907 131.870745 
L 249.22135 141.802819 
L 242.24744 124.157294 
L 258.413884 134.089368 
L 251.439973 116.443842 
L 267.606417 126.375917 
L 264.119462 117.553154 
L 291.697062 94.4128 
" clip-path="url(#pefe28c5929)" style="fill: none; stroke: #000000; stroke-width: 2; stroke-linecap: round"/>
   </g>
   <g id="line2d_11">
    <path d="M 291.697062 94.4128 
L 268.556708 66.8352 
L 261.662308 72.620288 
L 238.521954 45.042688 
L 252.310754 33.472511 
L 275.451108 61.050111 
L 268.556708 66.8352 
M 245.416354 39.2576 
L 222.276 11.68 
" clip-path="url(#pefe28c5929)" style="fill: none; stroke: #000000; stroke-width: 2; stroke-linecap: round"/>
   </g>
   <g id="line2d_12">
    <path d="M 42.276 227.68 
L 125.620131 227.68 
L 208.964262 227.68 
" clip-path="url(#pefe28c5929)" style="fill: none; stroke: #000000; stroke-width: 2; stroke-linecap: round"/>
   </g>
   <g id="line2d_13">
    <path d="M 208.964262 227.68 
L 208.964262 195.756931 
L 208.964262 163.833862 
" clip-path="url(#pefe28c5929)" style="fill: none; stroke: #000000; stroke-width: 2; stroke-linecap: round"/>
   </g>
   <g id="text_1">
    <!-- Vin -->
    <g transform="translate(3.15225 177.543125) scale(0.14 -0.14)">
     <defs>
      <path id="DejaVuSans-56" d="M 1831 0 
L 50 4666 
L 709 4666 
L 2188 738 
L 3669 4666 
L 4325 4666 
L 2547 0 
L 1831 0 
z
" transform="scale(0.015625)"/>
      <path id="DejaVuSans-69" d="M 603 3500 
L 1178 3500 
L 1178 0 
L 603 0 
L 603 3500 
z
M 603 4863 
L 1178 4863 
L 1178 4134 
L 603 4134 
L 603 4863 
z
" transform="scale(0.015625)"/>
      <path id="DejaVuSans-6e" d="M 3513 2113 
L 3513 0 
L 2938 0 
L 2938 2094 
Q 2938 2591 2744 2837 
Q 2550 3084 2163 3084 
Q 1697 3084 1428 2787 
Q 1159 2491 1159 1978 
L 1159 0 
L 581 0 
L 581 3500 
L 1159 3500 
L 1159 2956 
Q 1366 3272 1645 3428 
Q 1925 3584 2291 3584 
Q 2894 3584 3203 3211 
Q 3513 2838 3513 2113 
z
" transform="scale(0.015625)"/>
     </defs>
     <use xlink:href="#DejaVuSans-56"/>
     <use xlink:href="#DejaVuSans-69" transform="translate(66.158203 0)"/>
     <use xlink:href="#DejaVuSans-6e" transform="translate(93.941406 0)"/>
    </g>
   </g>
   <g id="patch_2">
    <path d="M 222.276 14.38 
C 222.992048 14.38 223.678866 14.095511 224.185188 13.589188 
C 224.691511 13.082866 224.976 12.396048 224.976 11.68 
C 224.976 10.963952 224.691511 10.277134 224.185188 9.770812 
C 223.678866 9.264489 222.992048 8.98 222.276 8.98 
C 221.559952 8.98 220.873134 9.264489 220.366812 9.770812 
C 219.860489 10.277134 219.576 10.963952 219.576 11.68 
C 219.576 12.396048 219.860489 13.082866 220.366812 13.589188 
C 220.873134 14.095511 221.559952 14.38 222.276 14.38 
z
" clip-path="url(#pefe28c5929)" style="stroke: #000000; stroke-width: 2; stroke-linejoin: miter"/>
   </g>
   <g id="text_2">
    <!-- C -->
    <g transform="translate(228.576 15.543125) scale(0.14 -0.14)">
     <defs>
      <path id="DejaVuSans-43" d="M 4122 4306 
L 4122 3641 
Q 3803 3938 3442 4084 
Q 3081 4231 2675 4231 
Q 1875 4231 1450 3742 
Q 1025 3253 1025 2328 
Q 1025 1406 1450 917 
Q 1875 428 2675 428 
Q 3081 428 3442 575 
Q 3803 722 4122 1019 
L 4122 359 
Q 3791 134 3420 21 
Q 3050 -91 2638 -91 
Q 1578 -91 968 557 
Q 359 1206 359 2328 
Q 359 3453 968 4101 
Q 1578 4750 2638 4750 
Q 3056 4750 3426 4639 
Q 3797 4528 4122 4306 
z
" transform="scale(0.015625)"/>
     </defs>
     <use xlink:href="#DejaVuSans-43"/>
    </g>
   </g>
   <g id="patch_3">
    <path d="M 139.5432 83.801062 
C 140.259249 83.801062 140.946066 83.516573 141.452388 83.01025 
C 141.958711 82.503927 142.2432 81.81711 142.2432 81.101062 
C 142.2432 80.385013 141.958711 79.698196 141.452388 79.191874 
C 140.946066 78.685551 140.259249 78.401062 139.5432 78.401062 
C 138.827152 78.401062 138.140334 78.685551 137.634012 79.191874 
C 137.127689 79.698196 136.8432 80.385013 136.8432 81.101062 
C 136.8432 81.81711 137.127689 82.503927 137.634012 83.01025 
C 138.140334 83.516573 138.827152 83.801062 139.5432 83.801062 
z
" clip-path="url(#pefe28c5929)" style="stroke: #000000; stroke-width: 2; stroke-linejoin: miter"/>
   </g>
   <g id="text_3">
    <!-- R1 -->
    <g transform="translate(153.141004 34.694572) scale(0.14 -0.14)">
     <defs>
      <path id="DejaVuSans-52" d="M 2841 2188 
Q 3044 2119 3236 1894 
Q 3428 1669 3622 1275 
L 4263 0 
L 3584 0 
L 2988 1197 
Q 2756 1666 2539 1819 
Q 2322 1972 1947 1972 
L 1259 1972 
L 1259 0 
L 628 0 
L 628 4666 
L 2053 4666 
Q 2853 4666 3247 4331 
Q 3641 3997 3641 3322 
Q 3641 2881 3436 2590 
Q 3231 2300 2841 2188 
z
M 1259 4147 
L 1259 2491 
L 2053 2491 
Q 2509 2491 2742 2702 
Q 2975 2913 2975 3322 
Q 2975 3731 2742 3939 
Q 2509 4147 2053 4147 
L 1259 4147 
z
" transform="scale(0.015625)"/>
      <path id="DejaVuSans-31" d="M 794 531 
L 1825 531 
L 1825 4091 
L 703 3866 
L 703 4441 
L 1819 4666 
L 2450 4666 
L 2450 531 
L 3481 531 
L 3481 0 
L 794 0 
L 794 531 
z
" transform="scale(0.015625)"/>
     </defs>
     <use xlink:href="#DejaVuSans-52"/>
     <use xlink:href="#DejaVuSans-31" transform="translate(69.482422 0)"/>
    </g>
   </g>
   <g id="text_4">
    <!-- B -->
    <g transform="translate(125.111808 95.788436) scale(0.14 -0.14)">
     <defs>
      <path id="DejaVuSans-42" d="M 1259 2228 
L 1259 519 
L 2272 519 
Q 2781 519 3026 730 
Q 3272 941 3272 1375 
Q 3272 1813 3026 2020 
Q 2781 2228 2272 2228 
L 1259 2228 
z
M 1259 4147 
L 1259 2741 
L 2194 2741 
Q 2656 2741 2882 2914 
Q 3109 3088 3109 3444 
Q 3109 3797 2882 3972 
Q 2656 4147 2194 4147 
L 1259 4147 
z
M 628 4666 
L 2241 4666 
Q 2963 4666 3353 4366 
Q 3744 4066 3744 3513 
Q 3744 3084 3544 2831 
Q 3344 2578 2956 2516 
Q 3422 2416 3680 2098 
Q 3938 1781 3938 1306 
Q 3938 681 3513 340 
Q 3088 0 2303 0 
L 628 0 
L 628 4666 
z
" transform="scale(0.015625)"/>
     </defs>
     <use xlink:href="#DejaVuSans-42"/>
    </g>
   </g>
   <g id="patch_4">
    <path d="M 208.964262 166.533862 
C 209.68031 166.533862 210.367128 166.249373 210.87345 165.74305 
C 211.379773 165.236727 211.664262 164.54991 211.664262 163.833862 
C 211.664262 163.117813 211.379773 162.430996 210.87345 161.924673 
C 210.367128 161.418351 209.68031 161.133862 208.964262 161.133862 
C 208.248214 161.133862 207.561396 161.418351 207.055074 161.924673 
C 206.548751 162.430996 206.264262 163.117813 206.264262 163.833862 
C 206.264262 164.54991 206.548751 165.236727 207.055074 165.74305 
C 207.561396 166.249373 208.248214 166.533862 208.964262 166.533862 
z
" clip-path="url(#pefe28c5929)" style="stroke: #000000; stroke-width: 2; stroke-linejoin: miter"/>
   </g>
   <g id="text_5">
    <!-- R2 -->
    <g transform="translate(184.773654 112.490935) scale(0.14 -0.14)">
     <defs>
      <path id="DejaVuSans-32" d="M 1228 531 
L 3431 531 
L 3431 0 
L 469 0 
L 469 531 
Q 828 903 1448 1529 
Q 2069 2156 2228 2338 
Q 2531 2678 2651 2914 
Q 2772 3150 2772 3378 
Q 2772 3750 2511 3984 
Q 2250 4219 1831 4219 
Q 1534 4219 1204 4116 
Q 875 4013 500 3803 
L 500 4441 
Q 881 4594 1212 4672 
Q 1544 4750 1819 4750 
Q 2544 4750 2975 4387 
Q 3406 4025 3406 3419 
Q 3406 3131 3298 2873 
Q 3191 2616 2906 2266 
Q 2828 2175 2409 1742 
Q 1991 1309 1228 531 
z
" transform="scale(0.015625)"/>
     </defs>
     <use xlink:href="#DejaVuSans-52"/>
     <use xlink:href="#DejaVuSans-32" transform="translate(69.482422 0)"/>
    </g>
   </g>
   <g id="text_6">
    <!-- A -->
    <g transform="translate(213.013824 179.297754) scale(0.14 -0.14)">
     <defs>
      <path id="DejaVuSans-41" d="M 2188 4044 
L 1331 1722 
L 3047 1722 
L 2188 4044 
z
M 1831 4666 
L 2547 4666 
L 4325 0 
L 3669 0 
L 3244 1197 
L 1141 1197 
L 716 0 
L 50 0 
L 1831 4666 
z
" transform="scale(0.015625)"/>
     </defs>
     <use xlink:href="#DejaVuSans-41"/>
    </g>
   </g>
   <g id="patch_5">
    <path d="M 291.697062 97.1128 
C 292.41311 97.1128 293.099927 96.828311 293.60625 96.321988 
C 294.112573 95.815666 294.397062 95.128848 294.397062 94.4128 
C 294.397062 93.696751 294.112573 93.009934 293.60625 92.503612 
C 293.099927 91.997289 292.41311 91.7128 291.697062 91.7128 
C 290.981013 91.7128 290.294196 91.997289 289.787874 92.503612 
C 289.281551 93.009934 288.997062 93.696751 288.997062 94.4128 
C 288.997062 95.128848 289.281551 95.815666 289.787874 96.321988 
C 290.294196 96.828311 290.981013 97.1128 291.697062 97.1128 
z
" clip-path="url(#pefe28c5929)" style="stroke: #000000; stroke-width: 2; stroke-linejoin: miter"/>
   </g>
   <g id="text_7">
    <!-- R3 -->
    <g transform="translate(224.630386 115.691845) scale(0.14 -0.14)">
     <defs>
      <path id="DejaVuSans-33" d="M 2597 2516 
Q 3050 2419 3304 2112 
Q 3559 1806 3559 1356 
Q 3559 666 3084 287 
Q 2609 -91 1734 -91 
Q 1441 -91 1130 -33 
Q 819 25 488 141 
L 488 750 
Q 750 597 1062 519 
Q 1375 441 1716 441 
Q 2309 441 2620 675 
Q 2931 909 2931 1356 
Q 2931 1769 2642 2001 
Q 2353 2234 1838 2234 
L 1294 2234 
L 1294 2753 
L 1863 2753 
Q 2328 2753 2575 2939 
Q 2822 3125 2822 3475 
Q 2822 3834 2567 4026 
Q 2313 4219 1838 4219 
Q 1578 4219 1281 4162 
Q 984 4106 628 3988 
L 628 4550 
Q 988 4650 1302 4700 
Q 1616 4750 1894 4750 
Q 2613 4750 3031 4423 
Q 3450 4097 3450 3541 
Q 3450 3153 3228 2886 
Q 3006 2619 2597 2516 
z
" transform="scale(0.015625)"/>
     </defs>
     <use xlink:href="#DejaVuSans-52"/>
     <use xlink:href="#DejaVuSans-33" transform="translate(69.482422 0)"/>
    </g>
   </g>
   <g id="text_8">
    <!-- D -->
    <g transform="translate(296.523142 87.451675) scale(0.14 -0.14)">
     <defs>
      <path id="DejaVuSans-44" d="M 1259 4147 
L 1259 519 
L 2022 519 
Q 2988 519 3436 956 
Q 3884 1394 3884 2338 
Q 3884 3275 3436 3711 
Q 2988 4147 2022 4147 
L 1259 4147 
z
M 628 4666 
L 1925 4666 
Q 3281 4666 3915 4102 
Q 4550 3538 4550 2338 
Q 4550 1131 3912 565 
Q 3275 0 1925 0 
L 628 0 
L 628 4666 
z
" transform="scale(0.015625)"/>
     </defs>
     <use xlink:href="#DejaVuSans-44"/>
    </g>
   </g>
   <g id="text_9">
    <!-- R4 or Rg -->
    <g transform="translate(266.638691 42.035714) scale(0.14 -0.14)">
     <defs>
      <path id="DejaVuSans-34" d="M 2419 4116 
L 825 1625 
L 2419 1625 
L 2419 4116 
z
M 2253 4666 
L 3047 4666 
L 3047 1625 
L 3713 1625 
L 3713 1100 
L 3047 1100 
L 3047 0 
L 2419 0 
L 2419 1100 
L 313 1100 
L 313 1709 
L 2253 4666 
z
" transform="scale(0.015625)"/>
      <path id="DejaVuSans-20" transform="scale(0.015625)"/>
      <path id="DejaVuSans-6f" d="M 1959 3097 
Q 1497 3097 1228 2736 
Q 959 2375 959 1747 
Q 959 1119 1226 758 
Q 1494 397 1959 397 
Q 2419 397 2687 759 
Q 2956 1122 2956 1747 
Q 2956 2369 2687 2733 
Q 2419 3097 1959 3097 
z
M 1959 3584 
Q 2709 3584 3137 3096 
Q 3566 2609 3566 1747 
Q 3566 888 3137 398 
Q 2709 -91 1959 -91 
Q 1206 -91 779 398 
Q 353 888 353 1747 
Q 353 2609 779 3096 
Q 1206 3584 1959 3584 
z
" transform="scale(0.015625)"/>
      <path id="DejaVuSans-72" d="M 2631 2963 
Q 2534 3019 2420 3045 
Q 2306 3072 2169 3072 
Q 1681 3072 1420 2755 
Q 1159 2438 1159 1844 
L 1159 0 
L 581 0 
L 581 3500 
L 1159 3500 
L 1159 2956 
Q 1341 3275 1631 3429 
Q 1922 3584 2338 3584 
Q 2397 3584 2469 3576 
Q 2541 3569 2628 3553 
L 2631 2963 
z
" transform="scale(0.015625)"/>
      <path id="DejaVuSans-67" d="M 2906 1791 
Q 2906 2416 2648 2759 
Q 2391 3103 1925 3103 
Q 1463 3103 1205 2759 
Q 947 2416 947 1791 
Q 947 1169 1205 825 
Q 1463 481 1925 481 
Q 2391 481 2648 825 
Q 2906 1169 2906 1791 
z
M 3481 434 
Q 3481 -459 3084 -895 
Q 2688 -1331 1869 -1331 
Q 1566 -1331 1297 -1286 
Q 1028 -1241 775 -1147 
L 775 -588 
Q 1028 -725 1275 -790 
Q 1522 -856 1778 -856 
Q 2344 -856 2625 -561 
Q 2906 -266 2906 331 
L 2906 616 
Q 2728 306 2450 153 
Q 2172 0 1784 0 
Q 1141 0 747 490 
Q 353 981 353 1791 
Q 353 2603 747 3093 
Q 1141 3584 1784 3584 
Q 2172 3584 2450 3431 
Q 2728 3278 2906 2969 
L 2906 3500 
L 3481 3500 
L 3481 434 
z
" transform="scale(0.015625)"/>
     </defs>
     <use xlink:href="#DejaVuSans-52"/>
     <use xlink:href="#DejaVuSans-34" transform="translate(69.482422 0)"/>
     <use xlink:href="#DejaVuSans-20" transform="translate(133.105469 0)"/>
     <use xlink:href="#DejaVuSans-6f" transform="translate(164.892578 0)"/>
     <use xlink:href="#DejaVuSans-72" transform="translate(226.074219 0)"/>
     <use xlink:href="#DejaVuSans-20" transform="translate(267.1875 0)"/>
     <use xlink:href="#DejaVuSans-52" transform="translate(298.974609 0)"/>
     <use xlink:href="#DejaVuSans-67" transform="translate(368.457031 0)"/>
    </g>
   </g>
  </g>
 </g>
 <defs>
  <clipPath id="pefe28c5929">
   <rect x="0" y="0" width="325.330691" height="232.36"/>
  </clipPath>
 </defs>
</svg>