<?xml version="1.0" encoding="utf-8" standalone="no"?>
<!DOCTYPE svg PUBLIC "-//W3C//DTD SVG 1.1//EN"
  "http://www.w3.org/Graphics/SVG/1.1/DTD/svg11.dtd">
<svg xmlns:xlink="http://www.w3.org/1999/xlink" width="391.506pt" height="160.7pt" viewBox="0 0 391.506 160.7" xmlns="http://www.w3.org/2000/svg" version="1.1">
 <metadata>
  <rdf:RDF xmlns:dc="http://purl.org/dc/elements/1.1/" xmlns:cc="http://creativecommons.org/ns#" xmlns:rdf="http://www.w3.org/1999/02/22-rdf-syntax-ns#">
   <cc:Work>
    <dc:type rdf:resource="http://purl.org/dc/dcmitype/StillImage"/>
    <dc:date>2025-05-14T19:09:50.579809</dc:date>
    <dc:format>image/svg+xml</dc:format>
    <dc:creator>
     <cc:Agent>
      <dc:title>Matplotlib v3.10.3, https://matplotlib.org/</dc:title>
     </cc:Agent>
    </dc:creator>
   </cc:Work>
  </rdf:RDF>
 </metadata>
 <defs>
  <style type="text/css">*{stroke-linejoin: round; stroke-linecap: butt}</style>
 </defs>
 <g id="figure_1">
  <g id="patch_1">
   <path d="M 0 160.7 
L 391.506 160.7 
L 391.506 0 
L 0 0 
z
" style="fill: #ffffff"/>
  </g>
  <g id="axes_1">
   <g id="line2d_1">
    <path d="M 196.482 24.98 
L 241.482 24.98 
L 286.482 24.98 
" clip-path="url(#p7b5c23e4ad)" style="fill: none; stroke: #000000; stroke-width: 2; stroke-linecap: round"/>
   </g>
   <g id="line2d_2">
    <path d="M 286.482 24.98 
L 304.482 24.98 
L 322.482 24.98 
" clip-path="url(#p7b5c23e4ad)" style="fill: none; stroke: #000000; stroke-width: 2; stroke-linecap: round"/>
   </g>
   <g id="line2d_3">
    <path d="M 322.482 24.98 
L 322.482 60.98 
L 331.482 63.98 
L 313.482 69.98 
L 331.482 75.98 
L 313.482 81.98 
L 331.482 87.98 
L 313.482 93.98 
L 322.482 96.98 
L 322.482 132.98 
" clip-path="url(#p7b5c23e4ad)" style="fill: none; stroke: #000000; stroke-width: 2; stroke-linecap: round"/>
   </g>
   <g id="line2d_4">
    <path d="M 322.482 132.98 
L 322.482 147.38 
L 313.482 147.38 
L 331.482 147.38 
M 316.182 151.7 
L 328.782 151.7 
M 320.682 156.02 
L 324.282 156.02 
" clip-path="url(#p7b5c23e4ad)" style="fill: none; stroke: #000000; stroke-width: 2; stroke-linecap: round"/>
   </g>
   <g id="line2d_5">
    <path d="M 196.482 24.98 
L 196.482 60.98 
L 214.482 78.98 
L 196.482 96.98 
L 178.482 78.98 
L 196.482 60.98 
M 196.482 96.98 
L 196.482 132.98 
" clip-path="url(#p7b5c23e4ad)" style="fill: none; stroke: #000000; stroke-width: 2; stroke-linecap: round"/>
   </g>
   <g id="line2d_6">
    <path d="M 196.482 69.98 
L 196.482 78.98 
" clip-path="url(#p7b5c23e4ad)" style="fill: none; stroke: #000000; stroke-width: 2; stroke-linecap: round"/>
   </g>
   <g id="patch_2">
    <path d="M 199.182 78.98 
L 196.482 87.98 
L 193.782 78.98 
z
" clip-path="url(#p7b5c23e4ad)"/>
   </g>
   <g id="line2d_7">
    <path d="M 196.482 132.98 
L 178.482 132.98 
L 160.482 132.98 
" clip-path="url(#p7b5c23e4ad)" style="fill: none; stroke: #000000; stroke-width: 2; stroke-linecap: round"/>
   </g>
   <g id="line2d_8">
    <path d="M 160.482 132.98 
L 160.482 147.38 
L 151.482 147.38 
L 169.482 147.38 
M 154.182 151.7 
L 166.782 151.7 
M 158.682 156.02 
L 162.282 156.02 
" clip-path="url(#p7b5c23e4ad)" style="fill: none; stroke: #000000; stroke-width: 2; stroke-linecap: round"/>
   </g>
   <g id="line2d_9">
    <path d="M 160.482 132.98 
L 142.482 132.98 
L 124.482 132.98 
" clip-path="url(#p7b5c23e4ad)" style="fill: none; stroke: #000000; stroke-width: 2; stroke-linecap: round"/>
   </g>
   <g id="line2d_10">
    <path d="M 124.482 24.98 
L 97.482 24.98 
L 70.482 24.98 
" clip-path="url(#p7b5c23e4ad)" style="fill: none; stroke: #000000; stroke-width: 2; stroke-linecap: round"/>
   </g>
   <g id="line2d_11">
    <path d="M 70.482 24.98 
L 70.482 60.98 
L 79.482 63.98 
L 61.482 69.98 
L 79.482 75.98 
L 61.482 81.98 
L 79.482 87.98 
L 61.482 93.98 
L 70.482 96.98 
L 70.482 132.98 
" clip-path="url(#p7b5c23e4ad)" style="fill: none; stroke: #000000; stroke-width: 2; stroke-linecap: round"/>
   </g>
   <g id="line2d_12">
    <path d="M 70.482 132.98 
L 70.482 147.38 
L 61.482 147.38 
L 79.482 147.38 
M 64.182 151.7 
L 76.782 151.7 
M 68.682 156.02 
L 72.282 156.02 
" clip-path="url(#p7b5c23e4ad)" style="fill: none; stroke: #000000; stroke-width: 2; stroke-linecap: round"/>
   </g>
   <g id="line2d_13">
    <path d="M 70.482 24.98 
L 43.482 24.98 
L 16.482 24.98 
" clip-path="url(#p7b5c23e4ad)" style="fill: none; stroke: #000000; stroke-width: 2; stroke-linecap: round"/>
   </g>
   <g id="text_1">
    <!-- $R_D||R_L$ -->
    <g transform="translate(335.082 82.69) scale(0.14 -0.14)">
     <defs>
      <path id="DejaVuSans-Oblique-52" d="M 1613 4147 
L 1294 2491 
L 2106 2491 
Q 2584 2491 2879 2755 
Q 3175 3019 3175 3444 
Q 3175 3784 2976 3965 
Q 2778 4147 2406 4147 
L 1613 4147 
z
M 2772 2241 
Q 2972 2194 3105 2009 
Q 3238 1825 3413 1275 
L 3809 0 
L 3144 0 
L 2778 1197 
Q 2638 1659 2453 1815 
Q 2269 1972 1888 1972 
L 1191 1972 
L 806 0 
L 172 0 
L 1081 4666 
L 2503 4666 
Q 3150 4666 3495 4373 
Q 3841 4081 3841 3531 
Q 3841 3044 3547 2687 
Q 3253 2331 2772 2241 
z
" transform="scale(0.015625)"/>
      <path id="DejaVuSans-Oblique-44" d="M 1081 4666 
L 2438 4666 
Q 3519 4666 4070 4208 
Q 4622 3750 4622 2847 
Q 4622 2250 4412 1698 
Q 4203 1147 3834 769 
Q 3463 381 2891 190 
Q 2319 0 1538 0 
L 172 0 
L 1081 4666 
z
M 1613 4147 
L 909 519 
L 1734 519 
Q 2794 519 3375 1128 
Q 3956 1738 3956 2847 
Q 3956 3519 3581 3833 
Q 3206 4147 2406 4147 
L 1613 4147 
z
" transform="scale(0.015625)"/>
      <path id="DejaVuSans-7c" d="M 1344 4891 
L 1344 -1509 
L 813 -1509 
L 813 4891 
L 1344 4891 
z
" transform="scale(0.015625)"/>
      <path id="DejaVuSans-Oblique-4c" d="M 1075 4666 
L 1709 4666 
L 909 525 
L 3181 525 
L 3078 0 
L 172 0 
L 1075 4666 
z
" transform="scale(0.015625)"/>
     </defs>
     <use xlink:href="#DejaVuSans-Oblique-52" transform="translate(0 0.578125)"/>
     <use xlink:href="#DejaVuSans-Oblique-44" transform="translate(69.482422 -15.828125) scale(0.7)"/>
     <use xlink:href="#DejaVuSans-7c" transform="translate(126.118164 0.578125)"/>
     <use xlink:href="#DejaVuSans-7c" transform="translate(159.80957 0.578125)"/>
     <use xlink:href="#DejaVuSans-Oblique-52" transform="translate(193.500977 0.578125)"/>
     <use xlink:href="#DejaVuSans-Oblique-4c" transform="translate(262.983398 -15.828125) scale(0.7)"/>
    </g>
   </g>
   <g id="text_2">
    <!-- $g_mV_{GS}$ -->
    <g transform="translate(218.082 82.814688) scale(0.14 -0.14)">
     <defs>
      <path id="DejaVuSans-Oblique-67" d="M 3816 3500 
L 3219 434 
Q 3047 -456 2561 -893 
Q 2075 -1331 1253 -1331 
Q 950 -1331 690 -1286 
Q 431 -1241 206 -1147 
L 313 -588 
Q 525 -725 762 -790 
Q 1000 -856 1269 -856 
Q 1816 -856 2167 -557 
Q 2519 -259 2631 300 
L 2681 563 
Q 2441 288 2122 144 
Q 1803 0 1434 0 
Q 903 0 598 351 
Q 294 703 294 1319 
Q 294 1803 478 2267 
Q 663 2731 997 3091 
Q 1219 3328 1514 3456 
Q 1809 3584 2131 3584 
Q 2484 3584 2746 3420 
Q 3009 3256 3138 2956 
L 3238 3500 
L 3816 3500 
z
M 2950 2216 
Q 2950 2641 2750 2872 
Q 2550 3103 2181 3103 
Q 1953 3103 1747 3012 
Q 1541 2922 1394 2759 
Q 1156 2491 1023 2127 
Q 891 1763 891 1375 
Q 891 944 1092 712 
Q 1294 481 1672 481 
Q 2219 481 2584 976 
Q 2950 1472 2950 2216 
z
" transform="scale(0.015625)"/>
      <path id="DejaVuSans-Oblique-6d" d="M 5747 2113 
L 5338 0 
L 4763 0 
L 5166 2094 
Q 5191 2228 5203 2325 
Q 5216 2422 5216 2491 
Q 5216 2772 5059 2928 
Q 4903 3084 4622 3084 
Q 4203 3084 3875 2770 
Q 3547 2456 3450 1953 
L 3066 0 
L 2491 0 
L 2900 2094 
Q 2925 2209 2937 2307 
Q 2950 2406 2950 2484 
Q 2950 2769 2794 2926 
Q 2638 3084 2363 3084 
Q 1938 3084 1609 2770 
Q 1281 2456 1184 1953 
L 800 0 
L 225 0 
L 909 3500 
L 1484 3500 
L 1375 2956 
Q 1609 3263 1923 3423 
Q 2238 3584 2597 3584 
Q 2978 3584 3223 3384 
Q 3469 3184 3519 2828 
Q 3781 3197 4126 3390 
Q 4472 3584 4856 3584 
Q 5306 3584 5551 3325 
Q 5797 3066 5797 2591 
Q 5797 2488 5784 2364 
Q 5772 2241 5747 2113 
z
" transform="scale(0.015625)"/>
      <path id="DejaVuSans-Oblique-56" d="M 1319 0 
L 500 4666 
L 1119 4666 
L 1797 653 
L 4063 4666 
L 4750 4666 
L 2053 0 
L 1319 0 
z
" transform="scale(0.015625)"/>
      <path id="DejaVuSans-Oblique-47" d="M 3494 697 
L 3738 1919 
L 2700 1919 
L 2797 2438 
L 4453 2438 
L 4050 384 
Q 3634 156 3143 32 
Q 2653 -91 2156 -91 
Q 1278 -91 783 396 
Q 288 884 288 1753 
Q 288 2475 589 3126 
Q 891 3778 1422 4213 
Q 1756 4484 2153 4617 
Q 2550 4750 3034 4750 
Q 3472 4750 3873 4639 
Q 4275 4528 4641 4306 
L 4513 3634 
Q 4231 3928 3853 4083 
Q 3475 4238 3047 4238 
Q 2550 4238 2172 4048 
Q 1794 3859 1497 3463 
Q 1244 3125 1098 2667 
Q 953 2209 953 1734 
Q 953 1081 1287 751 
Q 1622 422 2284 422 
Q 2616 422 2925 492 
Q 3234 563 3494 697 
z
" transform="scale(0.015625)"/>
      <path id="DejaVuSans-Oblique-53" d="M 3859 4513 
L 3738 3897 
Q 3422 4066 3111 4152 
Q 2800 4238 2509 4238 
Q 1944 4238 1609 3991 
Q 1275 3744 1275 3334 
Q 1275 3109 1398 2989 
Q 1522 2869 2034 2731 
L 2413 2638 
Q 3053 2472 3303 2217 
Q 3553 1963 3553 1503 
Q 3553 797 2998 353 
Q 2444 -91 1538 -91 
Q 1166 -91 791 -17 
Q 416 56 38 206 
L 166 856 
Q 513 641 861 531 
Q 1209 422 1556 422 
Q 2147 422 2503 684 
Q 2859 947 2859 1369 
Q 2859 1650 2717 1795 
Q 2575 1941 2106 2059 
L 1728 2156 
Q 1081 2325 845 2545 
Q 609 2766 609 3163 
Q 609 3859 1145 4304 
Q 1681 4750 2541 4750 
Q 2875 4750 3203 4690 
Q 3531 4631 3859 4513 
z
" transform="scale(0.015625)"/>
     </defs>
     <use xlink:href="#DejaVuSans-Oblique-67" transform="translate(0 0.09375)"/>
     <use xlink:href="#DejaVuSans-Oblique-6d" transform="translate(63.476562 -16.3125) scale(0.7)"/>
     <use xlink:href="#DejaVuSans-Oblique-56" transform="translate(134.399414 0.09375)"/>
     <use xlink:href="#DejaVuSans-Oblique-47" transform="translate(202.807617 -16.3125) scale(0.7)"/>
     <use xlink:href="#DejaVuSans-Oblique-53" transform="translate(257.050781 -16.3125) scale(0.7)"/>
    </g>
   </g>
   <g id="text_3">
    <!-- $R_1||R_2$ -->
    <g transform="translate(15.742 82.69) scale(0.14 -0.14)">
     <defs>
      <path id="DejaVuSans-31" d="M 794 531 
L 1825 531 
L 1825 4091 
L 703 3866 
L 703 4441 
L 1819 4666 
L 2450 4666 
L 2450 531 
L 3481 531 
L 3481 0 
L 794 0 
L 794 531 
z
" transform="scale(0.015625)"/>
      <path id="DejaVuSans-32" d="M 1228 531 
L 3431 531 
L 3431 0 
L 469 0 
L 469 531 
Q 828 903 1448 1529 
Q 2069 2156 2228 2338 
Q 2531 2678 2651 2914 
Q 2772 3150 2772 3378 
Q 2772 3750 2511 3984 
Q 2250 4219 1831 4219 
Q 1534 4219 1204 4116 
Q 875 4013 500 3803 
L 500 4441 
Q 881 4594 1212 4672 
Q 1544 4750 1819 4750 
Q 2544 4750 2975 4387 
Q 3406 4025 3406 3419 
Q 3406 3131 3298 2873 
Q 3191 2616 2906 2266 
Q 2828 2175 2409 1742 
Q 1991 1309 1228 531 
z
" transform="scale(0.015625)"/>
     </defs>
     <use xlink:href="#DejaVuSans-Oblique-52" transform="translate(0 0.578125)"/>
     <use xlink:href="#DejaVuSans-31" transform="translate(69.482422 -15.828125) scale(0.7)"/>
     <use xlink:href="#DejaVuSans-7c" transform="translate(116.75293 0.578125)"/>
     <use xlink:href="#DejaVuSans-7c" transform="translate(150.444336 0.578125)"/>
     <use xlink:href="#DejaVuSans-Oblique-52" transform="translate(184.135742 0.578125)"/>
     <use xlink:href="#DejaVuSans-32" transform="translate(253.618164 -15.828125) scale(0.7)"/>
    </g>
   </g>
   <g id="patch_3">
    <path d="M 196.482 27.68 
C 197.198048 27.68 197.884866 27.395511 198.391188 26.889188 
C 198.897511 26.382866 199.182 25.696048 199.182 24.98 
C 199.182 24.263952 198.897511 23.577134 198.391188 23.070812 
C 197.884866 22.564489 197.198048 22.28 196.482 22.28 
C 195.765952 22.28 195.079134 22.564489 194.572812 23.070812 
C 194.066489 23.577134 193.782 24.263952 193.782 24.98 
C 193.782 25.696048 194.066489 26.382866 194.572812 26.889188 
C 195.079134 27.395511 195.765952 27.68 196.482 27.68 
z
" clip-path="url(#p7b5c23e4ad)" style="stroke: #000000; stroke-width: 2; stroke-linejoin: miter"/>
   </g>
   <g id="text_4">
    <!-- $D$ -->
    <g transform="translate(191.022 15.768438) scale(0.14 -0.14)">
     <use xlink:href="#DejaVuSans-Oblique-44" transform="translate(0 0.09375)"/>
    </g>
   </g>
   <g id="patch_4">
    <path d="M 286.482 27.68 
C 287.198048 27.68 287.884866 27.395511 288.391188 26.889188 
C 288.897511 26.382866 289.182 25.696048 289.182 24.98 
C 289.182 24.263952 288.897511 23.577134 288.391188 23.070812 
C 287.884866 22.564489 287.198048 22.28 286.482 22.28 
C 285.765952 22.28 285.079134 22.564489 284.572812 23.070812 
C 284.066489 23.577134 283.782 24.263952 283.782 24.98 
C 283.782 25.696048 284.066489 26.382866 284.572812 26.889188 
C 285.079134 27.395511 285.765952 27.68 286.482 27.68 
z
" clip-path="url(#p7b5c23e4ad)" style="stroke: #000000; stroke-width: 2; stroke-linejoin: miter"/>
   </g>
   <g id="text_5">
    <!-- $V_{out}$ -->
    <g transform="translate(273.462 15.768438) scale(0.14 -0.14)">
     <defs>
      <path id="DejaVuSans-Oblique-6f" d="M 1625 -91 
Q 1009 -91 651 289 
Q 294 669 294 1325 
Q 294 1706 417 2101 
Q 541 2497 738 2766 
Q 1047 3184 1428 3384 
Q 1809 3584 2291 3584 
Q 2888 3584 3255 3212 
Q 3622 2841 3622 2241 
Q 3622 1825 3500 1412 
Q 3378 1000 3181 728 
Q 2875 309 2494 109 
Q 2113 -91 1625 -91 
z
M 891 1344 
Q 891 869 1089 633 
Q 1288 397 1691 397 
Q 2269 397 2648 901 
Q 3028 1406 3028 2181 
Q 3028 2634 2825 2865 
Q 2622 3097 2228 3097 
Q 1903 3097 1650 2945 
Q 1397 2794 1197 2484 
Q 1050 2253 970 1956 
Q 891 1659 891 1344 
z
" transform="scale(0.015625)"/>
      <path id="DejaVuSans-Oblique-75" d="M 428 1388 
L 838 3500 
L 1416 3500 
L 1006 1409 
Q 975 1256 961 1147 
Q 947 1038 947 966 
Q 947 700 1109 554 
Q 1272 409 1569 409 
Q 2031 409 2368 721 
Q 2706 1034 2809 1563 
L 3194 3500 
L 3769 3500 
L 3091 0 
L 2516 0 
L 2631 550 
Q 2388 244 2052 76 
Q 1716 -91 1338 -91 
Q 878 -91 622 161 
Q 366 413 366 863 
Q 366 956 381 1097 
Q 397 1238 428 1388 
z
" transform="scale(0.015625)"/>
      <path id="DejaVuSans-Oblique-74" d="M 2706 3500 
L 2619 3053 
L 1472 3053 
L 1100 1153 
Q 1081 1047 1072 975 
Q 1063 903 1063 863 
Q 1063 663 1183 572 
Q 1303 481 1569 481 
L 2150 481 
L 2053 0 
L 1503 0 
Q 991 0 739 200 
Q 488 400 488 806 
Q 488 878 497 964 
Q 506 1050 525 1153 
L 897 3053 
L 409 3053 
L 500 3500 
L 978 3500 
L 1172 4494 
L 1747 4494 
L 1556 3500 
L 2706 3500 
z
" transform="scale(0.015625)"/>
     </defs>
     <use xlink:href="#DejaVuSans-Oblique-56" transform="translate(0 0.09375)"/>
     <use xlink:href="#DejaVuSans-Oblique-6f" transform="translate(68.408203 -16.3125) scale(0.7)"/>
     <use xlink:href="#DejaVuSans-Oblique-75" transform="translate(111.235352 -16.3125) scale(0.7)"/>
     <use xlink:href="#DejaVuSans-Oblique-74" transform="translate(155.600586 -16.3125) scale(0.7)"/>
    </g>
   </g>
   <g id="patch_5">
    <path d="M 160.482 135.68 
C 161.198048 135.68 161.884866 135.395511 162.391188 134.889188 
C 162.897511 134.382866 163.182 133.696048 163.182 132.98 
C 163.182 132.263952 162.897511 131.577134 162.391188 131.070812 
C 161.884866 130.564489 161.198048 130.28 160.482 130.28 
C 159.765952 130.28 159.079134 130.564489 158.572812 131.070812 
C 158.066489 131.577134 157.782 132.263952 157.782 132.98 
C 157.782 133.696048 158.066489 134.382866 158.572812 134.889188 
C 159.079134 135.395511 159.765952 135.68 160.482 135.68 
z
" clip-path="url(#p7b5c23e4ad)" style="stroke: #000000; stroke-width: 2; stroke-linejoin: miter"/>
   </g>
   <g id="text_6">
    <!-- S -->
    <g transform="translate(156.038094 123.768438) scale(0.14 -0.14)">
     <defs>
      <path id="DejaVuSans-53" d="M 3425 4513 
L 3425 3897 
Q 3066 4069 2747 4153 
Q 2428 4238 2131 4238 
Q 1616 4238 1336 4038 
Q 1056 3838 1056 3469 
Q 1056 3159 1242 3001 
Q 1428 2844 1947 2747 
L 2328 2669 
Q 3034 2534 3370 2195 
Q 3706 1856 3706 1288 
Q 3706 609 3251 259 
Q 2797 -91 1919 -91 
Q 1588 -91 1214 -16 
Q 841 59 441 206 
L 441 856 
Q 825 641 1194 531 
Q 1563 422 1919 422 
Q 2459 422 2753 634 
Q 3047 847 3047 1241 
Q 3047 1584 2836 1778 
Q 2625 1972 2144 2069 
L 1759 2144 
Q 1053 2284 737 2584 
Q 422 2884 422 3419 
Q 422 4038 858 4394 
Q 1294 4750 2059 4750 
Q 2388 4750 2728 4690 
Q 3069 4631 3425 4513 
z
" transform="scale(0.015625)"/>
     </defs>
     <use xlink:href="#DejaVuSans-53"/>
    </g>
   </g>
   <g id="patch_6">
    <path d="M 124.482 135.68 
C 125.198048 135.68 125.884866 135.395511 126.391188 134.889188 
C 126.897511 134.382866 127.182 133.696048 127.182 132.98 
C 127.182 132.263952 126.897511 131.577134 126.391188 131.070812 
C 125.884866 130.564489 125.198048 130.28 124.482 130.28 
C 123.765952 130.28 123.079134 130.564489 122.572812 131.070812 
C 122.066489 131.577134 121.782 132.263952 121.782 132.98 
C 121.782 133.696048 122.066489 134.382866 122.572812 134.889188 
C 123.079134 135.395511 123.765952 135.68 124.482 135.68 
z
" clip-path="url(#p7b5c23e4ad)" style="fill: #ffffff; stroke: #000000; stroke-width: 2; stroke-linejoin: miter"/>
   </g>
   <g id="text_7">
    <!-- _ -->
    <g transform="translate(120.982 123.379063) scale(0.14 -0.14)">
     <defs>
      <path id="DejaVuSans-5f" d="M 3263 -1063 
L 3263 -1509 
L -63 -1509 
L -63 -1063 
L 3263 -1063 
z
" transform="scale(0.015625)"/>
     </defs>
     <use xlink:href="#DejaVuSans-5f"/>
    </g>
   </g>
   <g id="text_8">
    <!-- $V_{GS}$ -->
    <g transform="translate(112.582 84.168438) scale(0.14 -0.14)">
     <use xlink:href="#DejaVuSans-Oblique-56" transform="translate(0 0.09375)"/>
     <use xlink:href="#DejaVuSans-Oblique-47" transform="translate(68.408203 -16.3125) scale(0.7)"/>
     <use xlink:href="#DejaVuSans-Oblique-53" transform="translate(122.651367 -16.3125) scale(0.7)"/>
    </g>
   </g>
   <g id="patch_7">
    <path d="M 124.482 27.68 
C 125.198048 27.68 125.884866 27.395511 126.391188 26.889188 
C 126.897511 26.382866 127.182 25.696048 127.182 24.98 
C 127.182 24.263952 126.897511 23.577134 126.391188 23.070812 
C 125.884866 22.564489 125.198048 22.28 124.482 22.28 
C 123.765952 22.28 123.079134 22.564489 122.572812 23.070812 
C 122.066489 23.577134 121.782 24.263952 121.782 24.98 
C 121.782 25.696048 122.066489 26.382866 122.572812 26.889188 
C 123.079134 27.395511 123.765952 27.68 124.482 27.68 
z
" clip-path="url(#p7b5c23e4ad)" style="fill: #ffffff; stroke: #000000; stroke-width: 2; stroke-linejoin: miter"/>
   </g>
   <g id="text_9">
    <!-- + -->
    <g transform="translate(118.616219 41.917813) scale(0.14 -0.14)">
     <defs>
      <path id="DejaVuSans-2b" d="M 2944 4013 
L 2944 2272 
L 4684 2272 
L 4684 1741 
L 2944 1741 
L 2944 0 
L 2419 0 
L 2419 1741 
L 678 1741 
L 678 2272 
L 2419 2272 
L 2419 4013 
L 2944 4013 
z
" transform="scale(0.015625)"/>
     </defs>
     <use xlink:href="#DejaVuSans-2b"/>
    </g>
   </g>
   <g id="text_10">
    <!-- G -->
    <g transform="translate(119.058094 15.768438) scale(0.14 -0.14)">
     <defs>
      <path id="DejaVuSans-47" d="M 3809 666 
L 3809 1919 
L 2778 1919 
L 2778 2438 
L 4434 2438 
L 4434 434 
Q 4069 175 3628 42 
Q 3188 -91 2688 -91 
Q 1594 -91 976 548 
Q 359 1188 359 2328 
Q 359 3472 976 4111 
Q 1594 4750 2688 4750 
Q 3144 4750 3555 4637 
Q 3966 4525 4313 4306 
L 4313 3634 
Q 3963 3931 3569 4081 
Q 3175 4231 2741 4231 
Q 1884 4231 1454 3753 
Q 1025 3275 1025 2328 
Q 1025 1384 1454 906 
Q 1884 428 2741 428 
Q 3075 428 3337 486 
Q 3600 544 3809 666 
z
" transform="scale(0.015625)"/>
     </defs>
     <use xlink:href="#DejaVuSans-47"/>
    </g>
   </g>
   <g id="patch_8">
    <path d="M 16.482 27.68 
C 17.198048 27.68 17.884866 27.395511 18.391188 26.889188 
C 18.897511 26.382866 19.182 25.696048 19.182 24.98 
C 19.182 24.263952 18.897511 23.577134 18.391188 23.070812 
C 17.884866 22.564489 17.198048 22.28 16.482 22.28 
C 15.765952 22.28 15.079134 22.564489 14.572812 23.070812 
C 14.066489 23.577134 13.782 24.263952 13.782 24.98 
C 13.782 25.696048 14.066489 26.382866 14.572812 26.889188 
C 15.079134 27.395511 15.765952 27.68 16.482 27.68 
z
" clip-path="url(#p7b5c23e4ad)" style="stroke: #000000; stroke-width: 2; stroke-linejoin: miter"/>
   </g>
   <g id="text_11">
    <!-- $V_{in}$ -->
    <g transform="translate(7.032 15.768438) scale(0.14 -0.14)">
     <defs>
      <path id="DejaVuSans-Oblique-69" d="M 1172 4863 
L 1747 4863 
L 1606 4134 
L 1031 4134 
L 1172 4863 
z
M 909 3500 
L 1484 3500 
L 800 0 
L 225 0 
L 909 3500 
z
" transform="scale(0.015625)"/>
      <path id="DejaVuSans-Oblique-6e" d="M 3566 2113 
L 3156 0 
L 2578 0 
L 2988 2091 
Q 3016 2238 3031 2350 
Q 3047 2463 3047 2528 
Q 3047 2791 2881 2937 
Q 2716 3084 2419 3084 
Q 1956 3084 1622 2776 
Q 1288 2469 1184 1941 
L 800 0 
L 225 0 
L 903 3500 
L 1478 3500 
L 1363 2950 
Q 1603 3253 1940 3418 
Q 2278 3584 2650 3584 
Q 3113 3584 3367 3334 
Q 3622 3084 3622 2631 
Q 3622 2519 3608 2391 
Q 3594 2263 3566 2113 
z
" transform="scale(0.015625)"/>
     </defs>
     <use xlink:href="#DejaVuSans-Oblique-56" transform="translate(0 0.09375)"/>
     <use xlink:href="#DejaVuSans-Oblique-69" transform="translate(68.408203 -16.3125) scale(0.7)"/>
     <use xlink:href="#DejaVuSans-Oblique-6e" transform="translate(87.856445 -16.3125) scale(0.7)"/>
    </g>
   </g>
  </g>
 </g>
 <defs>
  <clipPath id="p7b5c23e4ad">
   <rect x="0" y="0" width="391.506" height="160.7"/>
  </clipPath>
 </defs>
</svg>