<?xml version="1.0" encoding="utf-8" standalone="no"?>
<!DOCTYPE svg PUBLIC "-//W3C//DTD SVG 1.1//EN"
  "http://www.w3.org/Graphics/SVG/1.1/DTD/svg11.dtd">
<svg xmlns:xlink="http://www.w3.org/1999/xlink" width="249.138884pt" height="141.16pt" viewBox="0 0 249.138884 141.16" xmlns="http://www.w3.org/2000/svg" version="1.1">
 <metadata>
  <rdf:RDF xmlns:dc="http://purl.org/dc/elements/1.1/" xmlns:cc="http://creativecommons.org/ns#" xmlns:rdf="http://www.w3.org/1999/02/22-rdf-syntax-ns#">
   <cc:Work>
    <dc:type rdf:resource="http://purl.org/dc/dcmitype/StillImage"/>
    <dc:date>2024-12-17T07:46:30.020108</dc:date>
    <dc:format>image/svg+xml</dc:format>
    <dc:creator>
     <cc:Agent>
      <dc:title>Matplotlib v3.9.2, https://matplotlib.org/</dc:title>
     </cc:Agent>
    </dc:creator>
   </cc:Work>
  </rdf:RDF>
 </metadata>
 <defs>
  <style type="text/css">*{stroke-linejoin: round; stroke-linecap: butt}</style>
 </defs>
 <g id="figure_1">
  <g id="patch_1">
   <path d="M 0 141.16 
L 249.138884 141.16 
L 249.138884 0 
L 0 0 
z
" style="fill: #ffffff"/>
  </g>
  <g id="axes_1">
   <g id="patch_2">
    <path d="M 111.2 100.48 
C 115.973656 100.48 120.552438 98.583406 123.927922 95.207922 
C 127.303406 91.832438 129.2 87.253656 129.2 82.48 
C 129.2 77.706344 127.303406 73.127562 123.927922 69.752078 
C 120.552438 66.376594 115.973656 64.48 111.2 64.48 
C 106.426344 64.48 101.847562 66.376594 98.472078 69.752078 
C 95.096594 73.127562 93.2 77.706344 93.2 82.48 
C 93.2 87.253656 95.096594 91.832438 98.472078 95.207922 
C 101.847562 98.583406 106.426344 100.48 111.2 100.48 
L 111.2 100.48 
z
" clip-path="url(#p5314575717)" style="fill: none; stroke: #000000; stroke-width: 2; stroke-linejoin: miter"/>
   </g>
   <g id="line2d_1">
    <path d="M 111.2 136.48 
L 111.2 100.48 
L 111.2 100.48 
M 111.2 64.48 
L 111.2 64.48 
L 111.2 28.48 
" clip-path="url(#p5314575717)" style="fill: none; stroke: #000000; stroke-width: 2; stroke-linecap: round"/>
   </g>
   <g id="line2d_2">
    <path d="M 114.8 91.48 
L 107.6 91.48 
" clip-path="url(#p5314575717)" style="fill: none; stroke: #000000; stroke-width: 2; stroke-linecap: round"/>
   </g>
   <g id="line2d_3">
    <path d="M 111.2 77.08 
L 111.2 69.88 
" clip-path="url(#p5314575717)" style="fill: none; stroke: #000000; stroke-width: 2; stroke-linecap: round"/>
   </g>
   <g id="line2d_4">
    <path d="M 114.8 73.48 
L 107.6 73.48 
" clip-path="url(#p5314575717)" style="fill: none; stroke: #000000; stroke-width: 2; stroke-linecap: round"/>
   </g>
   <g id="line2d_5">
    <path d="M 111.2 28.48 
L 147.2 28.48 
L 150.2 19.48 
L 156.2 37.48 
L 162.2 19.48 
L 168.2 37.48 
L 174.2 19.48 
L 180.2 37.48 
L 183.2 28.48 
L 219.2 28.48 
" clip-path="url(#p5314575717)" style="fill: none; stroke: #000000; stroke-width: 2; stroke-linecap: round"/>
   </g>
   <g id="line2d_6">
    <path d="M 219.2 28.48 
L 219.2 64.48 
L 222.164187 64.61407 
L 225.155107 65.02176 
L 227.921917 65.694001 
L 230.232568 66.599538 
L 231.154308 67.124567 
L 231.893271 67.687547 
L 232.433881 68.279767 
L 232.764744 68.891902 
L 232.878884 69.514207 
L 232.773898 70.13672 
L 232.451996 70.749478 
L 231.919965 71.342723 
L 231.189018 71.907106 
L 230.274564 72.433888 
L 227.975691 73.343825 
L 225.21615 74.021342 
L 222.22738 74.43474 
L 219.260043 74.574472 
L 216.563006 74.453942 
L 214.362465 74.108382 
L 212.842976 73.591898 
L 212.381011 73.290537 
L 212.131977 72.972928 
L 212.101122 72.648923 
L 212.289097 72.328509 
L 212.69194 72.021597 
L 214.103915 71.486292 
L 216.218626 71.113029 
L 218.858716 70.958236 
L 221.802764 71.060019 
L 224.803858 71.434963 
L 227.6103 72.076748 
L 229.986719 72.956671 
L 230.949494 73.471402 
L 231.733808 74.026057 
L 232.323131 74.612102 
L 232.705041 75.220342 
L 232.871487 75.841113 
L 232.818962 76.464487 
L 232.548572 77.080482 
L 232.066017 77.679271 
L 231.381468 78.25139 
L 230.509355 78.787935 
L 228.279529 79.722621 
L 225.563553 80.43006 
L 222.589211 80.876046 
L 219.605956 81.048297 
L 216.86399 80.95749 
L 214.593277 80.636365 
L 212.984258 80.136977 
L 212.472569 79.840936 
L 212.17188 79.526332 
L 212.088529 79.202952 
L 212.224275 78.880768 
L 212.576254 78.569731 
L 213.137048 78.279551 
L 214.833648 77.798228 
L 217.171782 77.502289 
L 219.955355 77.441678 
L 222.950913 77.646602 
L 225.907224 78.124998 
L 228.576345 78.861866 
L 230.734422 79.820531 
L 231.563138 80.366371 
L 232.20046 80.945713 
L 232.632955 81.549502 
L 232.851505 82.168169 
L 232.851505 82.791831 
L 232.632955 83.410498 
L 232.20046 84.014287 
L 231.563138 84.593629 
L 230.734422 85.139469 
L 229.73178 85.64346 
L 227.292473 86.497065 
L 224.449798 87.107979 
L 221.442165 87.450087 
L 218.521822 87.519821 
L 215.933691 87.336457 
L 213.894837 86.940496 
L 212.576254 86.390269 
L 212.224275 86.079232 
L 212.088529 85.757048 
L 212.17188 85.433668 
L 212.472569 85.119064 
L 212.984258 84.823023 
L 214.593277 84.323635 
L 216.86399 84.00251 
L 219.605956 83.911703 
L 222.589211 84.083954 
L 225.563553 84.52994 
L 228.279529 85.237379 
L 230.509355 86.172065 
L 231.381468 86.70861 
L 232.066017 87.280729 
L 232.548572 87.879518 
L 232.818962 88.495513 
L 232.871487 89.118887 
L 232.705041 89.739658 
L 232.323131 90.347898 
L 231.733808 90.933943 
L 230.949494 91.488598 
L 229.986719 92.003329 
L 227.6103 92.883252 
L 224.803858 93.525037 
L 221.802764 93.899981 
L 218.858716 94.001764 
L 216.218626 93.846971 
L 214.103915 93.473708 
L 212.69194 92.938403 
L 212.289097 92.631491 
L 212.101122 92.311077 
L 212.131977 91.987072 
L 212.381011 91.669463 
L 212.842976 91.368102 
L 214.362465 90.851618 
L 216.563006 90.506058 
L 219.260043 90.385528 
L 222.22738 90.52526 
L 225.21615 90.938658 
L 227.975691 91.616175 
L 230.274564 92.526112 
L 231.189018 93.052894 
L 231.919965 93.617277 
L 232.451996 94.210522 
L 232.773898 94.82328 
L 232.878884 95.445793 
L 232.764744 96.068098 
L 232.433881 96.680233 
L 231.893271 97.272453 
L 231.154308 97.835433 
L 230.232568 98.360462 
L 227.921917 99.265999 
L 225.155107 99.93824 
L 222.164187 100.34593 
L 219.2 100.48 
L 219.2 136.48 
L 219.2 136.48 
" clip-path="url(#p5314575717)" style="fill: none; stroke: #000000; stroke-width: 2; stroke-linecap: round"/>
   </g>
   <g id="line2d_7">
    <path d="M 219.2 136.48 
L 165.2 136.48 
L 111.2 136.48 
" clip-path="url(#p5314575717)" style="fill: none; stroke: #000000; stroke-width: 2; stroke-linecap: round"/>
   </g>
   <g id="text_1">
    <!-- $Acos(\omega t + \Theta)$ -->
    <g transform="translate(0 86.343125) scale(0.14 -0.14)">
     <defs>
      <path id="DejaVuSans-Oblique-41" d="M 2356 4666 
L 3072 4666 
L 3938 0 
L 3278 0 
L 3084 1197 
L 984 1197 
L 325 0 
L -341 0 
L 2356 4666 
z
M 2584 4044 
L 1275 1722 
L 2988 1722 
L 2584 4044 
z
" transform="scale(0.015625)"/>
      <path id="DejaVuSans-Oblique-63" d="M 3431 3366 
L 3316 2797 
Q 3109 2947 2876 3022 
Q 2644 3097 2394 3097 
Q 2119 3097 1870 3000 
Q 1622 2903 1453 2725 
Q 1184 2453 1037 2087 
Q 891 1722 891 1331 
Q 891 859 1127 628 
Q 1363 397 1844 397 
Q 2081 397 2348 469 
Q 2616 541 2906 684 
L 2797 116 
Q 2547 13 2283 -39 
Q 2019 -91 1741 -91 
Q 1044 -91 669 257 
Q 294 606 294 1253 
Q 294 1797 489 2255 
Q 684 2713 1069 3078 
Q 1331 3328 1684 3456 
Q 2038 3584 2456 3584 
Q 2700 3584 2940 3529 
Q 3181 3475 3431 3366 
z
" transform="scale(0.015625)"/>
      <path id="DejaVuSans-Oblique-6f" d="M 1625 -91 
Q 1009 -91 651 289 
Q 294 669 294 1325 
Q 294 1706 417 2101 
Q 541 2497 738 2766 
Q 1047 3184 1428 3384 
Q 1809 3584 2291 3584 
Q 2888 3584 3255 3212 
Q 3622 2841 3622 2241 
Q 3622 1825 3500 1412 
Q 3378 1000 3181 728 
Q 2875 309 2494 109 
Q 2113 -91 1625 -91 
z
M 891 1344 
Q 891 869 1089 633 
Q 1288 397 1691 397 
Q 2269 397 2648 901 
Q 3028 1406 3028 2181 
Q 3028 2634 2825 2865 
Q 2622 3097 2228 3097 
Q 1903 3097 1650 2945 
Q 1397 2794 1197 2484 
Q 1050 2253 970 1956 
Q 891 1659 891 1344 
z
" transform="scale(0.015625)"/>
      <path id="DejaVuSans-Oblique-73" d="M 3200 3397 
L 3091 2853 
Q 2863 2978 2609 3040 
Q 2356 3103 2088 3103 
Q 1634 3103 1373 2948 
Q 1113 2794 1113 2528 
Q 1113 2219 1719 2053 
Q 1766 2041 1788 2034 
L 1972 1978 
Q 2547 1819 2739 1644 
Q 2931 1469 2931 1166 
Q 2931 609 2489 259 
Q 2047 -91 1331 -91 
Q 1053 -91 747 -37 
Q 441 16 72 128 
L 184 722 
Q 500 559 806 475 
Q 1113 391 1394 391 
Q 1816 391 2080 572 
Q 2344 753 2344 1031 
Q 2344 1331 1650 1516 
L 1591 1531 
L 1394 1581 
Q 956 1697 753 1886 
Q 550 2075 550 2369 
Q 550 2928 970 3256 
Q 1391 3584 2113 3584 
Q 2397 3584 2667 3537 
Q 2938 3491 3200 3397 
z
" transform="scale(0.015625)"/>
      <path id="DejaVuSans-28" d="M 1984 4856 
Q 1566 4138 1362 3434 
Q 1159 2731 1159 2009 
Q 1159 1288 1364 580 
Q 1569 -128 1984 -844 
L 1484 -844 
Q 1016 -109 783 600 
Q 550 1309 550 2009 
Q 550 2706 781 3412 
Q 1013 4119 1484 4856 
L 1984 4856 
z
" transform="scale(0.015625)"/>
      <path id="DejaVuSans-Oblique-3c9" d="M 1369 -91 
Q 72 -91 434 1766 
Q 575 2500 1256 3500 
L 1875 3500 
Q 1231 2500 1088 1750 
Q 819 397 1519 397 
Q 2166 397 2478 2078 
L 3009 2078 
Q 2669 388 3316 397 
Q 4013 403 4275 1750 
Q 4419 2500 4169 3500 
L 4788 3500 
Q 5075 2500 4934 1766 
Q 4578 -94 3278 -91 
Q 2428 -88 2503 844 
Q 2194 -91 1369 -91 
z
" transform="scale(0.015625)"/>
      <path id="DejaVuSans-Oblique-74" d="M 2706 3500 
L 2619 3053 
L 1472 3053 
L 1100 1153 
Q 1081 1047 1072 975 
Q 1063 903 1063 863 
Q 1063 663 1183 572 
Q 1303 481 1569 481 
L 2150 481 
L 2053 0 
L 1503 0 
Q 991 0 739 200 
Q 488 400 488 806 
Q 488 878 497 964 
Q 506 1050 525 1153 
L 897 3053 
L 409 3053 
L 500 3500 
L 978 3500 
L 1172 4494 
L 1747 4494 
L 1556 3500 
L 2706 3500 
z
" transform="scale(0.015625)"/>
      <path id="DejaVuSans-2b" d="M 2944 4013 
L 2944 2272 
L 4684 2272 
L 4684 1741 
L 2944 1741 
L 2944 0 
L 2419 0 
L 2419 1741 
L 678 1741 
L 678 2272 
L 2419 2272 
L 2419 4013 
L 2944 4013 
z
" transform="scale(0.015625)"/>
      <path id="DejaVuSans-398" d="M 1416 2750 
L 3622 2750 
L 3622 2219 
L 1416 2219 
L 1416 2750 
z
M 2522 4238 
Q 1834 4238 1431 3725 
Q 1025 3213 1025 2328 
Q 1025 1447 1429 934 
Q 1834 422 2522 422 
Q 3209 422 3613 934 
Q 4013 1447 4013 2328 
Q 4013 3213 3613 3725 
Q 3209 4238 2522 4238 
z
M 2522 4750 
Q 3503 4750 4090 4092 
Q 4678 3434 4678 2328 
Q 4678 1225 4091 569 
Q 3503 -91 2522 -91 
Q 1538 -91 950 566 
Q 359 1222 359 2328 
Q 359 3434 950 4094 
Q 1538 4750 2522 4750 
z
" transform="scale(0.015625)"/>
      <path id="DejaVuSans-29" d="M 513 4856 
L 1013 4856 
Q 1481 4119 1714 3412 
Q 1947 2706 1947 2009 
Q 1947 1309 1714 600 
Q 1481 -109 1013 -844 
L 513 -844 
Q 928 -128 1133 580 
Q 1338 1288 1338 2009 
Q 1338 2731 1133 3434 
Q 928 4138 513 4856 
z
" transform="scale(0.015625)"/>
     </defs>
     <use xlink:href="#DejaVuSans-Oblique-41" transform="translate(0 0.125)"/>
     <use xlink:href="#DejaVuSans-Oblique-63" transform="translate(68.408203 0.125)"/>
     <use xlink:href="#DejaVuSans-Oblique-6f" transform="translate(123.388672 0.125)"/>
     <use xlink:href="#DejaVuSans-Oblique-73" transform="translate(184.570312 0.125)"/>
     <use xlink:href="#DejaVuSans-28" transform="translate(236.669922 0.125)"/>
     <use xlink:href="#DejaVuSans-Oblique-3c9" transform="translate(275.683594 0.125)"/>
     <use xlink:href="#DejaVuSans-Oblique-74" transform="translate(359.423828 0.125)"/>
     <use xlink:href="#DejaVuSans-2b" transform="translate(418.115234 0.125)"/>
     <use xlink:href="#DejaVuSans-398" transform="translate(521.386719 0.125)"/>
     <use xlink:href="#DejaVuSans-29" transform="translate(600.097656 0.125)"/>
    </g>
   </g>
   <g id="text_2">
    <!-- R -->
    <g transform="translate(160.336094 12.968437) scale(0.14 -0.14)">
     <defs>
      <path id="DejaVuSans-52" d="M 2841 2188 
Q 3044 2119 3236 1894 
Q 3428 1669 3622 1275 
L 4263 0 
L 3584 0 
L 2988 1197 
Q 2756 1666 2539 1819 
Q 2322 1972 1947 1972 
L 1259 1972 
L 1259 0 
L 628 0 
L 628 4666 
L 2053 4666 
Q 2853 4666 3247 4331 
Q 3641 3997 3641 3322 
Q 3641 2881 3436 2590 
Q 3231 2300 2841 2188 
z
M 1259 4147 
L 1259 2491 
L 2053 2491 
Q 2509 2491 2742 2702 
Q 2975 2913 2975 3322 
Q 2975 3731 2742 3939 
Q 2509 4147 2053 4147 
L 1259 4147 
z
" transform="scale(0.015625)"/>
     </defs>
     <use xlink:href="#DejaVuSans-52"/>
    </g>
   </g>
   <g id="text_3">
    <!-- L -->
    <g transform="translate(236.478884 86.343125) scale(0.14 -0.14)">
     <defs>
      <path id="DejaVuSans-4c" d="M 628 4666 
L 1259 4666 
L 1259 531 
L 3531 531 
L 3531 0 
L 628 0 
L 628 4666 
z
" transform="scale(0.015625)"/>
     </defs>
     <use xlink:href="#DejaVuSans-4c"/>
    </g>
   </g>
  </g>
 </g>
 <defs>
  <clipPath id="p5314575717">
   <rect x="9.068" y="0" width="240.070884" height="141.16"/>
  </clipPath>
 </defs>
</svg>