<?xml version="1.0" encoding="utf-8" standalone="no"?>
<!DOCTYPE svg PUBLIC "-//W3C//DTD SVG 1.1//EN"
  "http://www.w3.org/Graphics/SVG/1.1/DTD/svg11.dtd">
<svg xmlns:xlink="http://www.w3.org/1999/xlink" width="390.348pt" height="173.2pt" viewBox="0 0 390.348 173.2" xmlns="http://www.w3.org/2000/svg" version="1.1">
 <metadata>
  <rdf:RDF xmlns:dc="http://purl.org/dc/elements/1.1/" xmlns:cc="http://creativecommons.org/ns#" xmlns:rdf="http://www.w3.org/1999/02/22-rdf-syntax-ns#">
   <cc:Work>
    <dc:type rdf:resource="http://purl.org/dc/dcmitype/StillImage"/>
    <dc:date>2024-11-12T14:39:00.154898</dc:date>
    <dc:format>image/svg+xml</dc:format>
    <dc:creator>
     <cc:Agent>
      <dc:title>Matplotlib v3.9.2, https://matplotlib.org/</dc:title>
     </cc:Agent>
    </dc:creator>
   </cc:Work>
  </rdf:RDF>
 </metadata>
 <defs>
  <style type="text/css">*{stroke-linejoin: round; stroke-linecap: butt}</style>
 </defs>
 <g id="figure_1">
  <g id="patch_1">
   <path d="M 0 173.2 
L 390.348 173.2 
L 390.348 0 
L 0 0 
z
" style="fill: #ffffff"/>
  </g>
  <g id="axes_1">
   <g id="patch_2">
    <path d="M 43.668 109.48 
C 48.441656 109.48 53.020438 107.583406 56.395922 104.207922 
C 59.771406 100.832438 61.668 96.253656 61.668 91.48 
C 61.668 86.706344 59.771406 82.127562 56.395922 78.752078 
C 53.020438 75.376594 48.441656 73.48 43.668 73.48 
C 38.894344 73.48 34.315562 75.376594 30.940078 78.752078 
C 27.564594 82.127562 25.668 86.706344 25.668 91.48 
C 25.668 96.253656 27.564594 100.832438 30.940078 104.207922 
C 34.315562 107.583406 38.894344 109.48 43.668 109.48 
L 43.668 109.48 
z
" clip-path="url(#pf5ca04f627)" style="fill: none; stroke: #000000; stroke-width: 2; stroke-linejoin: miter"/>
   </g>
   <g id="patch_3">
    <path d="M 205.668 55.48 
C 210.441656 55.48 215.020438 53.583406 218.395922 50.207922 
C 221.771406 46.832438 223.668 42.253656 223.668 37.48 
C 223.668 32.706344 221.771406 28.127562 218.395922 24.752078 
C 215.020438 21.376594 210.441656 19.48 205.668 19.48 
C 200.894344 19.48 196.315562 21.376594 192.940078 24.752078 
C 189.564594 28.127562 187.668 32.706344 187.668 37.48 
C 187.668 42.253656 189.564594 46.832438 192.940078 50.207922 
C 196.315562 53.583406 200.894344 55.48 205.668 55.48 
L 205.668 55.48 
z
" clip-path="url(#pf5ca04f627)" style="fill: none; stroke: #000000; stroke-width: 2; stroke-linejoin: miter"/>
   </g>
   <g id="patch_4">
    <path d="M 367.668 109.48 
C 372.441656 109.48 377.020438 107.583406 380.395922 104.207922 
C 383.771406 100.832438 385.668 96.253656 385.668 91.48 
C 385.668 86.706344 383.771406 82.127562 380.395922 78.752078 
C 377.020438 75.376594 372.441656 73.48 367.668 73.48 
C 362.894344 73.48 358.315562 75.376594 354.940078 78.752078 
C 351.564594 82.127562 349.668 86.706344 349.668 91.48 
C 349.668 96.253656 351.564594 100.832438 354.940078 104.207922 
C 358.315562 107.583406 362.894344 109.48 367.668 109.48 
L 367.668 109.48 
z
" clip-path="url(#pf5ca04f627)" style="fill: none; stroke: #000000; stroke-width: 2; stroke-linejoin: miter"/>
   </g>
   <g id="line2d_1">
    <path d="M 43.668 145.48 
L 43.668 109.48 
L 43.668 109.48 
M 43.668 73.48 
L 43.668 73.48 
L 43.668 37.48 
" clip-path="url(#pf5ca04f627)" style="fill: none; stroke: #000000; stroke-width: 2; stroke-linecap: round"/>
   </g>
   <g id="line2d_2">
    <path d="M 43.668 100.48 
L 43.668 91.48 
" clip-path="url(#pf5ca04f627)" style="fill: none; stroke: #000000; stroke-width: 2; stroke-linecap: round"/>
   </g>
   <g id="patch_5">
    <path d="M 40.968 91.48 
L 43.668 82.48 
L 46.368 91.48 
z
" clip-path="url(#pf5ca04f627)"/>
   </g>
   <g id="line2d_3">
    <path d="M 43.668 37.48 
L 97.668 37.48 
L 151.668 37.48 
" clip-path="url(#pf5ca04f627)" style="fill: none; stroke: #000000; stroke-width: 2; stroke-linecap: round"/>
   </g>
   <g id="line2d_4">
    <path d="M 151.668 37.48 
L 187.668 37.48 
L 187.668 37.48 
M 223.668 37.48 
L 223.668 37.48 
L 259.668 37.48 
" clip-path="url(#pf5ca04f627)" style="fill: none; stroke: #000000; stroke-width: 2; stroke-linecap: round"/>
   </g>
   <g id="line2d_5">
    <path d="M 214.668 33.88 
L 214.668 41.08 
" clip-path="url(#pf5ca04f627)" style="fill: none; stroke: #000000; stroke-width: 2; stroke-linecap: round"/>
   </g>
   <g id="line2d_6">
    <path d="M 193.068 37.48 
L 200.268 37.48 
" clip-path="url(#pf5ca04f627)" style="fill: none; stroke: #000000; stroke-width: 2; stroke-linecap: round"/>
   </g>
   <g id="line2d_7">
    <path d="M 196.668 33.88 
L 196.668 41.08 
" clip-path="url(#pf5ca04f627)" style="fill: none; stroke: #000000; stroke-width: 2; stroke-linecap: round"/>
   </g>
   <g id="line2d_8">
    <path d="M 230.868 24.88 
L 169.668 24.88 
" clip-path="url(#pf5ca04f627)" style="fill: none; stroke: #ffa500; stroke-width: 2; stroke-linecap: round"/>
   </g>
   <g id="patch_6">
    <path d="M 230.868 21.28 
L 241.668 24.88 
L 230.868 28.48 
z
" clip-path="url(#pf5ca04f627)" style="fill: #ffa500"/>
   </g>
   <g id="line2d_9">
    <path d="M 259.668 37.48 
L 313.668 37.48 
L 367.668 37.48 
" clip-path="url(#pf5ca04f627)" style="fill: none; stroke: #000000; stroke-width: 2; stroke-linecap: round"/>
   </g>
   <g id="line2d_10">
    <path d="M 367.668 37.48 
L 367.668 73.48 
L 367.668 73.48 
M 367.668 109.48 
L 367.668 109.48 
L 367.668 145.48 
" clip-path="url(#pf5ca04f627)" style="fill: none; stroke: #000000; stroke-width: 2; stroke-linecap: round"/>
   </g>
   <g id="line2d_11">
    <path d="M 367.668 82.48 
L 367.668 91.48 
" clip-path="url(#pf5ca04f627)" style="fill: none; stroke: #000000; stroke-width: 2; stroke-linecap: round"/>
   </g>
   <g id="patch_7">
    <path d="M 370.368 91.48 
L 367.668 100.48 
L 364.968 91.48 
z
" clip-path="url(#pf5ca04f627)"/>
   </g>
   <g id="line2d_12">
    <path d="M 367.668 145.48 
L 313.668 145.48 
L 259.668 145.48 
" clip-path="url(#pf5ca04f627)" style="fill: none; stroke: #000000; stroke-width: 2; stroke-linecap: round"/>
   </g>
   <g id="line2d_13">
    <path d="M 259.668 145.48 
L 232.668 145.48 
L 205.668 145.48 
" clip-path="url(#pf5ca04f627)" style="fill: none; stroke: #000000; stroke-width: 2; stroke-linecap: round"/>
   </g>
   <g id="line2d_14">
    <path d="M 205.668 145.48 
L 205.668 159.88 
L 196.668 159.88 
L 214.668 159.88 
M 199.368 164.2 
L 211.968 164.2 
M 203.868 168.52 
L 207.468 168.52 
" clip-path="url(#pf5ca04f627)" style="fill: none; stroke: #000000; stroke-width: 2; stroke-linecap: round"/>
   </g>
   <g id="line2d_15">
    <path d="M 205.668 145.48 
L 178.668 145.48 
L 151.668 145.48 
" clip-path="url(#pf5ca04f627)" style="fill: none; stroke: #000000; stroke-width: 2; stroke-linecap: round"/>
   </g>
   <g id="line2d_16">
    <path d="M 151.668 145.48 
L 97.668 145.48 
L 43.668 145.48 
" clip-path="url(#pf5ca04f627)" style="fill: none; stroke: #000000; stroke-width: 2; stroke-linecap: round"/>
   </g>
   <g id="line2d_17">
    <path d="M 151.668 37.48 
L 151.668 73.48 
L 160.668 76.48 
L 142.668 82.48 
L 160.668 88.48 
L 142.668 94.48 
L 160.668 100.48 
L 142.668 106.48 
L 151.668 109.48 
L 151.668 145.48 
" clip-path="url(#pf5ca04f627)" style="fill: none; stroke: #000000; stroke-width: 2; stroke-linecap: round"/>
   </g>
   <g id="line2d_18">
    <path d="M 166.068 55.48 
L 166.068 116.68 
" clip-path="url(#pf5ca04f627)" style="fill: none; stroke: #ffa500; stroke-width: 2; stroke-linecap: round"/>
   </g>
   <g id="patch_8">
    <path d="M 169.668 116.68 
L 166.068 127.48 
L 162.468 116.68 
z
" clip-path="url(#pf5ca04f627)" style="fill: #ffa500"/>
   </g>
   <g id="line2d_19">
    <path d="M 259.668 37.48 
L 259.668 73.48 
L 268.668 76.48 
L 250.668 82.48 
L 268.668 88.48 
L 250.668 94.48 
L 268.668 100.48 
L 250.668 106.48 
L 259.668 109.48 
L 259.668 145.48 
" clip-path="url(#pf5ca04f627)" style="fill: none; stroke: #000000; stroke-width: 2; stroke-linecap: round"/>
   </g>
   <g id="line2d_20">
    <path d="M 274.068 55.48 
L 274.068 116.68 
" clip-path="url(#pf5ca04f627)" style="fill: none; stroke: #ffa500; stroke-width: 2; stroke-linecap: round"/>
   </g>
   <g id="patch_9">
    <path d="M 277.668 116.68 
L 274.068 127.48 
L 270.468 116.68 
z
" clip-path="url(#pf5ca04f627)" style="fill: #ffa500"/>
   </g>
   <g id="text_1">
    <!-- 3A -->
    <g transform="translate(3.583625 95.343125) scale(0.14 -0.14)">
     <defs>
      <path id="DejaVuSans-33" d="M 2597 2516 
Q 3050 2419 3304 2112 
Q 3559 1806 3559 1356 
Q 3559 666 3084 287 
Q 2609 -91 1734 -91 
Q 1441 -91 1130 -33 
Q 819 25 488 141 
L 488 750 
Q 750 597 1062 519 
Q 1375 441 1716 441 
Q 2309 441 2620 675 
Q 2931 909 2931 1356 
Q 2931 1769 2642 2001 
Q 2353 2234 1838 2234 
L 1294 2234 
L 1294 2753 
L 1863 2753 
Q 2328 2753 2575 2939 
Q 2822 3125 2822 3475 
Q 2822 3834 2567 4026 
Q 2313 4219 1838 4219 
Q 1578 4219 1281 4162 
Q 984 4106 628 3988 
L 628 4550 
Q 988 4650 1302 4700 
Q 1616 4750 1894 4750 
Q 2613 4750 3031 4423 
Q 3450 4097 3450 3541 
Q 3450 3153 3228 2886 
Q 3006 2619 2597 2516 
z
" transform="scale(0.015625)"/>
      <path id="DejaVuSans-41" d="M 2188 4044 
L 1331 1722 
L 3047 1722 
L 2188 4044 
z
M 1831 4666 
L 2547 4666 
L 4325 0 
L 3669 0 
L 3244 1197 
L 1141 1197 
L 716 0 
L 50 0 
L 1831 4666 
z
" transform="scale(0.015625)"/>
     </defs>
     <use xlink:href="#DejaVuSans-33"/>
     <use xlink:href="#DejaVuSans-41" x="63.623047"/>
    </g>
   </g>
   <g id="text_2">
    <!-- 2V -->
    <g transform="translate(196.425813 12.968438) scale(0.14 -0.14)">
     <defs>
      <path id="DejaVuSans-32" d="M 1228 531 
L 3431 531 
L 3431 0 
L 469 0 
L 469 531 
Q 828 903 1448 1529 
Q 2069 2156 2228 2338 
Q 2531 2678 2651 2914 
Q 2772 3150 2772 3378 
Q 2772 3750 2511 3984 
Q 2250 4219 1831 4219 
Q 1534 4219 1204 4116 
Q 875 4013 500 3803 
L 500 4441 
Q 881 4594 1212 4672 
Q 1544 4750 1819 4750 
Q 2544 4750 2975 4387 
Q 3406 4025 3406 3419 
Q 3406 3131 3298 2873 
Q 3191 2616 2906 2266 
Q 2828 2175 2409 1742 
Q 1991 1309 1228 531 
z
" transform="scale(0.015625)"/>
      <path id="DejaVuSans-56" d="M 1831 0 
L 50 4666 
L 709 4666 
L 2188 738 
L 3669 4666 
L 4325 4666 
L 2547 0 
L 1831 0 
z
" transform="scale(0.015625)"/>
     </defs>
     <use xlink:href="#DejaVuSans-32"/>
     <use xlink:href="#DejaVuSans-56" x="63.623047"/>
    </g>
   </g>
   <g id="text_3">
    <!-- I2 -->
    <g style="fill: #ffa500" transform="translate(199.14925 18.368437) scale(0.14 -0.14)">
     <defs>
      <path id="DejaVuSans-49" d="M 628 4666 
L 1259 4666 
L 1259 0 
L 628 0 
L 628 4666 
z
" transform="scale(0.015625)"/>
     </defs>
     <use xlink:href="#DejaVuSans-49"/>
     <use xlink:href="#DejaVuSans-32" x="29.492188"/>
    </g>
   </g>
   <g id="text_4">
    <!-- 2A -->
    <g transform="translate(327.583625 95.343125) scale(0.14 -0.14)">
     <use xlink:href="#DejaVuSans-32"/>
     <use xlink:href="#DejaVuSans-41" x="63.623047"/>
    </g>
   </g>
   <g id="text_5">
    <!-- 2Ω -->
    <g transform="translate(119.461438 95.343125) scale(0.14 -0.14)">
     <defs>
      <path id="DejaVuSans-3a9" d="M 4647 556 
L 4647 0 
L 2772 0 
L 2772 556 
Q 3325 859 3634 1378 
Q 3944 1897 3944 2528 
Q 3944 3278 3531 3731 
Q 3119 4184 2444 4184 
Q 1769 4184 1355 3729 
Q 941 3275 941 2528 
Q 941 1897 1250 1378 
Q 1563 859 2119 556 
L 2119 0 
L 244 0 
L 244 556 
L 1241 556 
Q 747 991 519 1456 
Q 294 1922 294 2497 
Q 294 3491 894 4106 
Q 1491 4722 2444 4722 
Q 3391 4722 3994 4106 
Q 4594 3494 4594 2528 
Q 4594 1922 4372 1459 
Q 4150 997 3647 556 
L 4647 556 
z
" transform="scale(0.015625)"/>
     </defs>
     <use xlink:href="#DejaVuSans-32"/>
     <use xlink:href="#DejaVuSans-3a9" x="63.623047"/>
    </g>
   </g>
   <g id="text_6">
    <!-- I1 -->
    <g style="fill: #ffa500" transform="translate(169.668 95.343125) scale(0.14 -0.14)">
     <defs>
      <path id="DejaVuSans-31" d="M 794 531 
L 1825 531 
L 1825 4091 
L 703 3866 
L 703 4441 
L 1819 4666 
L 2450 4666 
L 2450 531 
L 3481 531 
L 3481 0 
L 794 0 
L 794 531 
z
" transform="scale(0.015625)"/>
     </defs>
     <use xlink:href="#DejaVuSans-49"/>
     <use xlink:href="#DejaVuSans-31" x="29.492188"/>
    </g>
   </g>
   <g id="text_7">
    <!-- 1Ω -->
    <g transform="translate(227.461438 95.343125) scale(0.14 -0.14)">
     <use xlink:href="#DejaVuSans-31"/>
     <use xlink:href="#DejaVuSans-3a9" x="63.623047"/>
    </g>
   </g>
   <g id="text_8">
    <!-- I3 -->
    <g style="fill: #ffa500" transform="translate(277.668 95.343125) scale(0.14 -0.14)">
     <use xlink:href="#DejaVuSans-49"/>
     <use xlink:href="#DejaVuSans-33" x="29.492188"/>
    </g>
   </g>
   <g id="patch_10">
    <path d="M 151.668 40.18 
C 152.384048 40.18 153.070866 39.895511 153.577188 39.389188 
C 154.083511 38.882866 154.368 38.196048 154.368 37.48 
C 154.368 36.763952 154.083511 36.077134 153.577188 35.570812 
C 153.070866 35.064489 152.384048 34.78 151.668 34.78 
C 150.951952 34.78 150.265134 35.064489 149.758812 35.570812 
C 149.252489 36.077134 148.968 36.763952 148.968 37.48 
C 148.968 38.196048 149.252489 38.882866 149.758812 39.389188 
C 150.265134 39.895511 150.951952 40.18 151.668 40.18 
z
" clip-path="url(#pf5ca04f627)" style="stroke: #000000; stroke-width: 2; stroke-linejoin: miter"/>
   </g>
   <g id="text_9">
    <!-- N1 -->
    <g transform="translate(141.977375 28.268438) scale(0.14 -0.14)">
     <defs>
      <path id="DejaVuSans-4e" d="M 628 4666 
L 1478 4666 
L 3547 763 
L 3547 4666 
L 4159 4666 
L 4159 0 
L 3309 0 
L 1241 3903 
L 1241 0 
L 628 0 
L 628 4666 
z
" transform="scale(0.015625)"/>
     </defs>
     <use xlink:href="#DejaVuSans-4e"/>
     <use xlink:href="#DejaVuSans-31" x="74.804688"/>
    </g>
   </g>
   <g id="patch_11">
    <path d="M 259.668 40.18 
C 260.384048 40.18 261.070866 39.895511 261.577188 39.389188 
C 262.083511 38.882866 262.368 38.196048 262.368 37.48 
C 262.368 36.763952 262.083511 36.077134 261.577188 35.570812 
C 261.070866 35.064489 260.384048 34.78 259.668 34.78 
C 258.951952 34.78 258.265134 35.064489 257.758812 35.570812 
C 257.252489 36.077134 256.968 36.763952 256.968 37.48 
C 256.968 38.196048 257.252489 38.882866 257.758812 39.389188 
C 258.265134 39.895511 258.951952 40.18 259.668 40.18 
z
" clip-path="url(#pf5ca04f627)" style="stroke: #000000; stroke-width: 2; stroke-linejoin: miter"/>
   </g>
   <g id="text_10">
    <!-- N2 -->
    <g transform="translate(249.977375 28.268438) scale(0.14 -0.14)">
     <use xlink:href="#DejaVuSans-4e"/>
     <use xlink:href="#DejaVuSans-32" x="74.804688"/>
    </g>
   </g>
   <g id="patch_12">
    <path d="M 259.668 148.18 
C 260.384048 148.18 261.070866 147.895511 261.577188 147.389188 
C 262.083511 146.882866 262.368 146.196048 262.368 145.48 
C 262.368 144.763952 262.083511 144.077134 261.577188 143.570812 
C 261.070866 143.064489 260.384048 142.78 259.668 142.78 
C 258.951952 142.78 258.265134 143.064489 257.758812 143.570812 
C 257.252489 144.077134 256.968 144.763952 256.968 145.48 
C 256.968 146.196048 257.252489 146.882866 257.758812 147.389188 
C 258.265134 147.895511 258.951952 148.18 259.668 148.18 
z
" clip-path="url(#pf5ca04f627)" style="stroke: #000000; stroke-width: 2; stroke-linejoin: miter"/>
   </g>
   <g id="patch_13">
    <path d="M 205.668 148.18 
C 206.384048 148.18 207.070866 147.895511 207.577188 147.389188 
C 208.083511 146.882866 208.368 146.196048 208.368 145.48 
C 208.368 144.763952 208.083511 144.077134 207.577188 143.570812 
C 207.070866 143.064489 206.384048 142.78 205.668 142.78 
C 204.951952 142.78 204.265134 143.064489 203.758812 143.570812 
C 203.252489 144.077134 202.968 144.763952 202.968 145.48 
C 202.968 146.196048 203.252489 146.882866 203.758812 147.389188 
C 204.265134 147.895511 204.951952 148.18 205.668 148.18 
z
" clip-path="url(#pf5ca04f627)" style="stroke: #000000; stroke-width: 2; stroke-linejoin: miter"/>
   </g>
   <g id="patch_14">
    <path d="M 151.668 148.18 
C 152.384048 148.18 153.070866 147.895511 153.577188 147.389188 
C 154.083511 146.882866 154.368 146.196048 154.368 145.48 
C 154.368 144.763952 154.083511 144.077134 153.577188 143.570812 
C 153.070866 143.064489 152.384048 142.78 151.668 142.78 
C 150.951952 142.78 150.265134 143.064489 149.758812 143.570812 
C 149.252489 144.077134 148.968 144.763952 148.968 145.48 
C 148.968 146.196048 149.252489 146.882866 149.758812 147.389188 
C 150.265134 147.895511 150.951952 148.18 151.668 148.18 
z
" clip-path="url(#pf5ca04f627)" style="stroke: #000000; stroke-width: 2; stroke-linejoin: miter"/>
   </g>
  </g>
 </g>
 <defs>
  <clipPath id="pf5ca04f627">
   <rect x="0" y="0" width="390.348" height="173.2"/>
  </clipPath>
 </defs>
</svg>