<?xml version="1.0" encoding="utf-8" standalone="no"?>
<!DOCTYPE svg PUBLIC "-//W3C//DTD SVG 1.1//EN"
  "http://www.w3.org/Graphics/SVG/1.1/DTD/svg11.dtd">
<svg xmlns:xlink="http://www.w3.org/1999/xlink" width="368.868pt" height="155.809095pt" viewBox="0 0 368.868 155.809095" xmlns="http://www.w3.org/2000/svg" version="1.1">
 <metadata>
  <rdf:RDF xmlns:dc="http://purl.org/dc/elements/1.1/" xmlns:cc="http://creativecommons.org/ns#" xmlns:rdf="http://www.w3.org/1999/02/22-rdf-syntax-ns#">
   <cc:Work>
    <dc:type rdf:resource="http://purl.org/dc/dcmitype/StillImage"/>
    <dc:date>2025-05-14T19:08:49.473488</dc:date>
    <dc:format>image/svg+xml</dc:format>
    <dc:creator>
     <cc:Agent>
      <dc:title>Matplotlib v3.10.3, https://matplotlib.org/</dc:title>
     </cc:Agent>
    </dc:creator>
   </cc:Work>
  </rdf:RDF>
 </metadata>
 <defs>
  <style type="text/css">*{stroke-linejoin: round; stroke-linecap: butt}</style>
 </defs>
 <g id="figure_1">
  <g id="patch_1">
   <path d="M 0 155.809095 
L 368.868 155.809095 
L 368.868 0 
L 0 0 
z
" style="fill: #ffffff"/>
  </g>
  <g id="axes_1">
   <g id="patch_2">
    <path d="M 90.526455 35.705185 
C 90.73603 33.03093 90.407489 30.322804 89.583284 27.930731 
C 88.75908 25.538658 87.476308 23.570303 85.900718 22.28 
" clip-path="url(#pc5b3db2ed9)" style="fill: none; stroke: #000000; stroke-width: 2; stroke-linejoin: miter"/>
   </g>
   <g id="patch_3">
    <path d="M 89.433698 45.001178 
L 87.802889 35.747506 
L 90.466549 36.060622 
L 90.508578 35.703084 
L 90.544332 35.707287 
L 90.502303 36.064825 
L 93.165962 36.377942 
z
" clip-path="url(#pc5b3db2ed9)" style="stroke: #000000; stroke-linejoin: miter"/>
   </g>
   <g id="patch_4">
    <path d="M 130.188 103.429095 
L 139.188 90.829095 
L 148.188 103.429095 
L 130.188 103.429095 
z
" clip-path="url(#pc5b3db2ed9)" style="fill: none; stroke: #000000; stroke-width: 2; stroke-linecap: round"/>
   </g>
   <g id="patch_5">
    <path d="M 184.188 43.129095 
C 184.188 41.936078 183.713571 40.790704 182.869981 39.947114 
C 182.02639 39.103524 180.881016 38.629095 179.688 38.629095 
C 178.494984 38.629095 177.34961 39.103524 176.506019 39.947114 
C 175.662429 40.790704 175.188 41.936078 175.188 43.129095 
" clip-path="url(#pc5b3db2ed9)" style="fill: none; stroke: #000000; stroke-width: 2; stroke-linejoin: miter"/>
   </g>
   <g id="patch_6">
    <path d="M 193.188 43.129095 
C 193.188 41.936078 192.713571 40.790704 191.869981 39.947114 
C 191.02639 39.103524 189.881016 38.629095 188.688 38.629095 
C 187.494984 38.629095 186.34961 39.103524 185.506019 39.947114 
C 184.662429 40.790704 184.188 41.936078 184.188 43.129095 
" clip-path="url(#pc5b3db2ed9)" style="fill: none; stroke: #000000; stroke-width: 2; stroke-linejoin: miter"/>
   </g>
   <g id="patch_7">
    <path d="M 202.188 43.129095 
C 202.188 41.936078 201.713571 40.790704 200.869981 39.947114 
C 200.02639 39.103524 198.881016 38.629095 197.688 38.629095 
C 196.494984 38.629095 195.34961 39.103524 194.506019 39.947114 
C 193.662429 40.790704 193.188 41.936078 193.188 43.129095 
" clip-path="url(#pc5b3db2ed9)" style="fill: none; stroke: #000000; stroke-width: 2; stroke-linejoin: miter"/>
   </g>
   <g id="patch_8">
    <path d="M 211.188 43.129095 
C 211.188 41.936078 210.713571 40.790704 209.869981 39.947114 
C 209.02639 39.103524 207.881016 38.629095 206.688 38.629095 
C 205.494984 38.629095 204.34961 39.103524 203.506019 39.947114 
C 202.662429 40.790704 202.188 41.936078 202.188 43.129095 
" clip-path="url(#pc5b3db2ed9)" style="fill: none; stroke: #000000; stroke-width: 2; stroke-linejoin: miter"/>
   </g>
   <g id="line2d_1">
    <path d="M 31.188 151.129095 
L 31.188 100.504095 
M 31.188 93.754095 
L 31.188 43.129095 
" clip-path="url(#pc5b3db2ed9)" style="fill: none; stroke: #000000; stroke-width: 2; stroke-linecap: round"/>
   </g>
   <g id="line2d_2">
    <path d="M 44.688 93.754095 
L 17.688 93.754095 
" clip-path="url(#pc5b3db2ed9)" style="fill: none; stroke: #000000; stroke-width: 2; stroke-linecap: round"/>
   </g>
   <g id="line2d_3">
    <path d="M 37.938 100.504095 
L 24.438 100.504095 
" clip-path="url(#pc5b3db2ed9)" style="fill: none; stroke: #000000; stroke-width: 2; stroke-linecap: round"/>
   </g>
   <g id="line2d_4">
    <path d="M 31.188 43.129095 
L 67.188 43.129095 
M 75.828 39.529095 
L 95.988 26.929095 
M 103.188 43.129095 
L 139.188 43.129095 
" clip-path="url(#pc5b3db2ed9)" style="fill: none; stroke: #000000; stroke-width: 2; stroke-linecap: round"/>
   </g>
   <g id="line2d_5">
    <path d="M 139.188 43.129095 
L 139.188 90.829095 
M 130.188 90.829095 
L 148.188 90.829095 
M 139.188 103.429095 
L 139.188 151.129095 
" clip-path="url(#pc5b3db2ed9)" style="fill: none; stroke: #000000; stroke-width: 2; stroke-linecap: round"/>
   </g>
   <g id="line2d_6">
    <path d="M 139.188 43.129095 
L 175.188 43.129095 
M 211.188 43.129095 
L 247.188 43.129095 
" clip-path="url(#pc5b3db2ed9)" style="fill: none; stroke: #000000; stroke-width: 2; stroke-linecap: round"/>
   </g>
   <g id="line2d_7">
    <path d="M 247.188 43.129095 
L 247.188 93.889095 
M 256.188 93.889095 
L 238.188 93.889095 
M 256.188 100.369095 
L 238.188 100.369095 
M 247.188 100.369095 
L 247.188 151.129095 
" clip-path="url(#pc5b3db2ed9)" style="fill: none; stroke: #000000; stroke-width: 2; stroke-linecap: round"/>
   </g>
   <g id="line2d_8">
    <path d="M 247.188 43.129095 
L 301.188 43.129095 
L 355.188 43.129095 
" clip-path="url(#pc5b3db2ed9)" style="fill: none; stroke: #000000; stroke-width: 2; stroke-linecap: round"/>
   </g>
   <g id="line2d_9">
    <path d="M 355.188 43.129095 
L 355.188 79.129095 
L 364.188 82.129095 
L 346.188 88.129095 
L 364.188 94.129095 
L 346.188 100.129095 
L 364.188 106.129095 
L 346.188 112.129095 
L 355.188 115.129095 
L 355.188 151.129095 
" clip-path="url(#pc5b3db2ed9)" style="fill: none; stroke: #000000; stroke-width: 2; stroke-linecap: round"/>
   </g>
   <g id="line2d_10">
    <path d="M 355.188 151.129095 
L 193.188 151.129095 
L 31.188 151.129095 
" clip-path="url(#pc5b3db2ed9)" style="fill: none; stroke: #000000; stroke-width: 2; stroke-linecap: round"/>
   </g>
   <g id="text_1">
    <!-- E -->
    <g transform="translate(5.24175 100.99222) scale(0.14 -0.14)">
     <defs>
      <path id="DejaVuSans-45" d="M 628 4666 
L 3578 4666 
L 3578 4134 
L 1259 4134 
L 1259 2753 
L 3481 2753 
L 3481 2222 
L 1259 2222 
L 1259 531 
L 3634 531 
L 3634 0 
L 628 0 
L 628 4666 
z
" transform="scale(0.015625)"/>
     </defs>
     <use xlink:href="#DejaVuSans-45"/>
    </g>
   </g>
   <g id="patch_9">
    <path d="M 71.508 47.449095 
C 72.653677 47.449095 73.752585 46.993912 74.562701 46.183796 
C 75.372818 45.37368 75.828 44.274772 75.828 43.129095 
C 75.828 41.983417 75.372818 40.88451 74.562701 40.074393 
C 73.752585 39.264277 72.653677 38.809095 71.508 38.809095 
C 70.362323 38.809095 69.263415 39.264277 68.453299 40.074393 
C 67.643182 40.88451 67.188 41.983417 67.188 43.129095 
C 67.188 44.274772 67.643182 45.37368 68.453299 46.183796 
C 69.263415 46.993912 70.362323 47.449095 71.508 47.449095 
z
" clip-path="url(#pc5b3db2ed9)" style="fill: #ffffff; stroke: #000000; stroke-width: 2; stroke-linejoin: miter"/>
   </g>
   <g id="patch_10">
    <path d="M 98.868 47.449095 
C 100.013677 47.449095 101.112585 46.993912 101.922701 46.183796 
C 102.732818 45.37368 103.188 44.274772 103.188 43.129095 
C 103.188 41.983417 102.732818 40.88451 101.922701 40.074393 
C 101.112585 39.264277 100.013677 38.809095 98.868 38.809095 
C 97.722323 38.809095 96.623415 39.264277 95.813299 40.074393 
C 95.003182 40.88451 94.548 41.983417 94.548 43.129095 
C 94.548 44.274772 95.003182 45.37368 95.813299 46.183796 
C 96.623415 46.993912 97.722323 47.449095 98.868 47.449095 
z
" clip-path="url(#pc5b3db2ed9)" style="fill: #ffffff; stroke: #000000; stroke-width: 2; stroke-linejoin: miter"/>
   </g>
   <g id="text_2">
    <!-- S -->
    <g transform="translate(80.744094 15.768437) scale(0.14 -0.14)">
     <defs>
      <path id="DejaVuSans-53" d="M 3425 4513 
L 3425 3897 
Q 3066 4069 2747 4153 
Q 2428 4238 2131 4238 
Q 1616 4238 1336 4038 
Q 1056 3838 1056 3469 
Q 1056 3159 1242 3001 
Q 1428 2844 1947 2747 
L 2328 2669 
Q 3034 2534 3370 2195 
Q 3706 1856 3706 1288 
Q 3706 609 3251 259 
Q 2797 -91 1919 -91 
Q 1588 -91 1214 -16 
Q 841 59 441 206 
L 441 856 
Q 825 641 1194 531 
Q 1563 422 1919 422 
Q 2459 422 2753 634 
Q 3047 847 3047 1241 
Q 3047 1584 2836 1778 
Q 2625 1972 2144 2069 
L 1759 2144 
Q 1053 2284 737 2584 
Q 422 2884 422 3419 
Q 422 4038 858 4394 
Q 1294 4750 2059 4750 
Q 2388 4750 2728 4690 
Q 3069 4631 3425 4513 
z
" transform="scale(0.015625)"/>
     </defs>
     <use xlink:href="#DejaVuSans-53"/>
    </g>
   </g>
   <g id="text_3">
    <!-- D -->
    <g transform="translate(115.808 100.99222) scale(0.14 -0.14)">
     <defs>
      <path id="DejaVuSans-44" d="M 1259 4147 
L 1259 519 
L 2022 519 
Q 2988 519 3436 956 
Q 3884 1394 3884 2338 
Q 3884 3275 3436 3711 
Q 2988 4147 2022 4147 
L 1259 4147 
z
M 628 4666 
L 1925 4666 
Q 3281 4666 3915 4102 
Q 4550 3538 4550 2338 
Q 4550 1131 3912 565 
Q 3275 0 1925 0 
L 628 0 
L 628 4666 
z
" transform="scale(0.015625)"/>
     </defs>
     <use xlink:href="#DejaVuSans-44"/>
    </g>
   </g>
   <g id="text_4">
    <!-- L -->
    <g transform="translate(189.287687 32.117555) scale(0.14 -0.14)">
     <defs>
      <path id="DejaVuSans-4c" d="M 628 4666 
L 1259 4666 
L 1259 531 
L 3531 531 
L 3531 0 
L 628 0 
L 628 4666 
z
" transform="scale(0.015625)"/>
     </defs>
     <use xlink:href="#DejaVuSans-4c"/>
    </g>
   </g>
   <g id="text_5">
    <!-- C -->
    <g transform="translate(224.812062 100.99222) scale(0.14 -0.14)">
     <defs>
      <path id="DejaVuSans-43" d="M 4122 4306 
L 4122 3641 
Q 3803 3938 3442 4084 
Q 3081 4231 2675 4231 
Q 1875 4231 1450 3742 
Q 1025 3253 1025 2328 
Q 1025 1406 1450 917 
Q 1875 428 2675 428 
Q 3081 428 3442 575 
Q 3803 722 4122 1019 
L 4122 359 
Q 3791 134 3420 21 
Q 3050 -91 2638 -91 
Q 1578 -91 968 557 
Q 359 1206 359 2328 
Q 359 3453 968 4101 
Q 1578 4750 2638 4750 
Q 3056 4750 3426 4639 
Q 3797 4528 4122 4306 
z
" transform="scale(0.015625)"/>
     </defs>
     <use xlink:href="#DejaVuSans-43"/>
    </g>
   </g>
   <g id="text_6">
    <!-- RL -->
    <g transform="translate(325.059563 100.99222) scale(0.14 -0.14)">
     <defs>
      <path id="DejaVuSans-52" d="M 2841 2188 
Q 3044 2119 3236 1894 
Q 3428 1669 3622 1275 
L 4263 0 
L 3584 0 
L 2988 1197 
Q 2756 1666 2539 1819 
Q 2322 1972 1947 1972 
L 1259 1972 
L 1259 0 
L 628 0 
L 628 4666 
L 2053 4666 
Q 2853 4666 3247 4331 
Q 3641 3997 3641 3322 
Q 3641 2881 3436 2590 
Q 3231 2300 2841 2188 
z
M 1259 4147 
L 1259 2491 
L 2053 2491 
Q 2509 2491 2742 2702 
Q 2975 2913 2975 3322 
Q 2975 3731 2742 3939 
Q 2509 4147 2053 4147 
L 1259 4147 
z
" transform="scale(0.015625)"/>
     </defs>
     <use xlink:href="#DejaVuSans-52"/>
     <use xlink:href="#DejaVuSans-4c" transform="translate(69.482422 0)"/>
    </g>
   </g>
  </g>
 </g>
 <defs>
  <clipPath id="pc5b3db2ed9">
   <rect x="0" y="0" width="368.868" height="155.809095"/>
  </clipPath>
 </defs>
</svg>