<?xml version="1.0" encoding="utf-8" standalone="no"?>
<!DOCTYPE svg PUBLIC "-//W3C//DTD SVG 1.1//EN"
  "http://www.w3.org/Graphics/SVG/1.1/DTD/svg11.dtd">
<svg xmlns:xlink="http://www.w3.org/1999/xlink" width="289.668pt" height="248.36pt" viewBox="0 0 289.668 248.36" xmlns="http://www.w3.org/2000/svg" version="1.1">
 <metadata>
  <rdf:RDF xmlns:dc="http://purl.org/dc/elements/1.1/" xmlns:cc="http://creativecommons.org/ns#" xmlns:rdf="http://www.w3.org/1999/02/22-rdf-syntax-ns#">
   <cc:Work>
    <dc:type rdf:resource="http://purl.org/dc/dcmitype/StillImage"/>
    <dc:date>2025-05-14T19:11:02.413959</dc:date>
    <dc:format>image/svg+xml</dc:format>
    <dc:creator>
     <cc:Agent>
      <dc:title>Matplotlib v3.10.3, https://matplotlib.org/</dc:title>
     </cc:Agent>
    </dc:creator>
   </cc:Work>
  </rdf:RDF>
 </metadata>
 <defs>
  <style type="text/css">*{stroke-linejoin: round; stroke-linecap: butt}</style>
 </defs>
 <g id="figure_1">
  <g id="patch_1">
   <path d="M 0 248.36 
L 289.668 248.36 
L 289.668 0 
L 0 0 
z
" style="fill: #ffffff"/>
  </g>
  <g id="axes_1">
   <g id="line2d_1">
    <path d="M 31.188 132.98 
L 31.188 89.105 
M 31.188 68.855 
L 31.188 24.98 
" clip-path="url(#p8ab761dc9a)" style="fill: none; stroke: #000000; stroke-width: 2; stroke-linecap: round"/>
   </g>
   <g id="line2d_2">
    <path d="M 44.688 68.855 
L 17.688 68.855 
" clip-path="url(#p8ab761dc9a)" style="fill: none; stroke: #000000; stroke-width: 2; stroke-linecap: round"/>
   </g>
   <g id="line2d_3">
    <path d="M 37.938 75.605 
L 24.438 75.605 
" clip-path="url(#p8ab761dc9a)" style="fill: none; stroke: #000000; stroke-width: 2; stroke-linecap: round"/>
   </g>
   <g id="line2d_4">
    <path d="M 44.688 82.355 
L 17.688 82.355 
" clip-path="url(#p8ab761dc9a)" style="fill: none; stroke: #000000; stroke-width: 2; stroke-linecap: round"/>
   </g>
   <g id="line2d_5">
    <path d="M 37.938 89.105 
L 24.438 89.105 
" clip-path="url(#p8ab761dc9a)" style="fill: none; stroke: #000000; stroke-width: 2; stroke-linecap: round"/>
   </g>
   <g id="line2d_6">
    <path d="M 31.188 24.98 
L 67.188 24.98 
L 103.188 24.98 
" clip-path="url(#p8ab761dc9a)" style="fill: none; stroke: #000000; stroke-width: 2; stroke-linecap: round"/>
   </g>
   <g id="line2d_7">
    <path d="M 103.188 24.98 
L 121.188 24.98 
L 139.188 24.98 
" clip-path="url(#p8ab761dc9a)" style="fill: none; stroke: #000000; stroke-width: 2; stroke-linecap: round"/>
   </g>
   <g id="line2d_8">
    <path d="M 139.188 24.98 
L 193.188 24.98 
L 247.188 24.98 
" clip-path="url(#p8ab761dc9a)" style="fill: none; stroke: #000000; stroke-width: 2; stroke-linecap: round"/>
   </g>
   <g id="line2d_9">
    <path d="M 247.188 24.98 
L 247.188 60.98 
L 256.188 63.98 
L 238.188 69.98 
L 256.188 75.98 
L 238.188 81.98 
L 256.188 87.98 
L 238.188 93.98 
L 247.188 96.98 
L 247.188 132.98 
" clip-path="url(#p8ab761dc9a)" style="fill: none; stroke: #000000; stroke-width: 2; stroke-linecap: round"/>
   </g>
   <g id="line2d_10">
    <path d="M 247.188 132.98 
L 247.188 168.98 
L 256.188 171.98 
L 238.188 177.98 
L 256.188 183.98 
L 238.188 189.98 
L 256.188 195.98 
L 238.188 201.98 
L 247.188 204.98 
L 247.188 240.98 
" clip-path="url(#p8ab761dc9a)" style="fill: none; stroke: #000000; stroke-width: 2; stroke-linecap: round"/>
   </g>
   <g id="line2d_11">
    <path d="M 247.188 240.98 
L 193.188 240.98 
L 139.188 240.98 
" clip-path="url(#p8ab761dc9a)" style="fill: none; stroke: #000000; stroke-width: 2; stroke-linecap: round"/>
   </g>
   <g id="line2d_12">
    <path d="M 139.188 24.98 
L 139.188 60.98 
L 148.188 63.98 
L 130.188 69.98 
L 148.188 75.98 
L 130.188 81.98 
L 148.188 87.98 
L 130.188 93.98 
L 139.188 96.98 
L 139.188 132.98 
" clip-path="url(#p8ab761dc9a)" style="fill: none; stroke: #000000; stroke-width: 2; stroke-linecap: round"/>
   </g>
   <g id="line2d_13">
    <path d="M 139.188 132.98 
L 139.188 168.98 
L 148.188 171.98 
L 130.188 177.98 
L 148.188 183.98 
L 130.188 189.98 
L 148.188 195.98 
L 130.188 201.98 
L 139.188 204.98 
L 139.188 240.98 
" clip-path="url(#p8ab761dc9a)" style="fill: none; stroke: #000000; stroke-width: 2; stroke-linecap: round"/>
   </g>
   <g id="line2d_14">
    <path d="M 139.188 240.98 
L 121.188 240.98 
L 103.188 240.98 
" clip-path="url(#p8ab761dc9a)" style="fill: none; stroke: #000000; stroke-width: 2; stroke-linecap: round"/>
   </g>
   <g id="line2d_15">
    <path d="M 103.188 240.98 
L 67.188 240.98 
L 31.188 240.98 
" clip-path="url(#p8ab761dc9a)" style="fill: none; stroke: #000000; stroke-width: 2; stroke-linecap: round"/>
   </g>
   <g id="line2d_16">
    <path d="M 31.188 240.98 
L 31.188 186.98 
L 31.188 132.98 
" clip-path="url(#p8ab761dc9a)" style="fill: none; stroke: #000000; stroke-width: 2; stroke-linecap: round"/>
   </g>
   <g id="text_1">
    <!-- E -->
    <g transform="translate(5.24175 82.843125) scale(0.14 -0.14)">
     <defs>
      <path id="DejaVuSans-45" d="M 628 4666 
L 3578 4666 
L 3578 4134 
L 1259 4134 
L 1259 2753 
L 3481 2753 
L 3481 2222 
L 1259 2222 
L 1259 531 
L 3634 531 
L 3634 0 
L 628 0 
L 628 4666 
z
" transform="scale(0.015625)"/>
     </defs>
     <use xlink:href="#DejaVuSans-45"/>
    </g>
   </g>
   <g id="patch_2">
    <path d="M 103.188 27.68 
C 103.904048 27.68 104.590866 27.395511 105.097188 26.889188 
C 105.603511 26.382866 105.888 25.696048 105.888 24.98 
C 105.888 24.263952 105.603511 23.577134 105.097188 23.070812 
C 104.590866 22.564489 103.904048 22.28 103.188 22.28 
C 102.471952 22.28 101.785134 22.564489 101.278812 23.070812 
C 100.772489 23.577134 100.488 24.263952 100.488 24.98 
C 100.488 25.696048 100.772489 26.382866 101.278812 26.889188 
C 101.785134 27.395511 102.471952 27.68 103.188 27.68 
z
" clip-path="url(#p8ab761dc9a)" style="fill: #ffffff; stroke: #000000; stroke-width: 2; stroke-linejoin: miter"/>
   </g>
   <g id="text_2">
    <!-- +Excitation -->
    <g transform="translate(27.992688 15.768438) scale(0.14 -0.14)">
     <defs>
      <path id="DejaVuSans-2b" d="M 2944 4013 
L 2944 2272 
L 4684 2272 
L 4684 1741 
L 2944 1741 
L 2944 0 
L 2419 0 
L 2419 1741 
L 678 1741 
L 678 2272 
L 2419 2272 
L 2419 4013 
L 2944 4013 
z
" transform="scale(0.015625)"/>
      <path id="DejaVuSans-78" d="M 3513 3500 
L 2247 1797 
L 3578 0 
L 2900 0 
L 1881 1375 
L 863 0 
L 184 0 
L 1544 1831 
L 300 3500 
L 978 3500 
L 1906 2253 
L 2834 3500 
L 3513 3500 
z
" transform="scale(0.015625)"/>
      <path id="DejaVuSans-63" d="M 3122 3366 
L 3122 2828 
Q 2878 2963 2633 3030 
Q 2388 3097 2138 3097 
Q 1578 3097 1268 2742 
Q 959 2388 959 1747 
Q 959 1106 1268 751 
Q 1578 397 2138 397 
Q 2388 397 2633 464 
Q 2878 531 3122 666 
L 3122 134 
Q 2881 22 2623 -34 
Q 2366 -91 2075 -91 
Q 1284 -91 818 406 
Q 353 903 353 1747 
Q 353 2603 823 3093 
Q 1294 3584 2113 3584 
Q 2378 3584 2631 3529 
Q 2884 3475 3122 3366 
z
" transform="scale(0.015625)"/>
      <path id="DejaVuSans-69" d="M 603 3500 
L 1178 3500 
L 1178 0 
L 603 0 
L 603 3500 
z
M 603 4863 
L 1178 4863 
L 1178 4134 
L 603 4134 
L 603 4863 
z
" transform="scale(0.015625)"/>
      <path id="DejaVuSans-74" d="M 1172 4494 
L 1172 3500 
L 2356 3500 
L 2356 3053 
L 1172 3053 
L 1172 1153 
Q 1172 725 1289 603 
Q 1406 481 1766 481 
L 2356 481 
L 2356 0 
L 1766 0 
Q 1100 0 847 248 
Q 594 497 594 1153 
L 594 3053 
L 172 3053 
L 172 3500 
L 594 3500 
L 594 4494 
L 1172 4494 
z
" transform="scale(0.015625)"/>
      <path id="DejaVuSans-61" d="M 2194 1759 
Q 1497 1759 1228 1600 
Q 959 1441 959 1056 
Q 959 750 1161 570 
Q 1363 391 1709 391 
Q 2188 391 2477 730 
Q 2766 1069 2766 1631 
L 2766 1759 
L 2194 1759 
z
M 3341 1997 
L 3341 0 
L 2766 0 
L 2766 531 
Q 2569 213 2275 61 
Q 1981 -91 1556 -91 
Q 1019 -91 701 211 
Q 384 513 384 1019 
Q 384 1609 779 1909 
Q 1175 2209 1959 2209 
L 2766 2209 
L 2766 2266 
Q 2766 2663 2505 2880 
Q 2244 3097 1772 3097 
Q 1472 3097 1187 3025 
Q 903 2953 641 2809 
L 641 3341 
Q 956 3463 1253 3523 
Q 1550 3584 1831 3584 
Q 2591 3584 2966 3190 
Q 3341 2797 3341 1997 
z
" transform="scale(0.015625)"/>
      <path id="DejaVuSans-6f" d="M 1959 3097 
Q 1497 3097 1228 2736 
Q 959 2375 959 1747 
Q 959 1119 1226 758 
Q 1494 397 1959 397 
Q 2419 397 2687 759 
Q 2956 1122 2956 1747 
Q 2956 2369 2687 2733 
Q 2419 3097 1959 3097 
z
M 1959 3584 
Q 2709 3584 3137 3096 
Q 3566 2609 3566 1747 
Q 3566 888 3137 398 
Q 2709 -91 1959 -91 
Q 1206 -91 779 398 
Q 353 888 353 1747 
Q 353 2609 779 3096 
Q 1206 3584 1959 3584 
z
" transform="scale(0.015625)"/>
      <path id="DejaVuSans-6e" d="M 3513 2113 
L 3513 0 
L 2938 0 
L 2938 2094 
Q 2938 2591 2744 2837 
Q 2550 3084 2163 3084 
Q 1697 3084 1428 2787 
Q 1159 2491 1159 1978 
L 1159 0 
L 581 0 
L 581 3500 
L 1159 3500 
L 1159 2956 
Q 1366 3272 1645 3428 
Q 1925 3584 2291 3584 
Q 2894 3584 3203 3211 
Q 3513 2838 3513 2113 
z
" transform="scale(0.015625)"/>
     </defs>
     <use xlink:href="#DejaVuSans-2b"/>
     <use xlink:href="#DejaVuSans-45" transform="translate(83.789062 0)"/>
     <use xlink:href="#DejaVuSans-78" transform="translate(146.972656 0)"/>
     <use xlink:href="#DejaVuSans-63" transform="translate(204.402344 0)"/>
     <use xlink:href="#DejaVuSans-69" transform="translate(259.382812 0)"/>
     <use xlink:href="#DejaVuSans-74" transform="translate(287.166016 0)"/>
     <use xlink:href="#DejaVuSans-61" transform="translate(326.375 0)"/>
     <use xlink:href="#DejaVuSans-74" transform="translate(387.654297 0)"/>
     <use xlink:href="#DejaVuSans-69" transform="translate(426.863281 0)"/>
     <use xlink:href="#DejaVuSans-6f" transform="translate(454.646484 0)"/>
     <use xlink:href="#DejaVuSans-6e" transform="translate(515.828125 0)"/>
    </g>
   </g>
   <g id="patch_3">
    <path d="M 139.188 27.68 
C 139.904048 27.68 140.590866 27.395511 141.097188 26.889188 
C 141.603511 26.382866 141.888 25.696048 141.888 24.98 
C 141.888 24.263952 141.603511 23.577134 141.097188 23.070812 
C 140.590866 22.564489 139.904048 22.28 139.188 22.28 
C 138.471952 22.28 137.785134 22.564489 137.278812 23.070812 
C 136.772489 23.577134 136.488 24.263952 136.488 24.98 
C 136.488 25.696048 136.772489 26.382866 137.278812 26.889188 
C 137.785134 27.395511 138.471952 27.68 139.188 27.68 
z
" clip-path="url(#p8ab761dc9a)" style="fill: #ffffff; stroke: #000000; stroke-width: 2; stroke-linejoin: miter"/>
   </g>
   <g id="patch_4">
    <path d="M 247.188 135.68 
C 247.904048 135.68 248.590866 135.395511 249.097188 134.889188 
C 249.603511 134.382866 249.888 133.696048 249.888 132.98 
C 249.888 132.263952 249.603511 131.577134 249.097188 131.070812 
C 248.590866 130.564489 247.904048 130.28 247.188 130.28 
C 246.471952 130.28 245.785134 130.564489 245.278812 131.070812 
C 244.772489 131.577134 244.488 132.263952 244.488 132.98 
C 244.488 133.696048 244.772489 134.382866 245.278812 134.889188 
C 245.785134 135.395511 246.471952 135.68 247.188 135.68 
z
" clip-path="url(#p8ab761dc9a)" style="fill: #ffffff; stroke: #000000; stroke-width: 2; stroke-linejoin: miter"/>
   </g>
   <g id="text_3">
    <!-- R+ΔR -->
    <g transform="translate(193.823937 84.193125) scale(0.14 -0.14)">
     <defs>
      <path id="DejaVuSans-52" d="M 2841 2188 
Q 3044 2119 3236 1894 
Q 3428 1669 3622 1275 
L 4263 0 
L 3584 0 
L 2988 1197 
Q 2756 1666 2539 1819 
Q 2322 1972 1947 1972 
L 1259 1972 
L 1259 0 
L 628 0 
L 628 4666 
L 2053 4666 
Q 2853 4666 3247 4331 
Q 3641 3997 3641 3322 
Q 3641 2881 3436 2590 
Q 3231 2300 2841 2188 
z
M 1259 4147 
L 1259 2491 
L 2053 2491 
Q 2509 2491 2742 2702 
Q 2975 2913 2975 3322 
Q 2975 3731 2742 3939 
Q 2509 4147 2053 4147 
L 1259 4147 
z
" transform="scale(0.015625)"/>
      <path id="DejaVuSans-394" d="M 2188 4044 
L 906 525 
L 3472 525 
L 2188 4044 
z
M 50 0 
L 1831 4666 
L 2547 4666 
L 4325 0 
L 50 0 
z
" transform="scale(0.015625)"/>
     </defs>
     <use xlink:href="#DejaVuSans-52"/>
     <use xlink:href="#DejaVuSans-2b" transform="translate(69.482422 0)"/>
     <use xlink:href="#DejaVuSans-394" transform="translate(153.271484 0)"/>
     <use xlink:href="#DejaVuSans-52" transform="translate(221.679688 0)"/>
    </g>
   </g>
   <g id="text_4">
    <!-- -out -->
    <g transform="translate(259.788 84.193125) scale(0.14 -0.14)">
     <defs>
      <path id="DejaVuSans-2d" d="M 313 2009 
L 1997 2009 
L 1997 1497 
L 313 1497 
L 313 2009 
z
" transform="scale(0.015625)"/>
      <path id="DejaVuSans-75" d="M 544 1381 
L 544 3500 
L 1119 3500 
L 1119 1403 
Q 1119 906 1312 657 
Q 1506 409 1894 409 
Q 2359 409 2629 706 
Q 2900 1003 2900 1516 
L 2900 3500 
L 3475 3500 
L 3475 0 
L 2900 0 
L 2900 538 
Q 2691 219 2414 64 
Q 2138 -91 1772 -91 
Q 1169 -91 856 284 
Q 544 659 544 1381 
z
M 1991 3584 
L 1991 3584 
z
" transform="scale(0.015625)"/>
     </defs>
     <use xlink:href="#DejaVuSans-2d"/>
     <use xlink:href="#DejaVuSans-6f" transform="translate(37.958984 0)"/>
     <use xlink:href="#DejaVuSans-75" transform="translate(99.140625 0)"/>
     <use xlink:href="#DejaVuSans-74" transform="translate(162.519531 0)"/>
    </g>
   </g>
   <g id="text_5">
    <!-- R -->
    <g transform="translate(224.860187 190.843125) scale(0.14 -0.14)">
     <use xlink:href="#DejaVuSans-52"/>
    </g>
   </g>
   <g id="patch_5">
    <path d="M 139.188 135.68 
C 139.904048 135.68 140.590866 135.395511 141.097188 134.889188 
C 141.603511 134.382866 141.888 133.696048 141.888 132.98 
C 141.888 132.263952 141.603511 131.577134 141.097188 131.070812 
C 140.590866 130.564489 139.904048 130.28 139.188 130.28 
C 138.471952 130.28 137.785134 130.564489 137.278812 131.070812 
C 136.772489 131.577134 136.488 132.263952 136.488 132.98 
C 136.488 133.696048 136.772489 134.382866 137.278812 134.889188 
C 137.785134 135.395511 138.471952 135.68 139.188 135.68 
z
" clip-path="url(#p8ab761dc9a)" style="fill: #ffffff; stroke: #000000; stroke-width: 2; stroke-linejoin: miter"/>
   </g>
   <g id="text_6">
    <!-- R -->
    <g transform="translate(116.860187 84.193125) scale(0.14 -0.14)">
     <use xlink:href="#DejaVuSans-52"/>
    </g>
   </g>
   <g id="text_7">
    <!-- +out -->
    <g transform="translate(151.788 84.193125) scale(0.14 -0.14)">
     <use xlink:href="#DejaVuSans-2b"/>
     <use xlink:href="#DejaVuSans-6f" transform="translate(83.789062 0)"/>
     <use xlink:href="#DejaVuSans-75" transform="translate(144.970703 0)"/>
     <use xlink:href="#DejaVuSans-74" transform="translate(208.349609 0)"/>
    </g>
   </g>
   <g id="patch_6">
    <path d="M 139.188 243.68 
C 139.904048 243.68 140.590866 243.395511 141.097188 242.889188 
C 141.603511 242.382866 141.888 241.696048 141.888 240.98 
C 141.888 240.263952 141.603511 239.577134 141.097188 239.070812 
C 140.590866 238.564489 139.904048 238.28 139.188 238.28 
C 138.471952 238.28 137.785134 238.564489 137.278812 239.070812 
C 136.772489 239.577134 136.488 240.263952 136.488 240.98 
C 136.488 241.696048 136.772489 242.382866 137.278812 242.889188 
C 137.785134 243.395511 138.471952 243.68 139.188 243.68 
z
" clip-path="url(#p8ab761dc9a)" style="fill: #ffffff; stroke: #000000; stroke-width: 2; stroke-linejoin: miter"/>
   </g>
   <g id="text_8">
    <!-- R -->
    <g transform="translate(116.860187 192.193125) scale(0.14 -0.14)">
     <use xlink:href="#DejaVuSans-52"/>
    </g>
   </g>
   <g id="patch_7">
    <path d="M 103.188 243.68 
C 103.904048 243.68 104.590866 243.395511 105.097188 242.889188 
C 105.603511 242.382866 105.888 241.696048 105.888 240.98 
C 105.888 240.263952 105.603511 239.577134 105.097188 239.070812 
C 104.590866 238.564489 103.904048 238.28 103.188 238.28 
C 102.471952 238.28 101.785134 238.564489 101.278812 239.070812 
C 100.772489 239.577134 100.488 240.263952 100.488 240.98 
C 100.488 241.696048 100.772489 242.382866 101.278812 242.889188 
C 101.785134 243.395511 102.471952 243.68 103.188 243.68 
z
" clip-path="url(#p8ab761dc9a)" style="fill: #ffffff; stroke: #000000; stroke-width: 2; stroke-linejoin: miter"/>
   </g>
  </g>
 </g>
 <defs>
  <clipPath id="p8ab761dc9a">
   <rect x="0" y="0" width="289.668" height="248.36"/>
  </clipPath>
 </defs>
</svg>