<?xml version="1.0" encoding="utf-8" standalone="no"?>
<!DOCTYPE svg PUBLIC "-//W3C//DTD SVG 1.1//EN"
  "http://www.w3.org/Graphics/SVG/1.1/DTD/svg11.dtd">
<svg xmlns:xlink="http://www.w3.org/1999/xlink" width="368.868pt" height="143.96pt" viewBox="0 0 368.868 143.96" xmlns="http://www.w3.org/2000/svg" version="1.1">
 <metadata>
  <rdf:RDF xmlns:dc="http://purl.org/dc/elements/1.1/" xmlns:cc="http://creativecommons.org/ns#" xmlns:rdf="http://www.w3.org/1999/02/22-rdf-syntax-ns#">
   <cc:Work>
    <dc:type rdf:resource="http://purl.org/dc/dcmitype/StillImage"/>
    <dc:date>2025-05-14T19:08:47.061983</dc:date>
    <dc:format>image/svg+xml</dc:format>
    <dc:creator>
     <cc:Agent>
      <dc:title>Matplotlib v3.10.3, https://matplotlib.org/</dc:title>
     </cc:Agent>
    </dc:creator>
   </cc:Work>
  </rdf:RDF>
 </metadata>
 <defs>
  <style type="text/css">*{stroke-linejoin: round; stroke-linecap: butt}</style>
 </defs>
 <g id="figure_1">
  <g id="patch_1">
   <path d="M 0 143.96 
L 368.868 143.96 
L 368.868 0 
L 0 0 
z
" style="fill: #ffffff"/>
  </g>
  <g id="axes_1">
   <g id="patch_2">
    <path d="M 76.188 31.28 
C 76.188 30.086984 75.713571 28.94161 74.869981 28.098019 
C 74.02639 27.254429 72.881016 26.78 71.688 26.78 
C 70.494984 26.78 69.34961 27.254429 68.506019 28.098019 
C 67.662429 28.94161 67.188 30.086984 67.188 31.28 
" clip-path="url(#pf959570f4c)" style="fill: none; stroke: #000000; stroke-width: 2; stroke-linejoin: miter"/>
   </g>
   <g id="patch_3">
    <path d="M 85.188 31.28 
C 85.188 30.086984 84.713571 28.94161 83.869981 28.098019 
C 83.02639 27.254429 81.881016 26.78 80.688 26.78 
C 79.494984 26.78 78.34961 27.254429 77.506019 28.098019 
C 76.662429 28.94161 76.188 30.086984 76.188 31.28 
" clip-path="url(#pf959570f4c)" style="fill: none; stroke: #000000; stroke-width: 2; stroke-linejoin: miter"/>
   </g>
   <g id="patch_4">
    <path d="M 94.188 31.28 
C 94.188 30.086984 93.713571 28.94161 92.869981 28.098019 
C 92.02639 27.254429 90.881016 26.78 89.688 26.78 
C 88.494984 26.78 87.34961 27.254429 86.506019 28.098019 
C 85.662429 28.94161 85.188 30.086984 85.188 31.28 
" clip-path="url(#pf959570f4c)" style="fill: none; stroke: #000000; stroke-width: 2; stroke-linejoin: miter"/>
   </g>
   <g id="patch_5">
    <path d="M 103.188 31.28 
C 103.188 30.086984 102.713571 28.94161 101.869981 28.098019 
C 101.02639 27.254429 99.881016 26.78 98.688 26.78 
C 97.494984 26.78 96.34961 27.254429 95.506019 28.098019 
C 94.662429 28.94161 94.188 30.086984 94.188 31.28 
" clip-path="url(#pf959570f4c)" style="fill: none; stroke: #000000; stroke-width: 2; stroke-linejoin: miter"/>
   </g>
   <g id="patch_6">
    <path d="M 146.611909 90.618455 
C 149.286165 90.82803 151.994291 90.499489 154.386364 89.675284 
C 156.778437 88.85108 158.746792 87.568308 160.037095 85.992718 
" clip-path="url(#pf959570f4c)" style="fill: none; stroke: #000000; stroke-width: 2; stroke-linejoin: miter"/>
   </g>
   <g id="patch_7">
    <path d="M 137.315916 89.525698 
L 146.569589 87.894889 
L 146.256473 90.558549 
L 146.614011 90.600578 
L 146.609808 90.636332 
L 146.25227 90.594303 
L 145.939153 93.257962 
z
" clip-path="url(#pf959570f4c)" style="stroke: #000000; stroke-linejoin: miter"/>
   </g>
   <g id="patch_8">
    <path d="M 186.888 22.28 
L 199.488 31.28 
L 186.888 40.28 
L 186.888 22.28 
z
" clip-path="url(#pf959570f4c)" style="fill: none; stroke: #000000; stroke-width: 2; stroke-linecap: round"/>
   </g>
   <g id="line2d_1">
    <path d="M 31.188 139.28 
L 31.188 88.655 
M 31.188 81.905 
L 31.188 31.28 
" clip-path="url(#pf959570f4c)" style="fill: none; stroke: #000000; stroke-width: 2; stroke-linecap: round"/>
   </g>
   <g id="line2d_2">
    <path d="M 44.688 81.905 
L 17.688 81.905 
" clip-path="url(#pf959570f4c)" style="fill: none; stroke: #000000; stroke-width: 2; stroke-linecap: round"/>
   </g>
   <g id="line2d_3">
    <path d="M 37.938 88.655 
L 24.438 88.655 
" clip-path="url(#pf959570f4c)" style="fill: none; stroke: #000000; stroke-width: 2; stroke-linecap: round"/>
   </g>
   <g id="line2d_4">
    <path d="M 31.188 31.28 
L 67.188 31.28 
M 103.188 31.28 
L 139.188 31.28 
" clip-path="url(#pf959570f4c)" style="fill: none; stroke: #000000; stroke-width: 2; stroke-linecap: round"/>
   </g>
   <g id="line2d_5">
    <path d="M 139.188 31.28 
L 139.188 67.28 
M 142.788 75.92 
L 155.388 96.08 
M 139.188 103.28 
L 139.188 139.28 
" clip-path="url(#pf959570f4c)" style="fill: none; stroke: #000000; stroke-width: 2; stroke-linecap: round"/>
   </g>
   <g id="line2d_6">
    <path d="M 139.188 31.28 
L 186.888 31.28 
M 199.488 22.28 
L 199.488 40.28 
M 199.488 31.28 
L 247.188 31.28 
" clip-path="url(#pf959570f4c)" style="fill: none; stroke: #000000; stroke-width: 2; stroke-linecap: round"/>
   </g>
   <g id="line2d_7">
    <path d="M 247.188 31.28 
L 247.188 82.04 
M 256.188 82.04 
L 238.188 82.04 
M 256.188 88.52 
L 238.188 88.52 
M 247.188 88.52 
L 247.188 139.28 
" clip-path="url(#pf959570f4c)" style="fill: none; stroke: #000000; stroke-width: 2; stroke-linecap: round"/>
   </g>
   <g id="line2d_8">
    <path d="M 247.188 31.28 
L 301.188 31.28 
L 355.188 31.28 
" clip-path="url(#pf959570f4c)" style="fill: none; stroke: #000000; stroke-width: 2; stroke-linecap: round"/>
   </g>
   <g id="line2d_9">
    <path d="M 355.188 31.28 
L 355.188 67.28 
L 364.188 70.28 
L 346.188 76.28 
L 364.188 82.28 
L 346.188 88.28 
L 364.188 94.28 
L 346.188 100.28 
L 355.188 103.28 
L 355.188 139.28 
" clip-path="url(#pf959570f4c)" style="fill: none; stroke: #000000; stroke-width: 2; stroke-linecap: round"/>
   </g>
   <g id="line2d_10">
    <path d="M 355.188 139.28 
L 193.188 139.28 
L 31.188 139.28 
" clip-path="url(#pf959570f4c)" style="fill: none; stroke: #000000; stroke-width: 2; stroke-linecap: round"/>
   </g>
   <g id="text_1">
    <!-- E -->
    <g transform="translate(5.24175 89.143125) scale(0.14 -0.14)">
     <defs>
      <path id="DejaVuSans-45" d="M 628 4666 
L 3578 4666 
L 3578 4134 
L 1259 4134 
L 1259 2753 
L 3481 2753 
L 3481 2222 
L 1259 2222 
L 1259 531 
L 3634 531 
L 3634 0 
L 628 0 
L 628 4666 
z
" transform="scale(0.015625)"/>
     </defs>
     <use xlink:href="#DejaVuSans-45"/>
    </g>
   </g>
   <g id="text_2">
    <!-- L -->
    <g transform="translate(81.287688 20.26846) scale(0.14 -0.14)">
     <defs>
      <path id="DejaVuSans-4c" d="M 628 4666 
L 1259 4666 
L 1259 531 
L 3531 531 
L 3531 0 
L 628 0 
L 628 4666 
z
" transform="scale(0.015625)"/>
     </defs>
     <use xlink:href="#DejaVuSans-4c"/>
    </g>
   </g>
   <g id="patch_9">
    <path d="M 139.188 75.92 
C 140.333677 75.92 141.432585 75.464818 142.242701 74.654701 
C 143.052818 73.844585 143.508 72.745677 143.508 71.6 
C 143.508 70.454323 143.052818 69.355415 142.242701 68.545299 
C 141.432585 67.735182 140.333677 67.28 139.188 67.28 
C 138.042323 67.28 136.943415 67.735182 136.133299 68.545299 
C 135.323182 69.355415 134.868 70.454323 134.868 71.6 
C 134.868 72.745677 135.323182 73.844585 136.133299 74.654701 
C 136.943415 75.464818 138.042323 75.92 139.188 75.92 
z
" clip-path="url(#pf959570f4c)" style="fill: #ffffff; stroke: #000000; stroke-width: 2; stroke-linejoin: miter"/>
   </g>
   <g id="patch_10">
    <path d="M 139.188 103.28 
C 140.333677 103.28 141.432585 102.824818 142.242701 102.014701 
C 143.052818 101.204585 143.508 100.105677 143.508 98.96 
C 143.508 97.814323 143.052818 96.715415 142.242701 95.905299 
C 141.432585 95.095182 140.333677 94.64 139.188 94.64 
C 138.042323 94.64 136.943415 95.095182 136.133299 95.905299 
C 135.323182 96.715415 134.868 97.814323 134.868 98.96 
C 134.868 100.105677 135.323182 101.204585 136.133299 102.014701 
C 136.943415 102.824818 138.042323 103.28 139.188 103.28 
z
" clip-path="url(#pf959570f4c)" style="fill: #ffffff; stroke: #000000; stroke-width: 2; stroke-linejoin: miter"/>
   </g>
   <g id="text_3">
    <!-- S -->
    <g transform="translate(122.380188 89.143125) scale(0.14 -0.14)">
     <defs>
      <path id="DejaVuSans-53" d="M 3425 4513 
L 3425 3897 
Q 3066 4069 2747 4153 
Q 2428 4238 2131 4238 
Q 1616 4238 1336 4038 
Q 1056 3838 1056 3469 
Q 1056 3159 1242 3001 
Q 1428 2844 1947 2747 
L 2328 2669 
Q 3034 2534 3370 2195 
Q 3706 1856 3706 1288 
Q 3706 609 3251 259 
Q 2797 -91 1919 -91 
Q 1588 -91 1214 -16 
Q 841 59 441 206 
L 441 856 
Q 825 641 1194 531 
Q 1563 422 1919 422 
Q 2459 422 2753 634 
Q 3047 847 3047 1241 
Q 3047 1584 2836 1778 
Q 2625 1972 2144 2069 
L 1759 2144 
Q 1053 2284 737 2584 
Q 422 2884 422 3419 
Q 422 4038 858 4394 
Q 1294 4750 2059 4750 
Q 2388 4750 2728 4690 
Q 3069 4631 3425 4513 
z
" transform="scale(0.015625)"/>
     </defs>
     <use xlink:href="#DejaVuSans-53"/>
    </g>
   </g>
   <g id="text_4">
    <!-- D -->
    <g transform="translate(187.798 15.768437) scale(0.14 -0.14)">
     <defs>
      <path id="DejaVuSans-44" d="M 1259 4147 
L 1259 519 
L 2022 519 
Q 2988 519 3436 956 
Q 3884 1394 3884 2338 
Q 3884 3275 3436 3711 
Q 2988 4147 2022 4147 
L 1259 4147 
z
M 628 4666 
L 1925 4666 
Q 3281 4666 3915 4102 
Q 4550 3538 4550 2338 
Q 4550 1131 3912 565 
Q 3275 0 1925 0 
L 628 0 
L 628 4666 
z
" transform="scale(0.015625)"/>
     </defs>
     <use xlink:href="#DejaVuSans-44"/>
    </g>
   </g>
   <g id="text_5">
    <!-- C -->
    <g transform="translate(224.812062 89.143125) scale(0.14 -0.14)">
     <defs>
      <path id="DejaVuSans-43" d="M 4122 4306 
L 4122 3641 
Q 3803 3938 3442 4084 
Q 3081 4231 2675 4231 
Q 1875 4231 1450 3742 
Q 1025 3253 1025 2328 
Q 1025 1406 1450 917 
Q 1875 428 2675 428 
Q 3081 428 3442 575 
Q 3803 722 4122 1019 
L 4122 359 
Q 3791 134 3420 21 
Q 3050 -91 2638 -91 
Q 1578 -91 968 557 
Q 359 1206 359 2328 
Q 359 3453 968 4101 
Q 1578 4750 2638 4750 
Q 3056 4750 3426 4639 
Q 3797 4528 4122 4306 
z
" transform="scale(0.015625)"/>
     </defs>
     <use xlink:href="#DejaVuSans-43"/>
    </g>
   </g>
   <g id="text_6">
    <!-- RL -->
    <g transform="translate(325.059563 89.143125) scale(0.14 -0.14)">
     <defs>
      <path id="DejaVuSans-52" d="M 2841 2188 
Q 3044 2119 3236 1894 
Q 3428 1669 3622 1275 
L 4263 0 
L 3584 0 
L 2988 1197 
Q 2756 1666 2539 1819 
Q 2322 1972 1947 1972 
L 1259 1972 
L 1259 0 
L 628 0 
L 628 4666 
L 2053 4666 
Q 2853 4666 3247 4331 
Q 3641 3997 3641 3322 
Q 3641 2881 3436 2590 
Q 3231 2300 2841 2188 
z
M 1259 4147 
L 1259 2491 
L 2053 2491 
Q 2509 2491 2742 2702 
Q 2975 2913 2975 3322 
Q 2975 3731 2742 3939 
Q 2509 4147 2053 4147 
L 1259 4147 
z
" transform="scale(0.015625)"/>
     </defs>
     <use xlink:href="#DejaVuSans-52"/>
     <use xlink:href="#DejaVuSans-4c" transform="translate(69.482422 0)"/>
    </g>
   </g>
  </g>
 </g>
 <defs>
  <clipPath id="pf959570f4c">
   <rect x="0" y="0" width="368.868" height="143.96"/>
  </clipPath>
 </defs>
</svg>