<?xml version="1.0" encoding="utf-8" standalone="no"?>
<!DOCTYPE svg PUBLIC "-//W3C//DTD SVG 1.1//EN"
  "http://www.w3.org/Graphics/SVG/1.1/DTD/svg11.dtd">
<svg xmlns:xlink="http://www.w3.org/1999/xlink" width="282.06pt" height="164.2pt" viewBox="0 0 282.06 164.2" xmlns="http://www.w3.org/2000/svg" version="1.1">
 <metadata>
  <rdf:RDF xmlns:dc="http://purl.org/dc/elements/1.1/" xmlns:cc="http://creativecommons.org/ns#" xmlns:rdf="http://www.w3.org/1999/02/22-rdf-syntax-ns#">
   <cc:Work>
    <dc:type rdf:resource="http://purl.org/dc/dcmitype/StillImage"/>
    <dc:date>2025-01-12T18:53:54.431859</dc:date>
    <dc:format>image/svg+xml</dc:format>
    <dc:creator>
     <cc:Agent>
      <dc:title>Matplotlib v3.9.2, https://matplotlib.org/</dc:title>
     </cc:Agent>
    </dc:creator>
   </cc:Work>
  </rdf:RDF>
 </metadata>
 <defs>
  <style type="text/css">*{stroke-linejoin: round; stroke-linecap: butt}</style>
 </defs>
 <g id="figure_1">
  <g id="patch_1">
   <path d="M 0 164.2 
L 282.06 164.2 
L 282.06 0 
L 0 0 
z
" style="fill: #ffffff"/>
  </g>
  <g id="axes_1">
   <g id="patch_2">
    <path d="M 22.68 100.48 
C 27.453656 100.48 32.032438 98.583406 35.407922 95.207922 
C 38.783406 91.832438 40.68 87.253656 40.68 82.48 
C 40.68 77.706344 38.783406 73.127562 35.407922 69.752078 
C 32.032438 66.376594 27.453656 64.48 22.68 64.48 
C 17.906344 64.48 13.327562 66.376594 9.952078 69.752078 
C 6.576594 73.127562 4.68 77.706344 4.68 82.48 
C 4.68 87.253656 6.576594 91.832438 9.952078 95.207922 
C 13.327562 98.583406 17.906344 100.48 22.68 100.48 
L 22.68 100.48 
z
" clip-path="url(#p04b75ee304)" style="fill: none; stroke: #000000; stroke-width: 2; stroke-linejoin: miter"/>
   </g>
   <g id="patch_3">
    <path d="M 67.68 28.48 
C 67.68 27.286984 67.205571 26.14161 66.361981 25.298019 
C 65.51839 24.454429 64.373016 23.98 63.18 23.98 
C 61.986984 23.98 60.84161 24.454429 59.998019 25.298019 
C 59.154429 26.14161 58.68 27.286984 58.68 28.48 
" clip-path="url(#p04b75ee304)" style="fill: none; stroke: #000000; stroke-width: 2; stroke-linejoin: miter"/>
   </g>
   <g id="patch_4">
    <path d="M 76.68 28.48 
C 76.68 27.286984 76.205571 26.14161 75.361981 25.298019 
C 74.51839 24.454429 73.373016 23.98 72.18 23.98 
C 70.986984 23.98 69.84161 24.454429 68.998019 25.298019 
C 68.154429 26.14161 67.68 27.286984 67.68 28.48 
" clip-path="url(#p04b75ee304)" style="fill: none; stroke: #000000; stroke-width: 2; stroke-linejoin: miter"/>
   </g>
   <g id="patch_5">
    <path d="M 85.68 28.48 
C 85.68 27.286984 85.205571 26.14161 84.361981 25.298019 
C 83.51839 24.454429 82.373016 23.98 81.18 23.98 
C 79.986984 23.98 78.84161 24.454429 77.998019 25.298019 
C 77.154429 26.14161 76.68 27.286984 76.68 28.48 
" clip-path="url(#p04b75ee304)" style="fill: none; stroke: #000000; stroke-width: 2; stroke-linejoin: miter"/>
   </g>
   <g id="patch_6">
    <path d="M 94.68 28.48 
C 94.68 27.286984 94.205571 26.14161 93.361981 25.298019 
C 92.51839 24.454429 91.373016 23.98 90.18 23.98 
C 88.986984 23.98 87.84161 24.454429 86.998019 25.298019 
C 86.154429 26.14161 85.68 27.286984 85.68 28.48 
" clip-path="url(#p04b75ee304)" style="fill: none; stroke: #000000; stroke-width: 2; stroke-linejoin: miter"/>
   </g>
   <g id="line2d_1">
    <path d="M 22.68 136.48 
L 22.68 150.88 
L 13.68 150.88 
L 31.68 150.88 
M 16.38 155.2 
L 28.98 155.2 
M 20.88 159.52 
L 24.48 159.52 
" clip-path="url(#p04b75ee304)" style="fill: none; stroke: #000000; stroke-width: 2; stroke-linecap: round"/>
   </g>
   <g id="line2d_2">
    <path d="M 22.68 136.48 
L 22.68 100.48 
L 22.68 100.48 
M 22.68 64.48 
L 22.68 64.48 
L 22.68 28.48 
" clip-path="url(#p04b75ee304)" style="fill: none; stroke: #000000; stroke-width: 2; stroke-linecap: round"/>
   </g>
   <g id="line2d_3">
    <path d="M 11.88 86.08 
L 17.28 86.08 
L 17.28 80.68 
L 28.08 80.68 
L 28.08 86.08 
L 33.48 86.08 
" clip-path="url(#p04b75ee304)" style="fill: none; stroke: #000000; stroke-width: 2; stroke-linecap: round"/>
   </g>
   <g id="line2d_4">
    <path d="M 22.68 28.48 
L 58.68 28.48 
M 94.68 28.48 
L 130.68 28.48 
" clip-path="url(#p04b75ee304)" style="fill: none; stroke: #000000; stroke-width: 2; stroke-linecap: round"/>
   </g>
   <g id="line2d_5">
    <path d="M 130.68 28.48 
L 181.44 28.48 
M 181.44 19.48 
L 181.44 37.48 
M 187.92 19.48 
L 187.92 37.48 
M 187.92 28.48 
L 238.68 28.48 
" clip-path="url(#p04b75ee304)" style="fill: none; stroke: #000000; stroke-width: 2; stroke-linecap: round"/>
   </g>
   <g id="line2d_6">
    <path d="M 238.68 28.48 
L 256.68 28.48 
L 274.68 28.48 
" clip-path="url(#p04b75ee304)" style="fill: none; stroke: #000000; stroke-width: 2; stroke-linecap: round"/>
   </g>
   <g id="line2d_7">
    <path d="M 238.68 28.48 
L 238.68 64.48 
L 247.68 67.48 
L 229.68 73.48 
L 247.68 79.48 
L 229.68 85.48 
L 247.68 91.48 
L 229.68 97.48 
L 238.68 100.48 
L 238.68 136.48 
" clip-path="url(#p04b75ee304)" style="fill: none; stroke: #000000; stroke-width: 2; stroke-linecap: round"/>
   </g>
   <g id="line2d_8">
    <path d="M 238.68 136.48 
L 238.68 150.88 
L 229.68 150.88 
L 247.68 150.88 
M 232.38 155.2 
L 244.98 155.2 
M 236.88 159.52 
L 240.48 159.52 
" clip-path="url(#p04b75ee304)" style="fill: none; stroke: #000000; stroke-width: 2; stroke-linecap: round"/>
   </g>
   <g id="text_1">
    <!-- $L = 100 H$ -->
    <g transform="translate(45.53 17.46846) scale(0.14 -0.14)">
     <defs>
      <path id="DejaVuSans-Oblique-4c" d="M 1075 4666 
L 1709 4666 
L 909 525 
L 3181 525 
L 3078 0 
L 172 0 
L 1075 4666 
z
" transform="scale(0.015625)"/>
      <path id="DejaVuSans-3d" d="M 678 2906 
L 4684 2906 
L 4684 2381 
L 678 2381 
L 678 2906 
z
M 678 1631 
L 4684 1631 
L 4684 1100 
L 678 1100 
L 678 1631 
z
" transform="scale(0.015625)"/>
      <path id="DejaVuSans-31" d="M 794 531 
L 1825 531 
L 1825 4091 
L 703 3866 
L 703 4441 
L 1819 4666 
L 2450 4666 
L 2450 531 
L 3481 531 
L 3481 0 
L 794 0 
L 794 531 
z
" transform="scale(0.015625)"/>
      <path id="DejaVuSans-30" d="M 2034 4250 
Q 1547 4250 1301 3770 
Q 1056 3291 1056 2328 
Q 1056 1369 1301 889 
Q 1547 409 2034 409 
Q 2525 409 2770 889 
Q 3016 1369 3016 2328 
Q 3016 3291 2770 3770 
Q 2525 4250 2034 4250 
z
M 2034 4750 
Q 2819 4750 3233 4129 
Q 3647 3509 3647 2328 
Q 3647 1150 3233 529 
Q 2819 -91 2034 -91 
Q 1250 -91 836 529 
Q 422 1150 422 2328 
Q 422 3509 836 4129 
Q 1250 4750 2034 4750 
z
" transform="scale(0.015625)"/>
      <path id="DejaVuSans-Oblique-48" d="M 1081 4666 
L 1716 4666 
L 1344 2753 
L 3634 2753 
L 4006 4666 
L 4641 4666 
L 3731 0 
L 3097 0 
L 3531 2222 
L 1241 2222 
L 806 0 
L 172 0 
L 1081 4666 
z
" transform="scale(0.015625)"/>
     </defs>
     <use xlink:href="#DejaVuSans-Oblique-4c" transform="translate(0 0.78125)"/>
     <use xlink:href="#DejaVuSans-3d" transform="translate(75.195312 0.78125)"/>
     <use xlink:href="#DejaVuSans-31" transform="translate(178.466797 0.78125)"/>
     <use xlink:href="#DejaVuSans-30" transform="translate(242.089844 0.78125)"/>
     <use xlink:href="#DejaVuSans-30" transform="translate(305.712891 0.78125)"/>
     <use xlink:href="#DejaVuSans-Oblique-48" transform="translate(369.335938 0.78125)"/>
    </g>
   </g>
   <g id="text_2">
    <!-- $L = 0.1\mu F$ -->
    <g transform="translate(152.55 12.94) scale(0.14 -0.14)">
     <defs>
      <path id="DejaVuSans-2e" d="M 684 794 
L 1344 794 
L 1344 0 
L 684 0 
L 684 794 
z
" transform="scale(0.015625)"/>
      <path id="DejaVuSans-Oblique-3bc" d="M -84 -1331 
L 856 3500 
L 1434 3500 
L 1009 1322 
Q 997 1256 987 1175 
Q 978 1094 978 1013 
Q 978 722 1161 565 
Q 1344 409 1684 409 
Q 2147 409 2431 671 
Q 2716 934 2816 1459 
L 3213 3500 
L 3788 3500 
L 3266 809 
Q 3253 750 3248 706 
Q 3244 663 3244 628 
Q 3244 531 3283 486 
Q 3322 441 3406 441 
Q 3438 441 3492 456 
Q 3547 472 3647 513 
L 3559 50 
Q 3422 -19 3297 -55 
Q 3172 -91 3053 -91 
Q 2847 -91 2730 40 
Q 2613 172 2613 403 
Q 2438 153 2195 31 
Q 1953 -91 1625 -91 
Q 1334 -91 1117 43 
Q 900 178 831 397 
L 494 -1331 
L -84 -1331 
z
" transform="scale(0.015625)"/>
      <path id="DejaVuSans-Oblique-46" d="M 1081 4666 
L 3756 4666 
L 3653 4134 
L 1606 4134 
L 1338 2759 
L 3188 2759 
L 3084 2228 
L 1234 2228 
L 800 0 
L 172 0 
L 1081 4666 
z
" transform="scale(0.015625)"/>
     </defs>
     <use xlink:href="#DejaVuSans-Oblique-4c" transform="translate(0 0.78125)"/>
     <use xlink:href="#DejaVuSans-3d" transform="translate(75.195312 0.78125)"/>
     <use xlink:href="#DejaVuSans-30" transform="translate(178.466797 0.78125)"/>
     <use xlink:href="#DejaVuSans-2e" transform="translate(242.089844 0.78125)"/>
     <use xlink:href="#DejaVuSans-31" transform="translate(273.876953 0.78125)"/>
     <use xlink:href="#DejaVuSans-Oblique-3bc" transform="translate(337.5 0.78125)"/>
     <use xlink:href="#DejaVuSans-Oblique-46" transform="translate(401.123047 0.78125)"/>
    </g>
   </g>
   <g id="patch_7">
    <path d="M 274.68 31.18 
C 275.396048 31.18 276.082866 30.895511 276.589188 30.389188 
C 277.095511 29.882866 277.38 29.196048 277.38 28.48 
C 277.38 27.763952 277.095511 27.077134 276.589188 26.570812 
C 276.082866 26.064489 275.396048 25.78 274.68 25.78 
C 273.963952 25.78 273.277134 26.064489 272.770812 26.570812 
C 272.264489 27.077134 271.98 27.763952 271.98 28.48 
C 271.98 29.196048 272.264489 29.882866 272.770812 30.389188 
C 273.277134 30.895511 273.963952 31.18 274.68 31.18 
z
" clip-path="url(#p04b75ee304)" style="stroke: #000000; stroke-width: 2; stroke-linejoin: miter"/>
   </g>
   <g id="text_3">
    <!-- out -->
    <g transform="translate(246.566406 19.268438) scale(0.14 -0.14)">
     <defs>
      <path id="DejaVuSans-6f" d="M 1959 3097 
Q 1497 3097 1228 2736 
Q 959 2375 959 1747 
Q 959 1119 1226 758 
Q 1494 397 1959 397 
Q 2419 397 2687 759 
Q 2956 1122 2956 1747 
Q 2956 2369 2687 2733 
Q 2419 3097 1959 3097 
z
M 1959 3584 
Q 2709 3584 3137 3096 
Q 3566 2609 3566 1747 
Q 3566 888 3137 398 
Q 2709 -91 1959 -91 
Q 1206 -91 779 398 
Q 353 888 353 1747 
Q 353 2609 779 3096 
Q 1206 3584 1959 3584 
z
" transform="scale(0.015625)"/>
      <path id="DejaVuSans-75" d="M 544 1381 
L 544 3500 
L 1119 3500 
L 1119 1403 
Q 1119 906 1312 657 
Q 1506 409 1894 409 
Q 2359 409 2629 706 
Q 2900 1003 2900 1516 
L 2900 3500 
L 3475 3500 
L 3475 0 
L 2900 0 
L 2900 538 
Q 2691 219 2414 64 
Q 2138 -91 1772 -91 
Q 1169 -91 856 284 
Q 544 659 544 1381 
z
M 1991 3584 
L 1991 3584 
z
" transform="scale(0.015625)"/>
      <path id="DejaVuSans-74" d="M 1172 4494 
L 1172 3500 
L 2356 3500 
L 2356 3053 
L 1172 3053 
L 1172 1153 
Q 1172 725 1289 603 
Q 1406 481 1766 481 
L 2356 481 
L 2356 0 
L 1766 0 
Q 1100 0 847 248 
Q 594 497 594 1153 
L 594 3053 
L 172 3053 
L 172 3500 
L 594 3500 
L 594 4494 
L 1172 4494 
z
" transform="scale(0.015625)"/>
     </defs>
     <use xlink:href="#DejaVuSans-6f"/>
     <use xlink:href="#DejaVuSans-75" x="61.181641"/>
     <use xlink:href="#DejaVuSans-74" x="124.560547"/>
    </g>
   </g>
   <g id="text_4">
    <!-- $R = 10k\Omega$ -->
    <g transform="translate(162.52 86.343125) scale(0.14 -0.14)">
     <defs>
      <path id="DejaVuSans-Oblique-52" d="M 1613 4147 
L 1294 2491 
L 2106 2491 
Q 2584 2491 2879 2755 
Q 3175 3019 3175 3444 
Q 3175 3784 2976 3965 
Q 2778 4147 2406 4147 
L 1613 4147 
z
M 2772 2241 
Q 2972 2194 3105 2009 
Q 3238 1825 3413 1275 
L 3809 0 
L 3144 0 
L 2778 1197 
Q 2638 1659 2453 1815 
Q 2269 1972 1888 1972 
L 1191 1972 
L 806 0 
L 172 0 
L 1081 4666 
L 2503 4666 
Q 3150 4666 3495 4373 
Q 3841 4081 3841 3531 
Q 3841 3044 3547 2687 
Q 3253 2331 2772 2241 
z
" transform="scale(0.015625)"/>
      <path id="DejaVuSans-Oblique-6b" d="M 1172 4863 
L 1747 4863 
L 1197 2028 
L 3169 3500 
L 3916 3500 
L 1716 1825 
L 3322 0 
L 2625 0 
L 1131 1709 
L 800 0 
L 225 0 
L 1172 4863 
z
" transform="scale(0.015625)"/>
      <path id="DejaVuSans-3a9" d="M 4647 556 
L 4647 0 
L 2772 0 
L 2772 556 
Q 3325 859 3634 1378 
Q 3944 1897 3944 2528 
Q 3944 3278 3531 3731 
Q 3119 4184 2444 4184 
Q 1769 4184 1355 3729 
Q 941 3275 941 2528 
Q 941 1897 1250 1378 
Q 1563 859 2119 556 
L 2119 0 
L 244 0 
L 244 556 
L 1241 556 
Q 747 991 519 1456 
Q 294 1922 294 2497 
Q 294 3491 894 4106 
Q 1491 4722 2444 4722 
Q 3391 4722 3994 4106 
Q 4594 3494 4594 2528 
Q 4594 1922 4372 1459 
Q 4150 997 3647 556 
L 4647 556 
z
" transform="scale(0.015625)"/>
     </defs>
     <use xlink:href="#DejaVuSans-Oblique-52" transform="translate(0 0.015625)"/>
     <use xlink:href="#DejaVuSans-3d" transform="translate(88.964844 0.015625)"/>
     <use xlink:href="#DejaVuSans-31" transform="translate(192.236328 0.015625)"/>
     <use xlink:href="#DejaVuSans-30" transform="translate(255.859375 0.015625)"/>
     <use xlink:href="#DejaVuSans-Oblique-6b" transform="translate(319.482422 0.015625)"/>
     <use xlink:href="#DejaVuSans-3a9" transform="translate(377.392578 0.015625)"/>
    </g>
   </g>
  </g>
 </g>
 <defs>
  <clipPath id="p04b75ee304">
   <rect x="0" y="-0" width="282.06" height="164.2"/>
  </clipPath>
 </defs>
</svg>