<?xml version="1.0" encoding="utf-8" standalone="no"?>
<!DOCTYPE svg PUBLIC "-//W3C//DTD SVG 1.1//EN"
  "http://www.w3.org/Graphics/SVG/1.1/DTD/svg11.dtd">
<svg xmlns:xlink="http://www.w3.org/1999/xlink" width="253.35pt" height="159.08pt" viewBox="0 0 253.35 159.08" xmlns="http://www.w3.org/2000/svg" version="1.1">
 <metadata>
  <rdf:RDF xmlns:dc="http://purl.org/dc/elements/1.1/" xmlns:cc="http://creativecommons.org/ns#" xmlns:rdf="http://www.w3.org/1999/02/22-rdf-syntax-ns#">
   <cc:Work>
    <dc:type rdf:resource="http://purl.org/dc/dcmitype/StillImage"/>
    <dc:date>2025-05-14T19:09:24.150995</dc:date>
    <dc:format>image/svg+xml</dc:format>
    <dc:creator>
     <cc:Agent>
      <dc:title>Matplotlib v3.10.3, https://matplotlib.org/</dc:title>
     </cc:Agent>
    </dc:creator>
   </cc:Work>
  </rdf:RDF>
 </metadata>
 <defs>
  <style type="text/css">*{stroke-linejoin: round; stroke-linecap: butt}</style>
 </defs>
 <g id="figure_1">
  <g id="patch_1">
   <path d="M 0 159.08 
L 253.35 159.08 
L 253.35 0 
L 0 0 
z
" style="fill: #ffffff"/>
  </g>
  <g id="axes_1">
   <g id="patch_2">
    <path d="M 66.78 100.4 
C 70.121559 100.4 73.326706 99.072385 75.689545 96.709545 
C 78.052385 94.346706 79.38 91.141559 79.38 87.8 
C 79.38 84.458441 78.052385 81.253294 75.689545 78.890455 
C 73.326706 76.527615 70.121559 75.2 66.78 75.2 
C 63.438441 75.2 60.233294 76.527615 57.870455 78.890455 
C 55.507615 81.253294 54.18 84.458441 54.18 87.8 
C 54.18 91.141559 55.507615 94.346706 57.870455 96.709545 
C 60.233294 99.072385 63.438441 100.4 66.78 100.4 
L 66.78 100.4 
z
" clip-path="url(#p1577f4358b)" style="fill: none; stroke: #000000; stroke-width: 2; stroke-linejoin: miter"/>
   </g>
   <g id="patch_3">
    <path d="M 102.78 46.4 
C 106.121559 46.4 109.326706 45.072385 111.689545 42.709545 
C 114.052385 40.346706 115.38 37.141559 115.38 33.8 
C 115.38 30.458441 114.052385 27.253294 111.689545 24.890455 
C 109.326706 22.527615 106.121559 21.2 102.78 21.2 
C 99.438441 21.2 96.233294 22.527615 93.870455 24.890455 
C 91.507615 27.253294 90.18 30.458441 90.18 33.8 
C 90.18 37.141559 91.507615 40.346706 93.870455 42.709545 
C 96.233294 45.072385 99.438441 46.4 102.78 46.4 
L 102.78 46.4 
z
" clip-path="url(#p1577f4358b)" style="fill: none; stroke: #000000; stroke-width: 2; stroke-linejoin: miter"/>
   </g>
   <g id="patch_4">
    <path d="M 192.78 154.4 
C 196.121559 154.4 199.326706 153.072385 201.689545 150.709545 
C 204.052385 148.346706 205.38 145.141559 205.38 141.8 
C 205.38 138.458441 204.052385 135.253294 201.689545 132.890455 
C 199.326706 130.527615 196.121559 129.2 192.78 129.2 
C 189.438441 129.2 186.233294 130.527615 183.870455 132.890455 
C 181.507615 135.253294 180.18 138.458441 180.18 141.8 
C 180.18 145.141559 181.507615 148.346706 183.870455 150.709545 
C 186.233294 153.072385 189.438441 154.4 192.78 154.4 
L 192.78 154.4 
z
" clip-path="url(#p1577f4358b)" style="fill: none; stroke: #000000; stroke-width: 2; stroke-linejoin: miter"/>
   </g>
   <g id="line2d_1">
    <path d="M 66.78 141.8 
L 66.78 100.4 
L 66.78 100.4 
M 66.78 75.2 
L 66.78 75.2 
L 66.78 33.8 
" clip-path="url(#p1577f4358b)" style="fill: none; stroke: #000000; stroke-width: 2; stroke-linecap: round"/>
   </g>
   <g id="line2d_2">
    <path d="M 69.3 94.1 
L 64.26 94.1 
" clip-path="url(#p1577f4358b)" style="fill: none; stroke: #000000; stroke-width: 2; stroke-linecap: round"/>
   </g>
   <g id="line2d_3">
    <path d="M 66.78 84.02 
L 66.78 78.98 
" clip-path="url(#p1577f4358b)" style="fill: none; stroke: #000000; stroke-width: 2; stroke-linecap: round"/>
   </g>
   <g id="line2d_4">
    <path d="M 69.3 81.5 
L 64.26 81.5 
" clip-path="url(#p1577f4358b)" style="fill: none; stroke: #000000; stroke-width: 2; stroke-linecap: round"/>
   </g>
   <g id="line2d_5">
    <path d="M 66.78 33.8 
L 90.18 33.8 
L 90.18 33.8 
M 115.38 33.8 
L 115.38 33.8 
L 138.78 33.8 
" clip-path="url(#p1577f4358b)" style="fill: none; stroke: #000000; stroke-width: 2; stroke-linecap: round"/>
   </g>
   <g id="line2d_6">
    <path d="M 109.08 31.28 
L 109.08 36.32 
" clip-path="url(#p1577f4358b)" style="fill: none; stroke: #000000; stroke-width: 2; stroke-linecap: round"/>
   </g>
   <g id="line2d_7">
    <path d="M 93.96 33.8 
L 99 33.8 
" clip-path="url(#p1577f4358b)" style="fill: none; stroke: #000000; stroke-width: 2; stroke-linecap: round"/>
   </g>
   <g id="line2d_8">
    <path d="M 96.48 31.28 
L 96.48 36.32 
" clip-path="url(#p1577f4358b)" style="fill: none; stroke: #000000; stroke-width: 2; stroke-linecap: round"/>
   </g>
   <g id="line2d_9">
    <path d="M 138.78 33.8 
L 174.78 33.8 
L 174.78 27.5 
L 210.78 27.5 
L 210.78 40.1 
L 174.78 40.1 
L 174.78 33.8 
M 210.78 33.8 
L 246.78 33.8 
" clip-path="url(#p1577f4358b)" style="fill: none; stroke: #000000; stroke-width: 2; stroke-linecap: round"/>
   </g>
   <g id="line2d_10">
    <path d="M 66.78 141.8 
L 84.78 141.8 
L 84.78 135.5 
L 120.78 135.5 
L 120.78 148.1 
L 84.78 148.1 
L 84.78 141.8 
M 120.78 141.8 
L 138.78 141.8 
" clip-path="url(#p1577f4358b)" style="fill: none; stroke: #000000; stroke-width: 2; stroke-linecap: round"/>
   </g>
   <g id="line2d_11">
    <path d="M 138.78 141.8 
L 180.18 141.8 
L 180.18 141.8 
M 205.38 141.8 
L 205.38 141.8 
L 246.78 141.8 
" clip-path="url(#p1577f4358b)" style="fill: none; stroke: #000000; stroke-width: 2; stroke-linecap: round"/>
   </g>
   <g id="line2d_12">
    <path d="M 186.48 144.32 
L 186.48 139.28 
" clip-path="url(#p1577f4358b)" style="fill: none; stroke: #000000; stroke-width: 2; stroke-linecap: round"/>
   </g>
   <g id="line2d_13">
    <path d="M 196.56 141.8 
L 201.6 141.8 
" clip-path="url(#p1577f4358b)" style="fill: none; stroke: #000000; stroke-width: 2; stroke-linecap: round"/>
   </g>
   <g id="line2d_14">
    <path d="M 199.08 144.32 
L 199.08 139.28 
" clip-path="url(#p1577f4358b)" style="fill: none; stroke: #000000; stroke-width: 2; stroke-linecap: round"/>
   </g>
   <g id="text_1">
    <!-- $v1=8v$ -->
    <g transform="translate(0 91.663125) scale(0.14 -0.14)">
     <defs>
      <path id="DejaVuSans-Oblique-76" d="M 459 3500 
L 1069 3500 
L 1581 525 
L 3256 3500 
L 3866 3500 
L 1875 0 
L 1100 0 
L 459 3500 
z
" transform="scale(0.015625)"/>
      <path id="DejaVuSans-31" d="M 794 531 
L 1825 531 
L 1825 4091 
L 703 3866 
L 703 4441 
L 1819 4666 
L 2450 4666 
L 2450 531 
L 3481 531 
L 3481 0 
L 794 0 
L 794 531 
z
" transform="scale(0.015625)"/>
      <path id="DejaVuSans-3d" d="M 678 2906 
L 4684 2906 
L 4684 2381 
L 678 2381 
L 678 2906 
z
M 678 1631 
L 4684 1631 
L 4684 1100 
L 678 1100 
L 678 1631 
z
" transform="scale(0.015625)"/>
      <path id="DejaVuSans-38" d="M 2034 2216 
Q 1584 2216 1326 1975 
Q 1069 1734 1069 1313 
Q 1069 891 1326 650 
Q 1584 409 2034 409 
Q 2484 409 2743 651 
Q 3003 894 3003 1313 
Q 3003 1734 2745 1975 
Q 2488 2216 2034 2216 
z
M 1403 2484 
Q 997 2584 770 2862 
Q 544 3141 544 3541 
Q 544 4100 942 4425 
Q 1341 4750 2034 4750 
Q 2731 4750 3128 4425 
Q 3525 4100 3525 3541 
Q 3525 3141 3298 2862 
Q 3072 2584 2669 2484 
Q 3125 2378 3379 2068 
Q 3634 1759 3634 1313 
Q 3634 634 3220 271 
Q 2806 -91 2034 -91 
Q 1263 -91 848 271 
Q 434 634 434 1313 
Q 434 1759 690 2068 
Q 947 2378 1403 2484 
z
M 1172 3481 
Q 1172 3119 1398 2916 
Q 1625 2713 2034 2713 
Q 2441 2713 2670 2916 
Q 2900 3119 2900 3481 
Q 2900 3844 2670 4047 
Q 2441 4250 2034 4250 
Q 1625 4250 1398 4047 
Q 1172 3844 1172 3481 
z
" transform="scale(0.015625)"/>
     </defs>
     <use xlink:href="#DejaVuSans-Oblique-76" transform="translate(0 0.78125)"/>
     <use xlink:href="#DejaVuSans-31" transform="translate(59.179688 0.78125)"/>
     <use xlink:href="#DejaVuSans-3d" transform="translate(142.285156 0.78125)"/>
     <use xlink:href="#DejaVuSans-38" transform="translate(245.556641 0.78125)"/>
     <use xlink:href="#DejaVuSans-Oblique-76" transform="translate(309.179688 0.78125)"/>
    </g>
   </g>
   <g id="text_2">
    <!-- $v2=14v$ -->
    <g transform="translate(72.54 15.768438) scale(0.14 -0.14)">
     <defs>
      <path id="DejaVuSans-32" d="M 1228 531 
L 3431 531 
L 3431 0 
L 469 0 
L 469 531 
Q 828 903 1448 1529 
Q 2069 2156 2228 2338 
Q 2531 2678 2651 2914 
Q 2772 3150 2772 3378 
Q 2772 3750 2511 3984 
Q 2250 4219 1831 4219 
Q 1534 4219 1204 4116 
Q 875 4013 500 3803 
L 500 4441 
Q 881 4594 1212 4672 
Q 1544 4750 1819 4750 
Q 2544 4750 2975 4387 
Q 3406 4025 3406 3419 
Q 3406 3131 3298 2873 
Q 3191 2616 2906 2266 
Q 2828 2175 2409 1742 
Q 1991 1309 1228 531 
z
" transform="scale(0.015625)"/>
      <path id="DejaVuSans-34" d="M 2419 4116 
L 825 1625 
L 2419 1625 
L 2419 4116 
z
M 2253 4666 
L 3047 4666 
L 3047 1625 
L 3713 1625 
L 3713 1100 
L 3047 1100 
L 3047 0 
L 2419 0 
L 2419 1100 
L 313 1100 
L 313 1709 
L 2253 4666 
z
" transform="scale(0.015625)"/>
     </defs>
     <use xlink:href="#DejaVuSans-Oblique-76" transform="translate(0 0.78125)"/>
     <use xlink:href="#DejaVuSans-32" transform="translate(59.179688 0.78125)"/>
     <use xlink:href="#DejaVuSans-3d" transform="translate(142.285156 0.78125)"/>
     <use xlink:href="#DejaVuSans-31" transform="translate(245.556641 0.78125)"/>
     <use xlink:href="#DejaVuSans-34" transform="translate(309.179688 0.78125)"/>
     <use xlink:href="#DejaVuSans-Oblique-76" transform="translate(372.802734 0.78125)"/>
    </g>
   </g>
   <g id="patch_5">
    <path d="M 249.48 33.8 
L 249.457833 34.041688 
L 249.391696 34.279407 
L 249.282675 34.509255 
L 249.132561 34.727456 
L 248.943817 34.930429 
L 248.719543 35.11484 
L 248.463422 35.277662 
L 248.17966 35.41622 
L 247.872915 35.52824 
L 247.548224 35.611882 
L 247.21092 35.665774 
L 246.866539 35.689029 
L 246.520738 35.681267 
L 246.179193 35.642614 
L 245.847514 35.573705 
L 245.531147 35.475673 
L 245.235285 35.350126 
L 244.964788 35.199125 
L 244.724096 35.025152 
L 244.517162 34.831061 
L 244.347384 34.62004 
L 244.217549 34.395555 
L 244.12979 34.16129 
L 244.085547 33.921093 
L 244.085547 33.678907 
L 244.12979 33.43871 
L 244.217549 33.204445 
L 244.347384 32.97996 
L 244.517162 32.768939 
L 244.724096 32.574848 
L 244.964788 32.400875 
L 245.235285 32.249874 
L 245.531147 32.124327 
L 245.847514 32.026295 
L 246.179193 31.957386 
L 246.520738 31.918733 
L 246.866539 31.910971 
L 247.21092 31.934226 
L 247.548224 31.988118 
L 247.872915 32.07176 
L 248.17966 32.18378 
L 248.463422 32.322338 
L 248.719543 32.48516 
L 248.943817 32.669571 
L 249.132561 32.872544 
L 249.282675 33.090745 
L 249.391696 33.320593 
L 249.457833 33.558312 
" clip-path="url(#p1577f4358b)" style="fill: #ffffff; stroke: #000000; stroke-width: 2; stroke-linejoin: miter"/>
   </g>
   <g id="text_3">
    <!-- - -->
    <g transform="translate(164.651094 22.900312) scale(0.1 -0.1)">
     <defs>
      <path id="DejaVuSans-2d" d="M 313 2009 
L 1997 2009 
L 1997 1497 
L 313 1497 
L 313 2009 
z
" transform="scale(0.015625)"/>
     </defs>
     <use xlink:href="#DejaVuSans-2d"/>
    </g>
   </g>
   <g id="text_4">
    <!-- $v3=7v$ -->
    <g transform="translate(175.68 22.900312) scale(0.1 -0.1)">
     <defs>
      <path id="DejaVuSans-33" d="M 2597 2516 
Q 3050 2419 3304 2112 
Q 3559 1806 3559 1356 
Q 3559 666 3084 287 
Q 2609 -91 1734 -91 
Q 1441 -91 1130 -33 
Q 819 25 488 141 
L 488 750 
Q 750 597 1062 519 
Q 1375 441 1716 441 
Q 2309 441 2620 675 
Q 2931 909 2931 1356 
Q 2931 1769 2642 2001 
Q 2353 2234 1838 2234 
L 1294 2234 
L 1294 2753 
L 1863 2753 
Q 2328 2753 2575 2939 
Q 2822 3125 2822 3475 
Q 2822 3834 2567 4026 
Q 2313 4219 1838 4219 
Q 1578 4219 1281 4162 
Q 984 4106 628 3988 
L 628 4550 
Q 988 4650 1302 4700 
Q 1616 4750 1894 4750 
Q 2613 4750 3031 4423 
Q 3450 4097 3450 3541 
Q 3450 3153 3228 2886 
Q 3006 2619 2597 2516 
z
" transform="scale(0.015625)"/>
      <path id="DejaVuSans-37" d="M 525 4666 
L 3525 4666 
L 3525 4397 
L 1831 0 
L 1172 0 
L 2766 4134 
L 525 4134 
L 525 4666 
z
" transform="scale(0.015625)"/>
     </defs>
     <use xlink:href="#DejaVuSans-Oblique-76" transform="translate(0 0.78125)"/>
     <use xlink:href="#DejaVuSans-33" transform="translate(59.179688 0.78125)"/>
     <use xlink:href="#DejaVuSans-3d" transform="translate(142.285156 0.78125)"/>
     <use xlink:href="#DejaVuSans-37" transform="translate(245.556641 0.78125)"/>
     <use xlink:href="#DejaVuSans-Oblique-76" transform="translate(309.179688 0.78125)"/>
    </g>
   </g>
   <g id="text_5">
    <!-- + -->
    <g transform="translate(217.615156 22.900312) scale(0.1 -0.1)">
     <defs>
      <path id="DejaVuSans-2b" d="M 2944 4013 
L 2944 2272 
L 4684 2272 
L 4684 1741 
L 2944 1741 
L 2944 0 
L 2419 0 
L 2419 1741 
L 678 1741 
L 678 2272 
L 2419 2272 
L 2419 4013 
L 2944 4013 
z
" transform="scale(0.015625)"/>
     </defs>
     <use xlink:href="#DejaVuSans-2b"/>
    </g>
   </g>
   <g id="text_6">
    <!-- + -->
    <g transform="translate(80.590156 130.900312) scale(0.1 -0.1)">
     <use xlink:href="#DejaVuSans-2b"/>
    </g>
   </g>
   <g id="text_7">
    <!--  -->
    <g transform="translate(102.78 111.544062) scale(0.1 -0.1)"/>
    <!-- v5=30v -->
    <g transform="translate(83.127656 121.222187) scale(0.1 -0.1)">
     <defs>
      <path id="DejaVuSans-76" d="M 191 3500 
L 800 3500 
L 1894 563 
L 2988 3500 
L 3597 3500 
L 2284 0 
L 1503 0 
L 191 3500 
z
" transform="scale(0.015625)"/>
      <path id="DejaVuSans-35" d="M 691 4666 
L 3169 4666 
L 3169 4134 
L 1269 4134 
L 1269 2991 
Q 1406 3038 1543 3061 
Q 1681 3084 1819 3084 
Q 2600 3084 3056 2656 
Q 3513 2228 3513 1497 
Q 3513 744 3044 326 
Q 2575 -91 1722 -91 
Q 1428 -91 1123 -41 
Q 819 9 494 109 
L 494 744 
Q 775 591 1075 516 
Q 1375 441 1709 441 
Q 2250 441 2565 725 
Q 2881 1009 2881 1497 
Q 2881 1984 2565 2268 
Q 2250 2553 1709 2553 
Q 1456 2553 1204 2497 
Q 953 2441 691 2322 
L 691 4666 
z
" transform="scale(0.015625)"/>
      <path id="DejaVuSans-30" d="M 2034 4250 
Q 1547 4250 1301 3770 
Q 1056 3291 1056 2328 
Q 1056 1369 1301 889 
Q 1547 409 2034 409 
Q 2525 409 2770 889 
Q 3016 1369 3016 2328 
Q 3016 3291 2770 3770 
Q 2525 4250 2034 4250 
z
M 2034 4750 
Q 2819 4750 3233 4129 
Q 3647 3509 3647 2328 
Q 3647 1150 3233 529 
Q 2819 -91 2034 -91 
Q 1250 -91 836 529 
Q 422 1150 422 2328 
Q 422 3509 836 4129 
Q 1250 4750 2034 4750 
z
" transform="scale(0.015625)"/>
     </defs>
     <use xlink:href="#DejaVuSans-76"/>
     <use xlink:href="#DejaVuSans-35" transform="translate(59.179688 0)"/>
     <use xlink:href="#DejaVuSans-3d" transform="translate(122.802734 0)"/>
     <use xlink:href="#DejaVuSans-33" transform="translate(206.591797 0)"/>
     <use xlink:href="#DejaVuSans-30" transform="translate(270.214844 0)"/>
     <use xlink:href="#DejaVuSans-76" transform="translate(333.837891 0)"/>
    </g>
    <!--  -->
    <g transform="translate(102.78 130.900312) scale(0.1 -0.1)"/>
   </g>
   <g id="text_8">
    <!-- - -->
    <g transform="translate(118.976094 130.900312) scale(0.1 -0.1)">
     <use xlink:href="#DejaVuSans-2d"/>
    </g>
   </g>
   <g id="patch_6">
    <path d="M 246.78 143.69 
C 247.281234 143.69 247.762006 143.490858 248.116432 143.136432 
C 248.470858 142.782006 248.67 142.301234 248.67 141.8 
C 248.67 141.298766 248.470858 140.817994 248.116432 140.463568 
C 247.762006 140.109142 247.281234 139.91 246.78 139.91 
C 246.278766 139.91 245.797994 140.109142 245.443568 140.463568 
C 245.089142 140.817994 244.89 141.298766 244.89 141.8 
C 244.89 142.301234 245.089142 142.782006 245.443568 143.136432 
C 245.797994 143.490858 246.278766 143.69 246.78 143.69 
z
" clip-path="url(#p1577f4358b)" style="fill: #ffffff; stroke: #000000; stroke-width: 2; stroke-linejoin: miter"/>
   </g>
   <g id="text_9">
    <!-- $v4=19v$ -->
    <g transform="translate(163.485 123.768437) scale(0.14 -0.14)">
     <defs>
      <path id="DejaVuSans-39" d="M 703 97 
L 703 672 
Q 941 559 1184 500 
Q 1428 441 1663 441 
Q 2288 441 2617 861 
Q 2947 1281 2994 2138 
Q 2813 1869 2534 1725 
Q 2256 1581 1919 1581 
Q 1219 1581 811 2004 
Q 403 2428 403 3163 
Q 403 3881 828 4315 
Q 1253 4750 1959 4750 
Q 2769 4750 3195 4129 
Q 3622 3509 3622 2328 
Q 3622 1225 3098 567 
Q 2575 -91 1691 -91 
Q 1453 -91 1209 -44 
Q 966 3 703 97 
z
M 1959 2075 
Q 2384 2075 2632 2365 
Q 2881 2656 2881 3163 
Q 2881 3666 2632 3958 
Q 2384 4250 1959 4250 
Q 1534 4250 1286 3958 
Q 1038 3666 1038 3163 
Q 1038 2656 1286 2365 
Q 1534 2075 1959 2075 
z
" transform="scale(0.015625)"/>
     </defs>
     <use xlink:href="#DejaVuSans-Oblique-76" transform="translate(0 0.78125)"/>
     <use xlink:href="#DejaVuSans-34" transform="translate(59.179688 0.78125)"/>
     <use xlink:href="#DejaVuSans-3d" transform="translate(142.285156 0.78125)"/>
     <use xlink:href="#DejaVuSans-31" transform="translate(245.556641 0.78125)"/>
     <use xlink:href="#DejaVuSans-39" transform="translate(309.179688 0.78125)"/>
     <use xlink:href="#DejaVuSans-Oblique-76" transform="translate(372.802734 0.78125)"/>
    </g>
   </g>
  </g>
 </g>
 <defs>
  <clipPath id="p1577f4358b">
   <rect x="8.76" y="0" width="244.59" height="159.08"/>
  </clipPath>
 </defs>
</svg>