<?xml version="1.0" encoding="utf-8" standalone="no"?>
<!DOCTYPE svg PUBLIC "-//W3C//DTD SVG 1.1//EN"
  "http://www.w3.org/Graphics/SVG/1.1/DTD/svg11.dtd">
<svg xmlns:xlink="http://www.w3.org/1999/xlink" width="408.924pt" height="144.32pt" viewBox="0 0 408.924 144.32" xmlns="http://www.w3.org/2000/svg" version="1.1">
 <metadata>
  <rdf:RDF xmlns:dc="http://purl.org/dc/elements/1.1/" xmlns:cc="http://creativecommons.org/ns#" xmlns:rdf="http://www.w3.org/1999/02/22-rdf-syntax-ns#">
   <cc:Work>
    <dc:type rdf:resource="http://purl.org/dc/dcmitype/StillImage"/>
    <dc:date>2024-12-21T17:12:47.861318</dc:date>
    <dc:format>image/svg+xml</dc:format>
    <dc:creator>
     <cc:Agent>
      <dc:title>Matplotlib v3.9.2, https://matplotlib.org/</dc:title>
     </cc:Agent>
    </dc:creator>
   </cc:Work>
  </rdf:RDF>
 </metadata>
 <defs>
  <style type="text/css">*{stroke-linejoin: round; stroke-linecap: butt}</style>
 </defs>
 <g id="figure_1">
  <g id="patch_1">
   <path d="M 0 144.32 
L 408.924 144.32 
L 408.924 0 
L 0 0 
z
" style="fill: #ffffff"/>
  </g>
  <g id="axes_1">
   <g id="patch_2">
    <path d="M 100.452 103.64 
C 105.225656 103.64 109.804438 101.743406 113.179922 98.367922 
C 116.555406 94.992438 118.452 90.413656 118.452 85.64 
C 118.452 80.866344 116.555406 76.287562 113.179922 72.912078 
C 109.804438 69.536594 105.225656 67.64 100.452 67.64 
C 95.678344 67.64 91.099562 69.536594 87.724078 72.912078 
C 84.348594 76.287562 82.452 80.866344 82.452 85.64 
C 82.452 90.413656 84.348594 94.992438 87.724078 98.367922 
C 91.099562 101.743406 95.678344 103.64 100.452 103.64 
L 100.452 103.64 
z
" clip-path="url(#p761be313ee)" style="fill: none; stroke: #000000; stroke-width: 2; stroke-linejoin: miter"/>
   </g>
   <g id="patch_3">
    <path d="M 253.452 31.64 
C 253.452 30.446984 252.977571 29.30161 252.133981 28.458019 
C 251.29039 27.614429 250.145016 27.14 248.952 27.14 
C 247.758984 27.14 246.61361 27.614429 245.770019 28.458019 
C 244.926429 29.30161 244.452 30.446984 244.452 31.64 
" clip-path="url(#p761be313ee)" style="fill: none; stroke: #000000; stroke-width: 2; stroke-linejoin: miter"/>
   </g>
   <g id="patch_4">
    <path d="M 262.452 31.64 
C 262.452 30.446984 261.977571 29.30161 261.133981 28.458019 
C 260.29039 27.614429 259.145016 27.14 257.952 27.14 
C 256.758984 27.14 255.61361 27.614429 254.770019 28.458019 
C 253.926429 29.30161 253.452 30.446984 253.452 31.64 
" clip-path="url(#p761be313ee)" style="fill: none; stroke: #000000; stroke-width: 2; stroke-linejoin: miter"/>
   </g>
   <g id="patch_5">
    <path d="M 271.452 31.64 
C 271.452 30.446984 270.977571 29.30161 270.133981 28.458019 
C 269.29039 27.614429 268.145016 27.14 266.952 27.14 
C 265.758984 27.14 264.61361 27.614429 263.770019 28.458019 
C 262.926429 29.30161 262.452 30.446984 262.452 31.64 
" clip-path="url(#p761be313ee)" style="fill: none; stroke: #000000; stroke-width: 2; stroke-linejoin: miter"/>
   </g>
   <g id="patch_6">
    <path d="M 280.452 31.64 
C 280.452 30.446984 279.977571 29.30161 279.133981 28.458019 
C 278.29039 27.614429 277.145016 27.14 275.952 27.14 
C 274.758984 27.14 273.61361 27.614429 272.770019 28.458019 
C 271.926429 29.30161 271.452 30.446984 271.452 31.64 
" clip-path="url(#p761be313ee)" style="fill: none; stroke: #000000; stroke-width: 2; stroke-linejoin: miter"/>
   </g>
   <g id="patch_7">
    <path d="M 316.452 103.64 
C 321.225656 103.64 325.804438 101.743406 329.179922 98.367922 
C 332.555406 94.992438 334.452 90.413656 334.452 85.64 
C 334.452 80.866344 332.555406 76.287562 329.179922 72.912078 
C 325.804438 69.536594 321.225656 67.64 316.452 67.64 
C 311.678344 67.64 307.099562 69.536594 303.724078 72.912078 
C 300.348594 76.287562 298.452 80.866344 298.452 85.64 
C 298.452 90.413656 300.348594 94.992438 303.724078 98.367922 
C 307.099562 101.743406 311.678344 103.64 316.452 103.64 
L 316.452 103.64 
z
" clip-path="url(#p761be313ee)" style="fill: none; stroke: #000000; stroke-width: 2; stroke-linejoin: miter"/>
   </g>
   <g id="line2d_1">
    <path d="M 100.452 139.64 
L 100.452 103.64 
L 100.452 103.64 
M 100.452 67.64 
L 100.452 67.64 
L 100.452 31.64 
" clip-path="url(#p761be313ee)" style="fill: none; stroke: #000000; stroke-width: 2; stroke-linecap: round"/>
   </g>
   <g id="line2d_2">
    <path d="M 104.052 94.64 
L 96.852 94.64 
" clip-path="url(#p761be313ee)" style="fill: none; stroke: #000000; stroke-width: 2; stroke-linecap: round"/>
   </g>
   <g id="line2d_3">
    <path d="M 100.452 80.24 
L 100.452 73.04 
" clip-path="url(#p761be313ee)" style="fill: none; stroke: #000000; stroke-width: 2; stroke-linecap: round"/>
   </g>
   <g id="line2d_4">
    <path d="M 104.052 76.64 
L 96.852 76.64 
" clip-path="url(#p761be313ee)" style="fill: none; stroke: #000000; stroke-width: 2; stroke-linecap: round"/>
   </g>
   <g id="line2d_5">
    <path d="M 100.452 31.64 
L 151.212 31.64 
M 151.212 22.64 
L 151.212 40.64 
M 157.692 22.64 
L 157.692 40.64 
M 157.692 31.64 
L 208.452 31.64 
" clip-path="url(#p761be313ee)" style="fill: none; stroke: #000000; stroke-width: 2; stroke-linecap: round"/>
   </g>
   <g id="line2d_6">
    <path d="M 208.452 31.64 
L 244.452 31.64 
M 280.452 31.64 
L 316.452 31.64 
" clip-path="url(#p761be313ee)" style="fill: none; stroke: #000000; stroke-width: 2; stroke-linecap: round"/>
   </g>
   <g id="line2d_7">
    <path d="M 316.452 31.64 
L 316.452 67.64 
L 316.452 67.64 
M 316.452 103.64 
L 316.452 103.64 
L 316.452 139.64 
" clip-path="url(#p761be313ee)" style="fill: none; stroke: #000000; stroke-width: 2; stroke-linecap: round"/>
   </g>
   <g id="line2d_8">
    <path d="M 312.852 76.64 
L 320.052 76.64 
" clip-path="url(#p761be313ee)" style="fill: none; stroke: #000000; stroke-width: 2; stroke-linecap: round"/>
   </g>
   <g id="line2d_9">
    <path d="M 316.452 91.04 
L 316.452 98.24 
" clip-path="url(#p761be313ee)" style="fill: none; stroke: #000000; stroke-width: 2; stroke-linecap: round"/>
   </g>
   <g id="line2d_10">
    <path d="M 312.852 94.64 
L 320.052 94.64 
" clip-path="url(#p761be313ee)" style="fill: none; stroke: #000000; stroke-width: 2; stroke-linecap: round"/>
   </g>
   <g id="line2d_11">
    <path d="M 316.452 139.64 
L 262.452 139.64 
L 208.452 139.64 
" clip-path="url(#p761be313ee)" style="fill: none; stroke: #000000; stroke-width: 2; stroke-linecap: round"/>
   </g>
   <g id="line2d_12">
    <path d="M 208.452 139.64 
L 208.452 103.64 
L 199.452 100.64 
L 217.452 94.64 
L 199.452 88.64 
L 217.452 82.64 
L 199.452 76.64 
L 217.452 70.64 
L 208.452 67.64 
L 208.452 31.64 
" clip-path="url(#p761be313ee)" style="fill: none; stroke: #000000; stroke-width: 2; stroke-linecap: round"/>
   </g>
   <g id="line2d_13">
    <path d="M 208.452 139.64 
L 154.452 139.64 
L 100.452 139.64 
" clip-path="url(#p761be313ee)" style="fill: none; stroke: #000000; stroke-width: 2; stroke-linecap: round"/>
   </g>
   <g id="text_1">
    <!-- $4e^{-2t}u(t) V$ -->
    <g transform="translate(7.032 90.078437) scale(0.14 -0.14)">
     <defs>
      <path id="DejaVuSans-34" d="M 2419 4116 
L 825 1625 
L 2419 1625 
L 2419 4116 
z
M 2253 4666 
L 3047 4666 
L 3047 1625 
L 3713 1625 
L 3713 1100 
L 3047 1100 
L 3047 0 
L 2419 0 
L 2419 1100 
L 313 1100 
L 313 1709 
L 2253 4666 
z
" transform="scale(0.015625)"/>
      <path id="DejaVuSans-Oblique-65" d="M 3078 2063 
Q 3088 2113 3092 2166 
Q 3097 2219 3097 2272 
Q 3097 2653 2873 2875 
Q 2650 3097 2266 3097 
Q 1838 3097 1509 2826 
Q 1181 2556 1013 2059 
L 3078 2063 
z
M 3578 1613 
L 903 1613 
Q 884 1494 878 1425 
Q 872 1356 872 1306 
Q 872 872 1139 634 
Q 1406 397 1894 397 
Q 2269 397 2603 481 
Q 2938 566 3225 728 
L 3116 159 
Q 2806 34 2476 -28 
Q 2147 -91 1806 -91 
Q 1078 -91 686 257 
Q 294 606 294 1247 
Q 294 1794 489 2264 
Q 684 2734 1063 3103 
Q 1306 3334 1642 3459 
Q 1978 3584 2356 3584 
Q 2950 3584 3301 3228 
Q 3653 2872 3653 2272 
Q 3653 2128 3634 1964 
Q 3616 1800 3578 1613 
z
" transform="scale(0.015625)"/>
      <path id="DejaVuSans-2212" d="M 678 2272 
L 4684 2272 
L 4684 1741 
L 678 1741 
L 678 2272 
z
" transform="scale(0.015625)"/>
      <path id="DejaVuSans-32" d="M 1228 531 
L 3431 531 
L 3431 0 
L 469 0 
L 469 531 
Q 828 903 1448 1529 
Q 2069 2156 2228 2338 
Q 2531 2678 2651 2914 
Q 2772 3150 2772 3378 
Q 2772 3750 2511 3984 
Q 2250 4219 1831 4219 
Q 1534 4219 1204 4116 
Q 875 4013 500 3803 
L 500 4441 
Q 881 4594 1212 4672 
Q 1544 4750 1819 4750 
Q 2544 4750 2975 4387 
Q 3406 4025 3406 3419 
Q 3406 3131 3298 2873 
Q 3191 2616 2906 2266 
Q 2828 2175 2409 1742 
Q 1991 1309 1228 531 
z
" transform="scale(0.015625)"/>
      <path id="DejaVuSans-Oblique-74" d="M 2706 3500 
L 2619 3053 
L 1472 3053 
L 1100 1153 
Q 1081 1047 1072 975 
Q 1063 903 1063 863 
Q 1063 663 1183 572 
Q 1303 481 1569 481 
L 2150 481 
L 2053 0 
L 1503 0 
Q 991 0 739 200 
Q 488 400 488 806 
Q 488 878 497 964 
Q 506 1050 525 1153 
L 897 3053 
L 409 3053 
L 500 3500 
L 978 3500 
L 1172 4494 
L 1747 4494 
L 1556 3500 
L 2706 3500 
z
" transform="scale(0.015625)"/>
      <path id="DejaVuSans-Oblique-75" d="M 428 1388 
L 838 3500 
L 1416 3500 
L 1006 1409 
Q 975 1256 961 1147 
Q 947 1038 947 966 
Q 947 700 1109 554 
Q 1272 409 1569 409 
Q 2031 409 2368 721 
Q 2706 1034 2809 1563 
L 3194 3500 
L 3769 3500 
L 3091 0 
L 2516 0 
L 2631 550 
Q 2388 244 2052 76 
Q 1716 -91 1338 -91 
Q 878 -91 622 161 
Q 366 413 366 863 
Q 366 956 381 1097 
Q 397 1238 428 1388 
z
" transform="scale(0.015625)"/>
      <path id="DejaVuSans-28" d="M 1984 4856 
Q 1566 4138 1362 3434 
Q 1159 2731 1159 2009 
Q 1159 1288 1364 580 
Q 1569 -128 1984 -844 
L 1484 -844 
Q 1016 -109 783 600 
Q 550 1309 550 2009 
Q 550 2706 781 3412 
Q 1013 4119 1484 4856 
L 1984 4856 
z
" transform="scale(0.015625)"/>
      <path id="DejaVuSans-29" d="M 513 4856 
L 1013 4856 
Q 1481 4119 1714 3412 
Q 1947 2706 1947 2009 
Q 1947 1309 1714 600 
Q 1481 -109 1013 -844 
L 513 -844 
Q 928 -128 1133 580 
Q 1338 1288 1338 2009 
Q 1338 2731 1133 3434 
Q 928 4138 513 4856 
z
" transform="scale(0.015625)"/>
      <path id="DejaVuSans-Oblique-56" d="M 1319 0 
L 500 4666 
L 1119 4666 
L 1797 653 
L 4063 4666 
L 4750 4666 
L 2053 0 
L 1319 0 
z
" transform="scale(0.015625)"/>
     </defs>
     <use xlink:href="#DejaVuSans-34" transform="translate(0 0.765625)"/>
     <use xlink:href="#DejaVuSans-Oblique-65" transform="translate(63.623047 0.765625)"/>
     <use xlink:href="#DejaVuSans-2212" transform="translate(129.79638 39.046875) scale(0.7)"/>
     <use xlink:href="#DejaVuSans-32" transform="translate(188.448724 39.046875) scale(0.7)"/>
     <use xlink:href="#DejaVuSans-Oblique-74" transform="translate(232.984857 39.046875) scale(0.7)"/>
     <use xlink:href="#DejaVuSans-Oblique-75" transform="translate(263.165521 0.765625)"/>
     <use xlink:href="#DejaVuSans-28" transform="translate(326.544427 0.765625)"/>
     <use xlink:href="#DejaVuSans-Oblique-74" transform="translate(365.558099 0.765625)"/>
     <use xlink:href="#DejaVuSans-29" transform="translate(404.767083 0.765625)"/>
     <use xlink:href="#DejaVuSans-Oblique-56" transform="translate(443.780755 0.765625)"/>
    </g>
   </g>
   <g id="text_2">
    <!-- $\frac{1}{3}F$ -->
    <g transform="translate(146.402 13.3) scale(0.14 -0.14)">
     <defs>
      <path id="DejaVuSans-31" d="M 794 531 
L 1825 531 
L 1825 4091 
L 703 3866 
L 703 4441 
L 1819 4666 
L 2450 4666 
L 2450 531 
L 3481 531 
L 3481 0 
L 794 0 
L 794 531 
z
" transform="scale(0.015625)"/>
      <path id="DejaVuSans-33" d="M 2597 2516 
Q 3050 2419 3304 2112 
Q 3559 1806 3559 1356 
Q 3559 666 3084 287 
Q 2609 -91 1734 -91 
Q 1441 -91 1130 -33 
Q 819 25 488 141 
L 488 750 
Q 750 597 1062 519 
Q 1375 441 1716 441 
Q 2309 441 2620 675 
Q 2931 909 2931 1356 
Q 2931 1769 2642 2001 
Q 2353 2234 1838 2234 
L 1294 2234 
L 1294 2753 
L 1863 2753 
Q 2328 2753 2575 2939 
Q 2822 3125 2822 3475 
Q 2822 3834 2567 4026 
Q 2313 4219 1838 4219 
Q 1578 4219 1281 4162 
Q 984 4106 628 3988 
L 628 4550 
Q 988 4650 1302 4700 
Q 1616 4750 1894 4750 
Q 2613 4750 3031 4423 
Q 3450 4097 3450 3541 
Q 3450 3153 3228 2886 
Q 3006 2619 2597 2516 
z
" transform="scale(0.015625)"/>
      <path id="DejaVuSans-Oblique-46" d="M 1081 4666 
L 3756 4666 
L 3653 4134 
L 1606 4134 
L 1338 2759 
L 3188 2759 
L 3084 2228 
L 1234 2228 
L 800 0 
L 172 0 
L 1081 4666 
z
" transform="scale(0.015625)"/>
     </defs>
     <use xlink:href="#DejaVuSans-31" transform="translate(0 43.965625) scale(0.7)"/>
     <use xlink:href="#DejaVuSans-33" transform="translate(0 -39.2375) scale(0.7)"/>
     <use xlink:href="#DejaVuSans-Oblique-46" transform="translate(57.036133 0.16875)"/>
     <path d="M 0 18.965625 
L 0 25.215625 
L 44.536133 25.215625 
L 44.536133 18.965625 
L 0 18.965625 
z
"/>
    </g>
   </g>
   <g id="text_3">
    <!-- 4H -->
    <g transform="translate(252.734031 20.62846) scale(0.14 -0.14)">
     <defs>
      <path id="DejaVuSans-48" d="M 628 4666 
L 1259 4666 
L 1259 2753 
L 3553 2753 
L 3553 4666 
L 4184 4666 
L 4184 0 
L 3553 0 
L 3553 2222 
L 1259 2222 
L 1259 0 
L 628 0 
L 628 4666 
z
" transform="scale(0.015625)"/>
     </defs>
     <use xlink:href="#DejaVuSans-34"/>
     <use xlink:href="#DejaVuSans-48" x="63.623047"/>
    </g>
   </g>
   <g id="text_4">
    <!-- $2e^{-t}u(t) V$ -->
    <g transform="translate(338.052 89.868437) scale(0.14 -0.14)">
     <use xlink:href="#DejaVuSans-32" transform="translate(0 0.565625)"/>
     <use xlink:href="#DejaVuSans-Oblique-65" transform="translate(63.623047 0.565625)"/>
     <use xlink:href="#DejaVuSans-2212" transform="translate(129.79638 38.846875) scale(0.7)"/>
     <use xlink:href="#DejaVuSans-Oblique-74" transform="translate(188.448724 38.846875) scale(0.7)"/>
     <use xlink:href="#DejaVuSans-Oblique-75" transform="translate(218.629388 0.565625)"/>
     <use xlink:href="#DejaVuSans-28" transform="translate(282.008294 0.565625)"/>
     <use xlink:href="#DejaVuSans-Oblique-74" transform="translate(321.021966 0.565625)"/>
     <use xlink:href="#DejaVuSans-29" transform="translate(360.230951 0.565625)"/>
     <use xlink:href="#DejaVuSans-Oblique-56" transform="translate(399.244622 0.565625)"/>
    </g>
   </g>
   <g id="text_5">
    <!-- $10\Omega$ -->
    <g transform="translate(167.292 89.503125) scale(0.14 -0.14)">
     <defs>
      <path id="DejaVuSans-30" d="M 2034 4250 
Q 1547 4250 1301 3770 
Q 1056 3291 1056 2328 
Q 1056 1369 1301 889 
Q 1547 409 2034 409 
Q 2525 409 2770 889 
Q 3016 1369 3016 2328 
Q 3016 3291 2770 3770 
Q 2525 4250 2034 4250 
z
M 2034 4750 
Q 2819 4750 3233 4129 
Q 3647 3509 3647 2328 
Q 3647 1150 3233 529 
Q 2819 -91 2034 -91 
Q 1250 -91 836 529 
Q 422 1150 422 2328 
Q 422 3509 836 4129 
Q 1250 4750 2034 4750 
z
" transform="scale(0.015625)"/>
      <path id="DejaVuSans-3a9" d="M 4647 556 
L 4647 0 
L 2772 0 
L 2772 556 
Q 3325 859 3634 1378 
Q 3944 1897 3944 2528 
Q 3944 3278 3531 3731 
Q 3119 4184 2444 4184 
Q 1769 4184 1355 3729 
Q 941 3275 941 2528 
Q 941 1897 1250 1378 
Q 1563 859 2119 556 
L 2119 0 
L 244 0 
L 244 556 
L 1241 556 
Q 747 991 519 1456 
Q 294 1922 294 2497 
Q 294 3491 894 4106 
Q 1491 4722 2444 4722 
Q 3391 4722 3994 4106 
Q 4594 3494 4594 2528 
Q 4594 1922 4372 1459 
Q 4150 997 3647 556 
L 4647 556 
z
" transform="scale(0.015625)"/>
     </defs>
     <use xlink:href="#DejaVuSans-31" transform="translate(0 0.78125)"/>
     <use xlink:href="#DejaVuSans-30" transform="translate(63.623047 0.78125)"/>
     <use xlink:href="#DejaVuSans-3a9" transform="translate(127.246094 0.78125)"/>
    </g>
   </g>
  </g>
 </g>
 <defs>
  <clipPath id="p761be313ee">
   <rect x="0" y="3.16" width="408.924" height="141.16"/>
  </clipPath>
 </defs>
</svg>