<?xml version="1.0" encoding="utf-8" standalone="no"?>
<!DOCTYPE svg PUBLIC "-//W3C//DTD SVG 1.1//EN"
  "http://www.w3.org/Graphics/SVG/1.1/DTD/svg11.dtd">
<svg xmlns:xlink="http://www.w3.org/1999/xlink" width="444.6pt" height="354.56pt" viewBox="0 0 444.6 354.56" xmlns="http://www.w3.org/2000/svg" version="1.1">
 <metadata>
  <rdf:RDF xmlns:dc="http://purl.org/dc/elements/1.1/" xmlns:cc="http://creativecommons.org/ns#" xmlns:rdf="http://www.w3.org/1999/02/22-rdf-syntax-ns#">
   <cc:Work>
    <dc:type rdf:resource="http://purl.org/dc/dcmitype/StillImage"/>
    <dc:date>2025-05-14T19:10:07.331283</dc:date>
    <dc:format>image/svg+xml</dc:format>
    <dc:creator>
     <cc:Agent>
      <dc:title>Matplotlib v3.10.3, https://matplotlib.org/</dc:title>
     </cc:Agent>
    </dc:creator>
   </cc:Work>
  </rdf:RDF>
 </metadata>
 <defs>
  <style type="text/css">*{stroke-linejoin: round; stroke-linecap: butt}</style>
 </defs>
 <g id="figure_1">
  <g id="patch_1">
   <path d="M 0 354.56 
L 444.6 354.56 
L 444.6 0 
L 0 0 
z
" style="fill: #ffffff"/>
  </g>
  <g id="axes_1">
   <g id="patch_2">
    <path d="M 49.884 289.76 
C 54.657656 289.76 59.236438 287.863406 62.611922 284.487922 
C 65.987406 281.112438 67.884 276.533656 67.884 271.76 
C 67.884 266.986344 65.987406 262.407562 62.611922 259.032078 
C 59.236438 255.656594 54.657656 253.76 49.884 253.76 
C 45.110344 253.76 40.531562 255.656594 37.156078 259.032078 
C 33.780594 262.407562 31.884 266.986344 31.884 271.76 
C 31.884 276.533656 33.780594 281.112438 37.156078 284.487922 
C 40.531562 287.863406 45.110344 289.76 49.884 289.76 
L 49.884 289.76 
z
" clip-path="url(#paeb178cc18)" style="fill: none; stroke: #000000; stroke-width: 2; stroke-linejoin: miter"/>
   </g>
   <g id="patch_3">
    <path d="M 285.684 201.56 
C 290.935021 201.56 295.971681 199.473747 299.684714 195.760714 
C 303.397747 192.047681 305.484 187.011021 305.484 181.76 
C 305.484 176.508979 303.397747 171.472319 299.684714 167.759286 
C 295.971681 164.046253 290.935021 161.96 285.684 161.96 
C 280.432979 161.96 275.396319 164.046253 271.683286 167.759286 
C 267.970253 171.472319 265.884 176.508979 265.884 181.76 
C 265.884 187.011021 267.970253 192.047681 271.683286 195.760714 
C 275.396319 199.473747 280.432979 201.56 285.684 201.56 
L 285.684 201.56 
z
" clip-path="url(#paeb178cc18)" style="fill: none; stroke: #000000; stroke-width: 2; stroke-linejoin: miter"/>
   </g>
   <g id="line2d_1">
    <path d="M 49.884 325.76 
L 49.884 289.76 
L 49.884 289.76 
M 49.884 253.76 
L 49.884 253.76 
L 49.884 217.76 
" clip-path="url(#paeb178cc18)" style="fill: none; stroke: #000000; stroke-width: 2; stroke-linecap: round"/>
   </g>
   <g id="line2d_2">
    <path d="M 58.884 271.76 
L 58.134 269.896503 
L 57.384 268.16 
L 56.634 266.668831 
L 55.884 265.524617 
L 55.134 264.805334 
L 54.384 264.56 
L 53.634 264.805334 
L 52.884 265.524617 
L 52.134 266.668831 
L 51.384 268.16 
L 50.634 269.896503 
L 49.884 271.76 
L 49.134 273.623497 
L 48.384 275.36 
L 47.634 276.851169 
L 46.884 277.995383 
L 46.134 278.714666 
L 45.384 278.96 
L 44.634 278.714666 
L 43.884 277.995383 
L 43.134 276.851169 
L 42.384 275.36 
L 41.634 273.623497 
L 40.884 271.76 
" clip-path="url(#paeb178cc18)" style="fill: none; stroke: #000000; stroke-width: 2; stroke-linecap: round"/>
   </g>
   <g id="line2d_3">
    <path d="M 49.884 217.76 
L 49.884 199.76 
L 49.884 181.76 
" clip-path="url(#paeb178cc18)" style="fill: none; stroke: #000000; stroke-width: 2; stroke-linecap: round"/>
   </g>
   <g id="line2d_4">
    <path d="M 49.884 181.76 
L 100.644 181.76 
M 100.644 172.76 
L 100.644 190.76 
M 107.124 172.76 
L 107.124 190.76 
M 107.124 181.76 
L 157.884 181.76 
" clip-path="url(#paeb178cc18)" style="fill: none; stroke: #000000; stroke-width: 2; stroke-linecap: round"/>
   </g>
   <g id="line2d_5">
    <path d="M 157.884 181.76 
L 211.884 181.76 
L 265.884 181.76 
" clip-path="url(#paeb178cc18)" style="fill: none; stroke: #000000; stroke-width: 2; stroke-linecap: round"/>
   </g>
   <g id="line2d_6">
    <path d="M 265.884 181.76 
L 279.084 181.76 
" clip-path="url(#paeb178cc18)" style="fill: none; stroke: #000000; stroke-width: 2; stroke-linecap: round"/>
   </g>
   <g id="line2d_7">
    <path d="M 279.084 168.56 
L 279.084 194.96 
" clip-path="url(#paeb178cc18)" style="fill: none; stroke: #000000; stroke-width: 2; stroke-linecap: round"/>
   </g>
   <g id="line2d_8">
    <path d="M 279.084 175.16 
L 292.944 163.28 
L 292.944 156.68 
" clip-path="url(#paeb178cc18)" style="fill: none; stroke: #000000; stroke-width: 2; stroke-linecap: round"/>
   </g>
   <g id="line2d_9">
    <path d="M 279.084 188.36 
L 292.944 200.24 
L 292.944 206.84 
" clip-path="url(#paeb178cc18)" style="fill: none; stroke: #000000; stroke-width: 2; stroke-linecap: round"/>
   </g>
   <g id="line2d_10">
    <path d="M 279.084 188.36 
L 286.110691 194.382878 
" clip-path="url(#paeb178cc18)" style="fill: none; stroke: #000000; stroke-width: 2; stroke-linecap: round"/>
   </g>
   <g id="patch_4">
    <path d="M 288.45354 191.649554 
L 292.944 200.24 
L 283.767842 197.116201 
z
" clip-path="url(#paeb178cc18)"/>
   </g>
   <g id="line2d_11">
    <path d="M 292.944 206.84 
L 292.944 212.84 
L 292.944 218.84 
" clip-path="url(#paeb178cc18)" style="fill: none; stroke: #000000; stroke-width: 2; stroke-linecap: round"/>
   </g>
   <g id="line2d_12">
    <path d="M 292.944 218.84 
L 292.944 254.84 
L 301.944 257.84 
L 283.944 263.84 
L 301.944 269.84 
L 283.944 275.84 
L 301.944 281.84 
L 283.944 287.84 
L 292.944 290.84 
L 292.944 326.84 
" clip-path="url(#paeb178cc18)" style="fill: none; stroke: #000000; stroke-width: 2; stroke-linecap: round"/>
   </g>
   <g id="line2d_13">
    <path d="M 292.944 218.84 
L 310.944 218.84 
L 328.944 218.84 
" clip-path="url(#paeb178cc18)" style="fill: none; stroke: #000000; stroke-width: 2; stroke-linecap: round"/>
   </g>
   <g id="line2d_14">
    <path d="M 328.944 218.84 
L 328.944 269.6 
M 337.944 269.6 
L 319.944 269.6 
M 337.944 276.08 
L 319.944 276.08 
M 328.944 276.08 
L 328.944 326.84 
" clip-path="url(#paeb178cc18)" style="fill: none; stroke: #000000; stroke-width: 2; stroke-linecap: round"/>
   </g>
   <g id="line2d_15">
    <path d="M 328.944 326.84 
L 310.944 326.84 
L 292.944 326.84 
" clip-path="url(#paeb178cc18)" style="fill: none; stroke: #000000; stroke-width: 2; stroke-linecap: round"/>
   </g>
   <g id="line2d_16">
    <path d="M 292.944 326.84 
L 292.944 341.24 
L 283.944 341.24 
L 301.944 341.24 
M 286.644 345.56 
L 299.244 345.56 
M 291.144 349.88 
L 294.744 349.88 
" clip-path="url(#paeb178cc18)" style="fill: none; stroke: #000000; stroke-width: 2; stroke-linecap: round"/>
   </g>
   <g id="line2d_17">
    <path d="M 157.884 181.76 
L 157.884 199.76 
L 157.884 217.76 
" clip-path="url(#paeb178cc18)" style="fill: none; stroke: #000000; stroke-width: 2; stroke-linecap: round"/>
   </g>
   <g id="line2d_18">
    <path d="M 157.884 217.76 
L 157.884 253.76 
L 166.884 256.76 
L 148.884 262.76 
L 166.884 268.76 
L 148.884 274.76 
L 166.884 280.76 
L 148.884 286.76 
L 157.884 289.76 
L 157.884 325.76 
" clip-path="url(#paeb178cc18)" style="fill: none; stroke: #000000; stroke-width: 2; stroke-linecap: round"/>
   </g>
   <g id="line2d_19">
    <path d="M 49.884 325.76 
L 171.4152 325.76 
L 292.946399 325.76 
" clip-path="url(#paeb178cc18)" style="fill: none; stroke: #000000; stroke-width: 2; stroke-linecap: round"/>
   </g>
   <g id="line2d_20">
    <path d="M 292.944 156.68 
L 292.944 150.68 
L 292.944 144.68 
" clip-path="url(#paeb178cc18)" style="fill: none; stroke: #000000; stroke-width: 2; stroke-linecap: round"/>
   </g>
   <g id="line2d_21">
    <path d="M 292.944 144.68 
L 292.944 108.68 
L 283.944 105.68 
L 301.944 99.68 
L 283.944 93.68 
L 301.944 87.68 
L 283.944 81.68 
L 301.944 75.68 
L 292.944 72.68 
L 292.944 36.68 
" clip-path="url(#paeb178cc18)" style="fill: none; stroke: #000000; stroke-width: 2; stroke-linecap: round"/>
   </g>
   <g id="line2d_22">
    <path d="M 292.944 36.68 
L 292.944 22.28 
" clip-path="url(#paeb178cc18)" style="fill: none; stroke: #000000; stroke-width: 2; stroke-linecap: round"/>
   </g>
   <g id="line2d_23">
    <path d="M 292.944 22.28 
L 286.194 22.28 
" clip-path="url(#paeb178cc18)" style="fill: none; stroke: #000000; stroke-width: 2; stroke-linecap: round"/>
   </g>
   <g id="line2d_24">
    <path d="M 292.944 22.28 
L 299.694 22.28 
" clip-path="url(#paeb178cc18)" style="fill: none; stroke: #000000; stroke-width: 2; stroke-linecap: round"/>
   </g>
   <g id="line2d_25">
    <path d="M 157.884 181.76 
L 157.884 163.76 
L 157.884 145.76 
" clip-path="url(#paeb178cc18)" style="fill: none; stroke: #000000; stroke-width: 2; stroke-linecap: round"/>
   </g>
   <g id="line2d_26">
    <path d="M 157.884 145.76 
L 157.884 109.76 
L 148.884 106.76 
L 166.884 100.76 
L 148.884 94.76 
L 166.884 88.76 
L 148.884 82.76 
L 166.884 76.76 
L 157.884 73.76 
L 157.884 37.76 
" clip-path="url(#paeb178cc18)" style="fill: none; stroke: #000000; stroke-width: 2; stroke-linecap: round"/>
   </g>
   <g id="line2d_27">
    <path d="M 157.884 37.76 
L 225.414 37.76 
L 292.944 37.76 
" clip-path="url(#paeb178cc18)" style="fill: none; stroke: #000000; stroke-width: 2; stroke-linecap: round"/>
   </g>
   <g id="line2d_28">
    <path d="M 292.944 144.68 
L 343.704 144.68 
M 343.704 135.68 
L 343.704 153.68 
M 350.184 135.68 
L 350.184 153.68 
M 350.184 144.68 
L 400.944 144.68 
" clip-path="url(#paeb178cc18)" style="fill: none; stroke: #000000; stroke-width: 2; stroke-linecap: round"/>
   </g>
   <g id="text_1">
    <!-- $V_{in}$ -->
    <g transform="translate(9.384 275.623125) scale(0.14 -0.14)">
     <defs>
      <path id="DejaVuSans-Oblique-56" d="M 1319 0 
L 500 4666 
L 1119 4666 
L 1797 653 
L 4063 4666 
L 4750 4666 
L 2053 0 
L 1319 0 
z
" transform="scale(0.015625)"/>
      <path id="DejaVuSans-Oblique-69" d="M 1172 4863 
L 1747 4863 
L 1606 4134 
L 1031 4134 
L 1172 4863 
z
M 909 3500 
L 1484 3500 
L 800 0 
L 225 0 
L 909 3500 
z
" transform="scale(0.015625)"/>
      <path id="DejaVuSans-Oblique-6e" d="M 3566 2113 
L 3156 0 
L 2578 0 
L 2988 2091 
Q 3016 2238 3031 2350 
Q 3047 2463 3047 2528 
Q 3047 2791 2881 2937 
Q 2716 3084 2419 3084 
Q 1956 3084 1622 2776 
Q 1288 2469 1184 1941 
L 800 0 
L 225 0 
L 903 3500 
L 1478 3500 
L 1363 2950 
Q 1603 3253 1940 3418 
Q 2278 3584 2650 3584 
Q 3113 3584 3367 3334 
Q 3622 3084 3622 2631 
Q 3622 2519 3608 2391 
Q 3594 2263 3566 2113 
z
" transform="scale(0.015625)"/>
     </defs>
     <use xlink:href="#DejaVuSans-Oblique-56" transform="translate(0 0.09375)"/>
     <use xlink:href="#DejaVuSans-Oblique-69" transform="translate(68.408203 -16.3125) scale(0.7)"/>
     <use xlink:href="#DejaVuSans-Oblique-6e" transform="translate(87.856445 -16.3125) scale(0.7)"/>
    </g>
   </g>
   <g id="patch_5">
    <path d="M 157.884 184.46 
C 158.600048 184.46 159.286866 184.175511 159.793188 183.669188 
C 160.299511 183.162866 160.584 182.476048 160.584 181.76 
C 160.584 181.043952 160.299511 180.357134 159.793188 179.850812 
C 159.286866 179.344489 158.600048 179.06 157.884 179.06 
C 157.167952 179.06 156.481134 179.344489 155.974812 179.850812 
C 155.468489 180.357134 155.184 181.043952 155.184 181.76 
C 155.184 182.476048 155.468489 183.162866 155.974812 183.669188 
C 156.481134 184.175511 157.167952 184.46 157.884 184.46 
z
" clip-path="url(#paeb178cc18)" style="stroke: #000000; stroke-width: 2; stroke-linejoin: miter"/>
   </g>
   <g id="text_2">
    <!-- $C_{in}$ -->
    <g transform="translate(95.644 166.248438) scale(0.14 -0.14)">
     <defs>
      <path id="DejaVuSans-Oblique-43" d="M 4447 4306 
L 4319 3641 
Q 4019 3944 3683 4091 
Q 3347 4238 2956 4238 
Q 2422 4238 2017 3981 
Q 1613 3725 1319 3200 
Q 1131 2863 1032 2486 
Q 934 2109 934 1728 
Q 934 1091 1264 756 
Q 1594 422 2222 422 
Q 2656 422 3056 561 
Q 3456 700 3834 978 
L 3688 231 
Q 3316 72 2936 -9 
Q 2556 -91 2175 -91 
Q 1278 -91 773 396 
Q 269 884 269 1753 
Q 269 2309 461 2846 
Q 653 3384 1013 3828 
Q 1394 4300 1883 4525 
Q 2372 4750 3022 4750 
Q 3422 4750 3780 4639 
Q 4138 4528 4447 4306 
z
" transform="scale(0.015625)"/>
     </defs>
     <use xlink:href="#DejaVuSans-Oblique-43" transform="translate(0 0.78125)"/>
     <use xlink:href="#DejaVuSans-Oblique-69" transform="translate(69.824219 -15.625) scale(0.7)"/>
     <use xlink:href="#DejaVuSans-Oblique-6e" transform="translate(89.272461 -15.625) scale(0.7)"/>
    </g>
   </g>
   <g id="patch_6">
    <path d="M 292.944 221.54 
C 293.660048 221.54 294.346866 221.255511 294.853188 220.749188 
C 295.359511 220.242866 295.644 219.556048 295.644 218.84 
C 295.644 218.123952 295.359511 217.437134 294.853188 216.930812 
C 294.346866 216.424489 293.660048 216.14 292.944 216.14 
C 292.227952 216.14 291.541134 216.424489 291.034812 216.930812 
C 290.528489 217.437134 290.244 218.123952 290.244 218.84 
C 290.244 219.556048 290.528489 220.242866 291.034812 220.749188 
C 291.541134 221.255511 292.227952 221.54 292.944 221.54 
z
" clip-path="url(#paeb178cc18)" style="stroke: #000000; stroke-width: 2; stroke-linejoin: miter"/>
   </g>
   <g id="text_3">
    <!-- $R_E$ -->
    <g transform="translate(263.964 276.703125) scale(0.14 -0.14)">
     <defs>
      <path id="DejaVuSans-Oblique-52" d="M 1613 4147 
L 1294 2491 
L 2106 2491 
Q 2584 2491 2879 2755 
Q 3175 3019 3175 3444 
Q 3175 3784 2976 3965 
Q 2778 4147 2406 4147 
L 1613 4147 
z
M 2772 2241 
Q 2972 2194 3105 2009 
Q 3238 1825 3413 1275 
L 3809 0 
L 3144 0 
L 2778 1197 
Q 2638 1659 2453 1815 
Q 2269 1972 1888 1972 
L 1191 1972 
L 806 0 
L 172 0 
L 1081 4666 
L 2503 4666 
Q 3150 4666 3495 4373 
Q 3841 4081 3841 3531 
Q 3841 3044 3547 2687 
Q 3253 2331 2772 2241 
z
" transform="scale(0.015625)"/>
      <path id="DejaVuSans-Oblique-45" d="M 1081 4666 
L 4031 4666 
L 3928 4134 
L 1606 4134 
L 1338 2753 
L 3566 2753 
L 3463 2222 
L 1234 2222 
L 909 531 
L 3284 531 
L 3181 0 
L 172 0 
L 1081 4666 
z
" transform="scale(0.015625)"/>
     </defs>
     <use xlink:href="#DejaVuSans-Oblique-52" transform="translate(0 0.09375)"/>
     <use xlink:href="#DejaVuSans-Oblique-45" transform="translate(69.482422 -16.3125) scale(0.7)"/>
    </g>
   </g>
   <g id="text_4">
    <!-- $C_E$ -->
    <g transform="translate(341.544 276.703125) scale(0.14 -0.14)">
     <use xlink:href="#DejaVuSans-Oblique-43" transform="translate(0 0.78125)"/>
     <use xlink:href="#DejaVuSans-Oblique-45" transform="translate(69.824219 -15.625) scale(0.7)"/>
    </g>
   </g>
   <g id="text_5">
    <!-- $R_2$ -->
    <g transform="translate(170.484 275.623125) scale(0.14 -0.14)">
     <defs>
      <path id="DejaVuSans-32" d="M 1228 531 
L 3431 531 
L 3431 0 
L 469 0 
L 469 531 
Q 828 903 1448 1529 
Q 2069 2156 2228 2338 
Q 2531 2678 2651 2914 
Q 2772 3150 2772 3378 
Q 2772 3750 2511 3984 
Q 2250 4219 1831 4219 
Q 1534 4219 1204 4116 
Q 875 4013 500 3803 
L 500 4441 
Q 881 4594 1212 4672 
Q 1544 4750 1819 4750 
Q 2544 4750 2975 4387 
Q 3406 4025 3406 3419 
Q 3406 3131 3298 2873 
Q 3191 2616 2906 2266 
Q 2828 2175 2409 1742 
Q 1991 1309 1228 531 
z
" transform="scale(0.015625)"/>
     </defs>
     <use xlink:href="#DejaVuSans-Oblique-52" transform="translate(0 0.09375)"/>
     <use xlink:href="#DejaVuSans-32" transform="translate(69.482422 -16.3125) scale(0.7)"/>
    </g>
   </g>
   <g id="patch_7">
    <path d="M 292.944 147.38 
C 293.660048 147.38 294.346866 147.095511 294.853188 146.589188 
C 295.359511 146.082866 295.644 145.396048 295.644 144.68 
C 295.644 143.963952 295.359511 143.277134 294.853188 142.770812 
C 294.346866 142.264489 293.660048 141.98 292.944 141.98 
C 292.227952 141.98 291.541134 142.264489 291.034812 142.770812 
C 290.528489 143.277134 290.244 143.963952 290.244 144.68 
C 290.244 145.396048 290.528489 146.082866 291.034812 146.589188 
C 291.541134 147.095511 292.227952 147.38 292.944 147.38 
z
" clip-path="url(#paeb178cc18)" style="stroke: #000000; stroke-width: 2; stroke-linejoin: miter"/>
   </g>
   <g id="text_6">
    <!-- $R_C$ -->
    <g transform="translate(305.544 94.543125) scale(0.14 -0.14)">
     <use xlink:href="#DejaVuSans-Oblique-52" transform="translate(0 0.09375)"/>
     <use xlink:href="#DejaVuSans-Oblique-43" transform="translate(69.482422 -16.3125) scale(0.7)"/>
    </g>
   </g>
   <g id="text_7">
    <!-- $V_{CC}$ -->
    <g transform="translate(281.114 15.768438) scale(0.14 -0.14)">
     <use xlink:href="#DejaVuSans-Oblique-56" transform="translate(0 0.09375)"/>
     <use xlink:href="#DejaVuSans-Oblique-43" transform="translate(68.408203 -16.3125) scale(0.7)"/>
     <use xlink:href="#DejaVuSans-Oblique-43" transform="translate(117.285156 -16.3125) scale(0.7)"/>
    </g>
   </g>
   <g id="text_8">
    <!-- $R_1$ -->
    <g transform="translate(128.904 95.623125) scale(0.14 -0.14)">
     <defs>
      <path id="DejaVuSans-31" d="M 794 531 
L 1825 531 
L 1825 4091 
L 703 3866 
L 703 4441 
L 1819 4666 
L 2450 4666 
L 2450 531 
L 3481 531 
L 3481 0 
L 794 0 
L 794 531 
z
" transform="scale(0.015625)"/>
     </defs>
     <use xlink:href="#DejaVuSans-Oblique-52" transform="translate(0 0.09375)"/>
     <use xlink:href="#DejaVuSans-31" transform="translate(69.482422 -16.3125) scale(0.7)"/>
    </g>
   </g>
   <g id="patch_8">
    <path d="M 400.944 147.38 
C 401.660048 147.38 402.346866 147.095511 402.853188 146.589188 
C 403.359511 146.082866 403.644 145.396048 403.644 144.68 
C 403.644 143.963952 403.359511 143.277134 402.853188 142.770812 
C 402.346866 142.264489 401.660048 141.98 400.944 141.98 
C 400.227952 141.98 399.541134 142.264489 399.034812 142.770812 
C 398.528489 143.277134 398.244 143.963952 398.244 144.68 
C 398.244 145.396048 398.528489 146.082866 399.034812 146.589188 
C 399.541134 147.095511 400.227952 147.38 400.944 147.38 
z
" clip-path="url(#paeb178cc18)" style="stroke: #000000; stroke-width: 2; stroke-linejoin: miter"/>
   </g>
   <g id="text_9">
    <!-- $C_{c}$ -->
    <g transform="translate(340.454 129.168438) scale(0.14 -0.14)">
     <defs>
      <path id="DejaVuSans-Oblique-63" d="M 3431 3366 
L 3316 2797 
Q 3109 2947 2876 3022 
Q 2644 3097 2394 3097 
Q 2119 3097 1870 3000 
Q 1622 2903 1453 2725 
Q 1184 2453 1037 2087 
Q 891 1722 891 1331 
Q 891 859 1127 628 
Q 1363 397 1844 397 
Q 2081 397 2348 469 
Q 2616 541 2906 684 
L 2797 116 
Q 2547 13 2283 -39 
Q 2019 -91 1741 -91 
Q 1044 -91 669 257 
Q 294 606 294 1253 
Q 294 1797 489 2255 
Q 684 2713 1069 3078 
Q 1331 3328 1684 3456 
Q 2038 3584 2456 3584 
Q 2700 3584 2940 3529 
Q 3181 3475 3431 3366 
z
" transform="scale(0.015625)"/>
     </defs>
     <use xlink:href="#DejaVuSans-Oblique-43" transform="translate(0 0.78125)"/>
     <use xlink:href="#DejaVuSans-Oblique-63" transform="translate(69.824219 -15.625) scale(0.7)"/>
    </g>
   </g>
   <g id="text_10">
    <!-- $V_{out}$ -->
    <g transform="translate(407.244 148.543125) scale(0.14 -0.14)">
     <defs>
      <path id="DejaVuSans-Oblique-6f" d="M 1625 -91 
Q 1009 -91 651 289 
Q 294 669 294 1325 
Q 294 1706 417 2101 
Q 541 2497 738 2766 
Q 1047 3184 1428 3384 
Q 1809 3584 2291 3584 
Q 2888 3584 3255 3212 
Q 3622 2841 3622 2241 
Q 3622 1825 3500 1412 
Q 3378 1000 3181 728 
Q 2875 309 2494 109 
Q 2113 -91 1625 -91 
z
M 891 1344 
Q 891 869 1089 633 
Q 1288 397 1691 397 
Q 2269 397 2648 901 
Q 3028 1406 3028 2181 
Q 3028 2634 2825 2865 
Q 2622 3097 2228 3097 
Q 1903 3097 1650 2945 
Q 1397 2794 1197 2484 
Q 1050 2253 970 1956 
Q 891 1659 891 1344 
z
" transform="scale(0.015625)"/>
      <path id="DejaVuSans-Oblique-75" d="M 428 1388 
L 838 3500 
L 1416 3500 
L 1006 1409 
Q 975 1256 961 1147 
Q 947 1038 947 966 
Q 947 700 1109 554 
Q 1272 409 1569 409 
Q 2031 409 2368 721 
Q 2706 1034 2809 1563 
L 3194 3500 
L 3769 3500 
L 3091 0 
L 2516 0 
L 2631 550 
Q 2388 244 2052 76 
Q 1716 -91 1338 -91 
Q 878 -91 622 161 
Q 366 413 366 863 
Q 366 956 381 1097 
Q 397 1238 428 1388 
z
" transform="scale(0.015625)"/>
      <path id="DejaVuSans-Oblique-74" d="M 2706 3500 
L 2619 3053 
L 1472 3053 
L 1100 1153 
Q 1081 1047 1072 975 
Q 1063 903 1063 863 
Q 1063 663 1183 572 
Q 1303 481 1569 481 
L 2150 481 
L 2053 0 
L 1503 0 
Q 991 0 739 200 
Q 488 400 488 806 
Q 488 878 497 964 
Q 506 1050 525 1153 
L 897 3053 
L 409 3053 
L 500 3500 
L 978 3500 
L 1172 4494 
L 1747 4494 
L 1556 3500 
L 2706 3500 
z
" transform="scale(0.015625)"/>
     </defs>
     <use xlink:href="#DejaVuSans-Oblique-56" transform="translate(0 0.09375)"/>
     <use xlink:href="#DejaVuSans-Oblique-6f" transform="translate(68.408203 -16.3125) scale(0.7)"/>
     <use xlink:href="#DejaVuSans-Oblique-75" transform="translate(111.235352 -16.3125) scale(0.7)"/>
     <use xlink:href="#DejaVuSans-Oblique-74" transform="translate(155.600586 -16.3125) scale(0.7)"/>
    </g>
   </g>
  </g>
 </g>
 <defs>
  <clipPath id="paeb178cc18">
   <rect x="0" y="0" width="444.6" height="354.56"/>
  </clipPath>
 </defs>
</svg>