<?xml version="1.0" encoding="utf-8" standalone="no"?>
<!DOCTYPE svg PUBLIC "-//W3C//DTD SVG 1.1//EN"
  "http://www.w3.org/Graphics/SVG/1.1/DTD/svg11.dtd">
<svg xmlns:xlink="http://www.w3.org/1999/xlink" width="446.796pt" height="164.2pt" viewBox="0 0 446.796 164.2" xmlns="http://www.w3.org/2000/svg" version="1.1">
 <metadata>
  <rdf:RDF xmlns:dc="http://purl.org/dc/elements/1.1/" xmlns:cc="http://creativecommons.org/ns#" xmlns:rdf="http://www.w3.org/1999/02/22-rdf-syntax-ns#">
   <cc:Work>
    <dc:type rdf:resource="http://purl.org/dc/dcmitype/StillImage"/>
    <dc:date>2024-12-22T10:10:02.158379</dc:date>
    <dc:format>image/svg+xml</dc:format>
    <dc:creator>
     <cc:Agent>
      <dc:title>Matplotlib v3.9.2, https://matplotlib.org/</dc:title>
     </cc:Agent>
    </dc:creator>
   </cc:Work>
  </rdf:RDF>
 </metadata>
 <defs>
  <style type="text/css">*{stroke-linejoin: round; stroke-linecap: butt}</style>
 </defs>
 <g id="figure_1">
  <g id="patch_1">
   <path d="M 0 164.2 
L 446.796 164.2 
L 446.796 0 
L 0 0 
z
" style="fill: #ffffff"/>
  </g>
  <g id="axes_1">
   <g id="patch_2">
    <path d="M 100.116 100.48 
C 104.889656 100.48 109.468438 98.583406 112.843922 95.207922 
C 116.219406 91.832438 118.116 87.253656 118.116 82.48 
C 118.116 77.706344 116.219406 73.127562 112.843922 69.752078 
C 109.468438 66.376594 104.889656 64.48 100.116 64.48 
C 95.342344 64.48 90.763562 66.376594 87.388078 69.752078 
C 84.012594 73.127562 82.116 77.706344 82.116 82.48 
C 82.116 87.253656 84.012594 91.832438 87.388078 95.207922 
C 90.763562 98.583406 95.342344 100.48 100.116 100.48 
L 100.116 100.48 
z
" clip-path="url(#peb8e90cfca)" style="fill: none; stroke: #000000; stroke-width: 2; stroke-linejoin: miter"/>
   </g>
   <g id="patch_3">
    <path d="M 253.116 28.48 
C 253.116 27.286984 252.641571 26.14161 251.797981 25.298019 
C 250.95439 24.454429 249.809016 23.98 248.616 23.98 
C 247.422984 23.98 246.27761 24.454429 245.434019 25.298019 
C 244.590429 26.14161 244.116 27.286984 244.116 28.48 
" clip-path="url(#peb8e90cfca)" style="fill: none; stroke: #000000; stroke-width: 2; stroke-linejoin: miter"/>
   </g>
   <g id="patch_4">
    <path d="M 262.116 28.48 
C 262.116 27.286984 261.641571 26.14161 260.797981 25.298019 
C 259.95439 24.454429 258.809016 23.98 257.616 23.98 
C 256.422984 23.98 255.27761 24.454429 254.434019 25.298019 
C 253.590429 26.14161 253.116 27.286984 253.116 28.48 
" clip-path="url(#peb8e90cfca)" style="fill: none; stroke: #000000; stroke-width: 2; stroke-linejoin: miter"/>
   </g>
   <g id="patch_5">
    <path d="M 271.116 28.48 
C 271.116 27.286984 270.641571 26.14161 269.797981 25.298019 
C 268.95439 24.454429 267.809016 23.98 266.616 23.98 
C 265.422984 23.98 264.27761 24.454429 263.434019 25.298019 
C 262.590429 26.14161 262.116 27.286984 262.116 28.48 
" clip-path="url(#peb8e90cfca)" style="fill: none; stroke: #000000; stroke-width: 2; stroke-linejoin: miter"/>
   </g>
   <g id="patch_6">
    <path d="M 280.116 28.48 
C 280.116 27.286984 279.641571 26.14161 278.797981 25.298019 
C 277.95439 24.454429 276.809016 23.98 275.616 23.98 
C 274.422984 23.98 273.27761 24.454429 272.434019 25.298019 
C 271.590429 26.14161 271.116 27.286984 271.116 28.48 
" clip-path="url(#peb8e90cfca)" style="fill: none; stroke: #000000; stroke-width: 2; stroke-linejoin: miter"/>
   </g>
   <g id="line2d_1">
    <path d="M 100.116 136.48 
L 100.116 150.88 
L 91.116 150.88 
L 109.116 150.88 
M 93.816 155.2 
L 106.416 155.2 
M 98.316 159.52 
L 101.916 159.52 
" clip-path="url(#peb8e90cfca)" style="fill: none; stroke: #000000; stroke-width: 2; stroke-linecap: round"/>
   </g>
   <g id="line2d_2">
    <path d="M 100.116 136.48 
L 100.116 100.48 
L 100.116 100.48 
M 100.116 64.48 
L 100.116 64.48 
L 100.116 28.48 
" clip-path="url(#peb8e90cfca)" style="fill: none; stroke: #000000; stroke-width: 2; stroke-linecap: round"/>
   </g>
   <g id="line2d_3">
    <path d="M 100.116 91.48 
L 100.116 82.48 
" clip-path="url(#peb8e90cfca)" style="fill: none; stroke: #000000; stroke-width: 2; stroke-linecap: round"/>
   </g>
   <g id="patch_7">
    <path d="M 97.416 82.48 
L 100.116 73.48 
L 102.816 82.48 
z
" clip-path="url(#peb8e90cfca)"/>
   </g>
   <g id="line2d_4">
    <path d="M 100.116 28.48 
L 136.116 28.48 
L 139.116 19.48 
L 145.116 37.48 
L 151.116 19.48 
L 157.116 37.48 
L 163.116 19.48 
L 169.116 37.48 
L 172.116 28.48 
L 208.116 28.48 
" clip-path="url(#peb8e90cfca)" style="fill: none; stroke: #000000; stroke-width: 2; stroke-linecap: round"/>
   </g>
   <g id="line2d_5">
    <path d="M 208.116 28.48 
L 208.116 79.24 
M 217.116 79.24 
L 199.116 79.24 
M 217.116 85.72 
L 199.116 85.72 
M 208.116 85.72 
L 208.116 136.48 
" clip-path="url(#peb8e90cfca)" style="fill: none; stroke: #000000; stroke-width: 2; stroke-linecap: round"/>
   </g>
   <g id="line2d_6">
    <path d="M 208.116 136.48 
L 208.116 150.88 
L 199.116 150.88 
L 217.116 150.88 
M 201.816 155.2 
L 214.416 155.2 
M 206.316 159.52 
L 209.916 159.52 
" clip-path="url(#peb8e90cfca)" style="fill: none; stroke: #000000; stroke-width: 2; stroke-linecap: round"/>
   </g>
   <g id="line2d_7">
    <path d="M 208.116 28.48 
L 244.116 28.48 
M 280.116 28.48 
L 316.116 28.48 
" clip-path="url(#peb8e90cfca)" style="fill: none; stroke: #000000; stroke-width: 2; stroke-linecap: round"/>
   </g>
   <g id="line2d_8">
    <path d="M 316.116 28.48 
L 316.116 79.24 
M 325.116 79.24 
L 307.116 79.24 
M 325.116 85.72 
L 307.116 85.72 
M 316.116 85.72 
L 316.116 136.48 
" clip-path="url(#peb8e90cfca)" style="fill: none; stroke: #000000; stroke-width: 2; stroke-linecap: round"/>
   </g>
   <g id="line2d_9">
    <path d="M 316.116 136.48 
L 316.116 150.88 
L 307.116 150.88 
L 325.116 150.88 
M 309.816 155.2 
L 322.416 155.2 
M 314.316 159.52 
L 317.916 159.52 
" clip-path="url(#peb8e90cfca)" style="fill: none; stroke: #000000; stroke-width: 2; stroke-linecap: round"/>
   </g>
   <g id="line2d_10">
    <path d="M 316.116 28.48 
L 370.116 28.48 
L 424.116 28.48 
" clip-path="url(#peb8e90cfca)" style="fill: none; stroke: #000000; stroke-width: 2; stroke-linecap: round"/>
   </g>
   <g id="line2d_11">
    <path d="M 424.116 28.48 
L 424.116 64.48 
L 442.116 82.48 
L 424.116 100.48 
L 406.116 82.48 
L 424.116 64.48 
M 424.116 100.48 
L 424.116 136.48 
" clip-path="url(#peb8e90cfca)" style="fill: none; stroke: #000000; stroke-width: 2; stroke-linecap: round"/>
   </g>
   <g id="line2d_12">
    <path d="M 424.116 73.48 
L 424.116 82.48 
" clip-path="url(#peb8e90cfca)" style="fill: none; stroke: #000000; stroke-width: 2; stroke-linecap: round"/>
   </g>
   <g id="patch_8">
    <path d="M 426.816 82.48 
L 424.116 91.48 
L 421.416 82.48 
z
" clip-path="url(#peb8e90cfca)"/>
   </g>
   <g id="line2d_13">
    <path d="M 424.116 136.48 
L 424.116 150.88 
L 415.116 150.88 
L 433.116 150.88 
M 417.816 155.2 
L 430.416 155.2 
M 422.316 159.52 
L 425.916 159.52 
" clip-path="url(#peb8e90cfca)" style="fill: none; stroke: #000000; stroke-width: 2; stroke-linecap: round"/>
   </g>
   <g id="text_1">
    <!-- $0.1e^{-3t}u(t)$ -->
    <g transform="translate(2.916 86.918437) scale(0.14 -0.14)">
     <defs>
      <path id="DejaVuSans-30" d="M 2034 4250 
Q 1547 4250 1301 3770 
Q 1056 3291 1056 2328 
Q 1056 1369 1301 889 
Q 1547 409 2034 409 
Q 2525 409 2770 889 
Q 3016 1369 3016 2328 
Q 3016 3291 2770 3770 
Q 2525 4250 2034 4250 
z
M 2034 4750 
Q 2819 4750 3233 4129 
Q 3647 3509 3647 2328 
Q 3647 1150 3233 529 
Q 2819 -91 2034 -91 
Q 1250 -91 836 529 
Q 422 1150 422 2328 
Q 422 3509 836 4129 
Q 1250 4750 2034 4750 
z
" transform="scale(0.015625)"/>
      <path id="DejaVuSans-2e" d="M 684 794 
L 1344 794 
L 1344 0 
L 684 0 
L 684 794 
z
" transform="scale(0.015625)"/>
      <path id="DejaVuSans-31" d="M 794 531 
L 1825 531 
L 1825 4091 
L 703 3866 
L 703 4441 
L 1819 4666 
L 2450 4666 
L 2450 531 
L 3481 531 
L 3481 0 
L 794 0 
L 794 531 
z
" transform="scale(0.015625)"/>
      <path id="DejaVuSans-Oblique-65" d="M 3078 2063 
Q 3088 2113 3092 2166 
Q 3097 2219 3097 2272 
Q 3097 2653 2873 2875 
Q 2650 3097 2266 3097 
Q 1838 3097 1509 2826 
Q 1181 2556 1013 2059 
L 3078 2063 
z
M 3578 1613 
L 903 1613 
Q 884 1494 878 1425 
Q 872 1356 872 1306 
Q 872 872 1139 634 
Q 1406 397 1894 397 
Q 2269 397 2603 481 
Q 2938 566 3225 728 
L 3116 159 
Q 2806 34 2476 -28 
Q 2147 -91 1806 -91 
Q 1078 -91 686 257 
Q 294 606 294 1247 
Q 294 1794 489 2264 
Q 684 2734 1063 3103 
Q 1306 3334 1642 3459 
Q 1978 3584 2356 3584 
Q 2950 3584 3301 3228 
Q 3653 2872 3653 2272 
Q 3653 2128 3634 1964 
Q 3616 1800 3578 1613 
z
" transform="scale(0.015625)"/>
      <path id="DejaVuSans-2212" d="M 678 2272 
L 4684 2272 
L 4684 1741 
L 678 1741 
L 678 2272 
z
" transform="scale(0.015625)"/>
      <path id="DejaVuSans-33" d="M 2597 2516 
Q 3050 2419 3304 2112 
Q 3559 1806 3559 1356 
Q 3559 666 3084 287 
Q 2609 -91 1734 -91 
Q 1441 -91 1130 -33 
Q 819 25 488 141 
L 488 750 
Q 750 597 1062 519 
Q 1375 441 1716 441 
Q 2309 441 2620 675 
Q 2931 909 2931 1356 
Q 2931 1769 2642 2001 
Q 2353 2234 1838 2234 
L 1294 2234 
L 1294 2753 
L 1863 2753 
Q 2328 2753 2575 2939 
Q 2822 3125 2822 3475 
Q 2822 3834 2567 4026 
Q 2313 4219 1838 4219 
Q 1578 4219 1281 4162 
Q 984 4106 628 3988 
L 628 4550 
Q 988 4650 1302 4700 
Q 1616 4750 1894 4750 
Q 2613 4750 3031 4423 
Q 3450 4097 3450 3541 
Q 3450 3153 3228 2886 
Q 3006 2619 2597 2516 
z
" transform="scale(0.015625)"/>
      <path id="DejaVuSans-Oblique-74" d="M 2706 3500 
L 2619 3053 
L 1472 3053 
L 1100 1153 
Q 1081 1047 1072 975 
Q 1063 903 1063 863 
Q 1063 663 1183 572 
Q 1303 481 1569 481 
L 2150 481 
L 2053 0 
L 1503 0 
Q 991 0 739 200 
Q 488 400 488 806 
Q 488 878 497 964 
Q 506 1050 525 1153 
L 897 3053 
L 409 3053 
L 500 3500 
L 978 3500 
L 1172 4494 
L 1747 4494 
L 1556 3500 
L 2706 3500 
z
" transform="scale(0.015625)"/>
      <path id="DejaVuSans-Oblique-75" d="M 428 1388 
L 838 3500 
L 1416 3500 
L 1006 1409 
Q 975 1256 961 1147 
Q 947 1038 947 966 
Q 947 700 1109 554 
Q 1272 409 1569 409 
Q 2031 409 2368 721 
Q 2706 1034 2809 1563 
L 3194 3500 
L 3769 3500 
L 3091 0 
L 2516 0 
L 2631 550 
Q 2388 244 2052 76 
Q 1716 -91 1338 -91 
Q 878 -91 622 161 
Q 366 413 366 863 
Q 366 956 381 1097 
Q 397 1238 428 1388 
z
" transform="scale(0.015625)"/>
      <path id="DejaVuSans-28" d="M 1984 4856 
Q 1566 4138 1362 3434 
Q 1159 2731 1159 2009 
Q 1159 1288 1364 580 
Q 1569 -128 1984 -844 
L 1484 -844 
Q 1016 -109 783 600 
Q 550 1309 550 2009 
Q 550 2706 781 3412 
Q 1013 4119 1484 4856 
L 1984 4856 
z
" transform="scale(0.015625)"/>
      <path id="DejaVuSans-29" d="M 513 4856 
L 1013 4856 
Q 1481 4119 1714 3412 
Q 1947 2706 1947 2009 
Q 1947 1309 1714 600 
Q 1481 -109 1013 -844 
L 513 -844 
Q 928 -128 1133 580 
Q 1338 1288 1338 2009 
Q 1338 2731 1133 3434 
Q 928 4138 513 4856 
z
" transform="scale(0.015625)"/>
     </defs>
     <use xlink:href="#DejaVuSans-30" transform="translate(0 0.765625)"/>
     <use xlink:href="#DejaVuSans-2e" transform="translate(63.623047 0.765625)"/>
     <use xlink:href="#DejaVuSans-31" transform="translate(95.410156 0.765625)"/>
     <use xlink:href="#DejaVuSans-Oblique-65" transform="translate(159.033203 0.765625)"/>
     <use xlink:href="#DejaVuSans-2212" transform="translate(225.206536 39.046875) scale(0.7)"/>
     <use xlink:href="#DejaVuSans-33" transform="translate(283.85888 39.046875) scale(0.7)"/>
     <use xlink:href="#DejaVuSans-Oblique-74" transform="translate(328.395013 39.046875) scale(0.7)"/>
     <use xlink:href="#DejaVuSans-Oblique-75" transform="translate(358.575677 0.765625)"/>
     <use xlink:href="#DejaVuSans-28" transform="translate(421.954583 0.765625)"/>
     <use xlink:href="#DejaVuSans-Oblique-74" transform="translate(460.968255 0.765625)"/>
     <use xlink:href="#DejaVuSans-29" transform="translate(500.17724 0.765625)"/>
    </g>
   </g>
   <g id="text_2">
    <!-- $100\Omega$ -->
    <g transform="translate(135.356 12.968437) scale(0.14 -0.14)">
     <defs>
      <path id="DejaVuSans-3a9" d="M 4647 556 
L 4647 0 
L 2772 0 
L 2772 556 
Q 3325 859 3634 1378 
Q 3944 1897 3944 2528 
Q 3944 3278 3531 3731 
Q 3119 4184 2444 4184 
Q 1769 4184 1355 3729 
Q 941 3275 941 2528 
Q 941 1897 1250 1378 
Q 1563 859 2119 556 
L 2119 0 
L 244 0 
L 244 556 
L 1241 556 
Q 747 991 519 1456 
Q 294 1922 294 2497 
Q 294 3491 894 4106 
Q 1491 4722 2444 4722 
Q 3391 4722 3994 4106 
Q 4594 3494 4594 2528 
Q 4594 1922 4372 1459 
Q 4150 997 3647 556 
L 4647 556 
z
" transform="scale(0.015625)"/>
     </defs>
     <use xlink:href="#DejaVuSans-31" transform="translate(0 0.78125)"/>
     <use xlink:href="#DejaVuSans-30" transform="translate(63.623047 0.78125)"/>
     <use xlink:href="#DejaVuSans-30" transform="translate(127.246094 0.78125)"/>
     <use xlink:href="#DejaVuSans-3a9" transform="translate(190.869141 0.78125)"/>
    </g>
   </g>
   <g id="text_3">
    <!-- $\frac{1}{7}F$ -->
    <g transform="translate(179.416 86.4) scale(0.14 -0.14)">
     <defs>
      <path id="DejaVuSans-37" d="M 525 4666 
L 3525 4666 
L 3525 4397 
L 1831 0 
L 1172 0 
L 2766 4134 
L 525 4134 
L 525 4666 
z
" transform="scale(0.015625)"/>
      <path id="DejaVuSans-Oblique-46" d="M 1081 4666 
L 3756 4666 
L 3653 4134 
L 1606 4134 
L 1338 2759 
L 3188 2759 
L 3084 2228 
L 1234 2228 
L 800 0 
L 172 0 
L 1081 4666 
z
" transform="scale(0.015625)"/>
     </defs>
     <use xlink:href="#DejaVuSans-31" transform="translate(0 43.965625) scale(0.7)"/>
     <use xlink:href="#DejaVuSans-37" transform="translate(0 -38.31875) scale(0.7)"/>
     <use xlink:href="#DejaVuSans-Oblique-46" transform="translate(57.036133 0.16875)"/>
     <path d="M 0 18.965625 
L 0 25.215625 
L 44.536133 25.215625 
L 44.536133 18.965625 
L 0 18.965625 
z
"/>
    </g>
   </g>
   <g id="text_4">
    <!-- $6H$ -->
    <g transform="translate(252.386 17.46846) scale(0.14 -0.14)">
     <defs>
      <path id="DejaVuSans-36" d="M 2113 2584 
Q 1688 2584 1439 2293 
Q 1191 2003 1191 1497 
Q 1191 994 1439 701 
Q 1688 409 2113 409 
Q 2538 409 2786 701 
Q 3034 994 3034 1497 
Q 3034 2003 2786 2293 
Q 2538 2584 2113 2584 
z
M 3366 4563 
L 3366 3988 
Q 3128 4100 2886 4159 
Q 2644 4219 2406 4219 
Q 1781 4219 1451 3797 
Q 1122 3375 1075 2522 
Q 1259 2794 1537 2939 
Q 1816 3084 2150 3084 
Q 2853 3084 3261 2657 
Q 3669 2231 3669 1497 
Q 3669 778 3244 343 
Q 2819 -91 2113 -91 
Q 1303 -91 875 529 
Q 447 1150 447 2328 
Q 447 3434 972 4092 
Q 1497 4750 2381 4750 
Q 2619 4750 2861 4703 
Q 3103 4656 3366 4563 
z
" transform="scale(0.015625)"/>
      <path id="DejaVuSans-Oblique-48" d="M 1081 4666 
L 1716 4666 
L 1344 2753 
L 3634 2753 
L 4006 4666 
L 4641 4666 
L 3731 0 
L 3097 0 
L 3531 2222 
L 1241 2222 
L 806 0 
L 172 0 
L 1081 4666 
z
" transform="scale(0.015625)"/>
     </defs>
     <use xlink:href="#DejaVuSans-36" transform="translate(0 0.78125)"/>
     <use xlink:href="#DejaVuSans-Oblique-48" transform="translate(63.623047 0.78125)"/>
    </g>
   </g>
   <g id="text_5">
    <!-- $\frac{1}{2}F$ -->
    <g transform="translate(287.416 86.33) scale(0.14 -0.14)">
     <defs>
      <path id="DejaVuSans-32" d="M 1228 531 
L 3431 531 
L 3431 0 
L 469 0 
L 469 531 
Q 828 903 1448 1529 
Q 2069 2156 2228 2338 
Q 2531 2678 2651 2914 
Q 2772 3150 2772 3378 
Q 2772 3750 2511 3984 
Q 2250 4219 1831 4219 
Q 1534 4219 1204 4116 
Q 875 4013 500 3803 
L 500 4441 
Q 881 4594 1212 4672 
Q 1544 4750 1819 4750 
Q 2544 4750 2975 4387 
Q 3406 4025 3406 3419 
Q 3406 3131 3298 2873 
Q 3191 2616 2906 2266 
Q 2828 2175 2409 1742 
Q 1991 1309 1228 531 
z
" transform="scale(0.015625)"/>
     </defs>
     <use xlink:href="#DejaVuSans-31" transform="translate(0 43.965625) scale(0.7)"/>
     <use xlink:href="#DejaVuSans-32" transform="translate(0 -39.2375) scale(0.7)"/>
     <use xlink:href="#DejaVuSans-Oblique-46" transform="translate(57.036133 0.16875)"/>
     <path d="M 0 18.965625 
L 0 25.215625 
L 44.536133 25.215625 
L 44.536133 18.965625 
L 0 18.965625 
z
"/>
    </g>
   </g>
   <g id="text_6">
    <!-- $0.2v_2(t)$ -->
    <g transform="translate(349.596 86.343125) scale(0.14 -0.14)">
     <defs>
      <path id="DejaVuSans-Oblique-76" d="M 459 3500 
L 1069 3500 
L 1581 525 
L 3256 3500 
L 3866 3500 
L 1875 0 
L 1100 0 
L 459 3500 
z
" transform="scale(0.015625)"/>
     </defs>
     <use xlink:href="#DejaVuSans-30" transform="translate(0 0.125)"/>
     <use xlink:href="#DejaVuSans-2e" transform="translate(63.623047 0.125)"/>
     <use xlink:href="#DejaVuSans-32" transform="translate(89.910156 0.125)"/>
     <use xlink:href="#DejaVuSans-Oblique-76" transform="translate(153.533203 0.125)"/>
     <use xlink:href="#DejaVuSans-32" transform="translate(212.712891 -16.28125) scale(0.7)"/>
     <use xlink:href="#DejaVuSans-28" transform="translate(259.983398 0.125)"/>
     <use xlink:href="#DejaVuSans-Oblique-74" transform="translate(298.99707 0.125)"/>
     <use xlink:href="#DejaVuSans-29" transform="translate(338.206055 0.125)"/>
    </g>
   </g>
   <g id="patch_9">
    <path d="M 100.116 31.18 
C 100.832048 31.18 101.518866 30.895511 102.025188 30.389188 
C 102.531511 29.882866 102.816 29.196048 102.816 28.48 
C 102.816 27.763952 102.531511 27.077134 102.025188 26.570812 
C 101.518866 26.064489 100.832048 25.78 100.116 25.78 
C 99.399952 25.78 98.713134 26.064489 98.206812 26.570812 
C 97.700489 27.077134 97.416 27.763952 97.416 28.48 
C 97.416 29.196048 97.700489 29.882866 98.206812 30.389188 
C 98.713134 30.895511 99.399952 31.18 100.116 31.18 
z
" clip-path="url(#peb8e90cfca)" style="stroke: #000000; stroke-width: 2; stroke-linejoin: miter"/>
   </g>
   <g id="text_7">
    <!-- $v_1(t)$ -->
    <g transform="translate(84.436 19.268438) scale(0.14 -0.14)">
     <use xlink:href="#DejaVuSans-Oblique-76" transform="translate(0 0.125)"/>
     <use xlink:href="#DejaVuSans-31" transform="translate(59.179688 -16.28125) scale(0.7)"/>
     <use xlink:href="#DejaVuSans-28" transform="translate(106.450195 0.125)"/>
     <use xlink:href="#DejaVuSans-Oblique-74" transform="translate(145.463867 0.125)"/>
     <use xlink:href="#DejaVuSans-29" transform="translate(184.672852 0.125)"/>
    </g>
   </g>
   <g id="patch_10">
    <path d="M 208.116 31.18 
C 208.832048 31.18 209.518866 30.895511 210.025188 30.389188 
C 210.531511 29.882866 210.816 29.196048 210.816 28.48 
C 210.816 27.763952 210.531511 27.077134 210.025188 26.570812 
C 209.518866 26.064489 208.832048 25.78 208.116 25.78 
C 207.399952 25.78 206.713134 26.064489 206.206812 26.570812 
C 205.700489 27.077134 205.416 27.763952 205.416 28.48 
C 205.416 29.196048 205.700489 29.882866 206.206812 30.389188 
C 206.713134 30.895511 207.399952 31.18 208.116 31.18 
z
" clip-path="url(#peb8e90cfca)" style="stroke: #000000; stroke-width: 2; stroke-linejoin: miter"/>
   </g>
   <g id="text_8">
    <!-- $v_2(t)$ -->
    <g transform="translate(192.436 19.268438) scale(0.14 -0.14)">
     <use xlink:href="#DejaVuSans-Oblique-76" transform="translate(0 0.125)"/>
     <use xlink:href="#DejaVuSans-32" transform="translate(59.179688 -16.28125) scale(0.7)"/>
     <use xlink:href="#DejaVuSans-28" transform="translate(106.450195 0.125)"/>
     <use xlink:href="#DejaVuSans-Oblique-74" transform="translate(145.463867 0.125)"/>
     <use xlink:href="#DejaVuSans-29" transform="translate(184.672852 0.125)"/>
    </g>
   </g>
   <g id="patch_11">
    <path d="M 316.116 31.18 
C 316.832048 31.18 317.518866 30.895511 318.025188 30.389188 
C 318.531511 29.882866 318.816 29.196048 318.816 28.48 
C 318.816 27.763952 318.531511 27.077134 318.025188 26.570812 
C 317.518866 26.064489 316.832048 25.78 316.116 25.78 
C 315.399952 25.78 314.713134 26.064489 314.206812 26.570812 
C 313.700489 27.077134 313.416 27.763952 313.416 28.48 
C 313.416 29.196048 313.700489 29.882866 314.206812 30.389188 
C 314.713134 30.895511 315.399952 31.18 316.116 31.18 
z
" clip-path="url(#peb8e90cfca)" style="stroke: #000000; stroke-width: 2; stroke-linejoin: miter"/>
   </g>
   <g id="text_9">
    <!-- $v_3(t)$ -->
    <g transform="translate(300.436 19.268438) scale(0.14 -0.14)">
     <use xlink:href="#DejaVuSans-Oblique-76" transform="translate(0 0.125)"/>
     <use xlink:href="#DejaVuSans-33" transform="translate(59.179688 -16.28125) scale(0.7)"/>
     <use xlink:href="#DejaVuSans-28" transform="translate(106.450195 0.125)"/>
     <use xlink:href="#DejaVuSans-Oblique-74" transform="translate(145.463867 0.125)"/>
     <use xlink:href="#DejaVuSans-29" transform="translate(184.672852 0.125)"/>
    </g>
   </g>
  </g>
 </g>
 <defs>
  <clipPath id="peb8e90cfca">
   <rect x="0" y="-0" width="446.796" height="164.2"/>
  </clipPath>
 </defs>
</svg>