<?xml version="1.0" encoding="utf-8" standalone="no"?>
<!DOCTYPE svg PUBLIC "-//W3C//DTD SVG 1.1//EN"
  "http://www.w3.org/Graphics/SVG/1.1/DTD/svg11.dtd">
<svg xmlns:xlink="http://www.w3.org/1999/xlink" width="307.597187pt" height="176pt" viewBox="0 0 307.597187 176" xmlns="http://www.w3.org/2000/svg" version="1.1">
 <metadata>
  <rdf:RDF xmlns:dc="http://purl.org/dc/elements/1.1/" xmlns:cc="http://creativecommons.org/ns#" xmlns:rdf="http://www.w3.org/1999/02/22-rdf-syntax-ns#">
   <cc:Work>
    <dc:type rdf:resource="http://purl.org/dc/dcmitype/StillImage"/>
    <dc:date>2025-05-14T19:11:22.518347</dc:date>
    <dc:format>image/svg+xml</dc:format>
    <dc:creator>
     <cc:Agent>
      <dc:title>Matplotlib v3.10.3, https://matplotlib.org/</dc:title>
     </cc:Agent>
    </dc:creator>
   </cc:Work>
  </rdf:RDF>
 </metadata>
 <defs>
  <style type="text/css">*{stroke-linejoin: round; stroke-linecap: butt}</style>
 </defs>
 <g id="figure_1">
  <g id="patch_1">
   <path d="M 0 176 
L 307.597187 176 
L 307.597187 0 
L 0 0 
z
" style="fill: #ffffff"/>
  </g>
  <g id="axes_1">
   <g id="patch_2">
    <path d="M 77.917188 112.28 
C 82.690843 112.28 87.269625 110.383406 90.64511 107.007922 
C 94.020594 103.632438 95.917188 99.053656 95.917188 94.28 
C 95.917188 89.506344 94.020594 84.927562 90.64511 81.552078 
C 87.269625 78.176594 82.690843 76.28 77.917188 76.28 
C 73.143532 76.28 68.56475 78.176594 65.189265 81.552078 
C 61.813781 84.927562 59.917188 89.506344 59.917188 94.28 
C 59.917188 99.053656 61.813781 103.632438 65.189265 107.007922 
C 68.56475 110.383406 73.143532 112.28 77.917188 112.28 
L 77.917188 112.28 
z
" clip-path="url(#p1526df8b77)" style="fill: none; stroke: #000000; stroke-width: 2; stroke-linejoin: miter"/>
   </g>
   <g id="patch_3">
    <path d="M 239.917187 58.28 
C 244.690843 58.28 249.269625 56.383406 252.64511 53.007922 
C 256.020594 49.632438 257.917187 45.053656 257.917187 40.28 
C 257.917187 35.506344 256.020594 30.927562 252.64511 27.552078 
C 249.269625 24.176594 244.690843 22.28 239.917187 22.28 
C 235.143532 22.28 230.56475 24.176594 227.189265 27.552078 
C 223.813781 30.927562 221.917187 35.506344 221.917187 40.28 
C 221.917187 45.053656 223.813781 49.632438 227.189265 53.007922 
C 230.56475 56.383406 235.143532 58.28 239.917187 58.28 
L 239.917187 58.28 
z
" clip-path="url(#p1526df8b77)" style="fill: none; stroke: #000000; stroke-width: 2; stroke-linejoin: miter"/>
   </g>
   <g id="line2d_1">
    <path d="M 77.917188 148.28 
L 77.917188 162.68 
L 68.917188 162.68 
L 86.917188 162.68 
M 71.617188 167 
L 84.217188 167 
M 76.117188 171.32 
L 79.717188 171.32 
" clip-path="url(#p1526df8b77)" style="fill: none; stroke: #000000; stroke-width: 2; stroke-linecap: round"/>
   </g>
   <g id="line2d_2">
    <path d="M 77.917188 148.28 
L 77.917188 112.28 
L 77.917188 112.28 
M 77.917188 76.28 
L 77.917188 76.28 
L 77.917188 40.28 
" clip-path="url(#p1526df8b77)" style="fill: none; stroke: #000000; stroke-width: 2; stroke-linecap: round"/>
   </g>
   <g id="line2d_3">
    <path d="M 81.517188 103.28 
L 74.317188 103.28 
" clip-path="url(#p1526df8b77)" style="fill: none; stroke: #000000; stroke-width: 2; stroke-linecap: round"/>
   </g>
   <g id="line2d_4">
    <path d="M 77.917188 88.88 
L 77.917188 81.68 
" clip-path="url(#p1526df8b77)" style="fill: none; stroke: #000000; stroke-width: 2; stroke-linecap: round"/>
   </g>
   <g id="line2d_5">
    <path d="M 81.517188 85.28 
L 74.317188 85.28 
" clip-path="url(#p1526df8b77)" style="fill: none; stroke: #000000; stroke-width: 2; stroke-linecap: round"/>
   </g>
   <g id="line2d_6">
    <path d="M 77.917188 40.28 
L 113.917188 40.28 
L 116.917188 31.28 
L 122.917188 49.28 
L 128.917188 31.28 
L 134.917188 49.28 
L 140.917188 31.28 
L 146.917188 49.28 
L 149.917188 40.28 
L 185.917187 40.28 
" clip-path="url(#p1526df8b77)" style="fill: none; stroke: #000000; stroke-width: 2; stroke-linecap: round"/>
   </g>
   <g id="line2d_7">
    <path d="M 185.917187 40.28 
L 221.917187 40.28 
L 221.917187 40.28 
M 257.917187 40.28 
L 257.917187 40.28 
L 293.917187 40.28 
" clip-path="url(#p1526df8b77)" style="fill: none; stroke: #000000; stroke-width: 2; stroke-linecap: round"/>
   </g>
   <g id="line2d_8">
    <path d="M 230.917187 43.88 
L 230.917187 36.68 
" clip-path="url(#p1526df8b77)" style="fill: none; stroke: #000000; stroke-width: 2; stroke-linecap: round"/>
   </g>
   <g id="line2d_9">
    <path d="M 245.317187 40.28 
L 252.517187 40.28 
" clip-path="url(#p1526df8b77)" style="fill: none; stroke: #000000; stroke-width: 2; stroke-linecap: round"/>
   </g>
   <g id="line2d_10">
    <path d="M 248.917187 43.88 
L 248.917187 36.68 
" clip-path="url(#p1526df8b77)" style="fill: none; stroke: #000000; stroke-width: 2; stroke-linecap: round"/>
   </g>
   <g id="line2d_11">
    <path d="M 293.917187 40.28 
L 293.917187 76.28 
L 302.917187 79.28 
L 284.917187 85.28 
L 302.917187 91.28 
L 284.917187 97.28 
L 302.917187 103.28 
L 284.917187 109.28 
L 293.917187 112.28 
L 293.917187 148.28 
" clip-path="url(#p1526df8b77)" style="fill: none; stroke: #000000; stroke-width: 2; stroke-linecap: round"/>
   </g>
   <g id="line2d_12">
    <path d="M 293.917187 148.28 
L 239.917187 148.28 
L 185.917187 148.28 
" clip-path="url(#p1526df8b77)" style="fill: none; stroke: #000000; stroke-width: 2; stroke-linecap: round"/>
   </g>
   <g id="line2d_13">
    <path d="M 185.917187 148.28 
L 131.917187 148.28 
L 77.917187 148.28 
" clip-path="url(#p1526df8b77)" style="fill: none; stroke: #000000; stroke-width: 2; stroke-linecap: round"/>
   </g>
   <g id="text_1">
    <!-- V1=15v -->
    <g transform="translate(0 98.143125) scale(0.14 -0.14)">
     <defs>
      <path id="DejaVuSans-56" d="M 1831 0 
L 50 4666 
L 709 4666 
L 2188 738 
L 3669 4666 
L 4325 4666 
L 2547 0 
L 1831 0 
z
" transform="scale(0.015625)"/>
      <path id="DejaVuSans-31" d="M 794 531 
L 1825 531 
L 1825 4091 
L 703 3866 
L 703 4441 
L 1819 4666 
L 2450 4666 
L 2450 531 
L 3481 531 
L 3481 0 
L 794 0 
L 794 531 
z
" transform="scale(0.015625)"/>
      <path id="DejaVuSans-3d" d="M 678 2906 
L 4684 2906 
L 4684 2381 
L 678 2381 
L 678 2906 
z
M 678 1631 
L 4684 1631 
L 4684 1100 
L 678 1100 
L 678 1631 
z
" transform="scale(0.015625)"/>
      <path id="DejaVuSans-35" d="M 691 4666 
L 3169 4666 
L 3169 4134 
L 1269 4134 
L 1269 2991 
Q 1406 3038 1543 3061 
Q 1681 3084 1819 3084 
Q 2600 3084 3056 2656 
Q 3513 2228 3513 1497 
Q 3513 744 3044 326 
Q 2575 -91 1722 -91 
Q 1428 -91 1123 -41 
Q 819 9 494 109 
L 494 744 
Q 775 591 1075 516 
Q 1375 441 1709 441 
Q 2250 441 2565 725 
Q 2881 1009 2881 1497 
Q 2881 1984 2565 2268 
Q 2250 2553 1709 2553 
Q 1456 2553 1204 2497 
Q 953 2441 691 2322 
L 691 4666 
z
" transform="scale(0.015625)"/>
      <path id="DejaVuSans-76" d="M 191 3500 
L 800 3500 
L 1894 563 
L 2988 3500 
L 3597 3500 
L 2284 0 
L 1503 0 
L 191 3500 
z
" transform="scale(0.015625)"/>
     </defs>
     <use xlink:href="#DejaVuSans-56"/>
     <use xlink:href="#DejaVuSans-31" transform="translate(68.408203 0)"/>
     <use xlink:href="#DejaVuSans-3d" transform="translate(132.03125 0)"/>
     <use xlink:href="#DejaVuSans-31" transform="translate(215.820312 0)"/>
     <use xlink:href="#DejaVuSans-35" transform="translate(279.443359 0)"/>
     <use xlink:href="#DejaVuSans-76" transform="translate(343.066406 0)"/>
    </g>
   </g>
   <g id="text_2">
    <!-- R1=1Ω -->
    <g transform="translate(106.930469 24.768437) scale(0.14 -0.14)">
     <defs>
      <path id="DejaVuSans-52" d="M 2841 2188 
Q 3044 2119 3236 1894 
Q 3428 1669 3622 1275 
L 4263 0 
L 3584 0 
L 2988 1197 
Q 2756 1666 2539 1819 
Q 2322 1972 1947 1972 
L 1259 1972 
L 1259 0 
L 628 0 
L 628 4666 
L 2053 4666 
Q 2853 4666 3247 4331 
Q 3641 3997 3641 3322 
Q 3641 2881 3436 2590 
Q 3231 2300 2841 2188 
z
M 1259 4147 
L 1259 2491 
L 2053 2491 
Q 2509 2491 2742 2702 
Q 2975 2913 2975 3322 
Q 2975 3731 2742 3939 
Q 2509 4147 2053 4147 
L 1259 4147 
z
" transform="scale(0.015625)"/>
      <path id="DejaVuSans-3a9" d="M 4647 556 
L 4647 0 
L 2772 0 
L 2772 556 
Q 3325 859 3634 1378 
Q 3944 1897 3944 2528 
Q 3944 3278 3531 3731 
Q 3119 4184 2444 4184 
Q 1769 4184 1355 3729 
Q 941 3275 941 2528 
Q 941 1897 1250 1378 
Q 1563 859 2119 556 
L 2119 0 
L 244 0 
L 244 556 
L 1241 556 
Q 747 991 519 1456 
Q 294 1922 294 2497 
Q 294 3491 894 4106 
Q 1491 4722 2444 4722 
Q 3391 4722 3994 4106 
Q 4594 3494 4594 2528 
Q 4594 1922 4372 1459 
Q 4150 997 3647 556 
L 4647 556 
z
" transform="scale(0.015625)"/>
     </defs>
     <use xlink:href="#DejaVuSans-52"/>
     <use xlink:href="#DejaVuSans-31" transform="translate(69.482422 0)"/>
     <use xlink:href="#DejaVuSans-3d" transform="translate(133.105469 0)"/>
     <use xlink:href="#DejaVuSans-31" transform="translate(216.894531 0)"/>
     <use xlink:href="#DejaVuSans-3a9" transform="translate(280.517578 0)"/>
    </g>
   </g>
   <g id="text_3">
    <!-- V2=10v -->
    <g transform="translate(211.758594 15.768437) scale(0.14 -0.14)">
     <defs>
      <path id="DejaVuSans-32" d="M 1228 531 
L 3431 531 
L 3431 0 
L 469 0 
L 469 531 
Q 828 903 1448 1529 
Q 2069 2156 2228 2338 
Q 2531 2678 2651 2914 
Q 2772 3150 2772 3378 
Q 2772 3750 2511 3984 
Q 2250 4219 1831 4219 
Q 1534 4219 1204 4116 
Q 875 4013 500 3803 
L 500 4441 
Q 881 4594 1212 4672 
Q 1544 4750 1819 4750 
Q 2544 4750 2975 4387 
Q 3406 4025 3406 3419 
Q 3406 3131 3298 2873 
Q 3191 2616 2906 2266 
Q 2828 2175 2409 1742 
Q 1991 1309 1228 531 
z
" transform="scale(0.015625)"/>
      <path id="DejaVuSans-30" d="M 2034 4250 
Q 1547 4250 1301 3770 
Q 1056 3291 1056 2328 
Q 1056 1369 1301 889 
Q 1547 409 2034 409 
Q 2525 409 2770 889 
Q 3016 1369 3016 2328 
Q 3016 3291 2770 3770 
Q 2525 4250 2034 4250 
z
M 2034 4750 
Q 2819 4750 3233 4129 
Q 3647 3509 3647 2328 
Q 3647 1150 3233 529 
Q 2819 -91 2034 -91 
Q 1250 -91 836 529 
Q 422 1150 422 2328 
Q 422 3509 836 4129 
Q 1250 4750 2034 4750 
z
" transform="scale(0.015625)"/>
     </defs>
     <use xlink:href="#DejaVuSans-56"/>
     <use xlink:href="#DejaVuSans-32" transform="translate(68.408203 0)"/>
     <use xlink:href="#DejaVuSans-3d" transform="translate(132.03125 0)"/>
     <use xlink:href="#DejaVuSans-31" transform="translate(215.820312 0)"/>
     <use xlink:href="#DejaVuSans-30" transform="translate(279.443359 0)"/>
     <use xlink:href="#DejaVuSans-76" transform="translate(343.066406 0)"/>
    </g>
   </g>
   <g id="text_4">
    <!-- R2=2Ω -->
    <g transform="translate(231.34375 98.143125) scale(0.14 -0.14)">
     <use xlink:href="#DejaVuSans-52"/>
     <use xlink:href="#DejaVuSans-32" transform="translate(69.482422 0)"/>
     <use xlink:href="#DejaVuSans-3d" transform="translate(133.105469 0)"/>
     <use xlink:href="#DejaVuSans-32" transform="translate(216.894531 0)"/>
     <use xlink:href="#DejaVuSans-3a9" transform="translate(280.517578 0)"/>
    </g>
   </g>
   <g id="patch_4">
    <path d="M 77.917188 42.98 
C 78.633236 42.98 79.320053 42.695511 79.826376 42.189188 
C 80.332698 41.682866 80.617188 40.996048 80.617188 40.28 
C 80.617188 39.563952 80.332698 38.877134 79.826376 38.370812 
C 79.320053 37.864489 78.633236 37.58 77.917188 37.58 
C 77.201139 37.58 76.514322 37.864489 76.007999 38.370812 
C 75.501677 38.877134 75.217188 39.563952 75.217188 40.28 
C 75.217188 40.996048 75.501677 41.682866 76.007999 42.189188 
C 76.514322 42.695511 77.201139 42.98 77.917188 42.98 
z
" clip-path="url(#p1526df8b77)" style="stroke: #000000; stroke-width: 2; stroke-linejoin: miter"/>
   </g>
   <g id="text_5">
    <!-- A -->
    <g transform="translate(73.12875 31.068437) scale(0.14 -0.14)">
     <defs>
      <path id="DejaVuSans-41" d="M 2188 4044 
L 1331 1722 
L 3047 1722 
L 2188 4044 
z
M 1831 4666 
L 2547 4666 
L 4325 0 
L 3669 0 
L 3244 1197 
L 1141 1197 
L 716 0 
L 50 0 
L 1831 4666 
z
" transform="scale(0.015625)"/>
     </defs>
     <use xlink:href="#DejaVuSans-41"/>
    </g>
   </g>
   <g id="patch_5">
    <path d="M 185.917187 42.98 
C 186.633236 42.98 187.320053 42.695511 187.826376 42.189188 
C 188.332698 41.682866 188.617187 40.996048 188.617187 40.28 
C 188.617187 39.563952 188.332698 38.877134 187.826376 38.370812 
C 187.320053 37.864489 186.633236 37.58 185.917187 37.58 
C 185.201139 37.58 184.514322 37.864489 184.007999 38.370812 
C 183.501677 38.877134 183.217187 39.563952 183.217187 40.28 
C 183.217187 40.996048 183.501677 41.682866 184.007999 42.189188 
C 184.514322 42.695511 185.201139 42.98 185.917187 42.98 
z
" clip-path="url(#p1526df8b77)" style="stroke: #000000; stroke-width: 2; stroke-linejoin: miter"/>
   </g>
   <g id="text_6">
    <!-- B -->
    <g transform="translate(181.114531 31.068437) scale(0.14 -0.14)">
     <defs>
      <path id="DejaVuSans-42" d="M 1259 2228 
L 1259 519 
L 2272 519 
Q 2781 519 3026 730 
Q 3272 941 3272 1375 
Q 3272 1813 3026 2020 
Q 2781 2228 2272 2228 
L 1259 2228 
z
M 1259 4147 
L 1259 2741 
L 2194 2741 
Q 2656 2741 2882 2914 
Q 3109 3088 3109 3444 
Q 3109 3797 2882 3972 
Q 2656 4147 2194 4147 
L 1259 4147 
z
M 628 4666 
L 2241 4666 
Q 2963 4666 3353 4366 
Q 3744 4066 3744 3513 
Q 3744 3084 3544 2831 
Q 3344 2578 2956 2516 
Q 3422 2416 3680 2098 
Q 3938 1781 3938 1306 
Q 3938 681 3513 340 
Q 3088 0 2303 0 
L 628 0 
L 628 4666 
z
" transform="scale(0.015625)"/>
     </defs>
     <use xlink:href="#DejaVuSans-42"/>
    </g>
   </g>
   <g id="patch_6">
    <path d="M 293.917187 42.98 
C 294.633236 42.98 295.320053 42.695511 295.826376 42.189188 
C 296.332698 41.682866 296.617187 40.996048 296.617187 40.28 
C 296.617187 39.563952 296.332698 38.877134 295.826376 38.370812 
C 295.320053 37.864489 294.633236 37.58 293.917187 37.58 
C 293.201139 37.58 292.514322 37.864489 292.007999 38.370812 
C 291.501677 38.877134 291.217187 39.563952 291.217187 40.28 
C 291.217187 40.996048 291.501677 41.682866 292.007999 42.189188 
C 292.514322 42.695511 293.201139 42.98 293.917187 42.98 
z
" clip-path="url(#p1526df8b77)" style="stroke: #000000; stroke-width: 2; stroke-linejoin: miter"/>
   </g>
   <g id="text_7">
    <!-- C -->
    <g transform="translate(289.029219 31.068437) scale(0.14 -0.14)">
     <defs>
      <path id="DejaVuSans-43" d="M 4122 4306 
L 4122 3641 
Q 3803 3938 3442 4084 
Q 3081 4231 2675 4231 
Q 1875 4231 1450 3742 
Q 1025 3253 1025 2328 
Q 1025 1406 1450 917 
Q 1875 428 2675 428 
Q 3081 428 3442 575 
Q 3803 722 4122 1019 
L 4122 359 
Q 3791 134 3420 21 
Q 3050 -91 2638 -91 
Q 1578 -91 968 557 
Q 359 1206 359 2328 
Q 359 3453 968 4101 
Q 1578 4750 2638 4750 
Q 3056 4750 3426 4639 
Q 3797 4528 4122 4306 
z
" transform="scale(0.015625)"/>
     </defs>
     <use xlink:href="#DejaVuSans-43"/>
    </g>
   </g>
  </g>
 </g>
 <defs>
  <clipPath id="p1526df8b77">
   <rect x="3.169188" y="-0" width="304.428" height="176"/>
  </clipPath>
 </defs>
</svg>