<?xml version="1.0" encoding="utf-8" standalone="no"?>
<!DOCTYPE svg PUBLIC "-//W3C//DTD SVG 1.1//EN"
  "http://www.w3.org/Graphics/SVG/1.1/DTD/svg11.dtd">
<svg xmlns:xlink="http://www.w3.org/1999/xlink" width="668.168pt" height="194.76pt" viewBox="0 0 668.168 194.76" xmlns="http://www.w3.org/2000/svg" version="1.1">
 <metadata>
  <rdf:RDF xmlns:dc="http://purl.org/dc/elements/1.1/" xmlns:cc="http://creativecommons.org/ns#" xmlns:rdf="http://www.w3.org/1999/02/22-rdf-syntax-ns#">
   <cc:Work>
    <dc:type rdf:resource="http://purl.org/dc/dcmitype/StillImage"/>
    <dc:date>2025-01-04T12:43:15.188948</dc:date>
    <dc:format>image/svg+xml</dc:format>
    <dc:creator>
     <cc:Agent>
      <dc:title>Matplotlib v3.9.2, https://matplotlib.org/</dc:title>
     </cc:Agent>
    </dc:creator>
   </cc:Work>
  </rdf:RDF>
 </metadata>
 <defs>
  <style type="text/css">*{stroke-linejoin: round; stroke-linecap: butt}</style>
 </defs>
 <g id="figure_1">
  <g id="patch_1">
   <path d="M -0 194.76 
L 668.168 194.76 
L 668.168 0 
L -0 0 
z
" style="fill: #ffffff"/>
  </g>
  <g id="axes_1">
   <g id="patch_2">
    <path d="M 264.5 115.38 
C 269.273656 115.38 273.852438 113.483406 277.227922 110.107922 
C 280.603406 106.732438 282.5 102.153656 282.5 97.38 
C 282.5 92.606344 280.603406 88.027562 277.227922 84.652078 
C 273.852438 81.276594 269.273656 79.38 264.5 79.38 
C 259.726344 79.38 255.147562 81.276594 251.772078 84.652078 
C 248.396594 88.027562 246.5 92.606344 246.5 97.38 
C 246.5 102.153656 248.396594 106.732438 251.772078 110.107922 
C 255.147562 113.483406 259.726344 115.38 264.5 115.38 
L 264.5 115.38 
z
" clip-path="url(#pc271a9654a)" style="fill: none; stroke: #000000; stroke-width: 2; stroke-linejoin: miter"/>
   </g>
   <g id="patch_3">
    <path d="M 624.5 115.38 
C 629.273656 115.38 633.852438 113.483406 637.227922 110.107922 
C 640.603406 106.732438 642.5 102.153656 642.5 97.38 
C 642.5 92.606344 640.603406 88.027562 637.227922 84.652078 
C 633.852438 81.276594 629.273656 79.38 624.5 79.38 
C 619.726344 79.38 615.147562 81.276594 611.772078 84.652078 
C 608.396594 88.027562 606.5 92.606344 606.5 97.38 
C 606.5 102.153656 608.396594 106.732438 611.772078 110.107922 
C 615.147562 113.483406 619.726344 115.38 624.5 115.38 
L 624.5 115.38 
z
" clip-path="url(#pc271a9654a)" style="fill: none; stroke: #000000; stroke-width: 2; stroke-linejoin: miter"/>
   </g>
   <g id="patch_4">
    <path d="M 387.285071 77.57458 
C 385.729928 73.04198 383.651955 68.915328 381.138316 65.367727 
C 378.624678 61.820126 375.711021 58.901884 372.519564 56.735413 
C 369.328107 54.568942 365.904109 53.184965 362.391197 52.641536 
C 358.878284 52.098106 355.326274 52.402931 351.884163 53.543223 
C 348.442052 54.683516 345.158653 56.643105 342.171694 59.339792 
C 339.184736 62.036479 336.536577 65.432023 334.3383 69.383988 
C 332.140023 73.335954 330.422802 77.7883 329.258669 82.554262 
C 328.094536 87.320224 327.5 92.332217 327.5 97.38 
C 327.5 102.427783 328.094536 107.439776 329.258669 112.205738 
C 330.422802 116.9717 332.140023 121.424046 334.3383 125.376012 
C 336.536577 129.327977 339.184736 132.723521 342.171694 135.420208 
C 345.158653 138.116895 348.442052 140.076484 351.884163 141.216777 
C 355.326274 142.357069 358.878284 142.661894 362.391197 142.118464 
C 365.904109 141.575035 369.328107 140.191058 372.519564 138.024587 
C 375.711021 135.858116 378.624678 132.939874 381.138316 129.392273 
C 383.651955 125.844672 385.729928 121.71802 387.285071 117.18542 
" clip-path="url(#pc271a9654a)" style="fill: none; stroke: #000000; stroke-width: 2; stroke-linejoin: miter"/>
   </g>
   <g id="patch_5">
    <path d="M 391.404598 85.979287 
L 385.019079 79.086163 
L 387.427351 77.90576 
L 387.268908 77.582502 
L 387.301234 77.566658 
L 387.459677 77.889916 
L 389.867949 76.709513 
z
" clip-path="url(#pc271a9654a)" style="stroke: #000000; stroke-linejoin: miter"/>
   </g>
   <g id="patch_6">
    <path d="M 501.714929 117.18542 
C 503.270072 121.71802 505.348045 125.844672 507.861684 129.392273 
C 510.375322 132.939874 513.288979 135.858116 516.480436 138.024587 
C 519.671893 140.191058 523.095891 141.575035 526.608803 142.118464 
C 530.121716 142.661894 533.673726 142.357069 537.115837 141.216777 
C 540.557948 140.076484 543.841347 138.116895 546.828306 135.420208 
C 549.815264 132.723521 552.463423 129.327977 554.6617 125.376012 
C 556.859977 121.424046 558.577198 116.9717 559.741331 112.205738 
C 560.905464 107.439776 561.5 102.427783 561.5 97.38 
C 561.5 92.332217 560.905464 87.320224 559.741331 82.554262 
C 558.577198 77.7883 556.859977 73.335954 554.6617 69.383988 
C 552.463423 65.432023 549.815264 62.036479 546.828306 59.339792 
C 543.841347 56.643105 540.557948 54.683516 537.115837 53.543223 
C 533.673726 52.402931 530.121716 52.098106 526.608803 52.641536 
C 523.095891 53.184965 519.671893 54.568942 516.480436 56.735413 
C 513.288979 58.901884 510.375322 61.820126 507.861684 65.367727 
C 505.348045 68.915328 503.270072 73.04198 501.714929 77.57458 
" clip-path="url(#pc271a9654a)" style="fill: none; stroke: #000000; stroke-width: 2; stroke-linejoin: miter"/>
   </g>
   <g id="patch_7">
    <path d="M 497.296803 85.797596 
L 499.17805 76.59157 
L 501.54063 77.860956 
L 501.699073 77.566061 
L 501.730786 77.5831 
L 501.572342 77.877994 
L 503.934922 79.14738 
z
" clip-path="url(#pc271a9654a)" style="stroke: #000000; stroke-linejoin: miter"/>
   </g>
   <g id="line2d_1">
    <path d="M 264.5 187.38 
L 264.5 115.38 
L 264.5 115.38 
M 264.5 79.38 
L 264.5 79.38 
L 264.5 7.38 
" clip-path="url(#pc271a9654a)" style="fill: none; stroke: #000000; stroke-width: 2; stroke-linecap: round"/>
   </g>
   <g id="line2d_2">
    <path d="M 273.5 97.38 
L 272.75 95.516503 
L 272 93.78 
L 271.25 92.288831 
L 270.5 91.144617 
L 269.75 90.425334 
L 269 90.18 
L 268.25 90.425334 
L 267.5 91.144617 
L 266.75 92.288831 
L 266 93.78 
L 265.25 95.516503 
L 264.5 97.38 
L 263.75 99.243497 
L 263 100.98 
L 262.25 102.471169 
L 261.5 103.615383 
L 260.75 104.334666 
L 260 104.58 
L 259.25 104.334666 
L 258.5 103.615383 
L 257.75 102.471169 
L 257 100.98 
L 256.25 99.243497 
L 255.5 97.38 
" clip-path="url(#pc271a9654a)" style="fill: none; stroke: #000000; stroke-width: 2; stroke-linecap: round"/>
   </g>
   <g id="line2d_3">
    <path d="M 264.5 7.38 
L 354.5 7.38 
L 444.5 7.38 
" clip-path="url(#pc271a9654a)" style="fill: none; stroke: #000000; stroke-width: 2; stroke-linecap: round"/>
   </g>
   <g id="line2d_4">
    <path d="M 444.5 7.38 
L 444.5 79.38 
L 453.5 82.38 
L 435.5 88.38 
L 453.5 94.38 
L 435.5 100.38 
L 453.5 106.38 
L 435.5 112.38 
L 444.5 115.38 
L 444.5 187.38 
" clip-path="url(#pc271a9654a)" style="fill: none; stroke: #000000; stroke-width: 2; stroke-linecap: round"/>
   </g>
   <g id="line2d_5">
    <path d="M 424.7 61.38 
L 424.7 122.58 
" clip-path="url(#pc271a9654a)" style="fill: none; stroke: #000000; stroke-width: 2; stroke-linecap: round"/>
   </g>
   <g id="patch_8">
    <path d="M 428.3 122.58 
L 424.7 133.38 
L 421.1 122.58 
z
" clip-path="url(#pc271a9654a)"/>
   </g>
   <g id="line2d_6">
    <path d="M 444.5 7.38 
L 534.5 7.38 
L 624.5 7.38 
" clip-path="url(#pc271a9654a)" style="fill: none; stroke: #000000; stroke-width: 2; stroke-linecap: round"/>
   </g>
   <g id="line2d_7">
    <path d="M 624.5 7.38 
L 624.5 79.38 
L 624.5 79.38 
M 624.5 115.38 
L 624.5 115.38 
L 624.5 187.38 
" clip-path="url(#pc271a9654a)" style="fill: none; stroke: #000000; stroke-width: 2; stroke-linecap: round"/>
   </g>
   <g id="line2d_8">
    <path d="M 624.5 97.38 
L 624.5 106.38 
" clip-path="url(#pc271a9654a)" style="fill: none; stroke: #000000; stroke-width: 2; stroke-linecap: round"/>
   </g>
   <g id="patch_9">
    <path d="M 621.8 97.38 
L 624.5 88.38 
L 627.2 97.38 
z
" clip-path="url(#pc271a9654a)"/>
   </g>
   <g id="line2d_9">
    <path d="M 624.5 187.38 
L 444.5 187.38 
L 264.5 187.38 
" clip-path="url(#pc271a9654a)" style="fill: none; stroke: #000000; stroke-width: 2; stroke-linecap: round"/>
   </g>
   <g id="text_1">
    <!-- $V_1(t) = 10 +\sin(\pi t) + (0.1\sin(10\pi t)) $ -->
    <g transform="translate(0 101.243125) scale(0.14 -0.14)">
     <defs>
      <path id="DejaVuSans-Oblique-56" d="M 1319 0 
L 500 4666 
L 1119 4666 
L 1797 653 
L 4063 4666 
L 4750 4666 
L 2053 0 
L 1319 0 
z
" transform="scale(0.015625)"/>
      <path id="DejaVuSans-31" d="M 794 531 
L 1825 531 
L 1825 4091 
L 703 3866 
L 703 4441 
L 1819 4666 
L 2450 4666 
L 2450 531 
L 3481 531 
L 3481 0 
L 794 0 
L 794 531 
z
" transform="scale(0.015625)"/>
      <path id="DejaVuSans-28" d="M 1984 4856 
Q 1566 4138 1362 3434 
Q 1159 2731 1159 2009 
Q 1159 1288 1364 580 
Q 1569 -128 1984 -844 
L 1484 -844 
Q 1016 -109 783 600 
Q 550 1309 550 2009 
Q 550 2706 781 3412 
Q 1013 4119 1484 4856 
L 1984 4856 
z
" transform="scale(0.015625)"/>
      <path id="DejaVuSans-Oblique-74" d="M 2706 3500 
L 2619 3053 
L 1472 3053 
L 1100 1153 
Q 1081 1047 1072 975 
Q 1063 903 1063 863 
Q 1063 663 1183 572 
Q 1303 481 1569 481 
L 2150 481 
L 2053 0 
L 1503 0 
Q 991 0 739 200 
Q 488 400 488 806 
Q 488 878 497 964 
Q 506 1050 525 1153 
L 897 3053 
L 409 3053 
L 500 3500 
L 978 3500 
L 1172 4494 
L 1747 4494 
L 1556 3500 
L 2706 3500 
z
" transform="scale(0.015625)"/>
      <path id="DejaVuSans-29" d="M 513 4856 
L 1013 4856 
Q 1481 4119 1714 3412 
Q 1947 2706 1947 2009 
Q 1947 1309 1714 600 
Q 1481 -109 1013 -844 
L 513 -844 
Q 928 -128 1133 580 
Q 1338 1288 1338 2009 
Q 1338 2731 1133 3434 
Q 928 4138 513 4856 
z
" transform="scale(0.015625)"/>
      <path id="DejaVuSans-3d" d="M 678 2906 
L 4684 2906 
L 4684 2381 
L 678 2381 
L 678 2906 
z
M 678 1631 
L 4684 1631 
L 4684 1100 
L 678 1100 
L 678 1631 
z
" transform="scale(0.015625)"/>
      <path id="DejaVuSans-30" d="M 2034 4250 
Q 1547 4250 1301 3770 
Q 1056 3291 1056 2328 
Q 1056 1369 1301 889 
Q 1547 409 2034 409 
Q 2525 409 2770 889 
Q 3016 1369 3016 2328 
Q 3016 3291 2770 3770 
Q 2525 4250 2034 4250 
z
M 2034 4750 
Q 2819 4750 3233 4129 
Q 3647 3509 3647 2328 
Q 3647 1150 3233 529 
Q 2819 -91 2034 -91 
Q 1250 -91 836 529 
Q 422 1150 422 2328 
Q 422 3509 836 4129 
Q 1250 4750 2034 4750 
z
" transform="scale(0.015625)"/>
      <path id="DejaVuSans-2b" d="M 2944 4013 
L 2944 2272 
L 4684 2272 
L 4684 1741 
L 2944 1741 
L 2944 0 
L 2419 0 
L 2419 1741 
L 678 1741 
L 678 2272 
L 2419 2272 
L 2419 4013 
L 2944 4013 
z
" transform="scale(0.015625)"/>
      <path id="DejaVuSans-73" d="M 2834 3397 
L 2834 2853 
Q 2591 2978 2328 3040 
Q 2066 3103 1784 3103 
Q 1356 3103 1142 2972 
Q 928 2841 928 2578 
Q 928 2378 1081 2264 
Q 1234 2150 1697 2047 
L 1894 2003 
Q 2506 1872 2764 1633 
Q 3022 1394 3022 966 
Q 3022 478 2636 193 
Q 2250 -91 1575 -91 
Q 1294 -91 989 -36 
Q 684 19 347 128 
L 347 722 
Q 666 556 975 473 
Q 1284 391 1588 391 
Q 1994 391 2212 530 
Q 2431 669 2431 922 
Q 2431 1156 2273 1281 
Q 2116 1406 1581 1522 
L 1381 1569 
Q 847 1681 609 1914 
Q 372 2147 372 2553 
Q 372 3047 722 3315 
Q 1072 3584 1716 3584 
Q 2034 3584 2315 3537 
Q 2597 3491 2834 3397 
z
" transform="scale(0.015625)"/>
      <path id="DejaVuSans-69" d="M 603 3500 
L 1178 3500 
L 1178 0 
L 603 0 
L 603 3500 
z
M 603 4863 
L 1178 4863 
L 1178 4134 
L 603 4134 
L 603 4863 
z
" transform="scale(0.015625)"/>
      <path id="DejaVuSans-6e" d="M 3513 2113 
L 3513 0 
L 2938 0 
L 2938 2094 
Q 2938 2591 2744 2837 
Q 2550 3084 2163 3084 
Q 1697 3084 1428 2787 
Q 1159 2491 1159 1978 
L 1159 0 
L 581 0 
L 581 3500 
L 1159 3500 
L 1159 2956 
Q 1366 3272 1645 3428 
Q 1925 3584 2291 3584 
Q 2894 3584 3203 3211 
Q 3513 2838 3513 2113 
z
" transform="scale(0.015625)"/>
      <path id="DejaVuSans-Oblique-3c0" d="M 584 3500 
L 3938 3500 
L 3825 2925 
L 3384 2925 
L 2966 775 
Q 2922 550 2981 450 
Q 3038 353 3209 353 
Q 3256 353 3325 363 
Q 3397 369 3419 372 
L 3338 -44 
Q 3222 -84 3103 -103 
Q 2981 -122 2866 -122 
Q 2491 -122 2388 81 
Q 2284 288 2391 838 
L 2797 2925 
L 1506 2925 
L 938 0 
L 350 0 
L 919 2925 
L 472 2925 
L 584 3500 
z
" transform="scale(0.015625)"/>
      <path id="DejaVuSans-2e" d="M 684 794 
L 1344 794 
L 1344 0 
L 684 0 
L 684 794 
z
" transform="scale(0.015625)"/>
     </defs>
     <use xlink:href="#DejaVuSans-Oblique-56" transform="translate(0 0.015625)"/>
     <use xlink:href="#DejaVuSans-31" transform="translate(68.408203 -16.390625) scale(0.7)"/>
     <use xlink:href="#DejaVuSans-28" transform="translate(115.678711 0.015625)"/>
     <use xlink:href="#DejaVuSans-Oblique-74" transform="translate(154.692383 0.015625)"/>
     <use xlink:href="#DejaVuSans-29" transform="translate(193.901367 0.015625)"/>
     <use xlink:href="#DejaVuSans-3d" transform="translate(252.397461 0.015625)"/>
     <use xlink:href="#DejaVuSans-31" transform="translate(355.668945 0.015625)"/>
     <use xlink:href="#DejaVuSans-30" transform="translate(419.291992 0.015625)"/>
     <use xlink:href="#DejaVuSans-2b" transform="translate(502.397461 0.015625)"/>
     <use xlink:href="#DejaVuSans-73" transform="translate(605.668945 0.015625)"/>
     <use xlink:href="#DejaVuSans-69" transform="translate(657.768555 0.015625)"/>
     <use xlink:href="#DejaVuSans-6e" transform="translate(685.551758 0.015625)"/>
     <use xlink:href="#DejaVuSans-28" transform="translate(748.930664 0.015625)"/>
     <use xlink:href="#DejaVuSans-Oblique-3c0" transform="translate(787.944336 0.015625)"/>
     <use xlink:href="#DejaVuSans-Oblique-74" transform="translate(848.149414 0.015625)"/>
     <use xlink:href="#DejaVuSans-29" transform="translate(887.358398 0.015625)"/>
     <use xlink:href="#DejaVuSans-2b" transform="translate(945.854492 0.015625)"/>
     <use xlink:href="#DejaVuSans-28" transform="translate(1049.125977 0.015625)"/>
     <use xlink:href="#DejaVuSans-30" transform="translate(1088.139648 0.015625)"/>
     <use xlink:href="#DejaVuSans-2e" transform="translate(1151.762695 0.015625)"/>
     <use xlink:href="#DejaVuSans-31" transform="translate(1183.549805 0.015625)"/>
     <use xlink:href="#DejaVuSans-73" transform="translate(1247.172852 0.015625)"/>
     <use xlink:href="#DejaVuSans-69" transform="translate(1299.272461 0.015625)"/>
     <use xlink:href="#DejaVuSans-6e" transform="translate(1327.055664 0.015625)"/>
     <use xlink:href="#DejaVuSans-28" transform="translate(1390.43457 0.015625)"/>
     <use xlink:href="#DejaVuSans-31" transform="translate(1429.448242 0.015625)"/>
     <use xlink:href="#DejaVuSans-30" transform="translate(1493.071289 0.015625)"/>
     <use xlink:href="#DejaVuSans-Oblique-3c0" transform="translate(1556.694336 0.015625)"/>
     <use xlink:href="#DejaVuSans-Oblique-74" transform="translate(1616.899414 0.015625)"/>
     <use xlink:href="#DejaVuSans-29" transform="translate(1656.108398 0.015625)"/>
     <use xlink:href="#DejaVuSans-29" transform="translate(1695.12207 0.015625)"/>
    </g>
   </g>
   <g id="text_2">
    <!-- 20Ω -->
    <g transform="translate(460.011563 83.122969) rotate(-270) scale(0.14 -0.14)">
     <defs>
      <path id="DejaVuSans-32" d="M 1228 531 
L 3431 531 
L 3431 0 
L 469 0 
L 469 531 
Q 828 903 1448 1529 
Q 2069 2156 2228 2338 
Q 2531 2678 2651 2914 
Q 2772 3150 2772 3378 
Q 2772 3750 2511 3984 
Q 2250 4219 1831 4219 
Q 1534 4219 1204 4116 
Q 875 4013 500 3803 
L 500 4441 
Q 881 4594 1212 4672 
Q 1544 4750 1819 4750 
Q 2544 4750 2975 4387 
Q 3406 4025 3406 3419 
Q 3406 3131 3298 2873 
Q 3191 2616 2906 2266 
Q 2828 2175 2409 1742 
Q 1991 1309 1228 531 
z
" transform="scale(0.015625)"/>
      <path id="DejaVuSans-3a9" d="M 4647 556 
L 4647 0 
L 2772 0 
L 2772 556 
Q 3325 859 3634 1378 
Q 3944 1897 3944 2528 
Q 3944 3278 3531 3731 
Q 3119 4184 2444 4184 
Q 1769 4184 1355 3729 
Q 941 3275 941 2528 
Q 941 1897 1250 1378 
Q 1563 859 2119 556 
L 2119 0 
L 244 0 
L 244 556 
L 1241 556 
Q 747 991 519 1456 
Q 294 1922 294 2497 
Q 294 3491 894 4106 
Q 1491 4722 2444 4722 
Q 3391 4722 3994 4106 
Q 4594 3494 4594 2528 
Q 4594 1922 4372 1459 
Q 4150 997 3647 556 
L 4647 556 
z
" transform="scale(0.015625)"/>
     </defs>
     <use xlink:href="#DejaVuSans-32"/>
     <use xlink:href="#DejaVuSans-30" x="63.623047"/>
     <use xlink:href="#DejaVuSans-3a9" x="127.246094"/>
    </g>
   </g>
   <g id="text_3">
    <!-- $I_2$ -->
    <g transform="translate(410.32 101.243125) scale(0.14 -0.14)">
     <defs>
      <path id="DejaVuSans-Oblique-49" d="M 1081 4666 
L 1716 4666 
L 806 0 
L 172 0 
L 1081 4666 
z
" transform="scale(0.015625)"/>
     </defs>
     <use xlink:href="#DejaVuSans-Oblique-49" transform="translate(0 0.09375)"/>
     <use xlink:href="#DejaVuSans-32" transform="translate(29.492188 -16.3125) scale(0.7)"/>
    </g>
   </g>
   <g id="text_4">
    <!-- 3A -->
    <g transform="translate(646.1 101.243125) scale(0.14 -0.14)">
     <defs>
      <path id="DejaVuSans-33" d="M 2597 2516 
Q 3050 2419 3304 2112 
Q 3559 1806 3559 1356 
Q 3559 666 3084 287 
Q 2609 -91 1734 -91 
Q 1441 -91 1130 -33 
Q 819 25 488 141 
L 488 750 
Q 750 597 1062 519 
Q 1375 441 1716 441 
Q 2309 441 2620 675 
Q 2931 909 2931 1356 
Q 2931 1769 2642 2001 
Q 2353 2234 1838 2234 
L 1294 2234 
L 1294 2753 
L 1863 2753 
Q 2328 2753 2575 2939 
Q 2822 3125 2822 3475 
Q 2822 3834 2567 4026 
Q 2313 4219 1838 4219 
Q 1578 4219 1281 4162 
Q 984 4106 628 3988 
L 628 4550 
Q 988 4650 1302 4700 
Q 1616 4750 1894 4750 
Q 2613 4750 3031 4423 
Q 3450 4097 3450 3541 
Q 3450 3153 3228 2886 
Q 3006 2619 2597 2516 
z
" transform="scale(0.015625)"/>
      <path id="DejaVuSans-41" d="M 2188 4044 
L 1331 1722 
L 3047 1722 
L 2188 4044 
z
M 1831 4666 
L 2547 4666 
L 4325 0 
L 3669 0 
L 3244 1197 
L 1141 1197 
L 716 0 
L 50 0 
L 1831 4666 
z
" transform="scale(0.015625)"/>
     </defs>
     <use xlink:href="#DejaVuSans-33"/>
     <use xlink:href="#DejaVuSans-41" x="63.623047"/>
    </g>
   </g>
   <g id="text_5">
    <!-- $I_1$ -->
    <g transform="translate(353.61 101.243125) scale(0.14 -0.14)">
     <use xlink:href="#DejaVuSans-Oblique-49" transform="translate(0 0.09375)"/>
     <use xlink:href="#DejaVuSans-31" transform="translate(29.492188 -16.3125) scale(0.7)"/>
    </g>
   </g>
   <g id="text_6">
    <!-- $I_3$ -->
    <g transform="translate(524.61 101.243125) scale(0.14 -0.14)">
     <use xlink:href="#DejaVuSans-Oblique-49" transform="translate(0 0.09375)"/>
     <use xlink:href="#DejaVuSans-33" transform="translate(29.492188 -16.3125) scale(0.7)"/>
    </g>
   </g>
   <g id="patch_10">
    <path d="M 444.5 10.08 
C 445.216048 10.08 445.902866 9.795511 446.409188 9.289188 
C 446.915511 8.782866 447.2 8.096048 447.2 7.38 
C 447.2 6.663952 446.915511 5.977134 446.409188 5.470812 
C 445.902866 4.964489 445.216048 4.68 444.5 4.68 
C 443.783952 4.68 443.097134 4.964489 442.590812 5.470812 
C 442.084489 5.977134 441.8 6.663952 441.8 7.38 
C 441.8 8.096048 442.084489 8.782866 442.590812 9.289188 
C 443.097134 9.795511 443.783952 10.08 444.5 10.08 
z
" clip-path="url(#pc271a9654a)" style="stroke: #000000; stroke-width: 2; stroke-linejoin: miter"/>
   </g>
   <g id="patch_11">
    <path d="M 444.5 190.08 
C 445.216048 190.08 445.902866 189.795511 446.409188 189.289188 
C 446.915511 188.782866 447.2 188.096048 447.2 187.38 
C 447.2 186.663952 446.915511 185.977134 446.409188 185.470812 
C 445.902866 184.964489 445.216048 184.68 444.5 184.68 
C 443.783952 184.68 443.097134 184.964489 442.590812 185.470812 
C 442.084489 185.977134 441.8 186.663952 441.8 187.38 
C 441.8 188.096048 442.084489 188.782866 442.590812 189.289188 
C 443.097134 189.795511 443.783952 190.08 444.5 190.08 
z
" clip-path="url(#pc271a9654a)" style="stroke: #000000; stroke-width: 2; stroke-linejoin: miter"/>
   </g>
  </g>
 </g>
 <defs>
  <clipPath id="pc271a9654a">
   <rect x="11.252" y="-0" width="656.916" height="194.76"/>
  </clipPath>
 </defs>
</svg>