<?xml version="1.0" encoding="utf-8" standalone="no"?>
<!DOCTYPE svg PUBLIC "-//W3C//DTD SVG 1.1//EN"
  "http://www.w3.org/Graphics/SVG/1.1/DTD/svg11.dtd">
<svg xmlns:xlink="http://www.w3.org/1999/xlink" width="243.359978pt" height="142.86pt" viewBox="0 0 243.359978 142.86" xmlns="http://www.w3.org/2000/svg" version="1.1">
 <metadata>
  <rdf:RDF xmlns:dc="http://purl.org/dc/elements/1.1/" xmlns:cc="http://creativecommons.org/ns#" xmlns:rdf="http://www.w3.org/1999/02/22-rdf-syntax-ns#">
   <cc:Work>
    <dc:type rdf:resource="http://purl.org/dc/dcmitype/StillImage"/>
    <dc:date>2025-05-14T19:09:39.022273</dc:date>
    <dc:format>image/svg+xml</dc:format>
    <dc:creator>
     <cc:Agent>
      <dc:title>Matplotlib v3.10.3, https://matplotlib.org/</dc:title>
     </cc:Agent>
    </dc:creator>
   </cc:Work>
  </rdf:RDF>
 </metadata>
 <defs>
  <style type="text/css">*{stroke-linejoin: round; stroke-linecap: butt}</style>
 </defs>
 <g id="figure_1">
  <g id="patch_1">
   <path d="M 0 142.86 
L 243.359978 142.86 
L 243.359978 0 
L 0 0 
z
" style="fill: #ffffff"/>
  </g>
  <g id="axes_1">
   <g id="patch_2">
    <path d="M 126.18 102.18 
C 130.953656 102.18 135.532438 100.283406 138.907922 96.907922 
C 142.283406 93.532438 144.18 88.953656 144.18 84.18 
C 144.18 79.406344 142.283406 74.827562 138.907922 71.452078 
C 135.532438 68.076594 130.953656 66.18 126.18 66.18 
C 121.406344 66.18 116.827562 68.076594 113.452078 71.452078 
C 110.076594 74.827562 108.18 79.406344 108.18 84.18 
C 108.18 88.953656 110.076594 93.532438 113.452078 96.907922 
C 116.827562 100.283406 121.406344 102.18 126.18 102.18 
L 126.18 102.18 
z
" clip-path="url(#p863387b331)" style="fill: none; stroke: #000000; stroke-width: 2; stroke-linejoin: miter"/>
   </g>
   <g id="patch_3">
    <path d="M 234.18 75.18 
C 235.373016 75.18 236.51839 74.705571 237.361981 73.861981 
C 238.205571 73.01839 238.68 71.873016 238.68 70.68 
C 238.68 69.486984 238.205571 68.34161 237.361981 67.498019 
C 236.51839 66.654429 235.373016 66.18 234.18 66.18 
" clip-path="url(#p863387b331)" style="fill: none; stroke: #000000; stroke-width: 2; stroke-linejoin: miter"/>
   </g>
   <g id="patch_4">
    <path d="M 234.18 84.18 
C 235.373016 84.18 236.51839 83.705571 237.361981 82.861981 
C 238.205571 82.01839 238.68 80.873016 238.68 79.68 
C 238.68 78.486984 238.205571 77.34161 237.361981 76.498019 
C 236.51839 75.654429 235.373016 75.18 234.18 75.18 
" clip-path="url(#p863387b331)" style="fill: none; stroke: #000000; stroke-width: 2; stroke-linejoin: miter"/>
   </g>
   <g id="patch_5">
    <path d="M 234.18 93.18 
C 235.373016 93.18 236.51839 92.705571 237.361981 91.861981 
C 238.205571 91.01839 238.68 89.873016 238.68 88.68 
C 238.68 87.486984 238.205571 86.34161 237.361981 85.498019 
C 236.51839 84.654429 235.373016 84.18 234.18 84.18 
" clip-path="url(#p863387b331)" style="fill: none; stroke: #000000; stroke-width: 2; stroke-linejoin: miter"/>
   </g>
   <g id="patch_6">
    <path d="M 234.18 102.18 
C 235.373016 102.18 236.51839 101.705571 237.361981 100.861981 
C 238.205571 100.01839 238.68 98.873016 238.68 97.68 
C 238.68 96.486984 238.205571 95.34161 237.361981 94.498019 
C 236.51839 93.654429 235.373016 93.18 234.18 93.18 
" clip-path="url(#p863387b331)" style="fill: none; stroke: #000000; stroke-width: 2; stroke-linejoin: miter"/>
   </g>
   <g id="line2d_1">
    <path d="M 18.18 30.18 
L 72.18 30.18 
L 126.18 30.18 
" clip-path="url(#p863387b331)" style="fill: none; stroke: #000000; stroke-width: 2; stroke-linecap: round"/>
   </g>
   <g id="line2d_2">
    <path d="M 66.78 30.18 
L 66.78 30.18 
" clip-path="url(#p863387b331)" style="fill: none; stroke: #000000; stroke-width: 4; stroke-linecap: round"/>
   </g>
   <g id="patch_7">
    <path d="M 66.78 27.48 
L 75.78 30.18 
L 66.78 32.88 
z
" clip-path="url(#p863387b331)"/>
   </g>
   <g id="line2d_3">
    <path d="M 126.18 30.18 
L 126.18 66.18 
L 126.18 66.18 
M 126.18 102.18 
L 126.18 102.18 
L 126.18 138.18 
" clip-path="url(#p863387b331)" style="fill: none; stroke: #000000; stroke-width: 2; stroke-linecap: round"/>
   </g>
   <g id="line2d_4">
    <path d="M 126.18 75.18 
L 126.18 84.18 
" clip-path="url(#p863387b331)" style="fill: none; stroke: #000000; stroke-width: 2; stroke-linecap: round"/>
   </g>
   <g id="patch_8">
    <path d="M 128.88 84.18 
L 126.18 93.18 
L 123.48 84.18 
z
" clip-path="url(#p863387b331)"/>
   </g>
   <g id="line2d_5">
    <path d="M 126.18 30.18 
L 180.18 30.18 
L 234.18 30.18 
" clip-path="url(#p863387b331)" style="fill: none; stroke: #000000; stroke-width: 2; stroke-linecap: round"/>
   </g>
   <g id="line2d_6">
    <path d="M 234.18 30.18 
L 234.18 66.18 
M 234.18 102.18 
L 234.18 138.18 
" clip-path="url(#p863387b331)" style="fill: none; stroke: #000000; stroke-width: 2; stroke-linecap: round"/>
   </g>
   <g id="line2d_7">
    <path d="M 234.18 138.18 
L 180.18 138.18 
L 126.18 138.18 
" clip-path="url(#p863387b331)" style="fill: none; stroke: #000000; stroke-width: 2; stroke-linecap: round"/>
   </g>
   <g id="line2d_8">
    <path d="M 126.18 138.18 
L 72.18 138.18 
L 18.18 138.18 
" clip-path="url(#p863387b331)" style="fill: none; stroke: #000000; stroke-width: 2; stroke-linecap: round"/>
   </g>
   <g id="line2d_9">
    <path d="M 18.18 138.18 
L 18.18 87.555 
M 18.18 80.805 
L 18.18 30.18 
" clip-path="url(#p863387b331)" style="fill: none; stroke: #000000; stroke-width: 2; stroke-linecap: round"/>
   </g>
   <g id="line2d_10">
    <path d="M 31.68 80.805 
L 4.68 80.805 
" clip-path="url(#p863387b331)" style="fill: none; stroke: #000000; stroke-width: 2; stroke-linecap: round"/>
   </g>
   <g id="line2d_11">
    <path d="M 24.93 87.555 
L 11.43 87.555 
" clip-path="url(#p863387b331)" style="fill: none; stroke: #000000; stroke-width: 2; stroke-linecap: round"/>
   </g>
   <g id="text_1">
    <!-- $ i_t $ -->
    <g transform="translate(68.061 13.471547) scale(0.111 -0.111)">
     <defs>
      <path id="DejaVuSans-Oblique-69" d="M 1172 4863 
L 1747 4863 
L 1606 4134 
L 1031 4134 
L 1172 4863 
z
M 909 3500 
L 1484 3500 
L 800 0 
L 225 0 
L 909 3500 
z
" transform="scale(0.015625)"/>
      <path id="DejaVuSans-Oblique-74" d="M 2706 3500 
L 2619 3053 
L 1472 3053 
L 1100 1153 
Q 1081 1047 1072 975 
Q 1063 903 1063 863 
Q 1063 663 1183 572 
Q 1303 481 1569 481 
L 2150 481 
L 2053 0 
L 1503 0 
Q 991 0 739 200 
Q 488 400 488 806 
Q 488 878 497 964 
Q 506 1050 525 1153 
L 897 3053 
L 409 3053 
L 500 3500 
L 978 3500 
L 1172 4494 
L 1747 4494 
L 1556 3500 
L 2706 3500 
z
" transform="scale(0.015625)"/>
     </defs>
     <use xlink:href="#DejaVuSans-Oblique-69" transform="translate(0 0.015625)"/>
     <use xlink:href="#DejaVuSans-Oblique-74" transform="translate(27.783203 -16.390625) scale(0.7)"/>
    </g>
   </g>
   <g id="text_2">
    <!-- $I_0$ -->
    <g transform="translate(93.8 88.043125) scale(0.14 -0.14)">
     <defs>
      <path id="DejaVuSans-Oblique-49" d="M 1081 4666 
L 1716 4666 
L 806 0 
L 172 0 
L 1081 4666 
z
" transform="scale(0.015625)"/>
      <path id="DejaVuSans-30" d="M 2034 4250 
Q 1547 4250 1301 3770 
Q 1056 3291 1056 2328 
Q 1056 1369 1301 889 
Q 1547 409 2034 409 
Q 2525 409 2770 889 
Q 3016 1369 3016 2328 
Q 3016 3291 2770 3770 
Q 2525 4250 2034 4250 
z
M 2034 4750 
Q 2819 4750 3233 4129 
Q 3647 3509 3647 2328 
Q 3647 1150 3233 529 
Q 2819 -91 2034 -91 
Q 1250 -91 836 529 
Q 422 1150 422 2328 
Q 422 3509 836 4129 
Q 1250 4750 2034 4750 
z
" transform="scale(0.015625)"/>
     </defs>
     <use xlink:href="#DejaVuSans-Oblique-49" transform="translate(0 0.09375)"/>
     <use xlink:href="#DejaVuSans-30" transform="translate(29.492188 -16.3125) scale(0.7)"/>
    </g>
   </g>
   <g id="text_3">
    <!-- L -->
    <g transform="translate(225.509594 68.691031) scale(0.091 -0.091)">
     <defs>
      <path id="DejaVuSans-4c" d="M 628 4666 
L 1259 4666 
L 1259 531 
L 3531 531 
L 3531 0 
L 628 0 
L 628 4666 
z
" transform="scale(0.015625)"/>
     </defs>
     <use xlink:href="#DejaVuSans-4c"/>
    </g>
   </g>
   <g id="text_4">
    <!-- $i(0) = 0$ -->
    <g transform="translate(198.184 104.691031) scale(0.091 -0.091)">
     <defs>
      <path id="DejaVuSans-28" d="M 1984 4856 
Q 1566 4138 1362 3434 
Q 1159 2731 1159 2009 
Q 1159 1288 1364 580 
Q 1569 -128 1984 -844 
L 1484 -844 
Q 1016 -109 783 600 
Q 550 1309 550 2009 
Q 550 2706 781 3412 
Q 1013 4119 1484 4856 
L 1984 4856 
z
" transform="scale(0.015625)"/>
      <path id="DejaVuSans-29" d="M 513 4856 
L 1013 4856 
Q 1481 4119 1714 3412 
Q 1947 2706 1947 2009 
Q 1947 1309 1714 600 
Q 1481 -109 1013 -844 
L 513 -844 
Q 928 -128 1133 580 
Q 1338 1288 1338 2009 
Q 1338 2731 1133 3434 
Q 928 4138 513 4856 
z
" transform="scale(0.015625)"/>
      <path id="DejaVuSans-3d" d="M 678 2906 
L 4684 2906 
L 4684 2381 
L 678 2381 
L 678 2906 
z
M 678 1631 
L 4684 1631 
L 4684 1100 
L 678 1100 
L 678 1631 
z
" transform="scale(0.015625)"/>
     </defs>
     <use xlink:href="#DejaVuSans-Oblique-69" transform="translate(0 0.015625)"/>
     <use xlink:href="#DejaVuSans-28" transform="translate(27.783203 0.015625)"/>
     <use xlink:href="#DejaVuSans-30" transform="translate(66.796875 0.015625)"/>
     <use xlink:href="#DejaVuSans-29" transform="translate(130.419922 0.015625)"/>
     <use xlink:href="#DejaVuSans-3d" transform="translate(188.916016 0.015625)"/>
     <use xlink:href="#DejaVuSans-30" transform="translate(292.1875 0.015625)"/>
    </g>
   </g>
  </g>
 </g>
 <defs>
  <clipPath id="p863387b331">
   <rect x="0" y="0" width="243.359978" height="142.86"/>
  </clipPath>
 </defs>
</svg>